<svg id="Layer_1" enable-background="new 0 0 512 512" height="512" viewBox="0 0 512 512" width="512" xmlns="http://www.w3.org/2000/svg"><g><path d="m298 504.5h-214c-22.091 0-40-17.909-40-40v-417c0-22.091 17.909-40 40-40h214c22.091 0 40 17.909 40 40v417c0 22.091-17.909 40-40 40z" fill="#7b727b"/><path d="m298 7.5h-30c22.091 0 40 17.909 40 40v417c0 22.091-17.909 40-40 40h30c22.091 0 40-17.909 40-40v-417c0-22.091-17.909-40-40-40z" fill="#686169"/><path d="m312 47.5v417c0 7.732-6.268 14-14 14h-214c-7.732 0-14-6.268-14-14v-417c0-7.732 6.268-14 14-14h40.104c2.331 0 4.405 1.48 5.164 3.684l5.284 15.353c.759 2.204 2.833 3.684 5.164 3.684h102.568c2.331 0 4.405-1.48 5.164-3.684l5.284-15.353c.759-2.204 2.833-3.684 5.164-3.684h40.104c7.732 0 14 6.268 14 14z" fill="#d6faec"/><g><path d="m298 33.5h-30c7.732 0 14 6.268 14 14v417c0 7.732-6.268 14-14 14h30c7.732 0 14-6.268 14-14v-417c0-7.732-6.268-14-14-14z" fill="#ccfae8"/></g><path d="m427.501 116.035c-52.492-51.649-137.08-51.342-189.19.921-40.963 41.082-49.911 102.293-26.852 152.174 6.457 13.967 6.812 29.999.749 44.143l-12.783 29.817c-1.094 2.552 1.494 5.128 4.031 4.012l29.266-12.884c14.104-6.209 30.182-6.044 44.167.431 50.558 23.412 112.727 13.691 153.631-29.164 51.137-53.576 49.769-137.509-3.019-189.45z" fill="#f8f7f7"/><g><path d="m426.558 116.035c-29.915-29.435-70.254-41.985-109.065-37.671 28.873 3.219 56.898 15.773 79.153 37.671 52.788 51.941 54.155 135.874 3.018 189.45-22.709 23.792-51.974 37.354-82.166 40.721 40.133 4.461 81.894-9.098 112.078-40.721 51.137-53.576 49.769-137.509-3.018-189.45z" fill="#efefef"/></g><path d="m230 414h-78c-11.598 0-21-9.402-21-21 0-11.598 9.402-21 21-21h78c11.598 0 21 9.402 21 21 0 11.598-9.402 21-21 21z" fill="#ff6167"/><path d="m400.027 224.915h-132v-8c0-36.451 29.549-66 66-66 36.451 0 66 29.549 66 66z" fill="#cfdbe4"/><path d="m334.027 150.915c-5.162 0-10.179.612-15 1.733 29.221 6.794 51 32.979 51 64.267v8h30v-8c0-36.451-29.55-66-66-66z" fill="#afbbc6"/><path d="m393.751 252.915h-119.45c-3.786 0-7.186-2.317-8.57-5.841l-8.705-22.159h154l-8.705 22.159c-1.384 3.524-4.784 5.841-8.57 5.841z" fill="#7b727b"/><path d="m381.027 224.915-8.706 22.159c-1.384 3.524-4.784 5.841-8.57 5.841h30c3.786 0 7.185-2.317 8.57-5.841l8.706-22.159z" fill="#686169"/><g><path d="m475.481 210.427c-.603-37.445-15.776-72.63-42.728-99.07-2.955-2.9-7.703-2.854-10.605.101-2.901 2.957-2.855 7.706.101 10.606 50.197 49.248 51.45 127.592 2.853 178.357-37.498 39.173-95.797 50.208-145.069 27.456-15.931-7.354-34.272-7.533-50.325-.487l-18.936 8.311 8.326-19.365c6.853-15.936 6.548-34.208-.834-50.131-22.343-48.189-12.155-105.767 25.352-143.272 40.153-40.154 102.743-48.697 152.201-20.772 3.604 2.033 8.182.763 10.219-2.844 2.036-3.607.763-8.182-2.844-10.219-18.12-10.23-37.817-16.083-57.691-17.749v-23.849c-.001-26.191-21.31-47.5-47.501-47.5h-214c-26.191 0-47.5 21.309-47.5 47.5v30.814c.344 9.931 14.66 9.923 15 0v-30.814c0-17.921 14.579-32.5 32.5-32.5h214c17.921 0 32.5 14.579 32.5 32.5v23.387c-3.676.079-7.345.297-11 .658v-24.045c0-11.855-9.645-21.5-21.5-21.5h-40.1c-5.546 0-10.472 3.52-12.251 8.737l-4.815 13.982h-99.658l-4.817-13.989c-1.804-5.222-6.727-8.73-12.248-8.73h-40.111c-11.855 0-21.5 9.645-21.5 21.5v417c0 11.855 9.645 21.5 21.5 21.5h164.563c9.931-.344 9.923-14.66 0-15h-164.563c-3.584 0-6.5-2.916-6.5-6.5v-417c0-3.584 2.916-6.5 6.5-6.5h38.653l4.808 13.96c1.786 5.239 6.712 8.76 12.259 8.76h102.57c5.523 0 10.446-3.509 12.251-8.737l4.815-13.983h38.644c3.584 0 6.5 2.916 6.5 6.5v26.337c-88.067 16.761-138.691 117.48-99.844 198.677 5.59 12.06 5.833 25.872.662 37.897l-12.781 29.728c-1.725 4.008-.838 8.584 2.259 11.658 3.11 3.094 7.726 3.916 11.676 2.174l29.266-12.846c12.12-5.32 25.973-5.186 38.009.372 9.985 4.61 20.305 7.962 30.755 10.128v112.875c0 3.584-2.916 6.5-6.5 6.5h-14.273c-9.931.344-9.923 14.66 0 15h14.271c11.855 0 21.5-9.645 21.5-21.5v-110.606c3.665.358 7.334.572 11 .644v109.962c0 17.921-14.579 32.5-32.5 32.5h-214c-17.921 0-32.5-14.579-32.5-32.5v-352.271c-.344-9.931-14.66-9.923-15 0v352.271c0 26.191 21.309 47.5 47.5 47.5h214c26.191 0 47.5-21.309 47.5-47.5v-110.457c33.643-2.897 65.994-17.715 90.437-43.249 26.103-27.269 40.147-62.913 39.544-100.367z"/><path d="m230.003 364.5h-78c-37.818 1.57-37.789 55.444 0 57h78c37.818-1.57 37.789-55.444 0-57zm0 42h-78c-17.914-.743-17.9-26.264 0-27h78c17.914.743 17.9 26.264 0 27z"/><path d="m333.5 127.892c-4.143 0-7.5 3.357-7.5 7.5v8.403c-37.019 3.769-66 35.123-66 73.12v.5h-14.5c-9.931.344-9.923 14.66 0 15h5.889l6.836 17.402c2.53 6.438 8.634 10.598 15.551 10.598h119.449c6.917 0 13.021-4.16 15.551-10.599l6.836-17.401h5.889c9.931-.344 9.923-14.66 0-15h-14.501v-.5c0-37.997-28.981-69.351-66-73.12v-8.403c0-4.143-3.357-7.5-7.5-7.5zm61.314 116.439c-.259.658-.883 1.084-1.59 1.084h-119.449c-.707 0-1.331-.426-1.59-1.083l-4.682-11.917h131.992zm-2.814-27.416v.5h-117v-.5c3.223-77.627 113.806-77.567 117 0z"/></g></g></svg>