<svg id="Layer_1" enable-background="new 0 0 512 512" height="512" viewBox="0 0 512 512" width="512" xmlns="http://www.w3.org/2000/svg"><g><path d="m266.461 289.883-27.909 6.517c-3.049.712-6.099-1.183-6.811-4.232l-44.265-189.56c-.712-3.049 1.183-6.099 4.232-6.811l27.909-6.517c3.049-.712 6.099 1.183 6.811 4.232l44.265 189.56c.712 3.05-1.182 6.099-4.232 6.811z" fill="#ffd86e"/><path d="m409.879 305.895-27.458-8.214c-3-.897-4.705-4.057-3.807-7.057l55.787-186.495c.897-3 4.057-4.705 7.057-3.807l27.458 8.214c3 .897 4.705 4.057 3.807 7.057l-55.787 186.495c-.897 2.999-4.057 4.704-7.057 3.807z" fill="#ffd86e"/><g fill="#ffcd55"><path d="m291.493 244.933-28.06 5.832c-3.066.637-6.068-1.332-6.705-4.397l-39.614-190.587c-.637-3.066 1.332-6.068 4.397-6.705l28.06-5.832c3.066-.637 6.068 1.332 6.705 4.397l39.613 190.587c.639 3.066-1.33 6.068-4.396 6.705z"/><path d="m396.566 261.6-27.933-6.413c-3.052-.701-4.958-3.743-4.257-6.795l43.559-189.724c.701-3.052 3.743-4.958 6.795-4.257l27.933 6.413c3.052.701 4.958 3.743 4.257 6.795l-43.559 189.724c-.701 3.052-3.743 4.958-6.795 4.257z"/><path d="m341.889 214.289-28.646-.884c-3.13-.097-5.589-2.712-5.492-5.842l6.006-194.567c.097-3.13 2.712-5.589 5.842-5.492l28.646.884c3.13.097 5.589 2.712 5.492 5.842l-6.006 194.567c-.097 3.13-2.712 5.589-5.842 5.492z"/></g><path d="m319.108 273.631-28.529 2.742c-3.117.3-5.887-1.984-6.186-5.102l-18.621-193.767c-.3-3.117 1.984-5.887 5.102-6.186l28.529-2.742c3.117-.3 5.887 1.984 6.186 5.102l18.621 193.767c.299 3.117-1.985 5.887-5.102 6.186z" fill="#ffd86e"/><path d="m363.998 286.961-28.378-4.013c-3.101-.438-5.259-3.307-4.82-6.408l27.255-192.743c.438-3.101 3.307-5.259 6.408-4.82l28.378 4.013c3.101.438 5.259 3.307 4.82 6.408l-27.255 192.742c-.439 3.101-3.308 5.259-6.408 4.821z" fill="#ffd86e"/><path d="m476.967 156.709-17.998 344c-.111 2.125-1.869 3.791-4 3.791h-257.993c-2.131 0-3.889-1.666-4-3.791l-17.998-344c-.12-2.288 1.706-4.209 4-4.209h58.969c8.913 0 16.604 6.245 18.42 14.959l4.178 20.041c1.817 8.714 9.507 14.959 18.42 14.959h94.013c8.913 0 16.604-6.245 18.42-14.959l4.178-20.041c1.817-8.714 9.507-14.959 18.42-14.959h58.969c2.296 0 4.122 1.921 4.002 4.209z" fill="#ff6167"/><g><path d="m472.967 152.5h-30c2.294 0 4.12 1.921 4 4.209l-17.998 344c-.111 2.125-1.869 3.791-4 3.791h30c2.131 0 3.889-1.666 4-3.791l17.998-344c.12-2.288-1.706-4.209-4-4.209z" fill="#fe454a"/></g><path d="m394.079 376h-136.212c-2.427 0-4.394-1.967-4.394-4.394v-5.106c0-40.041 32.459-72.5 72.5-72.5 40.041 0 72.5 32.459 72.5 72.5v5.106c0 2.427-1.968 4.394-4.394 4.394z" fill="#f8f7f7"/><path d="m325.973 294c-5.144 0-10.159.544-15 1.563 32.841 6.91 57.5 36.04 57.5 70.937v5.106c0 2.427-1.967 4.394-4.394 4.394h30c2.427 0 4.394-1.967 4.394-4.394v-5.106c0-40.041-32.46-72.5-72.5-72.5z" fill="#efefef"/><g><path d="m394.079 383.5c6.559 0 11.894-5.335 11.894-11.894v-5.106c-4.407-106.157-155.633-106.075-160 0v5.106c0 6.559 5.335 11.894 11.894 11.894zm-133.106-17c3.58-86.253 126.452-86.186 130 0v2h-130z"/><path d="m481.315 148.585c-2.163-2.278-5.205-3.585-8.348-3.585h-1.211l8.154-27.258c2.081-6.958-1.886-14.311-8.843-16.392l-22.641-6.773 5.804-25.281c.787-3.429.192-6.959-1.676-9.94s-4.785-5.056-8.213-5.843l-27.934-6.413c-3.429-.786-6.958-.191-9.94 1.676-2.981 1.868-5.056 4.785-5.843 8.213l-4.393 19.136c-.75-.251-1.529-.447-2.34-.562l-28.378-4.013c-2.109-.298-4.169-.064-6.06.58l1.78-57.67c.365-7.071-5.678-13.498-12.758-13.57l-28.645-.884c-7.243-.219-13.346 5.499-13.57 12.757l-.194 6.27c-.128 4.14 3.125 7.6 7.265 7.729 4.147.136 7.601-3.125 7.729-7.265l.137-4.441 24.988.771-3.895 126.169c0 .007 0 .013-.001.02l-1.634 52.944h-25.012l4.336-140.463c.127-4.14-3.125-7.6-7.265-7.728-4.153-.122-7.6 3.125-7.728 7.265l-.245 7.927c-1.903-.746-3.965-1.049-6.056-.85l-28.528 2.742c-.94.09-1.853.285-2.733.563l-3.804-18.3c-1.298-6.961-8.673-11.797-15.575-10.214l-28.061 5.832c-6.96 1.298-11.798 8.674-10.214 15.575l5.267 25.34-25.034 5.846c-7.071 1.651-11.481 8.748-9.831 15.82l9.502 40.685h-10.695c-3.143 0-6.185 1.307-8.348 3.585-2.161 2.277-3.307 5.381-3.143 8.515l17.998 344c.32 6.112 5.367 10.899 11.49 10.899h25.689c9.931-.344 9.923-14.659 0-15h-22.373l-17.631-337h55.287c5.333 0 9.992 3.781 11.078 8.99l4.178 20.041c2.528 12.127 13.362 20.929 25.762 20.929h94.014c12.4 0 23.234-8.802 25.762-20.929l4.178-20.041c1.086-5.209 5.745-8.99 11.078-8.99h55.287l-1.14 21.778c-.216 4.137 2.961 7.666 7.098 7.882 4.129.209 7.666-2.961 7.882-7.098l1.333-25.462c.163-3.133-.982-6.236-3.143-8.514zm-16.301-33.388-8.915 29.803h-19.25l8.213-35.772zm-166.716-38.98 4.543 47.277-2.206 71.466h-16.041l-11.181-116.352zm-103.102 26.467 22.895-5.346 9.907 47.662h-22.92zm68.514 63.245c-2.145-10.29-10.277-18.163-20.264-20.319l-18.616-89.563 24.477-5.087 11.866 57.091 7.768 80.834c-.475-.904-.837-1.879-1.053-2.914zm91.952 29.031 1.606-52.028 7.957-56.273 24.754 3.5-14.788 104.572c-.719.145-1.458.228-2.212.228h-17.317zm40.749-43.157 3.472-24.553 14.951-65.122 24.366 5.595-17.741 77.277h-7.461c-6.67 0-12.872 2.563-17.587 6.803z"/><path d="m474.196 209.68c-4.146-.214-7.666 2.961-7.882 7.098l-14.661 280.222h-193.449c-9.931.344-9.923 14.659 0 15h196.766c6.124 0 11.171-4.788 11.49-10.899l14.835-283.539c.215-4.137-2.963-7.666-7.099-7.882z"/><path d="m34.973 213.891h79.824c9.931-.344 9.923-14.659 0-15h-79.824c-9.931.345-9.924 14.66 0 15z"/><path d="m34.973 268.891h86.11c9.931-.344 9.923-14.659 0-15h-86.11c-9.931.345-9.924 14.66 0 15z"/><path d="m34.973 323.892h94.982c9.931-.344 9.923-14.659 0-15h-94.982c-9.931.344-9.924 14.659 0 15z"/><path d="m34.973 378.892h105.342c9.931-.344 9.923-14.659 0-15h-105.342c-9.931.344-9.924 14.659 0 15z"/><path d="m146.973 418.892h-112c-9.931.344-9.923 14.659 0 15h112c9.93-.345 9.923-14.66 0-15z"/></g></g></svg>