<svg id="Layer_1" enable-background="new 0 0 512 512" height="512" viewBox="0 0 512 512" width="512" xmlns="http://www.w3.org/2000/svg"><g><path d="m363 504.5h-214c-22.091 0-40-17.909-40-40v-417c0-22.091 17.909-40 40-40h214c22.091 0 40 17.909 40 40v417c0 22.091-17.909 40-40 40z" fill="#7b727b"/><path d="m363 7.5h-30c22.091 0 40 17.909 40 40v417c0 22.091-17.909 40-40 40h30c22.091 0 40-17.909 40-40v-417c0-22.091-17.909-40-40-40z" fill="#686169"/><path d="m377 47.5v417c0 7.732-6.268 14-14 14h-214c-7.732 0-14-6.268-14-14v-417c0-7.732 6.268-14 14-14h40.104c2.331 0 4.405 1.48 5.164 3.684l5.284 15.353c.759 2.204 2.833 3.684 5.164 3.684h102.568c2.331 0 4.405-1.48 5.164-3.684l5.284-15.353c.759-2.204 2.833-3.684 5.164-3.684h40.104c7.732 0 14 6.268 14 14z" fill="#d6faec"/><g><path d="m363 33.5h-30c7.732 0 14 6.268 14 14v417c0 7.732-6.268 14-14 14h30c7.732 0 14-6.268 14-14v-417c0-7.732-6.268-14-14-14z" fill="#ccfae8"/></g><path d="m321.84 263.089h-131.68c-8.842 0-16.01-7.168-16.01-16.01v-11.273c0-1.773 1.437-3.21 3.21-3.21h157.28c1.773 0 3.21 1.437 3.21 3.21v11.273c0 8.842-7.168 16.01-16.01 16.01z" fill="#e0925b"/><path d="m334.64 232.596h-30c1.773 0 3.21 1.437 3.21 3.21v11.273c0 8.842-7.168 16.01-16.01 16.01h30c8.842 0 16.01-7.168 16.01-16.01v-11.273c0-1.773-1.438-3.21-3.21-3.21z" fill="#d48145"/><path d="m334.644 204.596h-157.288c-1.814 0-3.266-1.497-3.209-3.31.444-14.159 7.001-68.91 81.852-68.91s81.408 54.752 81.852 68.91c.058 1.814-1.393 3.31-3.207 3.31z" fill="#e0925b"/><path d="m256 132.376c-5.344 0-10.329.288-15 .811 60.745 6.809 66.44 54.951 66.852 68.099.057 1.813-1.395 3.31-3.209 3.31h30c1.814 0 3.266-1.497 3.209-3.31-.444-14.158-7-68.91-81.852-68.91z" fill="#d48145"/><path d="m333.479 232.596h-154.958c-7.732 0-14-6.268-14-14 0-7.732 6.268-14 14-14h154.958c7.732 0 14 6.268 14 14 0 7.732-6.268 14-14 14z" fill="#e07f5d"/><path d="m333.479 204.596h-30c7.732 0 14 6.268 14 14s-6.268 14-14 14h30c7.732 0 14-6.268 14-14s-6.268-14-14-14z" fill="#d06d4a"/><path d="m317 410.249h-122c-5.523 0-10-4.477-10-10v-50c0-5.523 4.477-10 10-10h122c5.523 0 10 4.477 10 10v50c0 5.523-4.477 10-10 10z" fill="#2fd9e7"/><g><path d="m363 0h-214c-26.191 0-47.5 21.309-47.5 47.5v21.731c.344 9.931 14.659 9.923 15 0v-21.731c0-17.92 14.58-32.5 32.5-32.5h214c17.921 0 32.5 14.58 32.5 32.5v417c0 17.92-14.579 32.5-32.5 32.5h-214c-17.92 0-32.5-14.58-32.5-32.5v-359.577c-.344-9.931-14.659-9.923-15 0v359.577c0 26.191 21.309 47.5 47.5 47.5h214c26.191 0 47.5-21.309 47.5-47.5v-417c0-26.191-21.309-47.5-47.5-47.5z"/><path d="m377 427.5c4.143 0 7.5-3.358 7.5-7.5v-372.5c0-11.855-9.645-21.5-21.5-21.5h-40.104c-5.533 0-10.458 3.515-12.256 8.743l-4.811 13.978h-99.66l-4.811-13.978c-1.8-5.229-6.725-8.743-12.256-8.743h-40.102c-11.855 0-21.5 9.645-21.5 21.5v417c0 11.855 9.645 21.5 21.5 21.5h214c11.855 0 21.5-9.645 21.5-21.5v-9.115c-.344-9.931-14.66-9.923-15 0v9.115c0 3.584-2.916 6.5-6.5 6.5h-214c-3.584 0-6.5-2.916-6.5-6.5v-417c0-3.584 2.916-6.5 6.5-6.5h38.649l4.811 13.977c1.799 5.23 6.724 8.744 12.255 8.744h102.568c5.53 0 10.455-3.514 12.256-8.743l4.812-13.978h38.649c3.584 0 6.5 2.916 6.5 6.5v372.5c0 4.142 3.357 7.5 7.5 7.5z"/><path d="m345.35 247.08v-10.574c12.777-8.307 12.762-27.539-.017-35.828-.292-8.048-2.148-23.41-11.121-38.49-2.117-3.56-6.722-4.728-10.28-2.61-3.56 2.118-4.729 6.721-2.61 10.28 6.019 10.114 8.055 20.65 8.731 27.24h-148.117c1.77-17.831 12.665-57.22 74.064-57.22 17.103 0 31.571 3.032 43.004 9.013 3.671 1.921 8.203.501 10.122-3.169 1.92-3.67.501-8.202-3.169-10.122-36.822-19.406-103.124-13.11-124.887 21.562-12.115 16.945-14.121 35.81-14.405 43.518-12.783 8.296-12.785 27.527-.014 35.827v10.574c0 12.963 10.546 23.51 23.51 23.51h131.68c12.962-.002 23.509-10.548 23.509-23.511zm-11.871-34.984c8.605.306 8.599 12.697 0 13h-154.958c-8.605-.306-8.599-12.697 0-13zm-3.129 34.984c0 4.692-3.817 8.51-8.51 8.51h-131.68c-4.692 0-8.51-3.817-8.51-8.51v-6.983h148.7z"/><path d="m195 332.749c-9.649 0-17.5 7.851-17.5 17.5v50c0 9.649 7.851 17.5 17.5 17.5h122c9.649 0 17.5-7.851 17.5-17.5v-50c0-9.649-7.851-17.5-17.5-17.5zm124.5 17.5v50c0 1.378-1.121 2.5-2.5 2.5h-122c-1.378 0-2.5-1.122-2.5-2.5v-50c0-1.378 1.122-2.5 2.5-2.5h122c1.379 0 2.5 1.121 2.5 2.5z"/><path d="m261.325 354.848c-2.983-2.874-7.73-2.787-10.605.196-2.874 2.982-2.787 7.73.196 10.605l2.178 2.1h-14.248c-9.931.344-9.923 14.659 0 15h15.607l-2.224 2.389c-2.822 3.032-2.653 7.777.378 10.6 3.025 2.818 7.772 2.657 10.6-.378l13.966-15c2.788-2.995 2.661-7.671-.284-10.511z"/></g></g></svg>