<svg id="Layer_1" enable-background="new 0 0 511.77 511.77" height="512" viewBox="0 0 511.77 511.77" width="512" xmlns="http://www.w3.org/2000/svg"><g><path d="m392.885 209.923h-274v-43.769c0-11.173 9.058-20.231 20.231-20.231h233.538c11.173 0 20.231 9.058 20.231 20.231z" fill="#2fd9e7"/><path d="m372.654 145.923h-30c11.173 0 20.231 9.058 20.231 20.231v43.769h30v-43.769c0-11.173-9.058-20.231-20.231-20.231z" fill="#00d0e4"/><path d="m417.885 474.27h-324v-68c0-3.314 2.686-6 6-6h312c3.314 0 6 2.686 6 6z" fill="#2fd9e7"/><path d="m387.885 400.27v74h30v-68c0-3.314-2.686-6-6-6z" fill="#00d0e4"/><g fill="#e0925b"><path d="m106.885 272.27h30v128h-30z"/><path d="m374.885 272.27h30v128h-30z"/></g><path d="m175.013 336.27h60v64h-60z" fill="#ffe589"/><path d="m489.385 504.27h-467c-8.284 0-15-6.716-15-15 0-8.284 6.716-15 15-15h467c8.284 0 15 6.716 15 15 0 8.284-6.716 15-15 15z" fill="#e0925b"/><path d="m489.385 474.27h-30c8.284 0 15 6.716 15 15s-6.716 15-15 15h30c8.284 0 15-6.716 15-15 0-8.285-6.716-15-15-15z" fill="#d48145"/><path d="m119.885 289.77c-18.778 0-34-15.222-34-34v-50c0-11.046 8.954-20 20-20h48v70c0 18.777-15.222 34-34 34z" fill="#ff6167"/><path d="m123.885 185.77v70c0 13.393-7.746 24.972-19 30.514 4.525 2.229 9.615 3.486 15 3.486 18.778 0 34-15.222 34-34v-70z" fill="#fe454a"/><path d="m187.885 289.77c-18.778 0-34-15.222-34-34v-70h68v70c0 18.777-15.222 34-34 34z" fill="#f8f7f7"/><path d="m191.885 185.77v70c0 13.393-7.746 24.972-19 30.514 4.525 2.229 9.615 3.486 15 3.486 18.778 0 34-15.222 34-34v-70z" fill="#efefef"/><path d="m255.885 289.77c-18.778 0-34-15.222-34-34v-70h68v70c0 18.777-15.222 34-34 34z" fill="#ff6167"/><path d="m259.885 185.77v70c0 13.393-7.746 24.972-19 30.514 4.525 2.229 9.615 3.486 15 3.486 18.778 0 34-15.222 34-34v-70z" fill="#fe454a"/><path d="m323.885 289.77c-18.778 0-34-15.222-34-34v-70h68v70c0 18.777-15.222 34-34 34z" fill="#f8f7f7"/><path d="m327.885 185.77v70c0 13.393-7.746 24.972-19 30.514 4.525 2.229 9.615 3.486 15 3.486 18.778 0 34-15.222 34-34v-70z" fill="#efefef"/><path d="m391.885 289.77c-18.778 0-34-15.222-34-34v-70h48c11.046 0 20 8.954 20 20v50c0 18.777-15.222 34-34 34z" fill="#ff6167"/><path d="m405.885 185.77h-30c11.046 0 20 8.954 20 20v50c0 13.393-7.746 24.972-19 30.514 4.525 2.229 9.615 3.486 15 3.486 18.778 0 34-15.222 34-34v-50c0-11.046-8.955-20-20-20z" fill="#fe454a"/><g><path d="m194.436 41.981c31.753-36.023 91.149-36.019 122.898 0 2.793 3.073 7.538 3.286 10.595.507 3.065-2.786 3.292-7.529.507-10.594-37.486-42.528-107.62-42.522-145.102 0-2.785 3.065-2.559 7.809.507 10.594 3.067 2.786 7.807 2.558 10.595-.507z"/><path d="m292.659 64.405c1.479 1.628 3.512 2.456 5.552 2.456 6.347.11 9.957-7.84 5.548-12.545-12.242-13.47-29.691-21.195-47.874-21.195s-35.632 7.726-47.874 21.195c-2.786 3.065-2.56 7.809.506 10.595 3.065 2.786 7.81 2.559 10.594-.506 19.009-21.558 54.541-21.555 73.548 0z"/><path d="m255.885 65.704c-9.038 0-17.7 3.837-23.766 10.528-2.782 3.069-2.55 7.812.52 10.594 3.067 2.782 7.811 2.549 10.594-.52 6.418-7.399 18.887-7.399 25.305 0 2.789 3.076 7.534 3.295 10.594.52 3.069-2.782 3.302-7.525.52-10.594-6.067-6.69-14.729-10.528-23.767-10.528z"/><path d="m489.385 466.77h-64v-60.5c0-7.275-5.788-13.209-13-13.475v-100.965c12.529-7.151 21-20.631 21-36.061v-50c0-15.164-12.337-27.5-27.5-27.5h-5.5v-12.115c0-15.291-12.439-27.731-27.73-27.731h-18.385c-9.931.344-9.923 14.66 0 15h18.385c7.02 0 12.73 5.711 12.73 12.731v12.115h-259v-12.115c0-7.02 5.711-12.731 12.73-12.731h179.667c9.931-.344 9.923-14.66 0-15h-55.397v-25.179c-.344-9.931-14.66-9.923-15 0v25.179h-109.27c-15.291 0-27.73 12.44-27.73 27.731v12.115h-5.5c-15.163 0-27.5 12.336-27.5 27.5v50c0 15.43 8.471 28.91 21 36.061v13.016c.344 9.931 14.66 9.923 15 0v-7.953c4.924.688 10.232.409 15-.734v96.61h-15v-52.846c-.344-9.931-14.66-9.923-15 0v52.872c-7.212.266-13 6.2-13 13.475v60.5h-64c-29.857 1.24-29.834 43.772 0 45h367.5c9.931-.344 9.923-14.66 0-15h-367.5c-9.929-.353-9.922-14.65 0-15h467c9.929.353 9.922 14.65 0 15h-64.552c-9.931.344-9.923 14.66 0 15h64.552c29.856-1.24 29.833-43.772 0-45zm-92-74h-15v-96.61c4.768 1.144 10.077 1.423 15 .734zm21-187v50c-1.46 35.165-51.554 35.137-53 0v-62.5h40.5c6.892 0 12.5 5.607 12.5 12.5zm-68 50c-1.46 35.165-51.554 35.137-53 0v-62.5h53zm-68 0c-1.46 35.165-51.554 35.137-53 0v-62.5h53zm-68 0c-1.46 35.165-51.554 35.137-53 0v-62.5h53zm-121 0v-50c0-6.893 5.607-12.5 12.5-12.5h40.5v62.5c-1.46 35.164-51.554 35.137-53 0zm51 33.468c3.673-2.696 6.884-5.982 9.5-9.715 16.088 23.534 51.921 23.523 68 0 16.088 23.534 51.921 23.523 68 0 16.088 23.534 51.921 23.523 68 0 2.616 3.734 5.827 7.019 9.5 9.715v103.532h-124.872v-56.5c0-4.142-3.357-7.5-7.5-7.5h-60c-4.143 0-7.5 3.358-7.5 7.5v56.5h-23.128zm83.128 103.532h-45v-49h45zm-126.128 74v-59h309v59z"/></g></g></svg>