<svg id="Layer_1" enable-background="new 0 0 512 512" height="512" viewBox="0 0 512 512" width="512" xmlns="http://www.w3.org/2000/svg"><g><path d="m132.09 185.671h-109.18c-8.511 0-15.41-6.899-15.41-15.41v-14.667c0-3.271 2.652-5.923 5.923-5.923h128.154c3.271 0 5.923 2.652 5.923 5.923v14.667c0 8.511-6.899 15.41-15.41 15.41z" fill="#ff6167"/><path d="m141.577 149.671h-30c3.271 0 5.923 2.652 5.923 5.923v14.667c0 8.511-6.899 15.41-15.41 15.41h30c8.511 0 15.41-6.899 15.41-15.41v-14.667c0-3.271-2.652-5.923-5.923-5.923z" fill="#fe454a"/><path d="m126.719 121.601h-98.438v-6.105c0-27.183 22.036-49.219 49.219-49.219s49.219 22.036 49.219 49.219z" fill="#cfdbe4"/><path d="m77.5 66.277c-5.232 0-10.27.826-15 2.342 19.846 6.361 34.219 24.995 34.219 47.001v5.981h30v-5.981c0-27.251-22.036-49.343-49.219-49.343z" fill="#afbbc6"/><path d="m122.829 149.671h-90.658c-2.873 0-5.454-2.323-6.504-5.855l-6.607-22.215h116.88l-6.607 22.215c-1.05 3.532-3.631 5.855-6.504 5.855z" fill="#7b727b"/><path d="m105.94 121.601-6.607 22.215c-1.051 3.532-3.631 5.855-6.504 5.855h30c2.873 0 5.454-2.323 6.504-5.855l6.607-22.215z" fill="#686169"/><path d="m23.258 357.248v27.416c0 3.317 2.686 6.007 6 6.007h369.827s20.491-33.295 20.491-79.063-20.491-85.357-20.491-85.357h-35.488v114.381s-53.334 1.739-65.061 1.739c-15.725 0-52.464-12.762-52.464-28.505v-29.852c0-15.193-12.302-27.508-27.477-27.508h-94.657c-55.604-.001-100.68 45.103-100.68 100.742z" fill="#ff6167"/><path d="m399.085 226.251h-16.974s7.466 39.59 7.466 85.357-20.491 79.063-20.491 79.063h30s20.491-33.296 20.491-79.063-20.492-85.357-20.492-85.357z" fill="#fe454a"/><path d="m216.072 284.014v29.852c0 15.743 12.748 28.505 28.473 28.505 4.246 0 37.94-.228 48.589-.519-13.141-2.528-47.062-14.093-47.062-27.986v-29.852c0-15.193-12.302-27.508-27.477-27.508h-30c15.175-.001 27.477 12.315 27.477 27.508z" fill="#fe454a"/><circle cx="123.06" cy="392.671" fill="#7b727b" r="65"/><circle cx="416.957" cy="392.671" fill="#7b727b" r="65"/><circle cx="416.957" cy="392.671" fill="#efefef" r="22.26"/><ellipse cx="123.06" cy="392.671" fill="#efefef" rx="22.26" ry="22.26" transform="matrix(.071 -.998 .998 .071 -277.347 487.585)"/><path d="m39.527 390.671h167.066c2.278 0 4.112-1.903 4.006-4.18-2.18-46.494-40.54-83.521-87.539-83.521s-85.358 37.027-87.538 83.521c-.107 2.278 1.727 4.18 4.005 4.18z" fill="#2fd9e7"/><path d="m123.06 302.971c-5.117 0-10.123.464-15 1.306 39.914 6.894 70.596 40.783 72.539 82.215.107 2.277-1.728 4.18-4.006 4.18h30c2.278 0 4.112-1.903 4.006-4.18-2.181-46.494-40.54-83.521-87.539-83.521z" fill="#00d0e4"/><path d="m87.562 390.644h70.996c0-19.607-15.891-35.498-35.498-35.498s-35.498 15.891-35.498 35.498z" fill="#ffe589"/><path d="m91.766 256.657h136.499c11.243 0 20.357-9.114 20.357-20.357 0-5.338-4.327-9.665-9.665-9.665h-147.191c-8.29 0-15.011 6.721-15.011 15.011s6.721 15.011 15.011 15.011z" fill="#7b727b"/><path d="m238.958 226.635h-30c5.338 0 9.665 4.327 9.665 9.665 0 11.243-9.114 20.357-20.357 20.357h30c11.243 0 20.357-9.114 20.357-20.357 0-5.338-4.327-9.665-9.665-9.665z" fill="#686169"/><path d="m333.508 390.671h166.984c2.277 0 4.11-1.903 4.004-4.18-2.179-46.494-40.52-83.521-87.496-83.521s-85.317 37.027-87.496 83.521c-.106 2.278 1.728 4.18 4.004 4.18z" fill="#2fd9e7"/><path d="m417 302.971c-5.117 0-10.124.464-15 1.307 39.891 6.897 70.554 40.784 72.496 82.213.107 2.277-1.727 4.18-4.004 4.18h30c2.277 0 4.11-1.903 4.004-4.18-2.179-46.493-40.52-83.52-87.496-83.52z" fill="#00d0e4"/><path d="m381.52 390.644h70.961c0-19.607-15.883-35.498-35.48-35.498s-35.481 15.891-35.481 35.498z" fill="#ffe589"/><path d="m362.44 226.251h81.07c5.181 0 9.381-4.2 9.381-9.381v-22.672c0-5.181-4.2-9.381-9.381-9.381h-52.177c-15.957 0-28.893 12.936-28.893 28.893z" fill="#2fd9e7"/><path d="m419.576 226.251h23.936c5.18 0 9.379-4.199 9.379-9.379v-22.672c0-5.182-4.201-9.383-9.383-9.383h-23.932z" fill="#ffe589"/><circle cx="339.008" cy="130.817" fill="#2fd9e7" r="20"/><g><path d="m501.273 346.528c-1.922-3.67-6.457-5.086-10.124-3.165-3.669 1.921-5.086 6.454-3.165 10.123 4.866 9.292 7.809 19.262 8.766 29.685h-37.432c-9.258-47.128-75.396-47.094-84.635 0h-37.432c5.379-63.393 81.582-95.248 130.59-54.473 3.199 2.634 7.925 2.177 10.558-1.021 2.634-3.197 2.177-7.924-1.021-10.557-14.539-11.974-32.385-19.317-51.041-21.169-2.434-26.528-10.354-49.38-15.64-62.201h32.815c9.308 0 16.88-7.572 16.88-16.879v-22.674c0-9.308-7.572-16.881-16.881-16.881h-45.556l-1.974-15.812c-1.836-14.696-11.388-27.553-24.929-33.554l-5.023-2.226c-2.396-12.738-13.597-22.407-27.02-22.407-36.483 1.511-36.471 53.495 0 55 11.413 0 21.222-6.99 25.378-16.913l.588.261c8.757 3.881 14.935 12.195 16.121 21.699l1.865 14.937c-16.043 3.793-28.021 18.224-28.021 35.41v5.041h-17.785c-9.931.344-9.923 14.66 0 15h18.941v10.215c.344 9.931 14.66 9.923 15 0v-10.215h23.243c4.185 9.28 13.987 33.451 16.9 61.898-14.483.863-28.107 4.951-40.144 11.583v-27.368c-.344-9.931-14.66-9.923-15 0v37.617c-5.777 4.816-10.972 10.311-15.468 16.364-15.861.477-35.569 1.026-42.092 1.026-6.178 0-18.115-2.63-28.98-7.656-10.982-5.081-15.984-10.481-15.984-13.35v-29.852c0-9.513-3.815-18.146-9.989-24.462 7.548-4.989 12.54-13.546 12.54-23.252 0-9.464-7.7-17.165-17.165-17.165h-142.75l-14.234-25.964h50.118c12.633 0 22.91-10.277 22.91-22.91v-14.667c0-7.401-6.021-13.423-13.423-13.423h-3.931l3.888-13.07h4.244c9.931-.344 9.923-14.66 0-15h-11.594c-.684-28.102-21.896-51.19-49.185-54.813v-4.617c-.344-9.931-14.66-9.923-15 0v4.617c-27.289 3.623-48.5 26.711-49.184 54.813h-11.594c-9.931.344-9.923 14.66 0 15h4.244l3.888 13.07h-3.931c-7.402 0-13.423 6.022-13.423 13.423v14.667c0 12.633 10.277 22.91 22.91 22.91h41.957l15.834 28.883c-13.816 7.643-15.416 27.529-2.885 37.24-6.734 3.187-13.175 7.088-19.236 11.692-3.298 2.505-3.94 7.21-1.436 10.509 2.506 3.298 7.21 3.941 10.51 1.436 14.944-11.352 32.552-17.781 51.196-18.773h102.1c9.908 1.173 17.623 9.623 17.623 19.856v29.852c-1.1 20.954 41.762 36.274 59.964 36.005 5.392 0 19.296-.357 32.837-.747-5.03 10.406-8.228 21.89-9.17 34.048h-104.303c-10.186-107.432-159.73-119.059-187.143-15.711v-10.213c0-18.107 5.19-35.664 15.011-50.771 2.258-3.473 1.272-8.118-2.2-10.375s-8.118-1.272-10.376 2.201c-11.406 17.546-17.435 37.929-17.435 58.946v27.417c0 7.448 6.056 13.507 13.5 13.507h21.532c9.365 88.836 135.209 88.77 144.54 0h149.36c9.365 88.836 135.209 88.77 144.54 0h11.262c3.131 0 6.168-1.3 8.33-3.568 2.158-2.262 3.312-5.348 3.165-8.462-.653-13.956-4.258-27.284-10.714-39.615zm-162.264-203.211c-6.893 0-12.5-5.607-12.5-12.5.687-16.583 24.316-16.578 25 0 0 6.893-5.607 12.5-12.5 12.5zm104.5 49c1.038 0 1.883.845 1.883 1.883v22.67c0 1.037-.844 1.881-1.881 1.881h-16.435v-26.434zm-73.568 26.434v-5.041c0-11.791 9.589-21.384 21.378-21.392.007.001.014-.001.021-.001h20.737v26.434zm-292.441-144.974c22.538 0 40.959 17.962 41.696 40.324h-83.392c.737-22.362 19.158-40.324 41.696-40.324zm-44.645 67.901-3.74-12.577h96.77l-3.74 12.577c-.061.203-.128.367-.191.494h-88.907c-.064-.127-.131-.292-.192-.494zm-17.855 28.583v-13.09h125v13.09c0 4.362-3.549 7.91-7.91 7.91h-109.18c-4.361 0-7.91-3.548-7.91-7.91zm76.766 78.896c-9.938-.353-9.939-14.661-.009-15.022.013.002.026 0 .04 0h147.162c1.193 0 2.165.971 2.165 2.165 0 7.09-5.768 12.857-12.857 12.857zm31.294 201.014c-29.85 0-54.452-22.866-57.231-52h27.989c6.666 32.185 51.832 32.161 58.484 0h27.988c-2.778 29.135-27.38 52-57.23 52zm13.686-52c-4.985 12.287-22.394 12.28-27.373 0zm-40.665-15.027c7.788-27.167 46.18-27.149 53.957 0zm69.313.027c-9.26-47.128-75.428-47.094-84.669 0h-37.456c11.406-96.441 148.211-96.372 159.583 0zm265.252 15c-4.984 12.288-22.393 12.28-27.372 0zm-13.646-35.525c12.833 0 23.677 8.69 26.961 20.498h-53.922c3.284-11.808 14.128-20.498 26.961-20.498zm-.04 87.525c-29.85 0-54.452-22.866-57.231-52h27.989c6.666 32.184 51.831 32.161 58.483 0h27.989c-2.777 29.135-27.379 52-57.23 52z"/></g></g></svg>