<svg id="Layer_1" enable-background="new 0 0 511.589 511.589" height="512" viewBox="0 0 511.589 511.589" width="512" xmlns="http://www.w3.org/2000/svg"><g><path d="m79.5 291.792c-39.76 0-72 32.24-72 72s32.24 72 72 72 72-32.24 72-72-32.24-72-72-72zm0 117c-24.85 0-45-20.15-45-45s20.15-45 45-45 45 20.15 45 45-20.15 45-45 45z" fill="#7a6d79"/><path d="m432.5 291.792c-39.76 0-72 32.24-72 72s32.24 72 72 72 72-32.24 72-72-32.24-72-72-72zm0 117c-24.85 0-45-20.15-45-45s20.15-45 45-45 45 20.15 45 45-20.15 45-45 45z" fill="#7a6d79"/><path d="m132.09 230.1h-109.18c-8.511 0-15.41-6.899-15.41-15.41v-14.667c0-3.271 2.652-5.923 5.923-5.923h128.154c3.271 0 5.923 2.652 5.923 5.923v14.667c0 8.51-6.899 15.41-15.41 15.41z" fill="#ff6167"/><path d="m141.577 194.1h-30c3.271 0 5.923 2.652 5.923 5.923v14.667c0 8.511-6.899 15.41-15.41 15.41h30c8.511 0 15.41-6.899 15.41-15.41v-14.667c0-3.272-2.652-5.923-5.923-5.923z" fill="#fe454a"/><path d="m126.719 166.1h-98.438v-5.966c0-27.183 22.036-49.219 49.219-49.219 27.183 0 49.219 22.036 49.219 49.219z" fill="#cfdbe4"/><path d="m77.5 110.914c-5.232 0-10.27.824-15 2.336 19.846 6.345 34.219 24.932 34.219 46.883v5.966h30v-5.966c0-27.182-22.036-49.219-49.219-49.219z" fill="#afbbc6"/><path d="m122.829 194.1h-90.658c-2.873 0-5.454-2.317-6.504-5.841l-6.607-22.159h116.88l-6.607 22.159c-1.05 3.523-3.631 5.841-6.504 5.841z" fill="#7b727b"/><path d="m105.94 166.1-6.607 22.159c-1.051 3.523-3.631 5.841-6.504 5.841h30c2.873 0 5.454-2.317 6.504-5.841l6.607-22.159z" fill="#686169"/><path d="m166.127 136.797c0 12.698 10.26 22.995 22.914 22.995 6.478 0 12.331-2.696 16.498-7.032 5.237-5.448 12.428-8.565 19.971-8.565h17.023c8.333 0 15.591-6.835 15.593-15.197.001-4.208-1.696-7.999-4.443-10.757-2.737-2.746-6.524-4.449-10.705-4.449h-53.938c-15.371 0-22.913 13.235-22.913 23.005z" fill="#ff6167"/><path d="m253.684 118.241c-2.737-2.746-6.524-4.449-10.705-4.449h-30c4.181 0 7.968 1.703 10.705 4.449 2.748 2.757 4.445 6.549 4.443 10.757-.002 8.362-7.261 15.197-15.594 15.197h-17.023c-7.544 0-14.734 3.117-19.971 8.565-.475.495-.975.965-1.493 1.415 4.02 3.496 9.259 5.617 14.995 5.617 6.478 0 12.331-2.696 16.498-7.032 5.237-5.448 12.428-8.565 19.971-8.565h17.023c8.333 0 15.591-6.835 15.593-15.197.002-4.208-1.695-8-4.442-10.757z" fill="#fe454a"/><circle cx="79.5" cy="363.792" fill="#7a6d79" r="18"/><circle cx="432.5" cy="363.792" fill="#7a6d79" r="18"/><g fill="#2fd9e7"><circle cx="274.627" cy="342.792" r="30"/><path d="m414.5 256.557c8.284 0 15-6.716 15-15v-18c0-8.284-6.716-15-15-15-8.284 0-15 6.716-15 15v18c0 8.285 6.716 15 15 15z"/><path d="m349.5 101.792h24c7.18 0 13-5.82 13-13 0-7.18-5.82-13-13-13h-24c-7.18 0-13 5.82-13 13 0 7.18 5.82 13 13 13z"/></g><path d="m432.5 284.292c-.977 0-1.951.021-2.923.056l-3.134-23.736c6.335-3.985 10.557-11.034 10.557-19.055v-18c0-9.208-5.562-17.137-13.5-20.616v-95.819c0-14.243-11.587-25.83-25.83-25.83h-5.11c-3.002-7.601-10.405-13-19.06-13h-24c-27.203 1.129-27.182 39.881 0 41h24c8.655 0 16.057-5.399 19.06-13h5.11c5.972 0 10.83 4.858 10.83 10.83v94.754c-9.502 2.633-16.5 11.352-16.5 21.681v1.475h-150.795l-24.947-71.027c2.854-1.487 6.028-2.309 9.253-2.309h17.023c12.515 0 23.09-10.393 23.094-22.695.255-12.181-10.457-22.961-22.648-22.708h-53.938c-18.786 0-30.414 15.834-30.414 30.505-.3 22.852 25.298 37.983 45.08 26.738l14.543 41.405h-63.251v-4.918c0-7.402-6.021-13.423-13.423-13.423h-3.922l3.876-13h4.248c9.931-.344 9.923-14.659 0-15h-11.598c-.193-7.312-1.743-14.399-4.652-21.083-4.279-8.968-17.401-3.25-13.754 5.985 2.083 4.787 3.23 9.859 3.417 15.098h-83.383c.688-29.435 33.067-49.192 59.594-36.161 9.115 3.956 15.259-8.973 6.445-13.545-5.368-2.555-11.013-4.204-16.848-4.971v-4.584c-.344-9.931-14.659-9.923-15 0v4.588c-27.244 3.617-48.43 26.635-49.18 54.674h-11.598c-9.931.344-9.923 14.659 0 15h4.248l3.877 13h-3.923c-7.403-.001-13.424 6.02-13.424 13.422v14.667c0 12.633 10.277 22.91 22.91 22.91h63.871l21.737 31.131c1.403 2.009 3.699 3.206 6.149 3.206h62.608l-42.012 35.262c-49.198-49.168-135.437-13.726-135.263 56.594 4.567 106.158 155.833 105.13 158.974-1.008l79.927-8.602c7.01 23.154 36.058 33.787 56.391 19.88l6.93 6.93c-9.806.549-9.643 14.665.174 14.991h34.461c9.931-.344 9.923-14.659 0-15h-13.432l-17.528-17.528c9.669-13.941 7.725-34.565-4.092-46.461l53.773-76.963h36.422v1.525c0 11.473 8.634 20.961 19.745 22.325l2.959 22.413c-10.193 2.327-19.839 6.653-28.485 12.853-3.366 2.414-4.138 7.1-1.724 10.466 2.415 3.366 7.1 4.138 10.466 1.724 6.617-4.746 13.961-8.134 21.718-10.086l1.587 12.018c-22.052 6.221-38.266 26.507-38.266 50.522 2.884 69.649 102.127 69.628 105 0 0-28.735-23.209-52.14-51.864-52.483l-1.584-11.998c86.228 2.415 87.134 125.27.948 128.982-47.17.58-79.289-51.273-57.78-93.196 1.846-3.708.336-8.21-3.372-10.057-3.708-1.845-8.211-.335-10.057 3.372-26.519 51.682 13.059 115.595 71.21 114.88 105.461-4.364 105.441-154.648-.001-159zm-59-190h-24c-7.271-.232-7.265-10.77 0-11h24c7.271.232 7.265 10.77 0 11zm-184.459 58c-8.5 0-15.414-6.951-15.414-15.495 0-4.857 3.881-15.505 15.414-15.505h53.938c2.036 0 3.951.796 5.393 2.243 4.974 4.867 1.066 13.153-5.838 13.16h-17.024c-9.49 0-18.74 3.961-25.379 10.868-2.931 3.05-6.869 4.729-11.09 4.729zm-156.187 33.824-3.732-12.516h96.756l-3.732 12.517c-.059.198-.125.358-.187.483h-88.917c-.063-.125-.128-.286-.188-.484zm-17.854 28.573v-13.089h125v13.09c0 4.362-3.548 7.91-7.91 7.91h-109.18c-4.362 0-7.91-3.549-7.91-7.911zm178.778 42.247h-75.199l-13.502-19.336h27.013c10.826 0 19.915-7.55 22.296-17.659h69.133l3.576 10.182-32.079 26.924c-.403-.067-.815-.111-1.238-.111zm-63.413 93.841c-1.34-5.236-3.476-10.154-6.26-14.63l9.262-7.774c4.187 6.347 7.276 13.473 9.014 21.11zm-40.365 13.015c0 5.79-4.71 10.5-10.5 10.5-13.93-.577-13.926-20.425 0-21 5.79 0 10.5 4.71 10.5 10.5zm13.19-10.09 9.271-7.781c1.118 2.053 2.044 4.224 2.767 6.486zm-23.69 74.59c-35.565 0-64.5-28.935-64.5-64.5-.167-56.35 68.438-85.461 108.712-46.898l-9.257 7.77c-13.741-12.809-36.288-17.162-54.232-9.717-3.853 1.522-5.742 5.878-4.22 9.731s5.879 5.74 9.731 4.22c12.098-5.002 27.289-2.55 37.07 5.545l-9.467 7.946c-16.544-11.009-39.532 1.399-39.337 21.403.887 30.931 43.939 34.797 50.531 4.852l12.298-1.323c-1.785 19.028-17.842 33.971-37.329 33.971-26.605.415-45.411-28.472-34.331-52.613 1.671-3.79-.046-8.217-3.835-9.889-3.789-1.67-8.217.046-9.889 3.835-15.462 33.998 10.672 74.099 48.056 73.667 28.31 0 51.445-22.528 52.451-50.598l12.033-1.295c-.329 35.285-29.123 63.893-64.485 63.893zm65.413-109.609 87.502-73.443 22.969 65.38c-9.976 5.989-16.947 16.483-18.086 28.649l-79.902 8.599c-2.175-10.656-6.5-20.535-12.483-29.185zm135.017 18.806c-2.929-2.929-7.678-2.929-10.606 0-2.929 2.929-2.929 7.678 0 10.606l14.998 14.998c-14.458 7.246-32.483-4.048-32.194-20.301 0-12.406 10.093-22.5 22.5-22.5 16.251-.286 27.55 17.736 20.301 32.195zm9.593-29.103c-5.999-2.654-13.271-3.711-19.988-2.739l-23.051-65.615h90.797zm117.477-66.828v-18c-.023-4.358 3.803-7.876 8.144-7.467.07.008.14.014.211.02 3.734.426 6.646 3.601 6.646 7.448v18c-.354 9.927-14.651 9.919-15.001-.001zm25.5 111.734c5.79 0 10.5 4.71 10.5 10.5-.577 13.93-20.425 13.926-21 0 0-5.79 4.71-10.5 10.5-10.5zm37.5 10.5c0 20.678-16.822 37.5-37.5 37.5-42.427-.819-51.628-58.677-12.244-72.937l1.619 12.265c-24.519 11.545-16.843 48.265 10.625 48.672 31.286-.933 34.705-44.659 4.246-50.64l-1.618-12.258c19.455 1.355 34.872 17.605 34.872 37.398z"/></g></svg>