<svg id="Layer_1" enable-background="new 0 0 512 512" height="512" viewBox="0 0 512 512" width="512" xmlns="http://www.w3.org/2000/svg"><g><path d="m50 92.5-42.253-81.66c-.768-1.535.349-3.34 2.065-3.34h492.376c1.716 0 2.833 1.805 2.065 3.34l-42.253 81.66z" fill="#e0925b"/><path d="m502.188 7.5h-30c1.716 0 2.833 1.805 2.065 3.34l-42.253 81.66h30l42.253-81.66c.768-1.535-.349-3.34-2.065-3.34z" fill="#d48145"/><path d="m50 92.5h412v412h-412z" fill="#d48145"/><path d="m432 92.5h30v412h-30z" fill="#bb723b"/><path d="m80 453.268v-309.536c0-11.726 9.506-21.232 21.232-21.232h309.536c11.726 0 21.232 9.506 21.232 21.232v309.536c0 11.726-9.506 21.232-21.232 21.232h-309.536c-11.726 0-21.232-9.506-21.232-21.232z" fill="#f8f7f7"/><circle cx="256" cy="298.5" fill="#e0925b" r="150"/><circle cx="256" cy="298.5" fill="#ffe589" r="120"/><path d="m256 178.5c-5.08 0-10.086.319-15 .932 59.194 7.382 105 57.874 105 119.068s-45.806 111.686-105 119.068c4.914.613 9.92.932 15 .932 66.274 0 120-53.726 120-120s-53.726-120-120-120z" fill="#ffcd55"/><path d="m246.683 224.064c2.358 10.036-4.896 15.703-14.932 18.06s-19.054.514-21.412-9.522 3.866-20.083 13.902-22.441c10.037-2.357 20.084 3.867 22.442 13.903z" fill="#d64239"/><path d="m324.068 249.598c-4.708 9.172-15.174 11.26-24.346 6.552s-13.575-14.43-8.867-23.602 15.96-12.79 25.131-8.082c9.172 4.709 12.79 15.96 8.082 25.132z" fill="#1fbd92"/><path d="m198.922 316.213c-6.302 8.159-17.031 8.378-25.19 2.076s-10.657-16.739-4.355-24.898 18.025-9.664 26.184-3.362c8.158 6.302 9.663 18.025 3.361 26.184z" fill="#1fbd92"/><path d="m272.314 372.634c-3.151 9.816-13.663 15.219-23.479 12.068s-15.219-13.663-12.068-23.479 14.137-9.063 23.953-5.912 14.745 7.507 11.594 17.323z" fill="#d64239"/><path d="m273.289 296.246c0 10.309-5.52 18.667-15.83 18.667-10.309 0-18.667-8.357-18.667-18.667 0-10.309 8.357-18.667 18.667-18.667s15.83 8.357 15.83 18.667z" fill="#d64239"/><path d="m325.11 340.894c-10.309 0-15.845-8.746-15.845-19.055s5.536-18.278 15.845-18.278 18.667 8.357 18.667 18.667c0 10.308-8.358 18.666-18.667 18.666z" fill="#1fbd92"/><g><path d="m101.235 482h309.529c15.842 0 28.731-12.889 28.731-28.732v-266.345c-.344-9.931-14.659-9.923-15 0v266.345c0 7.572-6.16 13.732-13.731 13.732h-309.529c-7.572 0-13.732-6.16-13.732-13.732v-309.536c0-7.572 6.16-13.732 13.732-13.732h309.529c7.571 0 13.731 6.16 13.731 13.732v9.14c.344 9.931 14.659 9.923 15 0v-9.14c0-15.843-12.888-28.732-28.731-28.732h-309.529c-15.842 0-28.731 12.889-28.731 28.732v309.536c0 15.843 12.889 28.732 28.731 28.732z"/><path d="m163.008 425.628c102.016 76.205 251.582.33 250.487-127.13.001-86.844-70.652-157.498-157.495-157.498-133.441-.435-206.742 158.763-119.787 259.763 2.692 3.15 7.425 3.52 10.574.83 3.149-2.691 3.52-7.425.83-10.574-78.666-91.378-12.339-235.428 108.384-235.018 78.572-.001 142.495 63.924 142.495 142.499.978 115.316-134.324 183.971-226.623 115.029-8.213-5.592-16.668 5.96-8.865 12.099z"/><path d="m256 426c70.302 0 127.497-57.196 127.497-127.5-7.004-169.146-248.016-169.097-254.994.001 0 70.303 57.195 127.499 127.497 127.499zm0-240c62.031 0 112.497 50.467 112.497 112.5-6.18 149.247-218.838 149.203-224.995-.001 0-62.032 50.467-112.499 112.498-112.499z"/><path d="m215.543 249.038c5.588 2.076 11.792 1.823 17.924.388 6.877-1.616 12.219-4.418 15.876-8.33 4.662-4.986 6.31-11.644 4.641-18.747-5.335-22.608-35.469-27.526-47.716-7.796-7.443 11.311-4.178 29.811 9.275 34.485zm3.476-26.585c1.571-2.536 4.035-4.308 6.938-4.99 2.879-.68 5.895-.199 8.435 1.378 3.689 1.921 7.176 9.036 3.995 12.01-1.553 1.661-4.519 3.072-8.35 3.972-3.831.901-7.115.958-9.246.162-4.176-1.252-4.219-9.164-1.772-12.532z"/><path d="m296.296 262.822c12.285 6.535 27.931 3.1 34.443-9.799 6.681-12.38 1.318-29.064-11.329-35.229-30.406-14.385-54.642 28.134-23.114 45.028zm1.23-26.848c2.824-5.53 9.667-7.622 15.034-4.835 2.653 1.362 4.618 3.676 5.531 6.516.913 2.839.665 5.865-.696 8.518-5.757 11.291-25.686 1.062-19.869-10.199z"/><path d="m204.858 320.797c20.083-28.359-19.075-58.575-41.416-31.99-19.377 25.851 20.624 57.585 41.416 31.99zm-26.54-8.444c-4.399-3.397-7.034-9.161-3.005-14.377 3.783-4.898 10.829-5.755 15.663-2.011 4.872 3.764 5.775 10.791 2.011 15.664-4.028 5.216-10.271 4.121-14.669.724z"/><path d="m263.011 348.17c-24.49-7.863-31.507 4.906-33.385 10.761-4.41 13.738 3.179 28.502 16.917 32.912 6.628 2.13 13.73 1.561 19.959-1.643 6.216-3.195 10.815-8.62 12.951-15.274 2.283-7.111 1.573-13.167-2.109-18-2.9-3.804-7.321-6.505-14.333-8.756zm2.161 22.172c-.912 2.84-2.875 5.155-5.527 6.519-2.654 1.363-5.679 1.612-8.518.701-5.863-1.882-9.101-8.183-7.22-14.045 1.953-4.994 10.758-2.136 14.52-1.063 4.916 1.578 6.487 2.912 6.986 3.567.668.873.237 2.832-.241 4.321z"/><path d="m231.293 296.246c0 14.428 11.738 26.167 26.166 26.167 31.078.213 31.073-52.55 0-52.333-14.428-.001-26.166 11.737-26.166 26.166zm26.166-11.167c7.518 0 8.33 7.809 8.33 11.167s-.812 11.167-8.33 11.167c-14.814-.614-14.809-21.723 0-22.334z"/><path d="m301.763 321.838c0 15.635 9.6 26.555 23.345 26.555 34.712-1.438 34.701-50.901 0-52.333-13.744.001-23.345 10.601-23.345 25.778zm34.511.389c0 6.157-5.009 11.167-11.166 11.167-7.943 0-8.346-9.625-8.346-11.555 0-4.025 1.084-10.778 8.346-10.778 6.158 0 11.166 5.009 11.166 11.166z"/><path d="m510.525 4.651c-1.801-2.912-4.92-4.651-8.344-4.651h-404.767c-9.93.344-9.923 14.659 0 15h396.238l-36.22 70h-402.864l-36.219-70h41.322c9.93-.344 9.923-14.659 0-15h-49.853c-3.425 0-6.544 1.739-8.344 4.651s-1.961 6.479-.43 9.542c.016.031.031.062.047.094l41.414 80.039v410.174c0 4.142 3.358 7.5 7.5 7.5h411.99c4.142 0 7.5-3.358 7.5-7.5v-410.174l41.414-80.039c.017-.032.032-.063.049-.095 1.529-3.063 1.368-6.63-.433-9.541zm-56.03 492.349h-396.991v-397h396.991z"/></g></g></svg>