<svg id="Layer_1" enable-background="new 0 0 512 512" height="512" viewBox="0 0 512 512" width="512" xmlns="http://www.w3.org/2000/svg"><g><g fill="#ffbead"><path d="m231.394 207.244c0 21.879-13.38 39.615-29.885 39.615s-26.093-20.369-26.093-42.248 9.588-36.983 26.093-36.983 29.885 17.737 29.885 39.616z"/><path d="m397.606 207.244c0 21.879 13.38 39.615 29.885 39.615s26.093-20.369 26.093-42.248-9.588-36.983-26.093-36.983-29.885 17.737-29.885 39.616z"/></g><path d="m447.894 504.5h-266.788c-9.171 0-16.606-7.435-16.606-16.606v-25.342c0-49.87 40.427-90.297 90.297-90.297h119.406c49.87 0 90.297 40.427 90.297 90.297v25.342c0 9.171-7.435 16.606-16.606 16.606z" fill="#ffe589"/><path d="m374.203 372.255h-30c49.87 0 90.297 40.427 90.297 90.297v25.342c0 9.171-7.435 16.606-16.606 16.606h30c9.171 0 16.606-7.435 16.606-16.606v-25.342c0-49.869-40.427-90.297-90.297-90.297z" fill="#ffd86e"/><path d="m284.5 310.112h60v97.564h-60z" fill="#ffd8ca"/><path d="m314.5 310.112h30v97.564h-30z" fill="#ffbead"/><path d="m284.5 348.747s-2.871 39.777 30 58.929c0 0-18.691 20.871-37.598 14.241-14.98-5.253-23.457-33.195-26.331-44.574-.725-2.869.428-5.878 2.877-7.539z" fill="#f5f2f4"/><path d="m344.5 348.747s2.871 39.777-30 58.929c0 0 18.691 20.871 37.598 14.241 14.98-5.253 23.457-33.195 26.331-44.574.725-2.869-.428-5.878-2.877-7.539z" fill="#f5f2f4"/><path d="m218.046 232.897v-65.633c0-53.27 43.184-96.454 96.454-96.454 53.27 0 96.454 43.184 96.454 96.454v65.27c0 53.371-43.265 96.636-96.636 96.636-53.17 0-96.272-43.103-96.272-96.273z" fill="#ffd8ca"/><path d="m314.5 70.81c-5.103 0-10.112.4-15 1.163 46.146 7.206 81.455 47.124 81.455 95.292v65.27c0 48.263-35.382 88.259-81.621 95.473 4.883.763 9.887 1.163 14.985 1.163 53.371 0 96.636-43.266 96.636-96.636v-65.27c0-53.271-43.184-96.455-96.455-96.455z" fill="#ffbead"/><path d="m314.5 53.531c-147.923 0-106.256 127.685-103.067 134.54 2.997 6.452 6.613 24.009 6.613 24.009s20.549-16.513 19.887-22.814c-1.059-10.069-6.89-71.924 18.55-66.093 25.431 5.831 35.904 10.069 57.167 10.069s31.735-4.238 57.167-10.069c25.44-5.831 19.61 56.023 18.55 66.093-.663 6.302 21.589 22.871 21.589 22.871s1.914-17.614 4.91-24.066c4.74-10.193 46.557-134.54-101.366-134.54z" fill="#7b727b"/><path d="m440.692 147.5h-252.384c-5.234 0-9.477-4.243-9.477-9.477v-6.212c0-7.904 6.407-14.311 14.311-14.311h242.714c7.904 0 14.311 6.407 14.311 14.311v6.212c.001 5.234-4.241 9.477-9.475 9.477z" fill="#f5f2f4"/><path d="m435.857 117.5h-30c7.904 0 14.311 6.407 14.311 14.311v6.212c0 5.234-4.243 9.477-9.477 9.477h30c5.234 0 9.477-4.243 9.477-9.477v-6.212c0-7.904-6.407-14.311-14.311-14.311z" fill="#e7e4e7"/><path d="m430.5 117.5h-232l4.327-39.246c4.441-40.271 38.469-70.754 78.985-70.754h65.376c40.516 0 74.544 30.483 78.985 70.754z" fill="#ff6167"/><path d="m426.173 78.254c-4.441-40.272-38.469-70.754-78.985-70.754h-30c40.516 0 74.544 30.482 78.985 70.754l4.327 39.246h30z" fill="#fe454a"/><path d="m344 90h-59c-9.113 0-16.5-7.387-16.5-16.5v-13c0-9.113 7.387-16.5 16.5-16.5h59c9.113 0 16.5 7.387 16.5 16.5v13c0 9.113-7.387 16.5-16.5 16.5z" fill="#ffe589"/><path d="m344 44h-30c9.113 0 16.5 7.387 16.5 16.5v13c0 9.113-7.387 16.5-16.5 16.5h30c9.113 0 16.5-7.387 16.5-16.5v-13c0-9.113-7.387-16.5-16.5-16.5z" fill="#ffd86e"/><path d="m196.853 385.77v115.373c0 1.854-1.512 3.357-3.377 3.357h-141.951c-1.865 0-3.377-1.503-3.377-3.357v-115.373c0-5.392.481-10.774 1.438-16.081l6-33.287h133.829l6 33.287c.956 5.308 1.438 10.689 1.438 16.081z" fill="#e49a6b"/><path d="m195.415 369.689-6-33.287h-30l6 33.287c.957 5.308 1.438 10.689 1.438 16.081v115.373c0 1.854-1.512 3.356-3.377 3.356h30c1.865 0 3.377-1.503 3.377-3.356v-115.373c0-5.392-.482-10.773-1.438-16.081z" fill="#e0925b"/><path d="m193.5 336.402h-142c-2.209 0-4-1.791-4-4v-22c0-2.209 1.791-4 4-4h142c2.209 0 4 1.791 4 4v22c0 2.209-1.791 4-4 4z" fill="#e0925b"/><path d="m193.5 306.402h-30c2.209 0 4 1.791 4 4v22c0 2.209-1.791 4-4 4h30c2.209 0 4-1.791 4-4v-22c0-2.209-1.791-4-4-4z" fill="#d48145"/><g><path d="m444.631 394.702c-16.792-17.422-39.07-27.852-63.047-29.637-.562-.532-1.169-1.025-1.822-1.468l-27.762-18.826v-15.161c11.459-4.447 22.135-10.916 31.483-19.229 3.096-2.752 3.374-7.493.621-10.589-2.752-3.095-7.493-3.374-10.588-.621-33.695 31.035-90.169 29.606-121.965-3.506-16.768-16.759-26.002-39.049-26.002-62.766v-17.273c20.843-17.402 20.096-24.681 19.839-27.141-.627-5.962-1.844-20.115-.983-33.486h138.483c.854 13.329-.355 27.511-.977 33.477-.266 2.503-1.038 9.916 21.538 27.381v16.672c0 14.4-3.511 28.703-10.153 41.36-1.924 3.667-.511 8.201 3.156 10.126 3.594 1.907 8.192.548 10.127-3.156 4.693-8.944 8.04-18.59 9.96-28.533 51.076 18.099 61.368-88.935 14.268-92.03.259-1.731.494-3.499.698-5.297h9.186c9.361 0 16.977-7.616 16.977-16.977v-6.212c0-11.568-9.052-21.056-20.444-21.764l-3.596-32.615c-4.867-44.142-42.028-77.431-86.44-77.431h-65.377c-15.629 0-30.971 4.206-44.367 12.162-3.562 2.115-4.733 6.717-2.618 10.278 2.115 3.562 6.717 4.734 10.278 2.619 11.081-6.58 23.774-10.059 36.708-10.059h65.377c36.751 0 67.502 27.547 71.529 64.076l3.41 30.924h-215.256l3.41-30.924c1.28-11.614 5.407-22.84 11.934-32.465 2.325-3.429 1.431-8.092-1.998-10.417-3.427-2.325-8.092-1.431-10.416 1.999-7.893 11.639-12.882 25.208-14.43 39.24l-3.596 32.615c-11.392.708-20.444 10.197-20.444 21.764v6.212c0 9.361 7.615 16.977 16.977 16.977h8.397c.164 1.847.359 3.647.578 5.399-46.033 4.121-35.448 110.008 15.083 91.958 3.831 20.31 13.646 38.991 28.578 53.915 10.428 10.433 22.687 18.371 36.055 23.515v14.985l-27.763 18.826c-.648.44-1.25.928-1.808 1.454-15.52 1.145-30.234 5.877-43.341 13.87-.248-3.542-.664-7.076-1.292-10.563l-4.592-25.474c4-1.802 6.796-5.818 6.796-10.483v-22c0-6.341-5.159-11.5-11.5-11.5h-142c-6.341 0-11.5 5.159-11.5 11.5v22c0 4.664 2.796 8.68 6.796 10.483l-4.592 25.475c-1.033 5.733-1.557 11.591-1.557 17.411v45.153c.344 9.931 14.66 9.923 15 0v-45.155c0-4.931.443-9.894 1.318-14.75l4.888-27.118h121.293l4.888 27.117c.875 4.858 1.318 9.821 1.318 14.751v7.526c0 .043-.001.086 0 .128v103.576h-133.705v-28.115c-.344-9.931-14.66-9.923-15 0v32.259c0 5.986 4.879 10.856 10.877 10.856h396.366c13.295 0 24.11-10.815 24.11-24.11v-25.34c0-25.441-9.72-49.537-27.369-67.848zm1.453-190.09c-.05 20.941-10.192 42.75-27.718 31.866.05-1.315.084-2.631.084-3.948v-19.96c.768-6.844 2.544-17.743 4.21-21.335 1.249-2.683 3.299-8.478 5.194-16.093 13.427.27 18.23 15.345 18.23 29.47zm-37.028-19.696c-1.496 3.228-2.699 8.234-3.603 13.061-4.207-3.759-7.469-7.162-8.513-9.01.784-7.864 1.721-21.039.972-33.966h18.492c-1.955 15.661-6.241 27.535-7.348 29.915zm-222.724-46.893v-6.212c0-3.756 3.056-6.812 6.811-6.812h242.715c3.755 0 6.811 3.056 6.811 6.812v6.212c0 1.09-.887 1.977-1.977 1.977h-252.383c-1.09 0-1.977-.887-1.977-1.977zm43.049 16.977c-.775 13.579.322 27.45.993 34.112-.904 1.819-3.932 5.248-7.865 9.045-1.266-4.884-2.794-10.058-4.274-13.242-.799-1.783-4.878-13.916-6.461-29.916h17.607zm-27.872 84.359c-21.487-.116-27.498-61.433-1.637-64.146 1.975 8.762 4.121 14.655 4.757 16.019 1.845 3.966 4.535 15.044 5.921 21.627v20.04c0 1.203.028 2.401.068 3.597-2.877 1.892-5.931 2.863-9.109 2.863zm149.766 123.044 19.8 13.426c-5.354 21.016-13.763 36.311-21.459 39.01-8.199 2.875-17.128-2.012-22.996-6.423 17.184-13.881 22.856-33.051 24.655-46.013zm-36.955-25.733c7.691 0 15.289-.862 22.68-2.509v19.799c-.448 9.532-3.638 31.426-22.503 44.784-18.845-13.308-22.065-34.859-22.509-44.539.002-.079.012-.156.012-.235v-19.697c7.25 1.581 14.721 2.397 22.32 2.397zm-11.941 71.746c-5.87 4.412-14.8 9.297-22.995 6.423-7.696-2.698-16.104-17.993-21.459-39.01l19.8-13.426c1.799 12.962 7.471 32.132 24.654 46.013zm-247.379-94.514h135v15h-.574c-.004 0-.007 0-.011 0h-133.83c-.004 0-.007 0-.011 0h-.574zm402 173.988c0 5.023-4.087 9.11-9.11 9.11h-243.537v-100.101c11.538-8.899 24.949-14.469 39.292-16.379 4.204 16.105 13.563 42.439 30.776 48.475 3.458 1.212 6.869 1.73 10.182 1.73 12.521-.002 23.57-7.415 29.897-12.747 8.403 7.537 25.556 16.673 40.08 11.017 17.216-6.036 26.576-32.378 30.778-48.48 40.754 5.421 71.642 40.051 71.642 82.035z"/><path d="m314.659 264.282c2.453 0 4.906-.39 7.895-1.17 4.008-1.047 6.408-5.144 5.362-9.152-1.047-4.007-5.146-6.407-9.151-5.362-3.492.912-4.72.912-8.21 0-9.697-2.181-13.305 11.678-3.791 14.513 2.988.781 5.441 1.171 7.895 1.171z"/><path d="m290.37 179.205c3.33 0 6.371-2.235 7.252-5.607 1.046-4.008-1.354-8.105-5.362-9.151-11.342-2.961-18.26-2.961-29.602 0-4.008 1.046-6.408 5.144-5.362 9.151 1.047 4.008 5.146 6.409 9.151 5.362 8.953-2.338 13.07-2.338 22.023 0 .635.165 1.273.245 1.9.245z"/><path d="m372.022 173.598c1.046-4.008-1.354-8.105-5.362-9.151-11.342-2.961-18.26-2.961-29.602 0-4.008 1.046-6.408 5.144-5.362 9.151 1.047 4.008 5.146 6.409 9.151 5.362 8.953-2.338 13.07-2.338 22.023 0 .635.166 1.272.245 1.899.245 3.332 0 6.373-2.235 7.253-5.607z"/><path d="m292.162 282.104c13.877 7.723 31.117 7.723 44.994 0 3.619-2.014 4.92-6.581 2.906-10.201-2.016-3.619-6.581-4.921-10.201-2.906-9.377 5.219-21.027 5.219-30.404 0-3.62-2.016-8.187-.713-10.201 2.906-2.014 3.62-.713 8.187 2.906 10.201z"/><path d="m265.159 212.632v6c.344 9.931 14.66 9.923 15 0v-6c-.344-9.93-14.659-9.923-15 0z"/><path d="m356.659 205.132c-4.143 0-7.5 3.358-7.5 7.5v6c.344 9.931 14.66 9.923 15 0v-6c0-4.142-3.357-7.5-7.5-7.5z"/><path d="m314.5 430c-4.143 0-7.5 3.358-7.5 7.5v4c.344 9.931 14.66 9.923 15 0v-4c0-4.142-3.357-7.5-7.5-7.5z"/><path d="m314.5 461.385c-4.143 0-7.5 3.358-7.5 7.5v4c.344 9.931 14.66 9.923 15 0v-4c0-4.142-3.357-7.5-7.5-7.5z"/><path d="m344 97.5c13.233 0 24-10.766 24-24v-13c0-13.234-10.767-24-24-24h-59c-13.233 0-24 10.766-24 24v13c0 13.234 10.767 24 24 24zm-68-24v-13c0-4.962 4.037-9 9-9h59c4.963 0 9 4.038 9 9v13c0 4.962-4.037 9-9 9h-59c-4.963 0-9-4.038-9-9z"/></g></g></svg>