<svg id="Layer_1" enable-background="new 0 0 512 512" height="512" viewBox="0 0 512 512" width="512" xmlns="http://www.w3.org/2000/svg"><g><path d="m295.075 269.5h-12c-4.418 0-8-3.582-8-8v-246c0-4.418 3.582-8 8-8h12c4.418 0 8 3.582 8 8v246c0 4.418-3.581 8-8 8z" fill="#e0925b"/><path d="m303.455 279.125-11.326-3.965c-4.17-1.46-6.367-6.024-4.907-10.194l81.283-232.183c1.46-4.17 6.024-6.367 10.194-4.907l11.326 3.965c4.17 1.46 6.367 6.024 4.907 10.194l-81.283 232.183c-1.46 4.17-6.024 6.367-10.194 4.907z" fill="#e0925b"/><path d="m412 178.5h-312l27.758-49.752c1.463-2.623 4.231-4.248 7.235-4.248h242.014c3.003 0 5.772 1.625 7.235 4.248z" fill="#efefef"/><path d="m384.242 128.748c-1.463-2.623-4.231-4.248-7.235-4.248h-30c3.003 0 5.772 1.625 7.235 4.248l27.758 49.752h30z" fill="#e7e7e7"/><path d="m385.207 504.5h-258.414l-26.793-326h312z" fill="#f8f7f7"/><path d="m382 178.5-26.793 326h30l26.793-326z" fill="#efefef"/><path d="m324.106 367.504h-136.212c-2.427 0-4.394-1.967-4.394-4.394v-5.106c0-40.041 32.459-72.5 72.5-72.5 40.041 0 72.5 32.459 72.5 72.5v5.106c0 2.427-1.967 4.394-4.394 4.394z" fill="#ff6167"/><path d="m256 285.504c-5.144 0-10.159.544-15 1.563 32.841 6.91 57.5 36.04 57.5 70.937v5.106c0 2.427-1.967 4.394-4.394 4.394h30c2.427 0 4.394-1.967 4.394-4.394v-5.106c0-40.04-32.459-72.5-72.5-72.5z" fill="#fe454a"/><g><path d="m467.303 123.197c-2.93-2.929-7.678-2.929-10.607 0l-42.982 42.982-22.923-41.086c-2.786-4.992-8.068-8.093-13.784-8.093h-.373l25.377-72.489c2.822-8.067-1.443-16.926-9.509-19.75l-11.326-3.966c-8.068-2.824-16.927 1.442-19.751 9.509l-30.35 86.696h-20.499v-101.5c0-8.547-6.953-15.5-15.5-15.5h-12c-8.547 0-15.5 6.953-15.5 15.5v101.5h-74.883c-9.931.344-9.923 14.66 0 15h184.314c.284 0 .548.155.686.402l21.534 38.598h-286.454l21.534-38.597c.139-.249.402-.403.687-.403h21.802c9.931-.344 9.923-14.66 0-15h-21.802c-5.716 0-10.998 3.101-13.785 8.094l-22.922 41.085-42.982-42.982c-2.93-2.929-7.678-2.929-10.607 0s-2.929 7.678 0 10.606l48.055 48.055 26.567 323.256c.319 3.891 3.57 6.886 7.475 6.886h258.414c3.904 0 7.155-2.995 7.475-6.886l21.669-263.653c.34-4.128-2.732-7.75-6.86-8.089-4.098-.34-7.749 2.731-8.089 6.86l-21.106 256.768h-244.596l-25.561-311h295.716l-1.6 19.464c-.34 4.128 2.732 7.75 6.86 8.089 4.104.347 7.749-2.73 8.089-6.86l2.041-24.835 48.055-48.055c2.93-2.928 2.93-7.678.001-10.606zm-91.719-87.936c.092-.261.38-.398.637-.307l11.326 3.966c.26.091.397.377.307.637l-27.113 77.443h-13.773zm-93.009-19.761c0-.276.225-.5.5-.5h12c.275 0 .5.224.5.5v101.5h-13z"/><path d="m261.923 360.004c-9.931.344-9.923 14.66 0 15h62.184c6.559 0 11.894-5.335 11.894-11.894v-5.106c-4.407-106.157-155.633-106.075-160 0v5.106c0 6.559 5.335 11.894 11.894 11.894h38.952c9.931-.344 9.923-14.66 0-15h-35.847v-2c3.581-86.252 126.451-86.186 130 0v2z"/></g></g></svg>