<svg id="Layer_1" enable-background="new 0 0 512 512" height="512" viewBox="0 0 512 512" width="512" xmlns="http://www.w3.org/2000/svg"><g><path d="m474.5 474.5h-437l27.799-214.711c7.264-56.102 55.043-98.095 111.614-98.095h158.173c56.571 0 104.35 41.992 111.614 98.095z" fill="#ff6167"/><path d="m446.701 259.789c-7.264-56.102-55.043-98.094-111.614-98.094h-30c56.571 0 104.35 41.992 111.614 98.094l27.799 214.711h30z" fill="#fe454a"/><circle cx="256" cy="268" fill="#7b727b" r="148"/><circle cx="256" cy="268" fill="#f8f7f7" r="118"/><path d="m256 150c-5.08 0-10.087.323-15 .949 58.009 7.392 103 57.066 103 117.051s-44.991 109.659-103 117.051c4.913.626 9.92.949 15 .949 65.065 0 118-52.935 118-118s-52.935-118-118-118z" fill="#efefef"/><path d="m489.5 504.5h-467c-8.284 0-15-6.716-15-15 0-8.284 6.716-15 15-15h467c8.284 0 15 6.716 15 15 0 8.284-6.716 15-15 15z" fill="#f8f7f7"/><path d="m489.5 474.5h-30c8.284 0 15 6.716 15 15s-6.716 15-15 15h30c8.284 0 15-6.716 15-15s-6.716-15-15-15z" fill="#efefef"/><path d="m322 277.856h-132v-8c0-36.451 29.549-66 66-66 36.451 0 66 29.549 66 66z" fill="#cfdbe4"/><path d="m256 203.856c-5.162 0-10.179.612-15 1.733 29.221 6.794 51 32.979 51 64.267v8h30v-8c0-36.451-29.549-66-66-66z" fill="#afbbc6"/><path d="m315.725 305.856h-119.45c-3.786 0-7.186-2.317-8.57-5.841l-8.705-22.159h154l-8.705 22.159c-1.385 3.524-4.785 5.841-8.57 5.841z" fill="#7b727b"/><path d="m303 277.856-8.705 22.159c-1.384 3.524-4.784 5.841-8.57 5.841h30c3.786 0 7.185-2.317 8.57-5.841l8.705-22.159z" fill="#686169"/><path d="m346.096 82.5h-180.192c-15.687 0-28.404 12.717-28.404 28.404v68.596h-130v-67.865c0-57.512 46.623-104.135 104.135-104.135h288.731c57.511 0 104.134 46.623 104.134 104.135v67.865h-130v-68.596c0-15.687-12.717-28.404-28.404-28.404z" fill="#ff6167"/><g fill="#fe454a"><path d="m107.5 110.904v68.596h30v-68.596c0-15.687 12.717-28.404 28.404-28.404h-30c-15.687 0-28.404 12.717-28.404 28.404z"/><path d="m400.365 7.5h-30c57.512 0 104.135 46.623 104.135 104.135v67.865h30v-67.865c0-57.512-46.623-104.135-104.135-104.135z"/></g><path d="m374.5 207.5v-28h130v28c0 6.627-5.373 12-12 12h-106c-6.627 0-12-5.373-12-12z" fill="#2fd9e7"/><path d="m474.5 179.5v28c0 6.627-5.373 12-12 12h30c6.627 0 12-5.373 12-12v-28z" fill="#00d0e4"/><path d="m7.5 207.5v-28h130v28c0 6.627-5.373 12-12 12h-106c-6.627 0-12-5.373-12-12z" fill="#2fd9e7"/><path d="m107.5 179.5v28c0 6.627-5.373 12-12 12h30c6.627 0 12-5.373 12-12v-28z" fill="#00d0e4"/><g><path d="m492.652 48.804c-2.333-3.422-7-4.306-10.422-1.97-3.422 2.333-4.304 7-1.97 10.422 10.951 16.056 16.74 34.86 16.74 54.379v60.365h-115v-61.096c0-19.798-16.106-35.904-35.904-35.904h-180.192c-19.798 0-35.904 16.106-35.904 35.904v61.096h-115v-60.365c0-53.285 43.35-96.635 96.635-96.635h288.73c20.828 0 40.664 6.521 57.362 18.858 3.331 2.461 8.027 1.756 10.489-1.576s1.756-8.027-1.576-10.489c-19.297-14.257-42.215-21.793-66.275-21.793h-288.73c-61.556 0-111.635 50.079-111.635 111.635v95.865c0 10.752 8.748 19.5 19.5 19.5h47.062c-4.336 10.129-7.272 20.794-8.701 31.827l-26.953 208.173h-8.408c-29.857 1.239-29.834 43.772 0 45h340.808c9.931-.344 9.923-14.659 0-15h-340.808c-9.929-.353-9.922-14.65 0-15h467c9.929.353 9.922 14.65 0 15h-90.705c-9.931.344-9.923 14.659 0 15h90.705c29.857-1.239 29.834-43.772 0-45h-8.408l-26.953-208.173c-1.43-11.044-4.339-21.708-8.671-31.827h47.032c10.752 0 19.5-8.748 19.5-19.5v-95.865c0-22.547-6.69-44.273-19.348-62.831zm-102.23 178.196c28.205 88.091-41.676 182.98-134.423 181.499-92.729 1.485-162.648-93.417-134.421-181.499h3.922c5.646 0 10.723-2.426 14.287-6.273-34.12 80.861 28.355 173.77 116.214 172.772 87.839 1.053 150.294-92.022 116.276-172.701 3.561 3.806 8.611 6.202 14.223 6.202zm-23.279-17.234c-28.306-56.614-102.966-84.261-162.417-56.31-3.778 1.698-5.465 6.137-3.768 9.915 1.698 3.778 6.137 5.464 9.915 3.768 71.569-33.136 156.561 21.934 155.626 100.862.001 60.929-49.569 110.499-110.499 110.499-101.426-.01-149.103-127.059-72.658-193.684 7.249-6.797-2.182-17.567-9.875-11.291-11.84 10.356-21.486 22.697-28.619 36.3.091-.764.152-1.537.152-2.325v-25.631c53.688-72.06 168.321-72.049 222 0v25.631c0 .768.056 1.521.143 2.266zm-201.239-119.766h180.192c11.527 0 20.904 9.377 20.904 20.904v48.229c-59.724-62.005-162.288-61.994-222 0v-48.229c0-11.527 9.377-20.904 20.904-20.904zm-150.904 117.5v-20.5h115v20.5c0 2.481-2.019 4.5-4.5 4.5h-106c-2.481 0-4.5-2.019-4.5-4.5zm424.263 53.252 26.703 206.248h-419.932l26.704-206.248c1.531-11.827 5.017-23.177 10.343-33.752h22.888c-27.751 96.752 49.138 197.969 150.033 196.499 100.876 1.474 177.804-99.756 150.03-196.499h22.87c5.329 10.573 8.827 21.906 10.361 33.752zm57.737-53.252c0 2.481-2.019 4.5-4.5 4.5h-106c-2.481 0-4.5-2.019-4.5-4.5v-20.5h115z"/><path d="m182.5 270.356h-14.5c-9.931.344-9.923 14.659 0 15h5.889l6.836 17.402c2.529 6.438 8.633 10.598 15.55 10.598h119.449c6.917 0 13.021-4.16 15.55-10.598l6.836-17.402h5.89c9.931-.344 9.923-14.659 0-15h-14.5v-.5c0-37.996-28.982-69.351-66-73.12v-8.403c-.344-9.931-14.659-9.923-15 0v8.403c-37.018 3.769-66 35.124-66 73.12zm134.814 26.917c-.258.658-.882 1.083-1.589 1.083h-119.45c-.707 0-1.331-.425-1.589-1.083l-4.682-11.917h131.991zm-119.814-27.417c3.223-77.627 113.806-77.567 117 0v.5h-117z"/></g></g></svg>