<svg id="Layer_1" enable-background="new 0 0 511.96 511.96" height="512" viewBox="0 0 511.96 511.96" width="512" xmlns="http://www.w3.org/2000/svg"><g><path d="m225.349 166.615h-130.993c-8.795 0-15.924-7.13-15.924-15.924v-11.21c0-1.763 1.429-3.193 3.193-3.193h156.457c1.763 0 3.193 1.429 3.193 3.193v11.21c-.002 8.795-7.131 15.924-15.926 15.924z" fill="#e0925b"/><path d="m238.08 136.289h-29.843c1.763 0 3.193 1.429 3.193 3.192v11.212c0 8.794-7.13 15.923-15.926 15.923h29.843c8.796 0 15.926-7.129 15.926-15.923v-11.212c0-1.763-1.429-3.192-3.193-3.192z" fill="#d48145"/><path d="m238.084 108.441h-156.464c-1.805 0-3.249-1.488-3.192-3.292.442-14.081 6.964-68.534 81.424-68.534s80.982 54.453 81.424 68.534c.057 1.804-1.387 3.292-3.192 3.292z" fill="#e0925b"/><path d="m159.852 36.615c-5.316 0-10.275.286-14.921.807 60.427 6.772 66.092 54.651 66.502 67.727.057 1.803-1.387 3.292-3.192 3.292h29.843c1.805 0 3.249-1.488 3.192-3.292-.442-14.081-6.964-68.534-81.424-68.534z" fill="#d48145"/><path d="m236.965 136.289h-154.226c-7.67 0-13.887-6.217-13.887-13.887v-.073c0-7.67 6.217-13.887 13.887-13.887h154.226c7.67 0 13.887 6.217 13.887 13.887v.073c0 7.669-6.217 13.887-13.887 13.887z" fill="#e07f5d"/><path d="m236.926 108.441h-29.843c7.691 0 13.927 6.234 13.927 13.924s-6.235 13.924-13.927 13.924h29.843c7.691 0 13.927-6.234 13.927-13.924s-6.236-13.924-13.927-13.924z" fill="#d06d4a"/><path d="m449.171 300.615h-145.515v-88h116.23z" fill="#e4f7fc"/><path d="m419.886 212.615h-30l29.285 88h30z" fill="#d1f2fe"/><path d="m487.452 401.615h-183.796v-101h168.367c8.521 0 15.429 6.908 15.429 15.43z" fill="#ff6167"/><path d="m472.022 300.615h-30c8.521 0 15.429 6.908 15.429 15.43v85.57h30v-85.57c.001-8.522-6.907-15.43-15.429-15.43z" fill="#fe454a"/><path d="m489.49 431.615h-467c-8.284 0-15-6.716-15-15 0-8.284 6.716-15 15-15h467c8.284 0 15 6.716 15 15 0 8.285-6.716 15-15 15z" fill="#e0dce0"/><path d="m489.49 401.615h-30c8.284 0 15 6.716 15 15 0 8.284-6.716 15-15 15h30c8.284 0 15-6.716 15-15 0-8.284-6.716-15-15-15z" fill="#cbc4cc"/><circle cx="403.99" cy="430.615" fill="#7a6d79" r="45"/><circle cx="403.99" cy="430.615" fill="#d0d3d2" r="16"/><path d="m487.452 374.923h-18.281c-11.046 0-20-8.954-20-20 0-11.046 8.954-20 20-20h18.281z" fill="#ffe589"/><path d="m303.656 212.615h30v88h-30z" fill="#fe454a"/><path d="m22.221 166.615h281.435v235h-281.435z" fill="#f1f0f1"/><path d="m273.656 166.616h30v235h-30z" fill="#e7e4e7"/><path d="m422.656 212.615h-119v-30h119c8.284 0 15 6.716 15 15 0 8.285-6.716 15-15 15z" fill="#ff6167"/><path d="m422.656 182.615h-30c8.284 0 15 6.716 15 15s-6.716 15-15 15h30c8.284 0 15-6.716 15-15s-6.716-15-15-15z" fill="#fe454a"/><circle cx="100.651" cy="430.615" fill="#7a6d79" r="45"/><circle cx="100.651" cy="430.615" fill="#d0d3d2" r="16"/><g><path d="m494.95 394.789v-19.827c0-.013.002-.026.002-.039v-40c0-.013-.002-.026-.002-.039v-18.839c0-12.644-10.286-22.93-22.93-22.93h-17.441l-24.692-74.199c23.751-8.468 18.28-43.306-7.231-43.801h-111.496v-8.5c0-4.142-3.357-7.5-7.5-7.5h-56.46c1.012-2.616 1.573-5.455 1.573-8.424v-10.478c12.686-8.26 12.719-27.455-.016-35.709-1.65-43.981-34.772-76.559-88.905-75.387-17.657-.001-33.099 2.961-45.899 8.801-3.768 1.72-5.429 6.168-3.709 9.937 1.72 3.768 6.168 5.428 9.937 3.709 10.831-4.943 24.179-7.449 39.672-7.449 60.993 0 71.859 39.083 73.633 56.826h-147.258c.741-7.208 3.098-18.938 10.414-29.766 2.319-3.432 1.417-8.094-2.016-10.413-3.431-2.318-8.093-1.417-10.413 2.016-11.113 16.447-12.991 34.371-13.267 41.73-12.693 8.249-12.744 27.444-.016 35.709v10.474c0 2.969.561 5.808 1.573 8.424h-50.283c-4.142 0-7.5 3.358-7.5 7.5v175.654c.344 9.931 14.659 9.923 15 0v-168.154h266.44v8.423c0 .026-.004.051-.004.077v118c0 .026.004.051.004.077v93.423h-157.825c-19.728-21.179-55.646-21.172-75.367 0h-33.248v-19.192c-.344-9.931-14.659-9.923-15 0v20.592c-3.02 1.111-5.793 2.849-8.124 5.188-14.149 13.991-4 38.463 15.894 38.413h26.36c10.805 58.367 92.821 58.325 103.604 0h153.562c9.931-.344 9.923-14.66 0-15h-153.281c-.656-5.282-2.097-10.321-4.206-15h207.585c-2.109 4.679-3.551 9.718-4.206 15h-11.224c-9.931.344-9.923 14.66 0 15h11.506c10.805 58.367 92.821 58.325 103.604 0h33.698c6.017 0 11.668-2.346 15.893-6.586 12.48-12.197 6.196-33.77-10.435-37.741zm-257.985-278.848c8.42.282 8.488 12.55 0 12.847h-154.226c-8.42-.282-8.488-12.55 0-12.847zm-142.61 43.174c-4.645 0-8.424-3.779-8.424-8.424v-6.902h147.842v6.902c0 4.645-3.779 8.424-8.424 8.424zm-79.365 257.5c0-2 .779-3.878 2.213-5.306 1.409-1.415 3.287-2.194 5.287-2.194h30.284c-2.109 4.679-3.551 9.718-4.206 15h-26.078c-4.136 0-7.5-3.364-7.5-7.5zm85.661 51.5c-20.678 0-37.5-16.822-37.5-37.5 2.06-49.749 72.948-49.734 75 0 0 20.678-16.822 37.5-37.5 37.5zm379.299-100.692h-10.779c-16.587-.689-16.574-24.318 0-25h10.779zm-168.79-147.308h14.996v73h-14.996zm29.996 0h73.322l24.292 73h-97.614zm81.5-30c9.929.353 9.922 14.65 0 15h-111.496v-15zm-111.496 204v-86h160.86c4.372 0 7.93 3.558 7.93 7.93v11.377h-10.779c-36.491 1.515-36.463 53.498 0 55h10.779v11.692h-38.277c-19.728-21.179-55.645-21.172-75.366 0h-55.147zm92.83 74c-20.678 0-37.5-16.822-37.5-37.5 2.06-49.749 72.948-49.734 75 0 0 20.678-16.822 37.5-37.5 37.5zm90.787-46.194c-1.41 1.415-3.287 2.194-5.287 2.194h-33.417c-.656-5.282-2.097-10.321-4.206-15h37.623c6.585-.078 10.031 8.22 5.287 12.806z"/><path d="m403.99 407.115c-12.958 0-23.5 10.542-23.5 23.5 1.291 31.176 45.714 31.167 47 0 0-12.958-10.542-23.5-23.5-23.5zm0 32c-4.687 0-8.5-3.813-8.5-8.5.427-11.261 16.574-11.258 17 0 0 4.687-3.813 8.5-8.5 8.5z"/><path d="m376.848 334.923c0-4.142-3.357-7.5-7.5-7.5h-14.769c-9.931.344-9.923 14.66 0 15h14.769c4.142 0 7.5-3.358 7.5-7.5z"/><path d="m100.651 407.115c-12.958 0-23.5 10.542-23.5 23.5 1.291 31.176 45.714 31.167 47 0 0-12.958-10.542-23.5-23.5-23.5zm0 32c-4.687 0-8.5-3.813-8.5-8.5.427-11.261 16.575-11.258 17 0 0 4.687-3.813 8.5-8.5 8.5z"/><path d="m77.151 284.488c0 4.142 3.358 7.5 7.5 7.5h146.987l-23.207 25.258c-2.802 3.05-2.602 7.794.449 10.597 3.043 2.797 7.788 2.607 10.597-.449l34.759-37.833c2.617-2.849 2.638-7.221.049-10.095l-34.759-38.578c-2.773-3.078-7.516-3.325-10.592-.551-3.077 2.772-3.324 7.515-.551 10.592l23.478 26.057h-147.21c-4.142.002-7.5 3.36-7.5 7.502z"/></g></g></svg>