<svg id="Layer_1" enable-background="new 0 0 512 512" height="512" viewBox="0 0 512 512" width="512" xmlns="http://www.w3.org/2000/svg"><g><g fill="#ffbead"><path d="m172.894 207.244c0 21.879-13.38 39.615-29.885 39.615s-26.093-20.369-26.093-42.248 9.588-36.983 26.093-36.983 29.885 17.737 29.885 39.616z"/><path d="m339.106 207.244c0 21.879 13.38 39.615 29.885 39.615s26.093-20.369 26.093-42.248-9.588-36.983-26.093-36.983-29.885 17.737-29.885 39.616z"/></g><path d="m160.963 224.013h-8.478c-9.261 0-16.769-7.508-16.769-16.769 0-9.261 7.508-16.769 16.769-16.769h8.478c2.761 0 5 2.239 5 5v23.538c0 2.762-2.239 5-5 5z" fill="#7b727b"/><path d="m389.394 504.5h-266.788c-9.171 0-16.606-7.435-16.606-16.606v-25.342c0-49.87 40.427-90.297 90.297-90.297h119.406c49.87 0 90.297 40.427 90.297 90.297v25.342c0 9.171-7.435 16.606-16.606 16.606z" fill="#ff6167"/><path d="m315.703 372.255h-30c49.87 0 90.297 40.427 90.297 90.297v25.342c0 9.171-7.435 16.606-16.606 16.606h30c9.171 0 16.606-7.435 16.606-16.606v-25.342c0-49.869-40.427-90.297-90.297-90.297z" fill="#fe454a"/><path d="m226 310.112h60v97.564h-60z" fill="#ffd8ca"/><path d="m256 310.112h30v97.564h-30z" fill="#ffbead"/><path d="m226 348.747s-2.871 39.777 30 58.929c0 0-18.691 20.871-37.598 14.241-14.98-5.253-23.457-33.195-26.331-44.574-.725-2.869.428-5.878 2.877-7.539z" fill="#f5f2f4"/><path d="m286 348.747s2.871 39.777-30 58.929c0 0 18.691 20.871 37.598 14.241 14.98-5.253 23.457-33.195 26.331-44.574.725-2.869-.428-5.878-2.877-7.539z" fill="#f5f2f4"/><path d="m159.546 232.897v-65.633c0-53.27 43.184-96.454 96.454-96.454 53.27 0 96.454 43.184 96.454 96.454v65.27c0 53.371-43.265 96.636-96.636 96.636-53.17 0-96.272-43.103-96.272-96.273z" fill="#ffd8ca"/><path d="m256 70.81c-5.103 0-10.112.4-15 1.163 46.146 7.206 81.455 47.124 81.455 95.292v65.27c0 48.263-35.382 88.259-81.621 95.473 4.883.763 9.887 1.163 14.985 1.163 53.371 0 96.636-43.266 96.636-96.636v-65.27c0-53.271-43.184-96.455-96.455-96.455z" fill="#ffbead"/><path d="m256 53.531c-147.923 0-106.256 127.685-103.067 134.54 2.997 6.452 6.613 24.009 6.613 24.009s20.549-16.513 19.887-22.814c-1.059-10.069-6.89-71.924 18.55-66.093 25.431 5.831 35.904 10.069 57.167 10.069s31.735-4.238 57.167-10.069c25.44-5.831 19.61 56.023 18.55 66.093-.663 6.302 21.589 22.871 21.589 22.871s1.914-17.614 4.91-24.066c4.74-10.193 46.557-134.54-101.366-134.54z" fill="#9b523c"/><path d="m382.192 147.5h-252.384c-5.234 0-9.477-4.243-9.477-9.477v-6.212c0-7.904 6.407-14.311 14.311-14.311h242.714c7.904 0 14.311 6.407 14.311 14.311v6.212c.001 5.234-4.241 9.477-9.475 9.477z" fill="#f5f2f4"/><path d="m377.357 117.5h-30c7.904 0 14.311 6.407 14.311 14.311v6.212c0 5.234-4.243 9.477-9.477 9.477h30c5.234 0 9.477-4.243 9.477-9.477v-6.212c0-7.904-6.407-14.311-14.311-14.311z" fill="#e7e4e7"/><path d="m372 117.5h-232l4.327-39.246c4.441-40.271 38.469-70.754 78.985-70.754h65.376c40.516 0 74.544 30.483 78.985 70.754z" fill="#ff6167"/><path d="m367.673 78.254c-4.441-40.272-38.469-70.754-78.985-70.754h-30c40.516 0 74.544 30.482 78.985 70.754l4.327 39.246h30z" fill="#fe454a"/><path d="m322 117.5h-132v-43.685c0-14.533 11.781-26.315 26.315-26.315h79.371c14.533 0 26.314 11.781 26.314 26.315z" fill="#2fd9e7"/><path d="m295.685 47.5h-30c14.534 0 26.315 11.781 26.315 26.315v43.685h30v-43.685c0-14.534-11.781-26.315-26.315-26.315z" fill="#00d0e4"/><path d="m347.043 481.641h-38.769c-4.621 0-8.367-3.746-8.367-8.367v-12.394c0-4.621 3.746-8.367 8.367-8.367h38.769c4.621 0 8.367 3.746 8.367 8.367v12.394c0 4.621-3.746 8.367-8.367 8.367z" fill="#f5f2f4"/><g><path d="m144.128 497h-21.518c-5.023 0-9.11-4.087-9.11-9.11v-25.34c0-41.984 30.888-76.614 71.643-82.035 4.203 16.104 13.563 42.444 30.778 48.48 3.458 1.212 6.869 1.73 10.182 1.73 12.521-.002 23.57-7.415 29.897-12.747 8.403 7.537 25.556 16.673 40.08 11.017 17.212-6.035 26.572-32.368 30.776-48.471 12.789 1.724 25 6.404 35.69 13.751 3.372 2.328 8.068 1.505 10.429-1.933 2.347-3.414 1.481-8.083-1.933-10.429-14.244-9.79-30.766-15.588-47.98-16.871-.555-.523-1.155-1.008-1.799-1.445l-27.763-18.826v-15.16c32.889-12.812 57.711-41.879 64.554-77.28 51.059 18.078 61.345-88.938 14.255-92.033.259-1.732.494-3.5.698-5.298h9.185c9.361 0 16.977-7.616 16.977-16.977v-6.212c0-11.568-9.052-21.056-20.444-21.764l-3.596-32.615c-1.345-12.192-5.144-23.717-11.29-34.255-2.086-3.578-6.679-4.785-10.258-2.7-3.577 2.087-4.786 6.679-2.699 10.257 5.082 8.713 8.224 18.249 9.337 28.341l3.41 30.924h-34.129v-36.185c0-18.645-15.169-33.814-33.814-33.814h-79.371c-18.646 0-33.815 15.169-33.815 33.814v36.186h-34.128l3.41-30.924c4.028-36.529 34.779-64.076 71.53-64.076h65.377c14.624 0 28.709 4.369 40.733 12.635 3.415 2.346 8.083 1.481 10.43-1.932s1.481-8.083-1.932-10.429c-14.536-9.992-31.561-15.274-49.232-15.274h-65.377c-44.411 0-81.572 33.289-86.439 77.433l-3.596 32.615c-11.392.708-20.444 10.197-20.444 21.764v6.212c0 9.361 7.615 16.977 16.977 16.977h8.397c.164 1.846.359 3.648.579 5.4-40.739 3.323-37.938 89.791 1.485 93.811v54.145c0 2.383 1.133 4.624 3.051 6.038l42.418 31.256c3.303 2.441 8.015 1.766 10.487-1.589 2.457-3.335 1.745-8.03-1.589-10.487l-39.367-29.008v-45.862c4.547 17.848 13.813 34.212 27.176 47.568 10.428 10.433 22.687 18.371 36.055 23.515v14.985l-27.763 18.826c-.653.443-1.26.936-1.822 1.468-23.977 1.785-46.255 12.215-63.047 29.637-17.649 18.309-27.369 42.405-27.369 67.846v25.34c0 13.294 10.815 24.11 24.11 24.11h21.518c9.931-.344 9.923-14.66 0-15zm76.756-82.161c-7.696-2.698-16.104-17.993-21.459-39.01l19.8-13.426c1.8 12.962 7.472 32.131 24.654 46.013-5.87 4.412-14.799 9.298-22.995 6.423zm70.232 0c-8.198 2.875-17.128-2.012-22.996-6.423 17.184-13.881 22.855-33.051 24.655-46.013l19.8 13.426c-5.353 21.017-13.763 36.312-21.459 39.01zm96.464-210.229c.089 20.979-10.483 42.75-27.713 31.88.05-1.315.083-2.634.083-3.96v-19.935c.762-6.832 2.537-17.748 4.215-21.361 1.251-2.689 3.299-8.481 5.192-16.091 13.423.273 18.223 15.345 18.223 29.467zm-31.588-38.199c-.077.285-.142.573-.185.867-2.029 9.348-4.451 15.926-5.244 17.632-1.5 3.229-2.705 8.236-3.608 13.062-4.209-3.761-7.473-7.165-8.519-9.014.671-6.698 1.744-20.472.973-33.958h18.498c-.511 4.098-1.183 7.934-1.915 11.411zm-158.492-92.597c0-10.374 8.44-18.814 18.814-18.814h79.371c10.374 0 18.814 8.44 18.814 18.814v36.186h-117v-36.186zm-69.668 64.209v-6.212c0-3.756 3.056-6.812 6.811-6.812h242.715c3.755 0 6.811 3.056 6.811 6.812v6.212c0 1.09-.887 1.977-1.977 1.977h-252.383c-1.09 0-1.977-.887-1.977-1.977zm43.051 16.977c-.776 13.594.327 27.5.993 34.109-.904 1.819-3.933 5.25-7.868 9.048-1.264-4.881-2.79-10.052-4.268-13.233-.593-1.326-2.958-8.257-4.797-18.189-.013-.07-.024-.141-.039-.211-.645-3.51-1.223-7.386-1.633-11.523h17.612zm-22.232 43.815c1.295 4.661 2.576 10.151 3.398 14.062v3.615c-9.712-.538-12.136-13.658-3.398-17.677zm-24.231 5.795c0-13.668 4.498-28.226 16.957-29.396.826 3.663 1.681 6.826 2.444 9.365-18.935 7.226-21.091 33.432-3.551 43.622v10.807c-9.978-2.528-15.85-18.705-15.85-34.398zm42.63 28.29v-17.276c20.85-17.403 20.099-24.685 19.841-27.142-.619-5.89-1.844-20.081-.982-33.481h138.48c.862 13.385-.358 27.548-.982 33.481-.263 2.501-1.025 9.911 21.544 27.37v16.678c.207 78.659-96.487 118.989-151.898 63.136-16.769-16.759-26.003-39.05-26.003-62.766zm88.77 103.77c7.788 0 15.376-.866 22.68-2.495v19.785c-.448 9.532-3.638 31.426-22.503 44.785-18.845-13.308-22.065-34.859-22.509-44.539.002-.079.012-.156.012-.235v-19.697c7.25 1.58 14.721 2.396 22.32 2.396z"/><path d="m397.461 408.87c-2.278-3.46-6.931-4.419-10.388-2.143-3.461 2.277-4.42 6.928-2.144 10.388 8.878 13.493 13.57 29.204 13.57 45.435v25.34c0 5.023-4.087 9.11-9.11 9.11h-209.942c-9.931.344-9.923 14.66 0 15h209.943c13.295 0 24.11-10.815 24.11-24.11v-25.34c0-19.17-5.546-37.732-16.039-53.68z"/><path d="m248.264 263.111c5.976 1.561 9.813 1.561 15.79 0 4.008-1.047 6.408-5.144 5.362-9.152-1.047-4.008-5.145-6.406-9.151-5.362-3.492.912-4.72.912-8.21 0-4.013-1.048-8.105 1.354-9.152 5.361-1.048 4.009 1.353 8.107 5.361 9.153z"/><path d="m229.971 178.96c3.9 1.051 8.119-1.322 9.151-5.362 1.046-4.008-1.354-8.105-5.362-9.151-11.342-2.961-18.26-2.961-29.602 0-4.008 1.046-6.408 5.144-5.362 9.151 1.047 4.008 5.146 6.406 9.151 5.362 8.953-2.338 13.071-2.338 22.024 0z"/><path d="m282.348 178.96c8.953-2.338 13.07-2.338 22.023 0 .635.166 1.272.245 1.899.245 3.33 0 6.371-2.235 7.252-5.607 1.046-4.008-1.354-8.105-5.362-9.151-11.342-2.961-18.26-2.961-29.602 0-4.008 1.046-6.408 5.144-5.362 9.151 1.047 4.008 5.147 6.406 9.152 5.362z"/><path d="m278.656 282.104c3.619-2.014 4.92-6.581 2.906-10.201-2.016-3.62-6.581-4.921-10.201-2.906-9.377 5.219-21.027 5.219-30.404 0-3.62-2.016-8.186-.714-10.201 2.906-2.014 3.62-.713 8.187 2.906 10.201 13.877 7.724 31.117 7.724 44.994 0z"/><path d="m214.159 205.132c-4.143 0-7.5 3.358-7.5 7.5v6c.344 9.931 14.66 9.923 15 0v-6c0-4.142-3.357-7.5-7.5-7.5z"/><path d="m298.159 205.132c-4.143 0-7.5 3.358-7.5 7.5v6c.344 9.931 14.66 9.923 15 0v-6c0-4.142-3.357-7.5-7.5-7.5z"/><path d="m263.5 437.5c-.344-9.931-14.66-9.923-15 0v4c.344 9.931 14.66 9.923 15 0z"/><path d="m256 461.385c-4.143 0-7.5 3.358-7.5 7.5v4c.344 9.931 14.66 9.923 15 0v-4c0-4.142-3.357-7.5-7.5-7.5z"/><path d="m347.043 445.013h-38.77c-8.749 0-15.866 7.118-15.866 15.867v12.394c0 8.749 7.117 15.867 15.866 15.867h38.77c8.749 0 15.867-7.118 15.867-15.867v-12.394c0-8.749-7.118-15.867-15.867-15.867zm.867 28.261c0 .478-.389.867-.867.867h-38.77c-.478 0-.866-.389-.866-.867v-12.394c0-.478.389-.867.866-.867h38.77c.479 0 .867.389.867.867z"/></g></g></svg>