<svg id="Layer_1" enable-background="new 0 0 512 512" height="512" viewBox="0 0 512 512" width="512" xmlns="http://www.w3.org/2000/svg"><g><path d="m390.945 504.5h-269.89c-7.054 0-12.928-5.411-13.505-12.441l-29.55-359.559h356l-29.549 359.559c-.578 7.03-6.452 12.441-13.506 12.441z" fill="#f8f7f7"/><path d="m404 132.5-29.549 359.559c-.578 7.03-6.452 12.441-13.505 12.441h30c7.054 0 12.928-5.411 13.505-12.441l29.549-359.559z" fill="#efefef"/><path d="m408.729 440 18.409-224h-342.276l18.409 224z" fill="#ff6167"/><path d="m397.138 216-18.409 224h30l18.409-224z" fill="#fe454a"/><path d="m193.783 402.634c-6.07-5.638-6.419-15.129-.781-21.199l43.558-46.89c5.638-6.07 15.129-6.419 21.199-.781 6.069 5.638 6.419 15.129.781 21.199l-43.558 46.89c-5.638 6.069-15.129 6.419-21.199.781z" fill="#f8f7f7"/><ellipse cx="277.617" cy="312.388" fill="#e07f5d" rx="72.547" ry="54.802" transform="matrix(.681 -.733 .733 .681 -140.202 303.174)"/><path d="m326.992 259.236c-12.147-11.284-29.669-14.239-47.514-9.795 6.519 1.885 12.481 5.119 17.514 9.795 22.175 20.599 18.045 61.095-9.224 90.45-12.331 13.274-27.281 21.979-42.012 25.648 22.202 6.421 50.932-2.956 72.012-25.648 27.269-29.355 31.399-69.851 9.224-90.45z" fill="#d06d4a"/><path d="m448 132.5h-384c-2.209 0-4-1.791-4-4v-14.135c0-8.762 7.103-15.865 15.865-15.865h360.269c8.762 0 15.865 7.103 15.865 15.865v14.135c.001 2.209-1.79 4-3.999 4z" fill="#2fd9e7"/><path d="m436.135 98.5h-30c8.762 0 15.865 7.103 15.865 15.865v14.135c0 2.209-1.791 4-4 4h30c2.209 0 4-1.791 4-4v-14.135c0-8.762-7.103-15.865-15.865-15.865z" fill="#00d0e4"/><path d="m243.608 185.899c-7.091-5.273-8.564-15.296-3.291-22.387l114.222-153.59c1.979-2.661 5.741-3.214 8.402-1.235l16.04 11.929c2.661 1.979 3.214 5.741 1.235 8.402l-114.222 153.59c-5.272 7.091-15.295 8.564-22.386 3.291z" fill="#fe454a"/><g><path d="m181.504 392.471c.221 6.01 2.77 11.571 7.171 15.654 9.07 8.432 23.339 7.933 31.8-1.17l22.764-24.507c5.287 1.579 10.934 2.395 16.845 2.395 3.999 0 8.117-.368 12.318-1.112 18.506-3.277 36.568-13.555 50.861-28.94 46.09-48.053 26.767-124.755-40.432-113.746-18.506 3.277-36.569 13.555-50.86 28.94-9.965 10.727-17.449 23.314-21.641 36.402-1.264 3.945.91 8.167 4.854 9.431 3.944 1.265 8.167-.91 9.431-4.854 3.525-11.005 9.869-21.644 18.346-30.769 12.085-13.009 27.173-21.667 42.486-24.379 14.54-2.574 27.48.592 36.44 8.915 32.858 31.889-6.969 97.624-52.101 104.23-14.54 2.574-27.48-.592-36.44-8.916-5.229-4.857-8.79-11.117-10.585-18.608-.966-4.028-5.015-6.509-9.042-5.545-4.028.965-6.511 5.013-5.545 9.041.565 2.358 1.28 4.648 2.125 6.863l-22.793 24.529c-4.092 4.404-6.223 10.138-6.002 16.146zm16.99-5.935 19.542-21.03c1.559 1.973 3.262 3.821 5.101 5.529 1.852 1.72 3.814 3.282 5.875 4.688l-19.527 21.022c-2.816 3.03-7.572 3.206-10.606.386-1.465-1.359-2.312-3.21-2.386-5.212-.073-2.003.637-3.915 2.001-5.383z"/><path d="m436.13 91.002h-92.661l42.766-57.506c2.153-2.895 3.05-6.455 2.525-10.023-.524-3.569-2.408-6.72-5.302-8.873l-16.04-11.928c-2.894-2.153-6.453-3.051-10.023-2.525-3.569.524-6.72 2.407-8.873 5.302l-63.624 85.553h-144.718c-9.931.344-9.923 14.659 0 15h133.562l-14.13 19h-192.112v-10.63c0-4.615 3.755-8.37 8.37-8.37h29.232c9.931-.344 9.923-14.659 0-15h-29.232c-12.886 0-23.37 10.484-23.37 23.37v14.13c0 6.341 5.159 11.5 11.5 11.5h7.091l28.984 352.675c.894 10.835 10.108 19.323 20.975 19.323h269.9c10.867 0 20.081-8.488 20.975-19.326l17.962-218.559c.339-4.128-2.732-7.75-6.86-8.089-4.131-.345-7.75 2.732-8.089 6.86l-12.966 157.771h-291.943l-17.025-207.156h325.992l-1.182 14.386c-.339 4.128 2.732 7.75 6.86 8.089.209.018.417.026.623.026 3.864 0 7.145-2.967 7.466-6.886l8.146-99.114h7.091c6.341 0 11.5-5.159 11.5-11.5v-14.13c0-12.886-10.484-23.37-23.37-23.37zm-35.392 354.656-3.763 45.786c-.257 3.116-2.904 5.557-6.025 5.557h-269.9c-3.122 0-5.768-2.441-6.025-5.554l-3.763-45.788h289.476zm-41.073-430.058 13.642 10.144-113.33 152.39c-2.798 3.761-8.132 4.544-11.893 1.749-3.761-2.797-4.545-8.133-1.749-11.894zm60.564 192.901h-328.458l-5.63-68.5h162.315l-14.157 19.037c-3.746 5.037-5.306 11.231-4.393 17.441s4.189 11.693 9.227 15.439c10.301 7.686 25.105 5.625 32.88-4.833l35.015-47.084h118.83zm24.271-83.499h-126.316l14.13-19h103.816c4.615 0 8.37 3.755 8.37 8.37z"/></g></g></svg>