<svg id="Layer_1" enable-background="new 0 0 512 512" height="512" viewBox="0 0 512 512" width="512" xmlns="http://www.w3.org/2000/svg"><g><path d="m271 132.654h-30l-4.537-46.001h39.074z" fill="#c3cfd8"/><circle cx="256" cy="72.5" fill="#e0ebf0" r="30"/><path d="m256 42.5c-5.466 0-10.586 1.469-15 4.023 8.964 5.188 15 14.874 15 25.977s-6.036 20.789-15 25.977c4.414 2.554 9.534 4.023 15 4.023 16.569 0 30-13.431 30-30s-13.431-30-30-30z" fill="#cfdbe4"/><path d="m480.5 348.5h-449c-13.255 0-24-10.745-24-24v-6.878c0-2.829 2.293-5.122 5.122-5.122h486.757c2.829 0 5.122 2.293 5.122 5.122v6.878c-.001 13.254-10.746 24-24.001 24z" fill="#cfdbe4"/><path d="m499.378 312.5h-30c2.829 0 5.122 2.293 5.122 5.122v6.878c0 13.255-10.745 24-24 24h30c13.255 0 24-10.745 24-24v-6.878c0-2.829-2.293-5.122-5.122-5.122z" fill="#c3cfd8"/><path d="m478.898 312.5h-445.774s-12.83-188 222.458-188 223.316 188 223.316 188z" fill="#e0ebf0"/><path d="m255.582 124.5c-5.119 0-10.113.095-15 .269 219.765 7.827 208.316 187.731 208.316 187.731h30s11.972-188-223.316-188z" fill="#cfdbe4"/><path d="m405.79 357.414c0 9.993-8.059 18.094-18 18.094h-93.239c-22.185 0-44.049 5.333-63.767 15.553l-107.808 55.882c-8.779 4.551-18.235 7.651-28.001 9.182l-85.165 13.35c-1.213.19-2.309-.749-2.309-1.979v-86.988c0-1.012.754-1.865 1.757-1.988l48.662-5.972c8.861-1.087 17.47-3.694 25.449-7.705l34.973-17.58c10.448-5.252 19.869-12.352 27.813-20.961l58.271-63.151c5.995-6.497 15.876-7.52 23.071-2.39 7.993 5.699 9.813 16.865 4.047 24.831l-31.405 43.385c-3.116 4.304-.057 10.344 5.239 10.344h182.412c9.941 0 18 8.101 18 18.093z" fill="#ffd8ca"/><g fill="#ffbead"><path d="m201.543 285.591-31.405 43.386c-3.116 4.304-.057 10.344 5.239 10.344h30c-5.296 0-8.354-6.04-5.239-10.344l31.405-43.386c5.766-7.965 3.946-19.131-4.047-24.831-7.202-5.135-17.074-4.109-23.079 2.398l-2.295 2.488c3.791 5.952 3.815 13.875-.579 19.945z"/><path d="m387.79 339.321h-30c9.941 0 18 8.101 18 18.094 0 9.993-8.059 18.094-18 18.094h30c9.941 0 18-8.101 18-18.094 0-9.993-8.059-18.094-18-18.094z"/><path d="m200.784 391.062-107.809 55.881c-8.78 4.551-18.231 7.651-27.991 9.181l-57.484 9.01v2.362c0 1.23 1.096 2.169 2.309 1.979l85.175-13.351c9.76-1.53 19.212-4.63 27.991-9.181l107.808-55.881c19.718-10.221 41.582-15.554 63.767-15.554h-30c-22.185 0-44.048 5.333-63.766 15.554z"/></g><g><path d="m499.38 305h-12.888c-.333-18.089-4.402-63.657-34.396-105.819-2.4-3.375-7.084-4.165-10.459-1.764s-4.165 7.084-1.764 10.459c27.241 38.292 31.15 80.7 31.572 97.124h-244.693l10.866-15.011c3.973-5.488 5.557-12.197 4.459-18.89-1.095-6.682-4.727-12.522-10.228-16.445-10.245-7.306-24.404-5.839-32.937 3.411l-43.308 46.935h-115.083c.072-3.96.337-9.43 1.079-15.961.468-4.116-2.49-7.831-6.605-8.299-4.116-.47-7.83 2.49-8.299 6.605-.821 7.23-1.106 13.251-1.178 17.655h-12.898c-6.959 0-12.62 5.661-12.62 12.62v6.88c0 17.369 14.131 31.5 31.5 31.5h52.761l-4.261 2.142c-7.229 3.634-14.966 5.977-22.994 6.961l-48.662 5.972c-4.757.584-8.344 4.639-8.344 9.432v86.989c0 2.781 1.212 5.414 3.324 7.221 2.111 1.812 4.926 2.598 7.646 2.167l85.166-13.35c10.585-1.66 20.775-5.002 30.29-9.933l29.831-15.463c3.678-1.906 5.113-6.433 3.207-10.11-1.906-3.679-6.436-5.112-10.109-3.207l-29.831 15.463c-8.076 4.186-16.727 7.022-25.711 8.431l-78.813 12.355v-75.699l43.832-5.379c9.744-1.196 19.132-4.038 27.904-8.448l34.972-17.58c11.293-5.676 21.372-13.272 29.957-22.577l58.272-63.151c3.421-3.708 9.097-4.297 13.203-1.369 2.223 1.584 3.69 3.949 4.135 6.658.445 2.72-.196 5.443-1.808 7.669l-31.405 43.385c-3.107 4.293-3.54 9.893-1.13 14.614 2.402 4.705 7.171 7.628 12.443 7.628h182.415c13.932.582 13.922 20.611 0 21.188h-93.239c-23.283 0-46.526 5.669-67.218 16.395l-46.905 24.312c-3.678 1.906-5.113 6.433-3.207 10.11 1.906 3.679 6.436 5.113 10.109 3.208l46.905-24.312c18.568-9.625 39.425-14.712 60.315-14.712h93.239c14.554.05 26.314-12.436 25.459-27.009h67.252c17.369 0 31.5-14.131 31.5-31.5v-6.88c0-6.96-5.661-12.621-12.62-12.621zm-384.408 35.562-1.193.6c-.5-.105-1.017-.162-1.548-.162h-80.731c-9.098 0-16.5-7.402-16.5-16.5v-4.5h126.763l-1.122 1.216c-7.358 7.973-15.995 14.482-25.669 19.346zm382.028-16.062c0 9.098-7.401 16.5-16.5 16.5h-73.165c-4.682-5.606-11.705-9.179-19.545-9.179h-180.452l8.557-11.821h281.105z"/><path d="m39.267 260.185c.733.226 1.475.333 2.205.333 3.206 0 6.176-2.074 7.166-5.299 17.269-56.213 67.19-123.219 206.942-123.219 70.413 0 124.969 17.133 162.151 50.923 3.064 2.787 7.809 2.559 10.595-.506 2.785-3.065 2.559-7.809-.507-10.594-35.527-32.285-85.179-50.432-147.81-54.11l1.785-18.032c24.384-22.849 8.001-64.731-25.795-64.68-33.885.074-50.161 41.682-25.795 64.68l1.776 17.98c-56.365 3.199-102.313 18.12-136.811 44.484-29.161 22.288-49.642 52.12-60.869 88.668-1.217 3.959 1.007 8.155 4.967 9.372zm216.733-210.185c12.406 0 22.5 10.093 22.5 22.5-1.236 29.849-43.769 29.841-45 0 0-12.407 10.094-22.5 22.5-22.5zm-9.833 58.683c6.22 1.744 13.442 1.745 19.662.001l-.835 8.429c-5.929-.14-12.06-.149-17.997-.019z"/></g></g></svg>