<svg id="Layer_1" enable-background="new 0 0 512.023 512.023" height="512" viewBox="0 0 512.023 512.023" width="512" xmlns="http://www.w3.org/2000/svg"><g><path d="m459.326 217.5h-110v-172.833c0-20.527 16.64-37.167 37.167-37.167h35.667c20.527 0 37.167 16.64 37.167 37.167v172.833z" fill="#e07f5d"/><path d="m422.159 7.5h-30c20.527 0 37.167 16.64 37.167 37.167v172.833h30v-172.833c0-20.527-16.64-37.167-37.167-37.167z" fill="#d06d4a"/><path d="m311.013 217.5h-110v-172.833c0-20.527 16.64-37.167 37.167-37.167h35.667c20.527 0 37.167 16.64 37.167 37.167v172.833z" fill="#e07f5d"/><path d="m273.846 7.5h-30c20.527 0 37.167 16.64 37.167 37.167v172.833h30v-172.833c0-20.527-16.64-37.167-37.167-37.167z" fill="#d06d4a"/><path d="m504.513 131.117v239.306c0 11.64-9.436 21.077-21.077 21.077h-305.846c-11.64 0-21.077-9.436-21.077-21.077v-239.305c0-3.223 3.618-5.123 6.271-3.293l20.455 14.108c1.367.943 3.175.943 4.542 0l24.456-16.867c1.367-.943 3.175-.943 4.542 0l24.457 16.867c1.367.943 3.175.943 4.542 0l24.451-16.867c1.367-.943 3.175-.943 4.542 0l24.454 16.867c1.367.943 3.175.943 4.542 0l24.455-16.867c1.367-.943 3.175-.943 4.542 0l24.459 16.868c1.367.943 3.175.943 4.542 0l24.46-16.868c1.367-.943 3.175-.943 4.542 0l24.461 16.868c1.367.943 3.175.943 4.542 0l24.46-16.868c1.367-.943 3.174-.943 4.541 0l24.464 16.869c1.367.943 3.174.943 4.541 0l20.464-14.111c2.656-1.83 6.273.07 6.273 3.293z" fill="#e49a6b"/><g><path d="m498.242 127.824-20.464 14.111c-.972.67-2.164.854-3.265.572v227.917c0 11.64-9.436 21.077-21.077 21.077h30c11.64 0 21.077-9.437 21.077-21.077v-239.307c0-3.223-3.617-5.123-6.271-3.293z" fill="#e0925b"/></g><path d="m405.803 392.415c0 9.993-8.059 18.094-18 18.094h-93.239c-22.185 0-44.049 5.333-63.767 15.553l-107.808 55.882c-8.779 4.551-18.235 7.651-28.001 9.182l-85.165 13.35c-1.213.19-2.309-.749-2.309-1.979v-86.988c0-1.012.754-1.865 1.757-1.988l48.662-5.972c8.861-1.087 17.47-3.694 25.449-7.704l34.973-17.58c10.448-5.252 19.869-12.352 27.813-20.961l58.271-63.151c5.995-6.497 15.876-7.52 23.071-2.39 7.993 5.699 9.813 16.865 4.047 24.831l-31.405 43.385c-3.116 4.304-.057 10.344 5.239 10.344h182.414c9.939-.002 17.998 8.099 17.998 18.092z" fill="#ffd8ca"/><g fill="#ffbead"><path d="m201.556 320.592-31.405 43.386c-3.116 4.304-.057 10.344 5.239 10.344h30c-5.296 0-8.354-6.04-5.239-10.344l31.405-43.386c5.766-7.965 3.946-19.131-4.047-24.831-7.202-5.135-17.074-4.109-23.079 2.398l-2.295 2.488c3.791 5.952 3.815 13.874-.579 19.945z"/><path d="m387.803 374.321h-30c9.941 0 18 8.101 18 18.094 0 9.993-8.059 18.094-18 18.094h30c9.941 0 18-8.101 18-18.094 0-9.993-8.059-18.094-18-18.094z"/><path d="m200.797 426.062-107.809 55.882c-8.78 4.551-18.231 7.651-27.991 9.181l-57.484 9.011v2.362c0 1.23 1.096 2.169 2.309 1.979l85.175-13.351c9.76-1.53 19.212-4.63 27.991-9.181l107.808-55.881c19.718-10.221 41.582-15.554 63.767-15.554h-30c-22.185-.001-44.048 5.331-63.766 15.552z"/></g><g><path d="m432.326 35.415h-56c-9.931.344-9.923 14.659 0 15h56c9.931-.345 9.923-14.66 0-15z"/><path d="m432.326 63.305h-56c-9.931.344-9.923 14.659 0 15h56c9.931-.345 9.923-14.66 0-15z"/><path d="m432.326 91.195h-56c-9.931.344-9.923 14.659 0 15h56c9.931-.344 9.923-14.659 0-15z"/><path d="m284.013 35.415h-56c-9.931.344-9.923 14.659 0 15h56c9.931-.345 9.923-14.66 0-15z"/><path d="m284.013 63.305h-56c-9.931.344-9.923 14.659 0 15h56c9.931-.345 9.923-14.66 0-15z"/><path d="m284.013 91.195h-56c-9.931.344-9.923 14.659 0 15h56c9.931-.344 9.923-14.659 0-15z"/><path d="m505.854 120.93c-3.796-1.994-8.346-1.717-11.867.714l-18.483 12.741-8.68-5.983v-40.3c-.344-9.931-14.659-9.923-15 0v30.075c-3.738-1.948-8.341-1.712-11.846.717l-22.474 15.491-22.457-15.479c-3.916-2.715-9.179-2.716-13.08-.012l-22.474 15.491-2.67-1.84v-87.875c0-16.36 13.31-29.67 29.67-29.67h35.67c16.354 0 29.66 13.31 29.66 29.67v7.33c.344 9.931 14.659 9.923 15 0v-7.33c0-24.631-20.035-44.67-44.66-44.67h-35.67c-24.631 0-44.67 20.039-44.67 44.67v77.536l-4.766-3.285c-3.911-2.731-9.178-2.737-13.092-.025l-5.452 3.76v-77.986c0-24.631-20.039-44.67-44.67-44.67h-35.66c-24.631 0-44.67 20.039-44.67 44.67v84.199l-8 5.517-18.467-12.727c-3.529-2.437-8.08-2.714-11.878-.721-3.796 1.992-6.154 5.894-6.154 10.183v216.037l-8.359 9.059c-5.901 6.396-12.681 11.888-20.149 16.324-3.562 2.115-4.733 6.717-2.618 10.278 2.116 3.562 6.718 4.734 10.278 2.618 8.717-5.178 16.628-11.586 23.514-19.049l58.271-63.151c3.42-3.708 9.098-4.298 13.205-1.37 2.222 1.584 3.69 3.949 4.134 6.657.446 2.72-.196 5.443-1.808 7.669l-31.405 43.385c-3.107 4.293-3.54 9.893-1.129 14.615 2.402 4.705 7.17 7.627 12.443 7.627h182.414c13.932.582 13.922 20.611 0 21.188h-93.239c-23.283 0-46.526 5.669-67.219 16.395l-107.808 55.882c-8.077 4.186-16.727 7.022-25.712 8.431l-78.814 12.354v-75.699l43.833-5.379c9.744-1.196 19.132-4.038 27.904-8.448l9.796-4.924c3.701-1.86 5.193-6.369 3.333-10.069-1.861-3.701-6.368-5.193-10.069-3.333l-9.797 4.925c-7.229 3.634-14.965 5.976-22.994 6.961l-48.662 5.972c-4.757.584-8.344 4.639-8.344 9.433v86.989c-.143 5.663 5.416 10.404 10.971 9.389l85.165-13.35c10.585-1.66 20.776-5.001 30.292-9.933l107.808-55.882c18.568-9.625 39.425-14.712 60.316-14.712h93.239c11.793 0 21.737-8.078 24.64-19.009h7.339c9.931-.344 9.923-14.659 0-15h-7.902c-3.476-9.99-12.953-17.179-24.077-17.179h-180.453l30.28-41.832c3.973-5.488 5.557-12.197 4.46-18.89-1.095-6.683-4.728-12.523-10.229-16.445-10.243-7.304-24.403-5.838-32.937 3.411l-34.912 37.836v-193.116l14.936 10.293c3.912 2.731 9.179 2.738 13.092.025l13.124-9.05c.034-.023.067-.046.101-.07l9.243-6.374 22.452 15.482c3.916 2.716 9.178 2.716 13.081.011l22.462-15.49 22.448 15.479c3.917 2.715 9.179 2.715 13.08.01l7.141-4.924c.029-.019.056-.039.085-.058l15.238-10.508 22.457 15.48c3.928 2.722 9.195 2.717 13.069.011l22.479-15.495 22.441 15.468c3.914 2.732 9.181 2.738 13.09.026l22.474-15.491 22.457 15.479c3.928 2.725 9.195 2.718 13.069.012l14.984-10.329v232.647c0 7.488-6.092 13.58-13.58 13.58h-27.958c-9.931.344-9.923 14.659 0 15h27.958c15.759 0 28.58-12.821 28.58-28.58v-239.3c-.003-4.292-2.363-8.197-6.162-10.19zm-226.808-2.023c-3.927-2.724-9.194-2.718-13.071-.011l-22.467 15.493-22.453-15.483c-3.741-2.593-8.706-2.703-12.542-.353v-73.883c0-16.36 13.31-29.67 29.67-29.67h35.66c16.36 0 29.67 13.31 29.67 29.67v88.329l-2.015 1.39z"/></g></g></svg>