<svg id="Layer_1" enable-background="new 0 0 512 512" height="512" viewBox="0 0 512 512" width="512" xmlns="http://www.w3.org/2000/svg"><g><path d="m489.5 504.5h-467c-8.284 0-15-6.716-15-15 0-8.284 6.716-15 15-15h467c8.284 0 15 6.716 15 15 0 8.284-6.716 15-15 15z" fill="#e0925b"/><path d="m489.5 474.5h-30c8.284 0 15 6.716 15 15s-6.716 15-15 15h30c8.284 0 15-6.716 15-15s-6.716-15-15-15z" fill="#d48145"/><path d="m324.084 365.986h-50.167c-11.424 0-20.685-9.261-20.685-20.685 0-11.424 9.261-20.685 20.685-20.685h50.167c11.424 0 20.685 9.261 20.685 20.685 0 11.424-9.261 20.685-20.685 20.685z" fill="#2fd9e7"/><path d="m324.084 324.615h-30c11.424 0 20.685 9.261 20.685 20.685s-9.261 20.685-20.685 20.685h30c11.424 0 20.685-9.261 20.685-20.685s-9.261-20.685-20.685-20.685z" fill="#00d0e4"/><path d="m436 210.154h-274v-43.769c0-11.173 9.058-20.231 20.231-20.231h233.538c11.173 0 20.231 9.058 20.231 20.231z" fill="#2fd9e7"/><path d="m415.769 146.154h-30c11.173 0 20.231 9.058 20.231 20.231v43.769h30v-43.769c0-11.174-9.058-20.231-20.231-20.231z" fill="#00d0e4"/><path d="m137 400.5h324v74h-324z" fill="#2fd9e7"/><path d="m431 400.5h30v74h-30z" fill="#00d0e4"/><path d="m137 272.5h30v128h-30z" fill="#e0925b"/><path d="m431 272.5h30v128h-30z" fill="#e0925b"/><path d="m99.526 414h-53.052c-1.919 0-3.474-1.556-3.474-3.474v-129.052c0-1.919 1.556-3.474 3.474-3.474h53.051c1.919 0 3.474 1.556 3.474 3.474v129.051c.001 1.919-1.555 3.475-3.473 3.475z" fill="#ffe589"/><path d="m99.526 278h-30c1.919 0 3.474 1.555 3.474 3.474v129.051c0 1.919-1.556 3.474-3.474 3.474h30c1.919 0 3.474-1.556 3.474-3.474v-129.051c0-1.919-1.556-3.474-3.474-3.474z" fill="#ffd86e"/><path d="m163 290c-18.778 0-34-15.222-34-34v-50c0-11.046 8.954-20 20-20h48v70c0 18.778-15.222 34-34 34z" fill="#ff6167"/><path d="m167 186v70c0 13.393-7.746 24.972-19 30.514 4.525 2.229 9.615 3.486 15 3.486 18.778 0 34-15.222 34-34v-70z" fill="#fe454a"/><path d="m231 290c-18.778 0-34-15.222-34-34v-70h68v70c0 18.778-15.222 34-34 34z" fill="#f8f7f7"/><path d="m235 186v70c0 13.393-7.746 24.972-19 30.514 4.525 2.229 9.615 3.486 15 3.486 18.778 0 34-15.222 34-34v-70z" fill="#efefef"/><path d="m299 290c-18.778 0-34-15.222-34-34v-70h68v70c0 18.778-15.222 34-34 34z" fill="#ff6167"/><path d="m303 186v70c0 13.393-7.746 24.972-19 30.514 4.525 2.229 9.615 3.486 15 3.486 18.778 0 34-15.222 34-34v-70z" fill="#fe454a"/><path d="m367 290c-18.778 0-34-15.222-34-34v-70h68v70c0 18.778-15.222 34-34 34z" fill="#f8f7f7"/><path d="m371 186v70c0 13.393-7.746 24.972-19 30.514 4.525 2.229 9.615 3.486 15 3.486 18.778 0 34-15.222 34-34v-70z" fill="#efefef"/><path d="m435 290c-18.778 0-34-15.222-34-34v-70h48c11.046 0 20 8.954 20 20v50c0 18.778-15.222 34-34 34z" fill="#ff6167"/><path d="m449 186h-30c11.046 0 20 8.954 20 20v50c0 13.393-7.746 24.972-19 30.514 4.525 2.229 9.615 3.486 15 3.486 18.778 0 34-15.222 34-34v-50c0-11.046-8.954-20-20-20z" fill="#fe454a"/><path d="m375.481 146.154h-152.962c-17.408 0-31.519-14.112-31.519-31.519v-75.616c0-17.407 14.112-31.519 31.519-31.519h152.962c17.407 0 31.519 14.112 31.519 31.519v75.615c0 17.408-14.112 31.52-31.519 31.52z" fill="#ffe589"/><path d="m375.481 7.5h-30c17.407 0 31.519 14.112 31.519 31.519v75.615c0 17.408-14.112 31.519-31.519 31.519h30c17.408 0 31.519-14.112 31.519-31.519v-75.615c0-17.407-14.112-31.519-31.519-31.519z" fill="#ffd86e"/><g><path d="m489.5 467h-21v-101.014c-.344-9.931-14.659-9.923-15 0v27.014h-15v-95.658c5.351-.449 10.415-1.915 15-4.209v39.482c.344 9.931 14.659 9.923 15 0v-50.872c0-.393-.039-.775-.097-1.151 5.084-6.888 8.097-15.394 8.097-24.593v-50c0-15.164-12.336-27.5-27.5-27.5h-5.5v-12.115c0-15.291-12.44-27.731-27.731-27.731h-9.572c5.194-6.628 8.303-14.965 8.303-24.019v-75.615c0-21.515-17.504-39.019-39.019-39.019h-13.199c-9.931.344-9.923 14.659 0 15h13.199c13.244 0 24.019 10.775 24.019 24.019v75.616c0 13.244-10.775 24.019-24.019 24.019h-152.962c-13.244 0-24.019-10.775-24.019-24.019v-75.616c0-13.244 10.775-24.019 24.019-24.019h104.481c9.931-.344 9.923-14.659 0-15h-104.481c-21.515 0-39.019 17.504-39.019 39.019v75.616c0 9.054 3.109 17.391 8.303 24.019h-9.572c-15.291 0-27.731 12.44-27.731 27.731v12.115h-5.5c-15.164 0-27.5 12.336-27.5 27.5v50c0 9.199 3.013 17.705 8.097 24.593-.058.376-.097.759-.097 1.151v185.256h-49v-45.5h19.026c6.051 0 10.974-4.923 10.974-10.974v-129.052c0-6.051-4.923-10.974-10.974-10.974h-53.052c-6.051 0-10.974 4.923-10.974 10.974v129.052c0 6.051 4.923 10.974 10.974 10.974h19.026v45.5h-43c-29.857 1.239-29.834 43.772 0 45h95.782c9.931-.344 9.923-14.659 0-15h-95.782c-9.929-.353-9.922-14.65 0-15h467c9.929.353 9.922 14.65 0 15h-336.244c-9.931.344-9.923 14.659 0 15h336.244c29.857-1.239 29.834-43.772 0-45zm-439-181.5h45v121h-45zm256 107.5v-19.514h17.583c37.401-1.553 37.372-54.832 0-56.371h-50.167c-37.401 1.553-37.373 54.832 0 56.371h17.584v19.514h-117v-97.133c9.217-2.663 17.121-8.438 22.5-16.114 16.088 23.534 51.922 23.523 68 0 16.088 23.534 51.922 23.523 68 0 16.088 23.534 51.922 23.523 68 0 5.379 7.676 13.283 13.45 22.5 16.114v97.133zm-6.475-34.514c-.668-.101-1.382-.101-2.05 0h-24.058c-17.497-.726-17.483-25.651 0-26.371h50.167c17.496.726 17.483 25.651 0 26.371zm-155.525-65.353c4.585 2.293 9.649 3.759 15 4.209v95.658h-15zm60-99.633h53v62.5c-1.46 35.165-51.554 35.137-53 0zm68 0h53v62.5c-1.46 35.165-51.554 35.137-53 0zm68 0h53v62.5c-1.46 35.165-51.554 35.137-53 0zm121 12.5v50c-1.46 35.165-51.554 35.137-53 0v-62.5h40.5c6.893 0 12.5 5.607 12.5 12.5zm-292-39.615c0-7.02 5.711-12.731 12.731-12.731h233.538c7.02 0 12.731 5.711 12.731 12.731v12.115h-259zm-33 39.615c0-6.893 5.607-12.5 12.5-12.5h40.5v62.5c-1.46 35.165-51.554 35.137-53 0zm8 261v-59h309v59z"/><path d="m329.042 46.459v62.769c.344 9.931 14.659 9.923 15 0v-24.96h28.437v24.96c.344 9.931 14.659 9.923 15 0v-62.769c-.344-9.931-14.659-9.923-15 0v22.808h-28.437v-22.808c-.344-9.931-14.659-9.923-15 0z"/><path d="m295.52 116.727h.066c4.111 0 7.463-3.315 7.498-7.436.018-2.094.052-6.102.089-11.09h.577c9.931-.344 9.923-14.659 0-15h-.478c.086-14.942.128-30.789-.057-33.016-.432-5.179-3.558-9.407-7.963-10.771-4.378-1.355-9.021.326-12.419 4.495-3.592 4.407-20.095 34.157-25.067 43.169-1.282 2.324-1.241 5.151.108 7.436s3.805 3.687 6.458 3.687h23.838c-.029 3.877-.059 7.596-.087 10.961-.035 4.143 3.294 7.529 7.437 7.565zm-18.439-33.525c4.113-7.351 8.113-14.395 11.268-19.818-.007 5.589-.037 12.576-.078 19.818z"/><path d="m236.714 73.046c-9.938 14.199-15.868 21.964-19.054 26.135-4.015 5.257-5.847 7.656-4.576 11.79.749 2.437 2.593 4.307 5.059 5.129 3.571 1.13 23.714.497 34.453.483 4.142-.052 7.457-3.452 7.405-7.594-.049-4.144-3.463-7.461-7.594-7.405-6.048.076-12.455.127-17.866.141 3.452-4.627 8.171-11.089 14.461-20.077 4.039-5.771 6.675-11.232 7.835-16.232.057-.246.102-.495.133-.745l.31-2.428c.697-13.296-10.229-24.548-23.501-24.511-11.233 0-20.957 7.992-23.119 19.002-.798 4.064 1.849 8.007 5.914 8.805 4.063.797 8.006-1.849 8.805-5.914 2.171-9.839 16.271-8.768 16.953 1.264l-.188 1.47c-.774 3.051-2.6 6.644-5.43 10.687z"/></g></g></svg>