<svg id="Layer_1" enable-background="new 0 0 512 512" height="512" viewBox="0 0 512 512" width="512" xmlns="http://www.w3.org/2000/svg"><g><path d="m459 210.5v31.65h-406v-31.65l43-80h320z" fill="#ff6167"/><path d="m416 130.5h-30l43 80v31.65h30v-31.65z" fill="#fe454a"/><path d="m366 7.5h-220c-27.61 0-50 22.39-50 50v73h320v-73c0-27.61-22.39-50-50-50zm20 81c0 6.63-5.37 12-12 12h-236c-6.63 0-12-5.37-12-12v-25c0-14.36 11.64-26 26-26h208c14.36 0 26 11.64 26 26z" fill="#2fd9e7"/><path d="m433 504.5h-354c-14.359 0-26-11.641-26-26v-268h406v268c0 14.359-11.641 26-26 26z" fill="#f8f7f7"/><path d="m429 210.5v268c0 14.359-11.641 26-26 26h30c14.359 0 26-11.641 26-26v-268z" fill="#efefef"/><path d="m321.84 418.471h-131.68c-8.842 0-16.01-7.168-16.01-16.01v-11.273c0-1.773 1.437-3.21 3.21-3.21h157.28c1.773 0 3.21 1.437 3.21 3.21v11.273c0 8.842-7.168 16.01-16.01 16.01z" fill="#e0925b"/><path d="m334.64 387.978h-30c1.773 0 3.21 1.437 3.21 3.21v11.273c0 8.842-7.168 16.01-16.01 16.01h30c8.842 0 16.01-7.168 16.01-16.01v-11.273c0-1.773-1.438-3.21-3.21-3.21z" fill="#d48145"/><path d="m334.643 359.978h-157.287c-1.814 0-3.266-1.497-3.209-3.31.444-14.159 7.001-68.91 81.852-68.91s81.408 54.752 81.852 68.91c.058 1.813-1.393 3.31-3.208 3.31z" fill="#e0925b"/><path d="m256 287.757c-5.344 0-10.329.288-15 .811 60.745 6.809 66.44 54.951 66.852 68.099.057 1.813-1.395 3.31-3.209 3.31h30c1.814 0 3.266-1.497 3.209-3.31-.444-14.158-7-68.91-81.852-68.91z" fill="#d48145"/><path d="m333.479 387.978h-154.958c-7.732 0-14-6.268-14-14 0-7.732 6.268-14 14-14h154.958c7.732 0 14 6.268 14 14 0 7.732-6.268 14-14 14z" fill="#e07f5d"/><path d="m333.479 359.978h-30c7.732 0 14 6.268 14 14s-6.268 14-14 14h30c7.732 0 14-6.268 14-14s-6.268-14-14-14z" fill="#d06d4a"/><g><path d="m118.5 63.5v25c0 10.752 8.748 19.5 19.5 19.5h236c10.752 0 19.5-8.748 19.5-19.5v-25c0-18.472-15.028-33.5-33.5-33.5h-208c-18.472 0-33.5 15.028-33.5 33.5zm260 0v25c0 2.481-2.019 4.5-4.5 4.5h-236c-2.481 0-4.5-2.019-4.5-4.5v-25c0-10.201 8.299-18.5 18.5-18.5h208c10.201 0 18.5 8.299 18.5 18.5z"/><path d="m256 295.257c22.325 0 40.019 5.136 52.589 15.265 3.227 2.599 7.947 2.089 10.546-1.135 2.599-3.225 2.091-7.947-1.134-10.546-15.305-12.332-36.165-18.584-62.001-18.584-54.432-1.204-87.734 31.683-89.335 75.802-12.783 8.296-12.785 27.527-.014 35.827v10.573c0 12.963 10.546 23.51 23.51 23.51h131.68c12.963 0 23.51-10.547 23.51-23.51v-10.574c12.777-8.306 12.762-27.538-.015-35.828-.186-5.076-1.099-14.83-5.036-25.621-1.42-3.891-5.728-5.896-9.616-4.475-3.892 1.419-5.896 5.725-4.476 9.616 2.366 6.483 3.404 12.504 3.851 16.898h-148.123c1.77-17.828 12.665-57.218 74.064-57.218zm74.35 107.203c0 4.692-3.817 8.51-8.51 8.51h-131.68c-4.692 0-8.51-3.818-8.51-8.51v-6.983h148.7zm3.129-34.982c8.605.306 8.599 12.697 0 13h-154.958c-8.605-.306-8.599-12.697 0-13z"/><path d="m465.582 206.904-42.082-78.292v-71.112c0-31.706-25.794-57.5-57.5-57.5h-24.487c-9.931.344-9.923 14.66 0 15h24.487c23.435 0 42.5 19.065 42.5 42.5v65.5h-305v-65.5c0-23.435 19.065-42.5 42.5-42.5h160.025c9.931-.344 9.923-14.66 0-15h-160.025c-31.706 0-57.5 25.794-57.5 57.5v71.112l-42.106 78.338c-.586 1.091-.894 2.312-.894 3.551v191.654c.344 9.931 14.659 9.923 15 0v-184.155h391v260.5c0 10.201-8.299 18.5-18.5 18.5h-354c-10.201 0-18.5-8.299-18.5-18.5v-41.064c-.344-9.931-14.659-9.923-15 0v41.064c0 18.472 15.028 33.5 33.5 33.5h354c18.472 0 33.5-15.028 33.5-33.5v-268c0-1.303-.333-2.528-.918-3.596zm-54.065-68.904 34.937 65h-380.908l34.937-65z"/></g></g></svg>