<svg id="Layer_1" enable-background="new 0 0 512 512" height="512" viewBox="0 0 512 512" width="512" xmlns="http://www.w3.org/2000/svg"><g><path d="m393.016 71.5h-274v-43.769c0-11.173 9.058-20.231 20.231-20.231h233.538c11.173 0 20.231 9.058 20.231 20.231z" fill="#2fd9e7"/><path d="m372.785 7.5h-30c11.173 0 20.231 9.058 20.231 20.231v43.769h30v-43.769c0-11.173-9.058-20.231-20.231-20.231z" fill="#00d0e4"/><path d="m418.016 335.846h-324v-68c0-3.314 2.686-6 6-6h312c3.314 0 6 2.686 6 6z" fill="#2fd9e7"/><path d="m388.016 261.846v74h30v-68c0-3.314-2.686-6-6-6z" fill="#00d0e4"/><g fill="#e0925b"><path d="m107.016 133.846h30v128h-30z"/><path d="m375.016 133.846h30v128h-30z"/></g><path d="m235.144 261.846h-60v-60c0-2.209 1.791-4 4-4h52c2.209 0 4 1.791 4 4z" fill="#ffe589"/><path d="m120.016 151.346c-18.778 0-34-15.222-34-34v-50c0-11.046 8.954-20 20-20h48v70c0 18.778-15.223 34-34 34z" fill="#ff6167"/><path d="m124.016 47.346v70c0 13.393-7.746 24.972-19 30.514 4.525 2.229 9.615 3.486 15 3.486 18.778 0 34-15.222 34-34v-70z" fill="#fe454a"/><path d="m188.016 151.346c-18.778 0-34-15.222-34-34v-70h68v70c0 18.778-15.223 34-34 34z" fill="#f8f7f7"/><path d="m192.016 47.346v70c0 13.393-7.746 24.972-19 30.514 4.525 2.229 9.615 3.486 15 3.486 18.778 0 34-15.222 34-34v-70z" fill="#efefef"/><path d="m256.016 151.346c-18.778 0-34-15.222-34-34v-70h68v70c0 18.778-15.223 34-34 34z" fill="#ff6167"/><path d="m260.016 47.346v70c0 13.393-7.746 24.972-19 30.514 4.525 2.229 9.615 3.486 15 3.486 18.778 0 34-15.222 34-34v-70z" fill="#fe454a"/><path d="m324.016 151.346c-18.778 0-34-15.222-34-34v-70h68v70c0 18.778-15.223 34-34 34z" fill="#f8f7f7"/><path d="m328.016 47.346v70c0 13.393-7.746 24.972-19 30.514 4.525 2.229 9.615 3.486 15 3.486 18.778 0 34-15.222 34-34v-70z" fill="#efefef"/><path d="m392.016 151.346c-18.778 0-34-15.222-34-34v-70h48c11.046 0 20 8.954 20 20v50c0 18.778-15.223 34-34 34z" fill="#ff6167"/><path d="m406.016 47.346h-30c11.046 0 20 8.954 20 20v50c0 13.393-7.746 24.972-19 30.514 4.525 2.229 9.615 3.486 15 3.486 18.778 0 34-15.222 34-34v-50c0-11.046-8.955-20-20-20z" fill="#fe454a"/><path d="m120.286 402.144 7.013 14.241c1.993 4.047 5.846 6.853 10.303 7.502l15.682 2.284c11.224 1.634 15.705 15.457 7.584 23.391l-11.348 11.085c-3.225 3.15-4.697 7.69-3.935 12.138l2.679 15.653c1.917 11.202-9.816 19.745-19.854 14.456l-14.027-7.39c-3.986-2.1-8.749-2.1-12.735 0l-14.027 7.39c-10.039 5.289-21.771-3.254-19.854-14.456l2.679-15.653c.761-4.449-.71-8.988-3.935-12.138l-11.348-11.085c-8.121-7.934-3.64-21.756 7.584-23.391l15.682-2.284c4.457-.649 8.31-3.454 10.303-7.502l7.013-14.241c5.019-10.192 19.522-10.192 24.541 0z" fill="#ffe589"/><g><path d="m153.285 426.171-15.682-2.284c-4.457-.649-8.31-3.454-10.303-7.501l-7.013-14.242c-5.019-10.192-19.522-10.192-24.541 0l-4.785 9.716 6.339 12.873c1.993 4.047 5.846 6.853 10.303 7.502l15.682 2.284c11.224 1.634 15.705 15.457 7.584 23.391l-11.348 11.085c-3.225 3.15-4.697 7.689-3.935 12.138l2.679 15.653c.047.276.08.549.11.821l10.035 5.288c10.039 5.289 21.771-3.254 19.854-14.457l-2.679-15.653c-.761-4.448.71-8.987 3.935-12.138l11.348-11.086c8.122-7.933 3.64-21.755-7.583-23.39z" fill="#ffd86e"/></g><path d="m416.286 402.144 7.013 14.241c1.993 4.047 5.846 6.853 10.303 7.502l15.682 2.284c11.224 1.634 15.705 15.457 7.584 23.391l-11.348 11.085c-3.225 3.15-4.697 7.69-3.935 12.138l2.679 15.653c1.917 11.202-9.816 19.745-19.854 14.456l-14.027-7.39c-3.986-2.1-8.749-2.1-12.735 0l-14.027 7.39c-10.039 5.289-21.771-3.254-19.854-14.456l2.679-15.653c.761-4.448-.71-8.988-3.935-12.138l-11.348-11.085c-8.121-7.934-3.64-21.756 7.584-23.391l15.682-2.284c4.457-.649 8.31-3.454 10.303-7.502l7.013-14.241c5.019-10.192 19.522-10.192 24.541 0z" fill="#ffe589"/><g><path d="m449.285 426.171-15.682-2.284c-4.457-.649-8.31-3.454-10.303-7.501l-7.013-14.242c-5.019-10.192-19.522-10.192-24.541 0l-4.576 9.292 6.131 12.449c1.993 4.047 5.846 6.853 10.303 7.501l15.682 2.284c11.224 1.635 15.705 15.457 7.584 23.391l-11.348 11.086c-3.225 3.15-4.697 7.689-3.935 12.138l2.679 15.653c.099.577.152 1.145.181 1.706l9.965 5.25c10.039 5.289 21.771-3.254 19.854-14.457l-2.679-15.653c-.761-4.448.71-8.987 3.935-12.138l11.348-11.086c8.12-7.932 3.638-21.755-7.585-23.389z" fill="#ffd86e"/></g><path d="m270.008 387.256 7.998 16.313c2.273 4.636 6.667 7.849 11.749 8.593l17.883 2.616c12.799 1.872 17.909 17.705 8.648 26.793l-12.941 12.698c-3.678 3.609-5.356 8.808-4.488 13.904l3.055 17.93c2.186 12.832-11.193 22.617-22.641 16.559l-15.995-8.465c-4.546-2.406-9.977-2.406-14.522 0l-15.995 8.465c-11.448 6.058-24.827-3.727-22.641-16.559l3.055-17.93c.868-5.096-.81-10.295-4.488-13.904l-12.941-12.698c-9.261-9.088-4.151-24.921 8.648-26.793l17.883-2.616c5.082-.743 9.476-3.957 11.749-8.593l7.998-16.313c5.725-11.675 22.263-11.675 27.986 0z" fill="#ffe589"/><g><path d="m307.638 414.778-17.884-2.616c-5.082-.744-9.476-3.957-11.749-8.593l-7.998-16.313c-5.724-11.675-22.262-11.675-27.985 0l-3.044 6.209c.371.565.719 1.157 1.03 1.791l7.998 16.313c2.273 4.636 6.667 7.85 11.749 8.593l17.884 2.616c12.799 1.873 17.909 17.706 8.648 26.793l-12.941 12.698c-3.678 3.609-5.356 8.808-4.488 13.904l3.055 17.93c.278 1.633.302 3.215.112 4.723l7.247 3.835c11.448 6.059 24.827-3.727 22.641-16.559l-3.055-17.93c-.868-5.096.81-10.295 4.488-13.904l12.941-12.698c9.261-9.087 4.15-24.92-8.649-26.792z" fill="#ffd86e"/></g><g><path d="m154.367 418.756-15.683-2.284c-2.013-.293-3.753-1.562-4.655-3.394l-7.014-14.241c-7.55-15.696-30.452-15.691-37.998 0l-7.014 14.241c-.902 1.832-2.643 3.101-4.655 3.394l-15.683 2.284c-8.029 1.169-14.579 6.695-17.093 14.421-2.518 7.737-.467 16.074 5.35 21.756l11.348 11.085c1.463 1.43 2.13 3.489 1.784 5.509l-2.679 15.653c-1.374 8.027 1.863 15.983 8.449 20.762 3.709 2.691 8.045 4.058 12.41 4.058 3.368 0 6.755-.814 9.883-2.462l14.027-7.39c1.797-.948 3.945-.947 5.742 0l14.027 7.39c7.181 3.783 15.723 3.172 22.293-1.595 6.586-4.779 9.823-12.735 8.449-20.762l-2.679-15.652c-.346-2.021.321-4.08 1.784-5.509l11.347-11.085c5.817-5.683 7.868-14.019 5.351-21.757-2.512-7.727-9.062-13.252-17.091-14.422zm1.261 25.448-11.348 11.086c-4.988 4.874-7.264 11.889-6.087 18.768l2.679 15.654c.591 3.448-1.533 5.407-2.474 6.09-.933.677-3.431 2.079-6.491.465l-14.027-7.39c-6.176-3.254-13.551-3.254-19.726 0l-14.027 7.39c-3.061 1.613-5.559.211-6.491-.465-.94-.683-3.064-2.642-2.474-6.09l2.679-15.654c1.177-6.878-1.099-13.893-6.087-18.767l-11.349-11.086c-2.496-2.439-1.927-5.278-1.566-6.385.358-1.102 1.562-3.719 4.99-4.218l15.683-2.284c6.902-1.005 12.865-5.346 15.95-11.61l7.014-14.241c2.311-4.642 8.767-4.65 11.084 0l7.014 14.241c3.085 6.264 9.048 10.605 15.95 11.611l15.683 2.284c3.429.499 4.632 3.116 4.99 4.218.358 1.105.928 3.944-1.569 6.383z"/><path d="m462.107 454.934c12.554-12.032 5.489-33.83-11.742-36.178l-15.683-2.284c-2.014-.293-3.753-1.562-4.655-3.393l-7.014-14.242c-7.55-15.697-30.452-15.691-37.998 0l-7.014 14.242c-.902 1.832-2.642 3.1-4.655 3.393l-15.683 2.284c-17.237 2.35-24.292 24.151-11.743 36.178l11.348 11.086c1.463 1.429 2.13 3.488 1.784 5.508l-2.679 15.653c-1.374 8.027 1.863 15.983 8.449 20.762 3.709 2.691 8.045 4.058 12.41 4.058 3.368 0 6.755-.814 9.883-2.462l14.027-7.39c1.799-.947 3.945-.947 5.742 0l14.027 7.39c7.181 3.783 15.722 3.172 22.293-1.595 6.586-4.779 9.823-12.735 8.449-20.762l-2.679-15.652c-.346-2.021.321-4.081 1.784-5.509zm-21.829.356c-4.987 4.873-7.264 11.889-6.087 18.768l2.679 15.654c.591 3.448-1.533 5.407-2.474 6.09-.933.677-3.431 2.079-6.491.465l-14.027-7.39c-6.176-3.255-13.551-3.254-19.726 0l-14.027 7.39c-3.061 1.613-5.559.211-6.491-.465-.94-.683-3.064-2.642-2.474-6.09l2.679-15.654c1.177-6.879-1.1-13.894-6.087-18.767l-11.349-11.086c-2.496-2.439-1.927-5.278-1.567-6.385.359-1.102 1.562-3.719 4.991-4.218l15.683-2.284c6.902-1.005 12.865-5.345 15.95-11.61l7.014-14.242c2.312-4.642 8.766-4.65 11.084 0l7.014 14.242c3.085 6.265 9.048 10.605 15.95 11.61l15.683 2.284c3.429.499 4.632 3.116 4.991 4.218.359 1.107.929 3.947-1.568 6.386z"/><path d="m308.723 407.364-17.883-2.616c-2.636-.386-4.916-2.058-6.101-4.473l-7.997-16.314c-8.231-17.187-33.228-17.182-41.455 0l-7.997 16.312c-1.185 2.416-3.465 4.088-6.1 4.474l-17.885 2.616c-8.739 1.278-15.876 7.309-18.625 15.738-2.764 8.471-.536 17.602 5.811 23.829l4.947 4.855c2.955 2.901 7.704 2.857 10.606-.1 2.9-2.957 2.855-7.705-.101-10.606l-4.947-4.855c-2.286-2.243-3.055-5.409-2.056-8.471.984-3.019 3.428-5.093 6.535-5.548l17.885-2.616c7.53-1.102 14.034-5.854 17.397-12.713l7.997-16.313c2.734-6.029 11.783-6.028 14.517 0l7.997 16.314c3.363 6.858 9.867 11.61 17.398 12.712l17.883 2.616c3.108.455 5.552 2.529 6.536 5.548.999 3.062.23 6.228-2.056 8.471l-12.94 12.698c-5.431 5.329-7.908 12.999-6.628 20.517l3.055 17.93c.542 3.18-.683 6.198-3.276 8.075-2.535 1.835-5.698 2.057-8.463.595l-15.995-8.465c-6.742-3.569-14.794-3.57-21.538 0l-15.997 8.465c-2.761 1.462-5.925 1.241-8.462-.595-2.594-1.877-3.818-4.896-3.276-8.076l1.636-9.602c.695-4.083-2.051-7.957-6.134-8.653-4.091-.694-7.957 2.051-8.653 6.134l-1.636 9.602c-1.501 8.807 2.052 17.523 9.27 22.747 7.179 5.197 16.49 5.822 24.271 1.701l15.997-8.466c2.348-1.243 5.151-1.245 7.505 0l15.995 8.465c7.811 4.132 17.112 3.482 24.272-1.701 7.219-5.224 10.771-13.94 9.27-22.747l-3.055-17.93c-.456-2.676.421-5.401 2.347-7.291l12.94-12.697c6.347-6.228 8.574-15.359 5.811-23.83-2.745-8.427-9.881-14.458-18.622-15.736z"/><path d="m61.017 343.352h389.998c9.931-.344 9.923-14.66 0-15h-25.5v-60.501c0-7.275-5.788-13.209-13-13.475v-26.987c-.344-9.931-14.659-9.924-15 0v26.962h-15v-96.611c4.768 1.143 10.076 1.423 15 .734v33.837c.344 9.931 14.659 9.924 15 0v-38.902c12.529-7.151 21-20.631 21-36.061v-50.001c0-15.164-12.337-27.5-27.5-27.5h-5.5v-12.116c0-15.291-12.44-27.731-27.731-27.731h-158.896c-9.931.344-9.923 14.66 0 15h158.896c7.02 0 12.73 5.711 12.73 12.731v12.115h-258.997v-12.115c0-7.02 5.711-12.731 12.73-12.731h39.359c9.931-.344 9.923-14.66 0-15h-39.359c-15.291 0-27.73 12.44-27.73 27.731v12.115h-5.5c-15.163 0-27.5 12.337-27.5 27.5v50.001c0 15.43 8.471 28.91 21 36.061v100.966c-7.212.266-13 6.2-13 13.475v60.501h-25.5c-9.931.345-9.923 14.661 0 15.002zm306.498-89.002h-124.871v-52.501c0-6.341-5.159-11.5-11.5-11.5h-52c-6.341 0-11.5 5.159-11.5 11.5v52.501h-23.128v-103.533c3.673-2.696 6.884-5.982 9.5-9.715 16.088 23.534 51.921 23.523 68 0 16.088 23.534 51.921 23.523 68 0 16.088 23.534 51.921 23.523 68 0 2.616 3.734 5.827 7.019 9.5 9.715v103.533zm-139.871 0h-45v-49h45zm190.871-187.003v50.001c-1.46 35.165-51.553 35.138-53 0v-62.501h40.5c6.892 0 12.5 5.608 12.5 12.5zm-68 50.001c-1.46 35.165-51.553 35.138-53 0v-62.501h53zm-67.999 0c-1.46 35.165-51.553 35.138-53 0v-62.501h53zm-68 0c-1.46 35.165-51.553 35.138-53 0v-62.501h53zm-120.999-50.001c0-6.893 5.607-12.5 12.5-12.5h40.5v62.501c-1.46 35.165-51.553 35.138-53 0zm26.5 91.502c3.269 0 6.447-.392 9.5-1.11v96.611h-15v-95.877c1.801.24 3.634.376 5.5.376zm-18.5 110.502h5.423c.026 0 .051.004.077.004h30c.026 0 .051-.004.077-.004h237.844c.026 0 .051.004.077.004h30c.026 0 .051-.004.077-.004h5.423v59.001h-308.998z"/></g></g></svg>