<svg id="Layer_1" enable-background="new 0 0 512 512" height="512" viewBox="0 0 512 512" width="512" xmlns="http://www.w3.org/2000/svg"><g><path d="m296 504.5h-214c-22.091 0-40-17.909-40-40v-417c0-22.091 17.909-40 40-40h214c22.091 0 40 17.909 40 40v417c0 22.091-17.909 40-40 40z" fill="#7b727b"/><path d="m296 7.5h-30c22.091 0 40 17.909 40 40v417c0 22.091-17.909 40-40 40h30c22.091 0 40-17.909 40-40v-417c0-22.091-17.909-40-40-40z" fill="#686169"/><path d="m310 47.5v417c0 7.732-6.268 14-14 14h-214c-7.732 0-14-6.268-14-14v-417c0-7.732 6.268-14 14-14h40.104c2.331 0 4.405 1.48 5.164 3.684l5.284 15.353c.759 2.204 2.833 3.684 5.164 3.684h102.568c2.331 0 4.405-1.48 5.164-3.684l5.284-15.353c.759-2.204 2.833-3.684 5.164-3.684h40.104c7.732 0 14 6.268 14 14z" fill="#d6faec"/><path d="m228 414h-78c-11.598 0-21-9.402-21-21 0-11.598 9.402-21 21-21h78c11.598 0 21 9.402 21 21 0 11.598-9.402 21-21 21z" fill="#ff6167"/><g><path d="m296 33.5h-30c7.732 0 14 6.268 14 14v417c0 7.732-6.268 14-14 14h30c7.732 0 14-6.268 14-14v-417c0-7.732-6.268-14-14-14z" fill="#ccfae8"/></g><path d="m456 318h-252c-7.732 0-14-6.268-14-14v-186c0-7.732 6.268-14 14-14h252c7.732 0 14 6.268 14 14v186c0 7.732-6.268 14-14 14z" fill="#7edbb0"/><path d="m456 104h-30c7.732 0 14 6.268 14 14v186c0 7.732-6.268 14-14 14h30c7.732 0 14-6.268 14-14v-186c0-7.732-6.268-14-14-14z" fill="#51d39e"/><g><path d="m150 421.5h78c37.818-1.57 37.789-55.444 0-57h-78c-37.818 1.57-37.789 55.444 0 57zm0-42h78c17.914.743 17.9 26.263 0 27h-78c-17.914-.743-17.9-26.263 0-27z"/><path d="m456 96.5h-33.692c-9.931.344-9.923 14.66 0 15h33.692c3.584 0 6.5 2.916 6.5 6.5v186c0 3.584-2.916 6.5-6.5 6.5h-252c-3.584 0-6.5-2.916-6.5-6.5v-186c0-3.584 2.916-6.5 6.5-6.5h183.23c9.931-.344 9.923-14.66 0-15h-43.73v-49c0-26.191-21.309-47.5-47.5-47.5h-214c-26.191 0-47.5 21.309-47.5 47.5v38.961c.344 9.931 14.66 9.923 15 0v-38.961c0-17.92 14.579-32.5 32.5-32.5h214c17.921 0 32.5 14.58 32.5 32.5v49h-11v-49c0-11.855-9.645-21.5-21.5-21.5h-40.1c-5.529 0-10.455 3.509-12.263 8.742l-4.805 13.979h-99.666l-4.809-13.988c-1.802-5.224-6.728-8.733-12.257-8.733h-40.1c-11.855 0-21.5 9.645-21.5 21.5v417c0 11.855 9.645 21.5 21.5 21.5h214c11.855 0 21.5-9.645 21.5-21.5v-26.859c-.344-9.931-14.66-9.923-15 0v26.859c0 3.584-2.916 6.5-6.5 6.5h-214c-3.584 0-6.5-2.916-6.5-6.5v-417c0-3.584 2.916-6.5 6.5-6.5h38.652l4.809 13.988c1.803 5.223 6.729 8.732 12.259 8.732h102.56c5.529 0 10.456-3.509 12.263-8.742l4.805-13.978h38.652c3.584 0 6.5 2.916 6.5 6.5v49h-98.5c-11.855 0-21.5 9.645-21.5 21.5v186c0 11.855 9.645 21.5 21.5 21.5h98.5v76.859c.344 9.931 14.66 9.923 15 0v-76.859h11v139c0 17.92-14.579 32.5-32.5 32.5h-214c-17.921 0-32.5-14.58-32.5-32.5v-342.346c-.344-9.931-14.66-9.923-15 0v342.346c0 26.191 21.309 47.5 47.5 47.5h214c26.191 0 47.5-21.309 47.5-47.5v-139h112.5c11.855 0 21.5-9.645 21.5-21.5v-186c0-11.855-9.645-21.5-21.5-21.5z"/><path d="m112.205 208.474c0 4.142 3.357 7.5 7.5 7.5h28.605l-10.643 13.171c-2.604 3.222-2.103 7.944 1.119 10.547 1.388 1.122 3.054 1.667 4.709 1.667 2.188 0 4.356-.953 5.838-2.787l20.513-25.385c2.223-2.75 2.223-6.678 0-9.428l-20.513-25.384c-2.603-3.222-7.324-3.722-10.547-1.12-3.222 2.604-3.723 7.326-1.119 10.547l10.643 13.17h-28.604c-4.144.002-7.501 3.36-7.501 7.502z"/><path d="m300.475 280.157c3.725 1.591 8.215-.155 9.818-4.013l55.024-131.111c1.603-3.819-.194-8.215-4.014-9.818-3.819-1.601-8.215.194-9.818 4.013l-55.024 131.111c-1.603 3.819.194 8.215 4.014 9.818z"/><path d="m324.656 164.271c0-19.714-14.271-35.752-31.812-35.752-42.196 1.933-42.181 69.581 0 71.505 17.541 0 31.812-16.038 31.812-35.753zm-31.812 20.753c-9.271 0-16.813-9.31-16.813-20.753.951-27.541 32.678-27.536 33.626 0-.001 11.444-7.543 20.753-16.813 20.753z"/><path d="m367.156 289.667c17.542 0 31.813-16.039 31.813-35.752-1.764-47.435-61.867-47.425-63.626 0 .001 19.713 14.272 35.752 31.813 35.752zm0-56.505c9.271 0 16.813 9.31 16.813 20.752-.951 27.541-32.678 27.536-33.626 0 .001-11.442 7.543-20.752 16.813-20.752z"/></g></g></svg>