<svg id="Layer_1" enable-background="new 0 0 512 512" height="512" viewBox="0 0 512 512" width="512" xmlns="http://www.w3.org/2000/svg"><g><path d="m504.5 110.021h-370l32.918-58.984c1.735-3.109 5.018-5.037 8.58-5.037h287.004c3.562 0 6.844 1.927 8.58 5.037z" fill="#efefef"/><path d="m471.582 51.036c-1.735-3.109-5.018-5.037-8.58-5.037h-35.577c3.562 0 6.845 1.927 8.58 5.037l32.918 58.984h35.577z" fill="#e7e7e7"/><path d="m472.726 354h-306.452l-31.774-243.979h370z" fill="#f8f7f7"/><path d="m468.923 110.021-31.774 243.979h35.577l31.774-243.979z" fill="#efefef"/><path d="m389.747 238.208h-136.212c-2.427 0-4.394-1.967-4.394-4.394v-5.106c0-40.041 32.459-72.5 72.5-72.5 40.041 0 72.5 32.459 72.5 72.5v5.106c0 2.426-1.968 4.394-4.394 4.394z" fill="#ff6167"/><path d="m321.641 156.208c-5.144 0-10.159.544-15 1.563 32.841 6.91 57.5 36.04 57.5 70.937v5.106c0 2.427-1.967 4.394-4.394 4.394h30c2.427 0 4.394-1.967 4.394-4.394v-5.106c0-40.041-32.46-72.5-72.5-72.5z" fill="#fe454a"/><path d="m405.79 353.915c0 9.993-8.059 18.094-18 18.094h-93.239c-22.185 0-44.049 5.333-63.767 15.553l-107.808 55.882c-8.779 4.551-18.235 7.651-28.001 9.182l-85.165 13.35c-1.213.19-2.309-.749-2.309-1.979v-86.988c0-1.012.754-1.865 1.757-1.988l48.662-5.972c8.861-1.087 17.47-3.694 25.449-7.705l34.973-17.58c10.448-5.252 19.869-12.352 27.813-20.961l58.271-63.151c5.995-6.497 15.876-7.52 23.071-2.39 7.993 5.699 9.813 16.865 4.047 24.831l-31.405 43.385c-3.116 4.304-.057 10.344 5.239 10.344h182.412c9.941-.001 18 8.1 18 18.093z" fill="#ffd8ca"/><g fill="#ffbead"><path d="m201.543 282.091-31.405 43.386c-3.116 4.304-.057 10.344 5.239 10.344h30c-5.296 0-8.354-6.04-5.239-10.344l31.405-43.386c5.766-7.965 3.946-19.131-4.047-24.831-7.202-5.135-17.074-4.109-23.079 2.398l-2.295 2.488c3.791 5.952 3.815 13.875-.579 19.945z"/><path d="m387.79 335.821h-30c9.941 0 18 8.101 18 18.094 0 9.993-8.059 18.094-18 18.094h30c9.941 0 18-8.101 18-18.094 0-9.993-8.059-18.094-18-18.094z"/><path d="m200.784 387.562-107.809 55.881c-8.78 4.551-18.231 7.651-27.991 9.181l-57.484 9.011v2.362c0 1.23 1.096 2.169 2.309 1.979l85.175-13.351c9.76-1.53 19.212-4.63 27.991-9.181l107.808-55.881c19.718-10.221 41.582-15.554 63.767-15.554h-30c-22.185-.001-44.048 5.332-63.766 15.553z"/></g><g><path d="m511.051 106.369c-.001-.001-.001-.003-.002-.004l-32.918-58.984c-3.058-5.478-8.854-8.881-15.129-8.881h-41.831c-9.931.344-9.923 14.66 0 15h41.831c.843 0 1.621.456 2.031 1.191l26.692 47.828h-344.45l26.692-47.828c.41-.735 1.188-1.191 2.031-1.191h209.453c9.931-.344 9.923-14.66 0-15h-209.453c-6.275 0-12.072 3.403-15.129 8.881l-32.918 58.984c-.001.001-.001.003-.002.005-.776 1.393-1.095 3.01-.886 4.618l3.936 30.224c.534 4.106 4.298 6.994 8.405 6.469 4.107-.535 7.004-4.299 6.469-8.406l-2.832-21.754h352.92l-29.818 228.979h-53.948c-3.175-10.507-12.913-18.179-24.405-18.179h-180.452l30.28-41.832c3.973-5.488 5.557-12.197 4.46-18.891-1.095-6.683-4.728-12.522-10.229-16.444-10.243-7.303-24.402-5.838-32.937 3.41l-33.325 36.116-15.196-116.706c-.535-4.106-4.301-7.006-8.405-6.469-4.107.535-7.004 4.299-6.469 8.406l16.815 129.135-11.69 12.669c-7.357 7.974-15.994 14.483-25.669 19.347l-34.973 17.58c-7.23 3.635-14.967 5.977-22.994 6.961l-48.662 5.972c-4.757.584-8.344 4.639-8.344 9.433v86.988c0 2.782 1.212 5.416 3.327 7.224 2.112 1.812 4.925 2.596 7.644 2.165l85.165-13.35c10.585-1.659 20.777-5.001 30.292-9.934l44.573-23.104c8.658-4.875 2.064-17.581-6.903-13.316l-44.573 23.104c-8.076 4.186-16.727 7.022-25.711 8.432l-78.814 12.353v-75.699l43.832-5.379c9.742-1.195 19.13-4.037 27.904-8.447l34.973-17.58c11.292-5.677 21.372-13.272 29.957-22.577l58.271-63.15c3.421-3.709 9.098-4.298 13.205-1.37 2.222 1.585 3.69 3.948 4.134 6.657.446 2.72-.196 5.443-1.808 7.67l-31.405 43.385c-3.107 4.293-3.541 9.893-1.129 14.614 2.402 4.705 7.17 7.628 12.443 7.628h182.413c13.933.582 13.922 20.611 0 21.188h-93.239c-23.282 0-46.526 5.669-67.218 16.395l-32.164 16.671c-3.678 1.906-5.114 6.433-3.208 10.11s6.433 5.112 10.11 3.208l32.164-16.672c18.569-9.624 39.426-14.712 60.316-14.712h93.239c11.43 0 21.128-7.588 24.357-18.009h60.583c3.768 0 6.951-2.795 7.437-6.531l31.77-243.98c.21-1.611-.11-3.228-.886-4.621z"/><path d="m253.535 245.708h136.212c6.559 0 11.894-5.336 11.894-11.895v-5.105c-4.407-106.157-155.633-106.075-160 0v5.105c0 6.559 5.335 11.895 11.894 11.895zm3.106-17c3.581-86.252 126.451-86.186 130 0v2h-130z"/></g></g></svg>