<svg id="Layer_1" enable-background="new 0 0 512.025 512.025" height="512" viewBox="0 0 512.025 512.025" width="512" xmlns="http://www.w3.org/2000/svg"><g><path d="m350.986 474.403h-190v-97.998l95-86.114 95 86.114z" fill="#f8f7f7"/><path d="m320.986 349.211v125.192h30v-97.998z" fill="#efefef"/><path d="m375.986 504.525h-240c-8.284 0-15-6.716-15-15 0-8.284 6.716-15 15-15h240c8.284 0 15 6.716 15 15 0 8.284-6.716 15-15 15z" fill="#e07f5d"/><path d="m375.986 474.525h-30c8.284 0 15 6.716 15 15s-6.716 15-15 15h30c8.284 0 15-6.716 15-15s-6.716-15-15-15z" fill="#d06d4a"/><path d="m292.986 474.525h-74v-63c0-20.435 16.565-37 37-37 20.435 0 37 16.565 37 37z" fill="#686169"/><path d="m384.113 382.46-118-108c-5.73-5.247-14.523-5.247-20.254 0l-118 108c-6.111 5.593-6.531 15.081-.938 21.192 5.594 6.111 15.083 6.53 21.192.938l107.873-98.731 107.873 98.731c2.878 2.635 6.506 3.936 10.123 3.935 4.062 0 8.11-1.64 11.069-4.873 5.593-6.111 5.173-15.599-.938-21.192z" fill="#ff6167"/><path d="m164.804 138.238h-131.679c-8.842 0-16.01-7.168-16.01-16.01v-11.273c0-1.773 1.437-3.21 3.21-3.21h157.28c1.773 0 3.21 1.437 3.21 3.21v11.273c-.001 8.842-7.169 16.01-16.011 16.01z" fill="#e0925b"/><path d="m177.604 107.745h-30c1.773 0 3.21 1.437 3.21 3.21v11.273c0 8.842-7.168 16.01-16.01 16.01h30c8.842 0 16.01-7.168 16.01-16.01v-11.273c0-1.773-1.437-3.21-3.21-3.21z" fill="#d48145"/><path d="m177.608 79.745h-157.287c-1.814 0-3.266-1.497-3.209-3.31.444-14.159 7.001-68.91 81.852-68.91s81.408 54.752 81.852 68.91c.058 1.814-1.394 3.31-3.208 3.31z" fill="#e0925b"/><path d="m98.965 7.525c-5.344 0-10.329.288-15 .811 60.745 6.809 66.44 54.951 66.852 68.099.057 1.813-1.395 3.31-3.209 3.31h30c1.814 0 3.266-1.497 3.209-3.31-.444-14.158-7.001-68.91-81.852-68.91z" fill="#d48145"/><path d="m176.444 107.745h-154.958c-7.732 0-14-6.268-14-14 0-7.732 6.268-14 14-14h154.958c7.732 0 14 6.268 14 14 0 7.732-6.268 14-14 14z" fill="#e07f5d"/><path d="m176.444 79.745h-30c7.732 0 14 6.268 14 14s-6.268 14-14 14h30c7.732 0 14-6.268 14-14s-6.268-14-14-14z" fill="#d06d4a"/><path d="m490.709 13.427v173.536c0 4.202-5.081 6.306-8.052 3.335l-122.7-122.715c-2.35-2.35-2.307-6.19.117-8.464 32.79-30.768 76.447-50.093 124.588-51.591 3.314-.103 6.047 2.584 6.047 5.899z" fill="#e49a6b"/><path d="m484.662 7.528c-8.511.265-16.878 1.098-25.073 2.442.702.973 1.121 2.166 1.121 3.457v154.92l21.948 21.951c2.971 2.972 8.052.867 8.052-3.335v-173.536c-.001-3.315-2.734-6.002-6.048-5.899z" fill="#e0925b"/><path d="m490.709 44.554v-31.127c0-3.315-2.734-6.002-6.047-5.899-48.141 1.498-91.798 20.824-124.588 51.592-2.423 2.274-2.467 6.114-.117 8.464l20.661 20.663c30.234-25.142 68.351-41.12 110.091-43.693z" fill="#e0925b"/><g><path d="m484.662 7.528c-8.511.265-16.878 1.098-25.073 2.442.702.973 1.121 2.166 1.121 3.457v35.383c9.741-2.182 19.76-3.625 30-4.255v-31.128c-.001-3.316-2.734-6.002-6.048-5.899z" fill="#d48145"/></g><g fill="#d64239"><circle cx="421.332" cy="122.929" r="17"/><circle cx="487.486" cy="141.98" r="17"/><circle cx="463.581" cy="84.599" r="17"/></g><g><path d="m375.986 467.025h-17.5v-57.185l.309.282c8.754 8.349 23.8 7.658 31.79-1.406 8.375-9.152 7.744-23.412-1.408-31.788l-117.999-107.997c-8.661-7.931-21.723-7.932-30.382-.001l-71.068 65.045c-3.056 2.796-3.266 7.54-.469 10.596 2.797 3.055 7.541 3.266 10.596.469l71.069-65.046c2.886-2.643 7.238-2.642 10.125.001l118 107.999c3.051 2.792 3.261 7.546.47 10.596-2.658 3.039-7.674 3.248-10.597.47l-107.873-98.73c-2.866-2.623-7.261-2.623-10.127 0l-107.874 98.73c-1.477 1.352-3.387 2.044-5.394 1.96-2.001-.089-3.849-.951-5.201-2.429-2.792-3.051-2.581-7.805.469-10.597l21.199-19.402c3.056-2.796 3.266-7.54.469-10.596s-7.542-3.266-10.596-.469l-21.2 19.402c-14.71 13.404-5.671 38.278 14.197 39.075 6.002.257 11.752-1.824 16.184-5.881l.31-.283v57.185h-17.5c-29.857 1.24-29.834 43.771 0 45h240c29.857-1.239 29.834-43.771.001-45zm-90.5-.12h-59v-55.38c1.625-39.144 57.389-39.114 59 0zm-29.5-150.877 87.5 80.084v70.793h-43v-55.38c-2.451-59.048-86.571-59.003-89 0v55.38h-43v-70.794zm120 180.997h-240c-9.929-.353-9.922-14.65 0-15h240c9.929.353 9.921 14.651 0 15z"/><path d="m188.314 122.232v-10.573c12.777-8.306 12.763-27.538-.015-35.828-1.633-44.195-34.907-76.981-89.335-75.8-19.064-.001-35.531 3.431-48.944 10.2-3.698 1.865-5.183 6.376-3.317 10.074 1.867 3.698 6.377 5.184 10.075 3.316 11.298-5.701 25.492-8.592 42.187-8.592 61.399 0 72.295 39.39 74.064 57.219h-148.118c.697-6.804 2.839-17.757 9.282-28.145 2.183-3.52 1.1-8.144-2.42-10.326-3.521-2.186-8.144-1.101-10.327 2.42-9.553 15.401-11.513 31.294-11.815 39.633-12.785 8.295-12.788 27.527-.016 35.829v10.573c0 12.963 10.546 23.51 23.51 23.51h131.68c12.963-.001 23.509-10.547 23.509-23.51zm-11.87-34.983c8.605.306 8.599 12.697 0 13h-154.958c-8.605-.306-8.599-12.697 0-13zm-151.829 34.983v-6.982h148.699v6.982c0 4.692-3.817 8.51-8.51 8.51h-131.679c-4.693-.001-8.51-3.818-8.51-8.51z"/><path d="m511.986 141.984c0-9.667-5.629-18.042-13.78-22.025v-106.53c0-3.607-1.486-7.118-4.077-9.632-2.616-2.537-6.064-3.896-9.696-3.764-24.49.763-48.288 5.946-70.731 15.407-3.817 1.609-5.607 6.008-3.998 9.824 1.609 3.817 6.007 5.61 9.824 3.998 20.222-8.523 41.64-13.291 63.678-14.177v22.546c-37.284 3.619-72.402 17.584-102.037 40.563l-14.741-14.741c7.334-6.756 15.255-12.946 23.567-18.415 3.46-2.277 4.419-6.928 2.143-10.389-2.277-3.459-6.928-4.417-10.388-2.143-9.49 6.245-18.509 13.357-26.816 21.151-2.657 2.503-4.151 5.894-4.206 9.548-.054 3.606 1.376 7.136 3.925 9.686l43.167 43.167c-5.599 18.215 12.165 35.979 30.377 30.386l49.156 49.156c3.519 3.527 8.785 4.534 13.315 2.647 4.579-1.896 7.538-6.325 7.538-11.281v-22.959c8.151-3.982 13.78-12.356 13.78-22.023zm-22.581 9.304c-.073.013-.147.02-.219.034-5.735 1.119-11.262-3.494-11.2-9.339.521-12.602 18.48-12.6 19 0 0 4.581-3.259 8.415-7.581 9.305zm-77.573-28.356c0-5.237 4.262-9.499 9.5-9.499 12.604.522 12.599 18.479 0 18.999-5.238 0-9.5-4.262-9.5-9.5zm28.945 14.88c16.849-23.069-11.267-51.163-34.319-34.329l-14.588-14.587c26.681-20.254 58.052-32.683 91.336-36.181v17.236c-13.975-18.66-43.979-8.967-44.124 14.652.146 23.62 30.154 33.31 44.124 14.651v18.611c-26.824 5.294-26.805 42.953 0 48.236v14.14zm32.304-53.209c0 5.238-4.262 9.5-9.5 9.5-12.603-.522-12.599-18.48 0-19 5.239 0 9.5 4.262 9.5 9.5z"/><path d="m100.024 155.14c-.344-9.931-14.66-9.923-15 0v5c.344 9.931 14.66 9.923 15 0z"/><path d="m92.524 182.789c-4.142 0-7.5 3.357-7.5 7.5v10.05c.344 9.931 14.66 9.923 15 0v-10.05c0-4.142-3.358-7.5-7.5-7.5z"/><path d="m99.732 228.408c-2.482-8.215-14.565-6.607-14.708 2.08v4.999c0 4.143 3.358 7.5 7.5 7.5h4.725c8.455-.118 10.318-11.748 2.483-14.579z"/><path d="m130.07 227.987c-9.931.344-9.923 14.659 0 15h11.576c9.931-.344 9.923-14.659 0-15z"/><path d="m186.056 235.487c0-4.143-3.358-7.5-7.5-7.5h-4.726c-8.455.118-10.318 11.749-2.482 14.579 2.482 8.216 14.565 6.609 14.708-2.079z"/><path d="m186.056 259.69c-.344-9.931-14.66-9.923-15 0v6.4c.344 9.931 14.66 9.923 15 0z"/><path d="m178.556 277.793c-4.142 0-7.5 3.357-7.5 7.5v5c.344 9.931 14.66 9.923 15 0v-5c0-4.143-3.357-7.5-7.5-7.5z"/><path d="m421.332 160.049c-4.142 0-7.5 3.357-7.5 7.5v5c.344 9.931 14.66 9.923 15 0v-5c0-4.143-3.358-7.5-7.5-7.5z"/><path d="m421.332 188.004c-4.142 0-7.5 3.357-7.5 7.5v7.651c.344 9.931 14.66 9.923 15 0v-7.651c0-4.143-3.358-7.5-7.5-7.5z"/><path d="m421.332 218.61c-3.384 0-6.245 2.241-7.179 5.321-8.125 2.571-6.45 14.542 2.179 14.679h5c4.142 0 7.5-3.357 7.5-7.5v-5c0-4.142-3.358-7.5-7.5-7.5z"/><path d="m384.04 238.61c9.931-.344 9.923-14.659 0-15h-10.764c-9.931.344-9.923 14.659 0 15z"/><path d="m335.986 243.609c3.384 0 6.245-2.241 7.178-5.32 8.125-2.571 6.451-14.542-2.178-14.679h-5c-4.142 0-7.5 3.357-7.5 7.5v4.999c0 4.143 3.358 7.5 7.5 7.5z"/><path d="m335.986 269.629c4.142 0 7.5-3.357 7.5-7.5v-6.505c-.344-9.931-14.66-9.923-15 0v6.505c0 4.142 3.358 7.5 7.5 7.5z"/><path d="m335.986 294.142c4.142 0 7.5-3.357 7.5-7.5v-5c-.344-9.931-14.66-9.923-15 0v5c0 4.143 3.358 7.5 7.5 7.5z"/></g></g></svg>