<svg id="Layer_1" enable-background="new 0 0 512 512" height="512" viewBox="0 0 512 512" width="512" xmlns="http://www.w3.org/2000/svg"><g><path d="m410.371 504.5h-308.742c-11.945 0-21.629-9.684-21.629-21.629v-162.934c0-11.945 9.684-21.629 21.629-21.629h308.742c11.945 0 21.629 9.684 21.629 21.629v162.934c0 11.945-9.684 21.629-21.629 21.629z" fill="#e0925b"/><path d="m410.367 298.308h-30.01c11.947 0 21.633 9.682 21.633 21.626v162.941c0 11.944-9.685 21.626-21.633 21.626h30.01c11.947 0 21.633-9.682 21.633-21.626v-162.942c0-11.943-9.685-21.625-21.633-21.625z" fill="#d48145"/><path d="m410.367 298.308h-308.734c-11.948 0-21.633 9.682-21.633 21.625v17.567h352v-17.567c0-11.943-9.685-21.625-21.633-21.625z" fill="#686169"/><path d="m410.367 298.308h-30.01c11.947 0 21.633 9.682 21.633 21.626v17.566h30.01v-17.567c0-11.943-9.685-21.625-21.633-21.625z" fill="#555055"/><g fill="#ffbead"><path d="m172.894 207.244c0 21.879-13.38 39.615-29.885 39.615s-26.093-20.369-26.093-42.248 9.588-36.983 26.093-36.983 29.885 17.737 29.885 39.616z"/><path d="m339.106 207.244c0 21.879 13.38 39.615 29.885 39.615s26.093-20.369 26.093-42.248-9.588-36.983-26.093-36.983-29.885 17.737-29.885 39.616z"/></g><path d="m389.394 504.5h-266.788c-9.171 0-16.606-7.435-16.606-16.606v-25.342c0-49.87 40.427-90.297 90.297-90.297h119.406c49.87 0 90.297 40.427 90.297 90.297v25.342c0 9.171-7.435 16.606-16.606 16.606z" fill="#ffe589"/><path d="m315.703 372.255h-30c49.87 0 90.297 40.427 90.297 90.297v25.342c0 9.171-7.435 16.606-16.606 16.606h30c9.171 0 16.606-7.435 16.606-16.606v-25.342c0-49.869-40.427-90.297-90.297-90.297z" fill="#ffd86e"/><path d="m226 310.112h60v97.564h-60z" fill="#ffd8ca"/><path d="m256 310.112h30v97.564h-30z" fill="#ffbead"/><path d="m226 348.747s-2.871 39.777 30 58.929c0 0-18.691 20.871-37.598 14.241-14.98-5.253-23.457-33.195-26.331-44.574-.725-2.869.428-5.878 2.877-7.539z" fill="#f5f2f4"/><path d="m286 348.747s2.871 39.777-30 58.929c0 0 18.691 20.871 37.598 14.241 14.98-5.253 23.457-33.195 26.331-44.574.725-2.869-.428-5.878-2.877-7.539z" fill="#f5f2f4"/><path d="m159.546 232.897v-65.633c0-53.27 43.184-96.454 96.454-96.454 53.27 0 96.454 43.184 96.454 96.454v65.27c0 53.371-43.265 96.636-96.636 96.636-53.17 0-96.272-43.103-96.272-96.273z" fill="#ffd8ca"/><path d="m256 70.81c-5.103 0-10.112.4-15 1.163 46.146 7.206 81.455 47.124 81.455 95.292v65.27c0 48.263-35.382 88.259-81.621 95.473 4.883.763 9.887 1.163 14.985 1.163 53.371 0 96.636-43.266 96.636-96.636v-65.27c0-53.271-43.184-96.455-96.455-96.455z" fill="#ffbead"/><path d="m256 53.531c-147.923 0-106.256 127.685-103.067 134.54 2.997 6.452 6.613 24.009 6.613 24.009s20.549-16.513 19.887-22.814c-1.059-10.069-6.89-71.924 18.55-66.093 25.431 5.831 35.904 10.069 57.167 10.069s31.735-4.238 57.167-10.069c25.44-5.831 19.61 56.023 18.55 66.093-.663 6.302 21.589 22.871 21.589 22.871s1.914-17.614 4.91-24.066c4.74-10.193 46.557-134.54-101.366-134.54z" fill="#7b727b"/><path d="m382.192 147.5h-252.384c-5.234 0-9.477-4.243-9.477-9.477v-6.212c0-7.904 6.407-14.311 14.311-14.311h242.714c7.904 0 14.311 6.407 14.311 14.311v6.212c.001 5.234-4.241 9.477-9.475 9.477z" fill="#f5f2f4"/><path d="m377.357 117.5h-30c7.904 0 14.311 6.407 14.311 14.311v6.212c0 5.234-4.243 9.477-9.477 9.477h30c5.234 0 9.477-4.243 9.477-9.477v-6.212c0-7.904-6.407-14.311-14.311-14.311z" fill="#e7e4e7"/><path d="m372 117.5h-232l4.327-39.246c4.441-40.271 38.469-70.754 78.985-70.754h65.376c40.516 0 74.544 30.483 78.985 70.754z" fill="#ff6167"/><path d="m367.673 78.254c-4.441-40.272-38.469-70.754-78.985-70.754h-30c40.516 0 74.544 30.482 78.985 70.754l4.327 39.246h30z" fill="#fe454a"/><path d="m285.5 90h-59c-9.113 0-16.5-7.387-16.5-16.5v-13c0-9.113 7.387-16.5 16.5-16.5h59c9.113 0 16.5 7.387 16.5 16.5v13c0 9.113-7.387 16.5-16.5 16.5z" fill="#ffe589"/><path d="m285.5 44h-30c9.113 0 16.5 7.387 16.5 16.5v13c0 9.113-7.387 16.5-16.5 16.5h30c9.113 0 16.5-7.387 16.5-16.5v-13c0-9.113-7.387-16.5-16.5-16.5z" fill="#ffd86e"/><g fill="#7b727b"><path d="m144 337.5h30v167h-30z"/><path d="m338 337.5h30v167h-30z"/></g><g><path d="m432 422.319c4.143 0 7.5-3.357 7.5-7.5v-94.89c0-16.057-13.066-29.12-29.127-29.12h-68.296c7.74-11.42 13.266-24.453 15.977-38.478 51.059 18.079 61.345-88.939 14.255-92.034.259-1.731.494-3.5.698-5.298h9.185c9.361 0 16.977-7.615 16.977-16.977v-6.212c0-11.568-9.052-21.056-20.444-21.764l-3.596-32.615c-1.332-12.078-5.075-23.508-11.126-33.973-2.074-3.587-6.664-4.812-10.247-2.739-3.586 2.073-4.812 6.661-2.739 10.247 5.004 8.653 8.1 18.111 9.202 28.109l3.41 30.923h-215.256l3.409-30.923c4.028-36.528 34.779-64.075 71.53-64.075h65.376c14.805 0 29.033 4.469 41.148 12.922 3.398 2.37 8.072 1.537 10.442-1.858 2.37-3.397 1.538-8.072-1.858-10.442-14.645-10.221-31.842-15.622-49.732-15.622h-65.376c-44.412 0-81.572 33.289-86.439 77.433l-3.596 32.615c-11.392.708-20.445 10.197-20.445 21.764v6.212c0 9.361 7.616 16.977 16.977 16.977h8.4c.165 1.838.36 3.64.582 5.399-46.036 4.118-35.45 110.004 15.077 91.962 2.602 13.79 7.963 26.828 15.812 38.448h-13.488c-9.931.344-9.923 14.66 0 15h25.803c.151.153.298.31.451.462 10.427 10.434 22.687 18.371 36.055 23.515v.213h-131v-10.07c0-7.786 6.337-14.12 14.127-14.12h18.831c9.931-.344 9.923-14.66 0-15h-18.831c-16.061 0-29.127 13.063-29.127 29.12v162.94c0 16.062 13.066 29.13 29.127 29.13h308.746c16.061 0 29.127-13.067 29.127-29.13v-32.888c-.344-9.931-14.66-9.923-15 0v32.888c0 7.331-5.612 13.373-12.765 14.061 1.135-2.794 1.765-5.844 1.765-9.041v-25.34c0-30.276-14.139-58.904-38-77.368v-40.182h49v69.819c-.001 4.143 3.356 7.5 7.499 7.5zm-44.42-217.709c.089 20.98-10.483 42.75-27.713 31.88.05-1.315.083-2.634.083-3.96v-19.933c.764-6.839 2.542-17.761 4.216-21.365 1.252-2.694 3.299-8.485 5.19-16.09 13.423.274 18.224 15.346 18.224 29.468zm-37.017-19.699c-1.501 3.229-2.705 8.238-3.608 13.064-4.209-3.76-7.472-7.164-8.519-9.017.674-6.723 1.749-20.479.978-33.959h18.493c-1.953 15.65-6.235 27.526-7.344 29.912zm-222.731-46.888v-6.212c0-3.756 3.056-6.812 6.812-6.812h242.714c3.755 0 6.811 3.056 6.811 6.812v6.212c0 1.09-.887 1.977-1.977 1.977h-252.384c-1.09 0-1.976-.887-1.976-1.977zm43.051 16.977c-.776 13.574.318 27.419.993 34.108-.905 1.819-3.934 5.25-7.869 9.048-1.264-4.881-2.789-10.051-4.267-13.233-.786-1.757-4.879-13.908-6.467-29.923zm-27.873 84.36c-21.482-.115-27.495-61.43-1.639-64.145 1.804 8.075 3.787 13.923 4.76 16.014 1.845 3.972 4.536 15.069 5.919 21.649v20.022c0 1.204.028 2.403.068 3.6-2.376 1.553-5.457 2.86-9.108 2.86zm24.04-6.46v-17.277c20.85-17.402 20.1-24.684 19.841-27.144-.631-5.995-1.845-20.121-.983-33.479h138.482c.862 13.372-.355 27.514-.984 33.481-.263 2.501-1.025 9.911 21.544 27.371v16.678c.208 78.658-96.489 118.99-151.898 63.135-16.768-16.758-26.002-39.048-26.002-62.765zm145.525 142.93c-5.354 21.016-13.763 36.311-21.459 39.01-8.202 2.877-17.129-2.014-22.996-6.424 17.184-13.881 22.855-33.051 24.655-46.013zm-34.063-21.626c-.443 9.68-3.663 31.234-22.512 44.542-18.85-13.309-22.069-34.865-22.512-44.544.002-.078.012-.154.012-.233v-19.697c14.512 3.219 30.565 3.181 45-.098v19.795c0 .08.009.156.012.235zm-59.287 8.199c1.799 12.963 7.471 32.132 24.654 46.013-5.872 4.412-14.8 9.294-22.995 6.424-7.695-2.698-16.104-17.995-21.46-39.009zm-28.485 1.194c-.648.439-1.25.926-1.807 1.452-2.492.185-4.973.464-7.432.838v-20.887h36.663zm-9.24 17.495c1.208-.219 2.423-.409 3.644-.574 4.205 16.104 13.566 42.441 30.777 48.476 3.458 1.213 6.87 1.731 10.182 1.73 12.521-.001 23.57-7.415 29.897-12.747 8.402 7.537 25.557 16.675 40.08 11.016 17.215-6.036 26.573-32.374 30.777-48.476 1.221.165 2.436.355 3.644.574v115.909h-149v-115.908zm149-15.205c-2.46-.374-4.94-.653-7.432-.838-.557-.526-1.159-1.013-1.806-1.451l-27.425-18.598h36.663zm-243 116.983v-137.87h49v40.181c-23.861 18.465-38 47.092-38 77.369v25.34c0 3.197.631 6.247 1.765 9.041-7.153-.688-12.765-6.73-12.765-14.061zm26 5.02v-25.34c0-21.47 8.401-41.959 23-57.238v91.688h-13.89c-5.024 0-9.11-4.087-9.11-9.11zm38 9.11v-152h15v152zm247-34.45v25.34c0 5.023-4.087 9.11-9.11 9.11h-13.89v-91.688c14.599 15.278 23 35.768 23 57.238zm-38 34.45h-15v-152h15zm-67-167v-.388c13.721-5.345 26.039-13.518 36.233-23.802h80.64c7.79 0 14.127 6.334 14.127 14.12v10.07z"/><path d="m248.266 263.112c5.975 1.561 9.812 1.559 15.787 0 4.008-1.046 6.409-5.143 5.363-9.15s-5.139-6.415-9.15-5.363c-3.493.91-4.721.91-8.213 0-4.006-1.048-8.105 1.355-9.15 5.363-1.047 4.008 1.355 8.104 5.363 9.15z"/><path d="m229.97 178.96c3.9 1.051 8.119-1.322 9.151-5.362 1.046-4.008-1.354-8.104-5.362-9.151-11.343-2.961-18.259-2.961-29.602 0-9.523 2.842-5.896 16.693 3.789 14.514 8.954-2.339 13.071-2.339 22.024-.001z"/><path d="m282.348 178.96c8.953-2.338 13.07-2.338 22.023 0 3.9 1.051 8.119-1.322 9.151-5.362 1.046-4.008-1.354-8.104-5.362-9.151-11.342-2.961-18.26-2.961-29.602 0-4.008 1.047-6.408 5.144-5.362 9.151 1.047 4.008 5.146 6.409 9.152 5.362z"/><path d="m278.656 282.104c3.619-2.014 4.92-6.581 2.905-10.2-2.014-3.62-6.582-4.923-10.2-2.905-9.376 5.218-21.027 5.221-30.404-.001-3.618-2.013-8.186-.713-10.201 2.906s-.713 8.187 2.906 10.201c13.877 7.723 31.117 7.724 44.994-.001z"/><path d="m214.159 205.132c-4.142 0-7.5 3.357-7.5 7.5v6c.344 9.931 14.66 9.923 15 0v-6c0-4.143-3.358-7.5-7.5-7.5z"/><path d="m298.159 205.132c-4.143 0-7.5 3.357-7.5 7.5v6c.344 9.931 14.66 9.923 15 0v-6c0-4.143-3.357-7.5-7.5-7.5z"/><path d="m256 430c-4.142 0-7.5 3.357-7.5 7.5v4c.344 9.931 14.66 9.923 15 0v-4c0-4.143-3.357-7.5-7.5-7.5z"/><path d="m256 461.385c-4.142 0-7.5 3.357-7.5 7.5v4c.344 9.931 14.66 9.923 15 0v-4c0-4.143-3.357-7.5-7.5-7.5z"/><path d="m226.5 36.5c-13.234 0-24 10.767-24 24v13c0 13.233 10.766 24 24 24h59c13.233 0 24-10.767 24-24v-13c0-13.233-10.767-24-24-24zm68 24v13c0 4.963-4.037 9-9 9h-59c-4.962 0-9-4.037-9-9v-13c0-4.963 4.038-9 9-9h59c4.963 0 9 4.037 9 9z"/></g></g></svg>