<svg id="Layer_1" enable-background="new 0 0 512 512" height="512" viewBox="0 0 512 512" width="512" xmlns="http://www.w3.org/2000/svg"><g><path d="m201.694 373h-145.388l-9.306-220h164z" fill="#f8f7f7"/><path d="m181 153-9.306 220h30l9.306-220z" fill="#efefef"/><path d="m223.624 153h-189.248c-2.417 0-4.376-1.959-4.376-4.376v-13.462c0-5.612 4.55-10.162 10.163-10.162h177.675c5.613 0 10.163 4.55 10.163 10.163v13.462c-.001 2.416-1.96 4.375-4.377 4.375z" fill="#686169"/><path d="m217.837 125h-30c5.613 0 10.163 4.55 10.163 10.163v13.461c0 2.417-1.959 4.376-4.376 4.376h30c2.417 0 4.376-1.959 4.376-4.376v-13.461c0-5.613-4.55-10.163-10.163-10.163z" fill="#555055"/><path d="m208 125h-158l3.533-18.089c1.578-8.08 8.658-13.911 16.891-13.911h117.152c8.233 0 15.313 5.831 16.891 13.911z" fill="#7b727b"/><path d="m204.467 106.911c-1.578-8.08-8.658-13.911-16.891-13.911h-30c8.233 0 15.313 5.831 16.891 13.911l3.533 18.089h30z" fill="#686169"/><path d="m455.694 373h-145.388l-9.306-220h164z" fill="#f8f7f7"/><path d="m435 153-9.306 220h30l9.306-220z" fill="#efefef"/><path d="m477.624 153h-189.248c-2.417 0-4.376-1.959-4.376-4.376v-13.462c0-5.613 4.55-10.163 10.163-10.163h177.675c5.613 0 10.163 4.55 10.163 10.163v13.462c-.001 2.417-1.96 4.376-4.377 4.376z" fill="#686169"/><path d="m471.837 125h-30c5.613 0 10.163 4.55 10.163 10.163v13.461c0 2.417-1.959 4.376-4.376 4.376h30c2.417 0 4.376-1.959 4.376-4.376v-13.461c0-5.613-4.55-10.163-10.163-10.163z" fill="#555055"/><path d="m462 125h-158l3.533-18.089c1.578-8.08 8.658-13.911 16.891-13.911h117.151c8.233 0 15.313 5.831 16.891 13.911z" fill="#7b727b"/><path d="m458.467 106.911c-1.578-8.08-8.658-13.911-16.891-13.911h-30c8.233 0 15.313 5.831 16.891 13.911l3.533 18.089h30z" fill="#686169"/><path d="m486.5 339h-461c-9.941 0-18-8.059-18-18v-8c0-2.209 1.791-4 4-4h489c2.209 0 4 1.791 4 4v8c0 9.941-8.059 18-18 18z" fill="#e0925b"/><path d="m500.5 309h-30c2.209 0 4 1.791 4 4v8c0 9.941-8.059 18-18 18h30c9.941 0 18-8.059 18-18v-8c0-2.209-1.791-4-4-4z" fill="#d48145"/><path d="m479 339v63.395c0 9.171-7.434 16.605-16.605 16.605h-152.79c-9.171 0-16.605-7.434-16.605-16.605 0-9.171-7.434-16.605-16.605-16.605h-40.79c-9.171 0-16.605 7.434-16.605 16.605 0 9.171-7.434 16.605-16.605 16.605h-152.79c-9.171 0-16.605-7.434-16.605-16.605v-63.395z" fill="#e49a6b"/><g fill="#e0925b"><path d="m189 402.395c0 9.171-7.434 16.605-16.605 16.605h30c9.171 0 16.605-7.434 16.605-16.605 0-9.171 7.434-16.605 16.605-16.605h-30c-9.171 0-16.605 7.434-16.605 16.605z"/><path d="m449 339v63.395c0 9.171-7.434 16.605-16.605 16.605h30c9.171 0 16.605-7.434 16.605-16.605v-63.395z"/></g><path d="m500.5 301.5h-34.275l3.008-71.128c.175-4.139-3.038-7.636-7.176-7.811-4.149-.196-7.637 3.037-7.811 7.177l-3.035 71.762h-136.423l-5.964-141h148.352l-1.448 34.249c-.175 4.139 3.038 7.636 7.176 7.811 4.142.188 7.637-3.038 7.811-7.176l1.476-34.884h5.435c6.549 0 11.876-5.327 11.876-11.876v-13.462c0-9.739-7.923-17.662-17.662-17.662h-3.661l-2.349-12.026c-2.263-11.574-12.462-19.974-24.254-19.974h-117.152c-11.792 0-21.991 8.4-24.252 19.974l-2.349 12.026h-3.661c-9.739 0-17.662 7.923-17.662 17.662v13.462c0 6.549 5.327 11.876 11.876 11.876h5.435l5.964 141h-87.549l5.964-141h5.435c6.549 0 11.876-5.327 11.876-11.876v-13.462c0-9.739-7.923-17.662-17.662-17.662h-3.661l-2.349-12.026c-2.262-11.574-12.461-19.974-24.253-19.974h-43.013c-9.931.344-9.923 14.66 0 15h43.013c4.634 0 8.642 3.301 9.529 7.849l1.788 9.151h-139.787l1.788-9.151c.888-4.548 4.896-7.849 9.529-7.849h38.791c9.931-.344 9.923-14.66 0-15h-38.79c-11.792 0-21.991 8.4-24.252 19.974l-2.349 12.026h-3.661c-9.739 0-17.662 7.923-17.662 17.662v13.462c0 6.549 5.327 11.876 11.876 11.876h5.435l5.964 141h-34.275c-6.341 0-11.5 5.159-11.5 11.5v8c0 14.061 11.439 25.5 25.5 25.5v55.896c0 13.291 10.813 24.104 24.104 24.104h94.587c9.931-.344 9.923-14.66 0-15h-94.587c-5.021 0-9.104-4.084-9.104-9.104v-55.896h431v55.896c0 5.021-4.084 9.104-9.104 9.104h-152.792c-5.021 0-9.104-4.085-9.104-9.105 0-13.291-10.813-24.104-24.104-24.104h-40.791c-13.291 0-24.104 10.813-24.104 24.105 0 5.021-4.084 9.104-9.104 9.104h-23.32c-9.931.344-9.923 14.66 0 15h23.32c13.291 0 24.104-10.813 24.104-24.105 0-5.021 4.084-9.104 9.104-9.104h40.791c5.021 0 9.104 4.085 9.104 9.105 0 13.291 10.813 24.104 24.104 24.104h152.791c13.291 0 24.104-10.813 24.104-24.104v-55.896c14.061 0 25.5-11.439 25.5-25.5v-8c.001-6.341-5.158-11.5-11.499-11.5zm-185.605-193.151c.888-4.548 4.896-7.849 9.529-7.849h117.152c4.634 0 8.642 3.301 9.529 7.849l1.788 9.151h-139.787zm-23.395 26.813c0-1.468 1.194-2.662 2.662-2.662h177.676c1.468 0 2.662 1.194 2.662 2.662v10.338h-183zm-254 0c0-1.468 1.194-2.662 2.662-2.662h177.676c1.468 0 2.662 1.194 2.662 2.662v10.338h-183zm17.324 25.338h148.352l-5.964 141h-136.424zm442.176 160.5c0 5.79-4.71 10.5-10.5 10.5h-461c-5.79 0-10.5-4.71-10.5-10.5v-4.5h482z"/></g></svg>