<svg id="Layer_1" enable-background="new 0 0 512 512" height="512" viewBox="0 0 512 512" width="512" xmlns="http://www.w3.org/2000/svg"><g><path d="m256 7.492c-200.91 0-247.48 138.17-248.47 141.22.71-1.04 12.88-17.78 62.09-17.78 50.79 0 62.13 17.83 62.13 17.83s11.34-17.83 62.13-17.83c50.78 0 62.12 17.83 62.12 17.83s11.34-17.83 62.12-17.83c50.79 0 62.13 17.83 62.13 17.83s11.34-17.83 62.13-17.83c49.19 0 61.37 16.73 62.09 17.78-.99-3.05-47.56-141.22-248.47-141.22z" fill="#ff6167"/><path d="m256 7.492c-5.108 0-10.09.112-15 .286 149.329 5.295 208.063 89.011 226.433 124.878 28.492 4.295 36.459 15.214 37.037 16.056-.99-3.05-47.56-141.22-248.47-141.22z" fill="#fe454a"/><path d="m380.25 148.762s-11.34-17.83-62.13-17.83c-50.78 0-62.12 17.83-62.12 17.83s-11.34-17.83-62.12-17.83c-50.79 0-62.13 17.83-62.13 17.83.5-3.05 23.21-141.27 124.25-141.27s123.75 138.22 124.25 141.27z" fill="#2fd9e7"/><path d="m256 7.492c-5.209 0-10.199.386-15 1.084 69.95 10.162 97.332 90.343 105.927 124.696 26.54 4.836 33.323 15.49 33.323 15.49-.5-3.05-23.21-141.27-124.25-141.27z" fill="#00d0e4"/><path d="m355.928 504.492h-199.856c-11.086 0-20.072-8.987-20.072-20.072v-185.856c0-11.086 8.987-20.072 20.072-20.072h199.856c11.086 0 20.072 8.987 20.072 20.072v185.856c0 11.085-8.987 20.072-20.072 20.072z" fill="#f8f7f7"/><path d="m355.928 278.492h-30c11.086 0 20.072 8.987 20.072 20.072v185.856c0 11.085-8.987 20.072-20.072 20.072h30c11.086 0 20.072-8.986 20.072-20.072v-185.856c0-11.085-8.987-20.072-20.072-20.072z" fill="#efefef"/><path d="m322 420.026h-132v-8c0-36.451 29.549-66 66-66s66 29.549 66 66z" fill="#cfdbe4"/><path d="m256 346.026c-5.162 0-10.179.612-15 1.733 29.221 6.794 51 32.979 51 64.267v8h30v-8c0-36.451-29.549-66-66-66z" fill="#afbbc6"/><path d="m315.725 448.026h-119.45c-3.786 0-7.186-2.317-8.57-5.841l-8.705-22.159h154l-8.705 22.159c-1.385 3.523-4.785 5.841-8.57 5.841z" fill="#7b727b"/><path d="m303 420.026-8.706 22.159c-1.384 3.523-4.784 5.841-8.57 5.841h30c3.786 0 7.185-2.317 8.57-5.841l8.706-22.159z" fill="#686169"/><g><g><path d="m256.001 323.003c-4.143 0-7.5 3.357-7.5 7.5v8.403c-37.023 3.767-66.009 35.125-66.009 73.125v.496h-14.503c-9.931.344-9.924 14.66 0 15h5.89l6.838 17.402c2.53 6.438 8.635 10.598 15.551 10.598h119.467c6.916 0 13.021-4.16 15.551-10.598l6.838-17.402h5.89c9.931-.344 9.924-14.66 0-15h-14.504v-.496c0-37.998-28.982-69.354-66.009-73.124v-8.403c0-4.144-3.358-7.501-7.5-7.501zm61.323 116.439c-.259.658-.883 1.084-1.59 1.084h-119.467c-.707 0-1.331-.426-1.59-1.084l-4.683-11.916h132.012zm-2.815-27.412v.496h-117.017v-.496c3.221-77.628 113.823-77.577 117.017 0z"/><path d="m4.473 155.59 220.967 115.399h-69.38c-15.205 0-27.576 12.369-27.576 27.572v185.859c0 15.203 12.37 27.572 27.576 27.572h140.649c9.931-.344 9.924-14.66 0-15h-140.649c-6.934 0-12.575-5.64-12.575-12.572v-185.856c0-6.933 5.642-12.572 12.575-12.572h199.882c6.934 0 12.575 5.64 12.575 12.572v185.856c0 6.933-5.642 12.572-12.575 12.572h-22.93c-9.931.344-9.924 14.66 0 15h22.93c15.205 0 27.576-12.369 27.576-27.572v-185.856c0-15.203-12.37-27.572-27.576-27.572h-69.378l221.412-115.632c.596-.33 2.308-1.38 3.299-3.558 1.144-2.514.542-4.81.366-5.406-.661-2.036-16.797-50.318-70.22-91-3.297-2.512-8.002-1.871-10.511 1.423-2.51 3.296-1.872 8.001 1.423 10.511 28.295 21.547 45.401 45.524 54.916 62.273-26.798-10.01-83.127-7.436-102.121 5.563-6.905-33.413-31.038-91.163-66.804-115.166 31.68 5.369 60.352 15.039 85.682 28.946 3.629 1.993 8.191.667 10.184-2.965 1.993-3.631.666-8.19-2.965-10.184-74.245-42.87-200.325-46.991-281.458-13.637-65.403 24.054-116 83.147-129.402 124.234-.196.639-.731 2.667.152 4.98 1.071 2.808 3.447 3.979 3.956 4.216zm486.311-8.174-197.785 103.293s92.958-96.794 93.536-97.812c11.983-15.822 78.395-20.104 104.249-5.481zm-227.283 4.232c15.703-16.252 84.746-17.867 105.991-2.479l-105.991 110.65zm-15 108.171-105.991-110.65c21.609-15.499 90.365-13.674 105.991 2.479zm120.333-127.942c-28.826-13.505-94.008-10.307-112.833 6.501-18.967-16.872-84.101-19.963-112.841-6.497 38.849-156.585 187.039-155.858 225.674-.004zm-306.909-49.473c34.539-32.703 78.739-53.604 131.868-62.488-42.924 31.006-60.921 89.872-66.915 115.277-5.904-3.438-14.59-7.017-27.112-9.3-4.071-.737-7.981 1.96-8.723 6.034-.743 4.075 1.958 7.98 6.033 8.723 20.883 3.807 27.633 11.325 28.39 12.245.578 1.019 93.536 97.813 93.536 97.813l-197.789-103.294c7.102-3.785 20.077-8.219 42.422-8.893 4.14-.125 7.395-3.583 7.271-7.724-.125-4.141-3.554-7.394-7.724-7.271-16.807.508-29.279 2.985-38.453 6.091 7.333-12.927 19.18-30.155 37.196-47.213z"/></g></g></g></svg>