<svg id="Layer_1" enable-background="new 0 0 512 512" height="512" viewBox="0 0 512 512" width="512" xmlns="http://www.w3.org/2000/svg"><g><path d="m363 504.5h-214c-22.091 0-40-17.909-40-40v-417c0-22.091 17.909-40 40-40h214c22.091 0 40 17.909 40 40v417c0 22.091-17.909 40-40 40z" fill="#7b727b"/><path d="m363 7.5h-30c22.091 0 40 17.909 40 40v417c0 22.091-17.909 40-40 40h30c22.091 0 40-17.909 40-40v-417c0-22.091-17.909-40-40-40z" fill="#686169"/><path d="m377 47.5v417c0 7.732-6.268 14-14 14h-214c-7.732 0-14-6.268-14-14v-417c0-7.732 6.268-14 14-14h40.104c2.331 0 4.405 1.48 5.164 3.684l5.284 15.353c.759 2.204 2.833 3.684 5.164 3.684h102.568c2.331 0 4.405-1.48 5.164-3.684l5.284-15.353c.759-2.204 2.833-3.684 5.164-3.684h40.104c7.732 0 14 6.268 14 14z" fill="#d6faec"/><g><path d="m363 33.5h-30c7.732 0 14 6.268 14 14v417c0 7.732-6.268 14-14 14h30c7.732 0 14-6.268 14-14v-417c0-7.732-6.268-14-14-14z" fill="#ccfae8"/></g><circle cx="256" cy="256" fill="#2fd9e7" r="79"/><path d="m275 156h-38c-7.732 0-14-6.268-14-14 0-7.732 6.268-14 14-14h38c7.732 0 14 6.268 14 14 0 7.732-6.268 14-14 14z" fill="#7b727b"/><path d="m275 128h-30c7.732 0 14 6.268 14 14s-6.268 14-14 14h30c7.732 0 14-6.268 14-14s-6.268-14-14-14z" fill="#686169"/><path d="m295 431.786h-78c-11.598 0-21-9.402-21-21 0-11.598 9.402-21 21-21h78c11.598 0 21 9.402 21 21 0 11.598-9.402 21-21 21z" fill="#ff6167"/><g><path d="m363 0h-214c-26.191 0-47.5 21.309-47.5 47.5v30.063c.344 9.931 14.66 9.923 15 0v-30.063c0-17.921 14.58-32.5 32.5-32.5h214c17.92 0 32.5 14.579 32.5 32.5v417c0 17.921-14.58 32.5-32.5 32.5h-214c-17.92 0-32.5-14.579-32.5-32.5v-351.216c-.344-9.931-14.66-9.923-15 0v351.216c0 26.191 21.309 47.5 47.5 47.5h214c26.191 0 47.5-21.309 47.5-47.5v-417c0-26.191-21.309-47.5-47.5-47.5z"/><path d="m316 486h47c11.855 0 21.5-9.645 21.5-21.5v-417c0-11.855-9.645-21.5-21.5-21.5h-40.104c-5.53 0-10.456 3.514-12.256 8.743l-4.811 13.978h-99.659l-4.811-13.979c-1.8-5.229-6.725-8.742-12.255-8.742h-40.104c-11.855 0-21.5 9.645-21.5 21.5v417c0 11.855 9.645 21.5 21.5 21.5h130.404c9.931-.344 9.923-14.66 0-15h-130.404c-3.584 0-6.5-2.916-6.5-6.5v-417c0-3.584 2.916-6.5 6.5-6.5h38.65l4.811 13.978c1.799 5.229 6.724 8.743 12.255 8.743h102.568c5.531 0 10.456-3.514 12.255-8.743l4.811-13.978h38.65c3.584 0 6.5 2.916 6.5 6.5v417c0 3.584-2.916 6.5-6.5 6.5h-47c-9.931.344-9.923 14.66 0 15z"/><path d="m169.5 256c0 47.696 38.804 86.5 86.5 86.5 54.717.68 97.059-52.603 84.354-105.723-.917-4.04-4.937-6.572-8.974-5.653-4.04.917-6.571 4.935-5.654 8.974 10.497 43.91-24.487 87.966-69.727 87.402-94.845-3.923-94.835-139.082.001-143 22.043 0 42.523 9.943 56.188 27.277 2.564 3.254 7.28 3.812 10.533 1.247 3.253-2.563 3.811-7.279 1.247-10.532-14.966-18.987-36.695-30.64-60.469-32.672v-6.32h11.501c28.53-1.184 28.508-41.826 0-43h-38c-28.53 1.184-28.508 41.826 0 43h11.5v6.329c-44.197 3.814-79 41.002-79 86.171zm61-114c0-3.584 2.916-6.5 6.5-6.5h38c8.605.306 8.599 12.697 0 13h-38c-3.584 0-6.5-2.916-6.5-6.5z"/><path d="m217 439.286h78c37.818-1.57 37.789-55.444 0-57h-78c-37.818 1.57-37.789 55.444 0 57zm0-42h78c17.914.743 17.9 26.263 0 27h-78c-17.914-.743-17.9-26.263 0-27z"/><path d="m263.5 224.54c-.344-9.931-14.66-9.923-15 0v31.46c.344 9.931 14.66 9.923 15 0z"/><path d="m263.5 198.121c-.344-9.931-14.66-9.923-15 0v2.604c.344 9.931 14.66 9.923 15 0z"/><path d="m256 301.505c-4.142 0-7.5 3.357-7.5 7.5v2.604c.344 9.931 14.66 9.923 15 0v-2.604c0-4.143-3.358-7.5-7.5-7.5z"/><path d="m294.282 224.083c1.919 0 3.839-.732 5.303-2.196l1.842-1.842c2.929-2.93 2.929-7.678 0-10.607-2.929-2.928-7.678-2.928-10.606 0l-1.842 1.842c-2.929 2.93-2.929 7.678 0 10.607 1.464 1.464 3.384 2.196 5.303 2.196z"/><path d="m215.876 302.489c1.919 0 3.839-.732 5.303-2.196l1.842-1.842c2.929-2.93 2.929-7.678 0-10.607-2.929-2.928-7.678-2.928-10.606 0l-1.842 1.842c-2.929 2.93-2.929 7.678 0 10.607 1.464 1.464 3.384 2.196 5.303 2.196z"/><path d="m310.14 262.365h2.604c9.931-.344 9.923-14.66 0-15h-2.604c-9.931.344-9.924 14.66 0 15z"/><path d="m201.86 247.365h-2.604c-9.931.344-9.923 14.66 0 15h2.604c9.931-.344 9.924-14.659 0-15z"/><path d="m288.979 298.451 1.842 1.842c2.929 2.928 7.678 2.928 10.606 0 2.929-2.93 2.929-7.678 0-10.607l-1.842-1.842c-2.929-2.928-7.678-2.928-10.606 0-2.929 2.929-2.929 7.677 0 10.607z"/><path d="m223.021 211.279-1.842-1.842c-2.929-2.928-7.678-2.928-10.606 0-2.929 2.93-2.929 7.678 0 10.607l1.842 1.842c2.929 2.928 7.678 2.928 10.606 0 2.929-2.929 2.929-7.677 0-10.607z"/></g></g></svg>