<svg id="Layer_1" enable-background="new 0 0 512 512" height="512" viewBox="0 0 512 512" width="512" xmlns="http://www.w3.org/2000/svg"><g><path d="m473 332.5h-434c-8.284 0-15-6.716-15-15 0-8.284 6.716-15 15-15h434c8.284 0 15 6.716 15 15 0 8.284-6.716 15-15 15z" fill="#f8f7f7"/><path d="m473 302.5h-30c8.284 0 15 6.716 15 15s-6.716 15-15 15h30c8.284 0 15-6.716 15-15s-6.716-15-15-15z" fill="#efefef"/><path d="m401.383 504.5h-290.766c-20.58 0-37.911-15.384-40.352-35.819l-16.265-136.181h404l-16.265 136.181c-2.441 20.435-19.772 35.819-40.352 35.819z" fill="#e7e7e7"/><path d="m428 332.5-16.265 136.181c-2.441 20.435-19.772 35.819-40.352 35.819h30c20.58 0 37.911-15.385 40.352-35.819l16.265-136.181z" fill="#d7d7d7"/><g fill="#686169"><path d="m137 463.5c-8.284 0-15-6.716-15-15v-32c0-8.284 6.716-15 15-15 8.284 0 15 6.716 15 15v32c0 8.284-6.716 15-15 15z"/><path d="m196.5 463.5c-8.284 0-15-6.716-15-15v-32c0-8.284 6.716-15 15-15 8.284 0 15 6.716 15 15v32c0 8.284-6.716 15-15 15z"/><path d="m256 463.5c-8.284 0-15-6.716-15-15v-32c0-8.284 6.716-15 15-15 8.284 0 15 6.716 15 15v32c0 8.284-6.716 15-15 15z"/><path d="m315.5 463.5c-8.284 0-15-6.716-15-15v-32c0-8.284 6.716-15 15-15 8.284 0 15 6.716 15 15v32c0 8.284-6.716 15-15 15z"/><path d="m375 463.5c-8.284 0-15-6.716-15-15v-32c0-8.284 6.716-15 15-15 8.284 0 15 6.716 15 15v32c0 8.284-6.716 15-15 15z"/></g><path d="m368.771 108.696c-1.243-56.92-47.547-101.735-104.478-101.191-56.612.541-102.495 46.757-102.495 103.494 0 44.6 28.354 82.697 67.983 97.219 11.097 4.066 19.992 12.575 24.369 23.553l9.226 23.144c.789 1.981 3.597 1.97 4.372-.016l8.939-22.926c4.308-11.049 13.15-19.712 24.278-23.81 40.232-14.815 68.8-53.937 67.806-99.467z" fill="#7edbb0"/><path d="m368.771 108.696c-1.243-56.92-47.547-101.735-104.478-101.191-4.72.045-9.363.415-13.913 1.074 49.327 7.111 87.268 48.667 88.391 100.117.994 45.53-27.574 84.652-67.805 99.467-8.521 3.138-15.693 8.959-20.524 16.472 1.452 2.235 2.705 4.617 3.709 7.136l9.226 23.144c.789 1.981 3.597 1.97 4.372-.016l8.939-22.926c4.308-11.049 13.15-19.712 24.278-23.81 40.231-14.815 68.799-53.937 67.805-99.467z" fill="#51d39e"/><path d="m185.124 372.124c-5.834 5.834-15.294 5.834-21.128 0l-152.12-152.12c-5.834-5.834-5.834-15.294 0-21.128 5.834-5.834 15.294-5.834 21.128 0l152.121 152.121c5.834 5.834 5.834 15.293-.001 21.127z" fill="#ff6167"/><path d="m326.876 372.124c5.834 5.834 15.294 5.834 21.128 0l152.121-152.121c5.834-5.834 5.834-15.294 0-21.128-5.834-5.834-15.294-5.834-21.128 0l-152.121 152.121c-5.835 5.835-5.835 15.294 0 21.128z" fill="#ff6167"/><g><path d="m227.2 215.26c9.15 3.353 16.433 10.384 19.983 19.289l9.226 23.144c1.503 3.771 5.092 6.202 9.149 6.202h.038c4.072-.016 7.66-2.477 9.141-6.271l8.938-22.926c3.524-9.034 10.771-16.141 19.884-19.496 44.528-16.397 73.75-59.264 72.714-106.669-.482-22.109-7.358-43.279-19.883-61.22-2.371-3.396-7.047-4.229-10.443-1.856-3.397 2.37-4.228 7.046-1.857 10.442 36.022 50.079 12.671 124.769-45.715 145.227-13.142 4.839-23.593 15.089-28.676 28.123l-4.194 10.756-4.389-11.01c-5.127-12.86-15.608-23-28.756-27.818-37.722-13.822-63.067-50.062-63.066-90.177 0-52.431 42.648-95.493 95.07-95.994 20.745-.214 40.556 6.042 57.215 18.046 3.36 2.422 8.049 1.661 10.47-1.7 2.422-3.36 1.661-8.048-1.7-10.47-19.271-13.887-42.121-21.09-66.129-20.876-60.614.58-109.927 50.371-109.927 110.994.001 46.382 29.3 88.281 72.907 104.26z"/><path d="m136.995 394c-12.407 0-22.501 10.094-22.501 22.5v32c1.24 29.857 43.773 29.834 45.002 0v-32c0-12.406-10.094-22.5-22.501-22.5zm7.5 54.5c-.353 9.929-14.651 9.922-15.001 0v-32c.353-9.929 14.651-9.922 15.001 0z"/><path d="m173.996 416.5v32c1.24 29.857 43.773 29.834 45.002 0v-32c-1.239-29.857-43.773-29.834-45.002 0zm30.002 0v32c-.353 9.929-14.651 9.922-15.001 0v-32c.353-9.929 14.651-9.922 15.001 0z"/><path d="m233.499 416.5v32c1.24 29.857 43.773 29.834 45.002 0v-32c-1.24-29.857-43.774-29.834-45.002 0zm30.001 0v32c-.353 9.929-14.651 9.922-15.001 0v-32c.354-9.929 14.652-9.922 15.001 0z"/><path d="m315.502 394c-12.407 0-22.501 10.094-22.501 22.5v32c1.24 29.857 43.773 29.834 45.002 0v-32c0-12.406-10.093-22.5-22.501-22.5zm7.501 54.5c-.353 9.929-14.651 9.922-15.001 0v-32c.353-9.929 14.651-9.922 15.001 0z"/><path d="m375.005 394c-12.407 0-22.501 10.094-22.501 22.5v32c1.24 29.857 43.773 29.834 45.002 0v-32c0-12.406-10.094-22.5-22.501-22.5zm7.5 54.5c-.353 9.929-14.651 9.922-15.001 0v-32c.353-9.929 14.651-9.922 15.001 0z"/><path d="m277.652 121.701c2.729 3.133 7.471 3.443 10.581.731l29.829-25.971c3.406-2.829 3.4-8.498-.009-11.321l-29.829-25.883c-3.129-2.715-7.866-2.378-10.581.75s-2.38 7.865.749 10.58l14.657 12.718h-37.078c-20.207 0-36.647 16.439-36.647 36.646v28.749c.344 9.931 14.66 9.923 15.001 0v-28.749c0-11.936 9.71-21.646 21.646-21.646h37.13l-14.718 12.814c-3.124 2.721-3.451 7.458-.731 10.582z"/><path d="m505.438 193.573c-8.352-8.706-23.383-8.706-31.736-.001l-101.449 101.445c-.112-.005-.221-.017-.334-.017h-168.286c-9.931.344-9.924 14.66 0 15h153.636l-15.011 15.01c-.067-.002-.133-.01-.201-.01h-172.326l-15.001-15h12.064c9.931-.344 9.924-14.66 0-15h-27.064l-101.432-101.427c-8.353-8.707-23.383-8.706-31.736-.001-8.749 8.749-8.749 22.984 0 31.735l69.696 69.693h-37.267c-29.858 1.24-29.835 43.772 0 45h8.343l15.476 129.57c2.89 24.189 23.439 42.43 47.801 42.43h290.778c24.361 0 44.912-18.241 47.801-42.43l.224-1.877c.491-4.113-2.445-7.846-6.558-8.337-4.108-.501-7.846 2.444-8.337 6.558l-.224 1.877c-1.989 16.652-16.135 29.209-32.906 29.209h-290.778c-16.771 0-30.917-12.557-32.906-29.209l-15.264-127.791h58.819l37.429 37.427c8.353 8.707 23.383 8.706 31.736.001 8.749-8.749 8.749-22.984 0-31.735l-5.693-5.693h142.536l-5.694 5.693c-8.748 8.75-8.748 22.985 0 31.734v-.001c8.352 8.706 23.383 8.706 31.736.001l37.673-37.671c.598.153 1.221.244 1.867.244h56.708l-10.81 90.502c-.491 4.113 2.445 7.846 6.558 8.337 4.036.507 7.863-2.429 8.337-6.558l11.023-92.281h8.343c29.858-1.24 29.835-43.772 0-45h-37.267l69.697-69.693c8.749-8.751 8.748-22.986-.001-31.734zm-466.447 131.427c-9.929-.353-9.922-14.65 0-15h52.268l15.001 15zm140.827 41.82c0 .001-.001.001 0 0-2.77 2.887-7.753 2.887-10.522 0l-152.127-152.119c-2.901-2.901-2.901-7.621 0-10.522 2.769-2.886 7.752-2.886 10.521.001l152.127 152.119c2.901 2.901 2.901 7.621.001 10.521zm293.191-56.82c9.929.353 9.922 14.65 0 15h-67.268l15.001-15zm21.822-95.3-152.128 152.121c-2.769 2.886-7.752 2.886-10.521 0v-.001c-2.901-2.9-2.901-7.62 0-10.521l152.128-152.12c2.769-2.886 7.752-2.886 10.521.001 2.901 2.9 2.901 7.62 0 10.52z"/></g></g></svg>