<svg id="Layer_1" enable-background="new 0 0 512.001 512.001" height="512" viewBox="0 0 512.001 512.001" width="512" xmlns="http://www.w3.org/2000/svg"><g><path d="m438.71 190.396c0 163.622-163.932 314.104-182.5 314.104s-182.5-150.482-182.5-314.104c0-101.011 81.708-182.896 182.5-182.896s182.5 81.885 182.5 182.896z" fill="#ff6167"/><path d="m256.21 7.5c-5.051 0-10.052.215-15 .619 93.774 7.647 167.5 86.329 167.5 182.277 0 141.232-122.133 272.669-167.5 305.997 7.192 5.283 12.459 8.107 15 8.107 18.568 0 182.5-150.482 182.5-314.104 0-101.011-81.708-182.896-182.5-182.896z" fill="#fe454a"/><circle cx="256.21" cy="190.396" fill="#f8f7f7" r="145"/><path d="m256.21 45.396c-5.064 0-10.068.263-15 .772 72.932 7.53 130 69.338 130 144.228s-57.068 136.698-130 144.228c4.932.509 9.936.772 15 .772 79.953 0 145-65.047 145-145s-65.047-145-145-145z" fill="#efefef"/><path d="m270.439 261.128h-28.459c-18.099 0-32.77-14.672-32.77-32.77v-61.23h94v61.23c0 18.098-14.672 32.77-32.771 32.77z" fill="#cfdbe4"/><path d="m273.21 167.128v61.23c0 17.84-14.259 32.34-32 32.751.257.006.512.02.77.02h28.459c18.098 0 32.77-14.672 32.77-32.77v-61.23h-29.999z" fill="#afbbc6"/><path d="m290.633 277.545h-68.846c-10.675 0-20.484-5.787-25.524-15.058l-4.697-8.639c-1.059-1.947.373-4.303 2.615-4.303h124.059c2.242 0 3.674 2.356 2.615 4.303l-4.697 8.639c-5.042 9.272-14.851 15.058-25.525 15.058z" fill="#7b727b"/><path d="m318.239 249.545h-30c2.242 0 3.674 2.356 2.615 4.303l-4.697 8.639c-5.041 9.271-14.85 15.058-25.524 15.058h30c10.675 0 20.484-5.787 25.524-15.058l4.697-8.639c1.059-1.946-.373-4.303-2.615-4.303z" fill="#686169"/><g><path d="m344.448 421.864c-3.213-2.615-7.937-2.129-10.552 1.081-38.073 46.77-70.461 71.468-77.672 73.942-3.024-1.103-13.856-7.47-34.002-26.521-20.453-19.34-41.901-43.842-60.396-68.992-36.777-50.012-80.616-127.212-80.616-210.978 0-96.713 78.505-175.396 175-175.396 40.169 0 79.404 13.979 110.479 39.364 3.207 2.619 7.933 2.145 10.554-1.063 2.62-3.208 2.145-7.933-1.063-10.554-33.747-27.565-76.352-42.747-119.97-42.747-104.767 0-190 85.411-190 190.396 0 89.15 46.645 170.417 85.774 222.893 20.339 27.465 76.938 93.989 104.225 98.712 2.438-.001 9.857-.001 35.394-22.586 17.326-15.322 36.478-35.565 53.926-57 2.615-3.212 2.131-7.936-1.081-10.551z"/><path d="m402.061 68.367c-2.652-3.18-7.382-3.61-10.563-.956-3.181 2.653-3.609 7.383-.956 10.563 82.66 94.636 21.572 241.325-35.705 317.55-2.409 3.369-1.632 8.054 1.738 10.463 3.332 2.393 8.039 1.654 10.463-1.738 61.312-81.552 122.782-235.154 35.023-335.882z"/><path d="m160.711 299.676c-2.564 3.253-2.006 7.969 1.247 10.532 98.611 78.734 247.344 6.369 246.751-119.813.001-84.087-68.41-152.498-152.499-152.498-126.086-.58-198.477 147.932-119.95 246.578 2.56 3.257 7.275 3.821 10.531 1.262 3.257-2.56 3.821-7.274 1.262-10.531-70.796-88.939-5.51-222.846 108.158-222.309 75.816-.001 137.499 61.682 137.499 137.499.522 113.765-133.556 179.018-222.467 108.032-3.25-2.565-7.968-2.006-10.532 1.248z"/><path d="m185.173 247.159c-1.892 3.181-1.965 7.021-.197 10.272l4.697 8.639c6.364 11.704 18.669 18.976 32.113 18.976h68.846c13.444 0 25.749-7.271 32.113-18.976l4.697-8.64c1.768-3.251 1.694-7.091-.197-10.271-1.903-3.202-5.271-5.113-9.007-5.113h-9.913c1.573-4.348 2.384-8.961 2.384-13.686v-4.308h1.115c33.09-1.374 33.064-48.511 0-49.872h-1.115v-7.051c0-4.143-3.357-7.5-7.5-7.5h-94c-4.143 0-7.5 3.357-7.5 7.5v61.23c0 4.73.815 9.34 2.387 13.686h-9.916c-3.736.001-7.103 1.912-9.007 5.114zm126.652-57.978c13.185.547 13.176 19.33 0 19.872h-1.115v-19.872zm-95.115 39.179v-53.73h79v53.73c0 4.904-1.407 9.606-4.05 13.686h-70.904c-2.643-4.079-4.046-8.776-4.046-13.686zm93.869 28.686-1.011 1.858c-3.736 6.873-10.992 11.142-18.936 11.142h-68.846c-7.943 0-15.199-4.269-18.936-11.142l-1.011-1.858z"/><path d="m219.989 142.51c.292 9.578 13.946 10.073 14.977.601.999-.907 3.892-2.249 5.681-3.08 5.712-2.65 14.343-6.656 14.343-16.085s-8.632-13.436-14.343-16.086c-1.425-.661-3.549-1.647-4.859-2.479 1.312-.832 3.435-1.817 4.859-2.479 5.711-2.65 14.343-6.655 14.343-16.084 0-4.143-3.357-7.5-7.5-7.5-3.939 0-7.17 3.038-7.477 6.899-.999.906-3.892 2.248-5.681 3.079-5.711 2.65-14.343 6.655-14.343 16.084s8.631 13.435 14.342 16.085c1.426.661 3.551 1.647 4.861 2.48-7.424 4.437-18.732 6.49-19.203 18.565z"/><path d="m264.71 142.51c.292 9.578 13.946 10.073 14.977.601.999-.907 3.892-2.249 5.681-3.08 5.712-2.65 14.343-6.656 14.343-16.085s-8.632-13.436-14.343-16.086c-1.425-.661-3.549-1.647-4.859-2.479 1.312-.832 3.435-1.817 4.859-2.479 5.711-2.65 14.343-6.655 14.343-16.084 0-4.143-3.357-7.5-7.5-7.5-3.939 0-7.17 3.038-7.477 6.899-.999.906-3.892 2.248-5.681 3.079-5.711 2.65-14.343 6.655-14.343 16.084s8.631 13.435 14.342 16.085c1.426.661 3.551 1.647 4.861 2.48-7.424 4.437-18.733 6.49-19.203 18.565z"/></g></g></svg>