<svg id="Layer_1" enable-background="new 0 0 512 512" height="512" viewBox="0 0 512 512" width="512" xmlns="http://www.w3.org/2000/svg"><g><path d="m261.5 504.5h-214c-22.091 0-40-17.909-40-40v-417c0-22.091 17.909-40 40-40h214c22.091 0 40 17.909 40 40v417c0 22.091-17.909 40-40 40z" fill="#7b727b"/><path d="m261.5 7.5h-30c22.091 0 40 17.909 40 40v417c0 22.091-17.909 40-40 40h30c22.091 0 40-17.909 40-40v-417c0-22.091-17.909-40-40-40z" fill="#686169"/><path d="m275.5 47.5v417c0 7.732-6.268 14-14 14h-214c-7.732 0-14-6.268-14-14v-417c0-7.732 6.268-14 14-14h40.104c2.331 0 4.405 1.48 5.164 3.684l5.284 15.353c.759 2.204 2.833 3.684 5.164 3.684h102.568c2.331 0 4.405-1.48 5.164-3.684l5.284-15.353c.759-2.204 2.833-3.684 5.164-3.684h40.104c7.732 0 14 6.268 14 14z" fill="#d6faec"/><g><path d="m261.5 33.5h-30c7.732 0 14 6.268 14 14v417c0 7.732-6.268 14-14 14h30c7.732 0 14-6.268 14-14v-417c0-7.732-6.268-14-14-14z" fill="#ccfae8"/></g><path d="m130.836 266.116v22.193c0 2.685 2.174 4.862 4.857 4.862h283.954s16.587-26.951 16.587-63.998-16.587-69.094-16.587-69.094h-28.726v92.587s-43.172 1.408-52.664 1.408c-12.729 0-27.061-10.331-27.061-23.074v-24.164c0-12.298-9.958-22.267-22.242-22.267h-76.621c-45.009 0-81.497 36.51-81.497 81.547z" fill="#ff6167"/><g fill="#fe454a"><path d="m281.196 206.835v24.164c0 12.743 14.332 23.074 27.061 23.074 4.076 0 14.363-.259 24.775-.556-11.126-2.295-21.836-11.502-21.836-22.518v-24.164c0-12.297-9.958-22.267-22.242-22.267h-30c12.284 0 22.242 9.97 22.242 22.267z"/><path d="m419.647 160.079h-28.726v2.646c3.876 8.372 15.313 35.675 15.313 66.448 0 37.047-16.587 63.998-16.587 63.998h30s16.587-26.951 16.587-63.998-16.587-69.094-16.587-69.094z"/></g><circle cx="211.622" cy="294.79" fill="#7b727b" r="52.615"/><circle cx="434.114" cy="294.79" fill="#7b727b" r="52.615"/><circle cx="434.114" cy="294.79" fill="#efefef" r="18.019"/><circle cx="211.622" cy="294.79" fill="#efefef" r="18.019"/><path d="m144.005 293.171h135.233c1.844 0 3.329-1.54 3.242-3.383-1.765-37.635-32.815-67.607-70.859-67.607s-69.094 29.972-70.859 67.607c-.085 1.843 1.4 3.383 3.243 3.383z" fill="#2fd9e7"/><path d="m211.622 222.181c-5.149 0-10.163.566-15 1.609 30.905 6.661 54.333 33.456 55.859 65.998.086 1.843-1.399 3.383-3.242 3.383h30c1.844 0 3.329-1.54 3.242-3.383-1.765-37.635-32.815-67.607-70.859-67.607z" fill="#00d0e4"/><path d="m182.888 293.149h57.468c0-15.871-12.863-28.734-28.734-28.734s-28.734 12.862-28.734 28.734z" fill="#ffe589"/><path d="m188.7 184.691h110c8.284 0 15-6.716 15-15 0-8.284-6.716-15-15-15h-110c-8.284 0-15 6.716-15 15 0 8.285 6.716 15 15 15z" fill="#7b727b"/><path d="m298.7 154.691h-30c8.284 0 15 6.716 15 15 0 8.284-6.716 15-15 15h30c8.284 0 15-6.716 15-15 0-8.284-6.716-15-15-15z" fill="#686169"/><path d="m366.089 293.171h135.167c1.843 0 3.327-1.54 3.241-3.383-1.764-37.635-32.799-67.607-70.824-67.607s-69.06 29.972-70.824 67.607c-.088 1.843 1.397 3.383 3.24 3.383z" fill="#2fd9e7"/><path d="m433.672 222.181c-5.149 0-10.163.567-15 1.611 30.887 6.664 54.299 33.458 55.824 65.996.086 1.843-1.398 3.383-3.241 3.383h30c1.843 0 3.327-1.54 3.241-3.383-1.763-37.635-32.799-67.607-70.824-67.607z" fill="#00d0e4"/><path d="m405.428 293.149h57.44c0-15.871-12.856-28.734-28.72-28.734-15.863 0-28.72 12.862-28.72 28.734z" fill="#ffe589"/><path d="m389.984 160.079h65.623c4.194 0 7.593-3.4 7.593-7.593v-18.352c0-4.194-3.4-7.593-7.593-7.593h-42.236c-12.917 0-23.388 10.471-23.388 23.388v10.15z" fill="#2fd9e7"/><path d="m436.234 160.079h19.375c4.193 0 7.592-3.399 7.592-7.592v-18.352c0-4.195-3.4-7.595-7.595-7.595h-19.372z" fill="#ffe589"/><circle cx="371.017" cy="82.829" fill="#2fd9e7" r="16.189"/><g><path d="m500.479 252.071c-2.169-3.529-6.79-4.629-10.318-2.46-3.528 2.17-4.629 6.789-2.459 10.317 4.804 7.811 7.855 16.631 8.934 25.742h-27.047c-8.701-38.153-62.195-38.126-70.88 0h-28.004c4.664-44.658 56.005-70.516 94.813-47.414 3.578 2.085 8.17.877 10.256-2.702s.876-8.171-2.703-10.257c-9.22-5.375-19.466-8.779-30.049-10.048-1.973-19.867-7.656-37.114-11.857-47.67h24.445c8.322 0 15.092-6.771 15.092-15.092v-18.354c0-8.322-6.771-15.094-15.093-15.094h-35.614l-1.442-11.548c-1.548-12.391-9.601-23.231-21.017-28.289l-3.394-1.504c-6.738-27.284-46.037-23.236-46.813 5.131.344 25.155 33.763 32.625 44.929 10.474 6.204 3.078 10.547 9.144 11.409 16.048l1.354 10.845c-12.986 3.653-22.537 15.594-22.537 29.731v2.651h-12.966c-9.931.344-9.923 14.66 0 15h13.903v65.304c-4.567 3.814-8.691 8.139-12.289 12.895-17.43.521-28.792.796-32.875.796-8.622 0-19.561-7.333-19.561-15.574v-24.163c0-7.185-2.557-13.783-6.807-18.932 13.56-9.668 11.905-30.712-2.889-38.207v-102.197c0-26.191-21.309-47.5-47.5-47.5h-214c-26.191 0-47.5 21.309-47.5 47.5v43.039c.344 9.931 14.66 9.923 15 0v-43.039c0-17.921 14.58-32.5 32.5-32.5h214c17.92 0 32.5 14.579 32.5 32.5v99.691h-11v-99.691c0-11.855-9.645-21.5-21.5-21.5h-40.104c-5.53 0-10.456 3.514-12.256 8.743l-4.811 13.978h-99.659l-4.811-13.979c-1.799-5.228-6.725-8.742-12.255-8.742h-40.104c-11.855 0-21.5 9.645-21.5 21.5v417c0 11.855 9.645 21.5 21.5 21.5h128.091c9.931-.344 9.923-14.66 0-15h-128.091c-3.584 0-6.5-2.916-6.5-6.5v-417c0-3.584 2.916-6.5 6.5-6.5h38.65l4.811 13.978c1.799 5.229 6.724 8.743 12.255 8.743h102.568c5.531 0 10.456-3.514 12.255-8.743l4.811-13.978h38.65c3.584 0 6.5 2.916 6.5 6.5v99.691h-79.3c-20.407.051-30.123 25.146-15.379 38.902-29.572 14.492-49.985 44.915-49.985 80.023v22.192c0 6.816 5.543 12.362 12.356 12.362h16.108c7.053 63.427 93.607 74.131 116.199 14.984v148.846c0 3.584-2.916 6.5-6.5 6.5h-49.875c-9.931.344-9.923 14.66 0 15h49.876c11.855 0 21.5-9.645 21.5-21.5v-163.829h11v163.829c0 17.921-14.58 32.5-32.5 32.5h-214c-17.92 0-32.5-14.579-32.5-32.5v-340.605c-.344-9.931-14.66-9.923-15 0v340.605c0 26.191 21.309 47.5 47.5 47.5h214c26.191 0 47.5-21.309 47.5-47.5v-163.829h65.291c9.018 71.917 110.656 71.854 119.647 0h7.317c2.923 0 5.758-1.214 7.777-3.33 2.015-2.111 3.093-4.993 2.956-7.904-.619-13.209-4.599-26.13-11.509-37.366zm-129.462-160.552c-4.791 0-8.689-3.898-8.689-8.689.456-11.52 16.924-11.516 17.378 0 .001 4.79-3.897 8.689-8.689 8.689zm84.589 42.521c.052 0 .095.043.095.095v18.351c0 .052-.042.094-.093.094h-11.874v-18.54zm-58.122 15.888c0-8.756 7.12-15.879 15.873-15.887.007 0 .014-.001.021-.001h15.355v18.539h-31.25v-2.651zm.937 17.651h16.458c3.445 7.786 10.599 25.956 13.025 47.333-10.537.764-20.502 3.599-29.484 8.118v-55.451zm-209.721 9.612c-9.929-.353-9.922-14.65 0-15h110c9.929.353 9.922 14.65 0 15h-7.115c-.868-.077-1.744-.123-2.631-.123h-76.621c-1.571 0-3.131.042-4.682.123zm19.484 15h82.579c7.276.898 12.932 7.117 12.932 14.645v24.163c0 17.499 18.247 30.574 34.561 30.574 3.998 0 13.816-.244 23.841-.526-3.407 7.626-5.652 15.903-6.474 24.624h-65.921c-8.722-82.579-121.397-97.071-151.34-20.62.556-38.949 31.296-70.718 69.822-72.86zm3.438 37.49c32.437 0 59.295 24.252 63.002 55.99h-27.548c-8.704-38.153-62.219-38.126-70.908 0h-27.548c3.707-31.738 30.565-55.99 63.002-55.99zm-19.867 55.967c6.898-18.203 32.842-18.192 39.733 0zm28.584 15.023c-3.935 6.124-13.504 6.122-17.437 0zm-8.719 39.229c-22.88 0-41.822-17.126-44.714-39.229h19.886c6.472 26.027 43.195 26.01 49.657 0h19.896c-2.894 22.103-21.84 39.229-44.725 39.229zm231.208-39.229c-3.935 6.124-13.504 6.122-17.437 0zm-8.679-28.757c9.064 0 16.818 5.716 19.853 13.734h-39.707c3.035-8.018 10.79-13.734 19.854-13.734zm-.039 67.986c-22.879 0-41.822-17.126-44.714-39.229h19.886c6.472 26.027 43.195 26.01 49.657 0h19.896c-2.894 22.103-21.84 39.229-44.725 39.229z"/><path d="m181.332 434.891c2.968 2.885 7.715 2.823 10.605-.148l20.261-20.833c2.812-2.891 2.834-7.486.051-10.404l-20.261-21.244c-2.858-2.998-7.606-3.109-10.604-.252-2.998 2.859-3.11 7.606-.251 10.604l8.171 8.568h-78.113c-9.931.344-9.923 14.66 0 15h77.874l-7.882 8.104c-2.887 2.968-2.82 7.717.149 10.605z"/></g></g></svg>