<svg id="Layer_1" enable-background="new 0 0 512 512" height="512" viewBox="0 0 512 512" width="512" xmlns="http://www.w3.org/2000/svg"><g><path d="m344.897 475.434c-33.538-20.517-35.53-62-35.53-62h-106.723s-1.992 41.483-35.536 62z" fill="#d7d7d7"/><path d="m469.404 413.434h-426.808c-19.383 0-35.096-15.713-35.096-35.096v-262.807c0-19.383 15.713-35.096 35.096-35.096h426.808c19.383 0 35.096 15.713 35.096 35.096v262.808c0 19.382-15.713 35.095-35.096 35.095z" fill="#7b727b"/><path d="m469.404 80.434h-30c19.383 0 35.096 15.713 35.096 35.096v262.808c0 19.383-15.713 35.096-35.096 35.096h30c19.383 0 35.096-15.713 35.096-35.096v-262.807c0-19.383-15.713-35.097-35.096-35.097z" fill="#686169"/><path d="m131.5 16.434h249v437h-249z" fill="#d6faec" transform="matrix(0 1 -1 0 490.935 -21.066)"/><path d="m444.5 110.434h30v249h-30z" fill="#ccfae8"/><path d="m469.404 413.434h-426.808c-19.383 0-35.096-15.713-35.096-35.096v-18.904h497v18.904c0 19.383-15.713 35.096-35.096 35.096z" fill="#f8f7f7"/><path d="m474.5 359.434v18.904c0 19.383-15.713 35.096-35.096 35.096h30c19.383 0 35.096-15.713 35.096-35.096v-18.904z" fill="#efefef"/><path d="m377.77 504.434h-243.54c-3.441 0-6.23-2.789-6.23-6.23 0-12.576 10.194-22.77 22.77-22.77h210.46c12.576 0 22.77 10.194 22.77 22.77 0 3.441-2.789 6.23-6.23 6.23z" fill="#f8f7f7"/><path d="m361.23 475.434h-30c12.576 0 22.77 10.194 22.77 22.77 0 3.441-2.789 6.23-6.23 6.23h30c3.441 0 6.23-2.789 6.23-6.23 0-12.575-10.194-22.77-22.77-22.77z" fill="#efefef"/><path d="m450.267 101.41c0 84.072-84.232 161.393-93.772 161.393s-93.772-77.321-93.772-161.393c0-51.901 41.983-93.976 93.772-93.976s93.772 42.075 93.772 93.976z" fill="#ff6167"/><path d="m356.495 7.434c-5.106 0-10.115.415-15 1.202 44.658 7.196 78.772 45.99 78.772 92.773 0 65.945-51.82 127.729-78.772 151.31 7.409 6.481 12.943 10.084 15 10.084 9.541 0 93.772-77.321 93.772-161.394 0-51.9-41.983-93.975-93.772-93.975z" fill="#fe454a"/><path d="m474.5 285.984v40h-437v-40h61.7v-175.55h40v175.55z" fill="#2fd9e7"/><g><path d="m444.5 285.984h30v40h-30z" fill="#00d0e4"/></g><path d="m405.714 113.258h-98.439v-6.105c0-27.183 22.036-49.219 49.219-49.219 27.183 0 49.219 22.036 49.219 49.219v6.105z" fill="#cfdbe4"/><path d="m356.495 57.934c-5.232 0-10.27.826-15 2.342 19.846 6.361 34.219 24.995 34.219 47.001v5.981h30v-5.981c0-27.251-22.036-49.343-49.219-49.343z" fill="#afbbc6"/><path d="m401.824 141.329h-90.658c-2.873 0-5.454-2.323-6.504-5.855l-6.607-22.215h116.881l-6.607 22.215c-1.051 3.532-3.632 5.855-6.505 5.855z" fill="#7b727b"/><path d="m384.936 113.258-6.607 22.215c-1.051 3.532-3.631 5.855-6.504 5.855h30c2.873 0 5.454-2.323 6.504-5.855l6.607-22.215z" fill="#686169"/><g><path d="m469.4 72.934h-15.667c-1.553-5.321-3.548-10.526-5.99-15.592-1.797-3.731-6.283-5.297-10.012-3.501-3.732 1.798-5.299 6.281-3.501 10.013 2.787 5.785 4.895 11.784 6.321 17.953.033.177.075.351.12.523 17.646 75.18-68.512 165.491-84.176 172.506-13.712-7.934-86.272-76.314-86.272-153.427 0-47.683 38.702-86.476 86.272-86.476 21.896 0 42.772 8.232 58.785 23.182 3.027 2.825 7.773 2.664 10.601-.364 2.827-3.028 2.664-7.773-.364-10.601-54.51-51.91-146.43-25.145-166.23 45.784h-216.687c-23.49 0-42.6 19.11-42.6 42.6v44.479c.344 9.931 14.66 9.923 15 0v-44.479c0-15.219 12.381-27.6 27.6-27.6h213.517c-.644 4.891-.979 9.958-.87 15h-217.747c-4.142 0-7.5 3.357-7.5 7.5v241.5h-15v-154.481c-.344-9.931-14.66-9.923-15 0v180.882c0 23.489 19.11 42.6 42.6 42.6h151.464c-2.26 11.708-9.087 33.75-29.174 47h-14.12c-16.691 0-30.27 13.579-30.27 30.271 0 7.57 6.159 13.729 13.73 13.729h243.54c7.571 0 13.73-6.159 13.73-13.73 0-16.69-13.579-30.27-30.27-30.27h-14.114c-19.963-13.184-26.84-35.273-29.14-47h45.102c9.931-.344 9.923-14.66 0-15h-320.478c-15.219 0-27.6-12.381-27.6-27.6v-11.4h482v11.4c0 15.219-12.381 27.6-27.6 27.6h-70.695c-9.931.344-9.923 14.66 0 15h70.695c23.49 0 42.6-19.11 42.6-42.6v-262.801c0-23.489-19.11-42.6-42.6-42.6zm-92.952 424h-240.896c.647-7.828 7.226-14 15.218-14h210.46c7.992 0 14.57 6.172 15.218 14zm-73.747-76c1.687 10.476 6.728 30.473 21.584 47h-136.562c14.858-16.527 19.9-36.524 21.587-47zm-2.682-202.817c10.093 13.535 21.707 26.602 32.702 36.792 16.609 15.395 21.815 15.395 23.775 15.395s7.166 0 23.775-15.395c10.995-10.19 22.608-23.257 32.702-36.792 18.001-24.141 39.038-59.991 43.797-100.183h10.23v160.55h-320.3v-160.55h109.521c4.76 40.192 25.797 76.042 43.798 100.183zm-168.319-100.183v168.05c0 4.143 3.358 7.5 7.5 7.5h327.8v25h-422v-25h54.2c4.142 0 7.5-3.357 7.5-7.5v-168.05zm-40 0v160.55h-46.7v-160.55zm-46.7 234v-18.45h422v18.45zm437 0v-241.5c0-4.143-3.358-7.5-7.5-7.5h-16.757c.107-5.033-.219-10.079-.86-15h12.517c15.219 0 27.6 12.381 27.6 27.6v236.4z"/><path d="m413.179 105.758c-.684-28.101-21.895-51.188-49.184-54.812v-4.617c-.344-9.931-14.66-9.923-15 0v4.617c-27.289 3.624-48.5 26.711-49.184 54.812h-11.594c-9.931.344-9.923 14.66 0 15h4.244l5.013 16.854c1.996 6.709 7.499 11.217 13.693 11.217h90.658c6.195 0 11.698-4.508 13.693-11.218l5.013-16.854h4.244c9.931-.344 9.923-14.66 0-15h-11.596zm-56.684-40.324c22.537 0 40.957 17.964 41.696 40.323h-83.393c.741-22.359 19.16-40.323 41.697-40.323zm44.644 67.902c-.06.203-.128.366-.191.493h-88.907c-.063-.127-.131-.291-.191-.493l-3.741-12.578h96.771z"/></g></g></svg>