<svg id="Layer_1" enable-background="new 0 0 512 512" height="512" viewBox="0 0 512 512" width="512" xmlns="http://www.w3.org/2000/svg"><g><path d="m284 504.5h-214c-22.091 0-40-17.909-40-40v-417c0-22.091 17.909-40 40-40h214c22.091 0 40 17.909 40 40v417c0 22.091-17.909 40-40 40z" fill="#7b727b"/><path d="m284 7.5h-30c22.091 0 40 17.909 40 40v417c0 22.091-17.909 40-40 40h30c22.091 0 40-17.909 40-40v-417c0-22.091-17.909-40-40-40z" fill="#686169"/><path d="m298 47.5v417c0 7.732-6.268 14-14 14h-214c-7.732 0-14-6.268-14-14v-417c0-7.732 6.268-14 14-14h40.104c2.331 0 4.405 1.48 5.164 3.684l5.284 15.353c.759 2.204 2.833 3.684 5.164 3.684h102.568c2.331 0 4.405-1.48 5.164-3.684l5.284-15.353c.759-2.204 2.833-3.684 5.164-3.684h40.104c7.732 0 14 6.268 14 14z" fill="#d6faec"/><g><path d="m284 33.5h-30c7.732 0 14 6.268 14 14v417c0 7.732-6.268 14-14 14h30c7.732 0 14-6.268 14-14v-417c0-7.732-6.268-14-14-14z" fill="#ccfae8"/></g><path d="m216 414h-78c-11.598 0-21-9.402-21-21 0-11.598 9.402-21 21-21h78c11.598 0 21 9.402 21 21 0 11.598-9.402 21-21 21z" fill="#2fd9e7"/><path d="m462.369 327h-344.738c-10.842 0-19.631-8.789-19.631-19.631v-200.738c0-10.842 8.789-19.631 19.631-19.631h344.739c10.841 0 19.63 8.789 19.63 19.631v200.739c0 10.841-8.789 19.63-19.631 19.63z" fill="#2fd9e7"/><path d="m462.369 87h-30c10.842 0 19.631 8.789 19.631 19.63v200.74c0 10.841-8.789 19.63-19.631 19.63h30c10.842 0 19.631-8.789 19.631-19.63v-200.74c0-10.841-8.789-19.63-19.631-19.63z" fill="#00d0e4"/><path d="m211 178h-62c-3.314 0-6-2.686-6-6v-40c0-3.314 2.686-6 6-6h62c3.314 0 6 2.686 6 6v40c0 3.314-2.686 6-6 6z" fill="#ffe589"/><path d="m186 289.826h-88v-52h88c14.359 0 26 11.641 26 26 0 14.36-11.641 26-26 26z" fill="#ff6167"/><g><g><path d="m138 364.5c-37.818 1.57-37.789 55.444 0 57h78c37.818-1.57 37.789-55.444 0-57zm91.5 28.5c0 7.444-6.056 13.5-13.5 13.5h-78c-17.914-.743-17.9-26.264 0-27h78c7.444 0 13.5 6.056 13.5 13.5z"/><path d="m462.369 79.5h-38.178c-9.931.344-9.923 14.66 0 15h38.178c6.689 0 12.131 5.441 12.131 12.131v200.738c0 6.689-5.441 12.131-12.131 12.131h-344.738c-6.689 0-12.131-5.441-12.131-12.131v-10.043h80.5c44.453-1.846 44.419-65.171 0-67h-80.5v-123.695c0-6.689 5.441-12.131 12.131-12.131h271.305c9.931-.344 9.923-14.66 0-15h-57.436v-32c0-26.191-21.309-47.5-47.5-47.5h-214c-26.191 0-47.5 21.309-47.5 47.5v43.039c.344 9.931 14.66 9.923 15 0v-43.039c0-17.921 14.579-32.5 32.5-32.5h214c17.921 0 32.5 14.579 32.5 32.5v32h-11v-32c0-11.855-9.645-21.5-21.5-21.5h-40.1c-5.528 0-10.455 3.509-12.263 8.741l-4.805 13.979h-99.666l-4.809-13.989c-1.804-5.222-6.73-8.73-12.259-8.73h-40.098c-11.855 0-21.5 9.645-21.5 21.5v417c0 11.855 9.645 21.5 21.5 21.5h214c11.855 0 21.5-9.645 21.5-21.5v-23.45c-.344-9.931-14.66-9.923-15 0v23.45c0 3.584-2.916 6.5-6.5 6.5h-214c-3.584 0-6.5-2.916-6.5-6.5v-417c0-3.584 2.916-6.5 6.5-6.5h38.652l4.809 13.988c1.803 5.223 6.729 8.731 12.259 8.731h102.56c5.529 0 10.456-3.509 12.263-8.741l4.805-13.979h38.652c3.584 0 6.5 2.916 6.5 6.5v32h-172.869c-14.96 0-27.131 12.171-27.131 27.131v200.738c0 14.96 12.171 27.131 27.131 27.131h172.869v71.573c.344 9.931 14.66 9.923 15 0v-71.573h11v130c0 17.921-14.579 32.5-32.5 32.5h-214c-17.921 0-32.5-14.579-32.5-32.5v-338.5c-.344-9.931-14.66-9.923-15 0v338.5c0 26.191 21.309 47.5 47.5 47.5h214c26.191 0 47.5-21.309 47.5-47.5v-130h130.869c14.96 0 27.131-12.171 27.131-27.131v-200.738c0-14.96-12.171-27.131-27.131-27.131zm-276.369 165.826c24.549 1.019 24.53 35.99 0 37h-80.5v-37z"/><path d="m347.18 299.755c3.869 1.476 8.204-.468 9.679-4.339l3.569-9.372h24.542l3.529 9.351c1.458 3.914 5.891 5.823 9.665 4.368 3.875-1.462 5.831-5.789 4.368-9.665l-21.521-57.027c-.025-.069-.053-.138-.081-.207-1.365-3.315-4.562-5.456-8.147-5.456h-.012c-3.59.004-6.787 2.154-8.145 5.478-.023.056-.045.111-.066.167l-21.719 57.024c-1.475 3.87.469 8.203 4.339 9.678zm25.575-46.077 6.554 17.366h-13.168z"/><path d="m415.666 265.425-.067 27.302c-.01 4.143 3.34 7.509 7.481 7.519h.019c4.134 0 7.49-3.346 7.5-7.481l.067-27.33 17.114-26.29c2.26-3.472 1.278-8.117-2.193-10.377-3.471-2.262-8.118-1.279-10.377 2.193l-12.048 18.507-12.185-18.662c-2.267-3.469-6.911-4.442-10.381-2.18-3.468 2.265-4.444 6.912-2.18 10.381z"/><path d="m300.422 292.746c.344 9.931 14.66 9.923 15 0v-17.664c3.167-.016 6.598-.03 8.604-.03 32.031-1.314 32.016-46.338 0-47.645h-16.104c-4.038-.08-7.592 3.487-7.5 7.523zm23.604-50.339c4.955 0 9.142 4.04 9.142 8.822s-4.187 8.822-9.142 8.822c-1.993 0-5.383.014-8.533.03-.04-7.441-.026-10.009-.049-17.675h8.582z"/><path d="m149 118.5c-7.444 0-13.5 6.056-13.5 13.5v40c0 7.444 6.056 13.5 13.5 13.5h62c7.444 0 13.5-6.056 13.5-13.5v-40c0-7.444-6.056-13.5-13.5-13.5zm60.5 52h-59v-37h59z"/><path d="m273.904 144.069v12c.344 9.931 14.66 9.923 15 0v-12c-.343-9.931-14.66-9.923-15 0z"/><path d="m405.106 163.569c4.143 0 7.5-3.357 7.5-7.5v-12c-.344-9.931-14.66-9.923-15 0v12c0 4.143 3.358 7.5 7.5 7.5z"/><path d="m439.342 156.069v-12c-.344-9.931-14.66-9.923-15 0v12c.343 9.931 14.66 9.924 15 0z"/><path d="m327.723 156.069v-12c-.344-9.931-14.66-9.923-15 0v12c.343 9.931 14.66 9.924 15 0z"/><path d="m348.56 163.569c4.143 0 7.5-3.357 7.5-7.5v-12c-.344-9.931-14.66-9.923-15 0v12c0 4.143 3.357 7.5 7.5 7.5z"/></g></g></g></svg>