<svg id="Layer_1" enable-background="new 0 0 512 512" height="512" viewBox="0 0 512 512" width="512" xmlns="http://www.w3.org/2000/svg"><g><path d="m459.313 217.599h-110v-172.834c0-20.527 16.64-37.167 37.167-37.167h35.667c20.527 0 37.167 16.64 37.167 37.167v172.834z" fill="#e07f5d"/><path d="m422.146 7.599h-30c20.527 0 37.167 16.64 37.167 37.167v172.833h30v-172.834c0-20.526-16.64-37.166-37.167-37.166z" fill="#d06d4a"/><path d="m311 217.599h-110v-172.834c0-20.527 16.64-37.167 37.167-37.167h35.667c20.526.001 37.166 16.641 37.166 37.167z" fill="#e07f5d"/><path d="m273.833 7.599h-30c20.527 0 37.167 16.64 37.167 37.166v172.833h30v-172.833c0-20.526-16.64-37.166-37.167-37.166z" fill="#d06d4a"/><path d="m468.116 401.46h-329.12c-4.038 0-7.442-3.009-7.939-7.016l-27.331-220.405c-.592-4.772 3.13-8.984 7.939-8.984h383.782c4.809 0 8.531 4.212 7.939 8.984l-27.331 220.405c-.497 4.007-3.901 7.016-7.939 7.016z" fill="#ff6167"/><path d="m495.447 165.055h-30c4.809 0 8.531 4.212 7.939 8.984l-27.331 220.405c-.497 4.007-3.902 7.016-7.939 7.016h30c4.038 0 7.442-3.009 7.939-7.016l27.331-220.405c.592-4.772-3.13-8.984-7.939-8.984z" fill="#fe454a"/><g fill="#686169"><circle cx="120.954" cy="472.684" r="31.915"/><circle cx="472.585" cy="472.684" r="31.915"/><circle cx="23.5" cy="116.386" r="16"/><path d="m201.556 364.099c-9.389 0-17-7.611-17-17v-128c0-9.389 7.611-17 17-17 9.389 0 17 7.611 17 17v128c0 9.389-7.611 17-17 17z"/><path d="m269.556 364.099c-9.389 0-17-7.611-17-17v-128c0-9.389 7.611-17 17-17 9.389 0 17 7.611 17 17v128c0 9.389-7.611 17-17 17z"/><path d="m337.556 364.099c-9.389 0-17-7.611-17-17v-128c0-9.389 7.611-17 17-17 9.389 0 17 7.611 17 17v128c0 9.389-7.611 17-17 17z"/><path d="m405.556 364.099c-9.389 0-17-7.611-17-17v-128c0-9.389 7.611-17 17-17 9.389 0 17 7.611 17 17v128c0 9.389-7.611 17-17 17z"/></g><g><path d="m432.313 35.513h-56c-9.931.344-9.923 14.66 0 15h56c9.931-.344 9.924-14.66 0-15z"/><path d="m432.313 63.403h-56c-9.931.344-9.923 14.66 0 15h56c9.931-.343 9.924-14.659 0-15z"/><path d="m432.313 91.293h-56c-9.931.344-9.923 14.66 0 15h56c9.931-.343 9.924-14.66 0-15z"/><path d="m284 35.513h-56c-9.931.344-9.923 14.66 0 15h56c9.931-.344 9.923-14.66 0-15z"/><path d="m284 63.403h-56c-9.931.344-9.923 14.66 0 15h56c9.931-.343 9.923-14.659 0-15z"/><path d="m284 91.293h-56c-9.931.344-9.923 14.66 0 15h56c9.931-.343 9.923-14.66 0-15z"/><path d="m472.585 433.27c-4.679 0-9.168.824-13.335 2.327l-15.845-26.637h24.712c7.809 0 14.421-5.843 15.383-13.592l27.33-220.405c.546-4.407-.827-8.844-3.768-12.171-2.94-3.328-7.174-5.236-11.615-5.236h-28.637v-16.964c-.344-9.931-14.66-9.923-15 0v16.964h-95v-112.787c0-16.36 13.311-29.67 29.671-29.67h35.67c16.354 0 29.659 13.31 29.659 29.67v61.218c.344 9.931 14.66 9.923 15 0v-61.218c0-24.631-20.034-44.67-44.659-44.67h-35.67c-24.632 0-44.671 20.039-44.671 44.67v112.786h-23.31v-112.786c0-24.631-20.039-44.67-44.67-44.67h-35.66c-24.631 0-44.67 20.039-44.67 44.67v112.786h-81.835c-.889 0-1.765.097-2.629.246l-2.069-14.851c-2.704-19.42-19.529-34.064-39.137-34.064h-22.064c-8.796-24.851-45.244-19.184-45.766 7.5.525 26.688 36.975 32.347 45.766 7.5h22.065c12.164 0 22.603 9.085 24.279 21.134l4.18 30.007 4.829 38.936c.511 4.111 4.266 7.021 8.366 6.521 4.111-.51 7.03-4.256 6.521-8.366l-4.837-39.001c-.008-.062-.028-.224.121-.393s.313-.169.375-.169h89.258c.052.004.103.004.155 0h109.845c.052.004.103.004.155 0h38.155c.052.004.103.004.155 0h109.845c.052.004.103.004.155 0h36.059c.062 0 .226 0 .375.169s.129.331.121.393l-27.33 220.404c-.03.25-.244.438-.496.438h-65.74c-9.931.344-9.923 14.66 0 15h23.576l20.418 34.325c-6.315 5.636-10.805 13.27-12.475 21.899h-274.252c-1.57-8.114-5.636-15.344-11.365-20.865l22.92-35.359h195.457c9.931-.344 9.923-14.66 0-15h-227.66c-.252 0-.466-.188-.496-.438l-18.154-146.404c-.511-4.11-4.254-7.017-8.366-6.521-4.11.51-7.03 4.256-6.521 8.366l18.154 146.404c.962 7.749 7.574 13.592 15.383 13.592h14.326l-17.621 27.184c-25.196-10.674-54.596 9.083-54.162 36.541 1.37 47.81 67.917 53.786 78.104 7.5h274.252c10.2 46.301 76.739 40.296 78.105-7.5 0-21.733-17.682-39.413-39.415-39.413zm-449.085-308.384c-4.687 0-8.5-3.813-8.5-8.5.428-11.261 16.574-11.258 17 0 0 4.686-3.813 8.5-8.5 8.5zm185-80.117c0-16.36 13.31-29.67 29.67-29.67h35.66c16.36 0 29.67 13.31 29.67 29.67v112.786h-95zm-87.546 452.33c-13.463 0-24.415-10.952-24.415-24.415-.238-15.794 15.607-27.883 30.757-23.573l-12.636 19.494c-2.253 3.476-1.262 8.119 2.215 10.373 3.426 2.234 8.106 1.289 10.373-2.215l12.629-19.484c12.943 15.622 1.54 39.914-18.923 39.82zm351.631 0c-20.924.077-32.128-25.098-18.314-40.534l11.869 19.953c2.13 3.592 6.779 4.711 10.279 2.611 3.561-2.117 4.729-6.72 2.611-10.279l-11.875-19.964c14.979-3.615 30.044 8.36 29.845 23.798 0 13.463-10.952 24.415-24.415 24.415z"/><path d="m226.056 347.099v-128c-1.349-32.511-47.663-32.486-49 0v128c1.349 32.51 47.663 32.485 49 0zm-34 0v-128c.523-12.606 18.481-12.596 19 0v128c-.524 12.606-18.482 12.596-19 0z"/><path d="m294.056 347.099v-128c-1.349-32.511-47.663-32.486-49 0v128c1.349 32.51 47.663 32.485 49 0zm-34 0v-128c.523-12.606 18.481-12.596 19 0v128c-.524 12.606-18.482 12.596-19 0z"/><path d="m362.056 347.099v-128c-1.349-32.511-47.663-32.486-49 0v128c1.349 32.51 47.663 32.485 49 0zm-34 0v-128c.523-12.606 18.481-12.596 19 0v128c-.524 12.606-18.482 12.596-19 0z"/><path d="m430.056 347.099v-128c-1.349-32.511-47.663-32.486-49 0v128c1.349 32.51 47.663 32.485 49 0zm-34 0v-128c.523-12.606 18.481-12.596 19 0v128c-.524 12.606-18.482 12.596-19 0z"/></g></g></svg>