<svg id="Layer_1" enable-background="new 0 0 512 512" height="512" viewBox="0 0 512 512" width="512" xmlns="http://www.w3.org/2000/svg"><g><path d="m470.07 354.129h-321.14c-12.388 0-22.43-10.042-22.43-22.43v-201.57h366v201.571c0 12.387-10.042 22.429-22.43 22.429z" fill="#ffe589"/><path d="m462.5 130.129v201.571c0 12.388-10.042 22.43-22.43 22.43h30c12.388 0 22.43-10.042 22.43-22.43v-201.57h-30z" fill="#ffcd55"/><path d="m500.5 130.129h-382c-2.209 0-4-1.791-4-4v-6c0-18.778 15.222-34 34-34h322c18.778 0 34 15.222 34 34v6c0 2.21-1.791 4-4 4z" fill="#2fd9e7"/><path d="m470.5 86.129h-30c18.778 0 34 15.222 34 34v6c0 2.209-1.791 4-4 4h30c2.209 0 4-1.791 4-4v-6c0-18.777-15.222-34-34-34z" fill="#00d0e4"/><path d="m405.79 360.044c0 9.993-8.059 18.094-18 18.094h-93.239c-22.185 0-44.049 5.333-63.767 15.553l-107.808 55.882c-8.779 4.551-18.235 7.651-28.001 9.182l-85.165 13.35c-1.213.19-2.309-.749-2.309-1.979v-86.988c0-1.012.754-1.865 1.757-1.988l48.662-5.972c8.861-1.087 17.47-3.694 25.449-7.704l34.973-17.58c10.448-5.252 19.869-12.352 27.813-20.961l58.271-63.151c5.995-6.497 15.876-7.52 23.071-2.39 7.993 5.699 9.813 16.865 4.047 24.831l-31.405 43.385c-3.116 4.304-.057 10.344 5.239 10.344h182.412c9.941-.001 18 8.099 18 18.092z" fill="#ffd8ca"/><g fill="#ffbead"><path d="m201.543 288.221-31.405 43.386c-3.116 4.304-.057 10.344 5.239 10.344h30c-5.296 0-8.354-6.04-5.239-10.344l31.405-43.386c5.766-7.965 3.946-19.131-4.047-24.831-7.202-5.135-17.074-4.109-23.079 2.398l-2.295 2.488c3.791 5.952 3.815 13.875-.579 19.945z"/><path d="m387.79 341.951h-30c9.941 0 18 8.101 18 18.094 0 9.993-8.059 18.094-18 18.094h30c9.941 0 18-8.101 18-18.094 0-9.994-8.059-18.094-18-18.094z"/><path d="m200.784 393.692-107.809 55.881c-8.78 4.551-18.231 7.651-27.991 9.181l-57.484 9.01v2.362c0 1.23 1.096 2.169 2.309 1.979l85.175-13.351c9.76-1.53 19.212-4.63 27.991-9.181l107.808-55.881c19.718-10.221 41.582-15.554 63.767-15.554h-30c-22.185 0-44.048 5.333-63.766 15.554z"/></g><path d="m409.217 298.86c-5.045 6.571-14.462 7.808-21.033 2.763l-50.763-38.975c-6.571-5.045-7.808-14.462-2.763-21.032 5.045-6.571 14.462-7.808 21.033-2.763l50.763 38.975c6.571 5.044 7.808 14.461 2.763 21.032z" fill="#f8f7f7"/><ellipse cx="311.517" cy="223.846" fill="#e07f5d" rx="54.802" ry="72.547" transform="matrix(.609 -.793 .793 .609 -55.744 334.614)"/><path d="m253.974 179.666c-3.169 4.127-5.453 8.712-6.934 13.587 20.841-12.959 53.265-9.285 79.581 10.921s38.24 50.58 31.103 74.061c4.327-2.691 8.166-6.081 11.335-10.208 18.432-24.007 7.612-63.248-24.168-87.648-31.78-24.401-72.485-24.72-90.917-.713z" fill="#d06d4a"/><g><path d="m470.5 78.629h-78.852c-26.785-61.705-137.554-61.653-164.296 0h-16.599c-9.931.344-9.923 14.66 0 15h175.718c.018.002.035.002.053 0h83.976c14.612 0 26.5 11.888 26.5 26.5v2.5h-375v-2.5c0-14.612 11.888-26.5 26.5-26.5h26.253c9.931-.344 9.923-14.66 0-15h-26.253c-22.883 0-41.5 18.617-41.5 41.5v6c0 6.341 5.159 11.5 11.5 11.5h.5v194.071c0 2.938.427 5.811 1.259 8.584-1.73 1.02-3.484 2.002-5.287 2.908l-34.972 17.58c-7.23 3.635-14.967 5.977-22.994 6.961l-48.662 5.972c-4.757.584-8.344 4.638-8.344 9.432v86.988c0 2.782 1.212 5.416 3.327 7.224 2.112 1.812 4.925 2.596 7.644 2.165l85.165-13.35c10.585-1.659 20.777-5.001 30.292-9.934l37.672-19.527c8.658-4.875 2.064-17.581-6.903-13.316l-37.672 19.527c-8.076 4.186-16.727 7.022-25.711 8.432l-78.814 12.354v-75.699l43.832-5.379c9.742-1.195 19.13-4.037 27.904-8.447l34.973-17.58c11.292-5.677 21.372-13.272 29.957-22.577l58.271-63.15c3.421-3.71 9.098-4.297 13.205-1.37 2.222 1.585 3.69 3.948 4.134 6.657.446 2.72-.196 5.443-1.808 7.67l-31.405 43.385c-3.107 4.293-3.541 9.893-1.129 14.614 2.402 4.705 7.17 7.628 12.443 7.628h182.413c13.933.582 13.922 20.611 0 21.188h-93.239c-23.282 0-46.526 5.669-67.218 16.396l-39.062 20.247c-3.678 1.905-5.114 6.433-3.208 10.109 1.906 3.678 6.433 5.117 10.11 3.207l39.062-20.247c18.569-9.624 39.426-14.712 60.316-14.712h93.239c13.53 0 24.627-10.632 25.446-24.009h56.834c16.503 0 29.93-13.427 29.93-29.93v-149.104c-.344-9.931-14.66-9.923-15 0v149.103c0 8.232-6.698 14.93-14.93 14.93h-60.575c-4.496-7.301-12.542-12.179-21.705-12.179h-180.452l30.28-41.832c3.973-5.488 5.557-12.197 4.46-18.891-1.095-6.683-4.728-12.522-10.229-16.444-10.243-7.303-24.402-5.838-32.937 3.41l-58.271 63.151c-2.107 2.283-4.33 4.432-6.641 6.471v-192.687h351v10.805c.344 9.931 14.66 9.923 15 0v-10.805h.5c6.341 0 11.5-5.159 11.5-11.5v-6c0-22.882-18.617-41.5-41.5-41.5zm-161-31c40.103 0 58.004 19.01 65.307 31h-130.61c7.313-12.005 25.216-31 65.303-31z"/><path d="m349.458 174.429c-35.007-26.877-80.511-26.578-101.433.669-10.381 13.521-13.231 31.362-8.027 50.238 9.26 36.433 50.961 68.45 88.549 67.986 10.461.096 20.258-2.044 28.527-6.128l26.539 20.375c4.077 3.13 8.894 4.644 13.676 4.643 6.76 0 13.451-3.024 17.881-8.787 3.657-4.768 5.24-10.674 4.457-16.63-.783-5.964-3.844-11.262-8.61-14.913l-26.61-20.438c4.951-25.527-8.024-56.342-34.949-77.015zm-20.793 103.895c-15.55-.122-31.871-6.145-45.955-16.959-23.62-17.484-40.748-52.754-22.787-77.132 7.659-9.975 20.01-14.922 33.938-14.922 40.675-.972 86.625 45.11 74.977 82.969-.036.12-.074.238-.104.359-1.237 3.886-3.097 7.53-5.623 10.82-7.449 9.702-19.675 14.994-34.446 14.865zm73.225 5.46c1.588 1.216 2.606 2.979 2.867 4.964.261 1.987-.267 3.957-1.482 5.541-2.523 3.281-7.246 3.902-10.527 1.382l-22.773-17.484c1.801-1.731 3.492-3.585 5.033-5.592 1.547-2.015 2.895-4.13 4.091-6.315z"/></g></g></svg>