<svg id="Layer_1" enable-background="new 0 0 512 512" height="512" viewBox="0 0 512 512" width="512" xmlns="http://www.w3.org/2000/svg"><g><path d="m428.135 123.59v173.188c0 2.783-2.256 5.039-5.039 5.039h-211.762c-2.783 0-5.038-2.256-5.038-5.039v-173.188c0-8.094.718-16.173 2.145-24.14l8.951-49.968h199.648l8.951 49.968c1.427 7.968 2.144 16.046 2.144 24.14z" fill="#e49a6b"/><path d="m425.99 99.45-8.951-49.968h-17.76l8.951 49.968c1.427 7.967 2.145 16.046 2.145 24.14v173.188c0 2.783-2.256 5.039-5.039 5.039h17.76c2.783 0 5.039-2.256 5.039-5.039v-173.188c0-8.094-.717-16.172-2.145-24.14z" fill="#e0925b"/><path d="m423.137 49.483h-211.843c-3.294 0-5.964-2.67-5.964-5.964v-32.368c0-1.962 1.59-3.552 3.552-3.552h216.668c1.962 0 3.552 1.59 3.552 3.552v32.368c-.001 3.294-2.671 5.964-5.965 5.964z" fill="#e0925b"/><path d="m425.549 7.599h-17.76c1.962 0 3.552 1.59 3.552 3.552v32.368c0 3.294-2.67 5.964-5.964 5.964h17.76c3.294 0 5.964-2.67 5.964-5.964v-32.368c0-1.962-1.59-3.552-3.552-3.552z" fill="#d48145"/><path d="m296.875 28.751h40.681v44.991h-40.681z" fill="#f8f7f7"/><path d="m468.116 401.46h-329.12c-4.038 0-7.442-3.009-7.939-7.016l-27.331-220.405c-.592-4.772 3.13-8.984 7.939-8.984h383.782c4.809 0 8.531 4.212 7.939 8.984l-27.331 220.405c-.497 4.007-3.901 7.016-7.939 7.016z" fill="#ff6167"/><path d="m495.447 165.055h-30c4.809 0 8.531 4.212 7.939 8.984l-27.331 220.405c-.497 4.007-3.902 7.016-7.939 7.016h30c4.038 0 7.442-3.009 7.939-7.016l27.331-220.405c.592-4.772-3.13-8.984-7.939-8.984z" fill="#fe454a"/><g fill="#686169"><circle cx="120.954" cy="472.684" r="31.915"/><circle cx="472.585" cy="472.684" r="31.915"/><circle cx="23.5" cy="116.386" r="16"/><path d="m201.556 364.099c-9.389 0-17-7.611-17-17v-128c0-9.389 7.611-17 17-17 9.389 0 17 7.611 17 17v128c0 9.389-7.611 17-17 17z"/><path d="m269.556 364.099c-9.389 0-17-7.611-17-17v-128c0-9.389 7.611-17 17-17 9.389 0 17 7.611 17 17v128c0 9.389-7.611 17-17 17z"/><path d="m337.556 364.099c-9.389 0-17-7.611-17-17v-128c0-9.389 7.611-17 17-17 9.389 0 17 7.611 17 17v128c0 9.389-7.611 17-17 17z"/><path d="m405.556 364.099c-9.389 0-17-7.611-17-17v-128c0-9.389 7.611-17 17-17 9.389 0 17 7.611 17 17v128c0 9.389-7.611 17-17 17z"/></g><g><path d="m472.585 433.27c-4.679 0-9.168.824-13.335 2.327l-15.845-26.637h24.712c7.809 0 14.421-5.843 15.383-13.592l27.33-220.405c.546-4.407-.827-8.844-3.768-12.171-2.94-3.328-7.174-5.236-11.615-5.236h-59.807v-33.966c0-8.51-.763-17.077-2.267-25.463l-7.424-41.447c6.077-1.296 10.65-6.702 10.65-13.16v-32.37c0-6.093-4.957-11.05-11.05-11.05h-13.776c-9.931.344-9.923 14.66 0 15h9.826v26.88h-76.544v-13.229c0-4.143-3.357-7.5-7.5-7.5h-40.681c-4.143 0-7.5 3.357-7.5 7.5v13.228h-76.544v-26.88h163.967c9.931-.344 9.923-14.66 0-15h-167.917c-6.093 0-11.05 4.957-11.05 11.05v32.37c0 6.458 4.574 11.864 10.651 13.16l-7.424 41.445c-1.498 8.351-2.258 16.918-2.258 25.465v33.966h-87.135c-.889 0-1.765.097-2.629.246l-2.068-14.852c-2.705-19.419-19.531-34.063-39.137-34.063h-22.064c-8.796-24.851-45.244-19.184-45.766 7.5.525 26.688 36.975 32.347 45.766 7.5h22.065c12.164 0 22.603 9.085 24.281 21.133l4.178 30 4.829 38.945c.509 4.111 4.252 7.022 8.366 6.521 4.111-.51 7.03-4.256 6.52-8.366l-4.836-39c-.007-.062-.028-.225.122-.394.149-.169.313-.169.375-.169h94.557c.052.004.103.004.155 0h221.685c.052.004.103.004.155 0h67.229c.062 0 .226 0 .375.169s.129.331.121.393l-27.33 220.404c-.03.25-.244.438-.496.438h-65.74c-9.931.344-9.923 14.66 0 15h23.576l20.418 34.325c-6.315 5.636-10.805 13.27-12.475 21.899h-274.252c-1.57-8.114-5.636-15.345-11.366-20.865l22.92-35.359h195.457c9.931-.344 9.923-14.66 0-15h-227.66c-.252 0-.465-.188-.496-.438l-18.154-146.404c-.51-4.111-4.262-7.028-8.366-6.521-4.111.51-7.03 4.256-6.52 8.366l18.154 146.404c.96 7.748 7.573 13.592 15.382 13.592h14.327l-17.621 27.184c-25.196-10.676-54.596 9.082-54.162 36.541 1.37 47.81 67.917 53.785 78.105 7.5h274.251c10.2 46.301 76.739 40.296 78.105-7.5 0-21.734-17.682-39.414-39.415-39.414zm-449.085-308.384c-4.687 0-8.5-3.813-8.5-8.5.427-11.261 16.574-11.258 17 0 0 4.686-3.813 8.5-8.5 8.5zm306.556-88.635v29.991h-25.681v-16.667c.005-.065.005-.129 0-.193v-13.131zm-116.256 87.338c0-7.661.68-15.338 2.022-22.818l7.844-43.792h65.709v16.764c0 4.143 3.357 7.5 7.5 7.5h40.681c4.143 0 7.5-3.357 7.5-7.5v-16.764h65.708l7.845 43.794c1.348 7.516 2.031 15.192 2.031 22.816v33.966h-206.84zm-92.846 373.51c-13.462 0-24.415-10.952-24.415-24.415-.237-15.795 15.607-27.883 30.757-23.573l-12.636 19.494c-2.253 3.476-1.262 8.119 2.214 10.373 3.427 2.233 8.106 1.29 10.373-2.215l12.63-19.484c12.945 15.621 1.54 39.914-18.923 39.82zm351.631 0c-20.925.076-32.128-25.098-18.314-40.534l11.869 19.953c2.13 3.592 6.779 4.711 10.279 2.611 3.561-2.117 4.729-6.72 2.611-10.279l-11.875-19.964c14.979-3.615 30.044 8.36 29.845 23.798 0 13.463-10.952 24.415-24.415 24.415z"/><path d="m226.056 347.099v-128c-1.349-32.511-47.663-32.486-49 0v128c1.349 32.51 47.662 32.485 49 0zm-34 0v-128c.523-12.606 18.481-12.596 19 0v128c-.524 12.606-18.482 12.596-19 0z"/><path d="m294.056 347.099v-128c-1.349-32.511-47.663-32.486-49 0v128c1.349 32.51 47.663 32.485 49 0zm-34 0v-128c.523-12.606 18.481-12.596 19 0v128c-.524 12.606-18.482 12.596-19 0z"/><path d="m362.056 347.099v-128c-1.349-32.511-47.663-32.486-49 0v128c1.349 32.51 47.663 32.485 49 0zm-34 0v-128c.523-12.606 18.481-12.596 19 0v128c-.524 12.606-18.482 12.596-19 0z"/><path d="m430.056 347.099v-128c-1.349-32.511-47.663-32.486-49 0v128c1.349 32.51 47.663 32.485 49 0zm-34 0v-128c.523-12.606 18.481-12.596 19 0v128c-.524 12.606-18.482 12.596-19 0z"/></g></g></svg>