<svg id="Layer_1" enable-background="new 0 0 512.029 512.029" height="512" viewBox="0 0 512.029 512.029" width="512" xmlns="http://www.w3.org/2000/svg"><g><path d="m120.285 402.144 7.013 14.241c1.993 4.047 5.846 6.853 10.303 7.502l15.682 2.284c11.224 1.634 15.705 15.457 7.584 23.391l-11.348 11.085c-3.225 3.15-4.697 7.69-3.935 12.138l2.679 15.653c1.917 11.202-9.816 19.745-19.854 14.456l-14.027-7.39c-3.986-2.1-8.749-2.1-12.735 0l-14.027 7.39c-10.039 5.289-21.771-3.254-19.854-14.456l2.679-15.653c.761-4.449-.71-8.988-3.935-12.138l-11.348-11.085c-8.121-7.934-3.64-21.756 7.584-23.391l15.682-2.284c4.457-.649 8.31-3.454 10.303-7.502l7.013-14.241c5.019-10.192 19.522-10.192 24.541 0z" fill="#ffe589"/><g><path d="m153.284 426.171-15.682-2.284c-4.457-.649-8.31-3.454-10.303-7.501l-7.013-14.242c-5.019-10.192-19.522-10.192-24.541 0l-4.785 9.716 6.339 12.873c1.993 4.047 5.846 6.853 10.303 7.502l15.682 2.284c11.224 1.634 15.705 15.457 7.584 23.391l-11.348 11.085c-3.225 3.15-4.697 7.689-3.935 12.138l2.679 15.653c.047.276.08.549.11.821l10.035 5.288c10.039 5.289 21.771-3.254 19.854-14.457l-2.679-15.653c-.761-4.448.71-8.987 3.935-12.138l11.348-11.086c8.122-7.933 3.64-21.755-7.583-23.39z" fill="#ffd86e"/></g><path d="m416.285 402.144 7.013 14.241c1.993 4.047 5.846 6.853 10.303 7.502l15.682 2.284c11.224 1.634 15.705 15.457 7.584 23.391l-11.348 11.085c-3.225 3.15-4.697 7.69-3.935 12.138l2.679 15.653c1.917 11.202-9.816 19.745-19.854 14.456l-14.027-7.39c-3.986-2.1-8.749-2.1-12.735 0l-14.027 7.39c-10.039 5.289-21.771-3.254-19.854-14.456l2.679-15.653c.761-4.449-.71-8.988-3.935-12.138l-11.348-11.085c-8.121-7.934-3.64-21.756 7.584-23.391l15.682-2.284c4.457-.649 8.31-3.454 10.303-7.502l7.013-14.241c5.019-10.192 19.522-10.192 24.541 0z" fill="#ffe589"/><g><path d="m449.284 426.171-15.682-2.284c-4.457-.649-8.31-3.454-10.303-7.501l-7.013-14.242c-5.019-10.192-19.522-10.192-24.541 0l-4.576 9.292 6.131 12.449c1.993 4.047 5.846 6.853 10.303 7.501l15.682 2.284c11.224 1.635 15.705 15.457 7.584 23.391l-11.348 11.086c-3.225 3.15-4.697 7.689-3.935 12.138l2.679 15.653c.099.577.152 1.145.181 1.706l9.965 5.25c10.039 5.289 21.771-3.254 19.854-14.457l-2.679-15.653c-.761-4.448.71-8.987 3.935-12.138l11.348-11.086c8.12-7.932 3.638-21.754-7.585-23.389z" fill="#ffd86e"/></g><path d="m270.007 387.256 7.998 16.313c2.273 4.636 6.666 7.849 11.749 8.593l17.883 2.616c12.799 1.872 17.909 17.705 8.648 26.793l-12.941 12.698c-3.678 3.609-5.356 8.808-4.488 13.904l3.055 17.93c2.186 12.832-11.193 22.617-22.641 16.559l-15.995-8.465c-4.546-2.406-9.977-2.406-14.522 0l-15.995 8.465c-11.448 6.058-24.827-3.727-22.641-16.559l3.055-17.93c.868-5.096-.81-10.295-4.488-13.904l-12.941-12.698c-9.261-9.088-4.151-24.921 8.648-26.793l17.883-2.616c5.082-.743 9.476-3.957 11.749-8.593l7.998-16.313c5.725-11.674 22.263-11.674 27.986 0z" fill="#ffe589"/><g><path d="m307.637 414.778-17.884-2.616c-5.082-.744-9.476-3.957-11.749-8.593l-7.998-16.313c-5.724-11.675-22.262-11.675-27.985 0l-3.044 6.209c.371.565.719 1.157 1.03 1.791l7.998 16.313c2.273 4.636 6.667 7.85 11.749 8.593l17.884 2.616c12.799 1.873 17.909 17.706 8.648 26.793l-12.941 12.698c-3.678 3.609-5.356 8.808-4.488 13.904l3.055 17.93c.278 1.633.302 3.215.112 4.723l7.247 3.835c11.448 6.059 24.827-3.727 22.641-16.559l-3.055-17.93c-.868-5.096.81-10.295 4.488-13.904l12.941-12.698c9.261-9.086 4.15-24.92-8.649-26.792z" fill="#ffd86e"/></g><g><path d="m365.467 362.36h-226.723v-25.18c0-38.66 31.34-70 70-70h94.541c38.66 0 70 31.34 70 70v17.362c0 4.318-3.5 7.818-7.818 7.818z" fill="#ffe589"/><path d="m303.285 267.18h-30c38.66 0 70 31.34 70 70v17.362c0 4.318-3.5 7.818-7.818 7.818h30c4.318 0 7.818-3.5 7.818-7.818v-17.362c0-38.66-31.34-70-70-70z" fill="#ffd86e"/><path d="m232.561 218.596h46.908v76.276h-46.908z" fill="#ffd8ca"/><path d="m253.246 218.596h26.223v76.276h-26.223z" fill="#ffbead"/><path d="m232.561 248.802s-2.245 31.098 23.454 46.071c0 0-14.613 16.317-29.394 11.134-11.711-4.107-18.338-25.952-20.586-34.848-.567-2.243.335-4.596 2.249-5.894z" fill="#f3f0f3"/><path d="m279.469 248.802s2.245 31.098-23.454 46.071c0 0 14.613 16.317 29.394 11.134 11.711-4.107 18.338-25.952 20.586-34.848.567-2.243-.335-4.596-2.249-5.894z" fill="#f3f0f3"/><g fill="#ffbead"><path d="m191.167 140.582c0 17.105-10.46 30.971-23.364 30.971s-20.4-15.924-20.4-33.029 7.496-28.913 20.4-28.913c12.903 0 23.364 13.867 23.364 30.971z"/><path d="m321.111 140.582c0 17.105 10.461 30.971 23.364 30.971s20.4-15.924 20.4-33.029-7.496-28.913-20.4-28.913-23.364 13.867-23.364 30.971z"/></g><path d="m180.731 158.23v-51.312c0-41.647 33.761-75.408 75.408-75.408 41.647 0 75.408 33.761 75.408 75.408v51.028c0 41.725-33.825 75.55-75.55 75.55-41.568 0-75.266-33.698-75.266-75.266z" fill="#ffd8ca"/><path d="m256.139 31.51c-5.136 0-10.152.514-15 1.492 34.461 6.955 60.408 37.405 60.408 73.916v51.028c0 36.584-26.004 67.095-60.536 74.058 4.843.979 9.854 1.492 14.986 1.492 41.725 0 75.55-33.825 75.55-75.55v-51.028c0-41.647-33.761-75.408-75.408-75.408z" fill="#ffbead"/><path d="m256.139 18.001c-115.647 0-83.071 99.824-80.578 105.183 2.343 5.044 5.17 18.77 5.17 18.77s16.066-12.91 15.547-17.836c-.828-7.872-5.386-56.23 14.503-51.671 19.882 4.559 28.069 7.872 44.693 7.872s24.811-3.313 44.693-7.872c19.889-4.559 15.331 43.799 14.503 51.671-.518 4.927 16.878 17.881 16.878 17.881s1.496-13.77 3.839-18.815c3.706-7.969 36.398-105.183-79.248-105.183z" fill="#ad7271"/><g><path d="m256.139 18.001c-5.272 0-10.235.208-14.907.604 54.988 4.612 69.501 34.813 71.06 61.664 5.345 13.194 2.955 38.361 2.378 43.849-.518 4.927 16.878 17.881 16.878 17.881s1.496-13.771 3.839-18.815c3.706-7.969 36.398-105.183-79.248-105.183z" fill="#986564"/></g></g><path d="m349.515 87.5h-187v-32.307c0-26.34 21.353-47.693 47.693-47.693h91.615c26.34 0 47.693 21.353 47.693 47.693v32.307z" fill="#ff6167"/><path d="m301.822 7.5h-30c26.34 0 47.693 21.353 47.693 47.693v32.307h30v-32.307c0-26.34-21.353-47.693-47.693-47.693z" fill="#fe454a"/><path d="m347.641 91.077h-183.252c-5.586 0-7.449-8.627-2.532-11.698 13.482-8.421 40.693-18.302 94.158-18.302s80.677 9.882 94.158 18.302c4.917 3.071 3.054 11.698-2.532 11.698z" fill="#f8f7f7"/><g><path d="m154.365 418.755-15.682-2.283c-2.013-.293-3.753-1.562-4.655-3.394l-7.014-14.241c-7.55-15.697-30.452-15.691-37.998 0l-7.014 14.241c-.902 1.832-2.643 3.101-4.654 3.394l-15.683 2.283c-8.03 1.17-14.579 6.695-17.093 14.422-2.518 7.737-.467 16.073 5.35 21.756l11.348 11.085c1.463 1.43 2.13 3.488 1.784 5.509l-2.679 15.652c-1.374 8.027 1.863 15.984 8.45 20.763 6.587 4.782 15.139 5.367 22.292 1.596l14.027-7.392c1.799-.947 3.945-.946 5.742.001l14.027 7.391c15.334 8.255 33.842-5.242 30.742-22.359l-2.679-15.652c-.346-2.021.321-4.079 1.784-5.508l11.347-11.086c5.817-5.683 7.868-14.019 5.351-21.756-2.513-7.726-9.062-13.252-17.093-14.422zm1.262 25.448-11.348 11.087c-4.987 4.872-7.264 11.888-6.087 18.767l2.679 15.654c.591 3.448-1.533 5.408-2.475 6.091-.931.677-3.429 2.079-6.49.465l-14.027-7.39c-6.176-3.256-13.551-3.255-19.726-.001l-14.027 7.391c-3.06 1.612-5.559.212-6.49-.465-.941-.683-3.065-2.643-2.475-6.092l2.679-15.653c1.177-6.879-1.1-13.895-6.087-18.768l-11.349-11.086c-2.496-2.439-1.927-5.277-1.567-6.386.359-1.102 1.562-3.719 4.99-4.218l15.683-2.283c6.902-1.006 12.864-5.346 15.95-11.611l7.014-14.241c2.311-4.642 8.767-4.65 11.084 0l7.014 14.241c3.086 6.265 9.048 10.605 15.951 11.611l15.682 2.283c3.429.499 4.632 3.116 4.991 4.218.358 1.109.928 3.948-1.569 6.386z"/><path d="m462.106 454.934c5.817-5.683 7.868-14.019 5.351-21.756-2.514-7.727-9.062-13.252-17.094-14.422l-15.682-2.283c-2.013-.293-3.753-1.562-4.655-3.394l-7.014-14.241c-7.55-15.697-30.452-15.691-37.998 0l-7.014 14.241c-.902 1.832-2.643 3.101-4.654 3.394l-15.683 2.283c-8.03 1.17-14.579 6.695-17.093 14.422-2.518 7.737-.467 16.073 5.35 21.756l3.389 3.311c2.963 2.894 7.712 2.837 10.606-.124 2.895-2.963 2.839-7.711-.124-10.607l-3.39-3.311c-2.496-2.439-1.927-5.277-1.567-6.386.359-1.102 1.562-3.719 4.99-4.218l15.684-2.283c6.902-1.006 12.864-5.346 15.95-11.611l7.014-14.241c2.311-4.642 8.767-4.65 11.084 0l7.014 14.241c3.086 6.265 9.048 10.605 15.951 11.611l15.682 2.283c3.429.499 4.632 3.116 4.991 4.218.359 1.108.929 3.947-1.568 6.386l-11.348 11.087c-4.987 4.872-7.264 11.888-6.087 18.767l2.679 15.654c.591 3.448-1.533 5.408-2.475 6.091-.932.676-3.43 2.078-6.49.465l-14.027-7.39c-6.176-3.256-13.551-3.255-19.726-.001l-14.027 7.391c-3.06 1.612-5.559.212-6.49-.465-.941-.683-3.065-2.643-2.475-6.092l.674-3.938c.698-4.082-2.045-7.958-6.128-8.657-4.08-.693-7.959 2.045-8.657 6.128l-.674 3.937c-1.374 8.027 1.863 15.984 8.45 20.763 6.587 4.782 15.139 5.367 22.292 1.596l14.027-7.392c1.799-.947 3.945-.946 5.742.001l14.027 7.391c7.181 3.782 15.722 3.171 22.292-1.596 6.587-4.779 9.824-12.736 8.45-20.763l-2.679-15.652c-.346-2.021.321-4.079 1.784-5.508z"/><path d="m308.723 407.364-17.885-2.616c-2.635-.386-4.915-2.058-6.1-4.474l-7.997-16.313c-8.231-17.189-33.228-17.183-41.455 0l-7.996 16.312c-1.186 2.417-3.466 4.089-6.102 4.475l-17.884 2.616c-18.81 2.582-26.474 26.429-12.814 39.568l12.94 12.697c1.926 1.889 2.803 4.614 2.347 7.29l-3.055 17.93c-1.501 8.807 2.052 17.524 9.269 22.747 7.163 5.182 16.463 5.834 24.272 1.701l15.996-8.466c2.352-1.244 5.156-1.244 7.506 0l15.996 8.466c7.781 4.121 17.094 3.495 24.272-1.701 7.218-5.224 10.77-13.941 9.269-22.747l-3.055-17.93c-.456-2.676.421-5.401 2.347-7.29l12.94-12.697c13.667-13.145 5.993-36.988-12.811-39.568zm2.309 28.86-12.94 12.697c-5.431 5.329-7.909 12.999-6.628 20.517l3.055 17.93c.542 3.18-.683 6.198-3.276 8.075-2.535 1.834-5.697 2.059-8.463.596l-15.996-8.466c-6.743-3.569-14.794-3.569-21.537 0l-15.996 8.466c-2.764 1.463-5.927 1.239-8.463-.596-2.594-1.877-3.818-4.896-3.276-8.075l3.055-17.93c1.281-7.518-1.197-15.188-6.628-20.517l-12.94-12.697c-2.286-2.243-3.055-5.41-2.056-8.472.984-3.019 3.428-5.092 6.536-5.547l17.883-2.616c7.53-1.101 14.034-5.853 17.398-12.712l7.997-16.313c2.735-6.031 11.783-6.029 14.517 0l7.998 16.314c3.363 6.859 9.867 11.611 17.396 12.711l17.884 2.616c3.108.455 5.552 2.528 6.536 5.547.998 3.062.23 6.229-2.056 8.472z"/><path d="m138.746 369.866h226.718c8.447 0 15.319-6.873 15.319-15.321v-17.361c0-20.271-7.775-39.442-21.892-53.983-13.316-13.714-30.906-21.904-49.835-23.292-.352-.298-.715-.586-1.103-.849l-20.989-14.233v-9.837c24.504-9.887 43.243-31.125 49.662-57.176 39.754 12.782 50.119-70.128 11.965-75.399.197-1.281.38-2.594.541-3.939 5.053-.613 9.293-4.293 10.803-9.558 1.416-4.94.24-9.974-2.922-13.485v-20.242c0-6.058-.977-12.016-2.903-17.708-1.329-3.925-5.59-6.027-9.509-4.7-3.924 1.328-6.027 5.586-4.7 9.509 1.401 4.141 2.112 8.481 2.112 12.9v11.633c-35.21-17.45-136.895-17.413-171.999 0v-11.634c0-22.161 18.029-40.191 40.19-40.191h91.619c6.756 0 13.433 1.705 19.308 4.931 3.634 1.994 8.19.664 10.184-2.965 1.993-3.631.666-8.191-2.965-10.184-8.081-4.437-17.254-6.782-26.526-6.782h-91.619c-30.431 0-55.19 24.759-55.19 55.191v20.243c-3.161 3.511-4.338 8.545-2.922 13.486 1.471 5.13 5.533 8.758 10.415 9.508.137 1.395.297 2.762.474 4.098-37.359 6.222-26.778 87.93 12.606 75.308 1.578 6.496 3.932 12.791 7.022 18.702 1.929 3.707 6.526 5.073 10.122 3.171 3.67-1.92 5.09-6.451 3.171-10.122-5.089-9.732-7.669-20.28-7.669-31.352v-12.743c16.366-13.815 15.748-19.82 15.503-22.155-.471-4.475-1.356-14.787-.826-24.756h105.123c.53 9.981-.358 20.312-.825 24.756-.274 2.606-.884 8.532 16.835 22.374v12.244c.483 54.79-63.669 87.723-107.744 55.213-3.353-2.429-8.043-1.682-10.474 1.675-2.43 3.355-1.68 8.044 1.675 10.474 5.497 3.982 11.39 7.226 17.563 9.717v9.796l-20.99 14.233c-.387.263-.751.551-1.102.849-18.928 1.388-36.518 9.578-49.834 23.292-14.117 14.541-21.892 33.712-21.892 53.983v25.181c0 4.143 3.357 7.5 7.5 7.5zm218.628-231.344c-.148 14.549-6.456 30.639-18.459 23.965.081-1.502.129-3.013.129-4.534v-15.507c.674-5.993 2.044-13.733 3.141-16.096.668-1.437 1.905-4.676 3.197-9.202 8.82.684 11.992 11.36 11.992 21.374zm-14.93-54.944h-172.859c31.5-19.861 141.545-19.789 172.859 0zm-174.639 80.474c-14.55-.295-19.007-43.508-1.962-46.765 1.156 4.477 2.284 7.699 2.916 9.059 1.301 2.801 3.336 11.018 4.476 16.408v15.479c0 1.42.045 2.838.118 4.255-1.537.885-3.402 1.564-5.548 1.564zm20.885-40.423c-.625 1.005-1.93 2.527-3.623 4.274-.836-2.982-1.766-5.856-2.686-7.837-.421-.967-1.849-5.144-3.133-11.26-.009-.051-.021-.102-.031-.153-.617-2.959-1.197-6.364-1.614-10.075h10.293c-.457 9.94.283 19.832.794 25.051zm145.299-25.05c-1.598 11.403-4.727 19.989-5.405 21.449-.929 1.998-1.714 4.8-2.357 7.725-1.825-1.738-3.244-3.262-3.953-4.285.508-5.243 1.232-15.048.781-24.888h10.934zm-48.019 163.697 12.4 8.408c-4.004 15.115-10.143 26.389-15.444 28.248-5.043 1.768-10.605-.746-14.783-3.572 11.535-10.125 16.078-23.253 17.827-33.084zm-29.975-21.272c5.463 0 10.799-.545 15.97-1.557v13.447c0 .066.008.13.01.195-.343 7.155-2.684 22.792-15.96 32.798-13.28-10.009-15.618-25.652-15.96-32.803.001-.064.01-.126.01-.19v-13.419c5.2 1.011 10.527 1.529 15.93 1.529zm-12.109 54.357c-4.18 2.827-9.737 5.337-14.783 3.572-5.301-1.859-11.439-13.132-15.444-28.248l12.4-8.408c1.749 9.83 6.292 22.957 17.827 33.084zm-97.64 41.824c0-31.472 22.814-57.32 53.145-61.794 4.101 15.164 11.617 33.093 24.749 37.697 11.293 4.422 24.854-2.047 31.875-8.051 7.022 6.006 20.582 12.473 31.875 8.051 13.132-4.605 20.648-22.535 24.749-37.697 30.331 4.475 53.145 30.322 53.145 61.794v17.361c0 .177-.144.32-.319.32h-219.219z"/><path d="m258.936 159.242c-2.458.641-3.139.641-5.595 0-4.006-1.049-8.105 1.355-9.15 5.363-1.046 4.008 1.355 8.105 5.363 9.151 4.921 1.285 8.247 1.285 13.169 0 4.008-1.046 6.409-5.143 5.363-9.151-1.045-4.007-5.14-6.408-9.15-5.363z"/><path d="m269.349 186.658c-10.616 2.772-15.802 2.772-26.422 0-4.012-1.05-8.105 1.355-9.151 5.362-1.046 4.008 1.354 8.106 5.362 9.152 13.187 3.442 20.813 3.443 34 0 4.008-1.046 6.408-5.144 5.362-9.152-1.046-4.007-5.144-6.411-9.151-5.362z"/><path d="m239.04 103.133c-9.184-2.398-14.785-2.398-23.969 0-4.008 1.047-6.408 5.144-5.362 9.152 1.047 4.008 5.145 6.411 9.151 5.362 6.664-1.74 9.727-1.74 16.391 0 3.9 1.051 8.119-1.322 9.151-5.362 1.046-4.008-1.354-8.105-5.362-9.152z"/><path d="m302.569 112.285c1.046-4.008-1.354-8.105-5.362-9.152-9.185-2.399-14.787-2.397-23.97 0-4.008 1.047-6.408 5.144-5.362 9.152 1.047 4.008 5.145 6.411 9.151 5.362 6.663-1.74 9.727-1.74 16.392 0 3.9 1.052 8.119-1.322 9.151-5.362z"/><path d="m215.804 137.698v4.69c.344 9.931 14.66 9.924 15 0v-4.69c-.344-9.931-14.66-9.923-15 0z"/><path d="m288.974 130.198c-4.143 0-7.5 3.357-7.5 7.5v4.69c.344 9.931 14.66 9.924 15 0v-4.69c0-4.142-3.357-7.5-7.5-7.5z"/></g></g></svg>