<svg id="Layer_1" enable-background="new 0 0 512 512" height="512" viewBox="0 0 512 512" width="512" xmlns="http://www.w3.org/2000/svg"><g><path d="m310.5 504.5h-278c-2.209 0-4-1.791-4-4v-489c0-2.209 1.791-4 4-4h278c2.209 0 4 1.791 4 4v489c0 2.209-1.791 4-4 4z" fill="#e49a6b"/><path d="m310.5 7.5h-30c2.209 0 4 1.791 4 4v489c0 2.209-1.791 4-4 4h30c2.209 0 4-1.791 4-4v-489c0-2.209-1.791-4-4-4z" fill="#e0925b"/><path d="m58.5 470.5v-429c0-2.209 1.791-4 4-4h218c2.209 0 4 1.791 4 4v429c0 2.209-1.791 4-4 4h-218c-2.209 0-4-1.791-4-4z" fill="#bb723b"/><path d="m284.5 200v30h-98v244.5h-30v-244.5h-98v-30h98v-162.5h30v162.5z" fill="#d48145"/><path d="m245.5 256c-8.284 0-15-6.716-15-15v-52c0-8.284 6.716-15 15-15 8.284 0 15 6.716 15 15v52c0 8.284-6.716 15-15 15z" fill="#afbbc6"/><path d="m463.428 504.5h-199.856c-11.086 0-20.072-8.987-20.072-20.072v-185.856c0-11.086 8.987-20.072 20.072-20.072h199.856c11.086 0 20.072 8.987 20.072 20.072v185.855c0 11.086-8.987 20.073-20.072 20.073z" fill="#f8f7f7"/><path d="m463.428 278.5h-30c11.086 0 20.072 8.987 20.072 20.072v185.856c0 11.085-8.987 20.072-20.072 20.072h30c11.086 0 20.072-8.986 20.072-20.072v-185.856c0-11.085-8.987-20.072-20.072-20.072z" fill="#efefef"/><g><path d="m429.5 420.034h-132v-8c0-36.451 29.549-66 66-66 36.451 0 66 29.549 66 66z" fill="#cfdbe4"/><path d="m363.5 346.034c-5.162 0-10.179.612-15 1.733 29.221 6.794 51 32.979 51 64.267v8h30v-8c0-36.451-29.549-66-66-66z" fill="#afbbc6"/><path d="m423.225 448.034h-119.45c-3.786 0-7.186-2.317-8.57-5.841l-8.705-22.159h154l-8.705 22.159c-1.385 3.524-4.785 5.841-8.57 5.841z" fill="#7b727b"/><path d="m410.5 420.034-8.706 22.159c-1.384 3.524-4.784 5.841-8.57 5.841h30c3.786 0 7.185-2.317 8.57-5.841l8.706-22.159z" fill="#686169"/></g><g><path d="m87.214 497h-51.214v-393.485c-.344-9.931-14.66-9.923-15 0v396.985c0 6.341 5.159 11.5 11.5 11.5h54.714c9.931-.344 9.923-14.66 0-15z"/><path d="m463.428 271h-53.731c-4.184-14.345-16.288-42.952-46.197-42.952-22.531 0-34.954 16.256-41.5 30.384v-246.932c0-6.341-5.159-11.5-11.5-11.5h-278c-6.341 0-11.5 5.159-11.5 11.5v56.666c.344 9.931 14.66 9.923 15 0v-53.166h271v256h-15v-229.5c0-6.341-5.159-11.5-11.5-11.5h-218c-6.341 0-11.5 5.159-11.5 11.5v429c0 6.341 5.159 11.5 11.5 11.5h173.5v2.428c0 4.527 1.104 8.799 3.046 12.572h-116.856c-9.931.344-9.923 14.66 0 15h341.237c15.204 0 27.573-12.369 27.573-27.572v-185.856c0-15.203-12.369-27.572-27.572-27.572zm-99.928-27.952c17.571 0 26.366 15.952 30.497 27.952h-60.993c4.127-11.975 12.923-27.952 30.496-27.952zm-95.5-35.548h9v15h-9zm9-15h-9v-3.5c-1.24-29.857-43.771-29.834-45 0v3.5h-29v-147.5h83zm-24-3.5v52c-.353 9.929-14.65 9.922-15 0v-52c.353-9.929 14.65-9.922 15 0zm-104-144v147.5h-83v-147.5zm-83 192.5h83v229.5h-83zm98 229.5v-237c0-4.143-3.357-7.5-7.5-7.5h-90.5v-15h90.5c4.143 0 7.5-3.357 7.5-7.5v-155h15v155c0 4.143 3.357 7.5 7.5 7.5h36.5v15h-36.5c-4.143 0-7.5 3.357-7.5 7.5v237zm30 0v-229.5h29v3.5c1.24 29.857 43.771 29.834 45 0v-3.5h9v33.5h-13.428c-15.203 0-27.572 12.369-27.572 27.572v168.428zm282 17.428c0 6.933-5.64 12.572-12.572 12.572h-199.856c-6.932 0-12.572-5.64-12.572-12.572v-185.856c0-6.933 5.64-12.572 12.572-12.572h199.855c6.933 0 12.572 5.64 12.572 12.572v185.856z"/><path d="m451.5 412.534h-14.5v-.501c0-13.508-3.698-26.717-10.695-38.198-2.155-3.539-6.774-4.66-10.307-2.502-3.537 2.155-4.657 6.77-2.502 10.307 5.563 9.13 8.504 19.64 8.504 30.394v.501h-117v-.501c-.377-43.776 47.92-72.574 86.219-51.53 3.644 1.964 8.194.604 10.161-3.042 1.966-3.646.604-8.195-3.042-10.161-8.44-4.551-17.77-7.392-27.338-8.374v-8.415c-.344-9.931-14.66-9.923-15 0v8.403c-37.019 3.769-66 35.123-66 73.119v.501h-14.5c-9.931.344-9.923 14.66 0 15h5.889l6.836 17.402c2.53 6.438 8.634 10.598 15.551 10.598h119.449c6.917 0 13.021-4.16 15.551-10.599l6.836-17.401h5.889c9.93-.344 9.922-14.661-.001-15.001zm-26.686 26.916c-.259.658-.883 1.084-1.59 1.084h-119.449c-.707 0-1.331-.426-1.59-1.083l-4.682-11.917h131.992z"/></g></g></svg>