<svg id="Layer_1" enable-background="new 0 0 512 512" height="512" viewBox="0 0 512 512" width="512" xmlns="http://www.w3.org/2000/svg"><g><path d="m44.646 371.622h130v102.878h-130z" fill="#2fd9e7"/><path d="m144.646 371.622h30v102.878h-30z" fill="#00d0e4"/><path d="m66.357 409.852h-.09c-11.941 0-21.622-9.68-21.622-21.622v-32.061c0-6.802 5.514-12.317 12.317-12.317h31.016v44.378c.001 11.941-9.68 21.622-21.621 21.622z" fill="#ff6167"/><path d="m109.69 409.852h-.09c-11.941 0-21.622-9.68-21.622-21.622v-44.378h43.333v44.378c.001 11.941-9.679 21.622-21.621 21.622z" fill="#f8f7f7"/><path d="m112.195 343.852v44.423c0 8.499-4.936 15.847-12.108 19.365 2.884 1.414 6.127 2.212 9.559 2.212 11.966 0 21.667-9.66 21.667-21.577v-44.423z" fill="#efefef"/><path d="m153.024 409.852h-.09c-11.941 0-21.622-9.68-21.622-21.622v-44.378h31.016c6.802 0 12.317 5.514 12.317 12.317v32.061c.001 11.941-9.68 21.622-21.621 21.622z" fill="#ff6167"/><path d="m175.485 312.561h-131.679c-8.842 0-16.01-7.168-16.01-16.01v-11.273c0-1.773 1.437-3.21 3.21-3.21h157.28c1.773 0 3.21 1.437 3.21 3.21v11.273c-.001 8.842-7.169 16.01-16.011 16.01z" fill="#e0925b"/><path d="m188.285 282.068h-30c1.773 0 3.21 1.437 3.21 3.21v11.273c0 8.842-7.168 16.01-16.01 16.01h30c8.842 0 16.01-7.168 16.01-16.01v-11.273c0-1.773-1.437-3.21-3.21-3.21z" fill="#d48145"/><path d="m188.289 254.068h-157.287c-1.814 0-3.266-1.497-3.209-3.31.444-14.159 7.001-68.91 81.852-68.91s81.408 54.752 81.852 68.91c.058 1.813-1.394 3.31-3.208 3.31z" fill="#e0925b"/><path d="m109.645 181.847c-5.344 0-10.329.288-15 .811 60.745 6.809 66.44 54.951 66.852 68.099.057 1.813-1.395 3.31-3.209 3.31h30c1.814 0 3.266-1.497 3.209-3.31-.443-14.158-7-68.91-81.852-68.91z" fill="#d48145"/><path d="m187.124 282.068h-154.957c-7.732 0-14-6.268-14-14 0-7.732 6.268-14 14-14h154.958c7.732 0 14 6.268 14 14-.001 7.732-6.269 14-14.001 14z" fill="#e07f5d"/><path d="m187.124 254.068h-30c7.732 0 14 6.268 14 14s-6.268 14-14 14h30c7.732 0 14-6.268 14-14s-6.268-14-14-14z" fill="#d06d4a"/><path d="m326.262 230.5h150v244h-150z" fill="#ff6167"/><path d="m446.262 230.5h30v244h-30z" fill="#fe454a"/><g fill="#e4f7fc"><path d="m384.262 290.5h-26c-1.105 0-2-.895-2-2v-26c0-1.105.895-2 2-2h26c1.105 0 2 .895 2 2v26c0 1.105-.895 2-2 2z"/><path d="m444.262 290.5h-26c-1.105 0-2-.895-2-2v-26c0-1.105.895-2 2-2h26c1.105 0 2 .895 2 2v26c0 1.105-.895 2-2 2z"/></g><g><path d="m384.262 350.5h-26c-1.105 0-2-.895-2-2v-26c0-1.105.895-2 2-2h26c1.105 0 2 .895 2 2v26c0 1.105-.895 2-2 2z" fill="#dcf5f8"/><path d="m444.262 350.5h-26c-1.105 0-2-.895-2-2v-26c0-1.105.895-2 2-2h26c1.105 0 2 .895 2 2v26c0 1.105-.895 2-2 2z" fill="#e4f7fc"/></g><g fill="#dcf5f8"><path d="m384.262 410.5h-26c-1.105 0-2-.895-2-2v-26c0-1.105.895-2 2-2h26c1.105 0 2 .895 2 2v26c0 1.105-.895 2-2 2z"/><path d="m444.262 410.5h-26c-1.105 0-2-.895-2-2v-26c0-1.105.895-2 2-2h26c1.105 0 2 .895 2 2v26c0 1.105-.895 2-2 2z"/></g><path d="m446.262 474.5h-90v-36c0-1.105.895-2 2-2h86c1.105 0 2 .895 2 2z" fill="#686169"/><path d="m374.417 169.914 23.605 23.605c1.789 1.789 4.69 1.789 6.479 0l23.605-23.605c2.886-2.886.842-7.821-3.24-7.821h-47.211c-4.08 0-6.124 4.935-3.238 7.821z" fill="#2fd9e7"/><path d="m489.5 504.5h-467c-8.284 0-15-6.716-15-15 0-8.284 6.716-15 15-15h467c8.284 0 15 6.716 15 15 0 8.284-6.716 15-15 15z" fill="#e0925b"/><path d="m489.5 474.5h-30c8.284 0 15 6.716 15 15s-6.716 15-15 15h30c8.284 0 15-6.716 15-15s-6.716-15-15-15z" fill="#d48145"/><path d="m136.317 474.5h-53.334v-29.953c0-4.069 3.298-7.367 7.367-7.367h38.599c4.069 0 7.367 3.298 7.367 7.367v29.953z" fill="#686169"/><g><path d="m393.762 262.5c0-5.238-4.262-9.5-9.5-9.5h-26c-5.238 0-9.5 4.262-9.5 9.5v26c0 5.238 4.262 9.5 9.5 9.5h26c5.238 0 9.5-4.262 9.5-9.5zm-15 20.5h-15v-15h15z"/><path d="m453.762 262.5c0-5.238-4.262-9.5-9.5-9.5h-26c-5.238 0-9.5 4.262-9.5 9.5v26c0 5.238 4.262 9.5 9.5 9.5h26c5.238 0 9.5-4.262 9.5-9.5zm-15 20.5h-15v-15h15z"/><path d="m393.762 322.5c0-5.238-4.262-9.5-9.5-9.5h-26c-5.238 0-9.5 4.262-9.5 9.5v26c0 5.238 4.262 9.5 9.5 9.5h26c5.238 0 9.5-4.262 9.5-9.5zm-15 20.5h-15v-15h15z"/><path d="m453.762 322.5c0-5.238-4.262-9.5-9.5-9.5h-26c-5.238 0-9.5 4.262-9.5 9.5v26c0 5.238 4.262 9.5 9.5 9.5h26c5.238 0 9.5-4.262 9.5-9.5zm-15 20.5h-15v-15h15z"/><path d="m384.262 373h-26c-5.238 0-9.5 4.262-9.5 9.5v26c0 5.238 4.262 9.5 9.5 9.5h26c5.238 0 9.5-4.262 9.5-9.5v-26c0-5.238-4.262-9.5-9.5-9.5zm-5.5 30h-15v-15h15z"/><path d="m444.262 373h-26c-5.238 0-9.5 4.262-9.5 9.5v26c0 5.238 4.262 9.5 9.5 9.5h26c5.238 0 9.5-4.262 9.5-9.5v-26c0-5.238-4.262-9.5-9.5-9.5zm-5.5 30h-15v-15h15z"/><path d="m109.646 149.295c4.142 0 7.5-3.357 7.5-7.5v-7.5c-.344-9.931-14.66-9.923-15 0v7.5c0 4.143 3.357 7.5 7.5 7.5z"/><path d="m393.762 43.8v15.075c.344 9.931 14.66 9.923 15 0v-15.075c-.344-9.931-14.659-9.924-15 0z"/><path d="m338.349 15h15.075c9.931-.344 9.923-14.66 0-15h-15.075c-9.931.344-9.923 14.66 0 15z"/><path d="m408.762 89.026c-.344-9.931-14.66-9.923-15 0v15.075c.344 9.931 14.66 9.923 15 0z"/><path d="m382.675 15.083c3.071.369 5.899 1.952 7.962 4.459 2.645 3.211 7.379 3.643 10.558 1.022 3.197-2.633 3.655-7.359 1.022-10.558-4.529-5.5-10.834-8.986-17.755-9.816-4.114-.498-7.846 2.439-8.34 6.553-.493 4.112 2.44 7.847 6.553 8.34z"/><path d="m247.896 15h15.075c9.931-.344 9.923-14.66 0-15h-15.075c-9.931.344-9.923 14.66 0 15z"/><path d="m293.123 15h15.075c9.931-.344 9.923-14.66 0-15h-15.075c-9.931.344-9.924 14.66 0 15z"/><path d="m109.698 20.605c3.183 2.616 7.917 2.173 10.555-1.043 2.06-2.512 4.884-4.101 7.954-4.476 4.112-.501 7.038-4.241 6.537-8.353s-4.243-7.045-8.353-6.536c-6.919.844-13.217 4.343-17.736 9.853-2.627 3.204-2.159 7.929 1.043 10.555z"/><path d="m109.646 66.418c4.142 0 7.5-3.357 7.5-7.5v-15.075c-.344-9.931-14.66-9.923-15 0v15.075c0 4.143 3.357 7.5 7.5 7.5z"/><path d="m157.443 15h15.075c9.931-.344 9.923-14.66 0-15h-15.075c-9.931.344-9.924 14.66 0 15z"/><path d="m109.646 111.645c4.142 0 7.5-3.357 7.5-7.5v-15.076c-.344-9.931-14.66-9.923-15 0v15.075c0 4.143 3.357 7.501 7.5 7.501z"/><path d="m202.669 15h15.075c9.931-.344 9.923-14.66 0-15h-15.075c-9.93.344-9.923 14.66 0 15z"/><path d="m401.262 126.795c-4.142 0-7.5 3.357-7.5 7.5v7.5c.344 9.931 14.66 9.923 15 0v-7.5c0-4.143-3.358-7.5-7.5-7.5z"/><path d="m392.718 198.822c4.496 4.688 12.592 4.688 17.087.001l23.605-23.605c3.468-3.468 4.496-8.636 2.62-13.166-1.876-4.531-6.258-7.459-11.162-7.459h-47.211c-4.904 0-9.286 2.928-11.162 7.459-1.876 4.53-.848 9.698 2.619 13.166zm25.104-29.229-16.56 16.56-16.56-16.56z"/><path d="m489.5 467h-5.738v-140.092c-.344-9.931-14.66-9.923-15 0v140.092h-15v-28.5c0-5.238-4.262-9.5-9.5-9.5h-86c-5.238 0-9.5 4.262-9.5 9.5v28.5h-15v-229h135v53.536c.344 9.931 14.66 9.923 15 0v-61.036c0-4.143-3.358-7.5-7.5-7.5h-150c-4.142 0-7.5 3.357-7.5 7.5v236.5h-136.612v-95.38c0-.029-.004-.058-.004-.087v-15.364c0-10.928-8.89-19.817-19.817-19.817h-45.183v-16.291h58.34c12.963 0 23.51-10.547 23.51-23.51v-10.574c12.777-8.306 12.763-27.538-.015-35.828-1.634-44.195-34.907-76.981-89.335-75.8-19.402-.001-36.109 3.554-49.656 10.564-3.679 1.903-5.118 6.429-3.214 10.108 1.903 3.677 6.429 5.117 10.108 3.214 11.396-5.896 25.783-8.887 42.763-8.887 61.399 0 72.295 39.391 74.064 57.22h-148.119c.686-6.681 2.767-17.396 8.967-27.63 2.146-3.543 1.014-8.154-2.529-10.301-3.543-2.145-8.154-1.014-10.301 2.529-9.22 15.222-11.121 30.809-11.416 38.982-12.785 8.295-12.788 27.527-.016 35.829v10.574c0 12.963 10.546 23.51 23.51 23.51h58.34v16.291h-45.185c-10.927 0-19.817 8.89-19.817 19.817v32.061c0 .058.004.115.004.173v78.597h-14.649c-29.857 1.24-29.834 43.772 0 45h117.742c9.931-.344 9.923-14.66 0-15h-117.742c-9.929-.353-9.922-14.65 0-15h467c9.929.353 9.922 14.65 0 15h-314.85c-9.931.344-9.923 14.66 0 15h314.85c29.857-1.24 29.834-43.772 0-45zm-302.375-205.433c8.605.306 8.599 12.697 0 13h-154.958c-8.605-.306-8.599-12.697 0-13zm-151.829 34.984v-6.983h148.699v6.983c0 4.692-3.817 8.51-8.51 8.51h-131.679c-4.693 0-8.51-3.818-8.51-8.51zm131.85 59.618v32.061c0 7.787-6.335 14.122-14.122 14.122h-.09c-7.787 0-14.122-6.335-14.122-14.122v-36.878h23.517c2.656 0 4.817 2.161 4.817 4.817zm-43.334 32.06c0 7.787-6.335 14.122-14.122 14.122h-.09c-7.787 0-14.122-6.335-14.122-14.122v-36.878h28.333v36.878zm-66.85-36.877h23.517v36.878c0 7.787-6.335 14.122-14.122 14.122h-.09c-7.757 0-14.07-6.289-14.117-14.035v-16.697c0-.029-.004-.058-.004-.087v-15.364c0-2.656 2.16-4.817 4.816-4.817zm-4.812 115.648v-53.311c4.185 2.33 8.997 3.663 14.117 3.663h.09c8.572 0 16.288-3.724 21.622-9.637 5.334 5.913 13.05 9.637 21.622 9.637h.09c8.571 0 16.288-3.724 21.622-9.637 5.334 5.913 13.05 9.637 21.622 9.637h.09c5.123 0 9.939-1.335 14.126-3.668v53.316zm311.612 0v-23h75v23z"/></g><path d="m136.317 474.5h-53.334v-29.953c0-4.069 3.298-7.367 7.367-7.367h38.599c4.069 0 7.367 3.298 7.367 7.367v29.953z" style="fill:none;stroke:#000;stroke-width:15;stroke-linecap:round;stroke-linejoin:round;stroke-miterlimit:10"/></g></svg>