<svg id="Layer_1" enable-background="new 0 0 512 512" height="512" viewBox="0 0 512 512" width="512" xmlns="http://www.w3.org/2000/svg"><g><path d="m344.897 439c-33.538-20.517-35.53-62-35.53-62h-106.723s-1.992 41.483-35.536 62z" fill="#d7d7d7"/><path d="m469.404 377h-426.808c-19.383 0-35.096-15.713-35.096-35.096v-262.808c0-19.383 15.713-35.096 35.096-35.096h426.808c19.383 0 35.096 15.713 35.096 35.096v262.808c0 19.383-15.713 35.096-35.096 35.096z" fill="#7b727b"/><path d="m469.404 44h-30c19.383 0 35.096 15.713 35.096 35.096v262.808c0 19.383-15.713 35.096-35.096 35.096h30c19.383 0 35.096-15.713 35.096-35.096v-262.808c0-19.383-15.713-35.096-35.096-35.096z" fill="#686169"/><path d="m131.5-20h249v437h-249z" fill="#d6faec" transform="matrix(0 1 -1 0 454.5 -57.5)"/><path d="m444.5 74h30v249h-30z" fill="#ccfae8"/><path d="m469.404 377h-426.808c-19.383 0-35.096-15.713-35.096-35.096v-18.904h497v18.904c0 19.383-15.713 35.096-35.096 35.096z" fill="#f8f7f7"/><path d="m474.5 323v18.904c0 19.383-15.713 35.096-35.096 35.096h30c19.383 0 35.096-15.713 35.096-35.096v-18.904z" fill="#efefef"/><path d="m377.77 468h-243.54c-3.441 0-6.23-2.789-6.23-6.23 0-12.576 10.194-22.77 22.77-22.77h210.46c12.576 0 22.77 10.194 22.77 22.77 0 3.441-2.789 6.23-6.23 6.23z" fill="#f8f7f7"/><path d="m361.23 439h-30c12.576 0 22.77 10.194 22.77 22.77 0 3.441-2.789 6.23-6.23 6.23h30c3.441 0 6.23-2.789 6.23-6.23 0-12.576-10.194-22.77-22.77-22.77z" fill="#efefef"/><path d="m213.432 108.682v173.536c0 4.202-5.081 6.306-8.052 3.335l-122.7-122.715c-2.35-2.35-2.307-6.19.117-8.464 32.79-30.768 76.447-50.093 124.588-51.591 3.313-.103 6.047 2.583 6.047 5.899z" fill="#e49a6b"/><path d="m207.385 102.783c-8.511.265-16.878 1.098-25.073 2.442.702.973 1.121 2.166 1.121 3.457v154.92l21.948 21.951c2.971 2.972 8.052.867 8.052-3.335v-173.537c-.001-3.314-2.735-6.001-6.048-5.898z" fill="#e0925b"/><path d="m213.432 139.809v-31.127c0-3.315-2.734-6.002-6.047-5.899-48.141 1.498-91.798 20.824-124.588 51.592-2.423 2.274-2.467 6.114-.117 8.464l20.661 20.663c30.234-25.142 68.35-41.12 110.091-43.693z" fill="#e0925b"/><g><path d="m207.385 102.783c-8.511.265-16.878 1.098-25.073 2.442.702.973 1.121 2.166 1.121 3.457v35.383c9.741-2.182 19.76-3.625 30-4.255v-31.127c-.001-3.317-2.735-6.003-6.048-5.9z" fill="#d48145"/></g><g fill="#d64239"><circle cx="144.054" cy="218.183" r="17"/><circle cx="210.208" cy="237.235" r="17"/><circle cx="186.304" cy="179.854" r="17"/></g><ellipse cx="346.762" cy="194.862" fill="#7edbb0" rx="65" ry="64.684"/><path d="m346.762 130.177c-5.165 0-10.183.618-15 1.75 28.663 6.742 50 32.35 50 62.934s-21.337 56.192-50 62.934c4.817 1.133 9.835 1.75 15 1.75 35.898 0 65-28.96 65-64.684s-29.101-64.684-65-64.684z" fill="#51d39e"/><g><path d="m469.404 36.5h-426.808c-23.488 0-42.596 19.108-42.596 42.596v37.395c.344 9.931 14.66 9.923 15 0v-37.395c0-15.216 12.379-27.596 27.596-27.596h426.808c15.217 0 27.596 12.38 27.596 27.596v236.404h-15v-241.5c0-4.143-3.358-7.5-7.5-7.5h-41.469c-9.931.344-9.923 14.66 0 15h33.969v234h-422v-234h352.31c9.931-.344 9.923-14.66 0-15h-359.81c-4.142 0-7.5 3.357-7.5 7.5v241.5h-15v-164.033c-.344-9.931-14.66-9.923-15 0v190.438c0 23.487 19.108 42.595 42.596 42.595h151.468c-2.26 11.708-9.087 33.75-29.174 47h-14.12c-16.691 0-30.27 13.579-30.27 30.271 0 7.57 6.159 13.729 13.73 13.729h243.54c7.571 0 13.73-6.159 13.73-13.73 0-16.69-13.579-30.27-30.27-30.27h-14.114c-19.963-13.184-26.84-35.273-29.14-47h34.404c9.931-.344 9.923-14.66 0-15h-309.784c-15.217 0-27.596-12.379-27.596-27.596v-11.404h482v11.404c0 15.216-12.379 27.596-27.596 27.596h-80.466c-9.931.344-9.923 14.66 0 15h80.466c23.488 0 42.596-19.108 42.596-42.596v-262.808c0-23.488-19.108-42.596-42.596-42.596zm-92.956 424h-240.896c.647-7.828 7.226-14 15.218-14h210.46c7.992 0 14.57 6.172 15.218 14zm-73.747-76c1.687 10.476 6.728 30.473 21.584 47h-136.562c14.858-16.527 19.9-36.524 21.587-47z"/><path d="m144.054 242.684c2.386 0 4.691-.349 6.874-.988l49.149 49.158c3.519 3.527 8.785 4.534 13.315 2.647 4.579-1.896 7.538-6.325 7.538-11.281v-22.961c18.281-8.87 18.27-35.185 0-44.048v-106.531c0-3.606-1.485-7.116-4.075-9.629-2.618-2.539-6.069-3.896-9.708-3.767-48.24 1.503-94.223 20.544-129.479 53.617-2.663 2.499-4.161 5.888-4.219 9.542-.057 3.611 1.375 7.147 3.928 9.7l43.166 43.166c-4.73 15.289 7.459 31.634 23.511 31.375zm-9.5-24.5c0-5.238 4.262-9.5 9.5-9.5 12.603.522 12.599 18.48 0 19-5.238 0-9.5-4.262-9.5-9.5zm28.95 14.874c16.839-23.07-11.274-51.156-34.323-34.325l-14.591-14.591c26.708-20.283 58.029-32.692 91.341-36.186v17.248c-13.974-18.663-43.981-8.971-44.126 14.65.146 23.622 30.157 33.311 44.126 14.649v18.613c-26.827 5.292-26.808 42.955 0 48.236v14.14zm32.3-53.204c0 5.238-4.262 9.5-9.5 9.5-12.603-.522-12.599-18.48 0-19 5.238 0 9.5 4.261 9.5 9.5zm14.404 66.88c-5.238 0-9.5-4.262-9.5-9.5.522-12.603 18.48-12.599 19 0 0 5.239-4.262 9.5-9.5 9.5zm-4.278-136.397v22.553c-37.312 3.616-72.368 17.548-102.034 40.559l-14.744-14.744c32.014-29.491 73.364-46.617 116.778-48.368z"/><path d="m346.762 122.678c-39.977 0-72.5 32.382-72.5 72.184 3.978 95.761 141.036 95.733 145-.001 0-39.801-32.523-72.183-72.5-72.183zm0 129.368c-31.706 0-57.5-25.653-57.5-57.185 3.154-75.86 111.857-75.838 115 0 0 31.532-25.794 57.185-57.5 57.185z"/><path d="m373.918 175.305-34.021 30.538-14.697-14.346c-2.964-2.895-7.713-2.836-10.606.128-2.893 2.965-2.836 7.713.128 10.606l19.721 19.25c2.83 2.761 7.313 2.851 10.249.214l39.245-35.229c3.083-2.767 3.338-7.509.571-10.591-2.766-3.082-7.508-3.339-10.59-.57z"/></g></g></svg>