<svg id="Layer_1" enable-background="new 0 0 511.96 511.96" height="512" viewBox="0 0 511.96 511.96" width="512" xmlns="http://www.w3.org/2000/svg"><g><path d="m449.171 276.1h-145.515v-88h116.231z" fill="#e4f7fc"/><path d="m419.886 188.1h-30l29.285 88h30z" fill="#d1f2fe"/><path d="m487.452 377.1h-183.796v-101h168.367c8.521 0 15.429 6.908 15.429 15.43z" fill="#ff6167"/><path d="m472.022 276.1h-30c8.521 0 15.429 6.908 15.429 15.43v85.57h30v-85.57c.001-8.522-6.907-15.43-15.429-15.43z" fill="#fe454a"/><path d="m489.49 407.1h-467c-8.284 0-15-6.716-15-15 0-8.284 6.716-15 15-15h467c8.284 0 15 6.716 15 15 0 8.285-6.716 15-15 15z" fill="#e0dce0"/><path d="m489.49 377.1h-30c8.284 0 15 6.716 15 15 0 8.284-6.716 15-15 15h30c8.284 0 15-6.716 15-15 0-8.284-6.715-15-15-15z" fill="#cbc4cc"/><circle cx="403.99" cy="406.1" fill="#7a6d79" r="45"/><circle cx="403.99" cy="406.1" fill="#d0d3d2" r="16"/><path d="m487.452 350.408h-18.281c-11.046 0-20-8.954-20-20 0-11.046 8.954-20 20-20h18.281z" fill="#ffe589"/><path d="m303.656 188.1h30v88h-30z" fill="#fe454a"/><path d="m22.221 142.1h281.435v235h-281.435z" fill="#f1f0f1"/><path d="m273.656 142.101h30v235h-30z" fill="#e7e4e7"/><path d="m422.656 188.1h-119v-30h119c8.284 0 15 6.716 15 15 0 8.285-6.716 15-15 15z" fill="#ff6167"/><path d="m422.656 158.1h-30c8.284 0 15 6.716 15 15s-6.716 15-15 15h30c8.284 0 15-6.716 15-15s-6.716-15-15-15z" fill="#fe454a"/><circle cx="100.651" cy="406.1" fill="#7a6d79" r="45"/><circle cx="100.651" cy="406.1" fill="#d0d3d2" r="16"/><circle cx="162.49" cy="189.1" fill="#2fd9e7" r="79"/><path d="m162.49 110.1c-5.131 0-10.142.506-15 1.44 36.454 7.01 64 39.06 64 77.56s-27.546 70.55-64 77.56c4.858.934 9.869 1.44 15 1.44 43.63 0 79-35.37 79-79s-35.369-79-79-79z" fill="#00d0e4"/><path d="m181.49 89.1h-38c-7.732 0-14-6.268-14-14 0-7.732 6.268-14 14-14h38c7.732 0 14 6.268 14 14 0 7.732-6.268 14-14 14z" fill="#7b727b"/><path d="m181.49 61.1h-30c7.732 0 14 6.268 14 14s-6.268 14-14 14h30c7.732 0 14-6.268 14-14s-6.268-14-14-14z" fill="#686169"/><g><path d="m494.95 370.274v-19.827c0-.013.002-.025.002-.039v-40c0-.013-.002-.025-.002-.039v-18.839c0-12.644-10.286-22.93-22.93-22.93h-17.441l-24.692-74.199c23.751-8.468 18.28-43.305-7.231-43.801h-13.917c-9.931.344-9.923 14.66 0 15h13.917c9.929.353 9.922 14.65 0 15h-111.496v-15h62.696c9.931-.344 9.923-14.66 0-15h-62.696v-8.5c0-4.143-3.357-7.5-7.5-7.5h-74.052c-14.391-17.689-35.618-29.6-59.618-31.671v-6.329h11.5c28.53-1.184 28.508-41.827 0-43h-38c-28.53 1.184-28.508 41.827 0 43h11.5v6.329c-24 2.072-45.227 13.982-59.618 31.671h-73.151c-4.143 0-7.5 3.357-7.5 7.5v45.865c.344 9.931 14.66 9.923 15 0v-38.365h55.828c-29.759 56.335 12.919 126.618 76.942 126 64.014.621 106.708-69.677 76.94-125.999h56.729v8.423c0 .026-.004.051-.004.077v118c0 .026.004.051.004.077v93.422h-157.826c-19.728-21.179-55.645-21.172-75.366 0h-33.247v-148.782c-.344-9.931-14.66-9.923-15 0v150.182c-3.02 1.11-5.793 2.849-8.123 5.188-14.153 13.988-4.001 38.462 15.892 38.412h26.36c10.806 58.367 92.82 58.325 103.603 0h145.776c9.931-.344 9.923-14.66 0-15h-145.494c-.656-5.282-2.097-10.321-4.207-15h207.585c-2.11 4.679-3.551 9.718-4.207 15h-17.958c-9.931.344-9.923 14.66 0 15h18.239c10.806 58.367 92.82 58.325 103.604 0h33.698c6.018 0 11.669-2.347 15.893-6.587 12.483-12.196 6.199-33.768-10.432-37.739zm-357.96-295.174c0-3.584 2.916-6.5 6.5-6.5h38c8.605.306 8.599 12.697 0 13h-38c-3.584 0-6.5-2.916-6.5-6.5zm25.5 185.5c-39.425 0-71.5-32.075-71.5-71.5 3.928-94.854 139.086-94.827 143 .001 0 39.424-32.075 71.499-71.5 71.499zm-147.5 131.5c0-2 .779-3.877 2.214-5.307 1.409-1.414 3.286-2.193 5.286-2.193h30.284c-2.11 4.679-3.551 9.718-4.207 15h-26.077c-4.136 0-7.5-3.364-7.5-7.5zm85.661 51.5c-20.678 0-37.5-16.822-37.5-37.5 2.06-49.749 72.948-49.734 75 0 0 20.678-16.822 37.5-37.5 37.5zm379.299-100.692h-10.779c-16.587-.689-16.574-24.318 0-25h10.779zm-41.18-74.308h-97.614v-73h73.322zm-112.614-73v73h-14.996v-73zm-14.996 174v-86h160.86c4.372 0 7.93 3.558 7.93 7.93v11.378h-10.779c-36.491 1.516-36.463 53.498 0 55h10.779v11.692h-38.277c-19.728-21.179-55.645-21.172-75.366 0zm92.83 74c-20.678 0-37.5-16.822-37.5-37.5 2.06-49.749 72.948-49.734 75 0 0 20.678-16.822 37.5-37.5 37.5zm90.786-46.193c-1.409 1.414-3.286 2.193-5.286 2.193h-33.417c-.656-5.282-2.097-10.321-4.207-15h37.623c6.586-.078 10.033 8.221 5.287 12.807z"/><path d="m403.99 382.6c-12.958 0-23.5 10.542-23.5 23.5 1.291 31.176 45.714 31.167 47 0 0-12.958-10.542-23.5-23.5-23.5zm0 32c-4.687 0-8.5-3.813-8.5-8.5.428-11.261 16.574-11.258 17 0 0 4.687-3.813 8.5-8.5 8.5z"/><path d="m376.848 310.408c0-4.143-3.357-7.5-7.5-7.5h-14.769c-9.931.344-9.923 14.66 0 15h14.769c4.142 0 7.5-3.357 7.5-7.5z"/><path d="m100.651 382.6c-12.958 0-23.5 10.542-23.5 23.5 1.291 31.176 45.714 31.167 47 0 0-12.958-10.542-23.5-23.5-23.5zm0 32c-4.687 0-8.5-3.813-8.5-8.5.428-11.261 16.574-11.258 17 0 0 4.687-3.813 8.5-8.5 8.5z"/><path d="m162.49 150.14c-4.143 0-7.5 3.357-7.5 7.5v31.46c.344 9.931 14.66 9.923 15 0v-31.46c0-4.142-3.357-7.5-7.5-7.5z"/><path d="m162.49 123.722c-4.143 0-7.5 3.357-7.5 7.5v2.604c.344 9.931 14.66 9.923 15 0v-2.604c0-4.143-3.357-7.5-7.5-7.5z"/><path d="m162.49 234.605c-4.143 0-7.5 3.357-7.5 7.5v2.604c.344 9.931 14.66 9.923 15 0v-2.604c0-4.142-3.357-7.5-7.5-7.5z"/><path d="m200.772 157.183c1.919 0 3.839-.732 5.304-2.196l1.842-1.842c2.929-2.93 2.929-7.678 0-10.607-2.93-2.928-7.678-2.928-10.607 0l-1.842 1.842c-2.929 2.93-2.929 7.678 0 10.607 1.465 1.464 3.384 2.196 5.303 2.196z"/><path d="m118.904 220.944-1.842 1.842c-2.929 2.93-2.929 7.678 0 10.607 2.93 2.928 7.677 2.928 10.607 0l1.842-1.842c2.929-2.93 2.929-7.678 0-10.607-2.929-2.928-7.677-2.928-10.607 0z"/><path d="m209.13 187.966c0 4.143 3.357 7.5 7.5 7.5h2.604c9.931-.344 9.923-14.66 0-15h-2.604c-4.143 0-7.5 3.357-7.5 7.5z"/><path d="m108.351 180.466h-2.604c-9.931.344-9.923 14.66 0 15h2.604c9.93-.344 9.923-14.66 0-15z"/><path d="m206.076 220.944c-2.93-2.928-7.678-2.928-10.607 0-2.929 2.93-2.929 7.678 0 10.607l1.842 1.842c2.93 2.928 7.677 2.928 10.607 0 2.929-2.93 2.929-7.678 0-10.607z"/><path d="m127.67 142.538c-2.93-2.928-7.678-2.928-10.607 0-2.929 2.93-2.929 7.678 0 10.607l1.842 1.842c2.93 2.928 7.677 2.928 10.607 0 2.929-2.93 2.929-7.678 0-10.607z"/><path d="m77.151 314.511c0 4.143 3.357 7.5 7.5 7.5h136.961l-11.513 6.9c-3.553 2.129-4.707 6.735-2.577 10.288 2.141 3.585 6.795 4.688 10.288 2.577l34.759-20.833c4.771-2.665 4.803-10.126.056-12.832l-34.759-21.243c-3.533-2.159-8.149-1.047-10.311 2.488-2.16 3.534-1.046 8.15 2.488 10.311l12.016 7.344h-137.408c-4.142 0-7.5 3.357-7.5 7.5z"/></g></g></svg>