<svg id="Layer_1" enable-background="new 0 0 512 512" height="512" viewBox="0 0 512 512" width="512" xmlns="http://www.w3.org/2000/svg"><g><path d="m379.734 191.106v191.998c0 3.085-2.516 5.586-5.621 5.586h-236.226c-3.104 0-5.621-2.501-5.621-5.586v-191.998c0-8.973.801-17.929 2.393-26.762l9.985-55.395h222.712l9.985 55.395c1.592 8.833 2.393 17.789 2.393 26.762z" fill="#e49a6b"/><path d="m377.341 164.344-9.985-55.395h-30l9.985 55.395c1.592 8.833 2.393 17.789 2.393 26.762v191.998c0 3.085-2.516 5.585-5.621 5.585h30c3.104 0 5.621-2.5 5.621-5.585v-191.998c0-8.973-.801-17.929-2.393-26.762z" fill="#e0925b"/><path d="m374.155 108.95h-236.309c-3.676 0-6.657-2.98-6.657-6.657v-36.611c0-3.676 2.98-6.657 6.657-6.657h236.309c3.676 0 6.657 2.98 6.657 6.657v36.611c-.001 3.677-2.981 6.657-6.657 6.657z" fill="#e0925b"/><path d="m474.992 35.476c-38.247-37.522-99.88-37.3-137.849.669-29.847 29.847-36.367 74.316-19.565 110.555 4.705 10.147 4.964 21.794.546 32.069l-9.314 21.662c-.797 1.854 1.089 3.726 2.937 2.915l21.324-9.36c10.277-4.511 21.991-4.391 32.181.313 36.838 17.009 82.136 9.946 111.939-21.188 37.26-38.923 36.264-99.9-2.199-137.635z" fill="#7edbb0"/><g><path d="m474.992 35.476c-22.867-22.434-54.092-31.363-83.623-26.812 19.595 3.005 38.451 11.927 53.623 26.812 38.463 37.735 39.459 98.712 2.199 137.635-15.521 16.214-35.247 25.884-55.789 29.042 30.48 4.688 62.76-4.983 85.789-29.042 37.26-38.923 36.264-99.901-2.199-137.635z" fill="#51d39e"/></g><path d="m405.79 392.415c0 9.993-8.059 18.094-18 18.094h-93.239c-22.185 0-44.049 5.333-63.767 15.553l-107.808 55.882c-8.779 4.551-18.235 7.651-28.001 9.182l-85.165 13.35c-1.213.19-2.309-.749-2.309-1.979v-86.988c0-1.012.754-1.865 1.757-1.988l48.662-5.972c8.861-1.087 17.47-3.694 25.449-7.704l34.973-17.58c10.448-5.252 19.869-12.352 27.813-20.961l58.271-63.151c5.995-6.497 15.876-7.52 23.071-2.39 7.993 5.699 9.813 16.865 4.047 24.831l-31.405 43.385c-3.116 4.304-.057 10.344 5.239 10.344h182.412c9.941-.002 18 8.099 18 18.092z" fill="#ffd8ca"/><g fill="#ffbead"><path d="m201.543 320.592-31.405 43.386c-3.116 4.304-.057 10.344 5.239 10.344h30c-5.296 0-8.354-6.04-5.239-10.344l31.405-43.386c5.766-7.965 3.946-19.131-4.047-24.831-7.202-5.135-17.074-4.109-23.079 2.398l-2.295 2.488c3.792 5.952 3.815 13.874-.579 19.945z"/><path d="m387.79 374.321h-30c9.941 0 18 8.101 18 18.094 0 9.993-8.059 18.094-18 18.094h30c9.941 0 18-8.101 18-18.094 0-9.993-8.059-18.094-18-18.094z"/><path d="m200.784 426.062-107.808 55.882c-8.78 4.551-18.231 7.651-27.991 9.181l-57.485 9.01v2.362c0 1.23 1.096 2.169 2.309 1.979l85.175-13.351c9.76-1.53 19.212-4.63 27.991-9.181l107.808-55.881c19.718-10.221 41.582-15.554 63.767-15.554h-30c-22.184 0-44.048 5.332-63.766 15.553z"/></g><g><path d="m490.469 41.807c-2.506-3.295-7.211-3.939-10.508-1.432-3.296 2.507-3.938 7.212-1.431 10.51 26.975 35.492 24.1 84.714-6.837 117.038-23.327 24.371-57.95 33.454-89.725 24.578-.119-.038-.241-.068-.363-.101-4.495-1.276-8.933-2.909-13.272-4.913-12.138-5.604-26.108-5.737-38.333-.371l-9.068 3.981 4.027-9.368c5.22-12.141 4.989-26.06-.631-38.187-15.92-34.341-8.662-75.372 18.06-102.097 29.756-29.761 77.093-34.946 112.56-12.327 3.49 2.225 8.127 1.201 10.355-2.292 2.226-3.492 1.2-8.129-2.292-10.357-19.91-12.697-43.896-18.356-67.557-15.914-24.005 2.471-46.617 13.226-63.672 30.282-6.282 6.283-11.624 13.252-16.025 20.69h-177.931c-7.806 0-14.157 6.348-14.157 14.149v36.611c0 7.075 5.221 12.939 12.008 13.98l-8.421 46.743c-1.665 9.257-2.508 18.71-2.508 28.098v29.194c.344 9.931 14.657 9.924 14.997 0v-29.194c0-8.499.765-17.06 2.271-25.441l8.867-49.22h150.675c1.174 11.38 4.188 22.673 9.162 33.404 3.83 8.264 3.998 17.724.461 25.952l-9.314 21.664c-1.587 3.693-.769 7.909 2.083 10.74 2.865 2.85 7.118 3.607 10.758 2.003l21.32-9.36c8.296-3.642 17.779-3.549 26.019.256 3.327 1.536 6.707 2.868 10.12 4.036v161.678h-164.864l30.275-41.832c3.972-5.488 5.556-12.197 4.458-18.891-1.095-6.683-4.727-12.523-10.227-16.444-10.239-7.304-24.399-5.839-32.93 3.41l-58.262 63.152c-.285.309-.584.6-.872.904v-101.12c-.344-9.931-14.657-9.924-14.997 0v113.331c0 .161.014.317.024.476-3.14 2.114-6.412 4.043-9.82 5.757l-34.966 17.58c-7.229 3.635-14.964 5.977-22.99 6.961l-48.654 5.972c-4.755.583-8.342 4.637-8.342 9.431v86.989c0 2.782 1.212 5.415 3.326 7.224 2.111 1.811 4.924 2.596 7.643 2.165l85.151-13.35c10.583-1.659 20.773-5.002 30.285-9.934l42.548-22.059c3.677-1.906 5.112-6.433 3.206-10.109-1.906-3.678-6.434-5.114-10.108-3.207l-42.548 22.059c-8.075 4.186-16.724 7.022-25.707 8.432l-78.8 12.354v-75.7l43.825-5.379c9.74-1.195 19.127-4.037 27.9-8.447l34.966-17.58c11.29-5.676 21.367-13.273 29.952-22.577l58.262-63.152c3.421-3.707 9.096-4.296 13.202-1.369 2.222 1.584 3.69 3.948 4.133 6.657.446 2.72-.195 5.443-1.806 7.67l-31.4 43.385c-3.107 4.292-3.54 9.892-1.13 14.614 2.402 4.705 7.169 7.628 12.441 7.628h182.383c13.93.582 13.92 20.611 0 21.188h-93.223c-23.278 0-46.518 5.669-67.206 16.395l-34.219 17.739c-3.677 1.906-5.112 6.433-3.207 10.11 1.907 3.677 6.432 5.114 10.109 3.207l34.219-17.739c18.565-9.624 39.418-14.712 60.305-14.712h93.223c33.831-1.409 33.805-49.792 0-51.188h-.559v-157.751c34.383 6.341 70.414-4.708 95.363-30.775 36.066-37.684 39.407-95.086 7.94-136.488zm-351.802 59.641v-34.92h169.752c-4.397 11.146-6.876 22.965-7.341 34.92z"/><path d="m450.685 72.479-60.351 54.185-27.929-27.268c-2.965-2.895-7.713-2.835-10.605.128-2.893 2.965-2.835 7.713.128 10.607l32.952 32.172c2.83 2.761 7.311 2.851 10.247.214l65.575-58.875c3.082-2.767 3.337-7.509.571-10.591-2.766-3.084-7.507-3.341-10.588-.572z"/></g></g></svg>