<?xml version="1.0" standalone="no"?>
<!DOCTYPE svg PUBLIC "-//W3C//DTD SVG 20010904//EN"
 "http://www.w3.org/TR/2001/REC-SVG-20010904/DTD/svg10.dtd">
<svg version="1.0" xmlns="http://www.w3.org/2000/svg"
 width="512.000000pt" height="512.000000pt" viewBox="0 0 512.000000 512.000000"
 preserveAspectRatio="xMidYMid meet">

<g transform="translate(0.000000,512.000000) scale(0.100000,-0.100000)"
fill="#000000" stroke="none">
<path d="M985 4484 c-517 -283 -948 -523 -958 -533 -10 -10 -21 -37 -24 -60
l-6 -42 286 -287 287 -287 -281 -281 c-257 -257 -281 -284 -286 -320 -4 -33
-1 -46 18 -68 13 -14 150 -96 304 -181 l280 -153 5 -536 5 -536 25 -23 c14
-14 445 -254 957 -536 650 -356 942 -511 963 -511 21 0 313 155 963 511 512
282 943 522 957 536 l25 23 5 536 5 536 280 153 c154 85 290 166 303 180 25
30 28 64 8 103 -8 15 -136 148 -285 297 l-271 270 286 287 287 287 -6 42 c-3
23 -14 50 -24 60 -35 34 -677 381 -715 386 -33 5 -42 1 -73 -30 -42 -42 -46
-82 -11 -124 14 -16 138 -90 290 -173 146 -80 266 -147 266 -150 0 -3 -103
-108 -229 -234 l-228 -228 -779 427 c-429 236 -803 441 -832 458 l-54 30 228
228 c126 126 232 229 236 229 4 0 110 -57 235 -126 263 -145 294 -155 343
-106 39 40 42 101 6 135 -38 36 -579 327 -607 327 -13 0 -36 -7 -49 -16 -14
-9 -145 -136 -292 -283 l-268 -266 -267 266 c-148 147 -279 274 -293 283 -13
9 -36 16 -50 16 -15 0 -413 -213 -965 -516z m1179 57 l228 -228 -54 -30 c-29
-17 -403 -222 -832 -458 l-779 -427 -231 232 c-127 128 -226 234 -221 236 6 3
377 207 825 454 448 246 820 449 825 449 6 1 113 -102 239 -228z m1224 -823
c442 -242 800 -444 795 -449 -13 -13 -1613 -889 -1623 -889 -10 0 -1610 876
-1623 889 -11 11 1614 902 1633 895 8 -3 376 -204 818 -446z m-1824 -1027
l827 -454 -228 -229 c-138 -139 -234 -227 -243 -225 -14 4 -1640 894 -1650
903 -5 6 453 465 461 462 3 -2 378 -207 833 -457z m3061 229 c126 -126 227
-231 225 -234 -10 -9 -1636 -899 -1650 -903 -9 -2 -105 86 -243 225 l-228 229
828 455 c455 251 830 457 833 457 3 1 108 -102 235 -229z m-3244 -1075 c438
-241 543 -295 574 -295 37 0 50 12 322 282 l283 282 283 -282 c273 -272 285
-282 322 -282 32 0 134 52 576 295 295 162 544 298 553 301 15 6 16 -32 16
-418 l0 -424 -822 -451 -823 -452 -5 527 c-3 290 -9 534 -13 543 -4 8 -21 23
-38 33 -39 23 -87 15 -120 -20 l-24 -26 -5 -529 -5 -528 -822 451 -823 452 0
424 c0 395 1 424 17 418 9 -4 258 -139 554 -301z"/>
<path d="M2511 1836 c-66 -37 -67 -131 -1 -169 50 -30 110 -15 136 34 47 91
-46 184 -135 135z"/>
<path d="M4006 4505 c-41 -22 -55 -44 -56 -88 -1 -103 141 -134 185 -40 39 81
-50 170 -129 128z"/>
</g>
</svg>
