<?xml version="1.0" standalone="no"?>
<!DOCTYPE svg PUBLIC "-//W3C//DTD SVG 20010904//EN"
 "http://www.w3.org/TR/2001/REC-SVG-20010904/DTD/svg10.dtd">
<svg version="1.0" xmlns="http://www.w3.org/2000/svg"
 width="512.000000pt" height="512.000000pt" viewBox="0 0 512.000000 512.000000"
 preserveAspectRatio="xMidYMid meet">

<g transform="translate(0.000000,512.000000) scale(0.100000,-0.100000)"
fill="#000000" stroke="none">
<path d="M815 4946 c-37 -16 -70 -52 -84 -89 -6 -16 -11 -89 -11 -163 l0 -134
-40 0 -40 0 0 -80 0 -80 40 0 40 0 0 -70 c0 -106 -26 -214 -76 -317 -39 -81
-60 -109 -167 -220 -67 -71 -138 -151 -158 -178 -72 -99 -129 -238 -149 -365
-13 -85 -13 -1300 0 -1395 6 -38 27 -128 48 -200 36 -128 37 -133 36 -300 0
-165 -1 -173 -37 -294 -48 -163 -59 -255 -55 -458 3 -157 5 -172 30 -225 37
-79 98 -142 177 -181 60 -29 73 -32 156 -31 102 1 147 16 228 78 l48 37 61
-41 c107 -71 233 -94 359 -66 86 19 153 55 227 121 l52 47 31 -26 c44 -38 80
-54 141 -67 29 -6 86 -27 127 -47 70 -35 80 -37 165 -36 103 1 148 16 229 78
l48 37 61 -41 c33 -22 86 -48 117 -58 68 -20 218 -22 274 -3 40 14 43 24 22
73 -5 12 2 21 27 34 18 9 54 34 80 56 l46 38 7 -87 c6 -72 12 -91 31 -110 l23
-23 511 0 511 0 24 24 c28 28 26 14 65 524 37 489 50 552 149 766 53 115 95
248 115 365 13 75 16 171 16 463 l0 369 -25 24 -24 25 -416 0 -415 0 0 80 0
80 40 0 40 0 0 165 c0 185 -14 276 -60 392 -44 110 -92 177 -243 339 -120 129
-144 160 -182 238 -49 102 -75 211 -75 316 l0 70 40 0 40 0 0 80 0 80 -39 0
-40 0 -3 148 c-3 146 -3 149 -32 186 -49 65 -62 67 -381 64 -268 -3 -285 -4
-311 -24 -64 -47 -69 -62 -72 -225 l-3 -149 -40 0 -39 0 0 -80 0 -80 40 0 40
0 0 -70 c0 -100 -26 -212 -70 -305 -47 -100 -62 -119 -202 -263 -62 -64 -129
-139 -147 -165 -49 -72 -99 -185 -121 -279 -19 -78 -20 -118 -20 -700 l0 -618
-80 0 -80 0 0 40 0 40 -560 0 -560 0 0 480 0 480 560 0 560 0 0 80 0 80 -555
0 c-305 0 -555 4 -555 8 0 5 9 43 20 86 33 129 78 202 222 354 71 75 148 167
171 204 l42 67 335 0 335 0 33 -55 c32 -53 107 -146 122 -152 4 -1 31 24 59
57 l52 60 -47 58 c-93 114 -154 289 -154 443 l0 70 40 0 40 0 0 80 0 80 -39 0
-40 0 -3 148 c-3 146 -3 149 -32 186 -48 63 -62 66 -368 66 -205 -1 -280 -4
-303 -14z m545 -266 l0 -120 -240 0 -240 0 0 120 0 120 240 0 240 0 0 -120z
m0 -352 c0 -67 8 -130 26 -215 l7 -33 -273 0 -272 0 6 33 c18 85 26 148 26
215 l0 72 240 0 240 0 0 -72z m1440 0 c0 -67 8 -130 26 -215 l7 -33 -273 0
-272 0 6 33 c18 85 26 148 26 215 l0 72 240 0 240 0 0 -72z m1360 -1888 l0
-120 -720 0 -720 0 0 120 0 120 720 0 720 0 0 -120z m0 -334 c0 -191 -42 -384
-120 -556 -66 -144 -106 -264 -124 -375 -9 -50 -27 -243 -41 -430 -14 -187
-28 -359 -31 -382 l-5 -43 -399 0 -399 0 -5 43 c-3 23 -17 195 -31 382 -14
187 -31 372 -37 410 -16 109 -53 224 -119 373 -90 203 -128 372 -129 570 l0
62 720 0 720 0 0 -54z m-3255 -211 c-113 -95 -465 -345 -484 -345 -7 0 -79
269 -87 328 l-7 42 304 0 304 0 -30 -25z"/>
<path d="M3280 1680 l0 -80 80 0 80 0 0 80 0 80 -80 0 -80 0 0 -80z"/>
<path d="M3440 1120 l0 -80 80 0 80 0 0 80 0 80 -80 0 -80 0 0 -80z"/>
<path d="M3200 800 l0 -80 80 0 80 0 0 80 0 80 -80 0 -80 0 0 -80z"/>
<path d="M3695 4946 c-37 -16 -70 -52 -84 -89 -6 -16 -11 -89 -11 -163 l0
-134 -40 0 -40 0 0 -80 0 -80 40 0 40 0 0 -70 c0 -155 -61 -329 -154 -444
l-48 -59 56 -55 55 -56 27 24 c14 14 52 65 85 114 89 135 139 304 139 474 l0
72 240 0 240 0 0 -71 c0 -159 48 -330 127 -458 27 -43 100 -131 169 -203 160
-166 227 -280 250 -427 l7 -41 -557 0 -556 0 0 -80 0 -80 560 0 560 0 0 -480
0 -480 -160 0 -160 0 0 -80 0 -80 156 0 157 0 -7 -48 c-3 -27 -13 -73 -21
-103 -8 -30 -24 -88 -35 -129 -33 -121 -45 -263 -32 -382 6 -57 21 -137 32
-178 11 -41 27 -99 35 -129 36 -132 47 -397 21 -486 -20 -65 -68 -112 -134
-131 -86 -25 -142 -5 -239 87 -79 76 -104 78 -173 13 -28 -26 -50 -50 -50 -54
0 -4 21 -33 46 -64 39 -47 49 -54 65 -46 15 8 28 3 66 -26 81 -62 126 -77 228
-78 83 -1 96 2 156 31 79 39 140 102 177 181 25 53 27 68 30 226 4 200 -6 286
-56 461 -36 128 -37 133 -36 300 0 165 1 173 37 294 20 68 41 160 47 205 7 53
10 309 8 741 l-3 660 -28 88 c-53 171 -106 253 -279 434 -112 118 -133 145
-172 226 -50 103 -76 211 -76 317 l0 70 40 0 40 0 0 80 0 80 -39 0 -40 0 -3
148 c-3 146 -3 149 -32 186 -48 63 -62 66 -368 66 -205 -1 -280 -4 -303 -14z
m545 -266 l0 -120 -240 0 -240 0 0 120 0 120 240 0 240 0 0 -120z"/>
<path d="M480 2800 l0 -80 80 0 80 0 0 80 0 80 -80 0 -80 0 0 -80z"/>
<path d="M480 2400 l0 -160 80 0 80 0 0 160 0 160 -80 0 -80 0 0 -160z"/>
</g>
</svg>
