<svg id="svg" version="1.1" xmlns="http://www.w3.org/2000/svg" xmlns:xlink="http://www.w3.org/1999/xlink" width="400" height="400" viewBox="0, 0, 400,400"><g id="svgg"><path id="path0" d="M191.200 16.400 C 191.200 16.629,190.000 16.800,188.400 16.800 C 186.800 16.800,185.600 16.971,185.600 17.200 C 185.600 17.420,184.700 17.600,183.600 17.600 C 182.500 17.600,181.600 17.780,181.600 18.000 C 181.600 18.220,180.880 18.400,180.000 18.400 C 179.120 18.400,178.400 18.580,178.400 18.800 C 178.400 19.020,177.961 19.200,177.424 19.200 C 176.887 19.200,176.336 19.380,176.200 19.600 C 176.064 19.820,175.513 20.000,174.976 20.000 C 174.439 20.000,174.000 20.180,174.000 20.400 C 174.000 20.620,173.460 20.800,172.800 20.800 C 172.140 20.800,171.600 20.980,171.600 21.200 C 171.600 21.420,171.060 21.600,170.400 21.600 C 169.740 21.600,169.200 21.780,169.200 22.000 C 169.200 22.220,168.840 22.400,168.400 22.400 C 167.960 22.400,167.600 22.580,167.600 22.800 C 167.600 23.020,167.240 23.200,166.800 23.200 C 166.360 23.200,166.000 23.380,166.000 23.600 C 166.000 23.820,165.640 24.000,165.200 24.000 C 164.760 24.000,164.400 24.180,164.400 24.400 C 164.400 24.620,164.085 24.813,163.700 24.829 C 163.315 24.845,162.460 25.207,161.800 25.634 C 161.140 26.060,160.285 26.518,159.900 26.651 C 159.515 26.784,159.200 27.052,159.200 27.247 C 159.200 27.441,158.975 27.600,158.700 27.600 C 158.425 27.601,157.677 28.051,157.038 28.600 C 156.399 29.150,155.732 29.600,155.556 29.600 C 155.380 29.600,154.786 30.050,154.236 30.600 C 153.686 31.150,153.057 31.600,152.838 31.600 C 151.895 31.600,139.600 43.854,139.600 44.794 C 139.600 45.017,139.420 45.200,139.200 45.200 C 138.980 45.200,138.800 45.430,138.800 45.712 C 138.800 45.993,138.440 46.483,138.000 46.800 C 137.560 47.117,137.200 47.631,137.200 47.941 C 137.200 48.252,136.884 48.797,136.497 49.153 C 136.111 49.509,135.540 50.295,135.230 50.900 C 134.919 51.505,134.515 52.000,134.332 52.000 C 134.150 52.000,134.000 52.278,134.000 52.617 C 134.000 52.956,133.640 53.620,133.200 54.092 C 132.760 54.564,132.400 55.187,132.400 55.475 C 132.400 55.764,132.220 56.000,132.000 56.000 C 131.780 56.000,131.600 56.360,131.600 56.800 C 131.600 57.240,131.420 57.600,131.200 57.600 C 130.980 57.600,130.800 57.793,130.800 58.028 C 130.800 58.263,130.260 59.241,129.600 60.200 C 128.940 61.159,128.400 62.137,128.400 62.372 C 128.400 62.607,128.220 62.800,128.000 62.800 C 127.780 62.800,127.600 63.145,127.600 63.567 C 127.600 63.988,127.450 64.393,127.266 64.467 C 127.082 64.540,126.231 65.950,125.375 67.600 C 124.519 69.250,123.680 70.660,123.509 70.733 C 123.339 70.807,123.200 71.212,123.200 71.633 C 123.200 72.055,123.020 72.400,122.800 72.400 C 122.580 72.400,122.400 72.694,122.400 73.053 C 122.400 73.412,122.071 73.997,121.670 74.353 C 121.268 74.709,120.684 75.585,120.372 76.300 C 120.060 77.015,119.669 77.600,119.502 77.600 C 119.336 77.600,119.200 77.878,119.200 78.217 C 119.200 78.556,118.840 79.220,118.400 79.692 C 117.960 80.164,117.600 80.787,117.600 81.075 C 117.600 81.364,117.420 81.600,117.200 81.600 C 116.980 81.600,116.800 81.960,116.800 82.400 C 116.800 82.840,116.620 83.200,116.400 83.200 C 116.180 83.200,116.000 83.436,116.000 83.725 C 116.000 84.013,115.640 84.636,115.200 85.108 C 114.760 85.580,114.400 86.244,114.400 86.583 C 114.400 86.922,114.220 87.200,114.000 87.200 C 113.780 87.200,113.600 87.560,113.600 88.000 C 113.600 88.440,113.442 88.800,113.249 88.800 C 113.055 88.800,112.673 89.340,112.400 90.000 C 112.127 90.660,111.789 91.200,111.649 91.200 C 111.510 91.200,111.140 91.785,110.829 92.500 C 110.517 93.215,109.843 94.471,109.331 95.292 C 108.819 96.113,108.400 97.058,108.400 97.392 C 108.400 97.726,108.220 98.000,108.000 98.000 C 107.780 98.000,107.600 98.320,107.600 98.712 C 107.600 99.103,107.240 99.683,106.800 100.000 C 106.360 100.317,106.000 100.897,106.000 101.288 C 106.000 101.680,105.820 102.000,105.600 102.000 C 105.380 102.000,105.200 102.360,105.200 102.800 C 105.200 103.240,105.020 103.600,104.800 103.600 C 104.580 103.600,104.400 103.836,104.400 104.125 C 104.400 104.413,104.040 105.036,103.600 105.508 C 103.160 105.980,102.800 106.644,102.800 106.983 C 102.800 107.322,102.620 107.600,102.400 107.600 C 102.180 107.600,102.000 107.793,102.000 108.028 C 102.000 108.263,101.460 109.241,100.800 110.200 C 100.140 111.159,99.600 112.137,99.600 112.372 C 99.600 112.607,99.420 112.800,99.200 112.800 C 98.980 112.800,98.800 113.078,98.800 113.417 C 98.800 113.756,98.440 114.420,98.000 114.892 C 97.560 115.364,97.200 115.987,97.200 116.275 C 97.200 116.564,97.020 116.800,96.800 116.800 C 96.580 116.800,96.400 117.160,96.400 117.600 C 96.400 118.040,96.220 118.400,96.000 118.400 C 95.780 118.400,95.600 118.678,95.600 119.017 C 95.600 119.356,95.240 120.020,94.800 120.492 C 94.360 120.964,94.000 121.587,94.000 121.875 C 94.000 122.164,93.820 122.400,93.600 122.400 C 93.380 122.400,93.200 122.760,93.200 123.200 C 93.200 123.640,93.065 124.002,92.900 124.004 C 92.735 124.006,92.245 124.816,91.810 125.804 C 91.376 126.792,90.881 127.600,90.710 127.600 C 90.540 127.600,90.400 127.960,90.400 128.400 C 90.400 128.840,90.220 129.200,90.000 129.200 C 89.780 129.200,89.600 129.470,89.600 129.800 C 89.600 130.130,89.420 130.400,89.200 130.400 C 88.980 130.400,88.800 130.670,88.800 131.000 C 88.800 131.330,88.620 131.600,88.400 131.600 C 88.180 131.600,88.000 131.960,88.000 132.400 C 88.000 132.840,87.820 133.200,87.600 133.200 C 87.380 133.200,87.200 133.520,87.200 133.912 C 87.200 134.303,86.840 134.883,86.400 135.200 C 85.960 135.517,85.600 136.097,85.600 136.488 C 85.600 136.880,85.420 137.200,85.200 137.200 C 84.980 137.200,84.800 137.560,84.800 138.000 C 84.800 138.440,84.620 138.800,84.400 138.800 C 84.180 138.800,84.000 139.036,84.000 139.325 C 84.000 139.613,83.685 140.198,83.300 140.625 C 82.915 141.051,82.330 141.940,82.001 142.600 C 81.671 143.260,81.311 143.890,81.201 144.000 C 80.805 144.394,79.546 146.613,79.329 147.300 C 79.207 147.685,78.948 148.000,78.753 148.000 C 78.559 148.000,78.400 148.360,78.400 148.800 C 78.400 149.240,78.256 149.600,78.080 149.600 C 77.904 149.600,77.058 151.040,76.200 152.800 C 75.342 154.560,74.496 156.000,74.320 156.000 C 74.144 156.000,74.000 156.360,74.000 156.800 C 74.000 157.240,73.864 157.600,73.698 157.600 C 73.531 157.600,73.136 158.185,72.820 158.900 C 72.503 159.615,71.920 160.549,71.522 160.975 C 71.125 161.402,70.800 161.987,70.800 162.275 C 70.800 162.564,70.620 162.800,70.400 162.800 C 70.180 162.800,70.000 163.160,70.000 163.600 C 70.000 164.040,69.820 164.400,69.600 164.400 C 69.380 164.400,69.200 164.636,69.200 164.925 C 69.200 165.213,68.840 165.836,68.400 166.308 C 67.960 166.780,67.600 167.444,67.600 167.783 C 67.600 168.122,67.420 168.400,67.200 168.400 C 66.980 168.400,66.800 168.678,66.800 169.017 C 66.800 169.356,66.440 170.020,66.000 170.492 C 65.560 170.964,65.200 171.587,65.200 171.875 C 65.200 172.164,65.020 172.400,64.800 172.400 C 64.580 172.400,64.400 172.760,64.400 173.200 C 64.400 173.640,64.220 174.000,64.000 174.000 C 63.780 174.000,63.600 174.193,63.600 174.428 C 63.600 174.663,63.099 175.608,62.488 176.528 C 61.876 177.448,61.111 178.740,60.788 179.400 C 60.465 180.060,60.091 180.690,59.956 180.800 C 59.568 181.118,58.400 183.516,58.400 183.997 C 58.400 184.237,58.040 184.820,57.600 185.292 C 57.160 185.764,56.800 186.387,56.800 186.675 C 56.800 186.964,56.620 187.200,56.400 187.200 C 56.180 187.200,56.000 187.560,56.000 188.000 C 56.000 188.440,55.820 188.800,55.600 188.800 C 55.380 188.800,55.200 189.120,55.200 189.512 C 55.200 189.903,54.840 190.483,54.400 190.800 C 53.960 191.117,53.600 191.697,53.600 192.088 C 53.600 192.480,53.420 192.800,53.200 192.800 C 52.980 192.800,52.800 193.070,52.800 193.400 C 52.800 193.730,52.620 194.000,52.400 194.000 C 52.180 194.000,52.000 194.278,52.000 194.617 C 52.000 194.956,51.640 195.620,51.200 196.092 C 50.760 196.564,50.400 197.187,50.400 197.475 C 50.400 197.764,50.220 198.000,50.000 198.000 C 49.780 198.000,49.600 198.360,49.600 198.800 C 49.600 199.240,49.420 199.600,49.200 199.600 C 48.980 199.600,48.800 199.836,48.800 200.125 C 48.800 200.413,48.440 201.036,48.000 201.508 C 47.560 201.980,47.200 202.644,47.200 202.983 C 47.200 203.322,47.020 203.600,46.800 203.600 C 46.580 203.600,46.400 203.960,46.400 204.400 C 46.400 204.840,46.242 205.200,46.049 205.200 C 45.855 205.200,45.473 205.740,45.200 206.400 C 44.927 207.060,44.545 207.600,44.351 207.600 C 44.158 207.600,44.000 207.960,44.000 208.400 C 44.000 208.840,43.860 209.200,43.690 209.200 C 43.519 209.200,43.024 210.008,42.590 210.996 C 42.155 211.984,41.665 212.794,41.500 212.796 C 41.335 212.798,41.200 213.160,41.200 213.600 C 41.200 214.040,41.020 214.400,40.800 214.400 C 40.580 214.400,40.400 214.636,40.400 214.925 C 40.400 215.213,40.040 215.836,39.600 216.308 C 39.160 216.780,38.800 217.444,38.800 217.783 C 38.800 218.122,38.620 218.400,38.400 218.400 C 38.180 218.400,38.000 218.678,38.000 219.017 C 38.000 219.356,37.640 220.020,37.200 220.492 C 36.760 220.964,36.400 221.587,36.400 221.875 C 36.400 222.164,36.220 222.400,36.000 222.400 C 35.780 222.400,35.600 222.760,35.600 223.200 C 35.600 223.640,35.420 224.000,35.200 224.000 C 34.980 224.000,34.800 224.294,34.800 224.653 C 34.800 225.012,34.471 225.597,34.070 225.953 C 33.668 226.309,33.084 227.185,32.772 227.900 C 32.460 228.615,32.069 229.200,31.902 229.200 C 31.736 229.200,31.600 229.478,31.600 229.817 C 31.600 230.156,31.240 230.820,30.800 231.292 C 30.360 231.764,30.000 232.387,30.000 232.675 C 30.000 232.964,29.820 233.200,29.600 233.200 C 29.380 233.200,29.200 233.560,29.200 234.000 C 29.200 234.440,29.020 234.800,28.800 234.800 C 28.580 234.800,28.400 235.160,28.400 235.600 C 28.400 236.040,28.258 236.400,28.084 236.400 C 27.910 236.400,27.267 237.387,26.657 238.593 C 26.046 239.799,25.378 240.890,25.173 241.017 C 24.968 241.143,24.800 241.597,24.800 242.024 C 24.800 242.451,24.620 242.800,24.400 242.800 C 24.180 242.800,24.000 243.070,24.000 243.400 C 24.000 243.730,23.820 244.000,23.600 244.000 C 23.380 244.000,23.200 244.278,23.200 244.617 C 23.200 244.956,22.840 245.620,22.400 246.092 C 21.960 246.564,21.600 247.187,21.600 247.475 C 21.600 247.764,21.420 248.000,21.200 248.000 C 20.980 248.000,20.800 248.360,20.800 248.800 C 20.800 249.240,20.620 249.600,20.400 249.600 C 20.180 249.600,20.000 249.920,20.000 250.312 C 20.000 250.703,19.640 251.283,19.200 251.600 C 18.760 251.917,18.400 252.497,18.400 252.888 C 18.400 253.280,18.220 253.600,18.000 253.600 C 17.780 253.600,17.600 253.960,17.600 254.400 C 17.600 254.840,17.442 255.200,17.249 255.200 C 17.055 255.200,16.673 255.740,16.400 256.400 C 16.127 257.060,15.745 257.600,15.551 257.600 C 15.358 257.600,15.200 257.960,15.200 258.400 C 15.200 258.840,15.020 259.200,14.800 259.200 C 14.580 259.200,14.400 259.455,14.400 259.767 C 14.400 260.078,14.265 260.393,14.100 260.467 C 13.724 260.634,12.425 262.764,12.129 263.700 C 12.007 264.085,11.748 264.400,11.553 264.400 C 11.359 264.400,11.200 264.745,11.200 265.167 C 11.200 265.588,11.043 265.993,10.851 266.067 C 10.379 266.247,8.400 270.219,8.400 270.987 C 8.400 271.324,8.220 271.600,8.000 271.600 C 7.780 271.600,7.600 271.960,7.600 272.400 C 7.600 272.840,7.420 273.200,7.200 273.200 C 6.980 273.200,6.800 273.560,6.800 274.000 C 6.800 274.440,6.620 274.800,6.400 274.800 C 6.180 274.800,6.000 275.160,6.000 275.600 C 6.000 276.040,5.820 276.400,5.600 276.400 C 5.380 276.400,5.200 276.850,5.200 277.400 C 5.200 277.950,5.020 278.400,4.800 278.400 C 4.580 278.400,4.400 278.749,4.400 279.176 C 4.400 279.603,4.220 280.064,4.000 280.200 C 3.780 280.336,3.600 280.887,3.600 281.424 C 3.600 281.961,3.420 282.400,3.200 282.400 C 2.980 282.400,2.800 282.940,2.800 283.600 C 2.800 284.260,2.620 284.800,2.400 284.800 C 2.180 284.800,2.000 285.520,2.000 286.400 C 2.000 287.280,1.820 288.000,1.600 288.000 C 1.380 288.000,1.200 288.705,1.200 289.567 C 1.200 290.464,0.987 291.204,0.700 291.300 C -0.027 291.542,-0.027 321.733,0.700 322.460 C 0.975 322.735,1.200 323.644,1.200 324.480 C 1.200 325.316,1.380 326.000,1.600 326.000 C 1.820 326.000,2.000 326.529,2.000 327.176 C 2.000 327.823,2.180 328.464,2.400 328.600 C 2.620 328.736,2.800 329.467,2.800 330.224 C 2.800 330.981,2.980 331.600,3.200 331.600 C 3.420 331.600,3.600 331.949,3.600 332.376 C 3.600 332.803,3.780 333.264,4.000 333.400 C 4.220 333.536,4.400 334.087,4.400 334.624 C 4.400 335.161,4.580 335.600,4.800 335.600 C 5.020 335.600,5.200 336.050,5.200 336.600 C 5.200 337.150,5.380 337.600,5.600 337.600 C 5.820 337.600,6.000 337.853,6.000 338.162 C 6.000 338.828,7.668 342.141,8.100 342.333 C 8.265 342.407,8.400 342.731,8.400 343.053 C 8.400 343.648,9.509 346.034,9.956 346.400 C 10.090 346.510,10.425 347.005,10.700 347.500 C 11.941 349.735,12.243 350.208,12.900 350.955 C 13.285 351.393,13.600 351.947,13.600 352.187 C 13.600 352.427,13.960 352.883,14.400 353.200 C 14.840 353.517,15.200 353.930,15.200 354.117 C 15.200 354.304,15.425 354.700,15.700 354.997 C 15.975 355.294,17.010 356.473,18.000 357.617 C 20.924 360.997,28.653 368.400,29.257 368.400 C 29.450 368.400,30.172 368.940,30.863 369.600 C 31.554 370.260,32.362 370.800,32.659 370.800 C 32.957 370.800,33.200 370.950,33.200 371.132 C 33.200 371.315,33.695 371.720,34.300 372.032 C 34.905 372.344,35.490 372.690,35.600 372.802 C 36.102 373.314,39.973 375.200,40.521 375.200 C 40.858 375.200,41.193 375.335,41.267 375.500 C 41.487 375.995,46.454 378.400,47.256 378.400 C 47.665 378.400,48.000 378.580,48.000 378.800 C 48.000 379.020,48.540 379.200,49.200 379.200 C 49.860 379.200,50.400 379.380,50.400 379.600 C 50.400 379.820,50.940 380.000,51.600 380.000 C 52.260 380.000,52.800 380.180,52.800 380.400 C 52.800 380.620,53.340 380.800,54.000 380.800 C 54.660 380.800,55.200 380.980,55.200 381.200 C 55.200 381.420,55.920 381.600,56.800 381.600 C 57.680 381.600,58.400 381.780,58.400 382.000 C 58.400 382.220,59.210 382.400,60.200 382.400 C 61.190 382.400,62.000 382.580,62.000 382.800 C 62.000 383.029,63.200 383.200,64.800 383.200 C 66.400 383.200,67.600 383.371,67.600 383.600 C 67.600 383.865,84.533 384.000,117.600 384.000 C 150.667 384.000,167.600 383.865,167.600 383.600 C 167.600 383.380,167.960 383.200,168.400 383.200 C 168.840 383.200,169.200 383.020,169.200 382.800 C 169.200 382.580,169.478 382.400,169.819 382.400 C 170.159 382.400,170.744 381.861,171.119 381.203 C 171.493 380.544,171.935 380.004,172.100 380.003 C 172.265 380.001,172.400 379.651,172.400 379.224 C 172.400 378.797,172.580 378.336,172.800 378.200 C 173.418 377.818,173.273 376.113,172.600 375.855 C 172.270 375.729,172.000 375.226,172.000 374.739 C 172.000 372.965,170.341 370.345,168.464 369.155 L 166.643 368.000 119.899 368.000 C 89.219 368.000,72.165 367.855,70.277 367.578 C 60.516 366.148,55.649 364.697,48.607 361.121 C 34.876 354.147,23.597 340.994,18.831 326.400 C 17.259 321.585,17.198 321.327,16.017 314.633 C 13.944 302.873,17.447 287.174,25.006 274.350 C 26.439 271.920,26.975 270.993,28.800 267.800 C 30.186 265.375,30.951 264.050,36.996 253.600 C 44.590 240.473,44.267 241.033,45.200 239.400 C 45.640 238.630,46.360 237.370,46.800 236.600 C 48.233 234.092,49.064 232.657,51.200 229.000 C 52.357 227.020,53.712 224.680,54.212 223.800 C 54.712 222.920,56.421 219.950,58.010 217.200 C 62.047 210.213,62.300 209.774,63.200 208.200 C 64.697 205.580,65.493 204.203,70.601 195.400 C 73.409 190.560,76.248 185.610,76.911 184.400 C 77.573 183.190,78.250 182.020,78.415 181.800 C 78.580 181.580,79.094 180.725,79.557 179.900 C 80.534 178.162,79.975 179.132,88.602 164.200 C 96.537 150.464,96.562 150.422,97.647 148.500 C 98.113 147.675,98.833 146.522,99.247 145.938 C 99.661 145.354,100.000 144.782,100.000 144.666 C 100.000 144.550,102.273 140.528,105.050 135.728 C 110.782 125.822,111.292 124.939,112.400 123.000 C 113.786 120.575,114.551 119.250,120.596 108.800 C 123.842 103.190,126.835 98.015,127.249 97.300 C 127.662 96.585,128.379 95.325,128.843 94.500 C 129.306 93.675,129.820 92.820,129.985 92.600 C 130.150 92.380,130.826 91.210,131.487 90.000 C 132.148 88.790,134.987 83.840,137.795 79.000 C 144.212 67.939,144.756 66.997,146.811 63.369 C 167.083 27.580,215.638 21.372,243.884 50.957 C 248.630 55.927,252.282 61.274,257.712 71.200 C 258.374 72.410,259.050 73.580,259.215 73.800 C 259.380 74.020,259.871 74.830,260.307 75.600 C 261.411 77.550,265.052 83.872,267.680 88.400 C 268.893 90.490,270.338 93.010,270.891 94.000 C 271.444 94.990,272.848 97.420,274.012 99.400 C 275.175 101.380,277.425 105.250,279.011 108.000 C 286.261 120.572,290.954 128.698,291.601 129.800 C 291.988 130.460,294.053 134.060,296.189 137.800 C 298.325 141.540,300.210 144.780,300.378 145.000 C 300.547 145.220,301.224 146.390,301.883 147.600 C 303.768 151.059,304.859 152.966,305.200 153.400 C 305.373 153.620,305.894 154.475,306.357 155.300 C 307.142 156.696,307.607 157.514,309.543 160.900 C 309.952 161.615,311.658 164.572,313.334 167.472 C 315.010 170.371,316.723 173.341,317.140 174.072 C 317.556 174.802,318.844 177.020,320.000 179.000 C 322.138 182.661,322.971 184.100,324.400 186.600 C 324.840 187.370,325.560 188.630,326.000 189.400 C 327.290 191.658,328.170 193.181,330.390 197.000 C 331.541 198.980,332.891 201.320,333.390 202.200 C 333.888 203.080,335.243 205.420,336.400 207.400 C 338.536 211.057,339.367 212.492,340.800 215.000 C 341.240 215.770,341.934 216.985,342.343 217.700 C 343.045 218.929,348.511 228.412,350.009 231.000 C 350.391 231.660,352.727 235.710,355.200 240.000 C 357.673 244.290,360.014 248.340,360.403 249.000 C 360.791 249.660,362.095 251.910,363.301 254.000 C 364.506 256.090,367.886 261.940,370.813 267.000 C 377.511 278.581,379.590 282.727,381.342 288.000 C 383.603 294.803,384.400 299.736,384.400 306.921 C 384.400 334.996,365.104 359.599,337.924 366.178 C 331.725 367.678,330.425 367.718,280.000 367.960 C 243.306 368.137,229.926 368.323,229.159 368.668 C 227.524 369.402,225.290 372.281,224.994 374.036 C 224.849 374.894,224.566 375.697,224.365 375.822 C 223.898 376.110,223.885 378.400,224.350 378.400 C 224.543 378.400,224.799 378.897,224.921 379.505 C 225.167 380.735,226.447 382.400,227.147 382.400 C 227.396 382.400,227.600 382.580,227.600 382.800 C 227.600 383.020,227.960 383.200,228.400 383.200 C 228.840 383.200,229.200 383.380,229.200 383.600 C 229.200 383.865,246.667 384.000,280.800 384.000 C 314.933 384.000,332.400 383.865,332.400 383.600 C 332.400 383.371,333.600 383.200,335.200 383.200 C 336.800 383.200,338.000 383.029,338.000 382.800 C 338.000 382.580,338.810 382.400,339.800 382.400 C 340.790 382.400,341.600 382.220,341.600 382.000 C 341.600 381.780,342.320 381.600,343.200 381.600 C 344.080 381.600,344.800 381.420,344.800 381.200 C 344.800 380.980,345.340 380.800,346.000 380.800 C 346.660 380.800,347.200 380.620,347.200 380.400 C 347.200 380.180,347.740 380.000,348.400 380.000 C 349.060 380.000,349.600 379.820,349.600 379.600 C 349.600 379.380,350.140 379.200,350.800 379.200 C 351.460 379.200,352.000 379.020,352.000 378.800 C 352.000 378.580,352.335 378.400,352.744 378.400 C 353.546 378.400,358.513 375.995,358.733 375.500 C 358.807 375.335,359.142 375.200,359.479 375.200 C 360.027 375.200,363.898 373.314,364.400 372.802 C 364.510 372.690,365.095 372.344,365.700 372.032 C 366.305 371.720,366.800 371.315,366.800 371.132 C 366.800 370.950,367.043 370.800,367.341 370.800 C 367.638 370.800,368.446 370.260,369.137 369.600 C 369.828 368.940,370.556 368.400,370.756 368.400 C 370.956 368.400,372.038 367.500,373.161 366.400 C 374.285 365.300,375.303 364.400,375.424 364.400 C 375.695 364.400,379.560 360.405,382.000 357.604 C 382.990 356.467,384.025 355.294,384.300 354.997 C 384.575 354.700,384.800 354.304,384.800 354.117 C 384.800 353.930,385.160 353.517,385.600 353.200 C 386.040 352.883,386.400 352.427,386.400 352.187 C 386.400 351.947,386.715 351.402,387.100 350.975 C 387.485 350.549,388.055 349.705,388.368 349.100 C 388.680 348.495,389.085 348.000,389.268 348.000 C 389.450 348.000,389.600 347.640,389.600 347.200 C 389.600 346.760,389.747 346.400,389.926 346.400 C 390.315 346.400,391.600 343.806,391.600 343.020 C 391.600 342.716,391.735 342.407,391.900 342.333 C 392.332 342.141,394.000 338.828,394.000 338.162 C 394.000 337.853,394.180 337.600,394.400 337.600 C 394.620 337.600,394.800 337.150,394.800 336.600 C 394.800 336.050,394.980 335.600,395.200 335.600 C 395.420 335.600,395.600 335.161,395.600 334.624 C 395.600 334.087,395.780 333.536,396.000 333.400 C 396.220 333.264,396.400 332.803,396.400 332.376 C 396.400 331.949,396.580 331.600,396.800 331.600 C 397.020 331.600,397.200 330.981,397.200 330.224 C 397.200 329.467,397.380 328.736,397.600 328.600 C 397.820 328.464,398.000 327.823,398.000 327.176 C 398.000 326.529,398.180 326.000,398.400 326.000 C 398.620 326.000,398.800 325.316,398.800 324.480 C 398.800 323.644,399.025 322.735,399.300 322.460 C 399.683 322.077,399.800 318.377,399.800 306.713 C 399.800 294.871,399.688 291.429,399.300 291.300 C 399.013 291.204,398.800 290.464,398.800 289.567 C 398.800 288.705,398.620 288.000,398.400 288.000 C 398.180 288.000,398.000 287.280,398.000 286.400 C 398.000 285.520,397.820 284.800,397.600 284.800 C 397.380 284.800,397.200 284.260,397.200 283.600 C 397.200 282.940,397.020 282.400,396.800 282.400 C 396.580 282.400,396.400 281.961,396.400 281.424 C 396.400 280.887,396.220 280.336,396.000 280.200 C 395.780 280.064,395.600 279.603,395.600 279.176 C 395.600 278.749,395.420 278.400,395.200 278.400 C 394.980 278.400,394.800 277.950,394.800 277.400 C 394.800 276.850,394.620 276.400,394.400 276.400 C 394.180 276.400,394.000 276.040,394.000 275.600 C 394.000 275.160,393.820 274.800,393.600 274.800 C 393.380 274.800,393.200 274.440,393.200 274.000 C 393.200 273.560,393.020 273.200,392.800 273.200 C 392.580 273.200,392.400 272.840,392.400 272.400 C 392.400 271.960,392.220 271.600,392.000 271.600 C 391.780 271.600,391.600 271.324,391.600 270.987 C 391.600 270.219,389.621 266.247,389.149 266.067 C 388.957 265.993,388.800 265.603,388.800 265.200 C 388.800 264.797,388.665 264.407,388.500 264.333 C 388.124 264.166,386.825 262.036,386.529 261.100 C 386.407 260.715,386.148 260.400,385.953 260.400 C 385.759 260.400,385.600 260.130,385.600 259.800 C 385.600 259.470,385.420 259.200,385.200 259.200 C 384.980 259.200,384.800 258.840,384.800 258.400 C 384.800 257.960,384.642 257.600,384.449 257.600 C 384.255 257.600,383.873 257.060,383.600 256.400 C 383.327 255.740,382.945 255.200,382.751 255.200 C 382.558 255.200,382.400 254.840,382.400 254.400 C 382.400 253.960,382.220 253.600,382.000 253.600 C 381.780 253.600,381.600 253.322,381.600 252.983 C 381.600 252.644,381.240 251.980,380.800 251.508 C 380.360 251.036,380.000 250.413,380.000 250.125 C 380.000 249.836,379.820 249.600,379.600 249.600 C 379.380 249.600,379.200 249.240,379.200 248.800 C 379.200 248.360,379.020 248.000,378.800 248.000 C 378.580 248.000,378.400 247.764,378.400 247.475 C 378.400 247.187,378.040 246.564,377.600 246.092 C 377.160 245.620,376.800 244.956,376.800 244.617 C 376.800 244.278,376.620 244.000,376.400 244.000 C 376.180 244.000,376.000 243.730,376.000 243.400 C 376.000 243.070,375.820 242.800,375.600 242.800 C 375.380 242.800,375.200 242.453,375.200 242.029 C 375.200 241.604,374.930 240.987,374.600 240.657 C 374.270 240.327,374.000 239.789,374.000 239.462 C 374.000 239.135,373.865 238.807,373.700 238.733 C 373.324 238.566,372.025 236.436,371.729 235.500 C 371.607 235.115,371.348 234.800,371.153 234.800 C 370.959 234.800,370.800 234.440,370.800 234.000 C 370.800 233.560,370.620 233.200,370.400 233.200 C 370.180 233.200,370.000 232.964,370.000 232.675 C 370.000 232.387,369.640 231.764,369.200 231.292 C 368.760 230.820,368.400 230.156,368.400 229.817 C 368.400 229.478,368.264 229.200,368.098 229.200 C 367.931 229.200,367.536 228.615,367.220 227.900 C 366.903 227.185,366.320 226.251,365.922 225.825 C 365.525 225.398,365.200 224.813,365.200 224.525 C 365.200 224.236,365.020 224.000,364.800 224.000 C 364.580 224.000,364.400 223.640,364.400 223.200 C 364.400 222.760,364.220 222.400,364.000 222.400 C 363.780 222.400,363.600 222.164,363.600 221.875 C 363.600 221.587,363.240 220.964,362.800 220.492 C 362.360 220.020,362.000 219.356,362.000 219.017 C 362.000 218.678,361.820 218.400,361.600 218.400 C 361.380 218.400,361.200 218.122,361.200 217.783 C 361.200 217.444,360.840 216.780,360.400 216.308 C 359.960 215.836,359.600 215.213,359.600 214.925 C 359.600 214.636,359.420 214.400,359.200 214.400 C 358.980 214.400,358.800 214.126,358.800 213.792 C 358.800 213.458,358.350 212.471,357.800 211.600 C 357.250 210.729,356.800 209.832,356.800 209.608 C 356.800 209.384,356.620 209.200,356.400 209.200 C 356.180 209.200,356.000 208.840,356.000 208.400 C 356.000 207.960,355.842 207.600,355.649 207.600 C 355.455 207.600,355.073 207.060,354.800 206.400 C 354.527 205.740,354.145 205.200,353.951 205.200 C 353.758 205.200,353.600 204.840,353.600 204.400 C 353.600 203.960,353.420 203.600,353.200 203.600 C 352.980 203.600,352.800 203.322,352.800 202.983 C 352.800 202.644,352.440 201.980,352.000 201.508 C 351.560 201.036,351.200 200.413,351.200 200.125 C 351.200 199.836,351.020 199.600,350.800 199.600 C 350.580 199.600,350.400 199.240,350.400 198.800 C 350.400 198.360,350.220 198.000,350.000 198.000 C 349.780 198.000,349.600 197.764,349.600 197.475 C 349.600 197.187,349.240 196.564,348.800 196.092 C 348.360 195.620,348.000 194.956,348.000 194.617 C 348.000 194.278,347.864 194.000,347.698 194.000 C 347.531 194.000,347.140 193.415,346.828 192.700 C 346.516 191.985,345.932 191.109,345.530 190.753 C 345.129 190.397,344.800 189.812,344.800 189.453 C 344.800 189.094,344.620 188.800,344.400 188.800 C 344.180 188.800,344.000 188.440,344.000 188.000 C 344.000 187.560,343.820 187.200,343.600 187.200 C 343.380 187.200,343.200 186.880,343.200 186.488 C 343.200 186.097,342.840 185.517,342.400 185.200 C 341.960 184.883,341.600 184.338,341.600 183.988 C 341.600 183.639,341.015 182.370,340.300 181.168 C 339.585 179.966,338.730 178.447,338.400 177.792 C 338.070 177.136,337.485 176.251,337.100 175.825 C 336.715 175.398,336.400 174.813,336.400 174.525 C 336.400 174.236,336.220 174.000,336.000 174.000 C 335.780 174.000,335.600 173.640,335.600 173.200 C 335.600 172.760,335.420 172.400,335.200 172.400 C 334.980 172.400,334.800 172.164,334.800 171.875 C 334.800 171.587,334.440 170.964,334.000 170.492 C 333.560 170.020,333.200 169.356,333.200 169.017 C 333.200 168.678,333.020 168.400,332.800 168.400 C 332.580 168.400,332.400 168.040,332.400 167.600 C 332.400 167.160,332.220 166.800,332.000 166.800 C 331.780 166.800,331.600 166.564,331.600 166.275 C 331.600 165.987,331.240 165.364,330.800 164.892 C 330.360 164.420,330.000 163.756,330.000 163.417 C 330.000 163.078,329.820 162.800,329.600 162.800 C 329.380 162.800,329.200 162.607,329.200 162.372 C 329.200 162.137,328.660 161.159,328.000 160.200 C 327.340 159.241,326.800 158.263,326.800 158.028 C 326.800 157.793,326.620 157.600,326.400 157.600 C 326.180 157.600,326.000 157.255,326.000 156.833 C 326.000 156.412,325.857 156.007,325.682 155.933 C 325.508 155.860,324.661 154.405,323.801 152.700 C 322.941 150.995,322.094 149.600,321.919 149.600 C 321.743 149.600,321.600 149.240,321.600 148.800 C 321.600 148.360,321.441 148.000,321.247 148.000 C 321.052 148.000,320.793 147.685,320.671 147.300 C 320.454 146.613,319.195 144.394,318.799 144.000 C 318.689 143.890,318.329 143.260,317.999 142.600 C 317.670 141.940,317.085 141.051,316.700 140.625 C 316.315 140.198,316.000 139.613,316.000 139.325 C 316.000 139.036,315.820 138.800,315.600 138.800 C 315.380 138.800,315.200 138.440,315.200 138.000 C 315.200 137.560,315.020 137.200,314.800 137.200 C 314.580 137.200,314.400 136.880,314.400 136.488 C 314.400 136.097,314.040 135.517,313.600 135.200 C 313.160 134.883,312.800 134.303,312.800 133.912 C 312.800 133.520,312.620 133.200,312.400 133.200 C 312.180 133.200,312.000 132.840,312.000 132.400 C 312.000 131.960,311.820 131.600,311.600 131.600 C 311.380 131.600,311.200 131.364,311.200 131.075 C 311.200 130.787,310.840 130.164,310.400 129.692 C 309.960 129.220,309.600 128.556,309.600 128.217 C 309.600 127.878,309.465 127.598,309.300 127.596 C 309.135 127.594,308.645 126.784,308.210 125.796 C 307.776 124.808,307.281 124.000,307.110 124.000 C 306.940 124.000,306.800 123.640,306.800 123.200 C 306.800 122.760,306.620 122.400,306.400 122.400 C 306.180 122.400,306.000 122.164,306.000 121.875 C 306.000 121.587,305.640 120.964,305.200 120.492 C 304.760 120.020,304.400 119.356,304.400 119.017 C 304.400 118.678,304.220 118.400,304.000 118.400 C 303.780 118.400,303.600 118.040,303.600 117.600 C 303.600 117.160,303.420 116.800,303.200 116.800 C 302.980 116.800,302.800 116.564,302.800 116.275 C 302.800 115.987,302.440 115.364,302.000 114.892 C 301.560 114.420,301.200 113.756,301.200 113.417 C 301.200 113.078,301.064 112.800,300.898 112.800 C 300.731 112.800,300.336 112.215,300.020 111.500 C 299.703 110.785,299.120 109.851,298.722 109.425 C 298.325 108.998,298.000 108.413,298.000 108.125 C 298.000 107.836,297.820 107.600,297.600 107.600 C 297.380 107.600,297.200 107.240,297.200 106.800 C 297.200 106.360,297.020 106.000,296.800 106.000 C 296.580 106.000,296.400 105.764,296.400 105.475 C 296.400 105.187,296.040 104.564,295.600 104.092 C 295.160 103.620,294.800 102.956,294.800 102.617 C 294.800 102.278,294.620 102.000,294.400 102.000 C 294.180 102.000,294.000 101.722,294.000 101.383 C 294.000 101.044,293.640 100.380,293.200 99.908 C 292.760 99.436,292.400 98.813,292.400 98.525 C 292.400 98.236,292.220 98.000,292.000 98.000 C 291.780 98.000,291.600 97.726,291.600 97.392 C 291.600 97.058,291.181 96.113,290.669 95.292 C 290.157 94.471,289.483 93.215,289.171 92.500 C 288.860 91.785,288.490 91.200,288.351 91.200 C 288.211 91.200,287.873 90.660,287.600 90.000 C 287.327 89.340,286.945 88.800,286.751 88.800 C 286.558 88.800,286.400 88.440,286.400 88.000 C 286.400 87.560,286.220 87.200,286.000 87.200 C 285.780 87.200,285.600 86.922,285.600 86.583 C 285.600 86.244,285.240 85.580,284.800 85.108 C 284.360 84.636,284.000 84.013,284.000 83.725 C 284.000 83.436,283.820 83.200,283.600 83.200 C 283.380 83.200,283.200 82.840,283.200 82.400 C 283.200 81.960,283.020 81.600,282.800 81.600 C 282.580 81.600,282.400 81.364,282.400 81.075 C 282.400 80.787,282.040 80.164,281.600 79.692 C 281.160 79.220,280.800 78.556,280.800 78.217 C 280.800 77.878,280.664 77.600,280.498 77.600 C 280.331 77.600,279.940 77.015,279.628 76.300 C 279.316 75.585,278.732 74.709,278.330 74.353 C 277.929 73.997,277.600 73.412,277.600 73.053 C 277.600 72.694,277.420 72.400,277.200 72.400 C 276.980 72.400,276.800 72.055,276.800 71.633 C 276.800 71.212,276.661 70.807,276.492 70.733 C 276.322 70.660,275.471 69.205,274.600 67.500 C 273.729 65.795,272.878 64.400,272.708 64.400 C 272.539 64.400,272.400 64.040,272.400 63.600 C 272.400 63.160,272.220 62.800,272.000 62.800 C 271.780 62.800,271.600 62.607,271.600 62.372 C 271.600 62.137,271.060 61.159,270.400 60.200 C 269.740 59.241,269.200 58.263,269.200 58.028 C 269.200 57.793,269.020 57.600,268.800 57.600 C 268.580 57.600,268.400 57.240,268.400 56.800 C 268.400 56.360,268.220 56.000,268.000 56.000 C 267.780 56.000,267.600 55.764,267.600 55.475 C 267.600 55.187,267.240 54.564,266.800 54.092 C 266.360 53.620,266.000 52.956,266.000 52.617 C 266.000 52.278,265.850 52.000,265.668 52.000 C 265.485 52.000,265.081 51.505,264.770 50.900 C 264.460 50.295,263.889 49.509,263.503 49.153 C 263.116 48.797,262.800 48.252,262.800 47.941 C 262.800 47.631,262.440 47.117,262.000 46.800 C 261.560 46.483,261.200 46.070,261.200 45.883 C 261.200 45.696,260.975 45.294,260.700 44.989 C 260.425 44.684,259.390 43.506,258.400 42.372 C 255.106 38.596,247.826 31.600,247.191 31.600 C 246.972 31.600,246.228 31.060,245.537 30.400 C 244.846 29.740,244.121 29.200,243.924 29.200 C 243.727 29.200,243.190 28.849,242.729 28.420 C 242.269 27.991,241.331 27.353,240.646 27.002 C 239.961 26.651,238.860 26.026,238.200 25.611 C 237.540 25.197,236.685 24.845,236.300 24.829 C 235.915 24.813,235.600 24.620,235.600 24.400 C 235.600 24.180,235.240 24.000,234.800 24.000 C 234.360 24.000,234.000 23.820,234.000 23.600 C 234.000 23.380,233.640 23.200,233.200 23.200 C 232.760 23.200,232.400 23.020,232.400 22.800 C 232.400 22.580,232.040 22.400,231.600 22.400 C 231.160 22.400,230.800 22.220,230.800 22.000 C 230.800 21.780,230.260 21.600,229.600 21.600 C 228.940 21.600,228.400 21.420,228.400 21.200 C 228.400 20.980,227.860 20.800,227.200 20.800 C 226.540 20.800,226.000 20.620,226.000 20.400 C 226.000 20.180,225.550 20.000,225.000 20.000 C 224.450 20.000,224.000 19.820,224.000 19.600 C 224.000 19.380,223.460 19.200,222.800 19.200 C 222.140 19.200,221.600 19.020,221.600 18.800 C 221.600 18.580,220.880 18.400,220.000 18.400 C 219.120 18.400,218.400 18.220,218.400 18.000 C 218.400 17.780,217.500 17.600,216.400 17.600 C 215.300 17.600,214.400 17.420,214.400 17.200 C 214.400 16.971,213.200 16.800,211.600 16.800 C 210.000 16.800,208.800 16.629,208.800 16.400 C 208.800 16.145,205.600 16.000,200.000 16.000 C 194.400 16.000,191.200 16.145,191.200 16.400 M196.800 91.649 C 192.557 92.000,189.439 92.944,185.876 94.956 C 180.617 97.925,176.276 102.414,173.781 107.466 C 170.286 114.539,170.416 112.274,170.416 166.000 C 170.416 204.567,170.516 213.538,170.975 216.000 C 177.059 248.625,222.630 248.782,229.048 216.200 C 229.862 212.065,229.862 119.935,229.048 115.800 C 226.929 105.043,219.374 96.032,210.000 93.082 C 204.885 91.472,202.308 91.192,196.800 91.649 M205.917 107.871 C 209.672 109.588,212.563 112.977,213.827 117.141 C 214.668 119.912,214.668 212.088,213.827 214.859 C 209.846 227.977,191.805 229.073,186.730 216.505 L 185.800 214.200 185.800 166.000 L 185.800 117.800 186.730 115.495 C 189.723 108.085,198.638 104.541,205.917 107.871 M118.800 159.448 C 114.317 161.121,112.336 164.357,113.265 168.491 C 115.232 177.246,128.058 175.806,127.981 166.839 C 127.939 162.001,122.877 157.926,118.800 159.448 M99.964 189.389 C 98.325 190.464,96.245 193.607,91.885 201.600 C 91.225 202.810,90.550 203.980,90.385 204.200 C 90.220 204.420,89.706 205.275,89.243 206.100 C 88.779 206.925,88.040 208.230,87.600 209.000 C 87.160 209.770,86.437 211.041,85.993 211.824 C 84.962 213.644,82.912 217.220,79.012 224.000 C 77.303 226.970,75.361 230.390,74.695 231.600 C 74.029 232.810,73.350 233.980,73.185 234.200 C 73.020 234.420,72.506 235.275,72.043 236.100 C 71.579 236.925,70.840 238.230,70.400 239.000 C 69.960 239.770,69.240 241.030,68.800 241.800 C 68.360 242.570,67.667 243.785,67.259 244.500 C 66.441 245.937,57.540 261.439,56.350 263.500 C 51.464 271.966,51.045 273.232,52.164 276.162 C 53.453 279.537,55.784 281.196,59.239 281.199 C 63.414 281.201,64.306 280.399,68.804 272.600 C 71.014 268.768,75.837 260.337,76.699 258.800 C 77.254 257.810,78.339 255.920,79.109 254.600 C 80.442 252.315,80.873 251.568,82.859 248.100 C 83.331 247.275,84.257 245.610,84.917 244.400 C 85.576 243.190,86.252 242.020,86.418 241.800 C 86.751 241.360,93.776 229.106,95.705 225.600 C 96.371 224.390,97.050 223.220,97.215 223.000 C 97.380 222.780,97.894 221.925,98.357 221.100 C 98.821 220.275,99.560 218.970,100.000 218.200 C 100.440 217.430,101.133 216.215,101.539 215.500 C 101.946 214.785,104.078 211.050,106.277 207.200 C 111.416 198.202,111.600 197.806,111.600 195.751 C 111.600 190.025,104.725 186.266,99.964 189.389 M197.400 266.263 C 171.392 268.357,161.102 301.592,181.292 318.290 C 204.110 337.161,237.469 313.862,227.808 285.800 C 223.870 274.364,209.701 264.526,199.400 266.074 C 199.180 266.107,198.280 266.192,197.400 266.263 M203.172 281.656 C 214.583 285.300,218.078 297.475,210.044 305.594 C 200.070 315.673,182.694 306.020,186.182 292.337 C 188.113 284.762,196.461 279.513,203.172 281.656 M196.659 368.801 C 194.675 369.792,193.422 371.270,192.811 373.344 C 192.542 374.255,192.161 375.311,191.963 375.691 C 190.943 377.656,192.919 381.582,195.720 383.155 C 199.570 385.317,207.596 382.983,207.600 379.700 C 207.600 379.425,207.780 379.200,208.000 379.200 C 208.493 379.200,208.529 376.644,208.049 375.695 C 207.856 375.313,207.472 374.280,207.195 373.400 C 205.761 368.842,200.861 366.703,196.659 368.801 " stroke="none" fill="#050404" fill-rule="evenodd"></path><path id="path1" d="M191.138 33.396 C 190.927 33.606,189.016 34.023,185.400 34.647 C 184.740 34.761,183.840 34.994,183.400 35.165 C 182.960 35.336,181.070 35.986,179.200 36.610 C 174.607 38.141,165.912 42.708,164.400 44.383 C 164.290 44.505,163.480 45.139,162.600 45.792 C 159.001 48.464,149.600 58.886,149.600 60.204 C 149.600 60.343,149.060 61.241,148.400 62.200 C 147.740 63.159,147.200 64.137,147.200 64.372 C 147.200 64.607,147.041 64.800,146.847 64.800 C 146.652 64.800,146.393 65.115,146.271 65.500 C 146.034 66.247,144.754 68.467,144.368 68.800 C 144.240 68.910,143.881 69.585,143.570 70.300 C 143.259 71.015,142.869 71.600,142.702 71.600 C 142.536 71.600,142.400 71.870,142.400 72.200 C 142.400 72.530,142.220 72.800,142.000 72.800 C 141.780 72.800,141.600 73.160,141.600 73.600 C 141.600 74.040,141.420 74.400,141.200 74.400 C 140.980 74.400,140.800 74.572,140.800 74.782 C 140.800 74.993,140.234 76.118,139.543 77.282 C 138.852 78.447,137.892 80.120,137.411 81.000 C 136.929 81.880,136.144 83.275,135.667 84.100 C 134.319 86.432,132.644 89.371,131.138 92.045 C 130.842 92.570,130.510 93.090,130.399 93.200 C 130.289 93.310,129.929 93.940,129.600 94.600 C 129.271 95.260,128.911 95.890,128.801 96.000 C 128.613 96.187,128.079 97.095,127.038 99.000 C 126.797 99.440,126.510 99.890,126.400 100.000 C 126.290 100.110,125.826 100.920,125.370 101.800 C 124.287 103.887,123.450 105.351,123.197 105.600 C 123.085 105.710,122.472 106.790,121.834 108.000 C 121.196 109.210,120.370 110.650,119.998 111.200 C 119.626 111.750,118.785 113.190,118.128 114.400 C 116.456 117.482,115.831 118.569,115.600 118.800 C 115.490 118.910,115.026 119.720,114.570 120.600 C 113.496 122.669,112.652 124.148,112.400 124.400 C 112.213 124.587,111.678 125.498,110.638 127.400 C 110.397 127.840,110.110 128.290,109.999 128.400 C 109.889 128.510,109.535 129.140,109.212 129.800 C 108.889 130.460,108.124 131.752,107.512 132.672 C 106.901 133.592,106.400 134.433,106.400 134.541 C 106.400 134.649,105.481 136.326,104.359 138.268 C 103.236 140.211,101.911 142.520,101.415 143.400 C 100.919 144.280,100.145 145.650,99.694 146.445 C 99.244 147.240,98.633 148.320,98.338 148.845 C 98.042 149.370,97.710 149.890,97.600 150.000 C 97.204 150.396,95.946 152.615,95.729 153.300 C 95.607 153.685,95.348 154.000,95.153 154.000 C 94.959 154.000,94.800 154.345,94.800 154.767 C 94.800 155.188,94.665 155.593,94.500 155.667 C 94.124 155.834,92.825 157.964,92.529 158.900 C 92.407 159.285,92.148 159.600,91.953 159.600 C 91.759 159.600,91.600 159.765,91.600 159.966 C 91.600 160.294,85.403 171.332,82.935 175.400 C 82.402 176.280,81.862 177.315,81.736 177.700 C 81.610 178.085,81.381 178.400,81.228 178.400 C 81.075 178.400,80.702 179.030,80.400 179.800 C 80.098 180.570,79.725 181.200,79.572 181.200 C 79.419 181.200,79.190 181.515,79.064 181.900 C 78.938 182.285,78.279 183.500,77.600 184.600 C 76.921 185.700,76.262 186.915,76.136 187.300 C 76.010 187.685,75.781 188.000,75.628 188.000 C 75.475 188.000,75.102 188.630,74.800 189.400 C 74.498 190.170,74.104 190.800,73.925 190.800 C 73.746 190.800,73.600 190.966,73.600 191.168 C 73.600 191.371,72.681 193.126,71.559 195.068 C 70.436 197.011,69.111 199.320,68.615 200.200 C 67.065 202.949,66.154 204.528,64.856 206.718 C 64.165 207.882,63.600 209.007,63.600 209.218 C 63.600 209.428,63.441 209.600,63.247 209.600 C 63.052 209.600,62.793 209.915,62.671 210.300 C 62.454 210.985,61.196 213.204,60.800 213.600 C 60.690 213.710,60.223 214.520,59.762 215.400 C 58.984 216.884,58.421 217.887,56.449 221.300 C 56.036 222.015,55.024 223.770,54.200 225.200 C 53.376 226.630,52.364 228.385,51.951 229.100 C 51.538 229.815,50.840 231.030,50.400 231.800 C 48.420 235.265,48.038 235.924,46.856 237.918 C 46.165 239.082,45.600 240.207,45.600 240.418 C 45.600 240.628,45.441 240.800,45.247 240.800 C 45.052 240.800,44.793 241.115,44.671 241.500 C 44.454 242.185,43.196 244.404,42.800 244.800 C 42.690 244.910,42.218 245.720,41.751 246.600 C 41.052 247.918,37.969 253.339,33.992 260.245 C 33.598 260.930,33.033 261.920,32.738 262.445 C 32.442 262.970,32.110 263.490,31.999 263.600 C 31.889 263.710,31.535 264.340,31.214 265.000 C 30.892 265.660,30.328 266.650,29.961 267.200 C 29.594 267.750,28.913 268.875,28.447 269.700 C 27.981 270.525,27.257 271.805,26.838 272.545 C 26.418 273.285,25.833 274.320,25.538 274.845 C 25.242 275.370,24.902 275.890,24.782 276.000 C 24.414 276.338,20.951 283.670,20.059 286.000 C 13.783 302.385,15.833 324.479,24.872 337.872 C 25.492 338.792,26.000 339.737,26.000 339.972 C 26.000 340.207,26.150 340.400,26.332 340.400 C 26.515 340.400,26.919 340.895,27.230 341.500 C 27.540 342.105,28.068 342.870,28.402 343.200 C 28.736 343.530,29.545 344.520,30.199 345.400 C 31.687 347.400,35.525 351.234,38.407 353.600 C 39.613 354.590,40.949 355.715,41.375 356.100 C 41.802 356.485,42.387 356.800,42.675 356.800 C 42.964 356.800,43.200 356.950,43.200 357.132 C 43.200 357.315,43.695 357.720,44.300 358.032 C 44.905 358.344,45.490 358.697,45.600 358.817 C 45.710 358.937,47.510 359.876,49.600 360.903 C 54.649 363.386,57.735 364.382,66.800 366.457 C 68.474 366.840,80.723 367.013,118.000 367.180 C 162.659 367.381,167.106 367.459,168.200 368.064 C 170.649 369.420,172.800 372.686,172.800 375.049 L 172.800 376.000 182.400 376.000 L 192.000 376.000 192.000 374.200 C 192.000 373.210,192.180 372.400,192.400 372.400 C 192.620 372.400,192.800 372.102,192.800 371.738 C 192.800 369.972,197.195 367.204,200.000 367.204 C 204.000 367.204,207.781 370.568,208.088 374.400 L 208.200 375.800 216.100 375.908 L 224.000 376.017 224.000 374.832 C 224.000 374.180,224.180 373.536,224.400 373.400 C 224.620 373.264,224.800 372.803,224.800 372.376 C 224.800 371.949,224.937 371.600,225.105 371.600 C 225.273 371.600,225.588 371.199,225.805 370.709 C 226.022 370.219,227.010 369.274,228.000 368.609 L 229.800 367.400 280.600 367.186 C 319.152 367.024,331.882 366.852,333.400 366.475 C 334.500 366.201,336.300 365.782,337.400 365.544 C 342.513 364.436,353.853 359.865,354.333 358.718 C 354.407 358.543,354.644 358.400,354.861 358.400 C 355.231 358.400,358.762 356.134,359.200 355.616 C 359.310 355.486,360.210 354.759,361.200 354.001 C 363.479 352.257,367.682 348.056,370.006 345.200 C 370.991 343.990,372.010 342.774,372.272 342.498 C 372.534 342.221,372.862 341.636,373.001 341.198 C 373.140 340.759,373.422 340.400,373.627 340.400 C 373.832 340.400,374.000 340.164,374.000 339.875 C 374.000 339.587,374.320 339.002,374.710 338.575 C 376.341 336.796,380.025 328.523,381.379 323.600 C 384.575 311.981,384.573 302.114,381.372 290.400 C 380.108 285.772,376.042 276.447,375.122 276.067 C 374.945 275.993,374.800 275.765,374.800 275.559 C 374.800 275.354,374.080 274.000,373.200 272.552 C 372.320 271.103,371.600 269.829,371.600 269.721 C 371.600 269.612,371.267 269.046,370.861 268.462 C 370.455 267.878,369.582 266.410,368.922 265.200 C 368.261 263.990,366.884 261.590,365.861 259.867 C 364.837 258.144,364.000 256.656,364.000 256.560 C 364.000 256.464,363.306 255.243,362.457 253.845 C 361.608 252.448,360.664 250.742,360.359 250.053 C 360.054 249.364,359.669 248.800,359.502 248.800 C 359.336 248.800,359.200 248.530,359.200 248.200 C 359.200 247.870,359.054 247.600,358.875 247.600 C 358.696 247.600,358.302 246.970,358.000 246.200 C 357.698 245.430,357.325 244.800,357.172 244.800 C 357.019 244.800,356.790 244.485,356.664 244.100 C 356.538 243.715,355.952 242.590,355.361 241.600 C 353.896 239.144,353.360 238.221,349.793 232.000 C 348.089 229.030,346.332 225.970,345.886 225.200 C 345.441 224.430,344.700 223.080,344.238 222.200 C 343.777 221.320,343.310 220.510,343.200 220.400 C 343.013 220.213,342.478 219.302,341.438 217.400 C 341.197 216.960,340.910 216.510,340.799 216.400 C 340.689 216.290,340.329 215.660,340.000 215.000 C 339.671 214.340,339.311 213.710,339.201 213.600 C 339.090 213.490,338.758 212.970,338.462 212.445 C 337.084 209.997,336.421 208.847,335.256 206.882 C 334.565 205.718,334.000 204.593,334.000 204.382 C 334.000 204.172,333.820 204.000,333.600 204.000 C 333.380 204.000,333.200 203.835,333.200 203.633 C 333.200 203.432,332.210 201.519,331.000 199.382 C 329.790 197.246,328.800 195.341,328.800 195.149 C 328.800 194.957,328.641 194.800,328.447 194.800 C 328.252 194.800,327.993 194.485,327.871 194.100 C 327.654 193.413,326.395 191.194,325.999 190.800 C 325.889 190.690,325.535 190.060,325.214 189.400 C 324.892 188.740,324.328 187.750,323.961 187.200 C 323.594 186.650,322.913 185.525,322.447 184.700 C 320.774 181.737,320.353 181.005,315.716 173.000 C 314.186 170.360,312.480 167.390,311.924 166.400 C 311.368 165.410,310.545 163.950,310.094 163.155 C 309.644 162.360,309.033 161.280,308.738 160.755 C 308.442 160.230,308.110 159.710,308.000 159.600 C 307.826 159.426,307.279 158.447,305.429 155.000 C 305.193 154.560,304.910 154.110,304.800 154.000 C 304.690 153.890,304.375 153.395,304.100 152.900 C 303.825 152.405,303.375 151.595,303.100 151.100 C 302.825 150.605,302.510 150.110,302.399 150.000 C 302.289 149.890,301.929 149.262,301.599 148.605 C 301.270 147.948,300.352 146.328,299.559 145.005 C 298.767 143.682,297.434 141.340,296.598 139.800 C 295.761 138.260,294.783 136.550,294.424 136.000 C 294.065 135.450,293.508 134.460,293.186 133.800 C 292.865 133.140,292.511 132.510,292.401 132.400 C 292.213 132.213,291.679 131.305,290.638 129.400 C 290.397 128.960,290.110 128.510,290.000 128.400 C 289.748 128.148,288.904 126.669,287.830 124.600 C 287.374 123.720,286.910 122.910,286.800 122.800 C 286.690 122.690,286.358 122.170,286.062 121.645 C 285.767 121.120,285.202 120.130,284.808 119.445 C 284.413 118.760,283.058 116.400,281.795 114.200 C 280.532 112.000,279.134 109.570,278.688 108.800 C 278.242 108.030,277.500 106.680,277.038 105.800 C 276.577 104.920,276.110 104.110,276.000 104.000 C 275.890 103.890,275.575 103.395,275.300 102.900 C 275.025 102.405,274.575 101.595,274.300 101.100 C 274.025 100.605,273.710 100.110,273.599 100.000 C 273.489 99.890,273.129 99.260,272.800 98.600 C 272.471 97.940,272.111 97.310,272.001 97.200 C 271.890 97.090,271.558 96.570,271.262 96.045 C 269.884 93.597,269.221 92.447,268.056 90.482 C 267.365 89.318,266.800 88.306,266.800 88.234 C 266.800 88.161,265.853 86.504,264.696 84.551 C 263.539 82.598,262.324 80.460,261.997 79.800 C 261.669 79.140,261.311 78.510,261.201 78.400 C 260.805 78.006,259.546 75.787,259.329 75.100 C 259.207 74.715,258.948 74.400,258.753 74.400 C 258.559 74.400,258.400 74.040,258.400 73.600 C 258.400 73.160,258.241 72.800,258.047 72.800 C 257.852 72.800,257.593 72.485,257.471 72.100 C 257.254 71.415,255.996 69.196,255.600 68.800 C 255.490 68.690,255.158 68.170,254.862 67.645 C 254.567 67.120,253.953 66.040,253.500 65.245 C 253.046 64.450,252.475 63.440,252.230 63.000 C 249.233 57.602,241.275 48.388,237.200 45.597 C 236.430 45.070,235.710 44.526,235.600 44.389 C 234.292 42.759,225.581 38.183,220.320 36.362 C 216.725 35.118,215.697 34.837,211.400 33.925 C 209.244 33.468,191.528 33.005,191.138 33.396 M205.000 91.018 C 206.100 91.161,207.171 91.440,207.380 91.639 C 207.589 91.837,208.253 92.000,208.856 92.000 C 209.459 92.000,210.064 92.180,210.200 92.400 C 210.336 92.620,210.797 92.800,211.224 92.800 C 211.651 92.800,212.000 92.980,212.000 93.200 C 212.000 93.420,212.337 93.600,212.749 93.600 C 214.645 93.600,221.522 99.180,224.400 103.053 C 225.934 105.118,228.400 109.904,228.400 110.817 C 228.400 111.222,228.560 111.652,228.756 111.773 C 230.232 112.685,230.234 220.400,228.758 220.400 C 228.561 220.400,228.400 220.742,228.400 221.159 C 228.400 222.101,225.914 226.931,224.400 228.933 C 211.837 245.534,187.974 245.539,175.600 228.944 C 174.073 226.897,171.600 222.098,171.600 221.183 C 171.600 220.778,171.440 220.348,171.244 220.227 C 170.370 219.687,170.270 214.104,170.270 166.000 C 170.270 117.896,170.370 112.313,171.244 111.773 C 171.440 111.652,171.600 111.222,171.600 110.817 C 171.600 109.915,174.007 105.231,175.600 103.032 C 176.776 101.409,182.273 96.190,183.426 95.601 C 184.072 95.271,184.690 94.911,184.800 94.801 C 185.276 94.323,186.839 93.600,187.395 93.600 C 187.728 93.600,188.000 93.420,188.000 93.200 C 188.000 92.980,188.349 92.800,188.776 92.800 C 189.203 92.800,189.664 92.620,189.800 92.400 C 189.936 92.180,190.566 92.000,191.200 92.000 C 191.834 92.000,192.464 91.820,192.600 91.600 C 192.736 91.380,193.602 91.197,194.524 91.194 C 195.446 91.191,196.470 91.006,196.800 90.784 C 197.386 90.389,200.936 90.491,205.000 91.018 M122.600 158.800 C 122.736 159.020,123.109 159.200,123.429 159.200 C 124.441 159.200,126.785 160.956,127.300 162.100 C 127.572 162.705,127.931 163.200,128.098 163.200 C 128.264 163.200,128.400 163.572,128.400 164.026 C 128.400 164.481,128.600 165.227,128.845 165.684 C 129.176 166.302,129.164 166.937,128.799 168.158 C 127.831 171.400,126.659 173.015,124.600 173.949 C 123.940 174.248,123.087 174.652,122.705 174.847 C 118.588 176.941,112.400 172.092,112.400 166.770 C 112.400 163.657,115.460 159.200,117.597 159.200 C 118.013 159.200,118.464 159.020,118.600 158.800 C 118.736 158.580,119.636 158.400,120.600 158.400 C 121.564 158.400,122.464 158.580,122.600 158.800 M105.877 187.700 C 111.704 189.242,114.177 197.823,110.000 202.000 C 109.890 202.110,109.417 202.920,108.949 203.800 C 108.077 205.440,106.046 209.044,103.460 213.538 C 102.657 214.935,102.000 216.162,102.000 216.266 C 102.000 216.371,101.460 217.241,100.800 218.200 C 100.140 219.159,99.600 220.039,99.600 220.154 C 99.600 220.270,99.035 221.318,98.344 222.482 C 97.179 224.447,96.516 225.597,95.138 228.045 C 94.842 228.570,94.510 229.090,94.399 229.200 C 94.289 229.310,93.929 229.940,93.600 230.600 C 93.271 231.260,92.911 231.890,92.801 232.000 C 92.690 232.110,92.222 232.920,91.761 233.800 C 90.725 235.776,89.446 238.046,85.933 244.143 C 84.430 246.751,83.200 248.973,83.200 249.081 C 83.200 249.189,82.861 249.754,82.447 250.338 C 81.332 251.912,79.598 254.900,79.336 255.700 C 79.210 256.085,78.948 256.400,78.753 256.400 C 78.559 256.400,78.400 256.760,78.400 257.200 C 78.400 257.640,78.241 258.000,78.047 258.000 C 77.852 258.000,77.593 258.315,77.471 258.700 C 77.254 259.385,75.996 261.604,75.600 262.000 C 75.490 262.110,75.023 262.920,74.562 263.800 C 74.100 264.680,73.310 266.120,72.805 267.000 C 72.300 267.880,71.434 269.410,70.881 270.400 C 70.327 271.390,69.183 273.343,68.337 274.741 C 67.492 276.138,66.800 277.408,66.800 277.563 C 66.800 279.972,60.600 282.713,57.313 281.757 C 52.107 280.244,49.486 274.232,52.062 269.712 C 52.535 268.880,53.300 267.480,53.762 266.600 C 54.223 265.720,54.690 264.910,54.800 264.800 C 54.910 264.690,55.197 264.240,55.438 263.800 C 56.478 261.898,57.013 260.987,57.200 260.800 C 57.310 260.690,57.774 259.880,58.230 259.000 C 59.306 256.927,60.149 255.451,60.401 255.200 C 60.511 255.090,60.871 254.463,61.201 253.807 C 61.703 252.807,63.652 249.391,69.249 239.700 C 71.233 236.265,71.785 235.283,72.562 233.800 C 73.023 232.920,73.490 232.110,73.600 232.000 C 73.710 231.890,74.025 231.395,74.300 230.900 C 74.575 230.405,75.025 229.595,75.300 229.100 C 75.575 228.605,75.890 228.110,76.000 228.000 C 76.110 227.890,76.587 227.080,77.060 226.200 C 78.042 224.373,78.620 223.344,81.750 217.849 C 82.987 215.676,84.000 213.849,84.000 213.790 C 84.000 213.730,84.737 212.469,85.637 210.988 C 86.537 209.506,87.617 207.687,88.037 206.947 C 88.457 206.206,89.160 204.970,89.600 204.200 C 90.482 202.656,91.635 200.625,92.462 199.155 C 92.758 198.630,93.090 198.110,93.201 198.000 C 93.311 197.890,93.671 197.260,94.000 196.600 C 94.329 195.940,94.693 195.310,94.809 195.200 C 94.925 195.090,95.450 194.172,95.977 193.161 C 97.616 190.012,99.112 188.659,101.972 187.742 C 103.879 187.130,103.731 187.132,105.877 187.700 M204.600 265.769 C 208.525 266.466,208.876 266.576,212.998 268.408 C 216.657 270.034,224.800 276.905,224.800 278.366 C 224.800 278.573,225.025 278.981,225.300 279.271 C 226.096 280.113,228.400 284.841,228.400 285.633 C 228.400 286.029,228.560 286.452,228.756 286.573 C 230.090 287.397,230.090 303.803,228.756 304.627 C 228.560 304.748,228.400 305.178,228.400 305.583 C 228.400 306.357,225.560 312.046,224.798 312.800 C 224.686 312.910,224.094 313.673,223.481 314.496 C 220.576 318.392,216.104 321.595,210.200 324.006 C 205.544 325.908,197.264 326.177,191.600 324.610 C 185.892 323.031,179.400 318.461,175.600 313.347 C 174.066 311.282,171.600 306.496,171.600 305.583 C 171.600 305.178,171.440 304.748,171.244 304.627 C 169.910 303.803,169.910 287.397,171.244 286.573 C 171.440 286.452,171.600 286.029,171.600 285.633 C 171.600 284.978,173.889 280.076,174.417 279.600 C 174.539 279.490,175.073 278.770,175.604 278.000 C 178.795 273.371,183.393 269.868,189.800 267.185 C 194.001 265.426,199.633 264.887,204.600 265.769 " stroke="none" fill="#fb5c5c" fill-rule="evenodd"></path><path id="path2" d="M195.397 107.748 C 191.661 109.153,188.127 112.725,186.963 116.273 C 185.767 119.920,185.775 212.104,186.972 215.755 C 191.201 228.655,209.943 227.526,213.555 214.154 C 214.183 211.828,214.183 120.172,213.555 117.846 C 212.471 113.833,209.398 109.836,206.400 108.539 C 205.630 108.205,204.687 107.768,204.305 107.566 C 203.349 107.062,196.871 107.194,195.397 107.748 M197.520 282.007 C 191.277 283.073,186.209 289.164,186.209 295.600 C 186.209 307.804,201.245 313.914,209.854 305.208 C 219.270 295.686,210.793 279.739,197.520 282.007 " stroke="none" fill="#fbfbfb" fill-rule="evenodd"></path><path id="path3" d="M194.000 32.439 C 192.790 32.628,190.540 32.973,189.000 33.206 C 184.927 33.821,176.905 36.238,177.374 36.708 C 177.480 36.814,178.270 36.619,179.128 36.275 C 188.353 32.584,200.899 31.839,214.400 34.179 C 215.398 34.352,215.571 34.319,215.000 34.063 C 214.232 33.719,211.916 33.307,205.723 32.415 C 202.389 31.934,197.161 31.945,194.000 32.439 M216.033 34.560 C 216.424 34.936,222.523 36.810,222.719 36.615 C 222.837 36.497,222.840 36.400,222.725 36.400 C 222.611 36.400,221.277 35.950,219.760 35.400 C 217.298 34.507,215.573 34.118,216.033 34.560 M172.684 38.604 C 162.150 43.965,152.653 53.054,146.811 63.369 C 144.756 66.997,144.212 67.939,137.795 79.000 C 134.987 83.840,132.148 88.790,131.487 90.000 C 130.826 91.210,130.150 92.380,129.985 92.600 C 129.820 92.820,129.306 93.675,128.843 94.500 C 128.379 95.325,127.662 96.585,127.249 97.300 C 126.835 98.015,123.842 103.190,120.596 108.800 C 114.551 119.250,113.786 120.575,112.400 123.000 C 111.292 124.939,110.784 125.819,105.036 135.752 C 102.250 140.566,100.050 144.583,100.146 144.680 C 100.243 144.776,101.171 143.358,102.208 141.527 C 103.246 139.697,104.434 137.615,104.847 136.900 C 105.261 136.185,105.935 135.015,106.344 134.300 C 106.753 133.585,107.679 132.010,108.400 130.800 C 109.121 129.590,110.047 128.015,110.456 127.300 C 111.800 124.952,112.789 123.220,113.539 121.900 C 113.945 121.185,115.320 118.800,116.595 116.600 C 118.784 112.822,119.251 112.011,121.200 108.600 C 121.640 107.830,122.360 106.570,122.800 105.800 C 123.240 105.030,123.979 103.725,124.443 102.900 C 124.906 102.075,125.427 101.220,125.600 101.000 C 125.773 100.780,126.294 99.925,126.757 99.100 C 128.233 96.474,128.991 95.149,132.997 88.200 C 135.153 84.460,137.251 80.815,137.659 80.100 C 139.431 76.993,139.959 76.081,141.144 74.082 C 141.835 72.918,142.400 71.870,142.400 71.754 C 142.400 71.639,142.940 70.759,143.600 69.800 C 144.260 68.841,144.800 67.950,144.800 67.821 C 144.800 67.036,150.733 57.862,153.350 54.600 C 156.902 50.174,166.738 41.625,168.300 41.606 C 168.575 41.603,168.800 41.420,168.800 41.200 C 168.800 40.980,168.972 40.800,169.182 40.800 C 169.393 40.800,170.428 40.296,171.482 39.680 C 172.537 39.065,174.030 38.316,174.800 38.016 C 176.288 37.438,177.234 36.795,176.580 36.807 C 176.371 36.811,174.618 37.620,172.684 38.604 M223.400 37.200 C 223.536 37.420,223.862 37.606,224.124 37.613 C 225.018 37.636,230.715 40.695,233.998 42.915 C 242.981 48.989,248.901 56.220,257.517 71.645 C 259.177 74.615,259.405 75.005,259.600 75.200 C 259.710 75.310,260.177 76.120,260.638 77.000 C 261.591 78.817,262.515 80.438,264.400 83.600 C 265.122 84.810,266.120 86.520,266.618 87.400 C 267.115 88.280,269.182 91.880,271.210 95.400 C 275.400 102.673,276.109 103.907,276.862 105.245 C 277.158 105.770,277.494 106.290,277.610 106.400 C 277.725 106.510,278.265 107.456,278.810 108.502 C 279.354 109.548,280.133 110.808,280.541 111.302 C 281.746 112.762,275.338 101.313,272.150 96.309 C 271.628 95.488,271.200 94.740,271.200 94.646 C 271.200 94.551,269.913 92.253,268.339 89.537 C 264.810 83.447,261.359 77.458,260.307 75.600 C 259.871 74.830,259.380 74.020,259.215 73.800 C 259.050 73.580,258.374 72.410,257.712 71.200 C 249.727 56.603,242.791 48.246,233.679 42.243 C 228.766 39.007,222.667 36.015,223.400 37.200 M196.800 91.040 C 194.552 91.289,191.033 92.100,190.620 92.464 C 190.411 92.649,190.004 92.800,189.716 92.800 C 189.172 92.800,185.552 94.386,185.200 94.778 C 185.090 94.901,184.473 95.271,183.830 95.601 C 182.105 96.484,174.800 103.799,174.800 104.643 C 174.800 104.771,174.466 105.354,174.057 105.938 C 170.065 111.646,170.000 112.611,170.000 166.000 C 170.000 221.358,169.876 219.887,175.213 227.800 C 179.505 234.164,184.290 237.556,193.000 240.409 C 194.958 241.051,204.980 241.130,206.646 240.517 C 207.281 240.284,208.610 239.853,209.600 239.560 C 217.422 237.245,225.386 229.452,228.218 221.341 C 230.002 216.234,229.999 216.317,229.999 166.000 C 229.999 114.763,230.022 115.417,228.021 110.200 C 227.386 108.547,225.261 104.458,224.798 104.000 C 224.686 103.890,224.066 103.090,223.418 102.222 C 220.468 98.269,212.911 92.800,210.399 92.800 C 210.174 92.800,209.677 92.637,209.295 92.437 C 207.359 91.427,200.366 90.645,196.800 91.040 M206.600 92.071 C 213.818 94.077,218.459 96.935,222.602 101.926 C 226.041 106.069,227.933 110.141,229.048 115.800 C 229.862 119.935,229.862 212.065,229.048 216.200 C 222.630 248.782,177.059 248.625,170.975 216.000 C 170.516 213.538,170.416 204.567,170.416 166.000 C 170.416 112.274,170.286 114.539,173.781 107.466 C 175.486 104.014,177.986 100.874,181.097 98.277 C 185.971 94.207,190.869 92.140,196.800 91.649 C 200.618 91.332,204.552 91.502,206.600 92.071 M197.400 106.771 C 195.599 107.121,193.600 107.870,193.600 108.195 C 193.600 108.314,194.275 108.118,195.100 107.760 C 197.166 106.864,202.880 106.857,204.900 107.749 C 205.725 108.113,206.400 108.321,206.400 108.211 C 206.400 107.219,200.200 106.227,197.400 106.771 M190.257 110.526 C 188.147 112.603,186.521 115.054,186.961 115.494 C 187.082 115.615,187.308 115.374,187.463 114.957 C 188.067 113.331,189.755 111.186,191.502 109.825 C 192.508 109.041,193.126 108.400,192.875 108.400 C 192.623 108.400,191.446 109.357,190.257 110.526 M207.656 109.166 C 208.175 109.587,208.677 109.855,208.771 109.761 C 208.976 109.557,207.544 108.431,207.056 108.413 C 206.866 108.406,207.136 108.745,207.656 109.166 M209.849 110.803 C 214.281 116.010,213.991 112.143,213.996 166.038 C 214.001 221.080,214.328 217.764,208.454 222.249 C 207.481 222.992,206.858 223.600,207.070 223.600 C 207.731 223.600,210.585 220.954,211.772 219.240 C 214.551 215.230,214.400 218.288,214.400 166.000 C 214.400 111.910,214.614 114.529,209.869 110.537 L 209.000 109.806 209.849 110.803 M281.200 112.497 C 281.200 112.638,282.754 115.419,284.653 118.677 C 286.553 121.935,288.650 125.590,289.314 126.800 C 289.979 128.010,290.825 129.450,291.196 130.000 C 291.567 130.550,291.985 131.270,292.126 131.600 C 292.267 131.930,292.934 133.100,293.609 134.200 C 294.283 135.300,294.938 136.515,295.064 136.900 C 295.190 137.285,295.457 137.600,295.657 137.600 C 296.052 137.600,295.468 136.362,293.535 133.101 C 291.895 130.337,291.651 129.915,286.420 120.800 C 282.238 113.513,281.200 111.861,281.200 112.497 M186.229 117.029 C 186.081 117.615,186.038 118.172,186.132 118.266 C 186.227 118.360,186.424 117.958,186.571 117.371 C 186.719 116.785,186.762 116.228,186.668 116.134 C 186.573 116.040,186.376 116.442,186.229 117.029 M185.793 165.800 C 185.793 191.540,185.841 202.011,185.900 189.069 C 185.959 176.127,185.958 155.067,185.900 142.269 C 185.841 129.471,185.793 140.060,185.793 165.800 M296.000 138.099 C 296.000 138.506,298.813 143.200,299.057 143.200 C 299.178 143.200,298.699 142.165,297.994 140.900 C 296.721 138.615,296.000 137.603,296.000 138.099 M299.221 143.677 C 299.209 143.829,300.753 146.619,302.651 149.877 C 306.198 155.966,307.019 157.384,308.400 159.800 C 310.380 163.265,310.762 163.924,311.944 165.918 C 312.635 167.082,313.200 168.207,313.200 168.418 C 313.200 168.628,313.380 168.800,313.600 168.800 C 313.820 168.800,314.000 168.968,314.000 169.172 C 314.000 169.377,316.273 173.472,319.050 178.272 C 324.130 187.051,325.074 188.689,326.062 190.445 C 326.358 190.970,326.690 191.490,326.801 191.600 C 326.911 191.710,327.265 192.340,327.588 193.000 C 327.911 193.660,328.676 194.952,329.288 195.872 C 329.899 196.792,330.400 197.633,330.400 197.741 C 330.400 197.849,331.325 199.526,332.456 201.468 C 333.587 203.411,335.857 207.340,337.501 210.200 C 339.144 213.060,340.829 215.985,341.245 216.700 C 341.966 217.941,342.893 219.569,344.062 221.645 C 344.358 222.170,344.690 222.690,344.800 222.800 C 344.910 222.910,345.290 223.540,345.644 224.200 C 347.623 227.890,349.700 231.234,349.893 231.041 C 350.014 230.919,349.928 230.590,349.701 230.310 C 349.359 229.888,346.845 225.580,342.343 217.700 C 341.934 216.985,341.240 215.770,340.800 215.000 C 339.367 212.492,338.536 211.057,336.400 207.400 C 335.243 205.420,333.888 203.080,333.390 202.200 C 332.891 201.320,331.541 198.980,330.390 197.000 C 328.170 193.181,327.290 191.658,326.000 189.400 C 325.560 188.630,324.840 187.370,324.400 186.600 C 322.971 184.100,322.138 182.661,320.000 179.000 C 318.844 177.020,317.556 174.802,317.140 174.072 C 316.723 173.341,315.010 170.371,313.334 167.472 C 311.658 164.572,309.952 161.615,309.543 160.900 C 307.607 157.514,307.142 156.696,306.357 155.300 C 305.894 154.475,305.373 153.620,305.200 153.400 C 304.877 152.990,304.014 151.490,301.839 147.561 C 300.432 145.017,299.252 143.267,299.221 143.677 M99.054 146.174 C 98.702 146.710,98.052 147.790,97.608 148.574 C 96.538 150.463,96.367 150.760,88.602 164.200 C 79.975 179.132,80.534 178.162,79.557 179.900 C 79.094 180.725,78.580 181.580,78.415 181.800 C 78.250 182.020,77.573 183.190,76.911 184.400 C 76.248 185.610,73.409 190.560,70.601 195.400 C 65.493 204.203,64.697 205.580,63.200 208.200 C 61.840 210.580,61.022 211.998,57.451 218.165 C 55.551 221.446,54.071 224.204,54.162 224.295 C 54.361 224.495,57.200 219.714,57.200 219.179 C 57.200 218.970,57.380 218.800,57.600 218.800 C 57.820 218.800,58.000 218.637,58.000 218.437 C 58.000 218.238,59.283 215.853,60.850 213.137 C 62.418 210.422,64.156 207.390,64.713 206.400 C 65.270 205.410,66.417 203.457,67.263 202.059 C 68.108 200.662,68.800 199.429,68.800 199.321 C 68.800 199.212,69.133 198.646,69.539 198.062 C 69.945 197.478,70.819 196.010,71.480 194.800 C 72.141 193.590,73.166 191.790,73.758 190.800 C 74.351 189.810,74.938 188.685,75.064 188.300 C 75.190 187.915,75.452 187.600,75.647 187.600 C 75.841 187.600,76.000 187.428,76.000 187.218 C 76.000 187.007,76.565 185.882,77.256 184.718 C 77.947 183.553,78.821 182.060,79.199 181.400 C 79.576 180.740,81.287 177.770,83.000 174.800 C 84.713 171.830,86.449 168.815,86.857 168.100 C 87.266 167.385,87.960 166.170,88.400 165.400 C 88.840 164.630,89.560 163.370,90.000 162.600 C 90.440 161.830,91.160 160.570,91.600 159.800 C 92.040 159.030,92.781 157.725,93.247 156.900 C 93.713 156.075,94.433 154.922,94.847 154.338 C 95.261 153.754,95.600 153.152,95.600 153.000 C 95.600 152.848,95.933 152.246,96.339 151.662 C 97.394 150.146,100.105 145.200,99.880 145.200 C 99.777 145.200,99.405 145.639,99.054 146.174 M118.405 159.095 C 114.141 159.891,111.334 165.571,113.182 169.667 C 116.874 177.852,128.480 175.701,128.480 166.832 C 128.480 161.416,124.078 158.035,118.405 159.095 M124.975 160.737 C 130.952 164.746,127.786 174.433,120.513 174.391 C 111.653 174.340,110.309 162.617,118.800 159.448 C 120.070 158.974,123.373 159.663,124.975 160.737 M101.496 188.151 C 99.591 188.857,96.858 191.138,96.813 192.059 C 96.806 192.202,96.080 193.503,95.200 194.952 C 94.320 196.400,93.600 197.769,93.600 197.993 C 93.600 198.217,93.420 198.400,93.200 198.400 C 92.980 198.400,92.800 198.583,92.800 198.807 C 92.800 199.031,92.080 200.400,91.200 201.848 C 90.320 203.297,89.600 204.540,89.600 204.612 C 89.600 204.683,87.704 208.019,85.386 212.024 C 83.069 216.029,81.253 219.386,81.351 219.484 C 81.449 219.582,82.024 218.794,82.628 217.731 C 83.232 216.669,84.040 215.260,84.424 214.600 C 84.807 213.940,85.499 212.725,85.960 211.900 C 86.422 211.075,87.160 209.770,87.600 209.000 C 88.040 208.230,88.779 206.925,89.243 206.100 C 89.706 205.275,90.220 204.420,90.385 204.200 C 90.550 203.980,91.225 202.810,91.885 201.600 C 98.292 189.856,99.621 188.400,103.931 188.400 C 107.412 188.400,109.008 189.361,110.759 192.512 C 112.431 195.520,112.019 197.151,107.627 204.900 C 105.741 208.228,106.451 207.730,108.482 204.300 C 112.112 198.172,112.709 195.795,111.404 192.671 C 109.825 188.893,105.194 186.779,101.496 188.151 M104.295 210.680 C 103.306 212.396,102.115 214.475,101.648 215.300 C 101.182 216.125,100.440 217.430,100.000 218.200 C 99.560 218.970,98.821 220.275,98.357 221.100 C 97.894 221.925,97.380 222.780,97.215 223.000 C 97.050 223.220,96.373 224.390,95.710 225.600 C 95.047 226.810,93.204 230.050,91.614 232.800 C 90.023 235.550,88.459 238.340,88.137 239.000 C 87.153 241.018,88.783 238.821,89.990 236.502 C 90.535 235.456,91.075 234.510,91.190 234.400 C 91.306 234.290,91.779 233.480,92.242 232.600 C 92.705 231.720,95.360 227.069,98.142 222.265 C 100.924 217.460,103.200 213.473,103.200 213.405 C 103.200 213.337,103.933 212.076,104.828 210.602 C 105.723 209.128,106.374 207.841,106.275 207.741 C 106.175 207.641,105.284 208.964,104.295 210.680 M186.056 214.000 C 186.056 214.330,186.211 214.960,186.400 215.400 C 186.617 215.904,186.744 215.978,186.744 215.600 C 186.744 215.270,186.589 214.640,186.400 214.200 C 186.183 213.696,186.056 213.622,186.056 214.000 M186.800 216.708 C 186.800 217.256,189.079 220.569,190.050 221.430 C 190.526 221.854,190.171 221.210,189.260 220.000 C 188.349 218.790,187.603 217.586,187.602 217.324 C 187.601 217.062,187.420 216.736,187.200 216.600 C 186.980 216.464,186.800 216.513,186.800 216.708 M79.419 222.421 C 78.639 223.753,78.000 224.905,78.000 224.981 C 78.000 225.056,77.280 226.303,76.400 227.752 C 75.520 229.200,74.800 230.569,74.800 230.793 C 74.800 231.017,74.620 231.200,74.400 231.200 C 74.180 231.200,74.000 231.364,74.000 231.565 C 74.000 231.765,71.750 235.827,69.000 240.592 C 66.250 245.357,64.000 249.350,64.000 249.466 C 64.000 249.582,63.620 250.210,63.156 250.861 C 62.692 251.513,62.401 252.135,62.510 252.243 C 62.682 252.415,64.012 250.253,67.152 244.700 C 67.618 243.875,68.360 242.570,68.800 241.800 C 69.240 241.030,69.960 239.770,70.400 239.000 C 72.380 235.535,72.762 234.876,73.944 232.882 C 74.635 231.718,75.200 230.701,75.200 230.623 C 75.200 230.545,75.890 229.338,76.734 227.941 C 79.129 223.973,81.290 220.000,81.054 220.000 C 80.935 220.000,80.200 221.090,79.419 222.421 M191.200 222.285 C 191.200 222.634,192.799 223.738,193.000 223.528 C 193.067 223.457,192.689 223.077,192.161 222.681 C 191.632 222.286,191.200 222.108,191.200 222.285 M195.600 224.805 C 195.930 225.016,196.725 225.191,197.367 225.194 C 198.914 225.202,198.577 224.971,196.600 224.668 C 195.510 224.501,195.191 224.545,195.600 224.805 M202.800 224.800 C 201.416 225.091,201.414 225.095,202.600 225.141 C 203.260 225.167,204.070 225.013,204.400 224.800 C 205.066 224.370,204.845 224.370,202.800 224.800 M51.987 227.669 C 51.061 229.281,50.058 230.994,49.759 231.474 C 49.460 231.955,48.852 232.990,48.408 233.774 C 47.963 234.559,47.240 235.830,46.800 236.600 C 46.360 237.370,45.640 238.630,45.200 239.400 C 44.267 241.033,44.590 240.473,36.996 253.600 C 30.951 264.050,30.186 265.375,28.800 267.800 C 26.818 271.269,26.437 271.927,25.223 273.973 C 23.407 277.037,20.318 283.251,20.515 283.448 C 20.605 283.538,21.422 282.124,22.331 280.306 C 24.100 276.767,26.073 273.127,26.400 272.800 C 26.510 272.690,26.842 272.170,27.138 271.645 C 27.433 271.120,27.991 270.130,28.376 269.445 C 28.762 268.760,30.841 265.140,32.997 261.400 C 37.077 254.323,37.836 252.999,39.247 250.500 C 39.713 249.675,40.433 248.522,40.847 247.938 C 41.261 247.354,41.600 246.777,41.600 246.656 C 41.600 246.534,42.167 245.482,42.860 244.318 C 43.554 243.153,44.679 241.210,45.361 240.000 C 47.064 236.979,49.827 232.187,52.102 228.311 C 53.148 226.529,53.929 224.996,53.838 224.904 C 53.746 224.813,52.913 226.057,51.987 227.669 M350.000 231.697 C 350.000 231.838,351.194 233.989,352.654 236.477 C 355.191 240.801,355.792 241.836,357.600 245.000 C 358.040 245.770,358.735 246.985,359.143 247.700 C 359.552 248.415,360.370 249.810,360.961 250.800 C 361.552 251.790,362.138 252.915,362.264 253.300 C 362.390 253.685,362.652 254.000,362.847 254.000 C 363.041 254.000,363.200 254.183,363.200 254.407 C 363.200 254.631,363.920 256.000,364.800 257.448 C 365.680 258.897,366.400 260.125,366.400 260.178 C 366.400 260.232,367.954 262.958,369.852 266.238 C 371.751 269.517,373.616 272.740,373.996 273.400 C 374.376 274.060,375.158 275.410,375.735 276.400 C 376.791 278.216,378.581 281.838,379.242 283.500 C 379.439 283.995,379.764 284.805,379.964 285.300 C 380.164 285.795,380.438 286.541,380.573 286.957 C 380.708 287.374,380.913 287.621,381.027 287.506 C 381.696 286.838,378.155 279.736,370.803 267.000 C 367.882 261.940,364.506 256.090,363.301 254.000 C 362.095 251.910,360.791 249.660,360.403 249.000 C 360.014 248.340,357.682 244.290,355.220 240.000 C 351.038 232.713,350.000 231.061,350.000 231.697 M86.495 241.679 C 86.057 242.406,85.252 243.810,84.706 244.800 C 83.335 247.285,81.402 250.670,79.109 254.600 C 78.339 255.920,77.254 257.810,76.699 258.800 C 73.482 264.538,69.466 271.470,69.105 271.910 C 68.875 272.190,68.786 272.519,68.907 272.641 C 69.100 272.834,71.177 269.490,73.156 265.800 C 73.510 265.140,73.890 264.510,74.000 264.400 C 74.110 264.290,74.587 263.480,75.060 262.600 C 76.864 259.245,77.719 257.765,78.447 256.738 C 78.861 256.154,79.200 255.589,79.200 255.482 C 79.200 255.375,81.097 252.005,83.415 247.992 C 85.734 243.980,87.554 240.621,87.461 240.528 C 87.368 240.434,86.933 240.952,86.495 241.679 M60.619 255.221 C 59.839 256.553,59.200 257.813,59.200 258.021 C 59.200 258.230,59.041 258.400,58.847 258.400 C 58.652 258.400,58.387 258.715,58.258 259.100 C 58.128 259.485,57.701 260.340,57.309 261.000 C 54.247 266.158,51.605 271.198,51.630 271.835 C 51.652 272.373,51.800 272.245,52.131 271.400 C 52.807 269.678,53.818 267.843,59.189 258.600 C 61.742 254.207,62.479 252.800,62.229 252.800 C 62.124 252.800,61.400 253.890,60.619 255.221 M195.800 265.973 C 195.342 266.153,197.140 266.289,200.000 266.289 C 202.860 266.289,204.658 266.153,204.200 265.973 C 203.760 265.799,201.870 265.656,200.000 265.656 C 198.130 265.656,196.240 265.799,195.800 265.973 M189.392 267.715 C 171.462 274.988,164.532 296.079,174.906 311.800 C 176.675 314.480,182.046 319.884,183.836 320.786 C 184.476 321.108,185.450 321.661,186.000 322.016 C 186.550 322.370,187.630 322.890,188.400 323.171 C 189.170 323.451,190.160 323.823,190.600 323.996 C 195.163 325.796,207.260 325.752,209.380 323.927 C 209.589 323.747,209.996 323.600,210.284 323.600 C 213.504 323.600,221.983 316.793,225.231 311.600 C 226.535 309.516,226.930 308.749,227.910 306.400 C 230.312 300.643,230.609 292.250,228.610 286.600 C 226.458 280.514,221.858 274.208,217.317 271.118 C 214.213 269.007,207.971 266.366,206.237 266.432 C 205.298 266.467,205.286 266.462,208.600 267.438 C 228.684 273.353,236.089 298.226,222.602 314.474 C 209.252 330.558,183.002 327.597,173.798 308.969 C 165.196 291.561,174.052 272.351,193.200 266.882 C 194.371 266.547,194.437 266.476,193.600 266.448 C 193.050 266.429,191.157 266.999,189.392 267.715 M66.873 275.869 C 62.747 282.919,55.407 283.349,52.397 276.716 C 51.968 275.772,51.614 275.324,51.609 275.720 C 51.553 280.268,59.031 283.323,63.450 280.557 C 65.184 279.472,69.217 273.883,68.664 273.331 C 68.558 273.225,67.752 274.367,66.873 275.869 M197.500 281.533 C 197.115 281.686,198.227 281.811,199.970 281.811 C 201.714 281.811,202.929 281.676,202.670 281.511 C 202.088 281.141,198.451 281.157,197.500 281.533 M190.740 284.789 C 189.231 286.033,186.540 289.873,186.914 290.248 C 187.034 290.367,187.457 289.775,187.854 288.932 C 188.252 288.090,189.465 286.545,190.551 285.500 C 192.791 283.344,192.874 283.030,190.740 284.789 M209.063 285.063 C 215.278 290.808,215.586 298.857,209.849 305.597 L 209.000 306.594 209.869 305.863 C 216.161 300.570,215.511 288.912,208.672 284.370 C 207.643 283.687,207.718 283.819,209.063 285.063 M19.000 286.800 C 18.850 287.273,18.817 287.750,18.927 287.860 C 19.037 287.970,19.250 287.673,19.400 287.200 C 19.550 286.727,19.583 286.250,19.473 286.140 C 19.363 286.030,19.150 286.327,19.000 286.800 M381.234 288.600 C 381.222 289.040,381.387 289.670,381.600 290.000 C 382.114 290.795,382.114 289.796,381.600 288.600 L 381.256 287.800 381.234 288.600 M18.250 289.070 C 15.917 296.690,14.855 308.377,15.959 314.280 C 16.157 315.336,16.540 317.460,16.810 319.000 C 17.081 320.540,17.470 322.070,17.676 322.400 C 18.072 323.037,18.078 323.080,16.990 317.600 C 15.514 310.168,15.843 300.275,17.826 292.457 C 18.356 290.367,18.719 288.586,18.632 288.498 C 18.544 288.411,18.372 288.668,18.250 289.070 M186.229 291.829 C 186.081 292.415,186.038 292.972,186.132 293.066 C 186.227 293.160,186.424 292.758,186.571 292.171 C 186.719 291.585,186.762 291.028,186.668 290.934 C 186.573 290.840,186.376 291.242,186.229 291.829 M382.012 291.400 C 382.012 291.840,382.187 292.470,382.400 292.800 C 382.721 293.297,382.788 293.262,382.788 292.600 C 382.788 292.160,382.613 291.530,382.400 291.200 C 382.079 290.703,382.012 290.738,382.012 291.400 M382.887 294.600 C 382.891 295.260,383.032 296.340,383.200 297.000 L 383.505 298.200 383.513 296.800 C 383.517 296.030,383.376 294.950,383.200 294.400 C 382.889 293.430,382.880 293.435,382.887 294.600 M185.701 295.400 C 185.705 296.280,185.787 296.593,185.883 296.095 C 185.979 295.598,185.975 294.878,185.875 294.495 C 185.775 294.113,185.696 294.520,185.701 295.400 M186.056 298.400 C 186.056 298.730,186.211 299.360,186.400 299.800 C 186.617 300.304,186.744 300.378,186.744 300.000 C 186.744 299.670,186.589 299.040,186.400 298.600 C 186.183 298.096,186.056 298.022,186.056 298.400 M383.800 307.000 C 383.800 311.815,383.914 315.225,384.053 314.577 C 384.192 313.930,384.305 310.520,384.305 307.000 C 384.305 303.480,384.192 300.070,384.053 299.423 C 383.914 298.775,383.800 302.185,383.800 307.000 M186.800 301.108 C 186.800 301.656,189.079 304.969,190.050 305.830 C 190.526 306.254,190.171 305.610,189.260 304.400 C 188.349 303.190,187.603 301.986,187.602 301.724 C 187.601 301.462,187.420 301.136,187.200 301.000 C 186.980 300.864,186.800 300.913,186.800 301.108 M191.200 306.685 C 191.200 307.034,192.799 308.138,193.000 307.928 C 193.067 307.857,192.689 307.477,192.161 307.081 C 191.632 306.686,191.200 306.508,191.200 306.685 M207.656 307.234 C 207.136 307.655,206.866 307.994,207.056 307.987 C 207.544 307.969,208.976 306.843,208.771 306.639 C 208.677 306.545,208.175 306.813,207.656 307.234 M193.600 308.205 C 193.600 308.592,196.545 309.598,197.549 309.554 C 198.437 309.515,198.383 309.462,197.200 309.209 C 196.430 309.045,195.305 308.710,194.700 308.465 C 194.095 308.220,193.600 308.103,193.600 308.205 M205.200 308.478 C 204.650 308.714,203.570 309.042,202.800 309.207 C 201.616 309.462,201.562 309.515,202.451 309.554 C 203.469 309.599,206.400 308.589,206.400 308.195 C 206.400 307.959,206.435 307.950,205.200 308.478 M383.047 317.737 C 382.878 318.802,382.832 319.765,382.944 319.878 C 383.236 320.169,383.705 317.424,383.514 316.540 C 383.427 316.133,383.216 316.671,383.047 317.737 M382.200 321.600 C 382.048 322.291,382.014 322.947,382.124 323.057 C 382.234 323.167,382.448 322.691,382.600 322.000 C 382.752 321.309,382.786 320.653,382.676 320.543 C 382.566 320.433,382.352 320.909,382.200 321.600 M18.034 323.800 C 18.022 324.240,18.187 324.870,18.400 325.200 C 18.914 325.995,18.914 324.996,18.400 323.800 L 18.056 323.000 18.034 323.800 M381.473 324.153 C 381.323 324.545,381.211 325.166,381.225 325.533 C 381.242 325.975,381.381 325.874,381.637 325.234 C 381.849 324.703,381.961 324.082,381.885 323.854 C 381.809 323.627,381.624 323.761,381.473 324.153 M18.800 326.331 C 18.800 326.889,20.796 331.611,22.288 334.585 C 26.854 343.681,33.993 351.792,42.467 357.510 C 45.747 359.724,52.740 363.393,53.064 363.070 C 53.174 362.959,52.575 362.568,51.732 362.201 C 50.062 361.472,49.427 361.147,47.245 359.897 C 46.450 359.442,45.299 358.813,44.687 358.499 C 40.203 356.201,31.121 347.642,27.604 342.400 C 26.645 340.970,25.757 339.710,25.630 339.600 C 24.939 338.999,21.531 332.265,20.194 328.857 C 19.140 326.169,18.800 325.553,18.800 326.331 M380.573 327.043 C 379.159 331.403,374.988 339.174,371.717 343.545 C 365.709 351.574,356.678 358.650,347.400 362.600 C 346.520 362.975,345.440 363.436,345.000 363.625 C 344.560 363.814,343.120 364.274,341.800 364.647 C 340.480 365.019,339.619 365.399,339.886 365.491 C 342.733 366.467,358.050 358.021,364.711 351.802 C 371.905 345.085,382.766 328.233,381.024 326.491 C 380.911 326.378,380.708 326.626,380.573 327.043 M54.000 363.548 C 54.917 364.126,60.022 365.711,60.245 365.488 C 60.417 365.316,55.650 363.643,54.000 363.297 C 53.467 363.185,53.467 363.213,54.000 363.548 M61.400 366.000 C 62.584 366.509,63.987 366.509,63.200 366.000 C 62.870 365.787,62.150 365.622,61.600 365.634 C 60.684 365.654,60.667 365.685,61.400 366.000 M337.000 366.000 L 336.200 366.344 337.000 366.344 C 337.440 366.344,338.160 366.189,338.600 366.000 L 339.400 365.656 338.600 365.656 C 338.160 365.656,337.440 365.811,337.000 366.000 M65.000 366.800 C 65.660 366.968,66.830 367.105,67.600 367.105 L 69.000 367.105 67.800 366.800 C 67.140 366.632,65.970 366.495,65.200 366.495 L 63.800 366.495 65.000 366.800 M332.200 366.800 L 331.000 367.105 332.400 367.105 C 333.170 367.105,334.340 366.968,335.000 366.800 L 336.200 366.495 334.800 366.495 C 334.030 366.495,332.860 366.632,332.200 366.800 M71.039 367.677 C 71.897 367.829,93.750 367.928,119.600 367.896 C 145.450 367.865,165.250 367.788,163.600 367.725 C 156.810 367.467,69.600 367.422,71.039 367.677 M277.000 367.596 C 233.249 367.785,229.708 367.851,228.536 368.492 C 226.821 369.430,224.940 371.794,224.681 373.334 C 224.564 374.030,224.332 374.945,224.166 375.366 C 223.965 375.874,224.009 376.041,224.297 375.864 C 224.535 375.716,224.849 374.894,224.994 374.036 C 225.319 372.111,227.562 369.394,229.490 368.588 C 230.701 368.082,237.635 367.997,279.149 367.977 C 305.687 367.964,328.120 367.805,329.000 367.623 C 330.314 367.351,330.027 367.301,327.400 367.342 C 325.640 367.369,302.960 367.484,277.000 367.596 M196.600 368.352 C 194.172 369.467,191.960 372.553,192.041 374.712 L 192.082 375.800 192.390 374.600 C 194.735 365.481,205.700 365.767,207.731 375.000 C 207.862 375.594,207.919 375.522,207.954 374.719 C 208.164 369.819,201.519 366.093,196.600 368.352 M168.464 369.155 C 170.326 370.336,172.000 372.962,172.000 374.703 C 172.000 375.170,172.208 375.682,172.463 375.839 C 172.789 376.041,172.845 375.841,172.653 375.163 C 172.503 374.633,172.265 373.666,172.123 373.014 C 171.823 371.630,168.360 368.000,167.341 368.000 C 166.937 368.000,167.410 368.486,168.464 369.155 " stroke="none" fill="#ab3f3f" fill-rule="evenodd"></path><path id="path4" d="M196.700 33.098 C 198.515 33.172,201.485 33.172,203.300 33.098 C 205.115 33.023,203.630 32.963,200.000 32.963 C 196.370 32.963,194.885 33.023,196.700 33.098 M188.100 33.876 C 188.485 33.976,189.115 33.976,189.500 33.876 C 189.885 33.775,189.570 33.693,188.800 33.693 C 188.030 33.693,187.715 33.775,188.100 33.876 M210.500 33.876 C 210.885 33.976,211.515 33.976,211.900 33.876 C 212.285 33.775,211.970 33.693,211.200 33.693 C 210.430 33.693,210.115 33.775,210.500 33.876 M185.400 34.400 C 184.293 34.682,184.277 34.709,185.200 34.747 C 185.750 34.769,186.470 34.613,186.800 34.400 C 187.481 33.960,187.129 33.960,185.400 34.400 M213.600 34.394 C 213.930 34.611,214.635 34.791,215.167 34.794 C 216.451 34.802,216.125 34.575,214.400 34.258 C 213.415 34.077,213.178 34.118,213.600 34.394 M241.800 49.600 C 242.659 50.480,243.452 51.200,243.562 51.200 C 243.672 51.200,243.059 50.480,242.200 49.600 C 241.341 48.720,240.548 48.000,240.438 48.000 C 240.328 48.000,240.941 48.720,241.800 49.600 M157.578 49.900 L 156.200 51.400 157.796 50.000 C 158.673 49.230,159.468 48.555,159.562 48.500 C 159.656 48.445,159.559 48.400,159.345 48.400 C 159.132 48.400,158.337 49.075,157.578 49.900 M246.791 55.188 C 247.257 55.841,247.842 56.502,248.091 56.656 C 248.341 56.811,248.041 56.276,247.425 55.468 C 246.088 53.715,245.584 53.492,246.791 55.188 M152.344 55.900 C 151.193 57.289,150.706 58.000,150.904 58.000 C 151.014 58.000,151.586 57.370,152.173 56.600 C 153.263 55.171,153.395 54.632,152.344 55.900 M249.200 58.400 C 249.670 59.060,250.144 59.600,250.254 59.600 C 250.364 59.600,250.070 59.060,249.600 58.400 C 249.130 57.740,248.656 57.200,248.546 57.200 C 248.436 57.200,248.730 57.740,249.200 58.400 M148.586 61.300 L 147.952 62.600 148.767 61.600 C 149.552 60.637,149.808 60.000,149.410 60.000 C 149.306 60.000,148.935 60.585,148.586 61.300 M136.953 81.300 C 135.576 83.636,135.486 83.835,136.187 83.000 C 137.000 82.032,137.700 80.800,137.438 80.800 C 137.333 80.800,137.115 81.025,136.953 81.300 M265.160 85.400 C 265.834 86.705,266.388 87.428,266.385 87.000 C 266.383 86.780,266.014 86.150,265.564 85.600 C 265.021 84.936,264.885 84.869,265.160 85.400 M131.453 90.900 L 130.733 92.200 131.558 91.200 C 132.289 90.313,132.614 89.600,132.286 89.600 C 132.224 89.600,131.849 90.185,131.453 90.900 M268.200 90.800 C 268.541 91.460,268.911 92.000,269.021 92.000 C 269.131 92.000,268.941 91.460,268.600 90.800 C 268.259 90.140,267.889 89.600,267.779 89.600 C 267.669 89.600,267.859 90.140,268.200 90.800 M196.938 90.706 C 196.684 90.868,198.062 91.000,200.000 91.000 C 201.938 91.000,203.316 90.868,203.062 90.706 C 202.808 90.544,201.430 90.412,200.000 90.412 C 198.570 90.412,197.192 90.544,196.938 90.706 M178.800 99.400 C 177.828 100.390,177.123 101.200,177.233 101.200 C 177.343 101.200,178.228 100.390,179.200 99.400 C 180.172 98.410,180.877 97.600,180.767 97.600 C 180.657 97.600,179.772 98.410,178.800 99.400 M199.505 107.083 C 200.002 107.179,200.722 107.175,201.105 107.075 C 201.487 106.975,201.080 106.896,200.200 106.901 C 199.320 106.905,199.007 106.987,199.505 107.083 M120.214 110.235 C 119.841 110.804,119.605 111.338,119.689 111.422 C 119.773 111.507,120.158 111.041,120.544 110.388 C 121.406 108.928,121.148 108.809,120.214 110.235 M170.249 115.015 C 170.112 115.373,170.023 116.236,170.050 116.933 C 170.092 117.987,170.150 117.898,170.399 116.400 C 170.717 114.486,170.659 113.948,170.249 115.015 M229.458 115.600 C 229.775 117.325,230.002 117.651,229.994 116.367 C 229.991 115.835,229.811 115.130,229.594 114.800 C 229.318 114.378,229.277 114.615,229.458 115.600 M103.000 140.000 C 102.659 140.660,102.469 141.200,102.579 141.200 C 102.689 141.200,103.059 140.660,103.400 140.000 C 103.741 139.340,103.931 138.800,103.821 138.800 C 103.711 138.800,103.341 139.340,103.000 140.000 M297.960 142.200 C 298.634 143.505,299.188 144.228,299.185 143.800 C 299.183 143.580,298.814 142.950,298.364 142.400 C 297.821 141.736,297.685 141.669,297.960 142.200 M100.253 144.900 L 99.533 146.200 100.358 145.200 C 101.089 144.313,101.414 143.600,101.086 143.600 C 101.024 143.600,100.649 144.185,100.253 144.900 M118.662 158.700 C 118.560 158.865,119.432 159.000,120.600 159.000 C 121.768 159.000,122.640 158.865,122.538 158.700 C 122.436 158.535,121.564 158.400,120.600 158.400 C 119.636 158.400,118.764 158.535,118.662 158.700 M125.200 160.122 C 125.200 160.192,125.763 160.779,126.450 161.425 C 127.325 162.248,127.547 162.348,127.191 161.759 C 126.751 161.033,125.200 159.757,125.200 160.122 M89.014 164.235 C 88.641 164.804,88.405 165.338,88.489 165.422 C 88.573 165.507,88.958 165.041,89.344 164.388 C 90.206 162.928,89.948 162.809,89.014 164.235 M128.514 166.800 C 128.514 168.340,128.572 168.470,128.918 167.700 C 129.190 167.094,129.190 166.506,128.918 165.900 C 128.572 165.130,128.514 165.260,128.514 166.800 M314.600 171.200 C 314.941 171.860,315.311 172.400,315.421 172.400 C 315.531 172.400,315.341 171.860,315.000 171.200 C 314.659 170.540,314.289 170.000,314.179 170.000 C 314.069 170.000,314.259 170.540,314.600 171.200 M113.200 170.583 C 113.200 170.743,113.560 171.331,114.000 171.891 C 114.440 172.450,114.800 172.777,114.800 172.617 C 114.800 172.457,114.440 171.869,114.000 171.309 C 113.560 170.750,113.200 170.423,113.200 170.583 M84.752 171.700 C 84.490 172.195,84.015 173.050,83.696 173.600 C 83.139 174.559,83.143 174.567,83.788 173.800 C 84.586 172.852,85.705 170.800,85.424 170.800 C 85.316 170.800,85.014 171.205,84.752 171.700 M118.537 174.894 C 119.146 175.280,122.301 175.285,122.537 174.900 C 122.638 174.735,121.675 174.600,120.398 174.600 C 119.120 174.600,118.283 174.732,118.537 174.894 M82.253 176.100 L 81.533 177.400 82.358 176.400 C 83.089 175.513,83.414 174.800,83.086 174.800 C 83.024 174.800,82.649 175.385,82.253 176.100 M67.453 201.700 L 66.733 203.000 67.558 202.000 C 68.289 201.113,68.614 200.400,68.286 200.400 C 68.224 200.400,67.849 200.985,67.453 201.700 M65.853 204.500 L 65.133 205.800 65.958 204.800 C 66.689 203.913,67.014 203.200,66.686 203.200 C 66.624 203.200,66.249 203.785,65.853 204.500 M334.006 204.450 C 333.997 204.805,336.033 208.400,336.242 208.400 C 336.338 208.400,336.060 207.725,335.624 206.900 C 334.678 205.111,334.015 204.106,334.006 204.450 M105.400 209.600 C 105.059 210.260,104.869 210.800,104.979 210.800 C 105.089 210.800,105.459 210.260,105.800 209.600 C 106.141 208.940,106.331 208.400,106.221 208.400 C 106.111 208.400,105.741 208.940,105.400 209.600 M86.200 210.000 C 85.859 210.660,85.669 211.200,85.779 211.200 C 85.889 211.200,86.259 210.660,86.600 210.000 C 86.941 209.340,87.131 208.800,87.021 208.800 C 86.911 208.800,86.541 209.340,86.200 210.000 M84.614 212.635 C 84.241 213.204,84.005 213.738,84.089 213.822 C 84.173 213.907,84.558 213.441,84.944 212.788 C 85.806 211.328,85.548 211.209,84.614 212.635 M170.006 215.233 C 170.009 215.985,170.177 216.861,170.379 217.179 C 170.616 217.554,170.665 217.130,170.518 215.979 C 170.235 213.770,169.998 213.425,170.006 215.233 M229.654 215.467 C 229.625 215.944,229.496 216.664,229.370 217.067 C 229.152 217.761,229.164 217.762,229.596 217.088 C 229.847 216.697,229.975 215.977,229.881 215.488 C 229.709 214.601,229.709 214.601,229.654 215.467 M101.053 217.300 L 100.333 218.600 101.158 217.600 C 101.889 216.713,102.214 216.000,101.886 216.000 C 101.824 216.000,101.449 216.585,101.053 217.300 M97.800 222.800 C 97.459 223.460,97.269 224.000,97.379 224.000 C 97.489 224.000,97.859 223.460,98.200 222.800 C 98.541 222.140,98.731 221.600,98.621 221.600 C 98.511 221.600,98.141 222.140,97.800 222.800 M199.100 225.082 C 199.595 225.178,200.405 225.178,200.900 225.082 C 201.395 224.987,200.990 224.909,200.000 224.909 C 199.010 224.909,198.605 224.987,199.100 225.082 M53.353 226.100 C 51.976 228.436,51.886 228.635,52.587 227.800 C 53.400 226.832,54.100 225.600,53.838 225.600 C 53.733 225.600,53.515 225.825,53.353 226.100 M51.053 230.100 L 50.333 231.400 51.158 230.400 C 51.889 229.513,52.214 228.800,51.886 228.800 C 51.824 228.800,51.449 229.385,51.053 230.100 M348.760 230.200 C 349.434 231.505,349.988 232.228,349.985 231.800 C 349.983 231.580,349.614 230.950,349.164 230.400 C 348.621 229.736,348.485 229.669,348.760 230.200 M178.600 232.400 C 179.906 233.720,181.065 234.800,181.175 234.800 C 181.285 234.800,180.306 233.720,179.000 232.400 C 177.694 231.080,176.535 230.000,176.425 230.000 C 176.315 230.000,177.294 231.080,178.600 232.400 M222.175 231.300 L 221.000 232.600 222.300 231.425 C 223.015 230.779,223.600 230.194,223.600 230.125 C 223.600 229.816,223.270 230.088,222.175 231.300 M218.849 234.416 C 216.562 236.484,217.007 236.471,219.400 234.400 C 220.417 233.520,221.103 232.807,220.924 232.816 C 220.746 232.825,219.812 233.545,218.849 234.416 M46.200 238.400 C 45.859 239.060,45.669 239.600,45.779 239.600 C 45.889 239.600,46.259 239.060,46.600 238.400 C 46.941 237.740,47.131 237.200,47.021 237.200 C 46.911 237.200,46.541 237.740,46.200 238.400 M88.214 239.435 C 87.841 240.004,87.605 240.538,87.689 240.622 C 87.773 240.707,88.158 240.241,88.544 239.588 C 89.406 238.128,89.148 238.009,88.214 239.435 M197.115 241.272 C 197.492 241.421,198.790 241.544,200.000 241.544 C 201.210 241.544,202.508 241.421,202.885 241.272 C 203.262 241.122,201.964 241.000,200.000 241.000 C 198.036 241.000,196.738 241.122,197.115 241.272 M86.600 242.400 C 86.259 243.060,86.069 243.600,86.179 243.600 C 86.289 243.600,86.659 243.060,87.000 242.400 C 87.341 241.740,87.531 241.200,87.421 241.200 C 87.311 241.200,86.941 241.740,86.600 242.400 M64.600 247.600 C 64.259 248.260,64.069 248.800,64.179 248.800 C 64.289 248.800,64.659 248.260,65.000 247.600 C 65.341 246.940,65.531 246.400,65.421 246.400 C 65.311 246.400,64.941 246.940,64.600 247.600 M82.253 250.100 L 81.533 251.400 82.358 250.400 C 83.089 249.513,83.414 248.800,83.086 248.800 C 83.024 248.800,82.649 249.385,82.253 250.100 M63.053 250.500 L 62.333 251.800 63.158 250.800 C 63.889 249.913,64.214 249.200,63.886 249.200 C 63.824 249.200,63.449 249.785,63.053 250.500 M36.705 254.900 C 35.844 256.222,34.646 258.665,35.088 258.200 C 35.611 257.650,37.674 254.000,37.463 254.000 C 37.369 254.000,37.028 254.405,36.705 254.900 M365.160 258.600 C 365.834 259.905,366.388 260.628,366.385 260.200 C 366.383 259.980,366.014 259.350,365.564 258.800 C 365.021 258.136,364.885 258.069,365.160 258.600 M198.700 265.489 C 199.415 265.578,200.585 265.578,201.300 265.489 C 202.015 265.401,201.430 265.328,200.000 265.328 C 198.570 265.328,197.985 265.401,198.700 265.489 M29.853 266.900 L 29.133 268.200 29.958 267.200 C 30.689 266.313,31.014 265.600,30.686 265.600 C 30.624 265.600,30.249 266.185,29.853 266.900 M194.000 266.000 C 192.633 266.288,192.628 266.295,193.800 266.319 C 194.460 266.333,195.360 266.189,195.800 266.000 C 196.762 265.587,195.964 265.587,194.000 266.000 M204.200 265.990 C 204.964 266.328,207.514 266.557,207.167 266.256 C 207.075 266.176,206.190 266.004,205.200 265.873 C 203.998 265.714,203.666 265.753,204.200 265.990 M369.800 266.800 C 370.141 267.460,370.511 268.000,370.621 268.000 C 370.731 268.000,370.541 267.460,370.200 266.800 C 369.859 266.140,369.489 265.600,369.379 265.600 C 369.269 265.600,369.459 266.140,369.800 266.800 M185.500 269.029 C 183.949 269.870,184.125 270.161,185.700 269.359 C 187.208 268.593,187.475 268.394,186.967 268.416 C 186.765 268.425,186.105 268.701,185.500 269.029 M212.833 268.549 C 213.245 268.917,215.600 270.000,215.600 269.821 C 215.600 269.590,213.382 268.400,212.953 268.400 C 212.796 268.400,212.742 268.467,212.833 268.549 M51.354 270.977 C 51.232 271.294,51.203 271.879,51.289 272.277 C 51.387 272.728,51.524 272.512,51.654 271.700 C 51.871 270.338,51.730 269.996,51.354 270.977 M69.414 272.235 C 69.041 272.804,68.805 273.338,68.889 273.422 C 68.973 273.507,69.358 273.041,69.744 272.388 C 70.606 270.928,70.348 270.809,69.414 272.235 M179.178 273.900 L 177.800 275.400 179.300 274.022 C 180.696 272.738,180.984 272.400,180.678 272.400 C 180.612 272.400,179.937 273.075,179.178 273.900 M219.200 272.525 C 219.200 272.594,219.785 273.179,220.500 273.825 L 221.800 275.000 220.625 273.700 C 219.530 272.488,219.200 272.216,219.200 272.525 M224.237 278.200 C 224.597 278.750,224.957 279.200,225.037 279.200 C 225.117 279.200,224.978 278.750,224.727 278.200 C 224.477 277.650,224.116 277.200,223.927 277.200 C 223.737 277.200,223.876 277.650,224.237 278.200 M55.200 281.000 C 55.750 281.314,56.380 281.572,56.600 281.572 C 56.820 281.572,56.550 281.314,56.000 281.000 C 55.450 280.686,54.820 280.428,54.600 280.428 C 54.380 280.428,54.650 280.686,55.200 281.000 M58.485 282.085 C 59.083 282.290,59.839 282.306,60.169 282.121 C 60.572 281.896,60.215 281.774,59.084 281.750 C 57.555 281.718,57.500 281.748,58.485 282.085 M170.249 289.815 C 170.112 290.173,170.023 291.036,170.050 291.733 C 170.092 292.787,170.150 292.698,170.399 291.200 C 170.717 289.286,170.659 288.748,170.249 289.815 M229.458 290.400 C 229.775 292.125,230.002 292.451,229.994 291.167 C 229.991 290.635,229.811 289.930,229.594 289.600 C 229.318 289.178,229.277 289.415,229.458 290.400 M381.444 290.600 C 381.773 292.071,382.002 292.390,381.994 291.367 C 381.991 290.945,381.805 290.330,381.582 290.000 C 381.285 289.562,381.248 289.724,381.444 290.600 M18.046 291.267 C 18.021 291.634,17.896 292.264,17.770 292.667 C 17.552 293.362,17.563 293.363,17.997 292.687 C 18.248 292.296,18.373 291.666,18.273 291.287 C 18.111 290.668,18.088 290.666,18.046 291.267 M382.268 293.800 C 382.571 295.777,382.802 296.114,382.794 294.567 C 382.791 293.925,382.616 293.130,382.405 292.800 C 382.145 292.391,382.101 292.710,382.268 293.800 M17.249 294.600 C 17.216 295.040,17.096 295.850,16.983 296.400 L 16.777 297.400 17.206 296.419 C 17.442 295.879,17.561 295.069,17.472 294.619 C 17.313 293.821,17.307 293.821,17.249 294.600 M383.314 299.800 C 383.317 300.900,383.395 301.303,383.487 300.695 C 383.579 300.086,383.577 299.186,383.482 298.695 C 383.387 298.203,383.311 298.700,383.314 299.800 M16.235 301.435 C 16.083 303.116,16.041 304.574,16.142 304.676 C 16.243 304.777,16.455 303.488,16.612 301.812 C 16.769 300.136,16.811 298.677,16.705 298.571 C 16.599 298.466,16.388 299.754,16.235 301.435 M170.006 299.633 C 170.009 300.385,170.177 301.261,170.379 301.579 C 170.616 301.954,170.665 301.530,170.518 300.379 C 170.235 298.170,169.998 297.825,170.006 299.633 M229.654 299.867 C 229.625 300.344,229.496 301.064,229.370 301.467 C 229.152 302.161,229.164 302.162,229.596 301.488 C 229.847 301.097,229.975 300.377,229.881 299.888 C 229.709 299.001,229.709 299.001,229.654 299.867 M383.701 303.400 C 383.705 304.280,383.787 304.593,383.883 304.095 C 383.979 303.598,383.975 302.878,383.875 302.495 C 383.775 302.113,383.696 302.520,383.701 303.400 M16.081 310.200 C 16.075 310.860,16.210 312.300,16.382 313.400 C 16.687 315.359,16.694 315.367,16.724 313.800 C 16.740 312.920,16.605 311.480,16.423 310.600 C 16.140 309.230,16.090 309.173,16.081 310.200 M199.100 309.482 C 199.595 309.578,200.405 309.578,200.900 309.482 C 201.395 309.387,200.990 309.309,200.000 309.309 C 199.010 309.309,198.605 309.387,199.100 309.482 M383.701 310.600 C 383.705 311.480,383.787 311.793,383.883 311.295 C 383.979 310.798,383.975 310.078,383.875 309.695 C 383.775 309.313,383.696 309.720,383.701 310.600 M383.314 314.200 C 383.317 315.300,383.395 315.703,383.487 315.095 C 383.579 314.486,383.577 313.586,383.482 313.095 C 383.387 312.603,383.311 313.100,383.314 314.200 M178.017 316.233 C 178.998 317.241,180.520 318.630,181.400 319.319 C 182.280 320.009,181.560 319.185,179.800 317.489 C 176.285 314.102,175.199 313.337,178.017 316.233 M220.987 316.878 C 219.533 318.387,219.228 318.817,220.207 317.978 C 221.721 316.680,223.831 314.400,223.518 314.400 C 223.439 314.400,222.301 315.515,220.987 316.878 M17.062 318.200 C 17.196 319.080,17.372 319.875,17.453 319.967 C 17.756 320.310,17.529 318.168,17.181 317.400 C 16.929 316.842,16.893 317.085,17.062 318.200 M184.800 321.620 C 186.187 322.561,186.978 322.835,186.000 322.036 C 185.450 321.586,184.820 321.217,184.600 321.215 C 184.380 321.213,184.470 321.396,184.800 321.620 M381.646 322.467 C 381.621 322.834,381.496 323.464,381.370 323.867 C 381.152 324.562,381.163 324.563,381.597 323.887 C 381.848 323.496,381.973 322.866,381.873 322.487 C 381.711 321.868,381.688 321.866,381.646 322.467 M197.291 325.665 C 197.929 326.070,202.039 326.090,202.666 325.691 C 202.923 325.528,201.704 325.382,199.957 325.368 C 198.200 325.353,197.009 325.486,197.291 325.665 M372.873 341.400 C 372.622 341.950,372.483 342.400,372.563 342.400 C 372.643 342.400,373.003 341.950,373.363 341.400 C 373.724 340.850,373.863 340.400,373.673 340.400 C 373.484 340.400,373.123 340.850,372.873 341.400 M370.060 345.080 C 369.103 346.275,368.383 347.309,368.460 347.378 C 368.537 347.448,369.390 346.530,370.355 345.340 C 371.320 344.150,372.040 343.116,371.955 343.041 C 371.870 342.967,371.017 343.885,370.060 345.080 M28.893 344.400 C 29.168 344.840,29.531 345.200,29.700 345.200 C 29.869 345.200,29.782 344.840,29.507 344.400 C 29.232 343.960,28.869 343.600,28.700 343.600 C 28.531 343.600,28.618 343.960,28.893 344.400 M366.034 349.753 L 365.069 351.000 366.213 349.912 C 366.843 349.314,367.277 348.753,367.179 348.665 C 367.080 348.577,366.565 349.067,366.034 349.753 M36.524 352.277 C 36.860 352.821,40.000 355.355,40.000 355.082 C 40.000 354.980,39.153 354.203,38.119 353.355 C 37.084 352.507,36.366 352.022,36.524 352.277 M360.846 354.221 C 359.881 354.979,359.251 355.597,359.446 355.594 C 359.641 355.591,360.520 354.968,361.400 354.209 C 363.464 352.430,363.113 352.437,360.846 354.221 M60.000 365.194 C 60.330 365.411,61.035 365.591,61.567 365.594 C 62.851 365.602,62.525 365.375,60.800 365.058 C 59.815 364.877,59.578 364.918,60.000 365.194 M63.200 366.005 C 63.530 366.216,64.325 366.391,64.967 366.394 C 66.514 366.402,66.177 366.171,64.200 365.868 C 63.110 365.701,62.791 365.745,63.200 366.005 M334.500 366.276 C 334.885 366.376,335.515 366.376,335.900 366.276 C 336.285 366.175,335.970 366.093,335.200 366.093 C 334.430 366.093,334.115 366.175,334.500 366.276 M70.512 367.095 C 71.564 367.177,73.184 367.176,74.112 367.092 C 75.040 367.008,74.180 366.941,72.200 366.942 C 70.220 366.943,69.460 367.012,70.512 367.095 M326.112 367.095 C 327.164 367.177,328.784 367.176,329.712 367.092 C 330.640 367.008,329.780 366.941,327.800 366.942 C 325.820 366.943,325.060 367.012,326.112 367.095 M98.531 367.500 C 111.033 367.559,131.373 367.559,143.731 367.500 C 156.089 367.441,145.860 367.393,121.000 367.393 C 96.140 367.393,86.029 367.441,98.531 367.500 M199.100 367.482 C 199.595 367.578,200.405 367.578,200.900 367.482 C 201.395 367.387,200.990 367.309,200.000 367.309 C 199.010 367.309,198.605 367.387,199.100 367.482 M254.300 367.500 C 267.115 367.559,288.085 367.559,300.900 367.500 C 313.715 367.441,303.230 367.393,277.600 367.393 C 251.970 367.393,241.485 367.441,254.300 367.500 M196.000 368.200 C 194.694 368.947,195.151 368.955,196.854 368.216 C 197.594 367.894,197.930 367.631,197.600 367.630 C 197.270 367.629,196.550 367.886,196.000 368.200 M203.197 368.237 C 203.966 368.570,205.044 369.238,205.594 369.722 L 206.594 370.600 205.798 369.659 C 204.934 368.638,203.151 367.591,202.320 367.616 C 202.034 367.624,202.429 367.904,203.197 368.237 M168.893 368.841 C 169.495 369.290,170.454 370.229,171.026 370.928 C 171.597 371.628,171.877 371.820,171.648 371.355 C 171.208 370.463,168.573 367.991,168.086 368.013 C 167.929 368.020,168.292 368.392,168.893 368.841 M224.267 373.467 C 224.120 373.613,224.011 374.108,224.025 374.567 C 224.049 375.333,224.082 375.323,224.434 374.442 C 224.826 373.463,224.744 372.989,224.267 373.467 " stroke="none" fill="#d24c4c" fill-rule="evenodd"></path></g></svg>