<?xml version="1.0" encoding="iso-8859-1"?>
<!-- Generator: Adobe Illustrator 19.0.0, SVG Export Plug-In . SVG Version: 6.00 Build 0)  -->
<svg version="1.1" id="Capa_1" xmlns="http://www.w3.org/2000/svg" xmlns:xlink="http://www.w3.org/1999/xlink" x="0px" y="0px"
	 viewBox="0 0 480 480" style="enable-background:new 0 0 480 480;" xml:space="preserve">
<path style="fill:#FF8800;" d="M299.768,103.72l-9.656,72.424C288.901,185.221,281.158,192,272,192
	c-9.158,0-16.901-6.779-18.112-15.856l-9.656-72.424c-2.055-15.327,8.705-29.417,24.032-31.472c1.238-0.166,2.487-0.249,3.736-0.248
	c15.464-0.009,28.007,12.52,28.016,27.984C300.017,101.233,299.934,102.482,299.768,103.72z"/>
<path style="fill:#FADBB7;" d="M264,288h40v40h-40V288z"/>
<path style="fill:#E47700;" d="M112,392h256v80H112V392z"/>
<path style="fill:#A65A14;" d="M368,392l55.712-55.712c5.305-5.304,8.287-12.498,8.288-20C432,300.665,419.335,288,403.712,288
	c-7.502,0.001-14.696,2.983-20,8.288L288,392H368z"/>
<path style="fill:#33BC00;" d="M48,331.312v1.376C48,347.772,60.228,360,75.312,360h0h9.376C99.772,360,112,347.772,112,332.688l0,0
	v-1.376c0-7.243-2.878-14.19-8-19.312s-8-12.069-8-19.312C96,285.681,90.319,280,83.312,280h-6.624
	C69.681,280,64,285.681,64,292.688c0,7.243-2.878,14.19-8,19.312S48,324.069,48,331.312z"/>
<path style="fill:#A65A14;" d="M168,352v8c0,17.673,14.327,32,32,32h8c4.418,0,8-3.582,8-8v-8c0-17.673-14.327-32-32-32h-8
	C171.582,344,168,347.582,168,352z"/>
<path style="fill:#008100;" d="M154.912,225.376l34.744-34.744c4.243-4.244,6.625-9.999,6.624-16
	c0.004-12.495-10.121-22.628-22.616-22.632c-0.003,0-0.005,0-0.008,0h-9.368c0-17.673-14.327-32-32-32h-8l-4-4
	c-11.047-11.044-28.953-11.044-40,0c-11.044,11.047-11.044,28.953,0,40l4,4v8c0,17.673,14.327,32,32,32v9.376
	c0,12.495,10.129,22.624,22.624,22.624l0,0C144.913,232.001,150.668,229.619,154.912,225.376L154.912,225.376z"/>
<path style="fill:#FCE9CC;" d="M264,256h-12c-11.046,0-20,8.954-20,20s8.954,20,20,20h64c11.046,0,20-8.954,20-20s-8.954-20-20-20
	h-12v-8c0-11.046-8.954-20-20-20s-20,8.954-20,20V256z"/>
<path style="fill:#FDB62F;" d="M136,304v-8c0-17.673,14.327-32,32-32h8c4.418,0,8,3.582,8,8v8c0,17.673-14.327,32-32,32h-8
	C139.582,312,136,308.418,136,304z"/>
<path style="fill:#FF421D;" d="M408,161.6V160c-15.108,0-29.335,7.113-38.4,19.2c-6.231,8.309-9.6,18.414-9.6,28.8v16
	c0,8.837,7.163,16,16,16s16-7.163,16-16v-9.6c0.004-9.396,2.788-18.582,8-26.4S407.996,170.996,408,161.6z"/>
<path style="fill:#FDB62F;" d="M344,120h8c8.837,0,16,7.163,16,16l0,0c0,8.837-7.163,16-16,16h-8c-8.837,0-16-7.163-16-16l0,0
	C328,127.163,335.163,120,344,120z"/>
<path style="fill:#6CBBC7;" d="M192,88h8c8.837,0,16,7.163,16,16l0,0c0,8.837-7.163,16-16,16h-8c-8.837,0-16-7.163-16-16l0,0
	C176,95.163,183.163,88,192,88z"/>
<path style="fill:#FDB62F;" d="M169.6,56H168c0-15.108,7.113-29.335,19.2-38.4C195.509,11.369,205.614,8,216,8h16
	c8.837,0,16,7.163,16,16l0,0c0,8.837-7.163,16-16,16h-9.6c-9.396,0.004-18.582,2.788-26.4,8S178.996,55.996,169.6,56z"/>
<path d="M440,316.28c-0.004-20.041-16.254-36.285-36.295-36.281c-9.62,0.002-18.846,3.824-25.649,10.625L284.688,384H224v-8
	c-0.026-22.08-17.92-39.974-40-40h-8c-8.837,0-16,7.163-16,16v8c0.031,8.683,2.915,17.116,8.208,24H104v96h272v-84.688
	l53.368-53.376C436.197,335.148,440.026,325.909,440,316.28L440,316.28z M176,360v-8h8c13.255,0,24,10.745,24,24v8h-8
	C186.745,384,176,373.255,176,360z M360,464H120v-64h240V464z M418.056,330.624L364.688,384h-57.376l82.056-82.064
	c7.797-8.047,20.641-8.25,28.688-0.453c8.047,7.797,8.25,20.641,0.453,28.688C418.36,330.324,418.209,330.475,418.056,330.624
	L418.056,330.624z"/>
<path d="M392,312h16v16h-16V312z"/>
<path d="M360,344h16v16h-16V344z"/>
<path d="M120,332.688v-1.376c0.026-9.369-3.695-18.359-10.336-24.968c-3.635-3.613-5.674-8.53-5.664-13.656
	c-0.013-11.42-9.268-20.675-20.688-20.688h-6.624c-11.42,0.013-20.675,9.268-20.688,20.688c0.01,5.126-2.029,10.043-5.664,13.656
	c-6.641,6.609-10.362,15.599-10.336,24.968v1.376c0.022,19.493,15.819,35.29,35.312,35.312h9.376
	C104.181,367.978,119.978,352.181,120,332.688z M104,332.688c-0.013,10.66-8.652,19.299-19.312,19.312h-9.376
	c-10.66-0.013-19.299-8.652-19.312-19.312v-1.376c-0.01-5.126,2.029-10.043,5.664-13.656c6.641-6.609,10.362-15.599,10.336-24.968
	c0-2.589,2.099-4.688,4.688-4.688h6.624c2.589,0,4.688,2.099,4.688,4.688c-0.026,9.369,3.695,18.359,10.336,24.968
	c3.635,3.613,5.674,8.53,5.664,13.656L104,332.688z"/>
<path d="M76.288,163.312V168c0.024,19.001,13.389,35.373,32,39.2v2.176c-0.002,16.913,13.708,30.625,30.621,30.627
	c8.124,0.001,15.915-3.226,21.659-8.971l11.72-11.72l26.344,26.344l11.312-11.312L183.6,208l11.72-11.72
	c11.96-11.959,11.962-31.349,0.003-43.309c-5.746-5.747-13.541-8.974-21.667-8.971h-2.176c-3.827-18.611-20.199-31.976-39.2-32
	h-4.68l-1.656-1.656c-14.169-14.169-37.143-14.169-51.312,0s-14.169,37.143,0,51.312l0,0L76.288,163.312z M85.944,121.656
	c7.924-7.916,20.764-7.916,28.688,0l6.344,6.344h11.312c13.255,0,24,10.745,24,24v8h17.368c8.077-0.004,14.627,6.541,14.631,14.617
	c0.002,3.882-1.54,7.606-4.287,10.351l-11.72,11.72l-26.344-26.344l-11.312,11.312L160.976,208l-11.72,11.72
	c-5.72,5.708-14.984,5.699-20.693-0.021c-2.735-2.74-4.272-6.452-4.275-10.323V192h-8c-13.255,0-24-10.745-24-24v-11.312
	l-6.344-6.344C78.032,142.418,78.032,129.582,85.944,121.656z"/>
<path d="M284,220c-15.464,0-28,12.536-28,28h-4c-15.464,0-28,12.536-28,28s12.536,28,28,28h4v32h56v-32h4c15.464,0,28-12.536,28-28
	s-12.536-28-28-28h-4C312,232.536,299.464,220,284,220z M296,320h-24v-16h24V320z M316,264c6.627,0,12,5.373,12,12s-5.373,12-12,12
	h-64c-6.627,0-12-5.373-12-12s5.373-12,12-12h20v-16c0-6.627,5.373-12,12-12s12,5.373,12,12v16H316z"/>
<path d="M168,256c-22.08,0.026-39.974,17.92-40,40v8c0,8.837,7.163,16,16,16h8c22.08-0.026,39.974-17.92,40-40v-8
	c0-8.837-7.163-16-16-16H168z M176,280c0,13.255-10.745,24-24,24h-8v-8c0-13.255,10.745-24,24-24h8V280z"/>
<path d="M363.2,174.4c-7.249,9.704-11.177,21.487-11.2,33.6v16c0.042,10.134,6.445,19.15,16,22.528V264h16v-17.472
	c9.555-3.378,15.958-12.394,16-22.528v-9.6c-0.006-7.825,2.311-15.476,6.656-21.984C412.748,183.293,416,172.57,416,161.6V152h-8
	C390.383,152.041,373.803,160.331,363.2,174.4L363.2,174.4z M368,208c0.006-18.739,13.02-34.962,31.312-39.032
	c-0.989,5.216-3.019,10.178-5.968,14.592c-6.097,9.129-9.349,19.862-9.344,30.84v9.6c0,4.418-3.582,8-8,8s-8-3.582-8-8L368,208z"/>
<path d="M200.44,54.656c6.501-4.341,14.143-6.658,21.96-6.656h9.6c10.134-0.042,19.15-6.445,22.528-16H272V16h-17.472
	C251.15,6.445,242.134,0.042,232,0h-16c-30.928,0-56,25.072-56,56v8h9.6C180.578,64.006,191.311,60.754,200.44,54.656L200.44,54.656
	z M192,24c6.932-5.176,15.348-7.982,24-8h16c4.418,0,8,3.582,8,8s-3.582,8-8,8h-9.6c-10.984-0.009-21.723,3.243-30.856,9.344
	c-4.417,2.949-9.382,4.978-14.6,5.968C179.037,38.001,184.374,29.738,192,24L192,24z"/>
<path d="M264,48v16.936c-18.168,4.103-30.189,21.407-27.696,39.864l9.656,72.424c1.907,14.384,15.114,24.498,29.498,22.59
	c11.769-1.561,21.03-10.821,22.59-22.59l9.648-72.424c2.493-18.457-9.529-35.761-27.696-39.864V48L264,48z M291.84,102.664
	L288.464,128H272v16h14.328l-4.144,31.088c-0.741,5.624-5.901,9.583-11.526,8.842c-4.609-0.607-8.235-4.234-8.842-8.842L253.408,112
	H272V96h-19.496c2.213-10.799,12.762-17.759,23.561-15.546C286.344,82.56,293.237,92.265,291.84,102.664z"/>
<path d="M344,160h8c13.255,0,24-10.745,24-24s-10.745-24-24-24h-8c-13.255,0-24,10.745-24,24S330.745,160,344,160z M344,128h8
	c4.418,0,8,3.582,8,8s-3.582,8-8,8h-8c-4.418,0-8-3.582-8-8S339.582,128,344,128z"/>
<path d="M200,80h-8c-13.255,0-24,10.745-24,24s10.745,24,24,24h8c13.255,0,24-10.745,24-24S213.255,80,200,80z M200,112h-8
	c-4.418,0-8-3.582-8-8s3.582-8,8-8h8c4.418,0,8,3.582,8,8S204.418,112,200,112z"/>
<g>
</g>
<g>
</g>
<g>
</g>
<g>
</g>
<g>
</g>
<g>
</g>
<g>
</g>
<g>
</g>
<g>
</g>
<g>
</g>
<g>
</g>
<g>
</g>
<g>
</g>
<g>
</g>
<g>
</g>
</svg>
