<svg id="Layer_1" enable-background="new 0 0 512 512" height="512" viewBox="0 0 512 512" width="512" xmlns="http://www.w3.org/2000/svg"><g><path d="m344.897 439c-33.538-20.517-35.53-62-35.53-62h-106.723s-1.992 41.483-35.536 62z" fill="#d7d7d7"/><path d="m469.404 377h-426.808c-19.383 0-35.096-15.713-35.096-35.096v-262.808c0-19.383 15.713-35.096 35.096-35.096h426.808c19.383 0 35.096 15.713 35.096 35.096v262.808c0 19.383-15.713 35.096-35.096 35.096z" fill="#7b727b"/><path d="m469.404 44h-30c19.383 0 35.096 15.713 35.096 35.096v262.808c0 19.383-15.713 35.096-35.096 35.096h30c19.383 0 35.096-15.713 35.096-35.096v-262.808c0-19.383-15.713-35.096-35.096-35.096z" fill="#686169"/><path d="m131.5-20h249v437h-249z" fill="#d6faec" transform="matrix(0 1 -1 0 454.5 -57.5)"/><path d="m444.5 74h30v249h-30z" fill="#ccfae8"/><path d="m469.404 377h-426.808c-19.383 0-35.096-15.713-35.096-35.096v-18.904h497v18.904c0 19.383-15.713 35.096-35.096 35.096z" fill="#f8f7f7"/><path d="m474.5 323v18.904c0 19.383-15.713 35.096-35.096 35.096h30c19.383 0 35.096-15.713 35.096-35.096v-18.904z" fill="#efefef"/><path d="m377.77 468h-243.54c-3.441 0-6.23-2.789-6.23-6.23 0-12.576 10.194-22.77 22.77-22.77h210.46c12.576 0 22.77 10.194 22.77 22.77 0 3.441-2.789 6.23-6.23 6.23z" fill="#f8f7f7"/><path d="m361.23 439h-30c12.576 0 22.77 10.194 22.77 22.77 0 3.441-2.789 6.23-6.23 6.23h30c3.441 0 6.23-2.789 6.23-6.23 0-12.576-10.194-22.77-22.77-22.77z" fill="#efefef"/><path d="m234.953 263.857h-131.679c-8.842 0-16.01-7.168-16.01-16.01v-11.273c0-1.773 1.437-3.21 3.21-3.21h157.28c1.773 0 3.21 1.437 3.21 3.21v11.273c-.001 8.842-7.169 16.01-16.011 16.01z" fill="#e0925b"/><path d="m247.753 233.364h-30c1.773 0 3.21 1.437 3.21 3.21v11.273c0 8.842-7.168 16.01-16.01 16.01h30c8.842 0 16.01-7.168 16.01-16.01v-11.273c0-1.773-1.437-3.21-3.21-3.21z" fill="#d48145"/><path d="m247.757 205.364h-157.287c-1.814 0-3.266-1.497-3.209-3.31.444-14.159 7.001-68.91 81.852-68.91s81.408 54.752 81.852 68.91c.058 1.813-1.394 3.31-3.208 3.31z" fill="#e0925b"/><path d="m169.113 133.143c-5.344 0-10.329.288-15 .811 60.745 6.809 66.44 54.951 66.852 68.099.057 1.813-1.395 3.31-3.209 3.31h30c1.814 0 3.266-1.497 3.209-3.31-.443-14.158-7-68.91-81.852-68.91z" fill="#d48145"/><path d="m246.592 233.364h-154.957c-7.732 0-14-6.268-14-14 0-7.732 6.268-14 14-14h154.958c7.732 0 14 6.268 14 14-.001 7.732-6.269 14-14.001 14z" fill="#e07f5d"/><path d="m246.592 205.364h-30c7.732 0 14 6.268 14 14s-6.268 14-14 14h30c7.732 0 14-6.268 14-14s-6.268-14-14-14z" fill="#d06d4a"/><path d="m404.018 293.737c-7.881 2.555-16.34-1.763-18.895-9.643l-19.736-60.881c-2.555-7.881 1.763-16.34 9.643-18.895 7.881-2.555 16.34 1.763 18.895 9.643l19.736 60.881c2.555 7.881-1.763 16.34-9.643 18.895z" fill="#f8f7f7"/><ellipse cx="366.033" cy="176.564" fill="#e07f5d" rx="54.802" ry="72.547" transform="matrix(.951 -.308 .308 .951 -36.609 121.481)"/><path d="m343.661 107.553c-4.95 1.605-9.43 4.088-13.413 7.265 24.516 1.134 49.147 22.537 59.379 54.098s2.841 63.345-16.346 78.646c5.09.235 10.175-.382 15.124-1.987 28.791-9.334 42.115-47.797 29.76-85.911-12.356-38.114-45.713-61.445-74.504-52.111z" fill="#d06d4a"/><g><path d="m469.404 36.5h-426.808c-23.488 0-42.596 19.108-42.596 42.596v29.365c.344 9.931 14.659 9.923 15 0v-29.365c0-15.217 12.379-27.596 27.596-27.596h426.808c15.217 0 27.596 12.379 27.596 27.596v236.404h-15v-241.5c0-4.142-3.358-7.5-7.5-7.5h-437c-4.142 0-7.5 3.358-7.5 7.5v241.5h-15v-171.346c-.344-9.931-14.659-9.923-15 0v197.75c0 23.488 19.108 42.596 42.596 42.596h151.438c-2.301 11.735-9.18 33.818-29.144 47h-14.12c-16.691 0-30.27 13.579-30.27 30.27 0 7.571 6.159 13.73 13.73 13.73h243.54c7.571 0 13.73-6.159 13.73-13.73 0-16.691-13.579-30.27-30.27-30.27h-14.114c-19.964-13.184-26.841-35.273-29.14-47h9.947c9.931-.344 9.923-14.659 0-15h-285.327c-15.217 0-27.596-12.379-27.596-27.596v-11.404h482v11.404c0 15.217-12.379 27.596-27.596 27.596h-106.712c-9.931.344-9.923 14.659 0 15h106.711c23.488 0 42.596-19.108 42.596-42.596v-262.808c.001-23.488-19.107-42.596-42.595-42.596zm-92.956 424h-240.896c.647-7.828 7.226-14 15.218-14h210.46c7.992 0 14.57 6.172 15.218 14zm-73.747-76c1.687 10.476 6.729 30.473 21.584 47h-136.562c14.858-16.527 19.9-36.524 21.587-47zm-257.701-69v-234h422v234z"/><path d="m258.448 201.445c-.283-7.706-2.289-26.571-14.405-43.518-27.457-43.215-122.406-43.213-149.86 0-12.116 16.948-14.121 35.814-14.404 43.518-12.784 8.295-12.786 27.526-.015 35.827v10.574c0 12.963 10.547 23.51 23.51 23.51h131.679c12.963 0 23.51-10.546 23.51-23.51v-10.573c12.777-8.306 12.763-27.537-.015-35.828zm-173.313 17.919c0-3.584 2.916-6.5 6.5-6.5h154.958c8.605.306 8.599 12.697 0 13h-154.958c-3.584 0-6.5-2.916-6.5-6.5zm83.978-78.72c61.397 0 72.294 39.388 74.064 57.22h-148.128c1.769-17.83 12.663-57.22 74.064-57.22zm74.35 107.203c0 4.692-3.817 8.51-8.51 8.51h-131.679c-4.692 0-8.51-3.817-8.51-8.51v-6.983h148.699z"/><path d="m425.299 157.351c-2.554-7.878-5.999-15.343-10.238-22.188-2.181-3.521-6.803-4.606-10.325-2.427-3.521 2.181-4.608 6.804-2.427 10.325 18.28 28.158 17.448 72.115-5.089 89.354-.133.104-.265.208-.391.32-3.215 2.49-6.803 4.43-10.737 5.705-11.634 3.77-24.705 1.188-36.804-7.274-12.743-8.913-22.776-23.125-28.252-40.016-11.06-34.119.127-68.42 24.938-76.464 10.845-3.517 23.123-1.46 34.569 5.787 3.5 2.215 8.133 1.173 10.349-2.325 2.215-3.5 1.175-8.133-2.325-10.349-15.283-9.676-32.052-12.297-47.219-7.381-65.86 23.424-43.493 142.9 26.329 154.171l10.31 31.818c3.805 11.902 16.856 18.279 28.35 14.466 11.804-3.834 18.289-16.553 14.457-28.347l-10.349-31.911c18.549-18.226 25.323-50.97 14.854-83.264zm-18.772 119.806c1.277 3.932-.887 8.171-4.816 9.447-3.935 1.275-8.178-.895-9.456-4.827l-8.845-27.297c2.463-.406 4.903-.992 7.308-1.772 2.415-.783 4.724-1.761 6.946-2.882z"/></g></g></svg>