<svg id="svg" version="1.1" xmlns="http://www.w3.org/2000/svg" xmlns:xlink="http://www.w3.org/1999/xlink" width="400" height="400" viewBox="0, 0, 400,400"><g id="svgg"><path id="path0" d="M178.700 0.274 C 176.555 0.359,174.800 0.602,174.800 0.814 C 174.800 1.027,173.540 1.200,172.000 1.200 C 170.400 1.200,169.200 1.371,169.200 1.600 C 169.200 1.822,168.133 2.000,166.800 2.000 C 165.467 2.000,164.400 2.178,164.400 2.400 C 164.400 2.620,163.500 2.800,162.400 2.800 C 161.300 2.800,160.400 2.980,160.400 3.200 C 160.400 3.420,159.590 3.600,158.600 3.600 C 157.610 3.600,156.800 3.780,156.800 4.000 C 156.800 4.220,156.091 4.400,155.224 4.400 C 154.357 4.400,153.536 4.580,153.400 4.800 C 153.264 5.020,152.454 5.200,151.600 5.200 C 150.746 5.200,149.936 5.380,149.800 5.600 C 149.664 5.820,149.034 6.000,148.400 6.000 C 147.766 6.000,147.136 6.180,147.000 6.400 C 146.864 6.620,146.234 6.800,145.600 6.800 C 144.966 6.800,144.336 6.980,144.200 7.200 C 144.064 7.420,143.513 7.600,142.976 7.600 C 142.439 7.600,142.000 7.780,142.000 8.000 C 142.000 8.220,141.415 8.399,140.700 8.398 C 139.461 8.396,136.189 9.297,134.705 10.048 C 134.323 10.242,133.659 10.400,133.229 10.400 C 132.799 10.400,132.336 10.580,132.200 10.800 C 132.064 11.020,131.513 11.200,130.976 11.200 C 130.439 11.200,130.000 11.380,130.000 11.600 C 130.000 11.820,129.645 12.000,129.212 12.000 C 128.779 12.000,127.783 12.360,127.000 12.800 C 126.217 13.240,125.221 13.600,124.788 13.600 C 124.355 13.600,124.000 13.780,124.000 14.000 C 124.000 14.220,123.651 14.400,123.224 14.400 C 122.797 14.400,122.336 14.580,122.200 14.800 C 122.064 15.020,121.513 15.200,120.976 15.200 C 120.439 15.200,120.000 15.380,120.000 15.600 C 120.000 15.820,119.640 16.000,119.200 16.000 C 118.760 16.000,118.400 16.180,118.400 16.400 C 118.400 16.620,118.040 16.800,117.600 16.800 C 117.160 16.800,116.800 16.980,116.800 17.200 C 116.800 17.420,116.535 17.600,116.212 17.600 C 115.889 17.600,114.983 17.960,114.200 18.400 C 113.417 18.840,112.511 19.200,112.188 19.200 C 111.865 19.200,111.600 19.380,111.600 19.600 C 111.600 19.820,111.240 20.000,110.800 20.000 C 110.360 20.000,110.000 20.180,110.000 20.400 C 110.000 20.620,109.640 20.800,109.200 20.800 C 108.760 20.800,108.400 20.980,108.400 21.200 C 108.400 21.420,108.122 21.600,107.783 21.600 C 107.444 21.600,106.780 21.960,106.308 22.400 C 105.836 22.840,105.213 23.200,104.925 23.200 C 104.636 23.200,104.400 23.380,104.400 23.600 C 104.400 23.820,104.040 24.000,103.600 24.000 C 103.160 24.000,102.800 24.180,102.800 24.400 C 102.800 24.620,102.521 24.800,102.180 24.800 C 101.553 24.800,99.168 25.901,98.800 26.361 C 98.690 26.498,97.745 27.042,96.700 27.568 C 95.655 28.095,94.800 28.634,94.800 28.765 C 94.800 28.897,94.215 29.260,93.500 29.572 C 92.785 29.884,91.909 30.468,91.553 30.870 C 91.197 31.271,90.652 31.600,90.341 31.600 C 90.031 31.600,89.517 31.960,89.200 32.400 C 88.883 32.840,88.343 33.200,88.000 33.200 C 87.657 33.200,87.117 33.560,86.800 34.000 C 86.483 34.440,85.991 34.800,85.708 34.800 C 85.425 34.800,84.628 35.340,83.937 36.000 C 83.246 36.660,82.478 37.200,82.229 37.200 C 81.980 37.200,81.517 37.560,81.200 38.000 C 80.883 38.440,80.420 38.800,80.171 38.800 C 79.922 38.800,79.154 39.340,78.463 40.000 C 77.772 40.660,77.108 41.200,76.987 41.200 C 76.752 41.200,76.312 41.551,74.349 43.300 C 73.671 43.905,72.982 44.400,72.820 44.400 C 72.657 44.400,71.502 45.390,70.253 46.600 C 69.004 47.810,67.815 48.800,67.611 48.800 C 67.408 48.800,65.297 50.770,62.921 53.179 C 60.544 55.587,58.394 57.765,58.141 58.020 C 57.889 58.274,55.774 60.356,53.441 62.646 C 51.109 64.936,49.200 66.983,49.200 67.196 C 49.200 67.409,48.210 68.573,47.000 69.783 C 45.790 70.993,44.800 72.131,44.800 72.313 C 44.800 72.495,44.170 73.331,43.400 74.172 C 42.630 75.013,42.000 75.831,42.000 75.991 C 42.000 76.151,41.460 76.846,40.800 77.537 C 40.140 78.228,39.600 78.974,39.600 79.196 C 39.600 79.418,39.420 79.600,39.200 79.600 C 38.980 79.600,38.800 79.830,38.800 80.112 C 38.800 80.393,38.440 80.883,38.000 81.200 C 37.560 81.517,37.200 81.980,37.200 82.229 C 37.200 82.478,36.660 83.246,36.000 83.937 C 35.340 84.628,34.800 85.425,34.800 85.708 C 34.800 85.991,34.440 86.483,34.000 86.800 C 33.560 87.117,33.200 87.657,33.200 88.000 C 33.200 88.343,32.840 88.883,32.400 89.200 C 31.960 89.517,31.600 90.031,31.600 90.341 C 31.600 90.652,31.271 91.197,30.870 91.553 C 30.468 91.909,29.884 92.785,29.572 93.500 C 29.260 94.215,28.897 94.800,28.765 94.800 C 28.634 94.800,28.095 95.655,27.568 96.700 C 27.042 97.745,26.498 98.690,26.361 98.800 C 25.901 99.168,24.800 101.553,24.800 102.180 C 24.800 102.521,24.620 102.800,24.400 102.800 C 24.180 102.800,24.000 103.160,24.000 103.600 C 24.000 104.040,23.820 104.400,23.600 104.400 C 23.380 104.400,23.200 104.636,23.200 104.925 C 23.200 105.213,22.840 105.836,22.400 106.308 C 21.960 106.780,21.600 107.444,21.600 107.783 C 21.600 108.122,21.420 108.400,21.200 108.400 C 20.980 108.400,20.800 108.760,20.800 109.200 C 20.800 109.640,20.620 110.000,20.400 110.000 C 20.180 110.000,20.000 110.360,20.000 110.800 C 20.000 111.240,19.820 111.600,19.600 111.600 C 19.380 111.600,19.200 111.949,19.200 112.376 C 19.200 112.803,19.020 113.264,18.800 113.400 C 18.580 113.536,18.400 113.997,18.400 114.424 C 18.400 114.851,18.220 115.200,18.000 115.200 C 17.780 115.200,17.600 115.560,17.600 116.000 C 17.600 116.440,17.420 116.800,17.200 116.800 C 16.980 116.800,16.800 117.160,16.800 117.600 C 16.800 118.040,16.620 118.400,16.400 118.400 C 16.180 118.400,16.000 118.749,16.000 119.176 C 16.000 119.603,15.820 120.064,15.600 120.200 C 15.380 120.336,15.200 120.887,15.200 121.424 C 15.200 121.961,15.020 122.400,14.800 122.400 C 14.580 122.400,14.400 122.760,14.400 123.200 C 14.400 123.640,14.220 124.000,14.000 124.000 C 13.780 124.000,13.600 124.279,13.600 124.619 C 13.600 124.960,13.240 125.984,12.800 126.894 C 12.360 127.805,12.000 128.876,12.000 129.275 C 12.000 129.674,11.820 130.000,11.600 130.000 C 11.380 130.000,11.200 130.362,11.200 130.805 C 11.200 131.248,11.024 131.923,10.809 132.305 C 10.124 133.522,8.400 139.179,8.400 140.208 C 8.400 140.754,8.220 141.200,8.000 141.200 C 7.780 141.200,7.600 141.830,7.600 142.600 C 7.600 143.370,7.420 144.000,7.200 144.000 C 6.980 144.000,6.800 144.720,6.800 145.600 C 6.800 146.480,6.620 147.200,6.400 147.200 C 6.180 147.200,6.000 147.740,6.000 148.400 C 6.000 149.060,5.820 149.600,5.600 149.600 C 5.380 149.600,5.200 150.309,5.200 151.176 C 5.200 152.043,5.020 152.864,4.800 153.000 C 4.580 153.136,4.400 154.047,4.400 155.024 C 4.400 156.001,4.220 156.800,4.000 156.800 C 3.780 156.800,3.600 157.610,3.600 158.600 C 3.600 159.590,3.420 160.400,3.200 160.400 C 2.980 160.400,2.800 161.300,2.800 162.400 C 2.800 163.500,2.620 164.400,2.400 164.400 C 2.178 164.400,2.000 165.467,2.000 166.800 C 2.000 168.133,1.822 169.200,1.600 169.200 C 1.372 169.200,1.200 170.389,1.200 171.967 C 1.200 173.824,1.036 174.788,0.700 174.900 C -0.032 175.144,-0.032 224.856,0.700 225.100 C 1.036 225.212,1.200 226.176,1.200 228.033 C 1.200 229.611,1.372 230.800,1.600 230.800 C 1.822 230.800,2.000 231.867,2.000 233.200 C 2.000 234.533,2.178 235.600,2.400 235.600 C 2.620 235.600,2.800 236.500,2.800 237.600 C 2.800 238.700,2.980 239.600,3.200 239.600 C 3.420 239.600,3.600 240.410,3.600 241.400 C 3.600 242.390,3.780 243.200,4.000 243.200 C 4.220 243.200,4.400 244.100,4.400 245.200 C 4.400 246.300,4.580 247.200,4.800 247.200 C 5.020 247.200,5.200 247.819,5.200 248.576 C 5.200 249.333,5.380 250.064,5.600 250.200 C 5.820 250.336,6.000 251.067,6.000 251.824 C 6.000 252.581,6.180 253.200,6.400 253.200 C 6.620 253.200,6.800 253.830,6.800 254.600 C 6.800 255.370,6.980 256.000,7.200 256.000 C 7.420 256.000,7.600 256.540,7.600 257.200 C 7.600 257.860,7.780 258.400,8.000 258.400 C 8.220 258.400,8.400 258.936,8.400 259.592 C 8.400 260.776,10.062 266.368,10.809 267.695 C 11.024 268.077,11.200 268.752,11.200 269.195 C 11.200 269.638,11.380 270.000,11.600 270.000 C 11.820 270.000,12.000 270.362,12.000 270.805 C 12.000 271.248,12.180 271.968,12.400 272.405 C 12.620 272.842,12.980 273.558,13.200 273.995 C 13.420 274.432,13.600 275.062,13.600 275.395 C 13.600 275.728,13.780 276.000,14.000 276.000 C 14.220 276.000,14.400 276.439,14.400 276.976 C 14.400 277.513,14.580 278.064,14.800 278.200 C 15.020 278.336,15.200 278.797,15.200 279.224 C 15.200 279.651,15.380 280.000,15.600 280.000 C 15.820 280.000,16.000 280.360,16.000 280.800 C 16.000 281.240,16.180 281.600,16.400 281.600 C 16.620 281.600,16.800 281.960,16.800 282.400 C 16.800 282.840,16.980 283.200,17.200 283.200 C 17.420 283.200,17.600 283.639,17.600 284.176 C 17.600 284.713,17.780 285.264,18.000 285.400 C 18.220 285.536,18.400 285.997,18.400 286.424 C 18.400 286.851,18.546 287.200,18.725 287.200 C 18.904 287.200,19.298 287.830,19.600 288.600 C 19.902 289.370,20.296 290.000,20.475 290.000 C 20.654 290.000,20.800 290.360,20.800 290.800 C 20.800 291.240,20.980 291.600,21.200 291.600 C 21.420 291.600,21.600 291.960,21.600 292.400 C 21.600 292.840,21.780 293.200,22.000 293.200 C 22.220 293.200,22.400 293.560,22.400 294.000 C 22.400 294.440,22.580 294.800,22.800 294.800 C 23.020 294.800,23.200 295.036,23.200 295.325 C 23.200 295.613,23.560 296.236,24.000 296.708 C 24.440 297.180,24.800 297.760,24.800 297.997 C 24.800 298.629,26.843 302.578,27.251 302.733 C 27.443 302.807,27.600 303.044,27.600 303.261 C 27.600 303.478,28.140 304.441,28.800 305.400 C 29.460 306.359,30.000 307.337,30.000 307.572 C 30.000 307.807,30.150 308.000,30.332 308.000 C 30.515 308.000,30.919 308.495,31.230 309.100 C 31.540 309.705,32.111 310.491,32.497 310.847 C 32.884 311.203,33.200 311.748,33.200 312.059 C 33.200 312.369,33.560 312.883,34.000 313.200 C 34.440 313.517,34.800 314.097,34.800 314.488 C 34.800 314.880,34.980 315.200,35.200 315.200 C 35.722 315.200,35.722 318.278,35.200 318.600 C 34.980 318.736,34.800 319.467,34.800 320.224 C 34.800 320.981,34.620 321.600,34.400 321.600 C 34.180 321.600,34.000 322.320,34.000 323.200 C 34.000 324.080,33.820 324.800,33.600 324.800 C 33.380 324.800,33.200 325.430,33.200 326.200 C 33.200 326.970,33.020 327.600,32.800 327.600 C 32.580 327.600,32.400 328.129,32.400 328.776 C 32.400 329.423,32.220 330.064,32.000 330.200 C 31.780 330.336,31.600 331.067,31.600 331.824 C 31.600 332.581,31.420 333.200,31.200 333.200 C 30.980 333.200,30.800 333.920,30.800 334.800 C 30.800 335.680,30.620 336.400,30.400 336.400 C 30.180 336.400,30.000 337.019,30.000 337.776 C 30.000 338.533,29.820 339.264,29.600 339.400 C 29.380 339.536,29.200 340.166,29.200 340.800 C 29.200 341.434,29.020 342.064,28.800 342.200 C 28.580 342.336,28.400 342.966,28.400 343.600 C 28.400 344.234,28.220 344.864,28.000 345.000 C 27.780 345.136,27.600 345.856,27.600 346.600 C 27.600 347.344,27.420 348.064,27.200 348.200 C 26.980 348.336,26.800 348.889,26.800 349.429 C 26.800 349.969,26.636 350.723,26.436 351.105 C 25.945 352.043,24.800 357.259,24.800 358.557 C 24.800 359.131,24.620 359.600,24.400 359.600 C 24.180 359.600,24.000 360.129,24.000 360.776 C 24.000 361.423,23.820 362.064,23.600 362.200 C 23.380 362.336,23.200 363.067,23.200 363.824 C 23.200 364.581,23.020 365.200,22.800 365.200 C 22.560 365.200,22.400 366.800,22.400 369.200 C 22.400 371.600,22.560 373.200,22.800 373.200 C 23.020 373.200,23.200 373.426,23.200 373.703 C 23.200 374.273,25.822 376.800,26.413 376.800 C 26.626 376.800,26.800 376.980,26.800 377.200 C 26.800 377.440,28.400 377.600,30.800 377.600 C 33.200 377.600,34.800 377.440,34.800 377.200 C 34.800 376.980,35.430 376.800,36.200 376.800 C 36.970 376.800,37.600 376.620,37.600 376.400 C 37.600 376.180,38.230 376.000,39.000 376.000 C 39.770 376.000,40.400 375.853,40.400 375.674 C 40.400 375.494,41.705 375.130,43.300 374.864 C 48.359 374.021,48.803 373.919,49.027 373.556 C 49.148 373.360,49.766 373.200,50.400 373.200 C 51.034 373.200,51.664 373.020,51.800 372.800 C 51.936 372.580,52.656 372.400,53.400 372.400 C 54.144 372.400,54.864 372.220,55.000 372.000 C 55.136 371.780,55.766 371.600,56.400 371.600 C 57.034 371.600,57.664 371.420,57.800 371.200 C 57.936 370.980,58.566 370.800,59.200 370.800 C 59.834 370.800,60.464 370.620,60.600 370.400 C 60.736 370.180,61.467 370.000,62.224 370.000 C 62.981 370.000,63.600 369.820,63.600 369.600 C 63.600 369.380,64.320 369.200,65.200 369.200 C 66.080 369.200,66.800 369.020,66.800 368.800 C 66.800 368.580,67.419 368.400,68.176 368.400 C 68.933 368.400,69.664 368.220,69.800 368.000 C 69.936 367.780,70.577 367.600,71.224 367.600 C 71.871 367.600,72.400 367.420,72.400 367.200 C 72.400 366.980,73.030 366.800,73.800 366.800 C 74.570 366.800,75.200 366.620,75.200 366.400 C 75.200 366.180,75.920 366.000,76.800 366.000 C 77.680 366.000,78.400 365.820,78.400 365.600 C 78.400 365.380,79.019 365.200,79.776 365.200 C 80.533 365.200,81.264 365.020,81.400 364.800 C 81.536 364.580,82.357 364.400,83.224 364.400 C 84.091 364.400,84.800 364.580,84.800 364.800 C 84.800 365.020,85.120 365.200,85.512 365.200 C 85.903 365.200,86.483 365.560,86.800 366.000 C 87.117 366.440,87.657 366.800,88.000 366.800 C 88.343 366.800,88.883 367.160,89.200 367.600 C 89.517 368.040,90.057 368.400,90.400 368.400 C 90.743 368.400,91.283 368.760,91.600 369.200 C 91.917 369.640,92.329 370.000,92.516 370.000 C 92.703 370.000,93.641 370.540,94.600 371.200 C 95.559 371.860,96.522 372.400,96.739 372.400 C 96.956 372.400,97.193 372.535,97.267 372.700 C 97.447 373.105,101.389 375.200,101.971 375.200 C 102.225 375.200,102.820 375.560,103.292 376.000 C 103.764 376.440,104.387 376.800,104.675 376.800 C 104.964 376.800,105.200 376.980,105.200 377.200 C 105.200 377.420,105.560 377.600,106.000 377.600 C 106.440 377.600,106.800 377.780,106.800 378.000 C 106.800 378.220,107.145 378.400,107.567 378.400 C 107.988 378.400,108.393 378.537,108.467 378.704 C 108.540 378.871,110.220 379.789,112.200 380.745 C 114.180 381.700,116.113 382.643,116.495 382.841 C 116.877 383.038,117.462 383.200,117.795 383.200 C 118.128 383.200,118.400 383.380,118.400 383.600 C 118.400 383.820,118.760 384.000,119.200 384.000 C 119.640 384.000,120.000 384.147,120.000 384.328 C 120.000 384.508,120.900 384.900,122.000 385.200 C 123.100 385.500,124.000 385.892,124.000 386.072 C 124.000 386.253,124.272 386.400,124.605 386.400 C 124.938 386.400,125.568 386.580,126.005 386.800 C 126.442 387.020,127.158 387.380,127.595 387.600 C 128.032 387.820,128.737 388.000,129.161 388.000 C 129.586 388.000,129.993 388.140,130.067 388.312 C 130.292 388.839,139.153 391.600,140.620 391.600 C 141.379 391.600,142.000 391.780,142.000 392.000 C 142.000 392.220,142.450 392.400,143.000 392.400 C 143.550 392.400,144.000 392.580,144.000 392.800 C 144.000 393.020,144.630 393.200,145.400 393.200 C 146.170 393.200,146.800 393.380,146.800 393.600 C 146.800 393.820,147.419 394.000,148.176 394.000 C 148.933 394.000,149.664 394.180,149.800 394.400 C 149.936 394.620,150.667 394.800,151.424 394.800 C 152.181 394.800,152.800 394.980,152.800 395.200 C 152.800 395.420,153.700 395.600,154.800 395.600 C 155.900 395.600,156.800 395.780,156.800 396.000 C 156.800 396.220,157.520 396.400,158.400 396.400 C 159.280 396.400,160.000 396.580,160.000 396.800 C 160.000 397.020,160.990 397.200,162.200 397.200 C 163.410 397.200,164.400 397.380,164.400 397.600 C 164.400 397.822,165.467 398.000,166.800 398.000 C 168.133 398.000,169.200 398.178,169.200 398.400 C 169.200 398.628,170.389 398.800,171.967 398.800 C 173.824 398.800,174.788 398.964,174.900 399.300 C 175.144 400.032,224.856 400.032,225.100 399.300 C 225.212 398.964,226.176 398.800,228.033 398.800 C 229.611 398.800,230.800 398.628,230.800 398.400 C 230.800 398.178,231.867 398.000,233.200 398.000 C 234.533 398.000,235.600 397.822,235.600 397.600 C 235.600 397.380,236.500 397.200,237.600 397.200 C 238.700 397.200,239.600 397.020,239.600 396.800 C 239.600 396.580,240.410 396.400,241.400 396.400 C 242.390 396.400,243.200 396.220,243.200 396.000 C 243.200 395.780,243.909 395.600,244.776 395.600 C 245.643 395.600,246.464 395.420,246.600 395.200 C 246.736 394.980,247.647 394.800,248.624 394.800 C 249.601 394.800,250.400 394.620,250.400 394.400 C 250.400 394.180,250.940 394.000,251.600 394.000 C 252.260 394.000,252.800 393.820,252.800 393.600 C 252.800 393.380,253.419 393.200,254.176 393.200 C 254.933 393.200,255.664 393.020,255.800 392.800 C 255.936 392.580,256.566 392.400,257.200 392.400 C 257.834 392.400,258.464 392.220,258.600 392.000 C 258.736 391.780,259.283 391.600,259.815 391.600 C 260.826 391.600,266.492 389.868,267.695 389.191 C 268.077 388.976,268.752 388.800,269.195 388.800 C 269.638 388.800,270.000 388.620,270.000 388.400 C 270.000 388.180,270.362 388.000,270.805 388.000 C 271.248 388.000,271.968 387.820,272.405 387.600 C 272.842 387.380,273.558 387.020,273.995 386.800 C 274.432 386.580,275.062 386.400,275.395 386.400 C 275.728 386.400,276.000 386.220,276.000 386.000 C 276.000 385.780,276.360 385.600,276.800 385.600 C 277.240 385.600,277.600 385.420,277.600 385.200 C 277.600 384.980,278.039 384.800,278.576 384.800 C 279.113 384.800,279.664 384.620,279.800 384.400 C 279.936 384.180,280.397 384.000,280.824 384.000 C 281.251 384.000,281.600 383.820,281.600 383.600 C 281.600 383.380,281.960 383.200,282.400 383.200 C 282.840 383.200,283.200 383.020,283.200 382.800 C 283.200 382.580,283.560 382.400,284.000 382.400 C 284.440 382.400,284.800 382.220,284.800 382.000 C 284.800 381.780,285.160 381.600,285.600 381.600 C 286.040 381.600,286.400 381.420,286.400 381.200 C 286.400 380.980,286.850 380.800,287.400 380.800 C 287.950 380.800,288.400 380.620,288.400 380.400 C 288.400 380.180,288.760 380.000,289.200 380.000 C 289.640 380.000,290.000 379.820,290.000 379.600 C 290.000 379.380,290.360 379.200,290.800 379.200 C 291.240 379.200,291.600 379.020,291.600 378.800 C 291.600 378.580,291.920 378.400,292.312 378.400 C 292.703 378.400,293.283 378.040,293.600 377.600 C 293.917 377.160,294.497 376.800,294.888 376.800 C 295.280 376.800,295.600 376.620,295.600 376.400 C 295.600 376.180,295.960 376.000,296.400 376.000 C 296.840 376.000,297.200 375.820,297.200 375.600 C 297.200 375.380,297.479 375.200,297.820 375.200 C 298.447 375.200,300.832 374.099,301.200 373.639 C 301.310 373.502,302.255 372.958,303.300 372.432 C 304.345 371.905,305.200 371.366,305.200 371.235 C 305.200 371.103,305.785 370.740,306.500 370.428 C 307.215 370.116,308.091 369.532,308.447 369.130 C 308.803 368.729,309.348 368.400,309.659 368.400 C 309.969 368.400,310.483 368.040,310.800 367.600 C 311.117 367.160,311.657 366.800,312.000 366.800 C 312.343 366.800,312.883 366.440,313.200 366.000 C 313.517 365.560,314.025 365.200,314.328 365.200 C 314.631 365.200,315.383 364.660,316.000 364.000 C 316.617 363.340,317.369 362.800,317.672 362.800 C 317.975 362.800,318.483 362.440,318.800 362.000 C 319.117 361.560,319.607 361.200,319.888 361.200 C 320.170 361.200,320.400 361.020,320.400 360.800 C 320.400 360.580,320.588 360.400,320.818 360.400 C 321.048 360.400,321.686 359.950,322.236 359.400 C 322.786 358.850,323.370 358.400,323.534 358.400 C 323.698 358.400,324.628 357.680,325.600 356.800 C 326.572 355.920,327.522 355.200,327.710 355.200 C 327.898 355.200,328.929 354.300,330.000 353.200 C 331.071 352.100,332.130 351.200,332.353 351.200 C 332.576 351.200,334.703 349.230,337.079 346.821 C 339.456 344.413,341.606 342.235,341.859 341.980 C 342.111 341.726,344.226 339.644,346.559 337.354 C 348.891 335.064,350.800 333.017,350.800 332.804 C 350.800 332.591,351.790 331.427,353.000 330.217 C 354.210 329.007,355.200 327.871,355.200 327.693 C 355.200 327.514,355.920 326.572,356.800 325.600 C 357.680 324.628,358.400 323.698,358.400 323.534 C 358.400 323.370,358.850 322.786,359.400 322.236 C 359.950 321.686,360.400 321.048,360.400 320.818 C 360.400 320.588,360.580 320.400,360.800 320.400 C 361.020 320.400,361.200 320.170,361.200 319.888 C 361.200 319.607,361.560 319.117,362.000 318.800 C 362.440 318.483,362.800 318.020,362.800 317.771 C 362.800 317.522,363.340 316.754,364.000 316.063 C 364.660 315.372,365.200 314.575,365.200 314.292 C 365.200 314.009,365.560 313.517,366.000 313.200 C 366.440 312.883,366.800 312.343,366.800 312.000 C 366.800 311.657,367.160 311.117,367.600 310.800 C 368.040 310.483,368.400 309.969,368.400 309.659 C 368.400 309.348,368.729 308.803,369.130 308.447 C 369.532 308.091,370.116 307.215,370.428 306.500 C 370.740 305.785,371.103 305.200,371.235 305.200 C 371.366 305.200,371.905 304.345,372.432 303.300 C 372.958 302.255,373.502 301.310,373.639 301.200 C 374.099 300.832,375.200 298.447,375.200 297.820 C 375.200 297.479,375.380 297.200,375.600 297.200 C 375.820 297.200,376.000 296.840,376.000 296.400 C 376.000 295.960,376.180 295.600,376.400 295.600 C 376.620 295.600,376.800 295.364,376.800 295.075 C 376.800 294.787,377.160 294.164,377.600 293.692 C 378.040 293.220,378.400 292.556,378.400 292.217 C 378.400 291.878,378.580 291.600,378.800 291.600 C 379.020 291.600,379.200 291.240,379.200 290.800 C 379.200 290.360,379.380 290.000,379.600 290.000 C 379.820 290.000,380.000 289.640,380.000 289.200 C 380.000 288.760,380.180 288.400,380.400 288.400 C 380.620 288.400,380.800 288.135,380.800 287.812 C 380.800 287.489,381.160 286.583,381.600 285.800 C 382.040 285.017,382.400 284.111,382.400 283.788 C 382.400 283.465,382.580 283.200,382.800 283.200 C 383.020 283.200,383.200 282.840,383.200 282.400 C 383.200 281.960,383.380 281.600,383.600 281.600 C 383.820 281.600,384.000 281.240,384.000 280.800 C 384.000 280.360,384.180 280.000,384.400 280.000 C 384.620 280.000,384.800 279.460,384.800 278.800 C 384.800 278.140,384.980 277.600,385.200 277.600 C 385.420 277.600,385.600 277.240,385.600 276.800 C 385.600 276.360,385.780 276.000,386.000 276.000 C 386.220 276.000,386.400 275.645,386.400 275.212 C 386.400 274.779,386.760 273.783,387.200 273.000 C 387.640 272.217,388.000 271.221,388.000 270.788 C 388.000 270.355,388.180 270.000,388.400 270.000 C 388.620 270.000,388.800 269.638,388.800 269.195 C 388.800 268.752,388.976 268.077,389.191 267.695 C 389.938 266.368,391.600 260.776,391.600 259.592 C 391.600 258.936,391.780 258.400,392.000 258.400 C 392.220 258.400,392.400 257.871,392.400 257.224 C 392.400 256.577,392.580 255.936,392.800 255.800 C 393.020 255.664,393.200 255.034,393.200 254.400 C 393.200 253.766,393.380 253.136,393.600 253.000 C 393.820 252.864,394.000 252.133,394.000 251.376 C 394.000 250.619,394.180 250.000,394.400 250.000 C 394.620 250.000,394.800 249.291,394.800 248.424 C 394.800 247.557,394.980 246.736,395.200 246.600 C 395.420 246.464,395.600 245.643,395.600 244.776 C 395.600 243.909,395.780 243.200,396.000 243.200 C 396.220 243.200,396.400 242.390,396.400 241.400 C 396.400 240.410,396.580 239.600,396.800 239.600 C 397.020 239.600,397.200 238.700,397.200 237.600 C 397.200 236.500,397.380 235.600,397.600 235.600 C 397.822 235.600,398.000 234.533,398.000 233.200 C 398.000 231.867,398.178 230.800,398.400 230.800 C 398.627 230.800,398.800 229.627,398.800 228.080 C 398.800 226.437,398.998 225.162,399.300 224.860 C 399.689 224.471,399.800 218.897,399.800 199.713 C 399.800 180.352,399.693 175.031,399.300 174.900 C 398.964 174.788,398.800 173.824,398.800 171.967 C 398.800 170.389,398.628 169.200,398.400 169.200 C 398.178 169.200,398.000 168.133,398.000 166.800 C 398.000 165.467,397.822 164.400,397.600 164.400 C 397.380 164.400,397.200 163.500,397.200 162.400 C 397.200 161.300,397.020 160.400,396.800 160.400 C 396.580 160.400,396.400 159.590,396.400 158.600 C 396.400 157.610,396.220 156.800,396.000 156.800 C 395.780 156.800,395.600 156.001,395.600 155.024 C 395.600 154.047,395.420 153.136,395.200 153.000 C 394.980 152.864,394.800 152.043,394.800 151.176 C 394.800 150.309,394.620 149.600,394.400 149.600 C 394.180 149.600,394.000 149.071,394.000 148.424 C 394.000 147.777,393.820 147.136,393.600 147.000 C 393.380 146.864,393.200 146.133,393.200 145.376 C 393.200 144.619,393.020 144.000,392.800 144.000 C 392.580 144.000,392.400 143.370,392.400 142.600 C 392.400 141.830,392.220 141.200,392.000 141.200 C 391.780 141.200,391.600 140.754,391.600 140.208 C 391.600 139.179,389.876 133.522,389.191 132.305 C 388.976 131.923,388.800 131.248,388.800 130.805 C 388.800 130.362,388.620 130.000,388.400 130.000 C 388.180 130.000,388.000 129.638,388.000 129.195 C 388.000 128.752,387.820 128.032,387.600 127.595 C 387.380 127.158,387.020 126.442,386.800 126.005 C 386.580 125.568,386.400 124.938,386.400 124.605 C 386.400 124.272,386.220 124.000,386.000 124.000 C 385.780 124.000,385.600 123.640,385.600 123.200 C 385.600 122.760,385.420 122.400,385.200 122.400 C 384.980 122.400,384.800 121.860,384.800 121.200 C 384.800 120.540,384.620 120.000,384.400 120.000 C 384.180 120.000,384.000 119.640,384.000 119.200 C 384.000 118.760,383.820 118.400,383.600 118.400 C 383.380 118.400,383.200 118.040,383.200 117.600 C 383.200 117.160,383.020 116.800,382.800 116.800 C 382.580 116.800,382.400 116.535,382.400 116.212 C 382.400 115.889,382.040 114.983,381.600 114.200 C 381.160 113.417,380.800 112.511,380.800 112.188 C 380.800 111.865,380.620 111.600,380.400 111.600 C 380.180 111.600,380.000 111.240,380.000 110.800 C 380.000 110.360,379.820 110.000,379.600 110.000 C 379.380 110.000,379.200 109.640,379.200 109.200 C 379.200 108.760,379.020 108.400,378.800 108.400 C 378.580 108.400,378.400 108.164,378.400 107.875 C 378.400 107.587,378.040 106.964,377.600 106.492 C 377.160 106.020,376.800 105.356,376.800 105.017 C 376.800 104.678,376.620 104.400,376.400 104.400 C 376.180 104.400,376.000 104.040,376.000 103.600 C 376.000 103.160,375.820 102.800,375.600 102.800 C 375.380 102.800,375.200 102.521,375.200 102.180 C 375.200 101.553,374.099 99.168,373.639 98.800 C 373.502 98.690,372.958 97.745,372.432 96.700 C 371.905 95.655,371.366 94.800,371.235 94.800 C 371.103 94.800,370.771 94.294,370.497 93.675 C 370.224 93.056,369.640 92.164,369.200 91.692 C 368.760 91.220,368.400 90.596,368.400 90.305 C 368.400 90.014,368.040 89.517,367.600 89.200 C 367.160 88.883,366.800 88.389,366.800 88.103 C 366.800 87.122,362.487 83.200,361.409 83.200 C 360.854 83.200,360.400 83.020,360.400 82.800 C 360.400 82.580,359.410 82.400,358.200 82.400 C 356.990 82.400,356.000 82.580,356.000 82.800 C 356.000 83.020,355.588 83.200,355.085 83.200 C 354.460 83.200,354.151 83.451,354.111 83.993 C 354.078 84.429,353.588 85.249,353.022 85.815 C 349.604 89.232,349.935 92.233,354.486 99.087 C 355.979 101.334,357.200 103.287,357.200 103.425 C 357.200 103.563,357.539 104.154,357.953 104.738 C 359.868 107.438,368.800 124.473,368.800 125.426 C 368.800 125.509,369.250 126.561,369.801 127.765 C 371.875 132.298,375.498 142.424,377.185 148.400 C 377.464 149.390,377.840 150.650,378.021 151.200 C 378.595 152.951,380.736 162.114,381.152 164.602 C 381.373 165.921,381.817 168.530,382.140 170.400 C 382.463 172.270,382.925 175.600,383.168 177.800 C 383.411 180.000,383.787 183.420,384.004 185.400 C 386.386 207.155,381.273 244.393,373.238 263.800 C 372.180 266.355,371.872 267.069,371.553 267.695 C 371.359 268.077,371.200 268.567,371.200 268.785 C 371.200 269.002,370.660 270.359,370.000 271.800 C 369.340 273.241,368.800 274.501,368.800 274.600 C 368.800 275.384,360.959 290.602,358.964 293.691 C 358.434 294.512,358.000 295.281,358.000 295.401 C 358.000 295.820,349.834 307.829,347.256 311.200 C 344.800 314.413,341.657 318.361,341.205 318.800 C 341.092 318.910,339.659 320.530,338.019 322.400 C 334.199 326.758,326.758 334.199,322.400 338.019 C 320.530 339.659,318.910 341.100,318.800 341.221 C 318.548 341.501,313.815 345.228,310.400 347.837 C 306.277 350.986,294.446 358.800,293.800 358.800 C 293.735 358.800,292.538 359.492,291.141 360.338 C 288.220 362.106,277.469 367.516,274.800 368.561 C 273.810 368.949,272.370 369.539,271.600 369.874 C 270.830 370.208,269.795 370.643,269.300 370.841 C 268.805 371.038,267.995 371.362,267.500 371.560 C 267.005 371.757,265.970 372.136,265.200 372.400 C 264.430 372.664,263.440 373.036,263.000 373.225 C 249.313 379.116,219.393 384.427,200.092 384.391 C 180.642 384.355,155.609 380.229,140.206 374.522 C 139.329 374.197,137.259 373.481,135.606 372.930 C 133.953 372.380,132.429 371.766,132.220 371.565 C 132.011 371.364,131.604 371.200,131.316 371.200 C 131.027 371.200,130.028 370.854,129.096 370.431 C 113.933 363.558,107.557 360.125,97.899 353.634 C 87.060 346.350,87.196 346.392,80.400 348.230 C 78.310 348.795,74.980 349.683,73.000 350.202 C 69.217 351.195,66.323 351.977,62.500 353.039 C 61.235 353.390,59.570 353.828,58.800 354.012 C 58.030 354.196,56.770 354.529,56.000 354.751 C 53.201 355.559,51.371 356.060,50.000 356.396 C 49.230 356.584,47.095 357.122,45.256 357.592 C 41.044 358.667,41.234 358.991,42.804 353.400 C 43.051 352.520,43.409 351.170,43.600 350.400 C 43.791 349.630,44.126 348.370,44.346 347.600 C 44.565 346.830,45.117 344.805,45.572 343.100 C 47.190 337.042,48.010 333.963,48.769 331.100 C 49.191 329.505,49.835 327.120,50.199 325.800 C 53.920 312.314,54.102 313.679,47.223 303.410 C 39.706 292.189,33.549 280.699,29.159 269.700 C 28.255 267.434,27.975 266.739,27.628 265.900 C 27.002 264.383,25.141 259.071,24.791 257.800 C 24.609 257.140,23.896 254.710,23.206 252.400 C 17.477 233.218,14.558 208.218,15.999 190.663 C 16.831 180.529,17.258 176.136,17.602 174.200 C 17.798 173.100,18.169 170.850,18.428 169.200 C 20.474 156.162,25.389 139.269,30.588 127.400 C 30.877 126.740,31.628 125.030,32.257 123.600 C 34.141 119.313,39.372 109.228,41.556 105.671 C 42.680 103.839,43.600 102.174,43.600 101.971 C 43.600 101.767,43.780 101.600,44.000 101.600 C 44.220 101.600,44.400 101.358,44.400 101.062 C 44.400 100.766,44.760 100.198,45.200 99.800 C 45.640 99.402,46.000 98.914,46.000 98.716 C 46.000 98.117,52.220 89.381,55.766 85.000 C 71.350 65.748,88.615 51.126,110.482 38.660 C 112.542 37.486,121.648 32.938,124.200 31.808 C 125.080 31.419,126.914 30.583,128.275 29.950 C 129.636 29.318,130.943 28.800,131.180 28.800 C 131.417 28.800,131.923 28.634,132.305 28.432 C 132.687 28.230,134.080 27.672,135.400 27.193 C 136.720 26.714,138.160 26.171,138.600 25.987 C 139.040 25.803,140.120 25.438,141.000 25.175 C 141.880 24.913,142.993 24.550,143.474 24.369 C 146.380 23.277,157.862 20.276,163.000 19.265 C 178.204 16.275,187.838 15.426,203.200 15.724 C 215.294 15.958,221.745 16.497,230.200 17.981 C 231.300 18.174,233.280 18.509,234.600 18.726 C 242.473 20.019,257.840 24.389,265.800 27.597 C 266.240 27.774,267.230 28.149,268.000 28.430 C 268.770 28.711,270.530 29.449,271.910 30.070 C 273.291 30.692,274.500 31.200,274.597 31.200 C 276.091 31.200,295.227 41.696,301.631 46.027 C 305.585 48.702,306.711 49.200,308.800 49.200 C 310.892 49.200,313.260 48.180,314.483 46.751 C 314.859 46.312,315.534 45.925,315.983 45.891 C 316.550 45.849,316.800 45.549,316.800 44.915 C 316.800 44.412,316.980 44.000,317.200 44.000 C 317.420 44.000,317.600 43.010,317.600 41.800 C 317.600 40.590,317.420 39.600,317.200 39.600 C 316.980 39.600,316.800 39.146,316.800 38.591 C 316.800 37.460,312.856 33.200,311.809 33.200 C 311.474 33.200,311.200 33.050,311.200 32.868 C 311.200 32.685,310.705 32.280,310.100 31.968 C 309.495 31.655,308.682 31.114,308.293 30.764 C 307.905 30.414,307.095 29.874,306.493 29.565 C 305.892 29.255,305.310 28.898,305.200 28.771 C 305.090 28.644,304.190 28.104,303.200 27.570 C 302.210 27.037,301.310 26.496,301.200 26.369 C 300.843 25.956,298.292 24.800,297.739 24.800 C 297.442 24.800,297.200 24.620,297.200 24.400 C 297.200 24.180,296.855 24.000,296.433 24.000 C 296.012 24.000,295.607 23.865,295.533 23.700 C 295.366 23.324,293.236 22.025,292.300 21.729 C 291.915 21.607,291.600 21.348,291.600 21.153 C 291.600 20.959,291.240 20.800,290.800 20.800 C 290.360 20.800,290.000 20.620,290.000 20.400 C 290.000 20.180,289.640 20.000,289.200 20.000 C 288.760 20.000,288.400 19.820,288.400 19.600 C 288.400 19.380,288.040 19.200,287.600 19.200 C 287.160 19.200,286.800 19.020,286.800 18.800 C 286.800 18.580,286.350 18.400,285.800 18.400 C 285.250 18.400,284.800 18.220,284.800 18.000 C 284.800 17.780,284.440 17.600,284.000 17.600 C 283.560 17.600,283.200 17.420,283.200 17.200 C 283.200 16.980,282.840 16.800,282.400 16.800 C 281.960 16.800,281.600 16.620,281.600 16.400 C 281.600 16.180,281.240 16.000,280.800 16.000 C 280.360 16.000,280.000 15.820,280.000 15.600 C 280.000 15.380,279.460 15.200,278.800 15.200 C 278.140 15.200,277.600 15.020,277.600 14.800 C 277.600 14.580,277.240 14.400,276.800 14.400 C 276.360 14.400,276.000 14.220,276.000 14.000 C 276.000 13.780,275.728 13.600,275.395 13.600 C 275.062 13.600,274.387 13.392,273.895 13.138 C 271.969 12.142,271.583 12.000,270.805 12.000 C 270.362 12.000,270.000 11.820,270.000 11.600 C 270.000 11.380,269.638 11.200,269.195 11.200 C 268.752 11.200,268.077 11.024,267.695 10.809 C 266.478 10.124,260.821 8.400,259.792 8.400 C 259.246 8.400,258.800 8.220,258.800 8.000 C 258.800 7.780,258.170 7.600,257.400 7.600 C 256.630 7.600,256.000 7.420,256.000 7.200 C 256.000 6.980,255.381 6.800,254.624 6.800 C 253.867 6.800,253.136 6.620,253.000 6.400 C 252.864 6.180,252.223 6.000,251.576 6.000 C 250.929 6.000,250.400 5.820,250.400 5.600 C 250.400 5.380,249.691 5.200,248.824 5.200 C 247.957 5.200,247.136 5.020,247.000 4.800 C 246.864 4.580,245.953 4.400,244.976 4.400 C 243.999 4.400,243.200 4.220,243.200 4.000 C 243.200 3.780,242.480 3.600,241.600 3.600 C 240.720 3.600,240.000 3.420,240.000 3.200 C 240.000 2.980,239.010 2.800,237.800 2.800 C 236.590 2.800,235.600 2.620,235.600 2.400 C 235.600 2.178,234.533 2.000,233.200 2.000 C 231.867 2.000,230.800 1.822,230.800 1.600 C 230.800 1.372,229.611 1.200,228.033 1.200 C 226.221 1.200,225.211 1.033,225.105 0.715 C 224.945 0.234,188.451 -0.113,178.700 0.274 M332.000 56.400 C 332.000 56.620,331.733 56.800,331.408 56.800 C 331.082 56.800,330.695 57.279,330.548 57.864 C 330.401 58.449,329.860 59.664,329.345 60.564 C 326.490 65.556,330.061 71.600,335.865 71.600 C 338.259 71.600,342.853 69.471,343.523 68.051 C 344.105 66.819,344.169 60.400,343.600 60.400 C 343.380 60.400,343.200 60.162,343.200 59.872 C 343.200 59.582,342.750 58.953,342.200 58.475 C 341.650 57.997,341.200 57.424,341.200 57.203 C 341.200 56.981,340.840 56.800,340.400 56.800 C 339.960 56.800,339.600 56.620,339.600 56.400 C 339.600 56.161,338.067 56.000,335.800 56.000 C 333.533 56.000,332.000 56.161,332.000 56.400 M188.600 72.479 C 157.394 77.198,132.819 97.997,123.947 127.200 C 122.686 131.352,123.393 138.625,125.504 143.200 C 133.969 161.551,160.863 161.919,169.386 143.800 C 174.487 132.955,174.348 133.184,178.166 129.367 C 203.559 103.982,243.256 139.319,221.613 168.043 C 218.754 171.838,215.989 173.950,208.627 177.960 C 188.229 189.073,174.343 212.453,174.414 235.565 C 174.445 245.588,178.947 253.798,186.652 257.882 C 203.182 266.645,221.713 256.164,223.022 237.312 C 223.621 228.680,227.008 223.426,234.640 219.286 C 239.530 216.635,240.410 216.115,241.163 215.433 C 241.548 215.085,241.983 214.800,242.130 214.800 C 244.762 214.800,263.188 195.877,264.714 191.606 C 264.833 191.273,265.270 190.509,265.686 189.909 C 269.102 184.978,273.734 172.883,275.148 165.200 C 275.371 163.990,275.772 161.920,276.040 160.600 C 276.785 156.926,276.661 142.605,275.848 138.400 C 274.802 132.987,274.574 131.983,273.638 128.695 C 271.335 120.594,264.651 107.594,260.569 103.274 C 260.011 102.683,259.272 101.733,258.928 101.162 C 258.163 99.896,249.766 91.569,247.000 89.334 C 241.154 84.611,234.856 80.821,227.936 77.863 C 221.861 75.266,216.400 73.780,207.954 72.425 C 204.830 71.923,192.037 71.959,188.600 72.479 M210.763 88.452 C 235.142 93.712,255.199 113.802,260.230 138.000 C 265.794 164.764,251.943 193.182,227.085 206.000 C 216.068 211.681,208.041 223.544,208.004 234.200 C 207.979 241.368,204.511 245.600,198.662 245.600 C 192.426 245.600,189.282 241.408,189.730 233.687 C 190.812 215.034,200.749 199.898,218.390 190.033 C 224.120 186.829,228.963 183.113,231.814 179.734 C 232.896 178.450,233.897 177.310,234.038 177.200 C 235.234 176.264,239.442 168.303,240.731 164.536 C 248.401 142.120,236.661 117.325,214.200 108.500 C 211.154 107.304,210.341 107.063,205.894 106.039 C 203.446 105.475,193.899 105.471,191.131 106.032 C 174.659 109.372,163.265 118.891,156.701 134.800 C 154.460 140.230,151.385 142.373,146.549 141.878 C 140.593 141.268,137.351 135.996,139.196 129.922 C 140.545 125.481,145.695 115.173,147.152 114.000 C 147.288 113.890,147.843 113.170,148.385 112.401 C 161.505 93.770,188.095 83.561,210.763 88.452 M192.200 280.327 C 178.761 284.340,170.629 299.730,175.571 311.800 C 184.939 334.680,216.902 332.907,222.431 309.200 C 226.511 291.708,209.261 275.232,192.200 280.327 M202.635 295.718 C 211.265 300.205,208.161 312.838,198.440 312.791 C 190.414 312.753,186.688 302.930,192.546 297.253 C 195.034 294.841,199.610 294.145,202.635 295.718 " stroke="none" fill="#050504" fill-rule="evenodd"></path><path id="path1" d="M192.000 16.228 C 191.670 16.303,188.616 16.554,185.213 16.787 C 176.922 17.356,168.706 18.555,160.400 20.409 C 154.368 21.755,153.019 22.098,147.700 23.633 C 146.875 23.871,145.703 24.162,145.095 24.279 C 144.487 24.396,143.892 24.651,143.771 24.846 C 143.651 25.041,143.124 25.200,142.600 25.200 C 142.076 25.200,141.536 25.380,141.400 25.600 C 141.264 25.820,140.801 26.000,140.371 26.000 C 139.941 26.000,139.277 26.159,138.895 26.353 C 137.920 26.849,135.519 27.823,131.800 29.230 C 129.531 30.089,128.110 30.695,123.400 32.808 C 120.449 34.132,114.939 36.875,112.200 38.383 C 110.880 39.110,109.260 39.996,108.600 40.352 C 107.940 40.709,107.310 41.090,107.200 41.200 C 107.090 41.310,106.570 41.642,106.045 41.938 C 105.520 42.233,104.471 42.823,103.714 43.248 C 101.790 44.329,95.611 48.505,91.800 51.301 C 88.362 53.823,88.033 54.074,86.166 55.600 C 85.493 56.150,84.339 57.050,83.602 57.600 C 82.865 58.150,81.886 58.960,81.427 59.400 C 80.967 59.840,79.424 61.187,77.996 62.394 C 74.648 65.224,65.224 74.648,62.394 77.996 C 61.187 79.424,59.840 80.967,59.400 81.427 C 58.960 81.886,58.150 82.865,57.600 83.602 C 57.050 84.339,56.150 85.493,55.600 86.166 C 51.867 90.732,45.600 99.639,45.600 100.378 C 45.600 100.610,45.420 100.800,45.200 100.800 C 44.980 100.800,44.800 101.070,44.800 101.400 C 44.800 101.730,44.641 102.000,44.447 102.000 C 44.252 102.000,43.993 102.315,43.871 102.700 C 43.654 103.385,42.396 105.604,42.000 106.000 C 41.890 106.110,41.558 106.630,41.262 107.155 C 40.967 107.680,40.354 108.760,39.900 109.555 C 39.447 110.350,37.864 113.430,36.382 116.400 C 33.918 121.340,32.816 123.686,31.404 127.000 C 31.123 127.660,30.512 129.053,30.047 130.096 C 29.581 131.138,29.200 132.176,29.200 132.401 C 29.200 132.626,29.041 133.123,28.847 133.505 C 28.652 133.887,28.271 134.740,28.000 135.400 C 27.729 136.060,27.348 136.913,27.153 137.295 C 26.959 137.677,26.800 138.341,26.800 138.771 C 26.800 139.201,26.620 139.664,26.400 139.800 C 26.180 139.936,26.000 140.476,26.000 141.000 C 26.000 141.524,25.820 142.064,25.600 142.200 C 25.380 142.336,25.200 142.876,25.200 143.400 C 25.200 143.924,25.041 144.451,24.846 144.571 C 24.651 144.692,24.396 145.287,24.279 145.895 C 24.162 146.503,23.859 147.720,23.606 148.600 C 23.354 149.480,22.991 150.830,22.800 151.600 C 22.609 152.370,22.248 153.720,21.996 154.600 C 21.745 155.480,21.393 156.920,21.214 157.800 C 21.034 158.680,20.668 160.390,20.400 161.600 C 19.337 166.397,18.058 174.774,17.133 183.000 C 16.491 188.718,16.489 211.950,17.131 217.800 C 18.337 228.791,19.737 236.901,21.964 245.800 C 22.184 246.680,22.476 247.940,22.612 248.600 C 22.749 249.260,23.006 250.160,23.185 250.600 C 23.363 251.040,23.734 252.210,24.008 253.200 C 25.296 257.840,25.680 258.988,26.447 260.495 C 26.641 260.877,26.800 261.464,26.800 261.800 C 26.800 262.136,26.966 262.723,27.170 263.105 C 27.373 263.487,28.302 265.780,29.235 268.200 C 31.885 275.071,37.563 287.114,39.609 290.200 C 40.192 291.080,40.923 292.385,41.232 293.100 C 41.542 293.815,41.931 294.400,42.098 294.400 C 42.264 294.400,42.400 294.592,42.400 294.827 C 42.400 295.062,44.760 298.756,47.644 303.036 C 53.069 311.084,53.850 312.792,53.362 315.539 C 53.148 316.740,50.000 329.045,48.408 334.900 C 48.184 335.725,47.799 337.165,47.554 338.100 C 47.308 339.035,46.969 340.250,46.800 340.800 C 46.510 341.744,46.088 343.295,45.113 347.000 C 44.409 349.673,43.915 351.354,43.549 352.319 C 43.357 352.824,43.200 353.669,43.200 354.195 C 43.200 354.722,43.020 355.264,42.800 355.400 C 41.921 355.943,42.355 357.600,43.376 357.600 C 43.913 357.600,44.452 357.440,44.573 357.244 C 44.694 357.049,45.379 356.798,46.096 356.686 C 47.284 356.502,49.370 355.970,55.600 354.259 C 56.810 353.926,59.870 353.108,62.400 352.441 C 69.488 350.571,75.898 348.846,79.200 347.918 C 86.821 345.778,87.436 345.939,97.466 352.700 C 101.464 355.395,104.929 357.600,105.167 357.600 C 105.405 357.600,105.600 357.738,105.600 357.906 C 105.600 358.074,106.275 358.518,107.100 358.894 C 108.704 359.623,110.871 360.855,111.200 361.225 C 111.782 361.879,125.394 368.236,130.400 370.192 C 133.590 371.438,136.513 372.625,136.895 372.829 C 137.277 373.033,137.864 373.200,138.200 373.200 C 138.793 373.200,139.216 373.366,141.095 374.338 C 141.587 374.592,142.431 374.800,142.971 374.800 C 143.511 374.800,144.064 374.980,144.200 375.200 C 144.336 375.420,144.799 375.600,145.229 375.600 C 145.659 375.600,146.323 375.762,146.705 375.961 C 147.087 376.160,148.210 376.532,149.200 376.788 C 150.190 377.044,151.553 377.422,152.228 377.627 C 152.904 377.832,153.838 378.000,154.305 378.000 C 154.771 378.000,155.252 378.161,155.374 378.358 C 155.495 378.555,156.271 378.812,157.097 378.930 C 157.924 379.047,159.590 379.352,160.800 379.607 C 169.904 381.524,174.162 382.131,184.800 383.025 C 196.251 383.988,213.677 383.549,224.600 382.022 C 230.395 381.213,236.016 380.248,238.800 379.585 C 239.790 379.349,241.320 378.996,242.200 378.800 C 243.080 378.604,244.610 378.241,245.600 377.993 C 246.590 377.745,247.987 377.445,248.704 377.327 C 249.421 377.208,250.106 376.951,250.227 376.756 C 250.348 376.560,250.966 376.400,251.600 376.400 C 252.234 376.400,252.864 376.220,253.000 376.000 C 253.136 375.780,253.676 375.600,254.200 375.600 C 254.724 375.600,255.264 375.420,255.400 375.200 C 255.536 374.980,256.076 374.800,256.600 374.800 C 257.124 374.800,257.664 374.620,257.800 374.400 C 257.936 374.180,258.476 374.000,259.000 374.000 C 259.524 374.000,260.064 373.820,260.200 373.600 C 260.336 373.380,260.799 373.200,261.229 373.200 C 261.659 373.200,262.323 373.041,262.705 372.847 C 263.620 372.381,265.076 371.793,266.800 371.193 C 268.341 370.657,268.785 370.474,274.600 367.981 C 279.310 365.962,292.081 359.519,292.800 358.800 C 292.995 358.605,293.383 358.378,296.355 356.717 C 299.063 355.205,311.488 346.580,312.400 345.581 C 312.510 345.460,313.230 344.923,314.000 344.388 C 314.770 343.853,315.926 342.961,316.568 342.407 C 322.723 337.101,325.349 334.681,330.015 330.015 C 334.682 325.348,337.089 322.736,342.407 316.568 C 345.432 313.061,356.800 296.960,356.800 296.184 C 356.800 296.052,357.340 295.159,358.000 294.200 C 358.660 293.241,359.200 292.278,359.200 292.061 C 359.200 291.844,359.335 291.607,359.500 291.533 C 360.062 291.284,365.550 280.559,367.961 275.000 C 370.468 269.221,370.584 268.939,371.986 265.200 C 372.688 263.330,373.428 261.487,373.631 261.105 C 373.834 260.723,374.000 260.059,374.000 259.629 C 374.000 259.199,374.180 258.736,374.400 258.600 C 374.620 258.464,374.800 258.001,374.800 257.571 C 374.800 257.141,374.962 256.477,375.161 256.095 C 375.360 255.713,375.737 254.590,376.000 253.600 C 376.263 252.610,376.640 251.487,376.839 251.105 C 377.038 250.723,377.200 249.969,377.200 249.429 C 377.200 248.889,377.380 248.336,377.600 248.200 C 377.820 248.064,378.000 247.344,378.000 246.600 C 378.000 245.856,378.161 245.148,378.358 245.026 C 378.555 244.905,378.810 244.129,378.925 243.303 C 379.040 242.476,379.331 240.990,379.570 240.000 C 384.137 221.100,385.136 193.233,381.978 172.800 C 381.120 167.244,380.365 163.142,379.587 159.800 C 378.699 155.987,378.451 154.992,377.989 153.400 C 377.734 152.520,377.432 151.213,377.319 150.496 C 377.205 149.779,376.951 149.094,376.756 148.973 C 376.560 148.852,376.400 148.234,376.400 147.600 C 376.400 146.966,376.220 146.336,376.000 146.200 C 375.780 146.064,375.600 145.524,375.600 145.000 C 375.600 144.476,375.420 143.936,375.200 143.800 C 374.980 143.664,374.800 143.124,374.800 142.600 C 374.800 142.076,374.620 141.536,374.400 141.400 C 374.180 141.264,374.000 140.801,374.000 140.371 C 374.000 139.941,373.834 139.277,373.632 138.895 C 373.430 138.513,372.872 137.120,372.393 135.800 C 371.392 133.042,371.113 132.333,370.272 130.400 C 369.937 129.630,369.308 128.100,368.875 127.000 C 367.816 124.308,362.283 113.093,360.784 110.600 C 360.123 109.500,359.464 108.330,359.320 108.000 C 359.176 107.670,358.955 107.310,358.829 107.200 C 358.703 107.090,358.358 106.570,358.062 106.045 C 357.767 105.520,357.177 104.471,356.752 103.714 C 356.326 102.957,354.875 100.696,353.527 98.691 C 349.291 92.391,349.102 89.126,352.752 85.312 C 354.068 83.936,354.062 83.139,352.728 81.953 C 352.327 81.597,352.000 81.138,352.000 80.931 C 352.000 80.559,350.125 78.395,346.100 74.122 C 344.945 72.896,344.000 71.677,344.000 71.414 C 344.000 70.091,342.138 69.885,340.238 70.999 C 332.789 75.364,324.804 67.353,329.041 59.764 C 330.229 57.637,329.970 56.530,328.056 55.544 C 327.475 55.245,326.172 54.145,325.160 53.100 C 324.148 52.055,323.185 51.200,323.020 51.200 C 322.856 51.200,322.217 50.660,321.600 50.000 C 320.983 49.340,320.281 48.800,320.040 48.800 C 319.798 48.800,319.600 48.620,319.600 48.400 C 319.600 48.180,319.412 48.000,319.182 48.000 C 318.952 48.000,318.314 47.550,317.764 47.000 C 316.550 45.786,316.195 45.761,315.296 46.823 C 311.921 50.814,307.853 50.772,301.648 46.680 C 296.606 43.355,294.450 42.047,293.500 41.736 C 293.115 41.610,292.800 41.348,292.800 41.153 C 292.800 40.959,292.628 40.800,292.418 40.800 C 292.207 40.800,291.082 40.236,289.918 39.546 C 286.551 37.553,272.860 30.800,272.186 30.800 C 272.079 30.800,271.138 30.422,270.096 29.960 C 269.053 29.498,267.840 28.982,267.400 28.814 C 266.960 28.645,266.150 28.315,265.600 28.080 C 265.050 27.845,263.880 27.424,263.000 27.145 C 262.120 26.865,261.229 26.493,261.020 26.318 C 260.811 26.143,260.237 26.000,259.744 26.000 C 259.251 26.000,258.736 25.820,258.600 25.600 C 258.464 25.380,257.924 25.200,257.400 25.200 C 256.876 25.200,256.336 25.020,256.200 24.800 C 256.064 24.580,255.524 24.400,255.000 24.400 C 254.476 24.400,253.936 24.220,253.800 24.000 C 253.664 23.780,253.034 23.600,252.400 23.600 C 251.766 23.600,251.148 23.440,251.027 23.244 C 250.906 23.049,250.221 22.795,249.504 22.681 C 248.787 22.568,247.480 22.266,246.600 22.011 C 234.819 18.596,213.538 15.937,198.851 16.046 C 195.413 16.072,192.330 16.154,192.000 16.228 M209.400 72.034 C 210.940 72.260,212.753 72.614,213.428 72.822 C 214.104 73.030,215.041 73.200,215.510 73.200 C 215.979 73.200,216.776 73.361,217.281 73.558 C 217.787 73.755,219.010 74.136,220.000 74.404 C 221.847 74.904,223.272 75.425,224.495 76.047 C 224.877 76.241,225.552 76.400,225.995 76.400 C 226.438 76.400,226.800 76.580,226.800 76.800 C 226.800 77.020,227.115 77.202,227.500 77.205 C 232.220 77.237,250.076 90.050,257.597 98.800 C 258.070 99.350,258.849 100.253,259.328 100.807 C 263.913 106.102,269.489 115.538,271.970 122.200 C 272.462 123.520,273.030 124.913,273.232 125.295 C 273.434 125.677,273.600 126.341,273.600 126.771 C 273.600 127.201,273.760 127.652,273.956 127.773 C 274.151 127.894,274.408 128.579,274.527 129.296 C 274.645 130.013,274.946 131.410,275.196 132.400 C 275.446 133.390,275.824 135.100,276.037 136.200 C 276.500 138.592,277.572 151.601,277.355 152.188 C 277.271 152.415,277.026 154.670,276.809 157.200 C 276.593 159.730,276.240 162.700,276.026 163.800 C 275.395 167.042,274.887 169.307,274.457 170.800 C 274.235 171.570,273.937 172.650,273.794 173.200 C 273.650 173.750,273.386 174.560,273.207 175.000 C 273.028 175.440,272.664 176.430,272.400 177.200 C 270.529 182.650,265.863 191.376,262.226 196.229 C 254.569 206.445,246.961 213.050,235.260 219.639 C 227.003 224.289,224.334 228.303,223.582 237.200 C 222.669 248.017,217.878 255.234,208.800 259.468 C 203.478 261.950,194.198 262.192,189.905 259.961 C 189.523 259.762,189.038 259.600,188.827 259.600 C 187.215 259.600,181.111 254.750,178.480 251.379 C 173.657 245.200,172.513 233.067,175.597 220.800 C 175.846 219.810,176.149 218.503,176.271 217.895 C 176.393 217.287,176.651 216.692,176.846 216.571 C 177.041 216.451,177.200 216.034,177.200 215.645 C 177.200 214.719,178.819 210.705,181.027 206.157 C 183.248 201.580,185.839 197.659,189.983 192.600 C 193.323 188.523,202.141 180.897,205.534 179.150 C 206.120 178.848,206.690 178.511,206.800 178.401 C 207.000 178.200,209.805 176.671,211.497 175.840 C 211.990 175.598,212.395 175.265,212.397 175.100 C 212.399 174.935,212.593 174.800,212.828 174.800 C 216.428 174.800,226.400 161.725,226.400 157.005 C 226.400 156.478,226.580 155.936,226.800 155.800 C 227.355 155.457,227.310 145.802,226.745 144.028 C 223.808 134.818,218.444 128.337,210.146 123.972 C 208.921 123.327,207.665 122.800,207.354 122.800 C 207.043 122.800,206.477 122.636,206.095 122.435 C 203.340 120.989,191.469 120.995,190.574 122.442 C 190.452 122.639,190.013 122.800,189.598 122.800 C 188.699 122.800,183.236 125.572,181.455 126.932 C 176.873 130.430,173.605 134.943,171.414 140.800 C 169.613 145.614,163.006 154.000,161.014 154.000 C 160.713 154.000,160.407 154.135,160.333 154.300 C 160.140 154.734,156.827 156.400,156.157 156.400 C 155.845 156.400,155.277 156.559,154.895 156.753 C 152.632 157.902,146.028 158.409,143.428 157.634 C 138.690 156.220,136.461 155.406,135.538 154.752 C 134.954 154.338,134.304 154.000,134.093 154.000 C 133.557 154.000,128.295 148.872,127.251 147.332 C 125.850 145.267,124.000 141.571,124.000 140.839 C 124.000 140.466,123.849 139.989,123.665 139.780 C 122.104 138.008,122.315 130.477,124.079 125.000 C 125.431 120.805,129.421 111.966,130.098 111.667 C 130.264 111.593,130.400 111.357,130.400 111.142 C 130.400 109.469,137.939 99.648,143.405 94.200 C 147.969 89.651,156.567 82.800,157.712 82.800 C 157.825 82.800,159.062 82.120,160.459 81.290 C 161.857 80.459,163.450 79.582,164.000 79.340 C 164.550 79.099,165.900 78.496,167.000 78.000 C 168.100 77.504,169.450 76.920,170.000 76.703 C 170.550 76.485,171.313 76.148,171.695 75.953 C 172.077 75.759,172.741 75.600,173.171 75.600 C 173.601 75.600,174.051 75.441,174.171 75.246 C 174.292 75.051,174.887 74.796,175.495 74.679 C 176.103 74.562,177.320 74.257,178.200 74.003 C 179.861 73.522,181.712 73.120,185.800 72.353 C 191.241 71.332,203.492 71.166,209.400 72.034 M202.954 279.232 C 208.467 280.677,210.307 281.505,213.900 284.155 C 217.397 286.734,220.384 290.950,222.433 296.200 C 226.054 305.475,220.526 320.434,211.780 325.030 C 210.911 325.487,209.840 326.051,209.400 326.283 C 197.814 332.412,181.541 326.558,176.089 314.300 C 174.296 310.269,173.969 308.648,173.969 303.800 C 173.969 298.901,174.245 297.555,176.143 293.200 C 180.336 283.576,193.455 276.741,202.954 279.232 " stroke="none" fill="#fbf3a3" fill-rule="evenodd"></path><path id="path2" d="M191.400 88.074 C 186.760 88.767,181.153 90.015,180.620 90.473 C 180.411 90.653,179.837 90.800,179.344 90.800 C 178.851 90.800,178.336 90.980,178.200 91.200 C 178.064 91.420,177.601 91.600,177.171 91.600 C 176.741 91.600,176.077 91.764,175.695 91.965 C 175.313 92.165,173.650 92.980,172.000 93.776 C 163.300 97.972,153.590 105.819,149.194 112.208 C 148.448 113.294,147.558 114.506,147.218 114.903 C 146.070 116.240,141.522 124.861,140.413 127.800 C 138.745 132.220,138.759 134.633,140.467 137.452 C 143.046 141.706,148.923 142.721,152.905 139.600 C 153.857 138.854,156.000 135.813,156.000 135.209 C 156.000 134.963,156.360 134.016,156.800 133.106 C 157.240 132.195,157.600 131.214,157.600 130.925 C 157.600 130.636,157.780 130.400,158.000 130.400 C 158.220 130.400,158.400 130.055,158.400 129.633 C 158.400 129.212,158.535 128.807,158.700 128.733 C 158.865 128.660,159.437 127.790,159.970 126.800 C 160.504 125.810,161.052 124.910,161.189 124.800 C 161.326 124.690,161.874 123.970,162.406 123.200 C 165.088 119.318,173.536 111.600,175.102 111.600 C 175.339 111.600,175.593 111.464,175.667 111.298 C 175.793 111.013,180.363 108.706,182.300 107.951 C 182.795 107.758,183.605 107.441,184.100 107.246 C 189.659 105.057,200.758 104.273,206.800 105.642 C 209.672 106.293,211.724 106.860,212.800 107.299 C 213.350 107.523,214.160 107.840,214.600 108.003 C 221.353 110.500,231.794 118.791,235.502 124.600 C 236.205 125.700,236.929 126.780,237.113 127.001 C 237.487 127.451,240.752 134.160,241.200 135.400 C 241.966 137.521,242.400 139.129,242.400 139.848 C 242.400 140.284,242.560 140.811,242.757 141.020 C 243.683 142.007,244.021 151.761,243.284 156.200 C 243.028 157.740,242.705 159.677,242.565 160.504 C 242.426 161.331,242.151 162.106,241.956 162.227 C 241.760 162.348,241.600 162.889,241.600 163.429 C 241.600 163.969,241.441 164.723,241.247 165.105 C 241.052 165.487,240.715 166.250,240.497 166.800 C 238.026 173.040,233.265 179.795,228.455 183.883 C 225.406 186.475,220.158 190.000,219.349 190.000 C 219.047 190.000,218.800 190.136,218.800 190.302 C 218.800 190.469,218.215 190.859,217.500 191.169 C 216.300 191.690,211.659 194.639,211.200 195.172 C 211.090 195.300,210.307 195.921,209.461 196.553 C 205.835 199.256,198.000 208.071,198.000 209.446 C 198.000 209.561,197.460 210.441,196.800 211.400 C 196.140 212.359,195.600 213.320,195.600 213.534 C 195.600 213.749,195.214 214.706,194.743 215.662 C 194.272 216.618,193.711 217.850,193.497 218.400 C 193.282 218.950,192.948 219.713,192.753 220.095 C 192.559 220.477,192.400 221.141,192.400 221.571 C 192.400 222.001,192.239 222.452,192.042 222.574 C 191.845 222.695,191.571 223.561,191.432 224.497 C 191.294 225.434,191.000 227.370,190.778 228.800 C 189.041 240.036,191.579 245.200,198.837 245.200 C 204.542 245.200,207.600 240.387,207.600 231.407 C 207.600 230.439,207.780 229.536,208.000 229.400 C 208.220 229.264,208.400 228.634,208.400 228.000 C 208.400 227.366,208.580 226.736,208.800 226.600 C 209.020 226.464,209.200 226.001,209.200 225.571 C 209.200 225.141,209.357 224.477,209.550 224.095 C 209.742 223.713,210.255 222.680,210.688 221.800 C 214.413 214.242,218.901 209.783,227.400 205.197 C 241.044 197.835,250.869 186.895,256.494 172.800 C 256.714 172.250,257.052 171.487,257.247 171.105 C 257.441 170.723,257.600 170.059,257.600 169.629 C 257.600 169.199,257.780 168.736,258.000 168.600 C 258.220 168.464,258.400 167.834,258.400 167.200 C 258.400 166.566,258.580 165.936,258.800 165.800 C 259.020 165.664,259.200 164.944,259.200 164.200 C 259.200 163.456,259.358 162.749,259.551 162.630 C 260.163 162.252,260.514 157.644,260.514 150.000 C 260.514 142.356,260.163 137.748,259.551 137.370 C 259.358 137.251,259.200 136.544,259.200 135.800 C 259.200 135.056,259.020 134.336,258.800 134.200 C 258.580 134.064,258.400 133.524,258.400 133.000 C 258.400 132.476,258.220 131.936,258.000 131.800 C 257.780 131.664,257.600 131.201,257.600 130.771 C 257.600 130.341,257.435 129.677,257.234 129.295 C 257.032 128.913,256.564 127.880,256.194 127.000 C 250.332 113.064,239.316 101.283,225.636 94.317 C 223.566 93.263,221.631 92.400,221.336 92.400 C 221.041 92.400,220.800 92.220,220.800 92.000 C 220.800 91.780,220.361 91.600,219.824 91.600 C 219.287 91.600,218.736 91.420,218.600 91.200 C 218.464 90.980,217.949 90.800,217.456 90.800 C 216.963 90.800,216.389 90.653,216.180 90.473 C 215.650 90.017,210.447 88.860,205.154 88.020 C 202.070 87.531,194.852 87.559,191.400 88.074 M194.721 296.254 C 193.318 296.995,190.800 299.945,190.800 300.848 C 190.800 301.236,190.620 301.664,190.400 301.800 C 188.263 303.121,191.559 309.795,195.222 311.565 C 203.539 315.583,211.066 304.444,204.571 297.729 C 202.561 295.651,197.345 294.870,194.721 296.254 " stroke="none" fill="#fb7c93" fill-rule="evenodd"></path><path id="path3" d="M335.300 71.876 C 335.685 71.976,336.315 71.976,336.700 71.876 C 337.085 71.775,336.770 71.693,336.000 71.693 C 335.230 71.693,334.915 71.775,335.300 71.876 M196.713 87.495 C 197.876 87.576,199.676 87.576,200.713 87.493 C 201.751 87.411,200.800 87.345,198.600 87.346 C 196.400 87.347,195.551 87.414,196.713 87.495 M188.000 88.056 C 174.116 90.908,163.957 96.152,154.812 105.188 C 151.195 108.762,150.016 110.085,148.385 112.401 C 147.843 113.170,147.288 113.890,147.152 114.000 C 145.695 115.173,140.545 125.481,139.196 129.922 C 137.351 135.996,140.593 141.268,146.549 141.878 C 151.385 142.373,154.460 140.230,156.701 134.800 C 163.265 118.891,174.659 109.372,191.131 106.032 C 193.715 105.508,203.546 105.460,205.554 105.961 C 206.349 106.160,207.900 106.525,209.000 106.772 C 231.198 111.763,247.500 137.413,242.280 159.136 C 240.740 165.542,236.188 175.518,234.038 177.200 C 233.897 177.310,232.896 178.450,231.814 179.734 C 228.963 183.113,224.120 186.829,218.390 190.033 C 200.749 199.898,190.812 215.034,189.730 233.687 C 189.282 241.408,192.426 245.600,198.662 245.600 C 204.511 245.600,207.979 241.368,208.004 234.200 C 208.041 223.544,216.068 211.681,227.085 206.000 C 254.150 192.044,267.652 160.312,258.618 131.893 C 252.685 113.228,236.731 96.886,218.140 90.430 C 214.438 89.145,207.236 87.601,205.200 87.656 L 203.400 87.705 205.600 88.065 C 210.488 88.865,215.686 90.048,216.180 90.473 C 216.389 90.653,216.963 90.800,217.456 90.800 C 217.949 90.800,218.464 90.980,218.600 91.200 C 218.736 91.420,219.287 91.600,219.824 91.600 C 220.361 91.600,220.800 91.780,220.800 92.000 C 220.800 92.220,221.041 92.400,221.336 92.400 C 221.631 92.400,223.566 93.263,225.636 94.317 C 239.316 101.283,250.332 113.064,256.194 127.000 C 256.564 127.880,257.032 128.913,257.234 129.295 C 257.435 129.677,257.600 130.341,257.600 130.771 C 257.600 131.201,257.780 131.664,258.000 131.800 C 258.220 131.936,258.400 132.476,258.400 133.000 C 258.400 133.524,258.580 134.064,258.800 134.200 C 259.020 134.336,259.200 135.056,259.200 135.800 C 259.200 136.544,259.358 137.251,259.551 137.370 C 260.163 137.748,260.514 142.356,260.514 150.000 C 260.514 157.644,260.163 162.252,259.551 162.630 C 259.358 162.749,259.200 163.456,259.200 164.200 C 259.200 164.944,259.020 165.664,258.800 165.800 C 258.580 165.936,258.400 166.566,258.400 167.200 C 258.400 167.834,258.220 168.464,258.000 168.600 C 257.780 168.736,257.600 169.199,257.600 169.629 C 257.600 170.059,257.441 170.723,257.247 171.105 C 257.052 171.487,256.714 172.250,256.494 172.800 C 250.869 186.895,241.044 197.835,227.400 205.197 C 218.901 209.783,214.413 214.242,210.688 221.800 C 210.255 222.680,209.742 223.713,209.550 224.095 C 209.357 224.477,209.200 225.141,209.200 225.571 C 209.200 226.001,209.020 226.464,208.800 226.600 C 208.580 226.736,208.400 227.366,208.400 228.000 C 208.400 228.634,208.220 229.264,208.000 229.400 C 207.780 229.536,207.600 230.439,207.600 231.407 C 207.600 240.387,204.542 245.200,198.837 245.200 C 191.579 245.200,189.041 240.036,190.778 228.800 C 191.000 227.370,191.294 225.434,191.432 224.497 C 191.571 223.561,191.845 222.695,192.042 222.574 C 192.239 222.452,192.400 222.001,192.400 221.571 C 192.400 221.141,192.559 220.477,192.753 220.095 C 192.948 219.713,193.282 218.950,193.497 218.400 C 193.711 217.850,194.272 216.618,194.743 215.662 C 195.214 214.706,195.600 213.749,195.600 213.534 C 195.600 213.320,196.140 212.359,196.800 211.400 C 197.460 210.441,198.000 209.561,198.000 209.446 C 198.000 208.071,205.835 199.256,209.461 196.553 C 210.307 195.921,211.090 195.300,211.200 195.172 C 211.659 194.639,216.300 191.690,217.500 191.169 C 218.215 190.859,218.800 190.469,218.800 190.302 C 218.800 190.136,219.047 190.000,219.349 190.000 C 220.158 190.000,225.406 186.475,228.455 183.883 C 233.265 179.795,238.026 173.040,240.497 166.800 C 240.715 166.250,241.052 165.487,241.247 165.105 C 241.441 164.723,241.600 163.969,241.600 163.429 C 241.600 162.889,241.760 162.348,241.956 162.227 C 242.151 162.106,242.426 161.331,242.565 160.504 C 242.705 159.677,243.028 157.740,243.284 156.200 C 244.021 151.761,243.683 142.007,242.757 141.020 C 242.560 140.811,242.400 140.284,242.400 139.848 C 242.400 139.129,241.966 137.521,241.200 135.400 C 240.752 134.160,237.487 127.451,237.113 127.001 C 236.929 126.780,236.205 125.700,235.502 124.600 C 232.434 119.792,223.165 111.923,217.400 109.232 C 213.213 107.278,211.593 106.729,206.800 105.642 C 200.689 104.257,189.457 105.073,184.000 107.299 C 183.450 107.523,182.640 107.841,182.200 108.005 C 180.511 108.633,175.794 111.011,175.667 111.298 C 175.593 111.464,175.339 111.600,175.102 111.600 C 173.536 111.600,165.088 119.318,162.406 123.200 C 161.874 123.970,161.326 124.690,161.189 124.800 C 161.052 124.910,160.504 125.810,159.970 126.800 C 159.437 127.790,158.865 128.660,158.700 128.733 C 158.535 128.807,158.400 129.212,158.400 129.633 C 158.400 130.055,158.220 130.400,158.000 130.400 C 157.780 130.400,157.600 130.636,157.600 130.925 C 157.600 131.214,157.240 132.195,156.800 133.106 C 156.360 134.016,156.000 134.963,156.000 135.209 C 156.000 135.813,153.857 138.854,152.905 139.600 C 148.923 142.721,143.046 141.706,140.467 137.452 C 138.759 134.633,138.745 132.220,140.413 127.800 C 141.522 124.861,146.070 116.240,147.218 114.903 C 147.558 114.506,148.448 113.294,149.194 112.208 C 153.590 105.819,163.300 97.972,172.000 93.776 C 173.650 92.980,175.313 92.165,175.695 91.965 C 176.077 91.764,176.741 91.600,177.171 91.600 C 177.601 91.600,178.064 91.420,178.200 91.200 C 178.336 90.980,178.851 90.800,179.344 90.800 C 179.837 90.800,180.411 90.649,180.620 90.464 C 180.829 90.280,182.080 89.900,183.400 89.621 C 184.720 89.342,186.322 88.953,186.960 88.757 C 187.598 88.561,188.858 88.379,189.760 88.353 C 190.662 88.327,191.940 88.168,192.600 88.000 C 194.434 87.533,190.298 87.583,188.000 88.056 M218.975 170.900 L 217.800 172.200 219.100 171.025 C 219.815 170.379,220.400 169.794,220.400 169.725 C 220.400 169.416,220.070 169.688,218.975 170.900 M15.728 196.000 C 15.728 197.430,15.801 198.015,15.889 197.300 C 15.978 196.585,15.978 195.415,15.889 194.700 C 15.801 193.985,15.728 194.570,15.728 196.000 M15.701 205.000 C 15.705 205.880,15.787 206.193,15.883 205.695 C 15.979 205.198,15.975 204.478,15.875 204.095 C 15.775 203.713,15.696 204.120,15.701 205.000 M197.700 261.087 C 198.305 261.178,199.295 261.178,199.900 261.087 C 200.505 260.995,200.010 260.920,198.800 260.920 C 197.590 260.920,197.095 260.995,197.700 261.087 M195.450 295.363 C 189.451 297.596,187.711 305.625,192.243 310.157 C 196.272 314.186,203.503 313.421,206.307 308.668 C 210.698 301.224,203.478 292.376,195.450 295.363 M202.758 296.431 C 211.835 301.965,204.760 316.173,195.222 311.565 C 191.559 309.795,188.263 303.121,190.400 301.800 C 190.620 301.664,190.800 301.236,190.800 300.848 C 190.800 297.077,198.906 294.082,202.758 296.431 M193.700 384.276 C 194.085 384.376,194.715 384.376,195.100 384.276 C 195.485 384.175,195.170 384.093,194.400 384.093 C 193.630 384.093,193.315 384.175,193.700 384.276 M203.700 384.287 C 204.305 384.378,205.295 384.378,205.900 384.287 C 206.505 384.195,206.010 384.120,204.800 384.120 C 203.590 384.120,203.095 384.195,203.700 384.287 " stroke="none" fill="#b65f6a" fill-rule="evenodd"></path><path id="path4" d="M186.600 16.044 C 184.840 16.230,181.420 16.577,179.000 16.816 C 176.580 17.055,173.790 17.409,172.800 17.602 C 171.810 17.796,170.100 18.078,169.000 18.230 C 167.900 18.381,167.213 18.583,167.474 18.677 C 167.735 18.772,170.435 18.483,173.474 18.035 C 190.551 15.516,210.199 15.508,226.558 18.011 C 231.993 18.842,233.075 18.942,232.709 18.576 C 232.283 18.150,223.405 16.957,215.000 16.196 C 208.100 15.571,191.908 15.485,186.600 16.044 M163.800 19.200 C 162.706 19.670,164.533 19.670,166.000 19.200 C 166.975 18.888,166.970 18.879,165.800 18.868 C 165.140 18.862,164.240 19.011,163.800 19.200 M234.600 19.253 C 238.805 20.227,240.422 20.511,240.621 20.312 C 240.909 20.024,235.391 18.789,234.051 18.841 C 233.241 18.873,233.367 18.968,234.600 19.253 M155.483 20.997 C 152.669 21.714,150.239 22.437,150.083 22.605 C 149.807 22.902,150.762 22.738,153.600 22.000 C 155.773 21.436,158.001 20.921,160.369 20.438 C 161.563 20.194,162.628 19.906,162.736 19.797 C 163.235 19.298,160.156 19.808,155.483 20.997 M242.400 20.869 C 243.170 21.083,244.520 21.445,245.400 21.675 C 246.280 21.905,247.481 22.268,248.068 22.482 C 248.656 22.696,249.466 22.805,249.868 22.725 C 250.695 22.560,242.954 20.378,241.767 20.441 C 241.345 20.463,241.630 20.656,242.400 20.869 M146.400 23.583 C 145.190 23.987,144.457 24.336,144.772 24.359 C 145.328 24.399,147.385 23.823,149.000 23.175 C 150.582 22.540,148.585 22.854,146.400 23.583 M251.000 23.200 C 251.136 23.420,251.766 23.600,252.400 23.600 C 253.034 23.600,253.664 23.780,253.800 24.000 C 253.936 24.220,254.476 24.400,255.000 24.400 C 255.524 24.400,256.064 24.580,256.200 24.800 C 256.336 25.020,256.876 25.200,257.400 25.200 C 257.924 25.200,258.464 25.380,258.600 25.600 C 258.736 25.820,259.251 26.000,259.744 26.000 C 260.237 26.000,260.811 26.143,261.020 26.318 C 261.229 26.493,262.120 26.865,263.000 27.145 C 263.880 27.424,265.050 27.845,265.600 28.080 C 266.150 28.315,266.960 28.645,267.400 28.814 C 267.840 28.982,269.053 29.498,270.096 29.960 C 271.138 30.422,272.079 30.800,272.186 30.800 C 272.860 30.800,286.551 37.553,289.918 39.546 C 291.082 40.236,292.207 40.800,292.418 40.800 C 292.628 40.800,292.800 40.959,292.800 41.153 C 292.800 41.348,293.115 41.610,293.500 41.736 C 294.450 42.047,296.606 43.355,301.648 46.680 C 307.176 50.325,309.713 50.713,313.276 48.457 C 314.888 47.435,317.070 45.221,315.796 45.898 C 315.353 46.133,314.637 46.717,314.204 47.196 C 311.675 49.990,304.946 49.668,302.426 46.631 C 302.138 46.284,301.757 46.000,301.579 46.000 C 301.402 46.000,300.209 45.307,298.928 44.459 C 292.888 40.463,280.144 33.613,273.600 30.845 C 262.826 26.289,250.288 22.047,251.000 23.200 M141.200 25.193 C 127.535 29.805,104.683 40.919,99.569 45.442 C 99.221 45.749,98.818 46.000,98.673 46.000 C 97.881 46.000,85.998 54.979,78.652 61.128 C 61.067 75.847,39.405 105.351,31.609 125.200 C 31.306 125.970,30.572 127.682,29.978 129.005 C 29.383 130.328,28.616 132.218,28.272 133.205 C 27.929 134.192,27.035 136.710,26.285 138.800 C 24.604 143.483,24.223 144.956,24.784 144.610 C 25.013 144.468,25.200 143.924,25.200 143.400 C 25.200 142.876,25.380 142.336,25.600 142.200 C 25.820 142.064,26.000 141.524,26.000 141.000 C 26.000 140.476,26.180 139.936,26.400 139.800 C 26.620 139.664,26.800 139.201,26.800 138.771 C 26.800 138.341,26.959 137.677,27.153 137.295 C 27.348 136.913,27.729 136.060,28.000 135.400 C 28.271 134.740,28.652 133.887,28.847 133.505 C 29.041 133.123,29.200 132.626,29.200 132.401 C 29.200 132.176,29.581 131.138,30.047 130.096 C 30.512 129.053,31.123 127.660,31.404 127.000 C 32.816 123.686,33.918 121.340,36.382 116.400 C 37.864 113.430,39.447 110.350,39.900 109.555 C 40.354 108.760,40.967 107.680,41.262 107.155 C 41.558 106.630,41.890 106.110,42.000 106.000 C 42.396 105.604,43.654 103.385,43.871 102.700 C 43.993 102.315,44.252 102.000,44.447 102.000 C 44.641 102.000,44.800 101.730,44.800 101.400 C 44.800 101.070,44.980 100.800,45.200 100.800 C 45.420 100.800,45.600 100.610,45.600 100.378 C 45.600 99.899,47.860 96.500,51.303 91.800 C 53.820 88.366,54.070 88.037,55.600 86.166 C 56.150 85.493,57.050 84.339,57.600 83.602 C 58.150 82.865,58.960 81.886,59.400 81.427 C 59.840 80.967,61.187 79.424,62.394 77.996 C 65.224 74.648,74.648 65.224,77.996 62.394 C 79.424 61.187,80.967 59.840,81.427 59.400 C 81.886 58.960,82.865 58.150,83.602 57.600 C 84.339 57.050,85.493 56.150,86.166 55.600 C 88.033 54.074,88.362 53.823,91.800 51.301 C 95.611 48.505,101.790 44.329,103.714 43.248 C 104.471 42.823,105.520 42.233,106.045 41.938 C 106.570 41.642,107.090 41.310,107.200 41.200 C 107.310 41.090,107.940 40.709,108.600 40.352 C 109.260 39.996,110.880 39.110,112.200 38.383 C 117.682 35.364,126.613 31.194,131.800 29.230 C 135.519 27.823,137.920 26.849,138.895 26.353 C 139.277 26.159,139.941 26.000,140.371 26.000 C 140.801 26.000,141.264 25.820,141.400 25.600 C 141.536 25.380,142.076 25.200,142.600 25.200 C 143.124 25.200,143.664 25.020,143.800 24.800 C 144.130 24.267,143.793 24.318,141.200 25.193 M329.072 59.712 C 328.476 60.860,328.011 62.340,328.040 63.000 C 328.091 64.188,328.095 64.186,328.382 62.800 C 328.541 62.030,329.083 60.627,329.585 59.683 C 330.088 58.738,330.422 57.888,330.328 57.794 C 330.234 57.700,329.669 58.563,329.072 59.712 M328.046 65.439 C 327.942 68.245,331.444 72.034,334.095 71.982 C 334.747 71.970,334.568 71.811,333.455 71.414 C 330.831 70.479,328.908 68.279,328.372 65.600 L 328.092 64.200 328.046 65.439 M339.400 70.829 C 338.080 71.472,337.360 71.995,337.800 71.992 C 338.240 71.989,339.500 71.452,340.600 70.800 C 343.137 69.295,342.521 69.310,339.400 70.829 M192.600 71.633 C 187.693 71.934,182.257 72.829,178.200 74.003 C 177.320 74.257,176.103 74.562,175.495 74.679 C 174.887 74.796,174.292 75.051,174.171 75.246 C 174.051 75.441,173.601 75.600,173.171 75.600 C 172.741 75.600,172.077 75.759,171.695 75.953 C 171.313 76.148,170.550 76.485,170.000 76.703 C 169.450 76.920,168.100 77.504,167.000 78.000 C 165.900 78.496,164.550 79.099,164.000 79.340 C 163.450 79.582,161.857 80.459,160.459 81.290 C 159.062 82.120,157.825 82.800,157.712 82.800 C 156.567 82.800,147.969 89.651,143.405 94.200 C 137.939 99.648,130.400 109.469,130.400 111.142 C 130.400 111.357,130.265 111.593,130.100 111.667 C 129.710 111.840,127.198 116.777,127.206 117.356 C 127.209 117.600,128.130 116.090,129.253 114.000 C 140.946 92.244,161.228 77.185,184.200 73.203 C 185.740 72.936,187.864 72.557,188.920 72.359 C 197.178 70.814,213.952 72.601,223.331 76.024 C 227.025 77.372,226.800 77.322,226.800 76.800 C 226.800 76.580,226.438 76.400,225.995 76.400 C 225.552 76.400,224.877 76.241,224.495 76.047 C 223.272 75.425,221.847 74.904,220.000 74.404 C 219.010 74.136,217.787 73.755,217.281 73.558 C 216.776 73.361,215.979 73.200,215.510 73.200 C 215.041 73.200,214.104 73.030,213.428 72.822 C 209.726 71.684,200.430 71.153,192.600 71.633 M230.698 78.992 C 248.772 87.557,264.369 104.005,271.390 121.902 C 272.016 123.499,272.613 124.720,272.716 124.617 C 273.864 123.469,264.443 106.714,259.328 100.807 C 258.849 100.253,258.070 99.350,257.597 98.800 C 250.149 90.134,232.049 77.116,227.600 77.224 C 227.270 77.232,228.664 78.028,230.698 78.992 M353.754 83.525 C 353.907 83.772,353.466 84.565,352.775 85.287 C 349.100 89.129,349.282 92.378,353.527 98.691 C 354.875 100.696,356.326 102.957,356.752 103.714 C 357.177 104.471,357.767 105.520,358.062 106.045 C 358.358 106.570,358.690 107.090,358.800 107.200 C 358.999 107.399,359.355 108.009,360.875 110.755 C 362.077 112.925,362.618 113.261,361.592 111.200 C 360.539 109.084,357.717 104.361,355.541 101.072 C 354.693 99.791,354.000 98.638,354.000 98.509 C 354.000 98.381,353.577 97.719,353.059 97.038 C 349.716 92.639,349.882 89.873,353.812 84.538 C 354.294 83.884,354.330 83.604,353.962 83.376 C 353.658 83.188,353.580 83.244,353.754 83.525 M362.467 113.500 C 362.540 113.665,363.834 116.320,365.342 119.400 C 366.850 122.480,368.439 125.900,368.873 127.000 C 369.307 128.100,369.937 129.630,370.272 130.400 C 371.113 132.333,371.392 133.042,372.393 135.800 C 372.872 137.120,373.430 138.513,373.632 138.895 C 373.834 139.277,374.000 139.941,374.000 140.371 C 374.000 140.801,374.180 141.264,374.400 141.400 C 374.620 141.536,374.800 142.076,374.800 142.600 C 374.800 143.124,374.980 143.664,375.200 143.800 C 375.420 143.936,375.600 144.476,375.600 145.000 C 375.600 145.524,375.780 146.064,376.000 146.200 C 376.220 146.336,376.400 146.966,376.400 147.600 C 376.400 148.234,376.580 148.864,376.800 149.000 C 378.580 150.100,371.721 131.629,365.770 119.300 C 364.151 115.945,362.715 113.200,362.580 113.200 C 362.444 113.200,362.393 113.335,362.467 113.500 M126.193 119.468 C 125.066 122.028,124.881 122.510,124.079 125.000 C 122.315 130.477,122.104 138.008,123.665 139.780 C 123.849 139.989,124.000 140.466,124.000 140.839 C 124.000 141.573,125.856 145.278,127.253 147.332 C 128.506 149.174,132.972 153.422,134.493 154.219 C 137.719 155.910,138.796 156.400,139.281 156.396 C 139.566 156.394,138.481 155.735,136.870 154.930 C 124.092 148.553,119.631 133.076,126.656 119.491 C 126.988 118.850,127.171 118.238,127.064 118.130 C 126.956 118.023,126.565 118.625,126.193 119.468 M197.100 121.093 C 198.035 121.177,199.565 121.177,200.500 121.093 C 201.435 121.009,200.670 120.940,198.800 120.940 C 196.930 120.940,196.165 121.009,197.100 121.093 M192.000 121.600 C 191.025 121.912,191.030 121.921,192.200 121.932 C 192.860 121.938,193.760 121.789,194.200 121.600 C 195.294 121.130,193.467 121.130,192.000 121.600 M203.000 121.600 C 203.440 121.789,204.250 121.944,204.800 121.944 C 205.712 121.944,205.729 121.913,205.000 121.600 C 204.560 121.411,203.750 121.256,203.200 121.256 C 202.288 121.256,202.271 121.287,203.000 121.600 M189.200 122.400 C 188.712 122.715,188.764 122.789,189.476 122.794 C 189.958 122.797,190.464 122.620,190.600 122.400 C 190.915 121.891,189.988 121.891,189.200 122.400 M206.200 122.400 C 206.336 122.620,206.842 122.797,207.324 122.794 C 208.036 122.789,208.088 122.715,207.600 122.400 C 206.812 121.891,205.885 121.891,206.200 122.400 M185.482 123.957 C 181.086 126.269,177.015 129.848,174.513 133.600 C 172.966 135.920,171.890 138.023,172.129 138.262 C 172.232 138.365,172.572 137.944,172.885 137.325 C 175.864 131.426,180.307 127.019,186.100 124.218 C 187.365 123.607,188.400 123.037,188.400 122.953 C 188.400 122.581,187.528 122.881,185.482 123.957 M208.400 122.981 C 208.400 123.081,209.075 123.475,209.900 123.856 C 215.874 126.618,222.110 132.964,224.800 139.019 C 226.128 142.010,226.314 142.497,226.618 143.800 C 226.772 144.460,226.981 144.777,227.081 144.503 C 227.585 143.137,223.667 134.880,221.419 132.569 C 221.189 132.332,220.457 131.519,219.793 130.761 C 216.830 127.380,208.400 121.624,208.400 122.981 M272.805 125.476 C 272.808 125.654,273.179 126.970,273.631 128.400 C 274.455 131.013,274.627 131.749,275.870 138.000 C 276.840 142.881,276.827 156.688,275.846 162.180 C 273.228 176.842,267.909 188.716,259.173 199.400 C 256.564 202.591,249.388 209.680,247.000 211.426 C 246.120 212.069,245.310 212.698,245.200 212.824 C 244.553 213.564,237.644 217.854,234.283 219.603 C 229.142 222.277,225.467 226.566,224.016 231.583 C 223.246 234.245,222.501 242.032,223.070 241.463 C 223.242 241.291,223.500 239.407,223.643 237.276 C 224.237 228.430,226.943 224.322,235.260 219.639 C 246.961 213.050,254.569 206.445,262.226 196.229 C 265.863 191.376,270.529 182.650,272.400 177.200 C 272.664 176.430,273.028 175.440,273.207 175.000 C 273.386 174.560,273.650 173.750,273.794 173.200 C 273.937 172.650,274.235 171.570,274.457 170.800 C 274.887 169.307,275.395 167.042,276.026 163.800 C 276.240 162.700,276.593 159.730,276.809 157.200 C 277.026 154.670,277.271 152.415,277.355 152.188 C 277.572 151.601,276.500 138.592,276.037 136.200 C 275.824 135.100,275.446 133.390,275.196 132.400 C 274.946 131.410,274.645 130.013,274.527 129.296 C 274.408 128.579,274.151 127.894,273.956 127.773 C 273.760 127.652,273.600 127.124,273.600 126.600 C 273.600 126.076,273.420 125.536,273.200 125.400 C 272.980 125.264,272.802 125.298,272.805 125.476 M170.990 140.606 C 170.579 141.703,169.909 143.206,169.502 143.947 C 169.094 144.688,168.858 145.391,168.977 145.510 C 169.284 145.817,172.082 139.646,171.893 139.080 C 171.808 138.823,171.401 139.510,170.990 140.606 M23.444 147.559 C 23.056 148.941,22.834 150.167,22.950 150.283 C 23.066 150.399,23.274 149.978,23.413 149.347 C 23.552 148.716,23.848 147.714,24.073 147.120 C 24.297 146.527,24.406 145.817,24.314 145.543 C 24.223 145.270,23.831 146.177,23.444 147.559 M227.300 150.200 C 227.301 155.009,227.328 155.194,227.653 152.658 C 227.857 151.075,227.856 148.877,227.652 147.458 C 227.340 145.286,227.299 145.605,227.300 150.200 M167.446 147.230 C 166.643 148.590,164.104 151.213,161.978 152.881 C 161.220 153.476,160.816 153.971,161.081 153.981 C 161.679 154.005,167.719 148.128,168.359 146.900 C 169.070 145.537,168.277 145.823,167.446 147.230 M377.225 150.281 C 377.211 150.766,377.361 151.576,377.558 152.081 C 377.958 153.105,378.545 155.287,379.152 158.000 C 379.374 158.990,379.677 160.340,379.827 161.000 C 379.976 161.660,380.171 162.006,380.260 161.769 C 380.434 161.302,378.309 152.034,377.652 150.400 C 377.271 149.450,377.249 149.444,377.225 150.281 M21.841 153.318 C 21.435 154.812,21.205 156.138,21.331 156.265 C 21.458 156.391,21.674 155.978,21.813 155.347 C 21.952 154.716,22.246 153.719,22.468 153.132 C 22.690 152.544,22.806 151.734,22.726 151.332 C 22.646 150.929,22.248 151.823,21.841 153.318 M157.600 155.247 C 156.390 155.867,155.665 156.380,155.988 156.387 C 156.760 156.404,160.384 154.687,160.393 154.300 C 160.403 153.869,160.062 153.985,157.600 155.247 M226.667 155.867 C 226.520 156.013,226.400 156.545,226.400 157.048 C 226.400 161.728,216.406 174.800,212.828 174.800 C 212.593 174.800,212.399 174.935,212.397 175.100 C 212.395 175.265,211.990 175.598,211.497 175.840 C 209.805 176.671,207.000 178.200,206.800 178.401 C 206.690 178.511,206.120 178.848,205.534 179.150 C 202.141 180.897,193.323 188.523,189.983 192.600 C 185.839 197.659,183.248 201.580,181.027 206.157 C 178.852 210.638,177.195 214.728,177.215 215.569 C 177.223 215.916,177.831 214.663,178.567 212.786 C 184.678 197.180,194.763 185.769,210.205 176.990 C 218.403 172.329,222.540 168.103,225.467 161.400 C 226.974 157.947,227.636 154.898,226.667 155.867 M140.084 156.592 C 141.457 158.089,150.208 158.301,154.757 156.947 C 156.483 156.434,154.491 156.515,151.777 157.068 C 148.674 157.702,144.558 157.503,140.800 156.539 C 140.250 156.397,139.928 156.421,140.084 156.592 M20.289 159.696 C 19.570 162.788,19.369 165.109,19.987 163.200 C 20.613 161.262,21.300 157.701,21.140 157.220 C 21.051 156.953,20.668 158.067,20.289 159.696 M380.446 163.600 C 380.427 164.370,380.587 165.270,380.800 165.600 C 381.287 166.354,381.287 164.722,380.800 163.200 C 380.507 162.284,380.477 162.317,380.446 163.600 M18.982 166.182 C 18.829 167.202,18.802 168.135,18.922 168.255 C 19.042 168.375,19.265 167.639,19.418 166.618 C 19.571 165.598,19.598 164.665,19.478 164.545 C 19.358 164.425,19.135 165.161,18.982 166.182 M381.280 168.000 C 381.280 168.770,381.424 169.850,381.600 170.400 C 381.890 171.305,381.920 171.267,381.920 170.000 C 381.920 169.230,381.776 168.150,381.600 167.600 C 381.310 166.695,381.280 166.733,381.280 168.000 M18.253 170.600 C 18.098 171.700,17.806 173.590,17.603 174.800 C 15.252 188.797,15.366 212.003,17.862 227.600 C 18.468 231.390,19.139 233.416,18.656 230.000 C 16.946 217.901,16.681 213.983,16.668 200.600 C 16.655 187.298,16.850 184.017,18.237 174.284 C 18.576 171.910,18.781 169.660,18.693 169.284 C 18.605 168.908,18.407 169.500,18.253 170.600 M382.087 173.000 C 382.083 173.880,382.224 175.050,382.400 175.600 C 382.843 176.982,382.843 174.340,382.400 172.600 C 382.110 171.458,382.094 171.478,382.087 173.000 M382.978 180.400 C 384.205 196.660,384.266 201.764,383.375 213.686 C 383.031 218.286,382.827 222.263,382.920 222.525 C 383.014 222.786,383.216 221.560,383.368 219.800 C 383.521 218.040,383.815 214.942,384.023 212.916 C 384.830 205.034,383.996 177.783,382.918 176.805 C 382.793 176.692,382.820 178.310,382.978 180.400 M176.645 216.843 C 172.390 230.483,173.136 244.533,178.480 251.379 C 181.111 254.750,187.215 259.600,188.827 259.600 C 189.038 259.600,189.523 259.762,189.905 259.961 C 197.497 263.907,210.370 260.797,217.149 253.380 C 219.853 250.421,222.836 244.725,222.777 242.632 C 222.764 242.174,222.341 242.988,221.837 244.441 C 213.918 267.285,181.197 266.139,174.994 242.800 C 173.757 238.145,174.406 227.234,176.360 219.832 C 176.820 218.089,177.111 216.578,177.008 216.474 C 176.904 216.370,176.741 216.536,176.645 216.843 M382.211 225.272 C 382.048 226.522,382.000 227.782,382.104 228.072 C 382.208 228.362,382.426 227.578,382.589 226.328 C 382.752 225.078,382.800 223.818,382.696 223.528 C 382.592 223.238,382.374 224.022,382.211 225.272 M381.411 230.475 C 381.249 231.506,381.202 232.586,381.306 232.875 C 381.410 233.164,381.627 232.556,381.789 231.525 C 381.951 230.494,381.998 229.414,381.894 229.125 C 381.790 228.836,381.573 229.444,381.411 230.475 M18.800 233.474 C 18.800 234.137,18.966 235.202,19.169 235.840 C 19.372 236.478,19.654 237.693,19.795 238.541 C 19.936 239.388,20.151 239.982,20.273 239.861 C 20.487 239.646,19.267 232.769,18.955 232.433 C 18.870 232.342,18.800 232.810,18.800 233.474 M380.599 235.059 C 380.171 237.676,379.527 240.556,379.155 241.519 C 378.960 242.024,378.800 242.959,378.800 243.595 C 378.800 244.232,378.620 244.864,378.400 245.000 C 378.180 245.136,378.000 245.856,378.000 246.600 C 378.000 247.344,377.820 248.064,377.600 248.200 C 377.380 248.336,377.211 248.932,377.225 249.524 C 377.250 250.571,377.261 250.575,377.614 249.695 C 378.595 247.254,381.450 234.117,381.080 233.747 C 380.954 233.621,380.738 234.212,380.599 235.059 M20.441 240.918 C 20.377 242.032,21.719 247.043,21.919 246.442 C 22.017 246.148,21.908 245.253,21.677 244.454 C 21.446 243.654,21.083 242.370,20.869 241.600 C 20.656 240.830,20.463 240.523,20.441 240.918 M22.034 247.800 C 22.072 249.166,22.738 250.442,22.766 249.200 C 22.778 248.650,22.613 247.930,22.400 247.600 C 22.080 247.105,22.016 247.140,22.034 247.800 M22.800 250.589 C 22.800 252.175,28.270 267.792,30.790 273.400 C 31.185 274.280,31.907 275.900,32.393 277.000 C 34.888 282.642,41.115 294.218,41.466 293.867 C 41.645 293.688,40.417 291.350,39.225 289.600 C 37.597 287.210,31.668 274.510,29.235 268.200 C 28.302 265.780,27.373 263.487,27.170 263.105 C 26.966 262.723,26.800 262.136,26.800 261.800 C 26.800 261.464,26.641 260.877,26.447 260.495 C 25.825 259.272,25.304 257.847,24.804 256.000 C 24.536 255.010,24.155 253.787,23.958 253.281 C 23.761 252.776,23.600 252.021,23.600 251.605 C 23.600 251.188,23.420 250.736,23.200 250.600 C 22.980 250.464,22.800 250.459,22.800 250.589 M376.694 251.200 C 376.584 251.530,376.276 252.610,376.008 253.600 C 375.741 254.590,375.360 255.713,375.161 256.095 C 374.962 256.477,374.800 257.141,374.800 257.571 C 374.800 258.001,374.620 258.464,374.400 258.600 C 374.180 258.736,374.000 259.199,374.000 259.629 C 374.000 260.059,373.834 260.723,373.631 261.105 C 373.428 261.487,372.688 263.330,371.986 265.200 C 368.638 274.123,360.619 291.036,359.500 291.533 C 359.335 291.607,359.200 291.844,359.200 292.061 C 359.200 292.278,358.660 293.241,358.000 294.200 C 357.340 295.159,356.800 296.052,356.800 296.184 C 356.800 296.960,345.432 313.061,342.407 316.568 C 337.089 322.736,334.682 325.348,330.015 330.015 C 325.349 334.681,322.723 337.101,316.568 342.407 C 315.926 342.961,314.770 343.853,314.000 344.388 C 313.230 344.923,312.510 345.460,312.400 345.581 C 311.488 346.580,299.063 355.205,296.355 356.717 C 293.383 358.378,292.995 358.605,292.800 358.800 C 292.081 359.519,279.310 365.962,274.600 367.981 C 268.785 370.474,268.341 370.657,266.800 371.193 C 265.076 371.793,263.620 372.381,262.705 372.847 C 262.323 373.041,261.659 373.200,261.229 373.200 C 260.799 373.200,260.336 373.380,260.200 373.600 C 260.064 373.820,259.524 374.000,259.000 374.000 C 258.476 374.000,257.936 374.180,257.800 374.400 C 257.664 374.620,257.124 374.800,256.600 374.800 C 256.076 374.800,255.536 374.980,255.400 375.200 C 255.264 375.420,254.724 375.600,254.200 375.600 C 253.676 375.600,253.136 375.780,253.000 376.000 C 252.864 376.220,252.234 376.400,251.600 376.400 C 250.966 376.400,250.336 376.580,250.200 376.800 C 249.769 377.497,255.649 375.882,261.800 373.614 C 267.972 371.338,272.274 369.595,276.200 367.780 C 286.502 363.017,292.704 359.681,298.862 355.590 C 300.179 354.716,301.336 354.000,301.433 354.000 C 301.774 354.000,306.257 350.805,311.643 346.724 C 336.560 327.845,357.386 301.364,369.153 273.600 C 372.711 265.204,377.379 251.883,377.059 251.039 C 376.963 250.783,376.810 250.850,376.694 251.200 M193.600 279.404 C 185.904 281.155,179.021 286.593,176.143 293.200 C 174.245 297.555,173.969 298.901,173.969 303.800 C 173.969 308.648,174.296 310.269,176.089 314.300 C 181.541 326.558,197.814 332.412,209.400 326.283 C 209.840 326.051,210.911 325.487,211.780 325.030 C 216.070 322.775,222.897 313.429,222.760 309.997 C 222.730 309.224,222.603 309.373,222.196 310.664 C 213.749 337.456,174.409 331.806,174.409 303.800 C 174.409 289.706,185.002 279.401,199.400 279.488 C 201.842 279.503,203.088 279.384,202.600 279.184 C 201.419 278.700,196.127 278.830,193.600 279.404 M205.600 280.417 C 207.937 281.225,208.705 281.372,208.259 280.926 C 207.818 280.484,205.071 279.610,204.200 279.634 C 203.760 279.646,204.390 279.998,205.600 280.417 M209.000 281.600 C 209.136 281.820,209.429 282.000,209.652 282.000 C 213.154 282.000,219.688 290.123,222.521 298.000 C 222.660 298.387,222.748 298.279,222.768 297.695 C 222.786 297.197,222.650 296.477,222.466 296.095 C 222.282 295.713,221.559 294.218,220.860 292.773 C 218.999 288.929,216.240 285.739,212.680 283.317 C 209.725 281.308,208.452 280.714,209.000 281.600 M42.660 296.300 C 44.130 298.853,47.286 303.612,49.650 306.838 C 50.713 308.288,51.943 310.268,52.383 311.238 C 52.920 312.421,53.185 312.721,53.191 312.152 C 53.196 311.685,50.770 307.690,47.800 303.273 C 44.830 298.857,42.400 295.053,42.400 294.822 C 42.400 294.590,42.212 294.400,41.983 294.400 C 41.754 294.400,42.058 295.255,42.660 296.300 M222.985 303.800 C 222.985 306.302,223.120 308.135,223.286 307.874 C 223.452 307.613,223.588 305.780,223.588 303.800 C 223.588 301.820,223.452 299.987,223.286 299.726 C 223.120 299.465,222.985 301.298,222.985 303.800 M52.060 319.000 C 51.560 320.980,50.970 323.230,50.749 324.000 C 50.528 324.770,50.191 326.030,50.000 326.800 C 49.809 327.570,49.474 328.830,49.254 329.600 C 48.857 330.994,47.893 334.581,46.433 340.100 C 45.534 343.495,44.364 347.794,43.192 352.000 C 41.870 356.748,41.712 358.543,42.643 358.258 C 43.847 357.889,48.069 356.754,49.600 356.388 C 50.370 356.204,51.630 355.874,52.400 355.654 C 53.170 355.435,55.150 354.897,56.800 354.459 C 58.450 354.021,60.880 353.365,62.200 353.002 C 63.520 352.638,66.291 351.908,68.358 351.379 C 70.426 350.849,72.211 350.323,72.325 350.208 C 72.705 349.828,71.371 349.993,69.373 350.573 C 68.288 350.888,65.240 351.710,62.600 352.400 C 59.960 353.090,56.810 353.926,55.600 354.259 C 49.370 355.970,47.284 356.502,46.096 356.686 C 45.379 356.798,44.694 357.049,44.573 357.244 C 44.452 357.440,43.913 357.600,43.376 357.600 C 42.355 357.600,41.921 355.943,42.800 355.400 C 43.020 355.264,43.200 354.722,43.200 354.195 C 43.200 353.669,43.361 352.824,43.558 352.319 C 43.966 351.273,44.475 349.469,46.019 343.600 C 46.280 342.610,46.631 341.350,46.800 340.800 C 46.969 340.250,47.293 339.080,47.521 338.200 C 47.748 337.320,48.132 335.880,48.375 335.000 C 50.739 326.420,53.203 316.520,53.098 316.020 C 53.027 315.679,52.560 317.020,52.060 319.000 M82.310 347.024 C 82.187 347.147,80.762 347.583,79.143 347.992 C 75.560 348.899,72.069 350.077,73.800 349.795 C 76.959 349.280,85.306 346.836,83.967 346.819 C 83.178 346.808,82.433 346.901,82.310 347.024 M88.447 347.560 C 89.462 347.957,91.082 348.852,92.047 349.548 C 105.316 359.127,120.549 367.247,135.800 372.872 C 141.259 374.886,145.699 376.293,151.260 377.773 C 155.622 378.933,155.741 378.951,155.400 378.400 C 155.264 378.180,154.771 378.000,154.305 378.000 C 153.838 378.000,152.904 377.832,152.228 377.627 C 151.553 377.422,150.190 377.044,149.200 376.788 C 148.210 376.532,147.087 376.160,146.705 375.961 C 146.323 375.762,145.659 375.600,145.229 375.600 C 144.799 375.600,144.336 375.420,144.200 375.200 C 144.064 374.980,143.511 374.800,142.971 374.800 C 142.431 374.800,141.632 374.620,141.195 374.400 C 140.758 374.180,140.042 373.820,139.605 373.600 C 139.168 373.380,138.536 373.200,138.200 373.200 C 137.864 373.200,137.277 373.033,136.895 372.829 C 136.513 372.625,133.590 371.438,130.400 370.192 C 125.394 368.236,111.782 361.879,111.200 361.225 C 110.871 360.855,108.704 359.623,107.100 358.894 C 106.275 358.518,105.600 358.074,105.600 357.906 C 105.600 357.738,105.409 357.600,105.175 357.600 C 104.942 357.600,101.482 355.395,97.488 352.700 C 89.295 347.172,88.647 346.793,87.454 346.819 C 86.921 346.830,87.294 347.109,88.447 347.560 M246.600 377.677 C 243.931 378.548,242.898 378.800,241.972 378.806 C 241.437 378.809,240.730 379.000,240.400 379.230 C 239.965 379.533,240.280 379.574,241.549 379.380 C 244.025 379.002,250.004 377.268,248.800 377.277 C 248.250 377.282,247.260 377.461,246.600 377.677 M156.800 379.200 C 158.330 379.690,159.558 379.690,158.800 379.200 C 158.470 378.987,157.660 378.827,157.000 378.846 C 155.824 378.879,155.820 378.886,156.800 379.200 M162.400 380.425 C 164.050 380.833,165.850 381.156,166.400 381.143 C 167.317 381.120,167.301 381.092,166.200 380.800 C 163.300 380.030,161.123 379.603,160.294 379.642 C 159.802 379.664,160.750 380.017,162.400 380.425 M237.000 380.000 C 236.271 380.313,236.288 380.344,237.200 380.344 C 237.750 380.344,238.560 380.189,239.000 380.000 C 239.729 379.687,239.712 379.656,238.800 379.656 C 238.250 379.656,237.440 379.811,237.000 380.000 M232.600 380.800 C 231.518 381.265,233.748 381.265,235.200 380.800 C 236.109 380.509,236.073 380.479,234.800 380.468 C 234.030 380.462,233.040 380.611,232.600 380.800 M168.800 381.600 C 169.350 381.776,170.430 381.920,171.200 381.920 C 172.467 381.920,172.505 381.890,171.600 381.600 C 171.050 381.424,169.970 381.280,169.200 381.280 C 167.933 381.280,167.895 381.310,168.800 381.600 M227.600 381.600 C 226.741 381.875,226.825 381.922,228.200 381.932 C 229.080 381.938,230.160 381.789,230.600 381.600 C 231.673 381.139,229.040 381.139,227.600 381.600 M173.800 382.400 C 174.460 382.568,175.810 382.705,176.800 382.705 C 178.409 382.705,178.473 382.673,177.400 382.400 C 176.740 382.232,175.390 382.095,174.400 382.095 C 172.791 382.095,172.727 382.127,173.800 382.400 M221.800 382.400 C 220.727 382.673,220.791 382.705,222.400 382.705 C 223.390 382.705,224.740 382.568,225.400 382.400 C 226.473 382.127,226.409 382.095,224.800 382.095 C 223.810 382.095,222.460 382.232,221.800 382.400 M179.264 382.989 C 180.572 384.339,219.023 384.323,220.359 382.972 C 220.491 382.838,218.080 382.879,215.000 383.064 C 207.756 383.499,190.853 383.496,184.200 383.058 C 181.340 382.870,179.119 382.839,179.264 382.989 " stroke="none" fill="#a39a66" fill-rule="evenodd"></path></g></svg>