<svg id="svg" version="1.1" xmlns="http://www.w3.org/2000/svg" xmlns:xlink="http://www.w3.org/1999/xlink" width="400" height="400" viewBox="0, 0, 400,400"><g id="svgg"><path id="path0" d="M229.595 43.960 C 222.980 45.294,216.400 53.031,216.400 59.475 C 216.400 73.730,237.714 69.426,240.782 54.552 C 242.212 47.622,236.807 42.505,229.595 43.960 M23.600 157.200 L 23.600 170.400 200.000 170.400 L 376.400 170.400 376.400 157.200 L 376.400 144.000 200.000 144.000 L 23.600 144.000 23.600 157.200 M69.600 256.000 L 69.600 293.600 94.800 293.600 L 120.000 293.600 120.000 256.000 L 120.000 218.400 94.800 218.400 L 69.600 218.400 69.600 256.000 M280.000 256.000 L 280.000 293.600 305.200 293.600 L 330.400 293.600 330.400 256.000 L 330.400 218.400 305.200 218.400 L 280.000 218.400 280.000 256.000 M210.200 220.780 C 208.880 220.957,207.485 221.233,207.100 221.393 C 206.437 221.670,206.400 225.338,206.400 290.443 L 206.400 359.200 221.000 359.200 L 235.600 359.200 235.600 300.620 C 235.600 248.367,235.531 241.788,234.965 239.720 C 234.616 238.444,234.184 236.811,234.005 236.091 C 233.599 234.456,230.363 227.600,229.998 227.600 C 229.850 227.600,229.520 227.143,229.265 226.584 C 226.993 221.597,219.998 219.468,210.200 220.780 M191.126 228.509 C 190.315 229.219,188.777 230.515,187.707 231.389 C 186.638 232.263,184.961 233.950,183.981 235.138 C 183.002 236.326,182.014 237.501,181.787 237.749 C 180.192 239.490,176.878 245.603,176.013 248.400 C 175.707 249.390,175.331 250.380,175.178 250.600 C 174.552 251.502,173.652 257.609,173.351 263.000 L 173.106 267.400 179.281 267.273 C 187.196 267.110,186.436 265.749,186.306 279.848 L 186.200 291.400 179.686 291.510 L 173.172 291.620 173.286 295.640 L 173.400 299.660 179.800 299.730 L 186.200 299.800 186.312 304.703 C 186.469 311.560,186.831 311.200,179.786 311.200 C 175.980 311.200,174.000 311.055,174.000 310.776 C 174.000 310.543,173.820 310.464,173.600 310.600 C 173.340 310.760,173.200 319.337,173.200 335.024 L 173.200 359.200 183.400 359.200 L 193.600 359.200 193.600 293.200 C 193.600 240.662,193.498 227.202,193.100 227.209 C 192.825 227.214,191.937 227.799,191.126 228.509 M225.957 267.748 C 226.280 268.137,226.382 271.659,226.306 279.848 L 226.200 291.400 220.100 291.510 L 214.000 291.621 214.000 279.677 C 214.000 273.108,214.120 267.613,214.267 267.467 C 214.821 266.912,225.476 267.169,225.957 267.748 M226.312 304.703 C 226.470 311.591,226.816 311.246,219.880 311.111 L 214.200 311.000 214.087 305.821 C 213.938 298.949,213.322 299.559,220.292 299.689 L 226.200 299.800 226.312 304.703 M31.692 379.900 L 31.800 387.800 200.000 387.800 L 368.200 387.800 368.308 379.900 L 368.417 372.000 200.000 372.000 L 31.583 372.000 31.692 379.900 " stroke="none" fill="#e1d68e" fill-rule="evenodd"></path><path id="path1" d="M194.600 12.432 C 183.365 13.080,169.085 16.297,160.996 20.002 C 159.557 20.661,158.223 21.200,158.031 21.200 C 157.838 21.200,156.628 21.765,155.341 22.456 C 154.053 23.147,151.920 24.272,150.600 24.956 C 149.280 25.640,148.140 26.335,148.067 26.500 C 147.993 26.665,147.761 26.800,147.551 26.800 C 147.341 26.800,145.601 27.857,143.685 29.148 C 129.278 38.855,117.437 51.799,109.789 66.200 C 107.560 70.400,107.421 70.676,106.897 72.000 C 106.680 72.550,106.096 73.900,105.600 75.000 C 104.147 78.225,104.093 78.372,102.457 83.600 C 100.806 88.879,99.600 93.755,99.600 95.151 C 99.600 95.979,99.726 95.989,111.500 96.094 L 123.400 96.200 123.400 102.000 L 123.400 107.800 80.300 107.902 L 37.200 108.004 37.200 120.002 L 37.200 132.000 200.200 132.000 L 363.200 132.000 363.200 120.000 L 363.200 108.000 310.300 107.994 C 281.205 107.991,257.170 107.842,256.888 107.663 C 256.504 107.419,256.404 105.956,256.488 101.769 L 256.600 96.200 278.700 96.097 C 303.401 95.981,301.218 96.288,300.368 93.046 C 300.131 92.141,299.759 90.680,299.541 89.800 C 298.517 85.655,296.728 79.862,296.337 79.420 C 296.151 79.211,296.000 78.822,296.000 78.555 C 296.000 76.861,289.376 63.839,285.742 58.389 C 276.368 44.330,265.359 33.973,251.200 25.895 C 248.413 24.306,242.307 21.200,241.967 21.200 C 241.776 21.200,240.467 20.672,239.058 20.027 C 230.899 16.290,217.328 13.152,206.933 12.599 C 204.550 12.472,201.970 12.315,201.200 12.250 C 200.430 12.185,197.460 12.266,194.600 12.432 M196.179 48.135 C 200.024 55.011,200.752 60.837,198.588 67.400 L 198.060 69.000 200.317 71.299 L 202.574 73.599 204.487 71.714 C 206.691 69.543,206.684 69.580,205.523 66.287 C 198.315 45.848,224.954 23.749,243.429 34.840 C 266.832 48.890,243.268 88.441,217.254 78.774 L 215.109 77.977 213.079 80.007 L 211.049 82.037 216.224 87.277 C 219.071 90.158,224.775 95.848,228.900 99.920 C 233.025 103.992,236.400 107.593,236.400 107.922 C 236.400 108.523,229.096 116.000,228.509 116.000 C 228.336 116.000,222.527 110.330,215.600 103.400 C 208.673 96.470,202.825 90.800,202.605 90.800 C 202.385 90.800,196.490 96.513,189.505 103.495 L 176.805 116.190 172.803 112.203 C 170.601 110.009,168.800 108.033,168.800 107.810 C 168.800 107.587,174.499 101.703,181.465 94.735 L 194.130 82.065 191.888 79.733 L 189.645 77.400 187.522 78.165 C 182.377 80.020,175.711 79.308,169.800 76.272 C 166.673 74.666,149.200 58.355,149.200 57.042 C 149.200 56.392,156.502 49.200,157.162 49.200 C 157.480 49.200,160.824 52.305,164.593 56.100 C 171.986 63.544,174.951 66.016,177.300 66.693 C 178.567 67.058,179.449 66.784,178.500 66.320 C 178.335 66.240,173.882 61.816,168.605 56.489 L 159.011 46.804 162.998 42.802 C 165.191 40.601,167.170 38.800,167.396 38.800 C 167.621 38.800,172.113 43.110,177.378 48.378 C 187.901 58.907,189.685 60.061,185.457 53.600 C 184.809 52.610,181.021 48.512,177.039 44.492 C 173.058 40.473,169.749 36.957,169.687 36.680 C 169.626 36.402,171.399 34.383,173.628 32.192 L 177.681 28.210 186.173 36.820 C 192.643 43.380,195.026 46.074,196.179 48.135 M145.111 101.900 L 145.000 107.800 138.200 107.800 L 131.400 107.800 131.289 101.900 L 131.179 96.000 138.200 96.000 L 145.221 96.000 145.111 101.900 M40.185 182.900 C 40.080 183.175,40.041 223.090,40.097 271.600 L 40.200 359.800 95.892 359.901 L 151.584 360.003 151.796 359.101 C 151.912 358.606,152.056 331.470,152.115 298.800 L 152.222 239.400 153.322 235.446 C 157.864 219.114,169.213 206.713,184.200 201.705 C 189.622 199.894,191.181 199.523,195.000 199.138 C 218.813 196.740,239.877 211.503,246.736 235.400 L 247.769 239.000 247.881 298.600 C 247.942 331.380,248.088 358.605,248.204 359.100 L 248.415 360.000 304.208 360.000 L 360.000 360.000 360.000 271.200 L 360.000 182.400 200.187 182.400 C 72.705 182.400,40.336 182.501,40.185 182.900 M131.902 206.331 C 132.300 206.584,132.382 216.828,132.302 256.225 L 132.200 305.800 95.244 305.902 C 68.270 305.977,58.140 305.882,57.744 305.553 C 56.971 304.912,56.928 206.577,57.700 206.265 C 58.541 205.926,131.365 205.990,131.902 206.331 M342.167 206.243 C 343.058 206.585,343.146 304.815,342.256 305.553 C 341.860 305.882,331.730 305.977,304.756 305.902 L 267.800 305.800 267.698 256.225 C 267.618 216.828,267.700 206.584,268.098 206.331 C 268.677 205.963,341.214 205.877,342.167 206.243 M190.200 212.193 C 177.900 215.295,168.167 225.746,164.489 239.800 C 163.856 242.221,163.186 356.690,163.791 359.105 L 164.018 360.010 178.909 359.905 L 193.800 359.800 193.901 285.700 L 194.002 211.600 193.101 211.644 C 192.605 211.669,191.300 211.915,190.200 212.193 M206.099 285.700 L 206.200 359.800 221.091 359.905 L 235.982 360.010 236.209 359.105 C 236.871 356.464,236.138 241.794,235.444 239.400 C 235.061 238.080,234.605 236.442,234.430 235.759 C 233.955 233.910,230.939 227.974,229.777 226.600 L 228.762 225.400 229.245 226.500 C 229.511 227.105,229.850 227.600,229.998 227.600 C 230.363 227.600,233.599 234.456,234.005 236.091 C 234.184 236.811,234.616 238.444,234.965 239.720 C 235.531 241.788,235.600 248.367,235.600 300.620 L 235.600 359.200 221.000 359.200 L 206.400 359.200 206.400 290.431 L 206.400 221.662 207.900 221.145 C 213.432 219.236,224.486 220.771,227.163 223.818 C 227.870 224.625,228.548 225.185,228.670 225.064 C 229.329 224.404,218.064 214.800,216.630 214.800 C 216.517 214.800,215.383 214.324,214.112 213.742 C 211.873 212.717,208.134 211.643,206.699 211.614 C 206.033 211.601,206.003 215.310,206.099 285.700 M193.600 293.200 L 193.600 359.200 183.400 359.200 L 173.200 359.200 173.200 335.024 C 173.200 319.337,173.340 310.760,173.600 310.600 C 173.820 310.464,174.000 310.543,174.000 310.776 C 174.000 311.055,175.980 311.200,179.786 311.200 C 186.831 311.200,186.469 311.560,186.312 304.703 L 186.200 299.800 179.800 299.730 L 173.400 299.660 173.286 295.630 C 173.199 292.555,173.294 291.600,173.686 291.600 C 174.095 291.600,174.177 289.269,174.088 280.156 C 174.008 271.955,174.106 268.554,174.437 268.156 C 174.920 267.574,183.192 267.341,185.111 267.855 L 186.023 268.099 185.911 279.812 C 185.850 286.254,185.935 291.441,186.100 291.339 C 186.718 290.956,186.453 268.142,185.824 267.620 C 185.417 267.282,183.467 267.180,179.177 267.271 L 173.106 267.400 173.351 263.000 C 173.652 257.609,174.552 251.502,175.178 250.600 C 175.331 250.380,175.707 249.390,176.013 248.400 C 176.878 245.603,180.192 239.490,181.787 237.749 C 182.014 237.501,183.002 236.326,183.981 235.138 C 184.961 233.950,186.638 232.263,187.707 231.389 C 188.777 230.515,190.315 229.219,191.126 228.509 C 191.937 227.799,192.825 227.214,193.100 227.209 C 193.498 227.202,193.600 240.662,193.600 293.200 M214.267 267.467 C 213.689 268.045,214.044 268.404,214.796 268.002 C 215.275 267.746,217.627 267.621,220.696 267.688 L 225.800 267.800 225.800 279.662 C 225.800 286.186,225.935 291.440,226.100 291.338 C 226.635 291.007,226.462 268.222,225.920 267.680 C 225.404 267.164,214.764 266.969,214.267 267.467 M214.267 299.889 C 214.161 300.060,216.763 300.146,220.049 300.080 L 226.024 299.960 225.912 305.080 L 225.800 310.200 219.900 310.200 C 212.146 310.200,212.157 310.959,219.913 311.111 C 226.811 311.246,226.470 311.588,226.312 304.703 L 226.200 299.800 220.330 299.689 C 217.102 299.629,214.373 299.719,214.267 299.889 M185.800 305.200 L 185.800 310.200 180.000 310.200 L 174.200 310.200 174.086 305.624 C 173.933 299.452,173.383 299.958,180.092 300.089 L 185.800 300.200 185.800 305.200 M107.911 326.900 L 108.021 332.800 79.653 332.800 C 54.155 332.800,51.261 332.736,51.043 332.167 C 50.415 330.530,50.786 321.648,51.500 321.231 C 51.963 320.960,61.610 320.852,80.000 320.911 L 107.800 321.000 107.911 326.900 M139.512 321.137 C 139.896 321.381,139.996 322.844,139.912 327.031 L 139.800 332.600 129.228 332.707 C 121.036 332.790,118.583 332.699,118.334 332.307 C 117.802 331.469,117.930 321.830,118.480 321.280 C 119.038 320.722,138.648 320.589,139.512 321.137 M317.512 321.137 C 317.896 321.381,317.996 322.844,317.912 327.031 L 317.800 332.600 289.300 332.703 L 260.800 332.805 260.800 327.069 C 260.800 323.915,260.920 321.213,261.067 321.067 C 261.453 320.681,316.902 320.750,317.512 321.137 M349.112 321.137 C 349.496 321.381,349.596 322.844,349.512 327.031 L 349.400 332.600 338.700 332.707 L 328.000 332.813 328.000 327.073 C 328.000 323.916,328.120 321.213,328.267 321.067 C 328.651 320.682,348.501 320.749,349.112 321.137 M72.608 339.300 C 72.731 339.795,72.779 342.450,72.716 345.200 L 72.600 350.200 62.249 350.307 C 49.733 350.436,50.800 350.983,50.800 344.431 C 50.800 337.833,49.740 338.400,62.072 338.400 L 72.385 338.400 72.608 339.300 M139.808 339.300 C 139.931 339.795,139.979 342.450,139.916 345.200 L 139.800 350.200 111.400 350.200 L 83.000 350.200 82.888 344.820 C 82.826 341.861,82.865 339.206,82.975 338.920 C 83.136 338.500,88.601 338.400,111.380 338.400 L 139.585 338.400 139.808 339.300 M282.208 339.300 C 282.331 339.795,282.379 342.450,282.316 345.200 L 282.200 350.200 271.600 350.200 L 261.000 350.200 260.888 344.820 C 260.826 341.861,260.865 339.206,260.975 338.920 C 261.132 338.512,263.410 338.400,271.580 338.400 L 281.985 338.400 282.208 339.300 M349.408 339.300 C 349.531 339.795,349.579 342.450,349.516 345.200 L 349.400 350.200 321.000 350.200 L 292.600 350.200 292.488 344.820 C 292.426 341.861,292.465 339.206,292.575 338.920 C 292.736 338.500,298.201 338.400,320.980 338.400 L 349.185 338.400 349.408 339.300 " stroke="none" fill="#cd3251" fill-rule="evenodd"></path><path id="path2" d="M185.800 0.273 C 184.260 0.365,182.829 0.612,182.620 0.820 C 182.411 1.029,181.196 1.200,179.920 1.200 C 178.640 1.200,177.600 1.379,177.600 1.600 C 177.600 1.820,176.891 2.000,176.024 2.000 C 175.157 2.000,174.336 2.180,174.200 2.400 C 174.064 2.620,173.243 2.800,172.376 2.800 C 171.509 2.800,170.800 2.980,170.800 3.200 C 170.800 3.420,170.080 3.600,169.200 3.600 C 168.320 3.600,167.600 3.780,167.600 4.000 C 167.600 4.220,167.060 4.400,166.400 4.400 C 165.740 4.400,165.200 4.580,165.200 4.800 C 165.200 5.020,164.660 5.200,164.000 5.200 C 163.340 5.200,162.800 5.380,162.800 5.600 C 162.800 5.820,162.260 6.000,161.600 6.000 C 160.940 6.000,160.400 6.180,160.400 6.400 C 160.400 6.620,159.950 6.800,159.400 6.800 C 158.850 6.800,158.400 6.980,158.400 7.200 C 158.400 7.420,158.040 7.600,157.600 7.600 C 157.160 7.600,156.800 7.756,156.800 7.948 C 156.800 8.139,156.192 8.394,155.449 8.515 C 154.706 8.635,153.323 9.109,152.374 9.567 C 151.426 10.025,150.414 10.400,150.125 10.400 C 149.836 10.400,149.600 10.580,149.600 10.800 C 149.600 11.020,149.240 11.200,148.800 11.200 C 148.360 11.200,148.000 11.380,148.000 11.600 C 148.000 11.820,147.655 12.000,147.233 12.000 C 146.812 12.000,146.407 12.135,146.333 12.300 C 146.260 12.465,145.300 13.047,144.200 13.593 C 143.100 14.139,141.909 14.904,141.553 15.293 C 141.197 15.682,140.612 16.000,140.253 16.000 C 139.894 16.000,139.600 16.158,139.600 16.351 C 139.600 16.545,139.060 16.927,138.400 17.200 C 137.740 17.473,137.200 17.855,137.200 18.049 C 137.200 18.242,136.964 18.400,136.675 18.400 C 136.387 18.400,135.764 18.760,135.292 19.200 C 134.820 19.640,134.228 20.000,133.977 20.000 C 133.726 20.000,133.017 20.540,132.400 21.200 C 131.783 21.860,131.108 22.400,130.899 22.400 C 130.690 22.400,129.954 22.940,129.263 23.600 C 128.572 24.260,127.908 24.800,127.787 24.800 C 127.483 24.800,126.752 25.430,123.960 28.100 C 122.637 29.365,121.404 30.400,121.219 30.400 C 120.743 30.400,115.200 35.945,115.200 36.421 C 115.200 36.638,114.075 37.966,112.700 39.374 C 110.219 41.913,107.600 45.202,107.600 45.779 C 107.600 45.944,107.060 46.583,106.400 47.200 C 105.740 47.817,105.200 48.569,105.200 48.872 C 105.200 49.175,104.840 49.683,104.400 50.000 C 103.960 50.317,103.600 50.897,103.600 51.288 C 103.600 51.680,103.420 52.000,103.200 52.000 C 102.980 52.000,102.800 52.320,102.800 52.712 C 102.800 53.103,102.440 53.683,102.000 54.000 C 101.560 54.317,101.200 54.857,101.200 55.200 C 101.200 55.543,100.840 56.083,100.400 56.400 C 99.960 56.717,99.600 57.282,99.600 57.655 C 99.600 58.028,99.464 58.393,99.298 58.467 C 99.132 58.540,98.368 59.860,97.600 61.400 C 96.832 62.940,96.068 64.260,95.902 64.333 C 95.736 64.407,95.600 64.812,95.600 65.233 C 95.600 65.655,95.459 66.000,95.287 66.000 C 95.115 66.000,94.726 66.855,94.422 67.900 C 94.118 68.945,93.761 69.890,93.630 70.000 C 93.248 70.319,91.537 75.272,91.315 76.700 C 91.203 77.415,90.952 78.000,90.756 78.000 C 90.560 78.000,90.400 78.630,90.400 79.400 C 90.400 80.170,90.220 80.800,90.000 80.800 C 89.780 80.800,89.600 81.340,89.600 82.000 C 89.600 82.660,89.420 83.200,89.200 83.200 C 88.980 83.200,88.800 83.729,88.800 84.376 C 88.800 85.023,88.620 85.664,88.400 85.800 C 88.180 85.936,88.000 86.847,88.000 87.824 C 88.000 88.801,87.820 89.600,87.600 89.600 C 87.380 89.600,87.200 90.284,87.200 91.120 C 87.200 91.956,86.975 93.125,86.700 93.717 L 86.200 94.794 55.500 94.797 L 24.800 94.800 24.800 113.200 L 24.800 131.600 18.000 131.600 L 11.200 131.600 11.200 157.400 L 11.200 183.200 19.400 183.200 L 27.600 183.200 27.600 270.986 L 27.600 358.772 23.500 358.886 L 19.400 359.000 19.296 379.500 L 19.193 400.000 209.596 400.000 L 400.000 400.000 400.000 393.600 L 400.000 387.200 390.405 387.200 L 380.810 387.200 380.705 373.100 L 380.600 359.000 376.500 358.886 L 372.400 358.772 372.400 270.986 L 372.400 183.200 380.600 183.200 L 388.800 183.200 388.800 157.400 L 388.800 131.600 382.000 131.600 L 375.200 131.600 375.200 113.200 L 375.200 94.800 344.500 94.797 L 313.800 94.794 313.300 93.717 C 313.025 93.125,312.800 91.956,312.800 91.120 C 312.800 90.284,312.620 89.600,312.400 89.600 C 312.180 89.600,312.000 88.801,312.000 87.824 C 312.000 86.847,311.820 85.936,311.600 85.800 C 311.380 85.664,311.200 85.023,311.200 84.376 C 311.200 83.729,311.020 83.200,310.800 83.200 C 310.580 83.200,310.400 82.660,310.400 82.000 C 310.400 81.340,310.220 80.800,310.000 80.800 C 309.780 80.800,309.600 80.170,309.600 79.400 C 309.600 78.630,309.443 78.000,309.252 78.000 C 309.060 78.000,308.784 77.100,308.638 76.000 C 308.492 74.900,308.231 74.000,308.059 74.000 C 307.886 74.000,307.500 73.100,307.200 72.000 C 306.900 70.900,306.540 70.000,306.400 70.000 C 306.260 70.000,305.900 69.100,305.600 68.000 C 305.300 66.900,304.908 66.000,304.728 66.000 C 304.547 66.000,304.400 65.655,304.400 65.233 C 304.400 64.812,304.264 64.407,304.098 64.333 C 303.932 64.260,303.168 62.940,302.400 61.400 C 301.632 59.860,300.868 58.540,300.702 58.467 C 300.536 58.393,300.400 58.028,300.400 57.655 C 300.400 57.282,300.040 56.717,299.600 56.400 C 299.160 56.083,298.800 55.543,298.800 55.200 C 298.800 54.857,298.440 54.317,298.000 54.000 C 297.560 53.683,297.200 53.103,297.200 52.712 C 297.200 52.320,297.020 52.000,296.800 52.000 C 296.580 52.000,296.400 51.680,296.400 51.288 C 296.400 50.897,296.040 50.317,295.600 50.000 C 295.160 49.683,294.800 49.175,294.800 48.872 C 294.800 48.569,294.260 47.817,293.600 47.200 C 292.940 46.583,292.400 45.944,292.400 45.779 C 292.400 45.202,289.781 41.913,287.300 39.374 C 285.925 37.966,284.800 36.638,284.800 36.421 C 284.800 35.939,279.254 30.400,278.771 30.400 C 278.580 30.400,277.356 29.365,276.051 28.100 C 273.436 25.566,272.545 24.800,272.213 24.800 C 272.092 24.800,271.428 24.260,270.737 23.600 C 270.046 22.940,269.310 22.400,269.101 22.400 C 268.892 22.400,268.217 21.860,267.600 21.200 C 266.983 20.540,266.274 20.000,266.023 20.000 C 265.772 20.000,265.180 19.640,264.708 19.200 C 264.236 18.760,263.613 18.400,263.325 18.400 C 263.036 18.400,262.800 18.242,262.800 18.049 C 262.800 17.855,262.260 17.473,261.600 17.200 C 260.940 16.927,260.400 16.545,260.400 16.351 C 260.400 16.158,260.106 16.000,259.747 16.000 C 259.388 16.000,258.803 15.682,258.447 15.293 C 258.091 14.904,256.900 14.139,255.800 13.593 C 254.700 13.047,253.740 12.465,253.667 12.300 C 253.593 12.135,253.188 12.000,252.767 12.000 C 252.345 12.000,252.000 11.820,252.000 11.600 C 252.000 11.380,251.640 11.200,251.200 11.200 C 250.760 11.200,250.400 11.020,250.400 10.800 C 250.400 10.580,250.164 10.400,249.875 10.400 C 249.586 10.400,248.574 10.025,247.626 9.567 C 246.677 9.109,245.294 8.635,244.551 8.515 C 243.808 8.394,243.200 8.139,243.200 7.948 C 243.200 7.756,242.840 7.600,242.400 7.600 C 241.960 7.600,241.600 7.420,241.600 7.200 C 241.600 6.980,241.150 6.800,240.600 6.800 C 240.050 6.800,239.600 6.620,239.600 6.400 C 239.600 6.180,239.060 6.000,238.400 6.000 C 237.740 6.000,237.200 5.820,237.200 5.600 C 237.200 5.380,236.660 5.200,236.000 5.200 C 235.340 5.200,234.800 5.020,234.800 4.800 C 234.800 4.580,234.260 4.400,233.600 4.400 C 232.940 4.400,232.400 4.220,232.400 4.000 C 232.400 3.780,231.680 3.600,230.800 3.600 C 229.920 3.600,229.200 3.420,229.200 3.200 C 229.200 2.980,228.491 2.800,227.624 2.800 C 226.757 2.800,225.936 2.620,225.800 2.400 C 225.664 2.180,224.843 2.000,223.976 2.000 C 223.109 2.000,222.400 1.820,222.400 1.600 C 222.400 1.379,221.360 1.200,220.080 1.200 C 218.804 1.200,217.548 0.988,217.288 0.728 C 216.812 0.252,192.115 -0.105,185.800 0.273 M213.631 12.815 C 217.639 13.404,220.111 13.896,226.000 15.279 C 241.515 18.920,263.840 31.739,273.130 42.339 C 273.641 42.923,274.993 44.390,276.135 45.600 C 283.340 53.240,290.371 64.272,294.871 75.000 C 296.819 79.643,298.781 85.528,299.606 89.200 C 299.877 90.410,300.257 91.922,300.450 92.560 C 300.642 93.198,300.800 94.231,300.800 94.856 L 300.800 95.993 278.900 96.097 L 257.000 96.200 256.889 101.899 L 256.778 107.597 309.889 107.699 L 363.000 107.800 363.106 119.773 C 363.189 129.085,363.100 131.817,362.706 132.067 C 362.103 132.449,53.107 132.518,43.464 132.137 L 36.800 131.874 36.800 119.980 C 36.800 109.503,36.875 108.057,37.433 107.843 C 37.781 107.709,57.221 107.600,80.633 107.600 L 123.200 107.600 123.200 101.800 L 123.200 96.000 111.156 96.000 L 99.112 96.000 99.334 94.700 C 99.549 93.437,99.967 91.486,100.726 88.200 C 101.169 86.281,103.825 78.289,104.582 76.600 C 104.877 75.940,105.656 74.126,106.312 72.569 C 117.604 45.781,145.765 21.969,174.100 15.251 C 181.761 13.434,186.834 12.597,192.400 12.232 C 196.318 11.975,210.578 12.366,213.631 12.815 M173.312 32.637 L 169.531 36.475 170.465 37.505 C 170.979 38.072,174.195 41.344,177.611 44.777 C 185.213 52.418,187.600 55.485,187.600 57.612 C 187.600 58.958,187.245 58.652,177.400 48.800 C 172.123 43.520,167.581 39.200,167.305 39.200 C 166.649 39.200,159.600 46.119,159.600 46.763 C 159.600 47.035,163.920 51.563,169.200 56.825 C 178.005 65.599,179.433 67.200,178.460 67.200 C 176.089 67.200,172.605 64.470,164.204 56.028 C 160.467 52.273,157.270 49.200,157.099 49.200 C 156.743 49.200,149.200 56.671,149.200 57.024 C 149.200 57.468,163.357 71.403,165.777 73.341 C 172.154 78.450,180.911 80.369,187.170 78.029 C 189.598 77.121,189.418 77.056,192.288 79.889 C 194.653 82.224,195.353 81.241,181.305 95.295 L 168.610 107.994 172.397 111.797 C 174.480 113.889,176.443 115.600,176.760 115.600 C 177.077 115.600,182.983 109.975,189.885 103.100 C 196.787 96.225,202.494 90.547,202.568 90.482 C 202.642 90.417,208.384 96.042,215.329 102.982 C 222.273 109.922,228.193 115.600,228.485 115.600 C 228.777 115.600,230.717 113.892,232.797 111.803 L 236.577 108.007 223.889 95.295 C 216.910 88.304,211.200 82.344,211.200 82.052 C 211.200 81.426,214.725 78.000,215.369 78.000 C 215.612 78.000,216.799 78.377,218.006 78.838 C 224.435 81.295,234.479 79.400,241.200 74.462 C 252.548 66.126,256.374 48.665,248.760 39.963 C 248.297 39.433,247.711 38.725,247.459 38.389 C 243.595 33.248,234.255 30.789,226.250 32.806 C 210.262 36.834,201.018 53.396,206.420 68.334 C 206.890 69.635,206.853 69.719,204.966 71.634 C 202.571 74.066,202.636 74.069,200.030 71.430 L 197.887 69.261 198.374 67.530 C 201.560 56.207,199.294 50.495,186.460 37.500 C 181.734 32.715,177.694 28.800,177.481 28.800 C 177.268 28.800,175.392 30.527,173.312 32.637 M15.376 30.518 C 15.267 30.802,15.228 33.727,15.289 37.018 L 15.400 43.000 22.700 43.109 L 30.000 43.218 30.000 36.609 L 30.000 30.000 22.787 30.000 C 17.256 30.000,15.529 30.121,15.376 30.518 M42.000 36.600 L 42.000 43.200 68.000 43.200 L 94.000 43.200 94.000 36.600 L 94.000 30.000 68.000 30.000 L 42.000 30.000 42.000 36.600 M306.000 36.600 L 306.000 43.200 313.000 43.200 L 320.000 43.200 320.000 36.600 L 320.000 30.000 313.000 30.000 L 306.000 30.000 306.000 36.600 M326.000 36.600 L 326.000 43.205 355.300 43.103 L 384.600 43.000 384.600 36.600 L 384.600 30.200 355.300 30.097 L 326.000 29.995 326.000 36.600 M236.600 44.106 C 237.040 44.333,237.490 44.628,237.600 44.760 C 237.710 44.892,238.145 45.190,238.567 45.423 C 239.871 46.142,241.582 49.958,241.591 52.172 C 241.642 63.726,226.694 73.181,218.834 66.567 C 214.264 62.722,215.406 53.725,221.148 48.331 C 225.472 44.270,228.533 43.058,233.400 43.482 C 234.720 43.597,236.160 43.878,236.600 44.106 M15.200 71.229 C 15.200 79.203,13.587 78.400,29.600 78.400 C 45.613 78.400,44.000 79.203,44.000 71.229 L 44.000 65.200 29.600 65.200 L 15.200 65.200 15.200 71.229 M52.000 71.800 L 52.000 78.400 64.629 78.400 C 79.917 78.400,78.400 79.190,78.400 71.229 L 78.400 65.200 65.200 65.200 L 52.000 65.200 52.000 71.800 M321.600 71.229 C 321.600 75.920,321.727 77.384,322.171 77.829 C 323.078 78.735,355.409 78.676,355.757 77.767 C 355.891 77.419,356.000 74.449,356.000 71.167 L 356.000 65.200 338.800 65.200 L 321.600 65.200 321.600 71.229 M362.800 71.320 C 362.800 79.125,361.683 78.400,373.709 78.400 C 385.908 78.400,384.800 79.116,384.800 71.229 L 384.800 65.200 373.800 65.200 L 362.800 65.200 362.800 71.320 M131.467 96.267 C 131.320 96.413,131.200 99.028,131.200 102.076 L 131.200 107.619 138.100 107.509 L 145.000 107.400 145.112 102.031 C 145.196 98.004,145.096 96.581,144.712 96.337 C 144.100 95.949,131.850 95.883,131.467 96.267 M376.600 157.200 L 376.600 170.600 200.000 170.600 L 23.400 170.600 23.294 157.603 C 23.236 150.455,23.276 144.380,23.382 144.103 C 23.537 143.699,58.482 143.619,200.088 143.700 L 376.600 143.800 376.600 157.200 M360.135 195.500 C 360.466 212.450,360.486 358.510,360.157 359.367 C 359.937 359.940,354.615 360.000,303.975 360.000 L 248.036 360.000 247.893 300.100 C 247.783 253.910,247.637 239.788,247.253 238.400 C 246.979 237.410,246.564 235.880,246.331 235.000 C 241.771 217.784,228.811 205.122,211.000 200.481 C 186.429 194.078,159.037 210.830,153.575 235.600 C 153.308 236.810,152.898 238.430,152.664 239.200 C 152.375 240.153,152.195 259.663,152.100 300.300 L 151.961 360.000 95.981 360.000 L 40.000 360.000 40.000 271.000 L 40.000 182.000 199.935 182.000 L 359.871 182.000 360.135 195.500 M57.698 255.898 L 57.800 305.400 95.000 305.400 L 132.200 305.400 132.200 256.000 L 132.200 206.600 94.898 206.498 L 57.597 206.396 57.698 255.898 M267.785 206.900 C 267.680 207.175,267.640 229.450,267.697 256.400 L 267.800 305.400 305.000 305.400 L 342.200 305.400 342.302 255.900 L 342.403 206.400 305.189 206.400 C 275.786 206.400,267.935 206.505,267.785 206.900 M194.301 285.581 C 194.382 344.653,194.300 359.816,193.901 360.070 C 193.238 360.491,164.749 360.482,164.085 360.061 C 163.229 359.518,163.622 241.341,164.489 238.600 C 167.144 230.206,169.787 225.781,175.253 220.574 C 177.537 218.399,182.367 214.800,183.003 214.800 C 183.139 214.800,184.364 214.277,185.725 213.639 C 187.086 213.000,188.650 212.380,189.200 212.261 C 189.750 212.142,190.830 211.871,191.600 211.659 C 192.370 211.447,193.270 211.304,193.600 211.342 C 194.131 211.403,194.212 219.999,194.301 285.581 M209.674 212.053 C 210.044 212.244,210.714 212.400,211.162 212.400 C 211.609 212.400,212.566 212.725,213.288 213.123 C 214.010 213.520,215.230 214.094,216.000 214.397 C 226.438 218.511,234.885 231.035,236.370 244.600 C 237.146 251.693,236.961 358.981,236.171 359.771 C 235.349 360.594,206.895 360.735,206.080 359.920 C 205.553 359.393,205.346 211.988,205.871 211.462 C 206.183 211.150,208.674 211.537,209.674 212.053 M120.720 218.080 C 121.278 218.638,121.424 293.029,120.868 293.903 C 120.616 294.300,115.129 294.384,94.775 294.303 L 69.000 294.200 68.898 256.225 C 68.817 226.109,68.900 218.184,69.298 217.931 C 70.169 217.378,120.163 217.523,120.720 218.080 M331.000 256.000 L 331.000 294.200 305.445 294.303 C 286.901 294.378,279.740 294.282,279.345 293.954 C 278.588 293.326,278.527 218.833,279.283 218.077 C 279.652 217.708,285.791 217.618,305.383 217.697 L 331.000 217.800 331.000 256.000 M174.400 279.600 L 174.400 291.200 180.000 291.200 L 185.600 291.200 185.600 279.600 L 185.600 268.000 180.000 268.000 L 174.400 268.000 174.400 279.600 M214.400 279.600 L 214.400 291.200 220.000 291.200 L 225.600 291.200 225.600 279.600 L 225.600 268.000 220.000 268.000 L 214.400 268.000 214.400 279.600 M174.488 305.089 L 174.600 310.200 179.200 310.316 C 186.137 310.491,185.646 310.898,185.512 305.089 L 185.400 300.200 179.888 300.089 L 174.376 299.977 174.488 305.089 M214.667 300.267 C 214.520 300.413,214.400 302.644,214.400 305.224 C 214.400 310.810,213.906 310.400,220.633 310.400 L 225.600 310.400 225.600 305.200 L 225.600 300.000 220.267 300.000 C 217.333 300.000,214.813 300.120,214.667 300.267 M51.200 326.792 C 51.200 332.261,51.220 332.390,52.100 332.603 C 52.595 332.723,65.330 332.771,80.400 332.710 L 107.800 332.600 107.911 326.900 L 108.022 321.200 79.611 321.200 L 51.200 321.200 51.200 326.792 M118.489 326.900 L 118.600 332.600 129.000 332.600 L 139.400 332.600 139.511 326.900 L 139.622 321.200 129.000 321.200 L 118.378 321.200 118.489 326.900 M261.067 321.467 C 260.688 321.846,260.747 331.697,261.131 332.303 C 261.384 332.700,267.310 332.784,289.425 332.703 L 317.400 332.600 317.511 326.900 L 317.622 321.200 289.478 321.200 C 273.998 321.200,261.213 321.320,261.067 321.467 M328.267 321.467 C 327.886 321.847,327.947 331.698,328.334 332.307 C 328.583 332.699,330.957 332.790,338.828 332.707 L 349.000 332.600 349.111 326.900 L 349.222 321.200 338.878 321.200 C 333.188 321.200,328.413 321.320,328.267 321.467 M51.467 339.067 C 51.320 339.213,51.200 341.733,51.200 344.667 L 51.200 350.000 61.800 350.000 L 72.400 350.000 72.400 344.400 L 72.400 338.800 62.067 338.800 C 56.383 338.800,51.613 338.920,51.467 339.067 M83.067 339.067 C 82.920 339.213,82.800 341.733,82.800 344.667 L 82.800 350.000 111.200 350.000 L 139.600 350.000 139.600 344.400 L 139.600 338.800 111.467 338.800 C 95.993 338.800,83.213 338.920,83.067 339.067 M260.975 339.322 C 260.864 339.609,260.825 342.084,260.887 344.822 L 261.000 349.800 271.500 349.907 L 282.000 350.013 282.000 344.407 L 282.000 338.800 271.587 338.800 C 263.390 338.800,261.132 338.911,260.975 339.322 M292.667 339.067 C 292.520 339.213,292.400 341.733,292.400 344.667 L 292.400 350.000 320.800 350.000 L 349.200 350.000 349.200 344.400 L 349.200 338.800 321.067 338.800 C 305.593 338.800,292.813 338.920,292.667 339.067 M368.800 380.000 L 368.800 388.400 200.000 388.400 L 31.200 388.400 31.200 380.000 L 31.200 371.600 200.000 371.600 L 368.800 371.600 368.800 380.000 M0.000 393.600 L 0.000 400.000 6.000 400.000 L 12.000 400.000 12.000 393.600 L 12.000 387.200 6.000 387.200 L 0.000 387.200 0.000 393.600 " stroke="none" fill="#040404" fill-rule="evenodd"></path><path id="path3" d="M235.978 63.500 L 234.600 65.000 236.100 63.622 C 237.496 62.338,237.784 62.000,237.478 62.000 C 237.412 62.000,236.737 62.675,235.978 63.500 M69.298 255.897 L 69.400 293.800 95.000 293.800 L 120.600 293.800 120.600 256.000 L 120.600 218.200 94.898 218.097 L 69.196 217.994 69.298 255.897 M279.384 218.500 C 279.279 218.775,279.240 235.830,279.297 256.400 L 279.400 293.800 305.100 293.903 L 330.800 294.006 330.800 256.003 L 330.800 218.000 305.187 218.000 C 285.066 218.000,279.534 218.107,279.384 218.500 M120.000 256.000 L 120.000 293.600 94.800 293.600 L 69.600 293.600 69.600 256.000 L 69.600 218.400 94.800 218.400 L 120.000 218.400 120.000 256.000 M330.400 256.000 L 330.400 293.600 305.200 293.600 L 280.000 293.600 280.000 256.000 L 280.000 218.400 305.200 218.400 L 330.400 218.400 330.400 256.000 M368.542 383.800 C 368.541 385.780,368.608 386.640,368.692 385.712 C 368.776 384.784,368.777 383.164,368.695 382.112 C 368.612 381.060,368.543 381.820,368.542 383.800 " stroke="none" fill="#4c647c" fill-rule="evenodd"></path><path id="path4" d="M195.491 12.289 C 196.201 12.377,197.461 12.379,198.291 12.292 C 199.121 12.205,198.540 12.133,197.000 12.131 C 195.460 12.129,194.781 12.200,195.491 12.289 M201.900 12.289 C 202.615 12.378,203.785 12.378,204.500 12.289 C 205.215 12.201,204.630 12.128,203.200 12.128 C 201.770 12.128,201.185 12.201,201.900 12.289 M188.900 12.687 C 189.505 12.778,190.495 12.778,191.100 12.687 C 191.705 12.595,191.210 12.520,190.000 12.520 C 188.790 12.520,188.295 12.595,188.900 12.687 M208.900 12.687 C 209.505 12.778,210.495 12.778,211.100 12.687 C 211.705 12.595,211.210 12.520,210.000 12.520 C 208.790 12.520,208.295 12.595,208.900 12.687 M181.400 13.590 C 180.917 13.792,181.551 13.838,183.000 13.707 C 184.320 13.587,185.475 13.424,185.567 13.345 C 185.907 13.049,182.170 13.269,181.400 13.590 M214.833 13.344 C 214.925 13.423,215.990 13.589,217.200 13.712 C 218.569 13.851,219.098 13.808,218.600 13.596 C 217.833 13.270,214.489 13.047,214.833 13.344 M177.800 14.419 C 177.242 14.671,177.485 14.707,178.600 14.538 C 179.480 14.404,180.275 14.228,180.367 14.147 C 180.710 13.844,178.568 14.071,177.800 14.419 M219.633 14.147 C 219.725 14.228,220.520 14.404,221.400 14.538 C 222.515 14.707,222.758 14.671,222.200 14.419 C 221.432 14.071,219.290 13.844,219.633 14.147 M174.200 15.200 C 173.181 15.638,174.232 15.638,175.600 15.200 C 176.404 14.943,176.443 14.877,175.800 14.868 C 175.360 14.862,174.640 15.011,174.200 15.200 M224.400 15.200 C 225.768 15.638,226.819 15.638,225.800 15.200 C 225.360 15.011,224.640 14.862,224.200 14.868 C 223.557 14.877,223.596 14.943,224.400 15.200 M170.078 16.295 C 167.484 17.191,168.321 17.320,171.036 16.443 C 172.336 16.023,173.040 15.685,172.600 15.690 C 172.160 15.696,171.025 15.968,170.078 16.295 M152.700 23.429 C 152.095 23.757,151.600 24.110,151.600 24.213 C 151.600 24.599,152.232 24.357,153.200 23.600 C 154.389 22.670,154.211 22.609,152.700 23.429 M253.800 27.407 C 254.240 27.766,254.960 28.235,255.400 28.451 L 256.200 28.844 255.400 28.193 C 254.960 27.834,254.240 27.365,253.800 27.149 L 253.000 26.756 253.800 27.407 M142.196 29.762 C 140.438 30.951,138.370 32.495,137.600 33.192 C 136.716 33.993,137.085 33.809,138.600 32.693 C 139.920 31.721,142.035 30.241,143.300 29.406 C 145.306 28.081,145.891 27.600,145.496 27.600 C 145.439 27.600,143.954 28.573,142.196 29.762 M184.800 35.800 C 188.866 39.870,192.282 43.200,192.392 43.200 C 192.502 43.200,189.266 39.870,185.200 35.800 C 181.134 31.730,177.718 28.400,177.608 28.400 C 177.498 28.400,180.734 31.730,184.800 35.800 M226.600 32.400 C 225.581 32.838,226.632 32.838,228.000 32.400 C 228.804 32.143,228.843 32.077,228.200 32.068 C 227.760 32.062,227.040 32.211,226.600 32.400 M236.600 32.400 C 237.040 32.589,237.670 32.744,238.000 32.744 C 238.378 32.744,238.304 32.617,237.800 32.400 C 237.360 32.211,236.730 32.056,236.400 32.056 C 236.022 32.056,236.096 32.183,236.600 32.400 M131.130 38.546 C 127.252 42.095,121.647 47.983,120.224 50.002 C 119.991 50.333,120.870 49.433,122.177 48.002 C 125.527 44.334,130.121 39.779,133.394 36.877 C 134.931 35.515,136.070 34.400,135.924 34.400 C 135.779 34.400,133.621 36.266,131.130 38.546 M268.000 37.725 C 268.000 37.794,268.585 38.379,269.300 39.025 L 270.600 40.200 269.425 38.900 C 268.330 37.688,268.000 37.416,268.000 37.725 M167.400 39.192 C 167.840 39.380,172.429 43.779,177.597 48.967 C 186.639 58.044,187.600 58.910,187.600 57.976 C 187.600 57.743,187.454 57.643,187.274 57.754 C 187.095 57.865,182.642 53.645,177.378 48.378 C 172.113 43.110,167.535 38.811,167.203 38.825 C 166.800 38.842,166.865 38.964,167.400 39.192 M212.575 40.500 L 211.400 41.800 212.700 40.625 C 213.415 39.979,214.000 39.394,214.000 39.325 C 214.000 39.016,213.670 39.288,212.575 40.500 M231.300 43.476 C 231.685 43.576,232.315 43.576,232.700 43.476 C 233.085 43.375,232.770 43.293,232.000 43.293 C 231.230 43.293,230.915 43.375,231.300 43.476 M235.946 44.216 C 236.686 44.537,237.406 44.794,237.546 44.786 C 238.066 44.757,235.776 43.628,235.200 43.630 C 234.870 43.631,235.206 43.894,235.946 44.216 M276.000 45.800 C 276.746 46.570,277.447 47.200,277.557 47.200 C 277.667 47.200,277.146 46.570,276.400 45.800 C 275.654 45.030,274.953 44.400,274.843 44.400 C 274.733 44.400,275.254 45.030,276.000 45.800 M238.400 45.693 C 238.730 45.992,239.259 46.498,239.575 46.818 C 240.025 47.273,240.018 47.186,239.541 46.422 C 239.206 45.884,238.677 45.378,238.366 45.297 C 237.908 45.178,237.914 45.253,238.400 45.693 M220.746 48.700 C 218.976 50.544,217.196 53.130,217.204 53.847 C 217.206 54.041,217.680 53.390,218.258 52.400 C 218.836 51.410,220.132 49.745,221.139 48.700 C 222.146 47.655,222.880 46.800,222.770 46.800 C 222.660 46.800,221.749 47.655,220.746 48.700 M241.000 52.400 C 241.000 54.118,241.132 55.316,241.294 55.062 C 241.675 54.462,241.675 50.338,241.294 49.738 C 241.132 49.484,241.000 50.682,241.000 52.400 M252.920 52.400 C 252.920 53.610,252.995 54.105,253.087 53.500 C 253.178 52.895,253.178 51.905,253.087 51.300 C 252.995 50.695,252.920 51.190,252.920 52.400 M117.492 53.500 C 115.166 56.549,112.780 60.140,111.443 62.600 C 110.134 65.009,110.641 64.325,113.758 59.472 C 115.055 57.452,116.911 54.765,117.882 53.500 C 118.853 52.235,119.557 51.200,119.447 51.200 C 119.337 51.200,118.457 52.235,117.492 53.500 M162.000 53.800 C 163.195 55.010,164.263 56.000,164.373 56.000 C 164.483 56.000,163.595 55.010,162.400 53.800 C 161.205 52.590,160.137 51.600,160.027 51.600 C 159.917 51.600,160.805 52.590,162.000 53.800 M164.800 56.525 C 164.800 56.594,165.385 57.179,166.100 57.825 L 167.400 59.000 166.225 57.700 C 165.130 56.488,164.800 56.216,164.800 56.525 M216.124 59.400 C 216.126 60.720,216.201 61.212,216.290 60.493 C 216.379 59.774,216.377 58.694,216.286 58.093 C 216.195 57.492,216.122 58.080,216.124 59.400 M204.524 59.800 C 204.526 61.120,204.601 61.612,204.690 60.893 C 204.779 60.174,204.777 59.094,204.686 58.493 C 204.595 57.892,204.522 58.480,204.524 59.800 M199.709 60.400 C 199.709 61.390,199.787 61.795,199.882 61.300 C 199.978 60.805,199.978 59.995,199.882 59.500 C 199.787 59.005,199.709 59.410,199.709 60.400 M238.245 60.988 C 237.880 61.544,237.722 62.000,237.895 62.000 C 238.284 62.000,239.319 60.386,239.082 60.149 C 238.986 60.053,238.610 60.431,238.245 60.988 M236.393 63.408 C 235.872 63.962,234.581 64.971,233.523 65.649 C 231.379 67.025,230.903 67.647,232.854 66.523 C 234.152 65.775,237.977 62.444,237.570 62.416 C 237.443 62.407,236.913 62.853,236.393 63.408 M216.401 62.920 C 216.398 63.624,217.588 65.456,218.662 66.400 L 219.800 67.400 218.942 66.400 C 218.470 65.850,217.706 64.770,217.243 64.000 C 216.781 63.230,216.402 62.744,216.401 62.920 M108.240 68.398 C 107.640 69.499,107.236 70.400,107.341 70.400 C 107.608 70.400,109.643 66.710,109.471 66.537 C 109.393 66.460,108.839 67.297,108.240 68.398 M222.000 68.400 C 222.330 68.613,223.050 68.773,223.600 68.754 L 224.600 68.720 223.600 68.400 C 222.058 67.906,221.236 67.906,222.000 68.400 M226.400 68.400 C 225.043 68.686,225.037 68.695,226.200 68.707 C 226.860 68.715,227.850 68.576,228.400 68.400 C 229.712 67.980,228.396 67.980,226.400 68.400 M206.432 69.186 C 206.414 69.509,205.547 70.679,204.505 71.786 L 202.610 73.800 204.754 71.746 C 206.012 70.541,206.808 69.467,206.680 69.146 C 206.506 68.709,206.457 68.717,206.432 69.186 M200.000 71.400 C 201.195 72.610,202.263 73.600,202.373 73.600 C 202.483 73.600,201.595 72.610,200.400 71.400 C 199.205 70.190,198.137 69.200,198.027 69.200 C 197.917 69.200,198.805 70.190,200.000 71.400 M178.305 79.083 C 178.802 79.179,179.522 79.175,179.905 79.075 C 180.287 78.975,179.880 78.896,179.000 78.901 C 178.120 78.905,177.807 78.987,178.305 79.083 M182.305 79.083 C 182.802 79.179,183.522 79.175,183.905 79.075 C 184.287 78.975,183.880 78.896,183.000 78.901 C 182.120 78.905,181.807 78.987,182.305 79.083 M221.300 79.876 C 221.685 79.976,222.315 79.976,222.700 79.876 C 223.085 79.775,222.770 79.693,222.000 79.693 C 221.230 79.693,220.915 79.775,221.300 79.876 M227.700 79.876 C 228.085 79.976,228.715 79.976,229.100 79.876 C 229.485 79.775,229.170 79.693,228.400 79.693 C 227.630 79.693,227.315 79.775,227.700 79.876 M224.300 80.282 C 224.795 80.378,225.605 80.378,226.100 80.282 C 226.595 80.187,226.190 80.109,225.200 80.109 C 224.210 80.109,223.805 80.187,224.300 80.282 M181.198 95.100 L 168.600 107.800 181.300 95.202 C 193.103 83.495,194.180 82.400,193.898 82.400 C 193.841 82.400,188.126 88.115,181.198 95.100 M216.000 87.400 C 218.743 90.150,221.078 92.400,221.188 92.400 C 221.298 92.400,219.143 90.150,216.400 87.400 C 213.657 84.650,211.322 82.400,211.212 82.400 C 211.102 82.400,213.257 84.650,216.000 87.400 M100.273 89.753 C 100.123 90.145,100.011 90.766,100.025 91.133 C 100.042 91.575,100.181 91.474,100.437 90.834 C 100.649 90.303,100.761 89.682,100.685 89.454 C 100.609 89.227,100.424 89.361,100.273 89.753 M99.449 93.415 C 99.312 93.773,99.221 94.546,99.246 95.133 C 99.280 95.932,99.370 95.798,99.604 94.600 C 99.935 92.900,99.862 92.340,99.449 93.415 M256.575 96.520 C 256.465 96.806,256.427 99.461,256.490 102.420 L 256.604 107.800 256.802 101.899 C 256.997 96.090,256.972 95.488,256.575 96.520 M123.287 101.898 L 123.200 107.596 80.300 107.700 L 37.400 107.804 80.313 107.902 C 115.231 107.982,123.262 107.903,123.425 107.480 C 123.535 107.194,123.568 104.539,123.500 101.580 L 123.375 96.200 123.287 101.898 M231.208 102.600 C 233.953 105.460,236.282 107.748,236.382 107.684 C 236.483 107.621,234.236 105.281,231.390 102.484 L 226.215 97.400 231.208 102.600 M138.200 107.600 L 131.400 107.829 138.076 107.915 C 142.191 107.967,144.848 107.846,145.000 107.600 C 145.136 107.380,145.192 107.238,145.124 107.285 C 145.056 107.332,141.940 107.474,138.200 107.600 M283.500 107.900 C 298.075 107.958,321.925 107.958,336.500 107.900 C 351.075 107.842,339.150 107.794,310.000 107.794 C 280.850 107.794,268.925 107.842,283.500 107.900 M36.978 120.000 C 36.978 126.710,37.032 129.455,37.099 126.100 C 37.166 122.745,37.166 117.255,37.099 113.900 C 37.032 110.545,36.978 113.290,36.978 120.000 M124.700 132.300 C 168.315 132.356,239.685 132.356,283.300 132.300 C 326.915 132.244,291.230 132.198,204.000 132.198 C 116.770 132.198,81.085 132.244,124.700 132.300 M23.382 144.103 C 23.276 144.380,23.236 150.455,23.294 157.603 L 23.400 170.600 200.000 170.600 L 376.600 170.600 376.600 157.200 L 376.600 143.800 200.088 143.700 C 58.482 143.619,23.537 143.699,23.382 144.103 M376.400 157.200 L 376.400 170.400 200.000 170.400 L 23.600 170.400 23.600 157.200 L 23.600 144.000 200.000 144.000 L 376.400 144.000 376.400 157.200 M40.000 182.300 C 40.000 182.571,147.316 182.570,302.400 182.299 C 334.190 182.243,288.155 182.153,200.100 182.099 C 112.045 182.044,40.000 182.135,40.000 182.300 M198.512 199.095 C 199.564 199.177,201.184 199.176,202.112 199.092 C 203.040 199.008,202.180 198.941,200.200 198.942 C 198.220 198.943,197.460 199.012,198.512 199.095 M191.200 199.600 L 190.200 199.920 191.200 199.920 C 191.750 199.920,192.650 199.776,193.200 199.600 L 194.200 199.280 193.200 199.280 C 192.650 199.280,191.750 199.424,191.200 199.600 M206.800 199.600 C 207.350 199.776,208.250 199.920,208.800 199.920 L 209.800 199.920 208.800 199.600 C 208.250 199.424,207.350 199.280,206.800 199.280 L 205.800 199.280 206.800 199.600 M210.800 200.400 C 211.130 200.613,211.670 200.788,212.000 200.788 C 212.533 200.788,212.533 200.745,212.000 200.400 C 211.670 200.187,211.130 200.012,210.800 200.012 C 210.267 200.012,210.267 200.055,210.800 200.400 M360.196 279.600 C 360.196 323.490,360.243 341.445,360.300 319.500 C 360.357 297.555,360.357 261.645,360.300 239.700 C 360.243 217.755,360.196 235.710,360.196 279.600 M76.300 206.300 C 86.475 206.359,103.125 206.359,113.300 206.300 C 123.475 206.240,115.150 206.192,94.800 206.192 C 74.450 206.192,66.125 206.240,76.300 206.300 M286.700 206.300 C 296.875 206.359,313.525 206.359,323.700 206.300 C 333.875 206.240,325.550 206.192,305.200 206.192 C 284.850 206.192,276.525 206.240,286.700 206.300 M57.298 255.620 C 57.223 293.634,57.311 305.151,57.680 305.520 C 58.225 306.065,131.803 306.243,132.138 305.700 C 132.240 305.535,115.556 305.400,95.062 305.400 L 57.800 305.400 57.598 255.800 L 57.395 206.200 57.298 255.620 M342.399 255.800 L 342.200 305.400 304.938 305.400 C 284.444 305.400,267.760 305.535,267.862 305.700 C 268.232 306.299,341.853 306.059,342.353 305.457 C 342.683 305.060,342.776 291.701,342.701 255.557 L 342.598 206.200 342.399 255.800 M193.301 211.453 C 193.966 211.649,193.997 215.439,193.901 285.730 L 193.800 359.800 179.000 360.007 L 164.200 360.215 178.800 360.301 C 186.830 360.349,193.625 360.245,193.901 360.070 C 194.900 359.435,194.402 211.432,193.400 211.328 C 192.776 211.264,192.754 211.291,193.301 211.453 M205.867 211.467 C 205.344 211.989,205.556 359.396,206.080 359.920 C 206.439 360.279,210.237 360.377,221.180 360.307 L 235.800 360.215 221.000 360.007 L 206.200 359.800 206.099 285.730 C 206.003 215.431,206.034 211.650,206.699 211.476 C 207.259 211.330,207.273 211.284,206.767 211.246 C 206.418 211.221,206.013 211.320,205.867 211.467 M165.978 213.100 L 164.600 214.600 166.100 213.222 C 167.496 211.938,167.784 211.600,167.478 211.600 C 167.412 211.600,166.737 212.275,165.978 213.100 M233.983 213.300 C 235.641 215.066,236.000 215.384,236.000 215.083 C 236.000 215.019,235.145 214.164,234.100 213.183 L 232.200 211.400 233.983 213.300 M95.000 217.996 L 120.600 218.200 120.600 256.000 L 120.600 293.800 95.000 293.800 L 69.400 293.800 69.196 255.800 L 68.992 217.800 68.996 256.000 L 69.000 294.200 94.775 294.303 C 115.129 294.384,120.616 294.300,120.868 293.903 C 121.424 293.029,121.278 218.638,120.720 218.080 C 120.355 217.715,114.166 217.623,94.820 217.696 L 69.400 217.791 95.000 217.996 M279.283 218.077 C 278.527 218.833,278.588 293.326,279.345 293.954 C 279.740 294.282,286.901 294.378,305.445 294.303 L 331.000 294.200 331.000 256.000 L 331.000 217.800 305.383 217.697 C 285.791 217.618,279.652 217.708,279.283 218.077 M330.800 256.003 L 330.800 294.006 305.100 293.903 L 279.400 293.800 279.297 256.400 C 279.240 235.830,279.279 218.775,279.384 218.500 C 279.534 218.107,285.066 218.000,305.187 218.000 L 330.800 218.000 330.800 256.003 M235.268 238.800 C 235.288 239.839,235.918 241.546,235.932 240.600 C 235.938 240.160,235.789 239.440,235.600 239.000 C 235.389 238.510,235.261 238.432,235.268 238.800 M247.720 243.600 C 247.720 244.810,247.795 245.305,247.887 244.700 C 247.978 244.095,247.978 243.105,247.887 242.500 C 247.795 241.895,247.720 242.390,247.720 243.600 M152.124 244.200 C 152.126 245.520,152.201 246.012,152.290 245.293 C 152.379 244.574,152.377 243.494,152.286 242.893 C 152.195 242.292,152.122 242.880,152.124 244.200 M236.200 301.862 C 236.200 333.796,236.332 359.716,236.494 359.462 C 236.862 358.883,236.839 248.057,236.470 245.600 C 236.322 244.610,236.200 269.928,236.200 301.862 M163.693 246.000 C 163.693 246.770,163.775 247.085,163.876 246.700 C 163.976 246.315,163.976 245.685,163.876 245.300 C 163.775 244.915,163.693 245.230,163.693 246.000 M177.317 267.897 C 178.811 267.974,181.151 267.974,182.517 267.896 C 183.882 267.818,182.660 267.755,179.800 267.755 C 176.940 267.756,175.822 267.820,177.317 267.897 M220.399 267.893 L 225.600 268.023 225.600 279.612 L 225.600 291.200 220.006 291.200 L 214.412 291.200 214.297 279.700 L 214.181 268.200 214.190 279.800 L 214.200 291.400 220.000 291.400 L 225.800 291.400 225.800 279.600 L 225.800 267.800 220.499 267.782 L 215.199 267.764 220.399 267.893 M185.694 279.500 L 185.600 291.200 180.006 291.200 L 174.412 291.200 174.297 279.700 L 174.181 268.200 174.190 279.800 L 174.200 291.400 179.908 291.511 C 184.283 291.596,185.663 291.501,185.815 291.106 C 185.924 290.822,185.962 285.462,185.900 279.195 L 185.787 267.800 185.694 279.500 M185.524 304.880 C 185.618 308.534,185.520 309.813,185.124 310.092 C 184.715 310.380,184.731 310.425,185.200 310.298 C 185.861 310.118,186.333 300.974,185.713 300.352 C 185.541 300.179,185.456 302.216,185.524 304.880 M214.174 300.524 C 213.668 301.843,214.199 310.135,214.800 310.298 C 215.269 310.425,215.285 310.380,214.876 310.092 C 214.480 309.813,214.382 308.531,214.476 304.861 C 214.599 300.039,214.562 299.512,214.174 300.524 M225.755 305.000 C 225.756 307.860,225.820 308.978,225.897 307.483 C 225.974 305.989,225.974 303.649,225.896 302.283 C 225.818 300.918,225.755 302.140,225.755 305.000 M174.070 305.076 C 174.031 307.758,174.135 310.037,174.300 310.140 C 174.465 310.242,174.552 308.768,174.493 306.863 C 174.304 300.754,174.142 300.068,174.070 305.076 M65.929 321.100 C 73.700 321.161,86.300 321.161,93.929 321.100 C 101.558 321.039,95.200 320.989,79.800 320.989 C 64.400 320.989,58.158 321.039,65.929 321.100 M123.676 321.099 C 126.468 321.167,131.148 321.168,134.076 321.099 C 137.004 321.031,134.720 320.975,129.000 320.974 C 123.280 320.974,120.884 321.030,123.676 321.099 M261.062 321.100 C 260.893 321.372,281.440 321.369,307.400 321.092 C 312.900 321.034,304.766 320.944,289.324 320.893 C 273.882 320.842,261.164 320.935,261.062 321.100 M328.261 321.100 C 328.159 321.265,331.163 321.354,334.937 321.297 C 347.755 321.105,349.027 320.966,338.724 320.883 C 333.072 320.837,328.363 320.935,328.261 321.100 M139.599 326.881 C 139.489 330.116,139.540 332.622,139.712 332.450 C 139.883 332.277,139.973 329.631,139.910 326.568 L 139.797 321.000 139.599 326.881 M317.599 326.881 C 317.489 330.116,317.540 332.622,317.712 332.450 C 317.883 332.277,317.973 329.631,317.910 326.568 L 317.797 321.000 317.599 326.881 M349.199 326.881 C 349.089 330.116,349.140 332.622,349.312 332.450 C 349.483 332.277,349.573 329.631,349.510 326.568 L 349.397 321.000 349.199 326.881 M50.957 326.800 C 50.957 329.770,51.020 330.985,51.097 329.500 C 51.174 328.015,51.174 325.585,51.097 324.100 C 51.020 322.615,50.957 323.830,50.957 326.800 M118.157 326.800 C 118.157 329.770,118.220 330.985,118.297 329.500 C 118.374 328.015,118.374 325.585,118.297 324.100 C 118.220 322.615,118.157 323.830,118.157 326.800 M51.280 338.880 C 50.947 339.213,50.825 340.955,50.882 344.580 L 50.964 349.800 51.182 344.400 L 51.400 339.000 62.000 338.790 L 72.600 338.580 62.180 338.490 C 54.505 338.424,51.634 338.526,51.280 338.880 M83.062 338.700 C 82.893 338.972,103.064 338.969,129.600 338.692 C 135.210 338.634,127.076 338.544,111.524 338.493 C 95.972 338.442,83.164 338.535,83.062 338.700 M261.061 338.700 C 260.959 338.865,264.053 338.954,267.938 338.898 C 280.980 338.708,282.274 338.567,271.724 338.483 C 265.962 338.437,261.163 338.535,261.061 338.700 M292.662 338.700 C 292.493 338.972,312.664 338.969,339.200 338.692 C 344.810 338.634,336.676 338.544,321.124 338.493 C 305.572 338.442,292.764 338.535,292.662 338.700 M72.487 344.493 L 72.400 349.987 61.900 350.100 L 51.400 350.214 61.913 350.307 C 70.248 350.381,72.467 350.292,72.625 349.879 C 72.735 349.592,72.769 347.027,72.699 344.179 L 72.574 339.000 72.487 344.493 M139.687 344.497 L 139.600 349.995 111.300 350.100 L 83.000 350.205 111.313 350.303 C 134.276 350.382,139.663 350.302,139.825 349.879 C 139.935 349.592,139.969 347.027,139.899 344.179 L 139.774 339.000 139.687 344.497 M282.087 344.513 L 282.000 350.026 271.438 349.913 C 265.629 349.851,260.959 349.935,261.061 350.100 C 261.417 350.674,282.003 350.459,282.225 349.879 C 282.335 349.592,282.369 347.027,282.299 344.179 L 282.174 339.000 282.087 344.513 M349.287 344.497 L 349.200 349.995 320.900 350.100 L 292.600 350.205 320.913 350.303 C 343.876 350.382,349.263 350.302,349.425 349.879 C 349.535 349.592,349.569 347.027,349.499 344.179 L 349.374 339.000 349.287 344.497 M31.200 380.000 L 31.200 388.400 200.000 388.400 C 360.507 388.400,368.798 388.366,368.768 387.700 C 368.750 387.282,368.656 387.201,368.535 387.500 C 368.374 387.899,334.286 388.000,199.967 388.000 L 31.600 388.000 31.600 380.000 L 31.600 372.000 199.986 372.000 L 368.373 372.000 368.502 376.300 L 368.630 380.600 368.715 376.100 L 368.800 371.600 200.000 371.600 L 31.200 371.600 31.200 380.000 " stroke="none" fill="#4c5c74" fill-rule="evenodd"></path></g></svg>