<svg id="svg" version="1.1" xmlns="http://www.w3.org/2000/svg" xmlns:xlink="http://www.w3.org/1999/xlink" width="400" height="400" viewBox="0, 0, 400,400"><g id="svgg"><path id="path0" d="M178.402 0.276 C 176.533 0.364,174.832 0.608,174.622 0.818 C 174.412 1.028,173.027 1.200,171.544 1.200 C 170.061 1.200,168.736 1.380,168.600 1.600 C 168.464 1.820,167.373 2.000,166.176 2.000 C 164.979 2.000,164.000 2.180,164.000 2.400 C 164.000 2.620,163.100 2.800,162.000 2.800 C 160.900 2.800,160.000 2.980,160.000 3.200 C 160.000 3.420,159.100 3.600,158.000 3.600 C 156.900 3.600,156.000 3.780,156.000 4.000 C 156.000 4.220,155.280 4.400,154.400 4.400 C 153.520 4.400,152.800 4.580,152.800 4.800 C 152.800 5.020,152.080 5.200,151.200 5.200 C 150.320 5.200,149.600 5.380,149.600 5.600 C 149.600 5.820,148.880 6.000,148.000 6.000 C 147.120 6.000,146.400 6.180,146.400 6.400 C 146.400 6.620,145.871 6.800,145.224 6.800 C 144.577 6.800,143.936 6.980,143.800 7.200 C 143.664 7.420,143.023 7.600,142.376 7.600 C 141.729 7.600,141.200 7.759,141.200 7.954 C 141.200 8.149,140.213 8.431,139.006 8.582 C 137.800 8.733,136.709 9.023,136.583 9.228 C 136.456 9.433,135.924 9.600,135.400 9.600 C 134.876 9.600,134.336 9.780,134.200 10.000 C 134.064 10.220,133.524 10.400,133.000 10.400 C 132.476 10.400,131.958 10.544,131.849 10.721 C 131.740 10.897,130.739 11.290,129.625 11.593 C 128.511 11.896,127.600 12.292,127.600 12.472 C 127.600 12.653,127.150 12.800,126.600 12.800 C 126.050 12.800,125.600 12.980,125.600 13.200 C 125.600 13.420,125.240 13.600,124.800 13.600 C 124.360 13.600,124.000 13.780,124.000 14.000 C 124.000 14.220,123.460 14.400,122.800 14.400 C 122.140 14.400,121.600 14.580,121.600 14.800 C 121.600 15.020,121.240 15.200,120.800 15.200 C 120.360 15.200,120.000 15.380,120.000 15.600 C 120.000 15.820,119.728 16.000,119.395 16.000 C 119.062 16.000,118.432 16.180,117.995 16.400 C 117.558 16.620,116.842 16.980,116.405 17.200 C 115.968 17.420,115.338 17.600,115.005 17.600 C 114.672 17.600,114.400 17.780,114.400 18.000 C 114.400 18.220,114.040 18.400,113.600 18.400 C 113.160 18.400,112.800 18.580,112.800 18.800 C 112.800 19.020,112.440 19.200,112.000 19.200 C 111.560 19.200,111.200 19.346,111.200 19.525 C 111.200 19.704,110.570 20.098,109.800 20.400 C 109.030 20.702,108.400 21.096,108.400 21.275 C 108.400 21.454,108.040 21.600,107.600 21.600 C 107.160 21.600,106.800 21.780,106.800 22.000 C 106.800 22.220,106.440 22.400,106.000 22.400 C 105.560 22.400,105.200 22.580,105.200 22.800 C 105.200 23.020,104.840 23.200,104.400 23.200 C 103.960 23.200,103.600 23.359,103.600 23.553 C 103.600 23.746,102.160 24.589,100.400 25.425 C 98.640 26.260,97.200 27.058,97.200 27.197 C 97.200 27.337,96.570 27.698,95.800 28.000 C 95.030 28.302,94.400 28.696,94.400 28.875 C 94.400 29.054,94.130 29.200,93.800 29.200 C 93.470 29.200,93.200 29.380,93.200 29.600 C 93.200 29.820,92.970 30.000,92.688 30.000 C 92.407 30.000,91.917 30.360,91.600 30.800 C 91.283 31.240,90.703 31.600,90.312 31.600 C 89.920 31.600,89.600 31.768,89.600 31.973 C 89.600 32.178,89.234 32.462,88.787 32.604 C 88.340 32.746,87.538 33.298,87.005 33.831 C 86.472 34.364,85.798 34.800,85.506 34.800 C 85.215 34.800,84.717 35.160,84.400 35.600 C 84.083 36.040,83.591 36.400,83.308 36.400 C 83.025 36.400,82.228 36.940,81.537 37.600 C 80.846 38.260,80.110 38.800,79.901 38.800 C 79.692 38.800,79.017 39.340,78.400 40.000 C 77.783 40.660,77.119 41.200,76.923 41.200 C 76.727 41.200,75.899 41.830,75.082 42.600 C 74.266 43.370,73.440 44.000,73.247 44.000 C 73.054 44.000,72.200 44.676,71.348 45.502 C 70.497 46.328,69.170 47.450,68.400 47.996 C 67.630 48.541,65.059 50.970,62.686 53.394 C 57.506 58.685,58.685 57.506,53.394 62.686 C 50.970 65.059,48.541 67.630,47.996 68.400 C 47.450 69.170,46.328 70.497,45.502 71.348 C 44.676 72.200,44.000 73.054,44.000 73.247 C 44.000 73.440,43.370 74.266,42.600 75.082 C 41.830 75.899,41.200 76.727,41.200 76.923 C 41.200 77.119,40.660 77.783,40.000 78.400 C 39.340 79.017,38.800 79.692,38.800 79.901 C 38.800 80.110,38.260 80.846,37.600 81.537 C 36.940 82.228,36.400 83.025,36.400 83.308 C 36.400 83.591,36.040 84.083,35.600 84.400 C 35.160 84.717,34.800 85.215,34.800 85.506 C 34.800 85.798,34.364 86.472,33.831 87.005 C 33.298 87.538,32.746 88.340,32.604 88.787 C 32.462 89.234,32.178 89.600,31.973 89.600 C 31.768 89.600,31.600 89.836,31.600 90.125 C 31.600 90.413,31.240 91.036,30.800 91.508 C 30.360 91.980,30.000 92.554,30.000 92.783 C 30.000 93.012,29.820 93.200,29.600 93.200 C 29.380 93.200,29.200 93.470,29.200 93.800 C 29.200 94.130,29.064 94.400,28.898 94.400 C 28.731 94.400,28.341 94.985,28.030 95.700 C 27.719 96.415,27.344 97.090,27.197 97.200 C 27.050 97.310,26.230 98.750,25.374 100.400 C 24.519 102.050,23.680 103.460,23.509 103.533 C 23.339 103.607,23.200 104.012,23.200 104.433 C 23.200 104.855,23.020 105.200,22.800 105.200 C 22.580 105.200,22.400 105.560,22.400 106.000 C 22.400 106.440,22.220 106.800,22.000 106.800 C 21.780 106.800,21.600 107.160,21.600 107.600 C 21.600 108.040,21.454 108.400,21.275 108.400 C 21.096 108.400,20.702 109.030,20.400 109.800 C 20.098 110.570,19.704 111.200,19.525 111.200 C 19.346 111.200,19.200 111.560,19.200 112.000 C 19.200 112.440,19.020 112.800,18.800 112.800 C 18.580 112.800,18.400 113.160,18.400 113.600 C 18.400 114.040,18.220 114.400,18.000 114.400 C 17.780 114.400,17.600 114.672,17.600 115.005 C 17.600 115.338,17.392 116.013,17.138 116.505 C 16.167 118.382,16.000 118.807,16.000 119.395 C 16.000 119.728,15.820 120.000,15.600 120.000 C 15.380 120.000,15.200 120.360,15.200 120.800 C 15.200 121.240,15.020 121.600,14.800 121.600 C 14.580 121.600,14.400 122.039,14.400 122.576 C 14.400 123.113,14.220 123.664,14.000 123.800 C 13.780 123.936,13.600 124.397,13.600 124.824 C 13.600 125.251,13.420 125.600,13.200 125.600 C 12.980 125.600,12.800 126.050,12.800 126.600 C 12.800 127.150,12.653 127.600,12.472 127.600 C 12.292 127.600,11.896 128.511,11.593 129.625 C 11.290 130.739,10.897 131.740,10.721 131.849 C 10.544 131.958,10.400 132.476,10.400 133.000 C 10.400 133.524,10.220 134.064,10.000 134.200 C 9.780 134.336,9.600 134.876,9.600 135.400 C 9.600 135.924,9.433 136.456,9.228 136.583 C 9.023 136.709,8.733 137.800,8.582 139.006 C 8.431 140.213,8.149 141.200,7.954 141.200 C 7.759 141.200,7.600 141.729,7.600 142.376 C 7.600 143.023,7.420 143.664,7.200 143.800 C 6.980 143.936,6.800 144.577,6.800 145.224 C 6.800 145.871,6.620 146.400,6.400 146.400 C 6.180 146.400,6.000 147.120,6.000 148.000 C 6.000 148.880,5.820 149.600,5.600 149.600 C 5.380 149.600,5.200 150.320,5.200 151.200 C 5.200 152.080,5.020 152.800,4.800 152.800 C 4.580 152.800,4.400 153.520,4.400 154.400 C 4.400 155.280,4.220 156.000,4.000 156.000 C 3.780 156.000,3.600 156.900,3.600 158.000 C 3.600 159.100,3.420 160.000,3.200 160.000 C 2.980 160.000,2.800 160.900,2.800 162.000 C 2.800 163.100,2.620 164.000,2.400 164.000 C 2.180 164.000,2.000 164.979,2.000 166.176 C 2.000 167.373,1.820 168.464,1.600 168.600 C 1.380 168.736,1.200 170.061,1.200 171.544 C 1.200 173.167,1.001 174.439,0.700 174.740 C -0.029 175.469,-0.029 224.531,0.700 225.260 C 1.001 225.561,1.200 226.833,1.200 228.456 C 1.200 229.939,1.380 231.264,1.600 231.400 C 1.820 231.536,2.000 232.627,2.000 233.824 C 2.000 235.021,2.180 236.000,2.400 236.000 C 2.620 236.000,2.800 236.900,2.800 238.000 C 2.800 239.100,2.980 240.000,3.200 240.000 C 3.420 240.000,3.600 240.900,3.600 242.000 C 3.600 243.100,3.780 244.000,4.000 244.000 C 4.220 244.000,4.400 244.720,4.400 245.600 C 4.400 246.480,4.580 247.200,4.800 247.200 C 5.020 247.200,5.200 247.920,5.200 248.800 C 5.200 249.680,5.380 250.400,5.600 250.400 C 5.820 250.400,6.000 251.120,6.000 252.000 C 6.000 252.880,6.180 253.600,6.400 253.600 C 6.620 253.600,6.800 254.129,6.800 254.776 C 6.800 255.423,6.980 256.064,7.200 256.200 C 7.420 256.336,7.600 256.977,7.600 257.624 C 7.600 258.271,7.759 258.800,7.954 258.800 C 8.149 258.800,8.431 259.787,8.582 260.994 C 8.733 262.200,9.023 263.291,9.228 263.417 C 9.433 263.544,9.600 264.076,9.600 264.600 C 9.600 265.124,9.780 265.664,10.000 265.800 C 10.220 265.936,10.400 266.476,10.400 267.000 C 10.400 267.524,10.544 268.042,10.721 268.151 C 10.897 268.260,11.290 269.261,11.593 270.375 C 11.896 271.489,12.292 272.400,12.472 272.400 C 12.653 272.400,12.800 272.850,12.800 273.400 C 12.800 273.950,12.980 274.400,13.200 274.400 C 13.420 274.400,13.600 274.760,13.600 275.200 C 13.600 275.640,13.780 276.000,14.000 276.000 C 14.220 276.000,14.400 276.540,14.400 277.200 C 14.400 277.860,14.580 278.400,14.800 278.400 C 15.020 278.400,15.200 278.760,15.200 279.200 C 15.200 279.640,15.380 280.000,15.600 280.000 C 15.820 280.000,16.000 280.272,16.000 280.605 C 16.000 281.193,16.167 281.618,17.138 283.495 C 17.392 283.987,17.600 284.662,17.600 284.995 C 17.600 285.328,17.780 285.600,18.000 285.600 C 18.220 285.600,18.400 285.960,18.400 286.400 C 18.400 286.840,18.580 287.200,18.800 287.200 C 19.020 287.200,19.200 287.560,19.200 288.000 C 19.200 288.440,19.346 288.800,19.525 288.800 C 19.704 288.800,20.098 289.430,20.400 290.200 C 20.702 290.970,21.096 291.600,21.275 291.600 C 21.454 291.600,21.600 291.960,21.600 292.400 C 21.600 292.840,21.780 293.200,22.000 293.200 C 22.220 293.200,22.400 293.560,22.400 294.000 C 22.400 294.440,22.580 294.800,22.800 294.800 C 23.020 294.800,23.200 295.160,23.200 295.600 C 23.200 296.040,23.359 296.400,23.553 296.400 C 23.746 296.400,24.589 297.840,25.425 299.600 C 26.260 301.360,27.058 302.800,27.197 302.800 C 27.337 302.800,27.698 303.430,28.000 304.200 C 28.302 304.970,28.696 305.600,28.875 305.600 C 29.054 305.600,29.200 305.870,29.200 306.200 C 29.200 306.530,29.380 306.800,29.600 306.800 C 29.820 306.800,30.000 306.988,30.000 307.217 C 30.000 307.446,30.360 308.020,30.800 308.492 C 31.240 308.964,31.600 309.587,31.600 309.875 C 31.600 310.164,31.768 310.400,31.973 310.400 C 32.178 310.400,32.462 310.766,32.604 311.213 C 32.746 311.660,33.298 312.462,33.831 312.995 C 34.364 313.528,34.800 314.202,34.800 314.494 C 34.800 314.785,35.160 315.283,35.600 315.600 C 36.040 315.917,36.400 316.409,36.400 316.692 C 36.400 316.975,36.940 317.772,37.600 318.463 C 38.260 319.154,38.800 319.890,38.800 320.099 C 38.800 320.308,39.340 320.983,40.000 321.600 C 40.660 322.217,41.200 322.919,41.200 323.160 C 41.200 323.402,41.380 323.600,41.600 323.600 C 41.820 323.600,42.000 323.845,42.000 324.144 C 42.000 324.443,42.450 325.026,43.000 325.439 C 43.550 325.852,44.000 326.393,44.000 326.641 C 44.000 326.889,44.990 328.123,46.200 329.382 C 47.410 330.642,48.400 331.834,48.400 332.032 C 48.400 332.230,50.462 334.418,52.982 336.896 C 55.502 339.373,57.746 341.580,57.969 341.800 C 58.192 342.020,60.135 344.003,62.287 346.207 C 64.439 348.410,66.830 350.658,67.600 351.201 C 68.370 351.745,69.770 352.957,70.711 353.895 C 71.651 354.833,72.574 355.600,72.760 355.600 C 72.946 355.600,73.887 356.320,74.849 357.200 C 75.812 358.080,76.736 358.800,76.903 358.800 C 77.071 358.800,77.772 359.340,78.463 360.000 C 79.154 360.660,79.922 361.200,80.171 361.200 C 80.420 361.200,80.883 361.560,81.200 362.000 C 81.517 362.440,81.980 362.800,82.229 362.800 C 82.478 362.800,83.246 363.340,83.937 364.000 C 84.628 364.660,85.425 365.200,85.708 365.200 C 85.991 365.200,86.483 365.560,86.800 366.000 C 87.117 366.440,87.657 366.800,88.000 366.800 C 88.343 366.800,88.883 367.160,89.200 367.600 C 89.517 368.040,90.031 368.400,90.341 368.400 C 90.652 368.400,91.197 368.729,91.553 369.130 C 91.909 369.532,92.785 370.116,93.500 370.428 C 94.215 370.740,94.800 371.103,94.800 371.235 C 94.800 371.366,95.655 371.905,96.700 372.432 C 97.745 372.958,98.690 373.502,98.800 373.639 C 99.168 374.099,101.553 375.200,102.180 375.200 C 102.521 375.200,102.800 375.380,102.800 375.600 C 102.800 375.820,103.160 376.000,103.600 376.000 C 104.040 376.000,104.400 376.180,104.400 376.400 C 104.400 376.620,104.636 376.800,104.925 376.800 C 105.213 376.800,105.836 377.160,106.308 377.600 C 106.780 378.040,107.444 378.400,107.783 378.400 C 108.122 378.400,108.400 378.580,108.400 378.800 C 108.400 379.020,108.760 379.200,109.200 379.200 C 109.640 379.200,110.000 379.380,110.000 379.600 C 110.000 379.820,110.360 380.000,110.800 380.000 C 111.240 380.000,111.600 380.180,111.600 380.400 C 111.600 380.620,111.960 380.800,112.400 380.800 C 112.840 380.800,113.200 380.980,113.200 381.200 C 113.200 381.420,113.549 381.600,113.976 381.600 C 114.403 381.600,114.864 381.780,115.000 382.000 C 115.136 382.220,115.597 382.400,116.024 382.400 C 116.451 382.400,116.800 382.580,116.800 382.800 C 116.800 383.020,117.160 383.200,117.600 383.200 C 118.040 383.200,118.400 383.380,118.400 383.600 C 118.400 383.820,118.760 384.000,119.200 384.000 C 119.640 384.000,120.000 384.180,120.000 384.400 C 120.000 384.620,120.540 384.800,121.200 384.800 C 121.860 384.800,122.400 384.980,122.400 385.200 C 122.400 385.420,122.760 385.600,123.200 385.600 C 123.640 385.600,124.000 385.780,124.000 386.000 C 124.000 386.220,124.279 386.400,124.619 386.400 C 124.960 386.400,125.984 386.760,126.894 387.200 C 127.805 387.640,128.876 388.000,129.275 388.000 C 129.674 388.000,130.000 388.141,130.000 388.313 C 130.000 388.485,130.855 388.860,131.900 389.146 C 132.945 389.433,134.160 389.823,134.600 390.013 C 136.580 390.871,139.344 391.600,140.614 391.600 C 141.376 391.600,142.000 391.780,142.000 392.000 C 142.000 392.220,142.439 392.400,142.976 392.400 C 143.513 392.400,144.064 392.580,144.200 392.800 C 144.336 393.020,145.067 393.200,145.824 393.200 C 146.581 393.200,147.200 393.380,147.200 393.600 C 147.200 393.820,147.729 394.000,148.376 394.000 C 149.023 394.000,149.664 394.180,149.800 394.400 C 149.936 394.620,150.746 394.800,151.600 394.800 C 152.454 394.800,153.264 394.980,153.400 395.200 C 153.536 395.420,154.357 395.600,155.224 395.600 C 156.091 395.600,156.800 395.780,156.800 396.000 C 156.800 396.220,157.610 396.400,158.600 396.400 C 159.590 396.400,160.400 396.580,160.400 396.800 C 160.400 397.020,161.300 397.200,162.400 397.200 C 163.500 397.200,164.400 397.380,164.400 397.600 C 164.400 397.822,165.467 398.000,166.800 398.000 C 168.133 398.000,169.200 398.178,169.200 398.400 C 169.200 398.628,170.389 398.800,171.967 398.800 C 173.824 398.800,174.788 398.964,174.900 399.300 C 175.144 400.032,224.856 400.032,225.100 399.300 C 225.212 398.964,226.176 398.800,228.033 398.800 C 229.611 398.800,230.800 398.628,230.800 398.400 C 230.800 398.178,231.867 398.000,233.200 398.000 C 234.533 398.000,235.600 397.822,235.600 397.600 C 235.600 397.380,236.489 397.200,237.576 397.200 C 238.663 397.200,239.664 397.020,239.800 396.800 C 239.936 396.580,240.757 396.400,241.624 396.400 C 242.491 396.400,243.200 396.220,243.200 396.000 C 243.200 395.780,244.100 395.600,245.200 395.600 C 246.300 395.600,247.200 395.420,247.200 395.200 C 247.200 394.980,247.819 394.800,248.576 394.800 C 249.333 394.800,250.064 394.620,250.200 394.400 C 250.336 394.180,250.966 394.000,251.600 394.000 C 252.234 394.000,252.864 393.820,253.000 393.600 C 253.136 393.380,253.867 393.200,254.624 393.200 C 255.381 393.200,256.000 393.020,256.000 392.800 C 256.000 392.580,256.540 392.400,257.200 392.400 C 257.860 392.400,258.400 392.220,258.400 392.000 C 258.400 391.780,258.931 391.600,259.580 391.600 C 260.903 391.600,269.726 388.798,269.933 388.312 C 270.007 388.140,270.414 388.000,270.839 388.000 C 271.585 388.000,271.976 387.855,273.895 386.862 C 274.387 386.608,275.062 386.400,275.395 386.400 C 275.728 386.400,276.000 386.253,276.000 386.072 C 276.000 385.892,276.900 385.500,278.000 385.200 C 279.100 384.900,280.000 384.508,280.000 384.328 C 280.000 384.147,280.360 384.000,280.800 384.000 C 281.240 384.000,281.600 383.820,281.600 383.600 C 281.600 383.380,281.949 383.200,282.376 383.200 C 282.803 383.200,283.264 383.020,283.400 382.800 C 283.536 382.580,283.997 382.400,284.424 382.400 C 284.851 382.400,285.200 382.220,285.200 382.000 C 285.200 381.780,285.445 381.600,285.744 381.600 C 286.401 381.600,291.345 379.124,291.533 378.700 C 291.607 378.535,292.012 378.400,292.433 378.400 C 292.855 378.400,293.200 378.220,293.200 378.000 C 293.200 377.780,293.478 377.600,293.817 377.600 C 294.156 377.600,294.820 377.240,295.292 376.800 C 295.764 376.360,296.387 376.000,296.675 376.000 C 296.964 376.000,297.200 375.820,297.200 375.600 C 297.200 375.380,297.491 375.200,297.846 375.200 C 298.562 375.200,302.523 373.174,302.733 372.700 C 302.807 372.535,303.044 372.400,303.261 372.400 C 303.478 372.400,304.441 371.860,305.400 371.200 C 306.359 370.540,307.297 370.000,307.484 370.000 C 307.671 370.000,308.083 369.640,308.400 369.200 C 308.717 368.760,309.257 368.400,309.600 368.400 C 309.943 368.400,310.483 368.040,310.800 367.600 C 311.117 367.160,311.657 366.800,312.000 366.800 C 312.343 366.800,312.883 366.440,313.200 366.000 C 313.517 365.560,314.057 365.200,314.400 365.200 C 314.743 365.200,315.283 364.840,315.600 364.400 C 315.917 363.960,316.415 363.600,316.706 363.600 C 317.437 363.600,319.200 361.774,319.200 361.018 C 319.200 360.678,319.380 360.400,319.600 360.400 C 319.820 360.400,320.000 360.040,320.000 359.600 C 320.000 359.160,320.180 358.800,320.400 358.800 C 320.626 358.800,320.800 357.667,320.800 356.200 C 320.800 354.733,320.626 353.600,320.400 353.600 C 320.180 353.600,320.000 353.240,320.000 352.800 C 320.000 352.360,319.760 352.000,319.466 352.000 C 319.172 352.000,318.137 351.400,317.166 350.667 C 314.415 348.592,312.365 348.092,310.075 348.941 C 308.394 349.564,303.355 352.678,302.100 353.868 C 301.699 354.249,297.083 357.142,293.275 359.400 C 287.391 362.888,275.635 368.747,270.400 370.800 C 269.190 371.274,267.660 371.897,267.000 372.184 C 266.340 372.471,265.170 372.925,264.400 373.193 C 263.630 373.461,262.640 373.833,262.200 374.019 C 259.608 375.114,250.167 377.944,245.000 379.174 C 243.900 379.436,242.370 379.811,241.600 380.006 C 240.192 380.364,239.400 380.533,235.900 381.225 C 225.998 383.181,221.558 383.755,211.200 384.417 C 197.011 385.324,180.896 384.416,168.000 381.984 C 166.790 381.755,164.900 381.408,163.800 381.212 C 162.700 381.016,161.080 380.671,160.200 380.446 C 159.320 380.220,158.060 379.916,157.400 379.770 C 151.934 378.560,141.097 375.376,137.800 374.012 C 137.360 373.830,136.370 373.464,135.600 373.200 C 133.835 372.594,133.063 372.285,130.704 371.240 C 129.662 370.778,128.705 370.400,128.579 370.400 C 127.998 370.400,117.551 365.336,112.600 362.654 C 107.304 359.785,106.762 359.478,104.908 358.287 C 103.977 357.689,103.032 357.200,102.808 357.200 C 102.584 357.200,102.400 357.020,102.400 356.800 C 102.400 356.580,102.164 356.400,101.875 356.400 C 101.587 356.400,101.002 356.085,100.575 355.700 C 100.149 355.315,99.305 354.745,98.700 354.432 C 98.095 354.120,97.600 353.715,97.600 353.532 C 97.600 353.350,97.375 353.198,97.100 353.195 C 96.825 353.192,96.150 352.829,95.600 352.389 C 95.050 351.949,92.740 350.196,90.466 348.494 C 80.718 341.196,77.318 338.220,68.237 329.033 C 60.678 321.386,53.579 312.902,48.797 305.800 C 47.612 304.040,46.496 302.420,46.317 302.200 C 43.495 298.730,33.649 280.730,31.220 274.600 C 30.697 273.280,30.148 272.020,29.999 271.800 C 29.747 271.427,28.100 267.240,26.379 262.600 C 25.446 260.085,22.943 252.132,22.665 250.800 C 22.470 249.867,22.291 249.208,21.170 245.300 C 20.933 244.475,20.573 243.035,20.370 242.100 C 20.166 241.165,19.812 239.545,19.581 238.500 C 19.351 237.455,18.978 235.520,18.752 234.200 C 18.526 232.880,18.166 230.810,17.951 229.600 C 16.480 221.321,15.832 212.273,15.832 200.000 C 15.832 187.715,16.486 178.600,17.954 170.400 C 18.171 169.190,18.463 167.300,18.603 166.200 C 18.744 165.100,19.011 163.840,19.197 163.400 C 19.384 162.960,19.656 161.880,19.803 161.000 C 20.196 158.643,20.684 156.395,21.170 154.700 C 22.288 150.802,22.470 150.133,22.668 149.200 C 23.402 145.734,27.891 132.875,30.033 128.099 C 30.501 127.054,31.157 125.570,31.490 124.800 C 32.272 122.990,37.038 113.362,37.924 111.800 C 38.299 111.140,39.396 109.160,40.362 107.400 C 42.470 103.560,49.230 93.344,52.354 89.275 C 53.589 87.667,55.057 85.758,55.615 85.033 C 58.860 80.821,68.955 69.795,72.652 66.425 C 73.724 65.448,75.593 63.738,76.806 62.625 C 79.366 60.276,83.042 57.143,84.997 55.644 C 85.746 55.070,87.450 53.745,88.784 52.700 C 90.118 51.655,91.372 50.800,91.571 50.800 C 91.770 50.800,91.993 50.647,92.067 50.459 C 92.273 49.931,103.815 42.331,107.400 40.362 C 109.160 39.396,111.140 38.299,111.800 37.924 C 113.368 37.034,122.998 32.269,124.800 31.491 C 125.570 31.158,127.190 30.449,128.400 29.914 C 129.610 29.379,131.230 28.712,132.000 28.430 C 132.770 28.149,133.760 27.775,134.200 27.599 C 137.908 26.113,146.981 23.128,149.200 22.665 C 149.750 22.550,150.830 22.273,151.600 22.050 C 156.238 20.708,157.209 20.479,161.200 19.788 C 161.970 19.655,162.960 19.387,163.400 19.194 C 163.840 19.000,165.010 18.751,166.000 18.640 C 166.990 18.529,168.880 18.240,170.200 17.999 C 178.406 16.499,187.569 15.832,200.000 15.832 C 215.048 15.832,226.728 16.969,238.500 19.579 C 239.545 19.810,241.165 20.166,242.100 20.370 C 243.035 20.573,244.520 20.945,245.400 21.196 C 246.280 21.448,247.630 21.809,248.400 22.000 C 253.153 23.177,257.558 24.523,261.800 26.094 C 268.049 28.409,269.429 28.951,271.910 30.069 C 273.291 30.691,274.560 31.200,274.730 31.200 C 276.179 31.200,298.518 43.472,302.203 46.292 C 302.424 46.461,303.774 47.396,305.203 48.368 C 309.072 51.003,313.924 54.716,319.400 59.234 C 324.260 63.244,336.623 75.598,340.689 80.507 C 346.110 87.054,351.600 94.253,351.600 94.816 C 351.600 95.027,351.750 95.200,351.932 95.200 C 352.115 95.200,352.520 95.695,352.832 96.300 C 353.145 96.905,353.715 97.749,354.100 98.175 C 354.485 98.602,354.800 99.104,354.800 99.292 C 354.800 99.480,355.160 100.020,355.600 100.492 C 356.040 100.964,356.400 101.587,356.400 101.875 C 356.400 102.164,356.580 102.400,356.800 102.400 C 357.020 102.400,357.200 102.597,357.200 102.838 C 357.200 103.079,357.539 103.754,357.953 104.338 C 360.832 108.396,368.968 124.546,371.587 131.400 C 371.755 131.840,372.079 132.650,372.306 133.200 C 372.533 133.750,372.936 134.830,373.200 135.600 C 373.464 136.370,373.836 137.360,374.025 137.800 C 375.243 140.629,378.570 151.981,379.770 157.400 C 379.916 158.060,380.220 159.320,380.446 160.200 C 380.671 161.080,381.016 162.700,381.212 163.800 C 381.408 164.900,381.755 166.790,381.984 168.000 C 384.416 180.896,385.299 196.614,384.409 211.200 C 383.890 219.704,383.424 223.720,382.041 231.600 C 381.205 236.364,380.392 240.152,379.121 245.200 C 377.353 252.226,375.355 258.864,374.005 262.200 C 373.826 262.640,373.461 263.630,373.193 264.400 C 372.925 265.170,372.471 266.340,372.184 267.000 C 371.897 267.660,371.274 269.190,370.800 270.400 C 368.747 275.635,362.888 287.391,359.400 293.275 C 357.222 296.948,354.250 301.702,353.871 302.117 C 353.612 302.401,353.220 302.923,353.000 303.276 C 352.780 303.629,352.054 304.702,351.386 305.659 C 347.825 310.769,347.678 313.157,350.678 317.166 C 351.405 318.137,352.000 319.172,352.000 319.466 C 352.000 319.760,352.360 320.000,352.800 320.000 C 353.240 320.000,353.600 320.180,353.600 320.400 C 353.600 320.923,358.277 320.923,358.600 320.400 C 358.736 320.180,359.197 320.000,359.624 320.000 C 360.051 320.000,360.400 319.820,360.400 319.600 C 360.400 319.380,360.678 319.200,361.018 319.200 C 361.774 319.200,363.600 317.437,363.600 316.706 C 363.600 316.415,363.960 315.917,364.400 315.600 C 364.840 315.283,365.200 314.743,365.200 314.400 C 365.200 314.057,365.560 313.517,366.000 313.200 C 366.440 312.883,366.800 312.343,366.800 312.000 C 366.800 311.657,367.160 311.117,367.600 310.800 C 368.040 310.483,368.400 309.943,368.400 309.600 C 368.400 309.257,368.760 308.717,369.200 308.400 C 369.640 308.083,370.000 307.671,370.000 307.484 C 370.000 307.297,370.540 306.359,371.200 305.400 C 371.860 304.441,372.400 303.478,372.400 303.261 C 372.400 303.044,372.535 302.807,372.700 302.733 C 373.174 302.523,375.200 298.562,375.200 297.846 C 375.200 297.491,375.380 297.200,375.600 297.200 C 375.820 297.200,376.000 296.964,376.000 296.675 C 376.000 296.387,376.360 295.764,376.800 295.292 C 377.240 294.820,377.600 294.156,377.600 293.817 C 377.600 293.478,377.780 293.200,378.000 293.200 C 378.220 293.200,378.400 292.840,378.400 292.400 C 378.400 291.960,378.580 291.600,378.800 291.600 C 379.020 291.600,379.200 291.255,379.200 290.833 C 379.200 290.412,379.335 290.007,379.500 289.933 C 379.932 289.741,381.600 286.428,381.600 285.762 C 381.600 285.453,381.780 285.200,382.000 285.200 C 382.220 285.200,382.400 284.750,382.400 284.200 C 382.400 283.650,382.580 283.200,382.800 283.200 C 383.020 283.200,383.200 282.840,383.200 282.400 C 383.200 281.960,383.380 281.600,383.600 281.600 C 383.820 281.600,384.000 281.240,384.000 280.800 C 384.000 280.360,384.147 280.000,384.328 280.000 C 384.508 280.000,384.900 279.100,385.200 278.000 C 385.500 276.900,385.892 276.000,386.072 276.000 C 386.253 276.000,386.400 275.728,386.400 275.395 C 386.400 275.062,386.580 274.432,386.800 273.995 C 387.020 273.558,387.380 272.842,387.600 272.405 C 387.820 271.968,388.000 271.248,388.000 270.805 C 388.000 270.362,388.180 270.000,388.400 270.000 C 388.620 270.000,388.800 269.638,388.800 269.195 C 388.800 268.752,388.976 268.077,389.191 267.695 C 389.938 266.368,391.600 260.776,391.600 259.592 C 391.600 258.936,391.780 258.400,392.000 258.400 C 392.220 258.400,392.400 257.860,392.400 257.200 C 392.400 256.540,392.580 256.000,392.800 256.000 C 393.020 256.000,393.200 255.381,393.200 254.624 C 393.200 253.867,393.380 253.136,393.600 253.000 C 393.820 252.864,394.000 252.234,394.000 251.600 C 394.000 250.966,394.180 250.336,394.400 250.200 C 394.620 250.064,394.800 249.333,394.800 248.576 C 394.800 247.819,394.980 247.200,395.200 247.200 C 395.420 247.200,395.600 246.300,395.600 245.200 C 395.600 244.100,395.780 243.200,396.000 243.200 C 396.220 243.200,396.400 242.390,396.400 241.400 C 396.400 240.410,396.580 239.600,396.800 239.600 C 397.020 239.600,397.200 238.700,397.200 237.600 C 397.200 236.500,397.380 235.600,397.600 235.600 C 397.822 235.600,398.000 234.533,398.000 233.200 C 398.000 231.867,398.178 230.800,398.400 230.800 C 398.627 230.800,398.800 229.627,398.800 228.080 C 398.800 226.437,398.998 225.162,399.300 224.860 C 399.689 224.471,399.800 218.897,399.800 199.713 C 399.800 180.352,399.693 175.031,399.300 174.900 C 398.964 174.788,398.800 173.824,398.800 171.967 C 398.800 170.389,398.628 169.200,398.400 169.200 C 398.178 169.200,398.000 168.133,398.000 166.800 C 398.000 165.467,397.822 164.400,397.600 164.400 C 397.380 164.400,397.200 163.500,397.200 162.400 C 397.200 161.300,397.020 160.400,396.800 160.400 C 396.580 160.400,396.400 159.590,396.400 158.600 C 396.400 157.610,396.220 156.800,396.000 156.800 C 395.780 156.800,395.600 156.001,395.600 155.024 C 395.600 154.047,395.420 153.136,395.200 153.000 C 394.980 152.864,394.800 152.043,394.800 151.176 C 394.800 150.309,394.620 149.600,394.400 149.600 C 394.180 149.600,394.000 149.071,394.000 148.424 C 394.000 147.777,393.820 147.136,393.600 147.000 C 393.380 146.864,393.200 146.133,393.200 145.376 C 393.200 144.619,393.020 144.000,392.800 144.000 C 392.580 144.000,392.400 143.561,392.400 143.024 C 392.400 142.487,392.220 141.936,392.000 141.800 C 391.780 141.664,391.600 141.032,391.600 140.396 C 391.600 139.090,388.793 130.272,388.312 130.067 C 388.140 129.993,388.000 129.622,388.000 129.242 C 388.000 128.861,387.640 127.805,387.200 126.894 C 386.760 125.984,386.400 124.960,386.400 124.619 C 386.400 124.279,386.220 124.000,386.000 124.000 C 385.780 124.000,385.600 123.640,385.600 123.200 C 385.600 122.760,385.420 122.400,385.200 122.400 C 384.980 122.400,384.800 121.860,384.800 121.200 C 384.800 120.540,384.620 120.000,384.400 120.000 C 384.180 120.000,384.000 119.640,384.000 119.200 C 384.000 118.760,383.820 118.400,383.600 118.400 C 383.380 118.400,383.200 118.040,383.200 117.600 C 383.200 117.160,383.020 116.800,382.800 116.800 C 382.580 116.800,382.400 116.451,382.400 116.024 C 382.400 115.597,382.220 115.136,382.000 115.000 C 381.780 114.864,381.600 114.403,381.600 113.976 C 381.600 113.549,381.420 113.200,381.200 113.200 C 380.980 113.200,380.800 112.840,380.800 112.400 C 380.800 111.960,380.620 111.600,380.400 111.600 C 380.180 111.600,380.000 111.240,380.000 110.800 C 380.000 110.360,379.820 110.000,379.600 110.000 C 379.380 110.000,379.200 109.640,379.200 109.200 C 379.200 108.760,379.020 108.400,378.800 108.400 C 378.580 108.400,378.400 108.122,378.400 107.783 C 378.400 107.444,378.040 106.780,377.600 106.308 C 377.160 105.836,376.800 105.213,376.800 104.925 C 376.800 104.636,376.620 104.400,376.400 104.400 C 376.180 104.400,376.000 104.040,376.000 103.600 C 376.000 103.160,375.820 102.800,375.600 102.800 C 375.380 102.800,375.200 102.536,375.200 102.214 C 375.200 101.401,373.924 98.800,373.526 98.800 C 373.347 98.800,373.200 98.440,373.200 98.000 C 373.200 97.560,373.020 97.200,372.800 97.200 C 372.580 97.200,372.400 96.964,372.400 96.675 C 372.400 96.387,372.085 95.802,371.700 95.375 C 371.315 94.949,370.731 94.060,370.403 93.400 C 370.074 92.740,369.489 91.909,369.103 91.553 C 368.716 91.197,368.400 90.652,368.400 90.341 C 368.400 90.031,368.040 89.517,367.600 89.200 C 367.160 88.883,366.800 88.343,366.800 88.000 C 366.800 87.657,366.440 87.117,366.000 86.800 C 365.560 86.483,365.200 85.991,365.200 85.708 C 365.200 85.425,364.660 84.628,364.000 83.937 C 363.340 83.246,362.800 82.478,362.800 82.229 C 362.800 81.980,362.440 81.517,362.000 81.200 C 361.560 80.883,361.200 80.420,361.200 80.171 C 361.200 79.922,360.660 79.154,360.000 78.463 C 359.340 77.772,358.800 77.071,358.800 76.903 C 358.800 76.736,358.080 75.812,357.200 74.849 C 356.320 73.887,355.600 72.946,355.600 72.760 C 355.600 72.574,354.833 71.651,353.895 70.711 C 352.957 69.770,351.745 68.370,351.201 67.600 C 350.658 66.830,348.410 64.439,346.207 62.287 C 344.003 60.135,342.020 58.190,341.800 57.966 C 335.292 51.322,331.886 48.000,331.583 48.000 C 331.375 48.000,330.285 47.100,329.161 46.000 C 328.038 44.900,326.910 44.000,326.654 44.000 C 326.399 44.000,325.852 43.550,325.439 43.000 C 325.026 42.450,324.443 42.000,324.144 42.000 C 323.845 42.000,323.600 41.820,323.600 41.600 C 323.600 41.380,323.402 41.200,323.160 41.200 C 322.919 41.200,322.217 40.660,321.600 40.000 C 320.983 39.340,320.308 38.800,320.099 38.800 C 319.890 38.800,319.154 38.260,318.463 37.600 C 317.772 36.940,316.975 36.400,316.692 36.400 C 316.409 36.400,315.917 36.040,315.600 35.600 C 315.283 35.160,314.838 34.800,314.612 34.800 C 314.385 34.799,313.683 34.354,313.051 33.811 C 312.419 33.267,311.564 32.716,311.151 32.584 C 310.738 32.453,310.400 32.178,310.400 31.973 C 310.400 31.768,310.164 31.600,309.875 31.600 C 309.587 31.600,308.964 31.240,308.492 30.800 C 308.020 30.360,307.446 30.000,307.217 30.000 C 306.988 30.000,306.800 29.820,306.800 29.600 C 306.800 29.380,306.530 29.200,306.200 29.200 C 305.870 29.200,305.600 29.064,305.600 28.898 C 305.600 28.731,305.015 28.341,304.300 28.030 C 303.585 27.719,302.910 27.344,302.800 27.197 C 302.690 27.050,301.250 26.230,299.600 25.374 C 297.950 24.519,296.540 23.680,296.467 23.509 C 296.393 23.339,295.988 23.200,295.567 23.200 C 295.145 23.200,294.800 23.020,294.800 22.800 C 294.800 22.580,294.440 22.400,294.000 22.400 C 293.560 22.400,293.200 22.220,293.200 22.000 C 293.200 21.780,292.840 21.600,292.400 21.600 C 291.960 21.600,291.600 21.454,291.600 21.275 C 291.600 21.096,290.970 20.702,290.200 20.400 C 289.430 20.098,288.800 19.704,288.800 19.525 C 288.800 19.346,288.440 19.200,288.000 19.200 C 287.560 19.200,287.200 19.020,287.200 18.800 C 287.200 18.580,286.840 18.400,286.400 18.400 C 285.960 18.400,285.600 18.220,285.600 18.000 C 285.600 17.780,285.328 17.600,284.995 17.600 C 284.662 17.600,283.987 17.392,283.495 17.138 C 281.618 16.167,281.193 16.000,280.605 16.000 C 280.272 16.000,280.000 15.820,280.000 15.600 C 280.000 15.380,279.640 15.200,279.200 15.200 C 278.760 15.200,278.400 15.020,278.400 14.800 C 278.400 14.580,277.961 14.400,277.424 14.400 C 276.887 14.400,276.336 14.220,276.200 14.000 C 276.064 13.780,275.603 13.600,275.176 13.600 C 274.749 13.600,274.400 13.420,274.400 13.200 C 274.400 12.980,273.950 12.800,273.400 12.800 C 272.850 12.800,272.400 12.620,272.400 12.400 C 272.400 12.180,272.051 12.000,271.624 12.000 C 271.197 12.000,270.736 11.820,270.600 11.600 C 270.464 11.380,269.924 11.200,269.400 11.200 C 268.876 11.200,268.336 11.020,268.200 10.800 C 268.064 10.580,267.524 10.400,267.000 10.400 C 266.476 10.400,265.936 10.220,265.800 10.000 C 265.664 9.780,265.124 9.600,264.600 9.600 C 264.076 9.600,263.544 9.433,263.417 9.228 C 263.291 9.023,262.200 8.733,260.994 8.582 C 259.787 8.431,258.800 8.149,258.800 7.954 C 258.800 7.759,258.271 7.600,257.624 7.600 C 256.977 7.600,256.336 7.420,256.200 7.200 C 256.064 6.980,255.423 6.800,254.776 6.800 C 254.129 6.800,253.600 6.620,253.600 6.400 C 253.600 6.180,252.880 6.000,252.000 6.000 C 251.120 6.000,250.400 5.820,250.400 5.600 C 250.400 5.380,249.680 5.200,248.800 5.200 C 247.920 5.200,247.200 5.020,247.200 4.800 C 247.200 4.580,246.480 4.400,245.600 4.400 C 244.720 4.400,244.000 4.220,244.000 4.000 C 244.000 3.780,243.100 3.600,242.000 3.600 C 240.900 3.600,240.000 3.420,240.000 3.200 C 240.000 2.980,239.100 2.800,238.000 2.800 C 236.900 2.800,236.000 2.620,236.000 2.400 C 236.000 2.180,235.021 2.000,233.824 2.000 C 232.627 2.000,231.536 1.820,231.400 1.600 C 231.264 1.380,229.939 1.200,228.456 1.200 C 226.853 1.200,225.560 1.000,225.267 0.707 C 224.780 0.220,187.008 -0.127,178.402 0.276 M263.800 102.425 C 262.753 102.944,246.925 118.489,217.999 147.409 L 173.798 191.601 155.847 173.647 C 145.733 163.531,137.204 155.324,136.310 154.847 C 134.654 153.962,131.438 153.692,131.000 154.400 C 130.864 154.620,130.435 154.800,130.047 154.800 C 129.196 154.800,82.261 201.623,82.061 202.672 C 81.985 203.072,81.760 203.571,81.561 203.780 C 80.994 204.376,81.138 206.953,81.830 208.609 C 82.727 210.757,168.828 296.867,170.975 297.764 C 172.903 298.569,174.682 298.571,176.651 297.769 C 178.847 296.875,316.848 158.959,318.002 156.504 C 318.846 154.710,319.072 151.815,318.400 151.400 C 318.180 151.264,318.000 150.836,318.000 150.449 C 318.000 149.516,270.891 102.400,269.958 102.400 C 269.567 102.400,269.136 102.220,269.000 102.000 C 268.587 101.331,265.498 101.583,263.800 102.425 M283.698 136.698 C 292.664 145.662,300.000 153.215,300.000 153.483 C 300.000 153.750,271.623 182.344,236.939 217.023 L 173.879 280.077 136.939 243.139 C 116.623 222.824,100.000 206.022,100.000 205.803 C 100.000 205.215,132.508 172.800,133.098 172.800 C 133.373 172.800,141.608 180.790,151.397 190.555 C 164.388 203.514,169.681 208.538,170.994 209.155 C 172.886 210.045,175.382 210.276,175.800 209.600 C 175.936 209.380,176.425 209.200,176.886 209.200 C 177.466 209.200,191.429 195.496,222.126 164.800 C 246.547 140.380,266.723 120.400,266.962 120.400 C 267.201 120.400,274.732 127.734,283.698 136.698 M333.400 328.880 C 329.027 330.399,327.286 335.402,329.600 339.800 C 330.260 341.055,330.800 342.268,330.800 342.497 C 330.800 343.537,332.298 343.975,335.900 343.987 C 338.108 343.995,339.600 343.839,339.600 343.600 C 339.600 343.380,339.948 343.200,340.373 343.200 C 340.798 343.200,341.257 342.849,341.394 342.420 C 341.530 341.992,341.992 341.530,342.420 341.394 C 342.849 341.257,343.200 340.798,343.200 340.373 C 343.200 339.948,343.380 339.600,343.600 339.600 C 343.839 339.600,343.995 338.108,343.987 335.900 C 343.975 332.298,343.537 330.800,342.497 330.800 C 342.268 330.800,341.055 330.260,339.800 329.600 C 337.408 328.342,335.551 328.133,333.400 328.880 " stroke="none" fill="#040504" fill-rule="evenodd"></path><path id="path1" d="M223.302 164.675 C 199.346 188.614,179.385 208.470,178.943 208.800 C 177.160 210.132,176.299 210.400,173.800 210.400 C 170.217 210.400,171.427 211.420,151.495 191.602 C 141.647 181.811,133.428 173.745,133.230 173.678 C 132.945 173.582,104.438 201.799,101.473 205.111 C 100.755 205.912,101.236 206.414,137.175 242.362 C 157.211 262.403,173.738 278.797,173.902 278.794 C 174.066 278.791,202.359 250.623,236.775 216.200 L 299.350 153.611 298.375 152.546 C 296.830 150.859,268.236 122.258,267.511 121.675 C 266.936 121.213,261.631 126.373,223.302 164.675 " stroke="none" fill="#fbfbfb" fill-rule="evenodd"></path><path id="path2" d="M198.600 15.814 C 198.380 15.913,194.600 16.177,190.200 16.402 C 182.133 16.815,177.573 17.238,172.800 18.016 C 171.370 18.249,169.210 18.537,168.000 18.655 C 166.790 18.774,165.629 19.035,165.420 19.235 C 165.211 19.436,164.392 19.600,163.600 19.600 C 162.808 19.600,161.989 19.762,161.780 19.959 C 161.571 20.156,160.680 20.416,159.800 20.536 C 157.143 20.899,155.443 21.237,154.600 21.572 C 152.835 22.272,150.898 22.800,150.095 22.800 C 149.629 22.800,149.136 22.980,149.000 23.200 C 148.864 23.420,148.234 23.600,147.600 23.600 C 146.966 23.600,146.336 23.780,146.200 24.000 C 146.064 24.220,145.524 24.400,145.000 24.400 C 144.476 24.400,143.936 24.580,143.800 24.800 C 143.664 25.020,143.124 25.200,142.600 25.200 C 142.076 25.200,141.536 25.380,141.400 25.600 C 141.264 25.820,140.801 26.000,140.371 26.000 C 139.941 26.000,139.277 26.166,138.895 26.368 C 138.513 26.570,137.120 27.125,135.800 27.600 C 134.480 28.075,133.087 28.630,132.705 28.832 C 132.323 29.034,131.834 29.200,131.617 29.200 C 131.401 29.200,130.240 29.650,129.037 30.200 C 127.835 30.750,126.719 31.200,126.557 31.200 C 126.055 31.200,111.492 38.488,109.800 39.586 C 108.920 40.157,107.660 40.886,107.000 41.206 C 105.071 42.141,92.132 50.530,91.600 51.190 C 91.490 51.327,90.770 51.871,90.000 52.400 C 89.230 52.929,88.510 53.461,88.400 53.583 C 88.290 53.705,87.541 54.296,86.735 54.896 C 85.929 55.497,85.029 56.222,84.735 56.507 C 84.441 56.793,83.601 57.448,82.869 57.963 C 82.136 58.478,81.126 59.282,80.624 59.750 C 80.122 60.217,77.661 62.490,75.155 64.800 C 72.650 67.110,68.350 71.404,65.600 74.343 C 58.830 81.578,59.021 81.364,57.963 82.869 C 57.448 83.601,56.793 84.441,56.507 84.735 C 56.222 85.029,55.498 85.929,54.898 86.735 C 54.299 87.541,53.492 88.491,53.104 88.847 C 52.717 89.203,52.400 89.664,52.400 89.871 C 52.400 90.079,52.077 90.598,51.681 91.025 C 50.578 92.216,43.384 103.039,41.578 106.227 C 41.150 106.982,40.409 108.275,39.932 109.100 C 37.858 112.682,32.045 124.519,30.649 128.000 C 29.812 130.090,28.963 132.113,28.763 132.495 C 28.563 132.877,28.400 133.380,28.400 133.614 C 28.400 133.848,28.040 134.784,27.600 135.694 C 27.160 136.605,26.800 137.666,26.800 138.052 C 26.800 138.437,26.620 138.864,26.400 139.000 C 26.180 139.136,26.000 139.676,26.000 140.200 C 26.000 140.724,25.820 141.264,25.600 141.400 C 25.380 141.536,25.200 142.076,25.200 142.600 C 25.200 143.124,25.020 143.664,24.800 143.800 C 24.580 143.936,24.400 144.476,24.400 145.000 C 24.400 145.524,24.220 146.064,24.000 146.200 C 23.780 146.336,23.600 146.966,23.600 147.600 C 23.600 148.234,23.420 148.864,23.200 149.000 C 22.980 149.136,22.800 149.766,22.800 150.400 C 22.800 151.034,22.620 151.664,22.400 151.800 C 22.180 151.936,22.000 152.566,22.000 153.200 C 22.000 153.834,21.839 154.452,21.642 154.574 C 21.300 154.786,21.124 155.607,20.569 159.600 C 20.431 160.590,20.156 161.571,19.959 161.780 C 19.762 161.989,19.600 162.833,19.600 163.656 C 19.600 164.479,19.420 165.264,19.200 165.400 C 18.980 165.536,18.800 166.591,18.800 167.744 C 18.800 168.897,18.640 170.011,18.443 170.220 C 18.247 170.429,17.968 171.770,17.822 173.200 C 17.676 174.630,17.390 177.240,17.187 179.000 C 15.750 191.467,15.753 209.389,17.194 221.200 C 17.395 222.850,17.679 225.370,17.823 226.800 C 17.968 228.230,18.247 229.571,18.443 229.780 C 18.640 229.989,18.800 231.103,18.800 232.256 C 18.800 233.409,18.980 234.464,19.200 234.600 C 19.420 234.736,19.600 235.521,19.600 236.344 C 19.600 237.167,19.762 238.011,19.959 238.220 C 20.156 238.429,20.431 239.410,20.569 240.400 C 21.124 244.393,21.300 245.214,21.642 245.426 C 21.839 245.548,22.000 246.166,22.000 246.800 C 22.000 247.434,22.180 248.064,22.400 248.200 C 22.620 248.336,22.800 248.966,22.800 249.600 C 22.800 250.234,22.980 250.864,23.200 251.000 C 23.420 251.136,23.600 251.766,23.600 252.400 C 23.600 253.034,23.780 253.664,24.000 253.800 C 24.220 253.936,24.400 254.476,24.400 255.000 C 24.400 255.524,24.580 256.064,24.800 256.200 C 25.020 256.336,25.200 256.876,25.200 257.400 C 25.200 257.924,25.380 258.464,25.600 258.600 C 25.820 258.736,26.000 259.276,26.000 259.800 C 26.000 260.324,26.180 260.864,26.400 261.000 C 26.620 261.136,26.800 261.599,26.800 262.029 C 26.800 262.459,26.959 263.123,27.153 263.505 C 27.485 264.158,27.920 265.188,28.756 267.300 C 28.952 267.795,29.787 269.910,30.612 272.000 C 32.135 275.860,34.412 280.836,34.821 281.200 C 34.944 281.310,35.295 282.030,35.600 282.800 C 35.905 283.570,36.263 284.290,36.396 284.400 C 36.529 284.510,37.128 285.590,37.728 286.800 C 38.327 288.010,39.292 289.810,39.872 290.800 C 40.452 291.790,41.123 292.960,41.363 293.400 C 42.875 296.168,50.541 307.864,51.195 308.400 C 51.329 308.510,51.871 309.230,52.400 310.000 C 52.929 310.770,53.469 311.490,53.600 311.600 C 53.731 311.710,54.274 312.430,54.806 313.200 C 55.338 313.970,56.007 314.841,56.293 315.135 C 56.578 315.429,57.302 316.329,57.902 317.135 C 58.501 317.941,59.267 318.870,59.603 319.200 C 59.940 319.530,61.292 321.052,62.608 322.583 C 65.760 326.249,73.919 334.392,77.417 337.363 C 78.948 338.663,80.470 340.017,80.800 340.372 C 81.130 340.727,82.030 341.455,82.800 341.990 C 83.570 342.525,84.470 343.249,84.800 343.600 C 85.130 343.951,86.030 344.671,86.800 345.200 C 87.570 345.729,88.491 346.486,88.847 346.881 C 89.203 347.276,89.664 347.600,89.871 347.600 C 90.079 347.600,90.604 347.915,91.038 348.300 C 92.862 349.917,95.045 351.472,99.964 354.658 C 100.934 355.286,102.194 356.113,102.764 356.496 C 103.334 356.878,104.070 357.313,104.400 357.463 C 104.730 357.612,105.720 358.206,106.600 358.783 C 107.480 359.359,109.100 360.272,110.200 360.810 C 111.300 361.349,112.290 361.882,112.400 361.995 C 112.510 362.108,113.320 362.574,114.200 363.030 C 115.080 363.487,116.160 364.054,116.600 364.290 C 120.561 366.417,127.522 369.512,133.000 371.583 C 135.420 372.497,137.713 373.415,138.095 373.623 C 138.477 373.830,139.141 374.000,139.571 374.000 C 140.001 374.000,140.464 374.180,140.600 374.400 C 140.736 374.620,141.276 374.800,141.800 374.800 C 142.324 374.800,142.864 374.980,143.000 375.200 C 143.136 375.420,143.599 375.600,144.029 375.600 C 144.459 375.600,145.123 375.762,145.505 375.961 C 145.887 376.160,147.010 376.540,148.000 376.807 C 148.990 377.073,150.160 377.437,150.600 377.615 C 151.564 378.006,153.270 378.390,155.303 378.674 C 156.129 378.790,156.905 379.045,157.026 379.242 C 157.148 379.439,157.856 379.600,158.600 379.600 C 159.344 379.600,160.064 379.780,160.200 380.000 C 160.336 380.220,161.121 380.400,161.944 380.400 C 162.767 380.400,163.611 380.563,163.820 380.761 C 164.029 380.960,165.010 381.225,166.000 381.350 C 166.990 381.475,169.060 381.767,170.600 381.999 C 182.601 383.807,187.337 384.152,200.000 384.139 C 214.121 384.125,223.304 383.330,234.000 381.198 C 235.210 380.957,236.920 380.660,237.800 380.539 C 238.680 380.417,239.571 380.156,239.780 379.959 C 239.989 379.762,240.833 379.600,241.656 379.600 C 242.479 379.600,243.264 379.420,243.400 379.200 C 243.536 378.980,244.166 378.800,244.800 378.800 C 245.434 378.800,246.064 378.620,246.200 378.400 C 246.336 378.180,246.979 378.000,247.629 378.000 C 248.279 378.000,249.123 377.838,249.505 377.639 C 249.887 377.440,251.010 377.063,252.000 376.800 C 252.990 376.537,254.113 376.160,254.495 375.961 C 254.877 375.762,255.541 375.600,255.971 375.600 C 256.401 375.600,256.864 375.420,257.000 375.200 C 257.136 374.980,257.676 374.800,258.200 374.800 C 258.724 374.800,259.264 374.620,259.400 374.400 C 259.536 374.180,259.999 374.000,260.429 374.000 C 260.859 374.000,261.523 373.831,261.905 373.624 C 262.487 373.310,268.976 370.733,273.400 369.060 C 274.692 368.571,286.784 362.504,290.400 360.530 C 293.547 358.812,302.449 353.215,303.426 352.340 C 303.880 351.933,304.437 351.600,304.664 351.600 C 304.891 351.600,305.402 351.240,305.800 350.800 C 306.198 350.360,306.721 349.996,306.962 349.991 C 307.203 349.986,307.850 349.630,308.400 349.200 C 310.596 347.482,315.398 348.293,317.785 350.785 C 319.226 352.288,319.409 352.289,320.800 350.800 C 321.417 350.140,322.164 349.595,322.460 349.588 C 322.757 349.581,323.450 349.035,324.000 348.374 C 326.173 345.762,327.141 344.800,327.600 344.800 C 328.759 344.800,330.802 341.896,329.994 341.396 C 327.344 339.759,327.453 332.890,330.171 330.171 C 332.890 327.453,339.759 327.344,341.396 329.994 C 341.909 330.824,344.785 328.757,344.812 327.540 C 344.819 327.243,345.365 326.550,346.026 326.000 C 348.638 323.827,349.600 322.859,349.600 322.400 C 349.600 322.137,350.140 321.417,350.800 320.800 C 352.289 319.409,352.288 319.226,350.785 317.785 C 348.293 315.398,347.482 310.596,349.200 308.400 C 349.630 307.850,349.986 307.203,349.991 306.962 C 349.996 306.721,350.360 306.198,350.800 305.800 C 351.240 305.402,351.600 304.856,351.600 304.587 C 351.600 304.318,351.844 303.895,352.142 303.648 C 352.784 303.115,358.428 294.290,359.079 292.800 C 359.224 292.470,359.447 292.110,359.576 292.000 C 359.705 291.890,360.256 290.900,360.800 289.800 C 361.344 288.700,361.889 287.710,362.011 287.600 C 362.268 287.368,368.439 274.880,369.324 272.800 C 369.652 272.030,370.668 269.420,371.583 267.000 C 372.497 264.580,373.415 262.287,373.623 261.905 C 373.830 261.523,374.000 260.859,374.000 260.429 C 374.000 259.999,374.180 259.536,374.400 259.400 C 374.620 259.264,374.800 258.724,374.800 258.200 C 374.800 257.676,374.980 257.136,375.200 257.000 C 375.420 256.864,375.600 256.401,375.600 255.971 C 375.600 255.541,375.762 254.877,375.961 254.495 C 376.160 254.113,376.537 252.990,376.800 252.000 C 377.063 251.010,377.440 249.887,377.639 249.505 C 377.838 249.123,378.000 248.279,378.000 247.629 C 378.000 246.979,378.160 246.348,378.356 246.227 C 378.551 246.106,378.813 245.421,378.937 244.704 C 379.061 243.987,379.273 242.770,379.408 242.000 C 379.544 241.230,379.811 240.240,380.002 239.800 C 380.194 239.360,380.444 238.370,380.559 237.600 C 380.673 236.830,380.966 235.210,381.210 234.000 C 381.453 232.790,381.739 230.900,381.846 229.800 C 381.952 228.700,382.202 227.440,382.403 227.000 C 382.603 226.560,382.855 225.120,382.962 223.800 C 383.069 222.480,383.376 219.240,383.642 216.600 C 384.283 210.256,384.288 189.514,383.650 183.400 C 383.375 180.760,383.064 177.520,382.958 176.200 C 382.853 174.880,382.603 173.440,382.403 173.000 C 382.202 172.560,381.945 171.300,381.830 170.200 C 381.363 165.724,381.105 164.182,380.761 163.820 C 380.563 163.611,380.400 162.767,380.400 161.944 C 380.400 161.121,380.239 160.348,380.042 160.226 C 379.845 160.105,379.590 159.329,379.475 158.503 C 379.360 157.676,379.079 156.280,378.850 155.400 C 378.622 154.520,378.324 153.260,378.188 152.600 C 378.051 151.940,377.794 151.040,377.615 150.600 C 377.437 150.160,377.073 148.990,376.807 148.000 C 376.540 147.010,376.160 145.887,375.961 145.505 C 375.762 145.123,375.600 144.459,375.600 144.029 C 375.600 143.599,375.420 143.136,375.200 143.000 C 374.980 142.864,374.800 142.324,374.800 141.800 C 374.800 141.276,374.620 140.736,374.400 140.600 C 374.180 140.464,374.000 140.001,374.000 139.571 C 374.000 139.141,373.831 138.477,373.624 138.095 C 372.956 136.859,369.600 127.886,369.600 127.334 C 369.600 127.041,369.420 126.800,369.200 126.800 C 368.980 126.800,368.800 126.547,368.800 126.238 C 368.800 125.929,368.448 124.984,368.017 124.138 C 367.586 123.292,366.354 120.798,365.279 118.595 C 363.272 114.481,362.354 112.750,361.995 112.400 C 361.882 112.290,361.342 111.300,360.796 110.200 C 360.249 109.100,359.307 107.454,358.701 106.542 C 358.096 105.630,357.600 104.788,357.600 104.670 C 357.600 104.461,356.537 102.809,352.566 96.848 C 351.485 95.224,350.420 93.618,350.200 93.278 C 349.980 92.939,349.305 92.126,348.700 91.472 C 348.095 90.817,347.600 90.104,347.600 89.888 C 347.600 89.671,347.276 89.203,346.881 88.847 C 346.486 88.491,345.727 87.570,345.194 86.800 C 344.662 86.030,343.993 85.159,343.707 84.865 C 343.422 84.571,342.696 83.672,342.094 82.867 C 341.492 82.061,340.713 81.132,340.363 80.801 C 340.013 80.471,338.663 78.948,337.363 77.417 C 334.392 73.919,326.249 65.760,322.583 62.608 C 321.052 61.292,319.530 59.940,319.200 59.603 C 318.870 59.267,317.941 58.501,317.135 57.902 C 316.329 57.302,315.429 56.578,315.135 56.293 C 314.841 56.007,313.970 55.338,313.200 54.806 C 312.430 54.274,311.710 53.731,311.600 53.600 C 311.490 53.469,310.770 52.929,310.000 52.400 C 309.230 51.871,308.510 51.325,308.400 51.186 C 308.094 50.801,298.041 44.000,297.776 44.000 C 297.649 44.000,296.759 43.460,295.800 42.800 C 294.841 42.140,293.936 41.600,293.790 41.600 C 293.643 41.600,293.046 41.264,292.462 40.853 C 290.556 39.512,282.311 35.200,281.653 35.200 C 281.440 35.200,281.207 35.065,281.133 34.900 C 280.882 34.335,274.369 31.446,267.400 28.810 C 266.085 28.312,264.246 27.530,263.505 27.153 C 263.123 26.959,262.536 26.800,262.200 26.800 C 261.607 26.800,261.184 26.634,259.305 25.662 C 258.813 25.408,257.969 25.200,257.429 25.200 C 256.889 25.200,256.336 25.020,256.200 24.800 C 256.064 24.580,255.524 24.400,255.000 24.400 C 254.476 24.400,253.936 24.220,253.800 24.000 C 253.664 23.780,253.034 23.600,252.400 23.600 C 251.766 23.600,251.136 23.420,251.000 23.200 C 250.864 22.980,250.234 22.800,249.600 22.800 C 248.966 22.800,248.336 22.620,248.200 22.400 C 248.064 22.180,247.434 22.000,246.800 22.000 C 246.166 22.000,245.548 21.839,245.426 21.642 C 245.305 21.445,244.529 21.187,243.703 21.068 C 242.876 20.949,241.300 20.650,240.200 20.404 C 239.100 20.157,237.570 19.864,236.800 19.753 C 236.030 19.642,235.040 19.391,234.600 19.196 C 234.160 19.001,232.990 18.747,232.000 18.632 C 231.010 18.517,228.940 18.237,227.400 18.011 C 221.853 17.195,217.678 16.803,210.639 16.437 C 206.700 16.232,202.470 15.968,201.239 15.850 C 200.008 15.731,198.820 15.715,198.600 15.814 M271.498 102.772 C 273.382 104.137,315.570 146.230,317.500 148.671 C 319.325 150.979,319.434 155.684,317.715 157.962 C 316.364 159.751,181.672 294.695,179.211 296.724 C 176.902 298.628,172.214 299.100,169.915 297.660 C 168.304 296.651,82.263 210.550,81.643 209.326 C 80.704 207.475,81.090 203.070,82.340 201.360 C 83.824 199.331,126.518 156.640,128.560 155.143 C 130.224 153.924,134.296 153.524,136.503 154.363 C 137.029 154.563,145.578 162.843,155.501 172.763 C 165.425 182.683,173.690 190.800,173.868 190.800 C 174.046 190.800,194.083 170.931,218.396 146.647 C 242.708 122.362,262.960 102.298,263.400 102.059 C 265.171 101.097,269.741 101.499,271.498 102.772 " stroke="none" fill="#04b454" fill-rule="evenodd"></path><path id="path3" d="M187.200 16.000 C 185.342 16.391,191.889 16.400,196.000 16.012 C 198.676 15.760,198.439 15.728,193.800 15.717 C 190.940 15.711,187.970 15.838,187.200 16.000 M204.000 16.012 C 208.445 16.432,214.675 16.406,212.600 15.977 C 211.720 15.795,208.750 15.665,206.000 15.688 C 201.346 15.726,201.208 15.749,204.000 16.012 M178.600 16.800 C 177.539 17.256,180.977 17.256,182.400 16.800 C 183.189 16.547,182.978 16.477,181.400 16.468 C 180.300 16.462,179.040 16.611,178.600 16.800 M217.600 16.800 C 219.023 17.256,222.461 17.256,221.400 16.800 C 220.960 16.611,219.700 16.462,218.600 16.468 C 217.022 16.477,216.811 16.547,217.600 16.800 M172.400 17.600 C 171.624 18.102,174.233 18.102,175.400 17.600 C 176.029 17.330,175.857 17.252,174.600 17.234 C 173.720 17.222,172.730 17.387,172.400 17.600 M224.600 17.600 C 225.767 18.102,228.376 18.102,227.600 17.600 C 227.270 17.387,226.280 17.222,225.400 17.234 C 224.143 17.252,223.971 17.330,224.600 17.600 M168.000 18.400 C 167.540 18.697,167.679 18.788,168.600 18.788 C 169.260 18.788,170.070 18.613,170.400 18.400 C 170.860 18.103,170.721 18.012,169.800 18.012 C 169.140 18.012,168.330 18.187,168.000 18.400 M230.000 18.400 C 230.330 18.613,231.140 18.788,231.800 18.788 C 232.721 18.788,232.860 18.697,232.400 18.400 C 232.070 18.187,231.260 18.012,230.600 18.012 C 229.679 18.012,229.540 18.103,230.000 18.400 M163.400 19.200 C 163.260 19.426,163.588 19.600,164.153 19.600 C 164.703 19.600,165.264 19.420,165.400 19.200 C 165.540 18.974,165.212 18.800,164.647 18.800 C 164.097 18.800,163.536 18.980,163.400 19.200 M234.600 19.200 C 234.736 19.420,235.422 19.597,236.124 19.594 C 237.095 19.589,237.257 19.495,236.800 19.200 C 236.007 18.687,234.283 18.687,234.600 19.200 M160.000 20.000 C 159.531 20.303,159.634 20.389,160.476 20.394 C 161.068 20.397,161.664 20.220,161.800 20.000 C 162.116 19.489,160.790 19.489,160.000 20.000 M238.400 20.000 C 238.730 20.213,239.450 20.388,240.000 20.388 C 240.792 20.388,240.875 20.307,240.400 20.000 C 240.070 19.787,239.350 19.612,238.800 19.612 C 238.008 19.612,237.925 19.693,238.400 20.000 M156.000 20.800 C 155.525 21.107,155.608 21.188,156.400 21.188 C 156.950 21.188,157.670 21.013,158.000 20.800 C 158.475 20.493,158.392 20.412,157.600 20.412 C 157.050 20.412,156.330 20.587,156.000 20.800 M242.000 20.800 C 242.330 21.013,243.050 21.188,243.600 21.188 C 244.392 21.188,244.475 21.107,244.000 20.800 C 243.670 20.587,242.950 20.412,242.400 20.412 C 241.608 20.412,241.525 20.493,242.000 20.800 M153.200 21.600 C 152.712 21.915,152.764 21.989,153.476 21.994 C 153.958 21.997,154.464 21.820,154.600 21.600 C 154.915 21.091,153.988 21.091,153.200 21.600 M245.400 21.600 C 245.536 21.820,246.042 21.997,246.524 21.994 C 247.236 21.989,247.288 21.915,246.800 21.600 C 246.012 21.091,245.085 21.091,245.400 21.600 M150.400 22.400 C 149.903 22.721,149.938 22.788,150.600 22.788 C 151.040 22.788,151.670 22.613,152.000 22.400 C 152.497 22.079,152.462 22.012,151.800 22.012 C 151.360 22.012,150.730 22.187,150.400 22.400 M248.200 22.400 C 248.336 22.620,248.932 22.797,249.524 22.794 C 250.366 22.789,250.469 22.703,250.000 22.400 C 249.210 21.889,247.884 21.889,248.200 22.400 M142.200 24.772 C 136.355 26.768,135.519 27.063,134.200 27.596 C 133.760 27.774,132.770 28.149,132.000 28.430 C 131.230 28.712,129.666 29.360,128.524 29.872 C 127.382 30.383,125.962 30.986,125.368 31.212 C 124.775 31.438,124.376 31.710,124.483 31.816 C 124.681 32.014,126.464 31.359,129.496 29.975 C 130.428 29.549,131.376 29.200,131.601 29.200 C 131.826 29.200,132.323 29.034,132.705 28.832 C 133.087 28.630,134.480 28.075,135.800 27.600 C 137.120 27.125,138.513 26.570,138.895 26.368 C 139.277 26.166,139.941 26.000,140.371 26.000 C 140.801 26.000,141.264 25.820,141.400 25.600 C 141.536 25.380,142.076 25.200,142.600 25.200 C 143.124 25.200,143.664 25.020,143.800 24.800 C 143.936 24.580,144.476 24.400,145.000 24.400 C 145.524 24.400,146.064 24.220,146.200 24.000 C 146.336 23.780,146.966 23.600,147.600 23.600 C 148.234 23.600,148.864 23.420,149.000 23.200 C 149.450 22.472,147.863 22.839,142.200 24.772 M251.000 23.200 C 251.136 23.420,251.766 23.600,252.400 23.600 C 253.034 23.600,253.664 23.780,253.800 24.000 C 253.936 24.220,254.476 24.400,255.000 24.400 C 255.524 24.400,256.064 24.580,256.200 24.800 C 256.336 25.020,256.889 25.200,257.429 25.200 C 258.375 25.200,258.741 25.328,260.695 26.338 C 261.187 26.592,261.864 26.800,262.200 26.800 C 262.536 26.800,263.123 26.959,263.505 27.153 C 264.246 27.530,266.085 28.312,267.400 28.810 C 267.840 28.976,269.820 29.765,271.800 30.562 C 273.780 31.359,275.546 32.009,275.724 32.006 C 276.299 31.995,275.572 31.200,274.986 31.200 C 274.675 31.200,273.291 30.691,271.910 30.069 C 266.358 27.568,252.809 22.800,251.253 22.800 C 250.978 22.800,250.864 22.980,251.000 23.200 M117.618 34.843 C 113.119 37.151,110.117 38.965,111.814 38.350 C 112.827 37.983,124.000 32.311,124.000 32.164 C 124.000 31.706,122.528 32.324,117.618 34.843 M276.400 32.190 C 276.400 32.495,278.856 33.677,279.062 33.471 C 279.165 33.368,278.671 32.995,277.963 32.642 C 276.576 31.950,276.400 31.899,276.400 32.190 M281.200 34.712 C 281.200 35.056,283.656 36.078,283.899 35.835 C 284.031 35.703,281.706 34.400,281.339 34.400 C 281.262 34.400,281.200 34.541,281.200 34.712 M284.620 36.371 C 284.829 36.575,286.440 37.499,288.200 38.424 C 289.960 39.349,291.878 40.442,292.462 40.853 C 293.046 41.264,293.643 41.600,293.790 41.600 C 293.936 41.600,294.841 42.140,295.800 42.800 C 296.759 43.460,297.649 44.000,297.776 44.000 C 298.041 44.000,308.094 50.801,308.400 51.186 C 308.510 51.325,309.230 51.871,310.000 52.400 C 310.770 52.929,311.490 53.469,311.600 53.600 C 312.178 54.289,314.551 55.708,314.019 55.046 C 313.381 54.252,309.260 51.131,305.203 48.368 C 303.774 47.396,302.424 46.461,302.203 46.292 C 298.692 43.605,282.905 34.697,284.620 36.371 M107.349 40.338 C 103.018 42.818,92.015 50.117,92.007 50.516 C 92.003 50.690,93.845 49.597,96.100 48.087 C 102.040 44.109,105.553 41.905,107.600 40.874 C 109.559 39.887,111.642 38.400,111.000 38.447 C 110.780 38.463,109.137 39.314,107.349 40.338 M88.800 52.637 C 87.590 53.614,85.970 54.900,85.200 55.494 C 82.923 57.251,81.154 58.800,81.424 58.800 C 81.727 58.800,83.982 57.238,84.735 56.507 C 85.029 56.222,85.929 55.496,86.735 54.894 C 87.541 54.292,88.432 53.581,88.715 53.314 C 88.998 53.047,89.763 52.513,90.415 52.128 C 91.067 51.743,91.600 51.286,91.600 51.114 C 91.600 50.531,91.008 50.853,88.800 52.637 M314.812 55.851 C 314.819 56.043,315.674 56.828,316.712 57.595 C 317.751 58.363,318.870 59.266,319.200 59.603 C 320.910 61.348,325.292 64.849,324.000 63.439 C 323.230 62.598,321.160 60.714,319.400 59.253 C 315.031 55.625,314.798 55.453,314.812 55.851 M77.375 62.050 C 71.000 67.771,58.805 80.538,59.269 81.003 C 59.370 81.103,60.465 79.973,61.704 78.493 C 64.239 75.463,75.540 64.157,78.600 61.589 C 81.333 59.296,81.428 59.200,80.955 59.200 C 80.732 59.200,79.121 60.482,77.375 62.050 M326.400 65.713 C 326.400 66.111,334.018 73.715,334.218 73.516 C 334.304 73.430,332.580 71.572,330.387 69.387 C 328.194 67.202,326.400 65.549,326.400 65.713 M337.860 77.984 C 339.348 79.735,340.639 81.094,340.729 81.005 C 340.935 80.798,339.658 79.172,337.361 76.717 C 334.580 73.744,334.860 74.454,337.860 77.984 M57.200 83.087 C 56.430 84.079,55.037 85.802,54.104 86.916 C 53.172 88.030,52.488 89.021,52.585 89.119 C 52.802 89.335,53.460 88.655,54.894 86.735 C 55.496 85.929,56.222 85.029,56.507 84.735 C 57.343 83.874,58.900 81.566,58.744 81.419 C 58.665 81.345,57.970 82.096,57.200 83.087 M341.200 81.432 C 341.200 81.737,342.808 83.940,343.707 84.865 C 343.993 85.159,344.664 86.030,345.200 86.800 C 346.378 88.494,347.183 89.350,347.397 89.137 C 347.484 89.049,346.551 87.723,345.324 86.189 C 341.977 82.005,341.200 81.109,341.200 81.432 M51.513 90.300 C 49.382 92.741,38.400 110.181,38.400 111.123 C 38.400 111.547,39.106 110.633,39.962 109.100 C 41.858 105.705,42.424 104.747,43.848 102.527 C 46.820 97.889,50.979 91.783,51.681 91.025 C 52.328 90.327,52.624 89.600,52.262 89.600 C 52.186 89.600,51.849 89.915,51.513 90.300 M347.617 89.800 C 347.596 90.317,349.544 92.589,349.794 92.340 C 349.898 92.235,349.454 91.531,348.808 90.775 C 348.161 90.019,347.625 89.580,347.617 89.800 M350.000 93.076 C 350.000 93.296,350.360 93.802,350.800 94.200 C 351.240 94.598,351.600 94.744,351.600 94.524 C 351.600 94.304,351.240 93.798,350.800 93.400 C 350.360 93.002,350.000 92.856,350.000 93.076 M351.988 95.978 C 352.446 96.834,353.207 97.434,353.187 96.924 C 353.170 96.477,352.173 95.200,351.842 95.200 C 351.693 95.200,351.759 95.550,351.988 95.978 M353.449 98.100 C 353.613 98.375,354.613 99.918,355.673 101.529 C 356.733 103.141,357.600 104.554,357.600 104.671 C 357.600 104.788,358.096 105.630,358.701 106.542 C 359.307 107.454,360.252 109.100,360.801 110.200 C 361.351 111.300,361.935 112.260,362.100 112.333 C 362.265 112.407,362.400 112.609,362.400 112.783 C 362.400 113.322,364.481 116.853,364.681 116.653 C 364.843 116.490,363.366 113.681,359.607 107.000 C 359.112 106.120,358.367 104.922,357.953 104.338 C 357.539 103.754,357.200 103.079,357.200 102.838 C 357.200 102.597,357.020 102.400,356.800 102.400 C 356.580 102.400,356.400 102.164,356.400 101.875 C 356.400 101.587,356.085 101.002,355.700 100.575 C 355.315 100.149,354.745 99.305,354.432 98.700 C 354.120 98.095,353.705 97.600,353.509 97.600 C 353.313 97.600,353.286 97.825,353.449 98.100 M263.400 102.059 C 262.960 102.298,242.708 122.362,218.396 146.647 C 194.083 170.931,174.046 190.800,173.868 190.800 C 173.690 190.800,165.425 182.683,155.501 172.763 C 145.578 162.843,137.015 154.558,136.474 154.352 C 134.966 153.779,134.961 154.249,136.468 154.964 C 137.200 155.312,145.899 163.697,155.799 173.599 L 173.798 191.601 217.999 147.409 C 246.925 118.489,262.753 102.944,263.800 102.425 C 264.680 101.989,265.130 101.630,264.800 101.628 C 264.470 101.626,263.840 101.820,263.400 102.059 M269.000 102.000 C 269.136 102.220,269.567 102.400,269.958 102.400 C 270.891 102.400,318.000 149.516,318.000 150.449 C 318.000 150.836,318.180 151.264,318.400 151.400 C 319.291 151.951,318.717 150.210,317.500 148.671 C 315.570 146.230,273.382 104.137,271.498 102.772 C 269.925 101.633,268.501 101.192,269.000 102.000 M37.537 112.488 C 36.339 114.401,31.890 123.624,32.076 123.809 C 32.183 123.917,33.648 121.271,35.330 117.930 C 38.087 112.457,39.063 110.051,37.537 112.488 M364.800 117.358 C 364.800 117.855,367.738 123.596,367.906 123.428 C 368.111 123.222,365.268 117.200,364.965 117.200 C 364.874 117.200,364.800 117.271,364.800 117.358 M222.661 164.267 C 198.538 188.394,178.853 208.187,178.917 208.251 C 178.982 208.315,198.736 188.665,222.816 164.584 C 246.897 140.503,266.778 120.800,266.998 120.800 C 267.217 120.800,274.777 128.135,283.798 137.100 L 300.200 153.400 283.802 136.900 C 274.783 127.825,267.205 120.400,266.963 120.400 C 266.720 120.400,246.785 140.140,222.661 164.267 M31.221 125.346 C 31.000 125.927,30.450 127.211,30.000 128.200 C 28.483 131.529,26.518 136.843,24.376 143.400 C 22.743 148.403,22.530 149.414,23.200 149.000 C 23.420 148.864,23.600 148.234,23.600 147.600 C 23.600 146.966,23.780 146.336,24.000 146.200 C 24.220 146.064,24.400 145.524,24.400 145.000 C 24.400 144.476,24.580 143.936,24.800 143.800 C 25.020 143.664,25.200 143.124,25.200 142.600 C 25.200 142.076,25.380 141.536,25.600 141.400 C 25.820 141.264,26.000 140.724,26.000 140.200 C 26.000 139.676,26.180 139.136,26.400 139.000 C 26.620 138.864,26.800 138.437,26.800 138.052 C 26.800 137.666,27.160 136.605,27.600 135.694 C 28.040 134.784,28.400 133.848,28.400 133.614 C 28.400 133.380,28.562 132.877,28.760 132.495 C 29.668 130.745,31.991 124.657,31.817 124.483 C 31.710 124.377,31.442 124.765,31.221 125.346 M369.620 127.434 C 369.599 127.895,372.988 136.918,373.624 138.095 C 373.831 138.477,374.000 139.141,374.000 139.571 C 374.000 140.001,374.180 140.464,374.400 140.600 C 374.620 140.736,374.800 141.276,374.800 141.800 C 374.800 142.324,374.980 142.864,375.200 143.000 C 375.420 143.136,375.600 143.599,375.600 144.029 C 375.600 144.459,375.758 145.123,375.951 145.505 C 376.480 146.554,377.200 148.973,377.200 149.705 C 377.200 150.061,377.399 150.476,377.643 150.626 C 378.328 151.050,375.641 141.513,374.028 137.800 C 373.837 137.360,373.464 136.370,373.200 135.600 C 371.917 131.864,369.654 126.701,369.620 127.434 M22.288 150.533 C 21.842 151.666,21.915 152.245,22.438 151.722 C 22.678 151.482,22.808 150.951,22.726 150.542 C 22.582 149.826,22.566 149.826,22.288 150.533 M378.034 152.000 C 378.022 152.550,378.187 153.270,378.400 153.600 C 378.909 154.387,378.909 152.984,378.400 151.800 C 378.085 151.067,378.054 151.084,378.034 152.000 M21.488 153.333 C 21.042 154.466,21.115 155.045,21.638 154.522 C 21.878 154.282,22.008 153.751,21.926 153.342 C 21.782 152.626,21.766 152.626,21.488 153.333 M293.600 159.800 C 290.195 163.210,287.547 166.000,287.714 166.000 C 288.039 166.000,300.000 154.113,300.000 153.790 C 300.000 153.409,299.690 153.701,293.600 159.800 M128.560 155.143 C 123.679 158.720,81.200 202.129,81.200 203.540 C 81.200 204.339,81.873 203.661,82.061 202.672 C 82.261 201.623,129.196 154.800,130.047 154.800 C 130.435 154.800,130.864 154.620,131.000 154.400 C 131.496 153.598,130.081 154.029,128.560 155.143 M378.834 155.200 C 378.822 155.750,378.987 156.470,379.200 156.800 C 379.709 157.587,379.709 156.184,379.200 155.000 C 378.885 154.267,378.854 154.284,378.834 155.200 M318.218 156.200 C 317.807 157.787,179.385 296.406,177.000 297.619 C 175.637 298.312,175.572 298.397,176.561 298.193 C 178.452 297.804,178.300 297.953,248.815 227.324 C 317.558 158.470,318.997 156.996,318.697 155.719 C 318.573 155.193,318.445 155.321,318.218 156.200 M20.696 156.133 C 20.203 157.351,20.319 158.781,20.838 157.888 C 21.066 157.497,21.194 156.777,21.123 156.288 C 21.006 155.489,20.963 155.473,20.696 156.133 M379.606 158.876 C 379.603 159.468,379.780 160.064,380.000 160.200 C 380.511 160.516,380.511 159.190,380.000 158.400 C 379.697 157.931,379.611 158.034,379.606 158.876 M19.903 160.000 C 19.461 161.515,19.515 162.245,20.031 161.729 C 20.268 161.492,20.402 160.781,20.329 160.149 L 20.195 159.000 19.903 160.000 M380.406 162.276 C 380.403 162.978,380.580 163.664,380.800 163.800 C 381.313 164.117,381.313 162.393,380.800 161.600 C 380.505 161.143,380.411 161.305,380.406 162.276 M19.100 163.429 C 18.935 163.596,18.800 164.189,18.800 164.747 C 18.800 165.475,18.922 165.638,19.234 165.326 C 19.472 165.088,19.607 164.494,19.534 164.008 C 19.460 163.522,19.265 163.261,19.100 163.429 M381.212 166.400 C 381.212 166.950,381.387 167.670,381.600 168.000 C 381.907 168.475,381.988 168.392,381.988 167.600 C 381.988 167.050,381.813 166.330,381.600 166.000 C 381.293 165.525,381.212 165.608,381.212 166.400 M286.001 167.398 C 285.486 167.948,285.139 168.448,285.232 168.511 C 285.324 168.574,285.884 168.124,286.474 167.512 C 287.065 166.901,287.412 166.400,287.244 166.400 C 287.077 166.400,286.517 166.849,286.001 167.398 M18.305 168.000 C 17.852 169.539,17.916 170.644,18.429 170.131 C 18.665 169.895,18.800 169.094,18.729 168.351 C 18.608 167.079,18.583 167.059,18.305 168.000 M282.883 170.515 C 281.957 171.458,281.200 172.367,281.200 172.533 C 281.200 172.829,282.010 172.052,283.970 169.877 C 285.502 168.175,284.740 168.623,282.883 170.515 M382.028 171.076 C 382.013 171.998,382.180 172.864,382.400 173.000 C 382.886 173.300,382.886 171.331,382.400 170.200 C 382.133 169.578,382.050 169.773,382.028 171.076 M17.500 172.533 C 17.335 172.936,17.211 173.926,17.225 174.733 C 17.249 176.104,17.276 176.136,17.644 175.214 C 17.861 174.672,17.984 173.682,17.919 173.014 C 17.824 172.041,17.740 171.945,17.500 172.533 M116.198 189.300 L 99.800 205.800 116.300 189.402 C 125.375 180.383,132.800 172.958,132.800 172.902 C 132.800 172.620,131.439 173.964,116.198 189.300 M276.587 176.813 C 274.402 179.006,272.749 180.800,272.913 180.800 C 273.311 180.800,280.915 173.182,280.716 172.982 C 280.630 172.896,278.772 174.620,276.587 176.813 M382.856 176.400 C 382.856 177.390,383.011 178.560,383.200 179.000 C 383.459 179.603,383.544 179.358,383.544 178.000 C 383.544 177.010,383.389 175.840,383.200 175.400 C 382.941 174.797,382.856 175.042,382.856 176.400 M16.705 178.800 C 16.543 179.350,16.425 180.610,16.442 181.600 L 16.472 183.400 16.858 182.060 C 17.070 181.323,17.189 180.063,17.122 179.260 C 17.011 177.932,16.973 177.890,16.705 178.800 M270.383 183.093 C 269.402 184.135,269.129 184.540,269.777 183.993 C 271.765 182.314,272.852 181.200,272.501 181.200 C 272.317 181.200,271.364 182.052,270.383 183.093 M383.687 183.800 C 383.691 185.120,383.832 186.740,384.000 187.400 C 384.233 188.317,384.307 187.988,384.313 186.000 C 384.317 184.570,384.176 182.950,384.000 182.400 C 383.765 181.667,383.682 182.040,383.687 183.800 M146.000 185.326 C 146.000 185.730,149.616 189.318,149.819 189.114 C 149.908 189.025,149.086 188.069,147.991 186.991 C 146.896 185.912,146.000 185.163,146.000 185.326 M267.201 186.198 C 266.686 186.748,266.339 187.248,266.432 187.311 C 266.524 187.374,267.084 186.924,267.674 186.312 C 268.265 185.701,268.612 185.200,268.444 185.200 C 268.277 185.200,267.717 185.649,267.201 186.198 M15.900 187.756 C 15.735 188.832,15.625 191.892,15.656 194.556 L 15.711 199.400 16.064 195.200 C 16.257 192.890,16.367 189.830,16.308 188.400 L 16.200 185.800 15.900 187.756 M260.986 192.414 C 258.361 195.046,256.347 197.200,256.511 197.200 C 256.908 197.200,266.115 187.981,265.916 187.782 C 265.830 187.697,263.612 189.781,260.986 192.414 M384.530 199.800 C 384.526 204.761,384.608 206.289,384.765 204.200 C 384.898 202.440,384.901 199.020,384.772 196.600 C 384.577 192.957,384.535 193.507,384.530 199.800 M254.800 198.600 C 254.283 199.150,253.990 199.600,254.148 199.600 C 254.307 199.600,254.886 199.150,255.436 198.600 C 255.986 198.050,256.280 197.600,256.088 197.600 C 255.896 197.600,255.317 198.050,254.800 198.600 M251.600 201.800 C 250.628 202.790,249.923 203.600,250.033 203.600 C 250.143 203.600,251.028 202.790,252.000 201.800 C 252.972 200.810,253.677 200.000,253.567 200.000 C 253.457 200.000,252.572 200.810,251.600 201.800 M15.685 205.800 C 15.664 208.660,15.795 211.720,15.977 212.600 C 16.419 214.737,16.450 208.874,16.022 204.000 C 15.725 200.618,15.724 200.627,15.685 205.800 M162.400 201.721 C 162.400 202.124,166.817 206.517,167.019 206.315 C 167.107 206.227,166.104 205.090,164.790 203.790 C 163.475 202.489,162.400 201.558,162.400 201.721 M248.468 204.927 C 247.235 206.240,247.387 206.649,248.642 205.394 C 249.216 204.821,249.606 204.273,249.511 204.177 C 249.415 204.082,248.946 204.419,248.468 204.927 M136.781 242.882 C 167.918 274.104,173.858 279.887,174.367 279.482 C 175.683 278.435,180.864 273.130,180.716 272.982 C 180.629 272.895,179.040 274.351,177.184 276.216 L 173.810 279.608 136.805 242.704 L 99.800 205.800 136.781 242.882 M242.186 211.214 C 239.561 213.846,237.547 216.000,237.711 216.000 C 238.108 216.000,247.315 206.781,247.116 206.582 C 247.030 206.497,244.812 208.581,242.186 211.214 M81.200 207.915 C 81.200 208.605,82.091 210.400,82.434 210.400 C 82.601 210.400,82.455 209.815,82.108 209.100 C 81.341 207.520,81.200 207.336,81.200 207.915 M169.200 208.590 C 169.200 208.887,171.502 210.002,172.080 209.984 C 172.366 209.975,171.893 209.615,171.029 209.184 C 169.345 208.344,169.200 208.297,169.200 208.590 M125.201 253.440 C 166.816 295.095,170.242 298.417,171.560 298.384 C 171.912 298.375,171.521 298.029,170.691 297.614 C 169.771 297.155,152.364 280.039,126.162 253.830 C 102.502 230.164,83.022 210.800,82.872 210.800 C 82.723 210.800,101.771 229.988,125.201 253.440 M383.900 212.750 C 383.430 214.867,383.546 218.862,384.042 217.621 C 384.257 217.082,384.381 215.462,384.316 214.021 C 384.217 211.776,384.157 211.594,383.900 212.750 M236.001 217.398 C 235.486 217.948,235.139 218.448,235.232 218.511 C 235.324 218.574,235.884 218.124,236.474 217.512 C 237.065 216.901,237.412 216.400,237.244 216.400 C 237.077 216.400,236.517 216.849,236.001 217.398 M16.475 218.600 C 16.465 219.700,16.611 220.960,16.800 221.400 C 17.247 222.439,17.247 219.555,16.800 217.800 C 16.537 216.768,16.492 216.880,16.475 218.600 M232.883 220.515 C 231.957 221.458,231.200 222.367,231.200 222.533 C 231.200 222.829,232.010 222.052,233.970 219.877 C 235.502 218.175,234.740 218.623,232.883 220.515 M383.105 221.200 C 382.623 222.840,382.745 225.666,383.244 224.414 C 383.461 223.872,383.584 222.702,383.519 221.814 C 383.415 220.406,383.362 220.328,383.105 221.200 M226.587 226.813 C 224.402 229.006,222.749 230.800,222.913 230.800 C 223.311 230.800,230.915 223.182,230.716 222.982 C 230.630 222.896,228.772 224.620,226.587 226.813 M17.234 225.400 C 17.222 226.280,17.387 227.270,17.600 227.600 C 18.102 228.376,18.102 225.767,17.600 224.600 C 17.330 223.971,17.252 224.143,17.234 225.400 M382.300 227.028 C 382.135 227.196,382.005 227.978,382.012 228.767 C 382.022 229.947,382.097 230.075,382.438 229.490 C 382.896 228.702,382.775 226.545,382.300 227.028 M18.028 230.476 C 18.082 232.248,18.740 233.175,18.772 231.524 C 18.787 230.712,18.620 229.936,18.400 229.800 C 18.175 229.661,18.012 229.957,18.028 230.476 M220.383 233.093 C 219.402 234.135,219.129 234.540,219.777 233.993 C 221.765 232.314,222.852 231.200,222.501 231.200 C 222.317 231.200,221.364 232.052,220.383 233.093 M381.496 232.133 C 381.003 233.351,381.119 234.781,381.638 233.888 C 381.866 233.497,381.994 232.777,381.923 232.288 C 381.806 231.489,381.763 231.473,381.496 232.133 M18.806 235.276 C 18.809 235.784,18.987 236.470,19.200 236.800 C 19.495 237.257,19.589 237.095,19.594 236.124 C 19.597 235.422,19.420 234.736,19.200 234.600 C 18.977 234.462,18.803 234.761,18.806 235.276 M217.201 236.198 C 216.686 236.748,216.339 237.248,216.432 237.311 C 216.524 237.374,217.084 236.924,217.674 236.312 C 218.265 235.701,218.612 235.200,218.444 235.200 C 218.277 235.200,217.717 235.649,217.201 236.198 M380.696 236.133 C 380.533 236.536,380.411 237.346,380.425 237.933 L 380.451 239.000 380.843 238.019 C 381.058 237.479,381.180 236.669,381.114 236.219 C 381.001 235.459,380.971 235.453,380.696 236.133 M210.986 242.414 C 208.361 245.046,206.347 247.200,206.511 247.200 C 206.908 247.200,216.115 237.981,215.916 237.782 C 215.830 237.697,213.612 239.781,210.986 242.414 M19.606 238.876 C 19.609 239.384,19.787 240.070,20.000 240.400 C 20.295 240.857,20.389 240.695,20.394 239.724 C 20.397 239.022,20.220 238.336,20.000 238.200 C 19.777 238.062,19.603 238.361,19.606 238.876 M379.900 239.831 C 379.735 239.997,379.611 240.688,379.625 241.367 C 379.650 242.573,379.659 242.579,380.040 241.625 C 380.469 240.552,380.375 239.352,379.900 239.831 M20.412 242.400 C 20.412 242.950,20.587 243.670,20.800 244.000 C 21.107 244.475,21.188 244.392,21.188 243.600 C 21.188 243.050,21.013 242.330,20.800 242.000 C 20.493 241.525,20.412 241.608,20.412 242.400 M379.088 243.333 C 378.930 243.736,378.811 244.456,378.825 244.933 C 378.849 245.756,378.871 245.750,379.240 244.825 C 379.454 244.289,379.573 243.569,379.503 243.225 C 379.399 242.711,379.325 242.730,379.088 243.333 M21.206 245.676 C 21.218 246.681,21.987 247.508,21.994 246.524 C 21.997 246.042,21.820 245.536,21.600 245.400 C 21.380 245.264,21.203 245.388,21.206 245.676 M378.300 246.231 C 378.135 246.397,378.011 247.088,378.025 247.767 C 378.050 248.973,378.059 248.979,378.440 248.025 C 378.869 246.952,378.775 245.752,378.300 246.231 M204.800 248.600 C 204.283 249.150,203.990 249.600,204.148 249.600 C 204.307 249.600,204.886 249.150,205.436 248.600 C 205.986 248.050,206.280 247.600,206.088 247.600 C 205.896 247.600,205.317 248.050,204.800 248.600 M22.006 248.476 C 22.018 249.481,22.787 250.308,22.794 249.324 C 22.797 248.842,22.620 248.336,22.400 248.200 C 22.180 248.064,22.003 248.188,22.006 248.476 M377.457 249.643 C 377.367 249.949,377.076 251.010,376.808 252.000 C 376.541 252.990,376.160 254.113,375.961 254.495 C 375.762 254.877,375.600 255.541,375.600 255.971 C 375.600 256.401,375.420 256.864,375.200 257.000 C 374.980 257.136,374.800 257.676,374.800 258.200 C 374.800 258.724,374.620 259.264,374.400 259.400 C 374.180 259.536,374.000 259.999,374.000 260.429 C 374.000 260.859,373.830 261.523,373.623 261.905 C 373.415 262.287,372.397 264.850,371.361 267.600 C 370.324 270.350,369.324 272.771,369.138 272.980 C 368.952 273.189,368.800 273.630,368.800 273.960 C 368.800 274.985,369.426 273.941,370.574 271.000 C 371.175 269.460,371.901 267.660,372.187 267.000 C 372.472 266.340,372.925 265.170,373.193 264.400 C 373.461 263.630,373.826 262.640,374.005 262.200 C 375.491 258.528,378.139 249.605,377.833 249.300 C 377.715 249.182,377.546 249.336,377.457 249.643 M201.600 251.800 C 200.628 252.790,199.923 253.600,200.033 253.600 C 200.143 253.600,201.028 252.790,202.000 251.800 C 202.972 250.810,203.677 250.000,203.567 250.000 C 203.457 250.000,202.572 250.810,201.600 251.800 M22.805 251.276 C 22.817 252.722,27.959 267.328,30.144 272.124 C 30.664 273.266,31.221 274.619,31.381 275.130 C 31.542 275.642,31.773 275.960,31.895 275.838 C 32.017 275.717,31.441 273.948,30.614 271.908 C 29.788 269.869,28.976 267.840,28.810 267.400 C 28.312 266.085,27.530 264.246,27.153 263.505 C 26.959 263.123,26.800 262.459,26.800 262.029 C 26.800 261.599,26.620 261.136,26.400 261.000 C 26.180 260.864,26.000 260.324,26.000 259.800 C 26.000 259.276,25.820 258.736,25.600 258.600 C 25.380 258.464,25.200 257.924,25.200 257.400 C 25.200 256.876,25.020 256.336,24.800 256.200 C 24.580 256.064,24.400 255.524,24.400 255.000 C 24.400 254.476,24.220 253.936,24.000 253.800 C 23.780 253.664,23.600 253.034,23.600 252.400 C 23.600 251.766,23.420 251.136,23.200 251.000 C 22.980 250.864,22.802 250.988,22.805 251.276 M198.468 254.927 C 197.235 256.240,197.387 256.649,198.642 255.394 C 199.216 254.821,199.606 254.273,199.511 254.177 C 199.415 254.082,198.946 254.419,198.468 254.927 M192.186 261.214 C 189.561 263.846,187.547 266.000,187.711 266.000 C 188.108 266.000,197.315 256.781,197.116 256.582 C 197.030 256.497,194.812 258.581,192.186 261.214 M186.001 267.398 C 185.486 267.948,185.139 268.448,185.232 268.511 C 185.324 268.574,185.884 268.124,186.474 267.512 C 187.065 266.901,187.412 266.400,187.244 266.400 C 187.077 266.400,186.517 266.849,186.001 267.398 M182.883 270.515 C 181.957 271.458,181.200 272.367,181.200 272.533 C 181.200 272.829,182.010 272.052,183.970 269.877 C 185.502 268.175,184.740 268.623,182.883 270.515 M32.000 276.539 C 32.000 276.966,33.314 279.219,33.471 279.062 C 33.677 278.856,32.495 276.400,32.190 276.400 C 32.085 276.400,32.000 276.462,32.000 276.539 M364.986 281.906 C 363.468 284.928,362.128 287.490,362.008 287.600 C 361.888 287.710,361.344 288.700,360.800 289.800 C 360.256 290.900,359.718 291.890,359.605 292.000 C 359.404 292.196,358.685 293.408,357.826 295.000 C 357.589 295.440,356.577 297.060,355.577 298.600 C 353.102 302.411,353.108 302.400,353.493 302.400 C 353.764 302.400,356.747 297.795,359.400 293.281 C 362.421 288.140,368.177 276.844,367.912 276.578 C 367.820 276.486,366.503 278.884,364.986 281.906 M34.400 281.339 C 34.400 281.706,35.703 284.031,35.835 283.899 C 36.078 283.656,35.056 281.200,34.712 281.200 C 34.541 281.200,34.400 281.262,34.400 281.339 M36.000 284.588 C 36.000 284.786,36.085 284.943,39.805 291.600 C 41.910 295.367,45.462 301.149,46.317 302.200 C 46.496 302.420,47.610 304.040,48.793 305.800 C 50.963 309.028,55.135 314.400,55.472 314.400 C 55.660 314.400,54.027 311.958,53.600 311.600 C 53.469 311.490,52.929 310.770,52.400 310.000 C 51.871 309.230,51.329 308.510,51.195 308.400 C 50.541 307.864,42.875 296.168,41.363 293.400 C 41.123 292.960,40.449 291.790,39.865 290.800 C 39.282 289.810,38.308 287.967,37.702 286.704 C 36.779 284.781,36.000 283.812,36.000 284.588 M352.200 303.600 C 351.799 304.043,351.562 304.495,351.672 304.605 C 351.782 304.715,352.199 304.443,352.600 304.000 C 353.001 303.557,353.238 303.105,353.128 302.995 C 353.018 302.885,352.601 303.157,352.200 303.600 M350.662 305.931 C 349.933 306.737,349.772 307.388,350.398 307.001 C 350.815 306.743,351.739 305.200,351.476 305.200 C 351.392 305.200,351.026 305.529,350.662 305.931 M349.054 308.573 C 348.694 309.123,348.407 309.893,348.416 310.286 C 348.425 310.699,348.762 310.339,349.214 309.432 C 350.116 307.626,350.018 307.103,349.054 308.573 M348.406 313.876 C 348.403 314.358,348.580 314.864,348.800 315.000 C 349.309 315.315,349.309 314.388,348.800 313.600 C 348.485 313.112,348.411 313.164,348.406 313.876 M56.046 315.500 C 57.966 317.970,62.526 323.192,63.643 324.200 C 64.823 325.266,61.139 320.705,59.603 319.200 C 59.266 318.870,58.363 317.751,57.595 316.712 C 56.828 315.674,56.043 314.819,55.851 314.812 C 55.659 314.806,55.747 315.115,56.046 315.500 M349.200 315.845 C 349.200 316.068,349.784 316.779,350.499 317.425 L 351.797 318.600 350.805 317.400 C 350.259 316.740,349.674 316.029,349.506 315.820 C 349.316 315.584,349.200 315.594,349.200 315.845 M69.387 330.387 C 71.572 332.580,73.430 334.304,73.516 334.218 C 73.715 334.018,66.111 326.400,65.713 326.400 C 65.549 326.400,67.202 328.194,69.387 330.387 M332.054 328.846 C 327.456 331.542,326.583 337.097,330.057 341.554 C 331.106 342.900,330.983 342.430,329.600 339.800 C 325.842 332.657,332.657 325.842,339.800 329.600 C 342.430 330.983,342.900 331.106,341.554 330.057 C 338.695 327.828,334.665 327.315,332.054 328.846 M75.800 336.366 C 77.372 338.080,80.786 340.948,81.000 340.734 C 81.092 340.641,79.690 339.327,77.884 337.812 C 76.078 336.297,75.140 335.647,75.800 336.366 M83.035 342.788 C 84.092 343.662,85.033 344.300,85.126 344.207 C 85.342 343.991,84.538 343.211,82.938 342.087 C 80.898 340.653,80.955 341.070,83.035 342.788 M87.160 345.975 C 88.127 346.876,89.004 347.530,89.107 347.426 C 89.358 347.176,88.509 346.377,86.800 345.254 C 85.528 344.419,85.561 344.485,87.160 345.975 M89.600 347.787 C 89.600 348.001,93.487 350.892,94.400 351.358 C 95.057 351.693,93.698 350.425,91.560 348.707 C 90.280 347.678,89.600 347.360,89.600 347.787 M308.400 349.211 L 307.400 350.005 309.000 349.360 C 310.944 348.577,311.165 348.397,310.167 348.409 C 309.745 348.414,308.950 348.775,308.400 349.211 M313.600 348.800 C 314.388 349.309,315.315 349.309,315.000 348.800 C 314.864 348.580,314.358 348.403,313.876 348.406 C 313.164 348.411,313.112 348.485,313.600 348.800 M315.820 349.506 C 316.029 349.674,316.740 350.259,317.400 350.805 L 318.600 351.797 317.425 350.499 C 316.779 349.784,316.068 349.200,315.845 349.200 C 315.594 349.200,315.584 349.316,315.820 349.506 M305.762 350.858 C 305.005 351.710,305.006 351.713,305.878 351.256 C 306.850 350.746,307.449 350.000,306.886 350.000 C 306.687 350.000,306.181 350.386,305.762 350.858 M95.200 351.842 C 95.200 352.173,96.477 353.170,96.924 353.187 C 97.102 353.194,97.137 353.021,97.001 352.802 C 96.680 352.282,95.200 351.493,95.200 351.842 M303.362 352.458 C 302.605 353.310,302.606 353.313,303.478 352.856 C 304.450 352.346,305.049 351.600,304.486 351.600 C 304.287 351.600,303.781 351.986,303.362 352.458 M97.600 353.500 C 97.600 353.701,98.095 354.120,98.700 354.432 C 99.305 354.745,100.149 355.315,100.575 355.700 C 101.616 356.639,102.393 356.601,101.389 355.660 C 100.233 354.577,97.600 353.075,97.600 353.500 M297.400 356.279 C 291.888 359.780,289.965 360.858,282.107 364.853 C 278.976 366.445,276.488 367.822,276.579 367.913 C 276.844 368.178,288.153 362.413,293.281 359.400 C 297.668 356.822,302.400 353.769,302.400 353.517 C 302.400 353.078,302.707 352.908,297.400 356.279 M102.400 356.800 C 102.400 357.020,102.584 357.200,102.808 357.200 C 103.032 357.200,103.977 357.689,104.908 358.287 C 106.742 359.465,107.136 359.689,112.760 362.752 C 114.828 363.878,116.594 364.800,116.684 364.800 C 117.226 364.800,116.177 364.014,114.522 363.180 C 113.465 362.647,112.510 362.116,112.400 362.000 C 112.290 361.884,111.300 361.349,110.200 360.810 C 109.100 360.272,107.448 359.329,106.528 358.716 C 105.608 358.102,104.685 357.600,104.477 357.600 C 104.268 357.600,103.874 357.330,103.600 357.000 C 103.031 356.314,102.400 356.209,102.400 356.800 M117.200 364.965 C 117.200 365.274,123.224 368.109,123.434 367.899 C 123.549 367.784,122.327 367.040,120.718 366.245 C 117.920 364.863,117.200 364.601,117.200 364.965 M125.820 369.140 C 126.029 369.327,127.010 369.792,128.000 370.173 C 128.990 370.554,130.430 371.139,131.200 371.474 C 133.113 372.304,133.964 372.638,135.600 373.200 C 136.370 373.464,137.360 373.832,137.800 374.016 C 141.990 375.771,151.053 378.333,150.626 377.643 C 150.476 377.399,150.061 377.200,149.705 377.200 C 148.973 377.200,146.554 376.480,145.505 375.951 C 145.123 375.758,144.459 375.600,144.029 375.600 C 143.599 375.600,143.136 375.420,143.000 375.200 C 142.864 374.980,142.324 374.800,141.800 374.800 C 141.276 374.800,140.736 374.620,140.600 374.400 C 140.464 374.180,140.001 374.000,139.571 374.000 C 139.141 374.000,138.477 373.830,138.095 373.623 C 137.713 373.415,135.150 372.397,132.400 371.361 C 129.650 370.324,127.229 369.324,127.020 369.138 C 126.811 368.952,126.370 368.800,126.040 368.800 C 125.679 368.800,125.592 368.936,125.820 369.140 M272.400 369.370 C 271.850 369.667,269.420 370.660,267.000 371.577 C 264.580 372.495,262.287 373.415,261.905 373.623 C 261.523 373.830,260.859 374.000,260.429 374.000 C 259.999 374.000,259.536 374.180,259.400 374.400 C 259.264 374.620,258.724 374.800,258.200 374.800 C 257.676 374.800,257.136 374.980,257.000 375.200 C 256.864 375.420,256.401 375.600,255.971 375.600 C 255.541 375.600,254.877 375.762,254.495 375.961 C 254.113 376.160,252.990 376.541,252.000 376.808 C 249.153 377.577,249.074 377.607,249.300 377.833 C 249.602 378.135,259.116 375.323,262.200 374.019 C 262.640 373.833,263.630 373.461,264.400 373.193 C 265.170 372.925,266.340 372.472,267.000 372.187 C 267.660 371.901,269.460 371.175,271.000 370.574 C 272.540 369.973,273.971 369.328,274.180 369.140 C 274.780 368.603,273.523 368.766,272.400 369.370 M151.800 378.400 C 152.984 378.909,154.387 378.909,153.600 378.400 C 153.270 378.187,152.550 378.022,152.000 378.034 C 151.084 378.054,151.067 378.085,151.800 378.400 M246.200 378.400 C 245.904 378.880,247.084 378.880,248.200 378.400 C 248.874 378.110,248.800 378.052,247.724 378.028 C 247.022 378.013,246.336 378.180,246.200 378.400 M155.000 379.200 C 156.116 379.680,157.296 379.680,157.000 379.200 C 156.864 378.980,156.178 378.813,155.476 378.828 C 154.400 378.852,154.326 378.910,155.000 379.200 M243.400 379.200 C 243.105 379.678,243.889 379.678,245.000 379.200 C 245.714 378.893,245.685 378.853,244.724 378.828 C 244.132 378.813,243.536 378.980,243.400 379.200 M158.400 380.000 C 159.190 380.511,160.516 380.511,160.200 380.000 C 160.064 379.780,159.468 379.603,158.876 379.606 C 158.034 379.611,157.931 379.697,158.400 380.000 M239.800 380.000 C 239.484 380.511,240.810 380.511,241.600 380.000 C 242.069 379.697,241.966 379.611,241.124 379.606 C 240.532 379.603,239.936 379.780,239.800 380.000 M161.600 380.800 C 162.393 381.313,164.117 381.313,163.800 380.800 C 163.664 380.580,162.978 380.403,162.276 380.406 C 161.305 380.411,161.143 380.505,161.600 380.800 M236.000 380.800 C 235.525 381.107,235.608 381.188,236.400 381.188 C 236.950 381.188,237.670 381.013,238.000 380.800 C 238.475 380.493,238.392 380.412,237.600 380.412 C 237.050 380.412,236.330 380.587,236.000 380.800 M166.000 381.600 C 166.330 381.813,167.050 381.988,167.600 381.988 C 168.392 381.988,168.475 381.907,168.000 381.600 C 167.670 381.387,166.950 381.212,166.400 381.212 C 165.608 381.212,165.525 381.293,166.000 381.600 M232.000 381.600 C 231.525 381.907,231.608 381.988,232.400 381.988 C 232.950 381.988,233.670 381.813,234.000 381.600 C 234.475 381.293,234.392 381.212,233.600 381.212 C 233.050 381.212,232.330 381.387,232.000 381.600 M170.200 382.400 C 171.367 382.902,173.976 382.902,173.200 382.400 C 172.870 382.187,171.880 382.022,171.000 382.034 C 169.743 382.052,169.571 382.130,170.200 382.400 M227.200 382.400 C 226.421 382.903,228.629 382.903,229.800 382.400 C 230.454 382.119,230.344 382.052,229.200 382.034 C 228.430 382.022,227.530 382.187,227.200 382.400 M175.400 383.200 C 175.840 383.389,177.010 383.544,178.000 383.544 C 179.358 383.544,179.603 383.459,179.000 383.200 C 178.560 383.011,177.390 382.856,176.400 382.856 C 175.042 382.856,174.797 382.941,175.400 383.200 M221.000 383.200 C 220.397 383.459,220.642 383.544,222.000 383.544 C 222.990 383.544,224.160 383.389,224.600 383.200 C 225.203 382.941,224.958 382.856,223.600 382.856 C 222.610 382.856,221.440 383.011,221.000 383.200 M182.600 384.000 C 183.040 384.189,184.570 384.335,186.000 384.325 C 188.003 384.310,188.324 384.235,187.400 384.000 C 185.666 383.559,181.573 383.559,182.600 384.000 M212.400 384.000 C 211.692 384.227,212.219 384.324,214.200 384.332 C 215.740 384.338,217.360 384.189,217.800 384.000 C 218.847 383.550,213.805 383.550,212.400 384.000 M196.391 384.791 C 198.696 384.938,202.206 384.937,204.191 384.789 C 206.945 384.584,205.953 384.521,200.000 384.523 C 193.468 384.525,192.882 384.569,196.391 384.791 " stroke="none" fill="#2f9842" fill-rule="evenodd"></path><path id="path4" d="M222.999 164.418 C 179.915 207.520,177.923 209.430,175.457 210.018 C 174.212 210.315,174.210 210.318,175.305 210.359 C 176.392 210.399,177.349 209.989,178.945 208.800 C 179.388 208.470,198.945 189.030,222.406 165.600 C 245.867 142.170,265.525 122.581,266.090 122.069 L 267.117 121.139 282.258 136.307 C 290.586 144.650,297.839 151.956,298.375 152.544 L 299.350 153.611 236.775 216.200 C 202.359 250.623,174.066 278.791,173.902 278.794 C 173.738 278.797,157.211 262.403,137.175 242.362 C 101.236 206.414,100.755 205.912,101.473 205.111 C 104.438 201.799,132.945 173.582,133.230 173.678 C 133.428 173.745,141.647 181.811,151.495 191.602 C 170.053 210.054,170.467 210.427,172.295 210.359 C 173.368 210.319,173.363 210.309,172.110 210.012 C 169.949 209.498,169.330 208.929,150.929 190.522 L 133.107 172.695 116.553 189.248 L 100.000 205.801 136.909 242.709 L 173.817 279.616 236.914 216.515 L 300.011 153.415 283.707 137.107 C 274.740 128.138,267.223 120.800,267.001 120.800 C 266.780 120.800,246.979 140.428,222.999 164.418 " stroke="none" fill="#cccccc" fill-rule="evenodd"></path></g></svg>