<svg id="svg" version="1.1" xmlns="http://www.w3.org/2000/svg" xmlns:xlink="http://www.w3.org/1999/xlink" width="400" height="400" viewBox="0, 0, 400,400"><g id="svgg"><path id="path0" d="M190.000 61.033 C 181.243 61.506,169.645 63.831,162.162 66.614 C 158.668 67.913,152.150 70.979,151.600 71.582 C 151.490 71.703,150.943 72.036,150.384 72.323 C 140.551 77.375,130.727 91.220,128.049 103.800 C 127.814 104.900,127.438 106.645,127.211 107.677 C 126.954 108.852,126.800 118.894,126.800 134.505 L 126.800 159.456 125.900 160.271 C 123.831 162.145,121.911 165.347,120.786 168.800 C 119.987 171.252,119.909 205.269,120.700 206.060 C 120.975 206.335,121.200 206.879,121.200 207.268 C 121.200 208.964,125.141 214.535,127.563 216.264 C 129.064 217.334,129.230 217.665,130.432 221.991 C 134.750 237.530,142.383 253.041,151.877 265.570 L 153.218 267.339 153.092 282.370 C 152.956 298.664,152.948 298.728,150.564 303.553 C 147.448 309.856,145.080 311.602,124.900 322.469 C 123.745 323.091,121.810 324.140,120.600 324.800 C 119.390 325.460,117.455 326.512,116.300 327.139 C 115.145 327.765,113.390 328.730,112.400 329.282 C 109.032 331.161,101.809 335.095,98.800 336.689 C 97.150 337.563,94.990 338.752,94.000 339.330 C 93.010 339.909,91.210 340.873,90.000 341.472 C 88.790 342.072,87.710 342.661,87.600 342.781 C 87.490 342.902,86.680 343.379,85.800 343.842 C 74.172 349.965,68.148 355.200,72.731 355.200 C 72.989 355.200,73.200 355.368,73.200 355.573 C 73.200 355.778,73.560 356.060,74.000 356.200 C 74.440 356.340,74.800 356.700,74.800 357.000 C 74.800 357.300,75.139 357.654,75.553 357.785 C 75.968 357.917,76.866 358.559,77.550 359.212 C 78.233 359.865,78.948 360.400,79.137 360.400 C 79.326 360.400,80.046 360.940,80.737 361.600 C 81.428 362.260,82.148 362.800,82.337 362.800 C 82.526 362.800,83.246 363.340,83.937 364.000 C 84.628 364.660,85.464 365.200,85.796 365.200 C 86.128 365.200,86.400 365.380,86.400 365.600 C 86.400 365.820,86.681 366.000,87.024 366.000 C 87.367 366.000,87.536 366.180,87.400 366.400 C 87.264 366.620,87.523 366.800,87.976 366.800 C 88.429 366.800,88.800 366.950,88.800 367.132 C 88.800 367.315,89.295 367.720,89.900 368.032 C 90.505 368.344,91.090 368.698,91.200 368.819 C 91.841 369.523,94.023 370.800,94.585 370.800 C 94.949 370.800,95.153 370.953,95.037 371.140 C 94.922 371.327,95.316 371.725,95.914 372.025 C 96.511 372.326,97.495 372.905,98.100 373.313 C 98.705 373.721,99.200 373.939,99.200 373.798 C 99.200 373.657,99.674 373.915,100.254 374.371 C 100.834 374.827,101.644 375.200,102.054 375.200 C 102.464 375.200,102.800 375.380,102.800 375.600 C 102.800 375.820,103.120 376.000,103.512 376.000 C 103.903 376.000,104.483 376.360,104.800 376.800 C 105.117 377.240,105.697 377.600,106.088 377.600 C 106.480 377.600,106.800 377.780,106.800 378.000 C 106.800 378.220,107.160 378.400,107.600 378.400 C 108.040 378.400,108.400 378.580,108.400 378.800 C 108.400 379.020,108.634 379.200,108.920 379.200 C 109.656 379.200,111.593 380.141,111.597 380.500 C 111.599 380.665,111.789 380.800,112.019 380.800 C 112.250 380.800,113.184 381.160,114.094 381.600 C 115.005 382.040,115.986 382.400,116.275 382.400 C 116.564 382.400,116.800 382.580,116.800 382.800 C 116.800 383.020,117.034 383.200,117.320 383.200 C 118.056 383.200,119.993 384.141,119.997 384.500 C 119.999 384.665,120.349 384.800,120.776 384.800 C 121.203 384.800,121.664 384.980,121.800 385.200 C 121.936 385.420,122.363 385.600,122.748 385.600 C 123.134 385.600,124.195 385.960,125.106 386.400 C 126.016 386.840,127.040 387.200,127.381 387.200 C 127.721 387.200,128.000 387.380,128.000 387.600 C 128.000 387.820,128.349 388.000,128.776 388.000 C 129.203 388.000,129.664 388.180,129.800 388.400 C 129.936 388.620,130.476 388.800,131.000 388.800 C 131.524 388.800,132.064 388.980,132.200 389.200 C 132.336 389.420,132.799 389.600,133.229 389.600 C 133.659 389.600,134.323 389.774,134.705 389.987 C 136.028 390.725,139.234 391.600,140.614 391.600 C 141.376 391.600,142.000 391.780,142.000 392.000 C 142.000 392.220,142.450 392.400,143.000 392.400 C 143.550 392.400,144.000 392.580,144.000 392.800 C 144.000 393.020,144.529 393.200,145.176 393.200 C 145.823 393.200,146.464 393.380,146.600 393.600 C 146.736 393.820,147.456 394.000,148.200 394.000 C 148.944 394.000,149.664 394.180,149.800 394.400 C 149.936 394.620,150.767 394.800,151.647 394.800 C 152.612 394.800,153.149 394.959,153.000 395.200 C 152.848 395.447,153.529 395.600,154.776 395.600 C 155.889 395.600,156.800 395.780,156.800 396.000 C 156.800 396.220,157.610 396.400,158.600 396.400 C 159.590 396.400,160.400 396.580,160.400 396.800 C 160.400 397.020,161.401 397.200,162.624 397.200 C 164.004 397.200,164.753 397.352,164.600 397.600 C 164.446 397.850,165.263 398.000,166.776 398.000 C 168.109 398.000,169.200 398.166,169.200 398.368 C 169.200 398.571,170.505 398.831,172.100 398.947 C 173.695 399.062,177.250 399.359,180.000 399.606 C 186.944 400.230,224.196 399.964,224.875 399.285 C 225.161 398.999,226.488 398.800,228.104 398.800 C 229.831 398.800,230.756 398.652,230.600 398.400 C 230.445 398.149,231.321 398.000,232.953 398.000 C 234.383 398.000,235.664 397.820,235.800 397.600 C 235.936 397.380,236.746 397.200,237.600 397.200 C 238.454 397.200,239.264 397.020,239.400 396.800 C 239.536 396.580,240.436 396.400,241.400 396.400 C 242.364 396.400,243.264 396.220,243.400 396.000 C 243.536 395.780,244.447 395.600,245.424 395.600 C 246.401 395.600,247.200 395.420,247.200 395.200 C 247.200 394.980,247.931 394.800,248.824 394.800 C 249.717 394.800,250.348 394.639,250.226 394.442 C 250.104 394.245,250.678 393.982,251.502 393.857 C 255.081 393.316,256.000 393.091,256.000 392.756 C 256.000 392.560,256.529 392.400,257.176 392.400 C 257.823 392.400,258.449 392.244,258.567 392.053 C 258.685 391.862,259.679 391.587,260.775 391.441 C 261.870 391.296,262.875 391.002,263.007 390.788 C 263.139 390.575,263.676 390.400,264.200 390.400 C 264.724 390.400,265.245 390.251,265.358 390.068 C 265.470 389.886,266.569 389.495,267.800 389.200 C 269.031 388.905,270.130 388.514,270.242 388.332 C 270.355 388.149,270.797 388.000,271.224 388.000 C 271.651 388.000,272.000 387.820,272.000 387.600 C 272.000 387.380,272.355 387.200,272.788 387.200 C 273.221 387.200,274.217 386.840,275.000 386.400 C 275.783 385.960,276.768 385.600,277.189 385.600 C 277.609 385.600,278.064 385.420,278.200 385.200 C 278.336 384.980,278.797 384.800,279.224 384.800 C 279.651 384.800,280.000 384.620,280.000 384.400 C 280.000 384.180,280.360 384.000,280.800 384.000 C 281.240 384.000,281.600 383.820,281.600 383.600 C 281.600 383.380,281.960 383.200,282.400 383.200 C 282.840 383.200,283.200 383.020,283.200 382.800 C 283.200 382.580,283.562 382.400,284.005 382.400 C 284.766 382.400,286.362 381.690,286.800 381.156 C 286.910 381.022,287.675 380.671,288.500 380.376 C 289.325 380.081,290.000 379.729,290.000 379.594 C 290.000 379.460,290.630 379.102,291.400 378.800 C 292.170 378.498,292.800 378.104,292.800 377.925 C 292.800 377.746,293.126 377.600,293.525 377.600 C 293.923 377.600,294.636 377.240,295.108 376.800 C 295.580 376.360,296.244 376.000,296.583 376.000 C 296.922 376.000,297.200 375.820,297.200 375.600 C 297.200 375.380,297.491 375.200,297.846 375.200 C 298.562 375.200,302.523 373.174,302.733 372.700 C 302.807 372.535,303.088 372.400,303.358 372.400 C 303.628 372.400,304.198 372.085,304.625 371.700 C 305.051 371.315,305.940 370.731,306.600 370.403 C 307.260 370.074,308.091 369.489,308.447 369.103 C 308.803 368.716,309.348 368.400,309.659 368.400 C 309.969 368.400,310.483 368.040,310.800 367.600 C 311.117 367.160,311.657 366.800,312.000 366.800 C 312.343 366.800,312.883 366.440,313.200 366.000 C 313.517 365.560,314.009 365.200,314.292 365.200 C 314.575 365.200,315.372 364.660,316.063 364.000 C 316.754 363.340,317.522 362.800,317.771 362.800 C 318.020 362.800,318.483 362.440,318.800 362.000 C 319.117 361.560,319.515 361.200,319.684 361.200 C 319.978 361.200,321.104 360.355,322.216 359.300 C 322.506 359.025,322.926 358.800,323.149 358.800 C 323.372 358.800,323.835 358.400,324.177 357.911 C 324.520 357.422,324.800 357.160,324.800 357.329 C 324.800 357.498,325.258 357.178,325.818 356.618 C 326.378 356.058,326.963 355.597,327.118 355.594 C 329.429 355.544,327.695 353.385,322.537 349.893 C 321.002 348.853,304.420 340.346,285.689 330.988 C 250.870 313.593,248.573 312.311,245.800 308.729 C 245.140 307.876,244.414 306.958,244.188 306.689 C 240.512 302.330,239.601 297.218,239.600 280.954 C 239.600 267.264,239.585 267.381,241.599 265.600 C 241.723 265.490,242.684 264.230,243.735 262.800 C 244.785 261.370,245.860 259.930,246.124 259.600 C 246.729 258.843,249.733 254.356,250.000 253.809 C 250.110 253.584,251.209 251.690,252.443 249.600 C 255.396 244.596,258.400 238.817,258.400 238.141 C 258.400 237.843,258.580 237.600,258.800 237.600 C 259.020 237.600,259.200 237.358,259.200 237.061 C 259.200 236.765,259.450 236.000,259.756 235.361 C 260.336 234.152,261.423 231.648,262.041 230.100 C 263.002 227.692,263.228 227.134,263.579 226.300 C 263.788 225.805,264.368 224.169,264.868 222.663 L 265.777 219.927 268.589 218.591 C 273.604 216.208,276.941 212.395,279.259 206.400 C 280.082 204.271,280.042 171.344,279.214 168.800 C 278.502 166.616,276.800 163.283,275.762 162.043 C 275.343 161.542,274.595 160.653,274.100 160.066 L 273.201 159.000 273.200 134.573 C 273.200 110.275,273.119 108.503,271.741 102.800 C 266.497 81.098,247.928 66.195,221.400 62.398 C 219.640 62.146,217.210 61.767,216.000 61.557 C 213.747 61.165,194.675 60.781,190.000 61.033 " stroke="none" fill="#e3ebeb" fill-rule="evenodd"></path><path id="path1" d="M178.300 0.275 C 176.375 0.361,174.800 0.604,174.800 0.816 C 174.800 1.027,173.551 1.200,172.024 1.200 C 170.497 1.200,169.136 1.380,169.000 1.600 C 168.864 1.820,167.784 2.000,166.600 2.000 C 165.416 2.000,164.336 2.180,164.200 2.400 C 164.064 2.620,163.063 2.800,161.976 2.800 C 160.889 2.800,160.000 2.980,160.000 3.200 C 160.000 3.420,159.201 3.600,158.224 3.600 C 157.247 3.600,156.336 3.780,156.200 4.000 C 156.064 4.220,155.243 4.400,154.376 4.400 C 153.509 4.400,152.800 4.580,152.800 4.800 C 152.800 5.020,152.080 5.200,151.200 5.200 C 150.320 5.200,149.600 5.380,149.600 5.600 C 149.600 5.820,148.880 6.000,148.000 6.000 C 147.120 6.000,146.400 6.180,146.400 6.400 C 146.400 6.620,145.860 6.800,145.200 6.800 C 144.540 6.800,144.000 6.980,144.000 7.200 C 144.000 7.420,143.370 7.600,142.600 7.600 C 141.830 7.600,141.200 7.760,141.200 7.956 C 141.200 8.152,140.615 8.402,139.900 8.512 C 139.185 8.621,138.150 8.839,137.600 8.996 C 137.050 9.153,136.103 9.373,135.495 9.487 C 134.887 9.600,134.292 9.851,134.171 10.046 C 134.051 10.241,133.601 10.400,133.171 10.400 C 132.741 10.400,132.077 10.559,131.695 10.753 C 131.313 10.948,130.460 11.329,129.800 11.600 C 129.140 11.871,128.287 12.252,127.905 12.447 C 127.523 12.641,126.848 12.800,126.405 12.800 C 125.962 12.800,125.600 12.980,125.600 13.200 C 125.600 13.420,125.240 13.600,124.800 13.600 C 124.360 13.600,124.000 13.780,124.000 14.000 C 124.000 14.220,123.561 14.400,123.024 14.400 C 122.487 14.400,121.936 14.580,121.800 14.800 C 121.664 15.020,121.203 15.200,120.776 15.200 C 120.349 15.200,120.000 15.380,120.000 15.600 C 120.000 15.820,119.640 16.000,119.200 16.000 C 118.760 16.000,118.400 16.180,118.400 16.400 C 118.400 16.620,118.128 16.800,117.795 16.800 C 117.462 16.800,116.877 16.962,116.495 17.159 C 116.113 17.357,114.180 18.300,112.200 19.255 C 110.220 20.211,108.540 21.129,108.467 21.296 C 108.393 21.463,107.988 21.600,107.567 21.600 C 107.145 21.600,106.800 21.780,106.800 22.000 C 106.800 22.220,106.440 22.400,106.000 22.400 C 105.560 22.400,105.200 22.580,105.200 22.800 C 105.200 23.020,104.964 23.200,104.675 23.200 C 104.387 23.200,103.764 23.560,103.292 24.000 C 102.820 24.440,102.251 24.800,102.027 24.800 C 101.333 24.800,98.000 26.541,98.000 26.903 C 98.000 27.092,97.820 27.136,97.600 27.000 C 97.380 26.864,97.200 26.943,97.200 27.176 C 97.200 27.409,97.013 27.600,96.784 27.600 C 96.310 27.600,93.869 29.245,93.667 29.700 C 93.593 29.865,93.228 30.000,92.855 30.000 C 92.482 30.000,91.917 30.360,91.600 30.800 C 91.283 31.240,90.743 31.600,90.400 31.600 C 90.057 31.600,89.517 31.960,89.200 32.400 C 88.883 32.840,88.343 33.200,88.000 33.200 C 87.657 33.200,87.117 33.560,86.800 34.000 C 86.483 34.440,85.943 34.800,85.600 34.800 C 85.257 34.800,84.717 35.160,84.400 35.600 C 84.083 36.040,83.620 36.400,83.371 36.400 C 83.122 36.400,82.354 36.940,81.663 37.600 C 80.972 38.260,80.226 38.800,80.004 38.800 C 79.782 38.800,79.600 38.980,79.600 39.200 C 79.600 39.420,79.370 39.600,79.088 39.600 C 78.807 39.600,78.317 39.960,78.000 40.400 C 77.683 40.840,77.233 41.200,77.000 41.200 C 76.767 41.200,76.324 41.550,76.015 41.979 C 75.707 42.407,75.307 42.666,75.127 42.555 C 74.947 42.444,74.800 42.541,74.800 42.771 C 74.800 43.002,74.125 43.627,73.300 44.162 C 72.475 44.697,71.012 45.869,70.049 46.767 C 69.087 47.665,68.143 48.400,67.951 48.400 C 67.760 48.400,65.630 50.380,63.218 52.800 C 60.805 55.220,58.921 57.200,59.030 57.200 C 59.139 57.200,58.817 57.626,58.314 58.146 C 57.811 58.667,57.342 59.044,57.271 58.984 C 57.041 58.790,48.000 68.020,48.000 68.448 C 48.000 68.676,47.287 69.569,46.416 70.431 C 45.544 71.294,44.921 72.000,45.031 72.000 C 45.253 72.000,44.660 72.774,43.318 74.238 C 42.833 74.767,42.546 75.200,42.679 75.200 C 42.813 75.200,42.535 75.536,42.061 75.947 C 41.588 76.358,41.200 76.826,41.200 76.986 C 41.200 77.147,40.660 77.783,40.000 78.400 C 39.340 79.017,38.800 79.720,38.800 79.964 C 38.800 80.208,38.260 80.972,37.600 81.663 C 36.940 82.354,36.400 83.122,36.400 83.371 C 36.400 83.620,36.040 84.083,35.600 84.400 C 35.160 84.717,34.800 85.257,34.800 85.600 C 34.800 85.943,34.440 86.483,34.000 86.800 C 33.560 87.117,33.200 87.657,33.200 88.000 C 33.200 88.343,32.840 88.883,32.400 89.200 C 31.960 89.517,31.600 90.057,31.600 90.400 C 31.600 90.743,31.240 91.283,30.800 91.600 C 30.360 91.917,30.000 92.482,30.000 92.855 C 30.000 93.228,29.865 93.593,29.700 93.667 C 29.262 93.861,27.600 96.302,27.600 96.750 C 27.600 96.961,27.443 97.193,27.251 97.267 C 26.843 97.422,24.800 101.371,24.800 102.003 C 24.800 102.240,24.440 102.820,24.000 103.292 C 23.560 103.764,23.200 104.387,23.200 104.675 C 23.200 104.964,23.020 105.200,22.800 105.200 C 22.580 105.200,22.400 105.560,22.400 106.000 C 22.400 106.440,22.220 106.800,22.000 106.800 C 21.780 106.800,21.600 107.160,21.600 107.600 C 21.600 108.040,21.465 108.401,21.300 108.401 C 21.135 108.402,20.550 109.392,20.000 110.600 C 19.450 111.808,18.865 112.798,18.700 112.799 C 18.535 112.799,18.400 113.072,18.400 113.405 C 18.400 113.738,18.192 114.413,17.938 114.905 C 16.967 116.782,16.800 117.207,16.800 117.795 C 16.800 118.128,16.620 118.400,16.400 118.400 C 16.180 118.400,16.000 118.760,16.000 119.200 C 16.000 119.640,15.820 120.000,15.600 120.000 C 15.380 120.000,15.200 120.349,15.200 120.776 C 15.200 121.203,15.020 121.664,14.800 121.800 C 14.580 121.936,14.400 122.487,14.400 123.024 C 14.400 123.561,14.220 124.000,14.000 124.000 C 13.780 124.000,13.600 124.360,13.600 124.800 C 13.600 125.240,13.420 125.600,13.200 125.600 C 12.980 125.600,12.800 126.039,12.800 126.576 C 12.800 127.113,12.620 127.664,12.400 127.800 C 12.180 127.936,12.000 128.315,12.000 128.643 C 12.000 128.971,11.640 129.984,11.200 130.894 C 10.760 131.805,10.400 132.840,10.400 133.195 C 10.400 133.550,10.184 134.056,9.920 134.320 C 9.656 134.584,9.562 134.800,9.710 134.800 C 9.859 134.800,9.789 135.295,9.555 135.900 C 9.015 137.294,8.762 138.266,8.512 139.900 C 8.402 140.615,8.152 141.200,7.956 141.200 C 7.760 141.200,7.600 141.830,7.600 142.600 C 7.600 143.370,7.420 144.000,7.200 144.000 C 6.980 144.000,6.800 144.529,6.800 145.176 C 6.800 145.823,6.620 146.464,6.400 146.600 C 6.180 146.736,6.000 147.467,6.000 148.224 C 6.000 148.981,5.820 149.600,5.600 149.600 C 5.380 149.600,5.200 150.320,5.200 151.200 C 5.200 152.080,5.020 152.800,4.800 152.800 C 4.580 152.800,4.400 153.509,4.400 154.376 C 4.400 155.243,4.220 156.064,4.000 156.200 C 3.780 156.336,3.600 157.247,3.600 158.224 C 3.600 159.201,3.420 160.000,3.200 160.000 C 2.980 160.000,2.800 160.889,2.800 161.976 C 2.800 163.063,2.620 164.064,2.400 164.200 C 2.180 164.336,2.000 165.416,2.000 166.600 C 2.000 167.784,1.820 168.864,1.600 169.000 C 1.380 169.136,1.200 170.482,1.200 171.990 C 1.200 173.829,1.035 174.788,0.700 174.900 C -0.032 175.144,-0.032 224.856,0.700 225.100 C 1.035 225.212,1.200 226.171,1.200 228.010 C 1.200 229.518,1.380 230.864,1.600 231.000 C 1.820 231.136,2.000 232.216,2.000 233.400 C 2.000 234.584,2.180 235.664,2.400 235.800 C 2.620 235.936,2.800 236.937,2.800 238.024 C 2.800 239.111,2.980 240.000,3.200 240.000 C 3.420 240.000,3.600 240.709,3.600 241.576 C 3.600 242.443,3.780 243.264,4.000 243.400 C 4.220 243.536,4.400 244.447,4.400 245.424 C 4.400 246.401,4.580 247.200,4.800 247.200 C 5.020 247.200,5.200 247.920,5.200 248.800 C 5.200 249.680,5.380 250.400,5.600 250.400 C 5.820 250.400,6.000 251.019,6.000 251.776 C 6.000 252.533,6.180 253.264,6.400 253.400 C 6.620 253.536,6.800 254.177,6.800 254.824 C 6.800 255.471,6.980 256.000,7.200 256.000 C 7.420 256.000,7.600 256.630,7.600 257.400 C 7.600 258.170,7.780 258.800,8.000 258.800 C 8.220 258.800,8.400 259.310,8.400 259.933 C 8.400 260.557,8.533 261.199,8.695 261.362 C 8.857 261.524,8.992 261.869,8.995 262.128 C 9.002 262.786,11.305 269.755,11.596 270.000 C 11.726 270.110,12.082 271.010,12.386 272.000 C 12.690 272.990,13.088 273.971,13.270 274.180 C 13.451 274.389,13.600 274.884,13.600 275.280 C 13.600 275.676,13.780 276.000,14.000 276.000 C 14.220 276.000,14.400 276.349,14.400 276.776 C 14.400 277.203,14.580 277.664,14.800 277.800 C 15.020 277.936,15.200 278.487,15.200 279.024 C 15.200 279.561,15.380 280.000,15.600 280.000 C 15.820 280.000,16.000 280.360,16.000 280.800 C 16.000 281.240,16.180 281.600,16.400 281.600 C 16.620 281.600,16.800 281.960,16.800 282.400 C 16.800 282.840,16.980 283.200,17.200 283.200 C 17.420 283.200,17.600 283.549,17.600 283.976 C 17.600 284.403,17.780 284.864,18.000 285.000 C 18.220 285.136,18.400 285.597,18.400 286.024 C 18.400 286.451,18.580 286.800,18.800 286.800 C 19.020 286.800,19.200 287.160,19.200 287.600 C 19.200 288.040,19.380 288.400,19.600 288.400 C 19.820 288.400,20.000 288.760,20.000 289.200 C 20.000 289.640,20.180 290.000,20.400 290.000 C 20.620 290.000,20.800 290.345,20.800 290.767 C 20.800 291.188,20.935 291.593,21.100 291.667 C 21.476 291.834,22.775 293.964,23.071 294.900 C 23.193 295.285,23.452 295.600,23.647 295.600 C 23.841 295.600,24.000 295.960,24.000 296.400 C 24.000 296.840,24.158 297.200,24.350 297.200 C 24.543 297.200,24.804 297.718,24.930 298.352 C 25.057 298.985,25.452 299.795,25.809 300.152 C 26.165 300.508,26.309 300.803,26.129 300.806 C 25.948 300.809,25.982 300.944,26.205 301.106 C 26.428 301.268,27.042 302.255,27.568 303.300 C 28.095 304.345,28.634 305.200,28.765 305.200 C 28.897 305.200,29.229 305.706,29.503 306.325 C 29.776 306.944,30.360 307.836,30.800 308.308 C 31.240 308.780,31.600 309.404,31.600 309.695 C 31.600 309.986,31.960 310.483,32.400 310.800 C 32.840 311.117,33.200 311.657,33.200 312.000 C 33.200 312.343,33.560 312.883,34.000 313.200 C 34.440 313.517,34.800 313.980,34.800 314.229 C 34.800 314.478,35.340 315.246,36.000 315.937 C 36.660 316.628,37.200 317.392,37.200 317.636 C 37.200 317.880,37.740 318.583,38.400 319.200 C 39.060 319.817,39.600 320.543,39.600 320.814 C 39.600 321.084,39.917 321.597,40.304 321.953 C 40.692 322.309,41.542 323.320,42.195 324.200 C 42.847 325.080,43.790 326.213,44.290 326.718 C 44.791 327.223,45.200 327.794,45.200 327.987 C 45.200 328.179,46.370 329.542,47.800 331.015 C 49.230 332.488,50.400 333.859,50.400 334.062 C 50.400 334.534,57.513 341.600,57.989 341.600 C 58.185 341.600,58.460 341.960,58.600 342.400 C 58.740 342.840,59.142 343.200,59.494 343.200 C 59.845 343.200,60.027 343.307,59.896 343.437 C 59.604 343.729,64.084 348.246,66.000 349.591 C 66.770 350.132,68.057 351.251,68.860 352.078 L 70.320 353.582 71.860 352.151 C 72.707 351.364,74.733 349.814,76.362 348.706 C 79.099 346.845,80.207 346.199,85.200 343.554 C 86.190 343.029,87.090 342.502,87.200 342.381 C 87.310 342.261,88.390 341.672,89.600 341.072 C 90.810 340.473,92.610 339.508,93.600 338.929 C 94.590 338.350,96.321 337.386,97.446 336.787 C 98.571 336.189,100.641 335.069,102.046 334.298 C 104.449 332.980,106.528 331.846,111.500 329.142 C 112.655 328.514,114.545 327.484,115.700 326.854 C 116.855 326.223,118.610 325.278,119.600 324.754 C 120.590 324.229,121.490 323.710,121.600 323.600 C 121.710 323.490,122.520 323.028,123.400 322.573 C 124.862 321.818,129.645 319.233,132.600 317.601 C 133.260 317.237,135.780 315.873,138.200 314.569 C 145.516 310.630,150.554 304.749,152.119 298.323 C 152.355 297.352,152.602 290.374,152.683 282.328 L 152.829 268.056 148.614 261.868 C 146.296 258.464,144.400 255.482,144.400 255.240 C 144.400 254.998,144.241 254.800,144.047 254.800 C 143.852 254.800,143.590 254.485,143.464 254.100 C 143.338 253.715,142.692 252.500,142.027 251.400 C 138.089 244.882,132.823 232.553,130.608 224.667 C 130.042 222.650,129.373 220.280,129.122 219.400 C 128.804 218.287,128.171 217.432,127.042 216.590 C 123.290 213.793,120.548 208.828,119.628 203.167 C 119.009 199.356,119.106 174.561,119.754 170.941 C 120.247 168.191,121.983 163.973,123.076 162.871 C 123.364 162.581,123.600 162.213,123.600 162.055 C 123.600 161.896,124.239 161.089,125.021 160.260 L 126.442 158.754 126.374 133.477 C 126.327 115.655,126.438 107.868,126.753 107.074 C 126.999 106.455,127.200 105.477,127.200 104.902 C 127.200 104.327,127.376 103.304,127.591 102.628 C 129.243 97.441,129.935 95.673,131.831 91.800 C 135.999 83.285,143.235 75.681,151.866 70.748 C 154.125 69.456,159.573 66.800,159.962 66.800 C 160.147 66.800,161.086 66.453,162.049 66.029 C 163.012 65.605,165.240 64.868,167.000 64.393 C 168.760 63.917,170.830 63.356,171.600 63.146 C 172.948 62.777,175.091 62.390,180.200 61.591 C 195.510 59.199,214.931 59.940,229.600 63.477 C 250.420 68.497,265.305 81.003,270.976 98.241 C 272.735 103.589,272.800 103.826,272.800 104.902 C 272.800 105.477,273.004 106.455,273.254 107.074 C 273.578 107.879,273.685 115.400,273.629 133.490 L 273.550 158.781 275.075 160.423 C 275.914 161.327,276.870 162.546,277.200 163.133 C 277.530 163.720,277.890 164.290,278.001 164.400 C 278.247 164.645,279.028 166.315,279.405 167.400 C 281.329 172.937,281.473 202.010,279.601 207.000 C 277.494 212.619,274.001 216.607,269.140 218.946 C 266.309 220.307,266.161 220.448,265.625 222.284 C 265.317 223.338,264.937 224.470,264.779 224.800 C 264.364 225.671,263.767 227.150,263.004 229.200 C 261.412 233.478,257.331 242.178,254.656 247.000 C 252.329 251.193,248.721 256.995,248.354 257.133 C 248.159 257.207,248.000 257.488,248.000 257.758 C 248.000 258.028,247.680 258.598,247.289 259.025 C 246.898 259.451,246.142 260.430,245.608 261.200 C 245.075 261.970,244.531 262.690,244.400 262.800 C 244.269 262.910,243.725 263.630,243.192 264.400 C 242.658 265.170,241.895 266.156,241.495 266.592 C 241.096 267.028,240.669 267.783,240.547 268.270 C 240.070 270.168,240.580 298.340,241.100 298.860 C 241.375 299.135,241.600 299.686,241.600 300.085 C 241.600 300.484,241.808 301.213,242.062 301.705 C 242.317 302.197,242.677 302.915,242.862 303.300 C 243.425 304.467,244.187 305.788,244.419 306.000 C 244.540 306.110,245.073 306.830,245.604 307.600 C 246.610 309.060,247.783 310.245,250.054 312.098 C 250.794 312.702,264.810 319.897,281.200 328.087 C 297.590 336.276,311.060 343.117,311.133 343.289 C 311.207 343.460,311.503 343.600,311.791 343.600 C 313.888 343.600,328.333 352.568,328.382 353.900 C 328.411 354.696,328.763 354.504,330.400 352.800 C 331.246 351.920,332.122 351.200,332.348 351.200 C 332.574 351.200,334.703 349.230,337.079 346.821 C 342.316 341.514,341.514 342.316,346.821 337.079 C 349.230 334.703,351.200 332.574,351.200 332.348 C 351.200 332.122,351.881 331.276,352.713 330.469 C 353.545 329.661,354.668 328.370,355.209 327.600 C 355.749 326.830,356.688 325.678,357.296 325.041 C 357.903 324.403,358.400 323.751,358.400 323.591 C 358.400 323.431,359.030 322.613,359.800 321.772 C 360.570 320.931,361.200 320.049,361.200 319.810 C 361.200 319.572,361.560 319.117,362.000 318.800 C 362.440 318.483,362.800 318.020,362.800 317.771 C 362.800 317.522,363.340 316.754,364.000 316.063 C 364.660 315.372,365.200 314.575,365.200 314.292 C 365.200 314.009,365.560 313.517,366.000 313.200 C 366.440 312.883,366.800 312.343,366.800 312.000 C 366.800 311.657,367.160 311.117,367.600 310.800 C 368.040 310.483,368.400 309.969,368.400 309.659 C 368.400 309.348,368.716 308.803,369.103 308.447 C 369.489 308.091,370.074 307.260,370.403 306.600 C 370.731 305.940,371.315 305.051,371.700 304.625 C 372.085 304.198,372.400 303.613,372.400 303.325 C 372.400 303.036,372.580 302.800,372.800 302.800 C 373.020 302.800,373.200 302.440,373.200 302.000 C 373.200 301.560,373.347 301.200,373.526 301.200 C 373.924 301.200,375.200 298.599,375.200 297.786 C 375.200 297.464,375.380 297.200,375.600 297.200 C 375.820 297.200,376.000 296.922,376.000 296.583 C 376.000 296.244,376.360 295.580,376.800 295.108 C 377.240 294.636,377.600 294.013,377.600 293.725 C 377.600 293.436,377.780 293.200,378.000 293.200 C 378.220 293.200,378.400 292.840,378.400 292.400 C 378.400 291.960,378.580 291.600,378.800 291.600 C 379.020 291.600,379.200 291.255,379.200 290.833 C 379.200 290.412,379.335 290.007,379.500 289.933 C 379.665 289.860,380.225 288.900,380.744 287.800 C 381.263 286.700,381.848 285.487,382.044 285.105 C 382.240 284.723,382.400 284.138,382.400 283.805 C 382.400 283.472,382.580 283.200,382.800 283.200 C 383.020 283.200,383.200 282.840,383.200 282.400 C 383.200 281.960,383.380 281.600,383.600 281.600 C 383.820 281.600,384.000 281.240,384.000 280.800 C 384.000 280.360,384.147 280.000,384.328 280.000 C 384.508 280.000,384.900 279.100,385.200 278.000 C 385.500 276.900,385.892 276.000,386.072 276.000 C 386.253 276.000,386.400 275.728,386.400 275.395 C 386.400 275.062,386.580 274.432,386.800 273.995 C 387.020 273.558,387.380 272.842,387.600 272.405 C 387.820 271.968,388.000 271.263,388.000 270.839 C 388.000 270.414,388.135 270.007,388.300 269.933 C 388.726 269.744,391.624 260.785,391.611 259.700 C 391.605 259.205,391.780 258.800,392.000 258.800 C 392.220 258.800,392.400 258.170,392.400 257.400 C 392.400 256.630,392.580 256.000,392.800 256.000 C 393.020 256.000,393.200 255.471,393.200 254.824 C 393.200 254.177,393.380 253.536,393.600 253.400 C 393.820 253.264,394.000 252.533,394.000 251.776 C 394.000 251.019,394.180 250.400,394.400 250.400 C 394.620 250.400,394.800 249.680,394.800 248.800 C 394.800 247.920,394.980 247.200,395.200 247.200 C 395.420 247.200,395.600 246.300,395.600 245.200 C 395.600 244.100,395.780 243.200,396.000 243.200 C 396.220 243.200,396.400 242.491,396.400 241.624 C 396.400 240.757,396.580 239.936,396.800 239.800 C 397.020 239.664,397.200 238.663,397.200 237.576 C 397.200 236.489,397.380 235.600,397.600 235.600 C 397.822 235.600,398.000 234.533,398.000 233.200 C 398.000 231.867,398.178 230.800,398.400 230.800 C 398.628 230.800,398.800 229.611,398.800 228.033 C 398.800 226.176,398.964 225.212,399.300 225.100 C 399.693 224.969,399.800 219.591,399.800 200.000 C 399.800 180.409,399.693 175.031,399.300 174.900 C 398.964 174.788,398.800 173.824,398.800 171.967 C 398.800 170.389,398.628 169.200,398.400 169.200 C 398.178 169.200,398.000 168.133,398.000 166.800 C 398.000 165.467,397.822 164.400,397.600 164.400 C 397.380 164.400,397.200 163.410,397.200 162.200 C 397.200 160.990,397.020 160.000,396.800 160.000 C 396.580 160.000,396.400 159.291,396.400 158.424 C 396.400 157.557,396.220 156.736,396.000 156.600 C 395.780 156.464,395.600 155.553,395.600 154.576 C 395.600 153.599,395.420 152.800,395.200 152.800 C 394.980 152.800,394.800 152.080,394.800 151.200 C 394.800 150.320,394.620 149.600,394.400 149.600 C 394.180 149.600,394.000 148.981,394.000 148.224 C 394.000 147.467,393.820 146.736,393.600 146.600 C 393.380 146.464,393.200 145.823,393.200 145.176 C 393.200 144.529,393.020 144.000,392.800 144.000 C 392.580 144.000,392.400 143.370,392.400 142.600 C 392.400 141.830,392.220 141.200,392.000 141.200 C 391.780 141.200,391.600 140.771,391.600 140.246 C 391.600 139.355,390.715 136.018,389.997 134.200 C 389.823 133.760,389.464 132.770,389.200 132.000 C 388.618 130.307,388.029 128.840,387.553 127.905 C 387.359 127.523,387.200 126.848,387.200 126.405 C 387.200 125.962,387.020 125.600,386.800 125.600 C 386.580 125.600,386.400 125.240,386.400 124.800 C 386.400 124.360,386.220 124.000,386.000 124.000 C 385.780 124.000,385.600 123.561,385.600 123.024 C 385.600 122.487,385.420 121.936,385.200 121.800 C 384.980 121.664,384.800 121.203,384.800 120.776 C 384.800 120.349,384.620 120.000,384.400 120.000 C 384.180 120.000,384.000 119.640,384.000 119.200 C 384.000 118.760,383.820 118.400,383.600 118.400 C 383.380 118.400,383.200 118.128,383.200 117.795 C 383.200 117.462,383.040 116.877,382.844 116.495 C 382.648 116.113,382.063 114.900,381.544 113.800 C 381.025 112.700,380.465 111.740,380.300 111.667 C 380.135 111.593,380.000 111.188,380.000 110.767 C 380.000 110.345,379.820 110.000,379.600 110.000 C 379.380 110.000,379.200 109.640,379.200 109.200 C 379.200 108.760,379.020 108.400,378.800 108.400 C 378.580 108.400,378.400 108.040,378.400 107.600 C 378.400 107.160,378.220 106.800,378.000 106.800 C 377.780 106.800,377.600 106.522,377.600 106.183 C 377.600 105.844,377.240 105.180,376.800 104.708 C 376.360 104.236,376.000 103.613,376.000 103.325 C 376.000 103.036,375.820 102.800,375.600 102.800 C 375.380 102.800,375.200 102.509,375.200 102.154 C 375.200 101.582,373.330 97.718,372.802 97.200 C 372.690 97.090,372.345 96.508,372.035 95.907 C 371.726 95.305,371.141 94.458,370.736 94.023 C 370.331 93.589,370.000 92.996,370.000 92.705 C 370.000 92.414,369.640 91.917,369.200 91.600 C 368.760 91.283,368.400 90.743,368.400 90.400 C 368.400 90.057,368.040 89.517,367.600 89.200 C 367.160 88.883,366.800 88.343,366.800 88.000 C 366.800 87.657,366.440 87.117,366.000 86.800 C 365.560 86.483,365.200 85.943,365.200 85.600 C 365.200 85.257,364.840 84.717,364.400 84.400 C 363.960 84.083,363.600 83.620,363.600 83.371 C 363.600 83.122,363.060 82.354,362.400 81.663 C 361.740 80.972,361.200 80.252,361.200 80.063 C 361.200 79.874,360.660 79.154,360.000 78.463 C 359.340 77.772,358.800 77.071,358.800 76.903 C 358.800 76.736,358.080 75.812,357.200 74.849 C 356.320 73.887,355.600 72.983,355.600 72.840 C 355.600 72.698,354.610 71.518,353.400 70.218 C 352.190 68.918,351.200 67.700,351.200 67.511 C 351.200 67.323,349.310 65.297,347.000 63.009 C 344.690 60.722,342.800 58.965,342.800 59.106 C 342.800 59.247,342.485 58.944,342.100 58.433 C 340.860 56.785,331.976 48.000,331.550 48.000 C 331.323 48.000,330.431 47.265,329.569 46.367 C 328.706 45.469,328.000 44.847,328.000 44.983 C 328.000 45.270,327.703 45.037,323.816 41.700 C 323.496 41.425,323.135 41.200,323.013 41.200 C 322.892 41.200,322.228 40.660,321.537 40.000 C 320.846 39.340,320.126 38.800,319.937 38.800 C 319.748 38.800,319.028 38.260,318.337 37.600 C 317.646 36.940,316.878 36.400,316.629 36.400 C 316.380 36.400,315.917 36.040,315.600 35.600 C 315.283 35.160,314.743 34.800,314.400 34.800 C 314.057 34.800,313.517 34.440,313.200 34.000 C 312.883 33.560,312.343 33.200,312.000 33.200 C 311.657 33.200,311.117 32.840,310.800 32.400 C 310.483 31.960,309.943 31.600,309.600 31.600 C 309.257 31.600,308.717 31.240,308.400 30.800 C 308.083 30.360,307.671 30.000,307.484 30.000 C 307.297 30.000,306.359 29.460,305.400 28.800 C 304.441 28.140,303.478 27.600,303.261 27.600 C 303.044 27.600,302.807 27.465,302.733 27.300 C 302.553 26.895,298.611 24.800,298.029 24.800 C 297.775 24.800,297.180 24.440,296.708 24.000 C 296.236 23.560,295.613 23.200,295.325 23.200 C 295.036 23.200,294.800 23.020,294.800 22.800 C 294.800 22.580,294.440 22.400,294.000 22.400 C 293.560 22.400,293.200 22.220,293.200 22.000 C 293.200 21.780,292.840 21.600,292.400 21.600 C 291.960 21.600,291.599 21.465,291.599 21.300 C 291.598 21.135,290.608 20.550,289.400 20.000 C 288.192 19.450,287.202 18.865,287.201 18.700 C 287.201 18.535,286.851 18.400,286.424 18.400 C 285.997 18.400,285.536 18.220,285.400 18.000 C 285.264 17.780,284.803 17.600,284.376 17.600 C 283.949 17.600,283.600 17.420,283.600 17.200 C 283.600 16.980,283.150 16.800,282.600 16.800 C 282.050 16.800,281.600 16.620,281.600 16.400 C 281.600 16.180,281.240 16.000,280.800 16.000 C 280.360 16.000,280.000 15.820,280.000 15.600 C 280.000 15.380,279.651 15.200,279.224 15.200 C 278.797 15.200,278.336 15.020,278.200 14.800 C 278.064 14.580,277.513 14.400,276.976 14.400 C 276.439 14.400,276.000 14.220,276.000 14.000 C 276.000 13.780,275.640 13.600,275.200 13.600 C 274.760 13.600,274.400 13.420,274.400 13.200 C 274.400 12.980,274.038 12.800,273.595 12.800 C 273.152 12.800,272.477 12.641,272.095 12.447 C 271.713 12.252,270.860 11.871,270.200 11.600 C 269.540 11.329,268.687 10.948,268.305 10.753 C 267.923 10.559,267.284 10.400,266.885 10.400 C 266.486 10.400,265.944 10.184,265.680 9.920 C 265.416 9.656,265.200 9.562,265.200 9.710 C 265.200 9.859,264.705 9.789,264.100 9.555 C 262.706 9.015,261.734 8.762,260.100 8.512 C 259.385 8.402,258.800 8.152,258.800 7.956 C 258.800 7.760,258.170 7.600,257.400 7.600 C 256.630 7.600,256.000 7.420,256.000 7.200 C 256.000 6.980,255.460 6.800,254.800 6.800 C 254.140 6.800,253.600 6.620,253.600 6.400 C 253.600 6.180,252.880 6.000,252.000 6.000 C 251.120 6.000,250.400 5.820,250.400 5.600 C 250.400 5.380,249.680 5.200,248.800 5.200 C 247.920 5.200,247.200 5.020,247.200 4.800 C 247.200 4.580,246.491 4.400,245.624 4.400 C 244.757 4.400,243.936 4.220,243.800 4.000 C 243.664 3.780,242.753 3.600,241.776 3.600 C 240.799 3.600,240.000 3.420,240.000 3.200 C 240.000 2.980,239.111 2.800,238.024 2.800 C 236.937 2.800,235.936 2.620,235.800 2.400 C 235.664 2.180,234.483 2.000,233.176 2.000 C 231.859 2.000,230.800 1.822,230.800 1.600 C 230.800 1.372,229.611 1.200,228.033 1.200 C 226.198 1.200,225.211 1.034,225.103 0.708 C 224.941 0.222,187.291 -0.126,178.300 0.275 " stroke="none" fill="#546383" fill-rule="evenodd"></path><path id="path2" d="M192.900 60.676 C 193.285 60.776,193.915 60.776,194.300 60.676 C 194.685 60.575,194.370 60.493,193.600 60.493 C 192.830 60.493,192.515 60.575,192.900 60.676 M205.700 60.676 C 206.085 60.776,206.715 60.776,207.100 60.676 C 207.485 60.575,207.170 60.493,206.400 60.493 C 205.630 60.493,205.315 60.575,205.700 60.676 " stroke="none" fill="#929aac" fill-rule="evenodd"></path><path id="path3" d="M197.300 60.697 C 198.785 60.774,201.215 60.774,202.700 60.697 C 204.185 60.620,202.970 60.557,200.000 60.557 C 197.030 60.557,195.815 60.620,197.300 60.697 M187.500 61.093 C 188.435 61.177,189.965 61.177,190.900 61.093 C 191.835 61.009,191.070 60.940,189.200 60.940 C 187.330 60.940,186.565 61.009,187.500 61.093 M209.100 61.093 C 210.035 61.177,211.565 61.177,212.500 61.093 C 213.435 61.009,212.670 60.940,210.800 60.940 C 208.930 60.940,208.165 61.009,209.100 61.093 M180.505 61.887 C 181.114 61.979,182.014 61.977,182.505 61.882 C 182.997 61.787,182.500 61.711,181.400 61.714 C 180.300 61.717,179.897 61.795,180.505 61.887 M217.705 61.887 C 218.314 61.979,219.214 61.977,219.705 61.882 C 220.197 61.787,219.700 61.711,218.600 61.714 C 217.500 61.717,217.097 61.795,217.705 61.887 M171.200 63.618 C 170.762 63.915,170.924 63.952,171.800 63.756 C 173.271 63.427,173.590 63.198,172.567 63.206 C 172.145 63.209,171.530 63.395,171.200 63.618 M253.200 74.490 C 253.200 74.577,254.235 75.528,255.500 76.603 C 256.765 77.679,257.440 78.144,257.000 77.636 C 256.164 76.671,253.200 74.217,253.200 74.490 M142.800 77.800 C 141.828 78.790,141.123 79.600,141.233 79.600 C 141.343 79.600,142.228 78.790,143.200 77.800 C 144.172 76.810,144.877 76.000,144.767 76.000 C 144.657 76.000,143.772 76.810,142.800 77.800 M138.981 81.700 L 137.400 83.400 139.100 81.819 C 140.681 80.348,140.984 80.000,140.681 80.000 C 140.616 80.000,139.851 80.765,138.981 81.700 M133.400 89.200 C 133.059 89.860,132.869 90.400,132.979 90.400 C 133.089 90.400,133.459 89.860,133.800 89.200 C 134.141 88.540,134.331 88.000,134.221 88.000 C 134.111 88.000,133.741 88.540,133.400 89.200 M128.846 99.267 C 128.821 99.634,128.696 100.264,128.570 100.667 C 128.352 101.362,128.363 101.363,128.797 100.687 C 129.048 100.296,129.173 99.666,129.073 99.287 C 128.911 98.668,128.888 98.666,128.846 99.267 M271.458 101.600 C 271.775 103.325,272.002 103.651,271.994 102.367 C 271.991 101.835,271.811 101.130,271.594 100.800 C 271.318 100.378,271.277 100.615,271.458 101.600 M272.268 105.000 C 272.571 106.977,272.802 107.314,272.794 105.767 C 272.791 105.125,272.616 104.330,272.405 104.000 C 272.145 103.591,272.101 103.910,272.268 105.000 M127.293 106.000 C 127.293 106.770,127.375 107.085,127.476 106.700 C 127.576 106.315,127.576 105.685,127.476 105.300 C 127.375 104.915,127.293 105.230,127.293 106.000 M273.388 134.400 C 273.388 148.150,273.438 153.775,273.500 146.900 C 273.561 140.025,273.561 128.775,273.500 121.900 C 273.438 115.025,273.388 120.650,273.388 134.400 M126.497 134.620 C 126.435 150.372,126.254 159.616,126.001 159.921 C 125.778 160.191,125.868 160.174,126.205 159.884 C 126.730 159.431,126.793 156.234,126.700 134.583 L 126.594 109.800 126.497 134.620 M277.200 164.050 C 277.200 164.398,278.437 166.800,278.617 166.800 C 278.704 166.800,278.661 166.485,278.521 166.100 C 278.233 165.306,277.200 163.703,277.200 164.050 M279.800 187.600 C 279.800 197.124,279.925 204.215,280.077 203.358 C 280.438 201.328,280.438 173.872,280.077 171.842 C 279.925 170.985,279.800 178.076,279.800 187.600 M119.857 172.300 C 119.519 174.341,119.577 201.011,119.923 202.960 C 120.075 203.818,120.200 196.933,120.200 187.660 C 120.200 178.387,120.179 170.800,120.152 170.800 C 120.126 170.800,119.993 171.475,119.857 172.300 M123.032 211.600 C 123.628 212.825,126.063 215.589,127.311 216.458 C 128.172 217.057,127.926 216.698,126.571 215.377 C 125.455 214.290,124.137 212.860,123.641 212.200 C 123.146 211.540,122.872 211.270,123.032 211.600 M273.400 215.463 C 271.688 217.031,271.636 217.118,273.038 216.063 C 274.519 214.949,275.927 213.576,275.549 213.615 C 275.467 213.624,274.500 214.455,273.400 215.463 M129.606 220.233 C 129.609 220.655,129.795 221.270,130.018 221.600 C 130.315 222.038,130.352 221.876,130.156 221.000 C 129.827 219.529,129.598 219.210,129.606 220.233 M130.406 223.033 C 130.409 223.455,130.595 224.070,130.818 224.400 C 131.115 224.838,131.152 224.676,130.956 223.800 C 130.627 222.329,130.398 222.010,130.406 223.033 M253.853 247.300 L 253.133 248.600 253.958 247.600 C 254.689 246.713,255.014 246.000,254.686 246.000 C 254.624 246.000,254.249 246.585,253.853 247.300 M252.253 250.100 L 251.533 251.400 252.358 250.400 C 253.089 249.513,253.414 248.800,253.086 248.800 C 253.024 248.800,252.649 249.385,252.253 250.100 M145.813 257.200 C 146.617 258.660,150.819 264.764,151.170 264.981 C 151.570 265.229,146.590 257.714,145.880 257.000 C 145.616 256.735,145.594 256.802,145.813 257.200 M245.296 260.605 C 244.132 262.403,244.400 262.400,245.773 260.600 C 246.360 259.830,246.697 259.202,246.520 259.205 C 246.344 259.208,245.793 259.838,245.296 260.605 M243.544 263.100 C 242.393 264.489,241.906 265.200,242.104 265.200 C 242.214 265.200,242.786 264.570,243.373 263.800 C 244.463 262.371,244.595 261.832,243.544 263.100 M239.780 281.400 C 239.780 288.880,239.834 291.883,239.899 288.074 C 239.965 284.265,239.965 278.145,239.899 274.474 C 239.833 270.803,239.779 273.920,239.780 281.400 M241.201 300.804 C 241.615 302.248,243.694 306.439,243.896 306.237 C 243.974 306.160,243.489 305.017,242.818 303.699 C 242.148 302.380,241.600 301.019,241.600 300.674 C 241.600 300.329,241.432 299.943,241.226 299.816 C 240.996 299.674,240.986 300.055,241.201 300.804 M244.714 307.404 C 244.941 307.847,245.548 308.566,246.063 309.002 C 246.967 309.766,246.965 309.752,246.006 308.597 C 244.413 306.679,244.279 306.555,244.714 307.404 M246.835 310.100 C 246.928 310.155,247.633 310.740,248.402 311.400 L 249.800 312.600 248.625 311.300 C 247.979 310.585,247.274 310.000,247.058 310.000 C 246.843 310.000,246.743 310.045,246.835 310.100 M142.081 312.572 C 140.325 313.814,139.897 314.345,141.400 313.418 C 143.478 312.135,144.191 311.599,143.789 311.620 C 143.575 311.630,142.807 312.059,142.081 312.572 M250.269 312.832 C 250.766 313.433,253.200 314.964,253.200 314.676 C 253.200 314.583,252.435 314.002,251.500 313.385 C 250.565 312.768,250.011 312.520,250.269 312.832 M117.800 326.000 C 117.140 326.437,116.780 326.792,117.000 326.788 C 117.401 326.782,119.576 325.223,119.200 325.212 C 119.090 325.208,118.460 325.563,117.800 326.000 M278.000 326.996 C 278.000 327.270,280.449 328.484,280.632 328.301 C 280.719 328.214,280.162 327.844,279.395 327.478 C 278.628 327.112,278.000 326.895,278.000 326.996 M107.100 331.829 C 105.605 332.640,105.696 332.978,107.200 332.200 C 107.860 331.859,108.400 331.494,108.400 331.390 C 108.400 331.132,108.357 331.147,107.100 331.829 M102.700 334.229 C 101.205 335.040,101.296 335.378,102.800 334.600 C 103.460 334.259,104.000 333.894,104.000 333.790 C 104.000 333.532,103.957 333.547,102.700 334.229 M92.200 340.000 C 91.540 340.437,91.180 340.792,91.400 340.788 C 91.801 340.782,93.976 339.223,93.600 339.212 C 93.490 339.208,92.860 339.563,92.200 340.000 M83.400 344.800 C 82.740 345.237,82.380 345.592,82.600 345.588 C 83.001 345.582,85.176 344.023,84.800 344.012 C 84.690 344.008,84.060 344.363,83.400 344.800 M77.429 348.208 C 76.344 348.958,75.174 349.869,74.829 350.232 C 74.483 350.596,75.100 350.271,76.200 349.510 C 77.300 348.750,78.645 347.829,79.189 347.464 C 79.733 347.099,80.003 346.810,79.789 346.822 C 79.575 346.834,78.513 347.458,77.429 348.208 M323.200 350.125 C 323.200 350.224,323.861 350.809,324.668 351.425 C 325.476 352.041,326.011 352.341,325.856 352.091 C 325.540 351.579,323.200 349.847,323.200 350.125 M327.081 353.387 C 327.477 353.931,327.966 354.381,328.170 354.387 C 328.373 354.394,328.117 353.950,327.600 353.400 C 326.401 352.123,326.157 352.118,327.081 353.387 " stroke="none" fill="#9ca4b4" fill-rule="evenodd"></path><path id="path4" d="M196.500 60.298 C 198.425 60.371,201.575 60.371,203.500 60.298 C 205.425 60.225,203.850 60.165,200.000 60.165 C 196.150 60.165,194.575 60.225,196.500 60.298 M221.400 62.000 C 221.840 62.189,222.470 62.344,222.800 62.344 C 223.178 62.344,223.104 62.217,222.600 62.000 C 222.160 61.811,221.530 61.656,221.200 61.656 C 220.822 61.656,220.896 61.783,221.400 62.000 M173.000 62.800 C 172.496 63.017,172.422 63.144,172.800 63.144 C 173.130 63.144,173.760 62.989,174.200 62.800 C 174.704 62.583,174.778 62.456,174.400 62.456 C 174.070 62.456,173.440 62.611,173.000 62.800 M225.800 62.800 C 226.240 62.989,226.870 63.144,227.200 63.144 C 227.578 63.144,227.504 63.017,227.000 62.800 C 226.560 62.611,225.930 62.456,225.600 62.456 C 225.222 62.456,225.296 62.583,225.800 62.800 M158.400 67.400 C 157.094 68.147,157.551 68.155,159.254 67.416 C 159.994 67.094,160.330 66.831,160.000 66.830 C 159.670 66.829,158.950 67.086,158.400 67.400 M138.175 82.100 L 137.000 83.400 138.300 82.225 C 139.015 81.579,139.600 80.994,139.600 80.925 C 139.600 80.616,139.270 80.888,138.175 82.100 M134.779 86.431 C 133.871 87.768,133.189 88.922,133.264 88.997 C 133.339 89.071,134.166 87.977,135.103 86.566 C 136.039 85.155,136.721 84.000,136.617 84.000 C 136.514 84.000,135.687 85.094,134.779 86.431 M126.600 107.600 C 126.448 108.291,126.407 108.941,126.509 109.042 C 126.611 109.144,126.809 108.653,126.950 107.950 C 127.283 106.283,126.960 105.960,126.600 107.600 M273.740 116.400 C 273.740 118.270,273.809 119.035,273.893 118.100 C 273.977 117.165,273.977 115.635,273.893 114.700 C 273.809 113.765,273.740 114.530,273.740 116.400 M126.131 116.200 C 126.133 117.740,126.205 118.321,126.292 117.491 C 126.379 116.661,126.377 115.401,126.289 114.691 C 126.200 113.981,126.129 114.660,126.131 116.200 M120.249 168.215 C 120.112 168.573,120.015 169.166,120.034 169.533 C 120.053 169.900,120.227 169.669,120.421 169.020 C 120.798 167.758,120.665 167.133,120.249 168.215 M280.581 187.400 C 280.581 195.760,280.634 199.237,280.699 195.126 C 280.764 191.016,280.764 184.176,280.700 179.926 C 280.635 175.677,280.582 179.040,280.581 187.400 M119.381 187.400 C 119.380 195.320,119.434 198.617,119.499 194.726 C 119.565 190.835,119.565 184.355,119.500 180.326 C 119.434 176.297,119.381 179.480,119.381 187.400 M125.000 214.748 C 125.660 215.477,126.740 216.446,127.400 216.901 C 128.818 217.880,128.498 217.534,125.800 215.174 C 124.322 213.881,124.113 213.770,125.000 214.748 M274.181 215.300 L 272.600 217.000 274.300 215.419 C 275.881 213.948,276.184 213.600,275.881 213.600 C 275.816 213.600,275.051 214.365,274.181 215.300 M270.900 217.646 C 269.537 218.519,269.095 219.106,270.300 218.443 C 271.218 217.939,272.656 216.827,272.400 216.819 C 272.290 216.816,271.615 217.188,270.900 217.646 M249.014 255.835 C 248.641 256.404,248.405 256.938,248.489 257.022 C 248.573 257.107,248.958 256.641,249.344 255.988 C 250.206 254.528,249.948 254.409,249.014 255.835 M151.961 266.654 C 152.751 267.850,152.794 268.530,152.900 281.254 L 153.011 294.600 153.104 281.200 L 153.196 267.800 152.165 266.600 L 151.134 265.400 151.961 266.654 M240.623 267.289 C 240.085 268.057,240.012 270.000,240.090 281.589 L 240.179 295.000 240.390 281.361 C 240.555 270.629,240.717 267.581,241.149 267.061 C 241.451 266.697,241.596 266.400,241.472 266.400 C 241.347 266.400,240.965 266.800,240.623 267.289 M148.399 306.100 C 147.810 306.904,147.713 307.184,148.145 306.833 C 148.801 306.300,149.793 304.800,149.489 304.800 C 149.413 304.800,148.922 305.385,148.399 306.100 M145.781 309.300 L 144.200 311.000 145.900 309.419 C 147.481 307.948,147.784 307.600,147.481 307.600 C 147.416 307.600,146.651 308.365,145.781 309.300 M321.200 348.521 C 321.200 348.612,322.235 349.351,323.500 350.163 C 324.765 350.975,325.308 351.221,324.706 350.710 C 323.518 349.700,321.200 348.253,321.200 348.521 " stroke="none" fill="#8189a1" fill-rule="evenodd"></path></g></svg>